<svg width="16" height="16" viewBox="0 0 16 16" fill="none" xmlns="http://www.w3.org/2000/svg">
    <path d="M12.4858 2H14.75C15.164 2 15.5 1.664 15.5 1.25C15.5 0.836 15.164 0.5 14.75 0.5H9.5V5.75C9.5 6.164 9.836 6.5 10.25 6.5C10.664 6.5 11 6.164 11 5.75V2.813C12.7903 3.85175 14 5.78525 14 8C14 11.3083 11.3083 14 8 14C4.69175 14 2 11.3083 2 8C2 4.946 4.295 2.423 7.25 2.05175V0.53825C3.4655 0.9155 0.5 4.118 0.5 8C0.5 12.1355 3.8645 15.5 8 15.5C12.1355 15.5 15.5 12.1355 15.5 8C15.5 5.54675 14.3128 3.36875 12.4858 2Z" fill="#E5F5E8"/>
</svg>
