<svg width="540" height="515" viewBox="0 0 540 515" fill="none" xmlns="http://www.w3.org/2000/svg">
<path d="M479.722 257.5C479.722 345.301 425.784 420.542 349.18 451.818L402.74 378.399L319.857 461.302C303.845 465.196 287.143 467.268 269.938 467.268C217.257 467.268 169.159 447.862 132.301 415.768C127.905 412 123.761 407.98 119.68 403.835C119.115 403.27 118.55 402.642 117.984 402.077L118.361 401.7L156.036 364.017L113.087 396.738C80.2472 359.684 60.2798 310.947 60.2798 257.5C60.2798 159.399 127.591 76.9988 218.575 54.075L200.24 72.414L239.547 49.9299C249.468 48.4853 259.64 47.7317 270.001 47.7317C280.801 47.7317 291.35 48.5482 301.71 50.1183L252.984 98.8549L317.596 53.1329C334.612 57.0896 350.875 63.1189 366.07 70.9695L303.217 133.837L377.624 77.4384C438.782 114.054 479.722 181.004 479.722 257.5Z" fill="#80858A"/>
<mask id="mask0" mask-type="alpha" maskUnits="userSpaceOnUse" x="60" y="47" width="420" height="421">
<path d="M479.721 257.5C479.721 345.301 425.784 420.542 349.179 451.818L402.74 378.399L319.856 461.302C303.844 465.196 287.142 467.268 269.937 467.268C217.256 467.268 169.158 447.862 132.3 415.768C127.905 412 123.761 407.98 119.679 403.835C119.114 403.27 118.549 402.642 117.984 402.077L118.361 401.7L156.035 364.017L113.086 396.738C80.2467 359.684 60.2793 310.947 60.2793 257.5C60.2793 159.399 127.591 76.9988 218.575 54.075L200.24 72.414L239.547 49.9299C249.468 48.4853 259.64 47.7317 270 47.7317C280.8 47.7317 291.349 48.5482 301.71 50.1183L252.984 98.8549L317.596 53.1329C334.612 57.0896 350.875 63.1189 366.07 70.9695L303.216 133.837L377.623 77.4384C438.782 114.054 479.721 181.004 479.721 257.5Z" fill="#80858A"/>
</mask>
<g mask="url(#mask0)">
<g filter="url(#filter0_d)">
<path d="M44.895 275.462L95.4415 278.853C97.8904 272.322 101.783 267.423 110.637 267.423C114.969 267.423 118.235 268.679 120.558 271.254L160.493 231.31C152.832 228.484 143.979 226.914 134.058 226.914C119.365 226.914 108.502 229.363 101.532 233.697C101.658 232.755 103.29 220.319 103.855 216.363L44.895 275.462ZM58.7718 190.613L73.088 176.293C73.1508 176.23 73.2136 176.167 73.2764 176.042C76.6043 172.399 74.0299 166.433 68.9439 166.433H50.9857C50.9857 166.621 50.9229 166.872 50.9229 167.061C50.4206 172.336 49.7299 178.742 48.9136 185.839C48.2857 191.303 54.8787 194.507 58.7718 190.613ZM176.504 215.358L183.6 208.261L190.883 166.433H183.914C177.948 166.433 173.993 160.215 176.567 154.814L186.676 133.649L156.097 164.235L104.923 215.421H176.504V215.358ZM70.8276 245.064L96.8857 219C97.1997 218.686 97.4508 218.435 97.7648 218.184L149.442 166.433H87.3415L64.988 188.791L46.088 207.696L42.1322 232.629C42.1322 232.817 42.1322 233.006 42.1322 233.257C42.1322 248.079 60.216 255.678 70.8276 245.064ZM196.535 283.124C196.535 282.999 196.535 282.81 196.472 282.685C196.472 282.37 196.409 282.056 196.409 281.742C196.409 281.554 196.346 281.366 196.346 281.24C196.283 280.989 196.283 280.675 196.221 280.424C196.221 280.235 196.158 280.047 196.158 279.858C196.095 279.607 196.095 279.356 196.032 279.105C195.969 278.916 195.969 278.728 195.907 278.539C195.844 278.288 195.781 278.037 195.781 277.786C195.718 277.597 195.718 277.409 195.655 277.22C195.593 276.969 195.53 276.718 195.467 276.467C195.404 276.278 195.342 276.09 195.342 275.902C195.279 275.65 195.216 275.399 195.153 275.148C195.09 274.96 195.028 274.771 194.965 274.645C194.902 274.394 194.839 274.143 194.714 273.955C194.651 273.766 194.588 273.641 194.525 273.452C194.462 273.201 194.337 272.95 194.274 272.699C194.211 272.573 194.148 272.385 194.086 272.259C193.96 272.008 193.897 271.756 193.772 271.505C193.709 271.38 193.646 271.254 193.583 271.066C193.458 270.814 193.332 270.5 193.207 270.249C193.144 270.124 193.081 270.061 193.081 269.935C192.893 269.558 192.704 269.244 192.516 268.867V268.805C192.328 268.428 192.139 268.051 191.888 267.674L191.825 267.611C191.637 267.297 191.449 266.983 191.26 266.606C191.197 266.544 191.135 266.418 191.072 266.355C190.883 266.104 190.758 265.853 190.569 265.602C190.507 265.476 190.444 265.413 190.381 265.288C190.193 265.036 190.067 264.848 189.879 264.597C189.816 264.471 189.69 264.408 189.628 264.283C189.439 264.094 189.314 263.843 189.125 263.655C189.062 263.529 188.937 263.466 188.874 263.341C188.686 263.152 188.56 262.901 188.372 262.713C188.309 262.587 188.183 262.524 188.121 262.399C187.932 262.21 187.744 262.022 187.555 261.77C187.493 261.645 187.367 261.582 187.304 261.456C187.116 261.268 186.928 261.08 186.739 260.891C186.676 260.828 186.551 260.703 186.488 260.64C186.3 260.452 186.111 260.263 185.86 260.075C185.797 260.012 185.672 259.886 185.609 259.824C185.358 259.635 185.169 259.384 184.918 259.195C184.855 259.133 184.793 259.07 184.667 259.007C184.416 258.756 184.165 258.567 183.914 258.379C183.851 258.316 183.851 258.316 183.788 258.253C182.532 257.249 181.151 256.244 179.769 255.427C179.707 255.427 179.707 255.364 179.644 255.364C179.33 255.176 179.016 254.988 178.765 254.862C178.702 254.799 178.639 254.799 178.576 254.736C178.262 254.548 178.011 254.422 177.697 254.297C177.635 254.234 177.509 254.234 177.446 254.171C177.195 254.046 176.881 253.92 176.63 253.731C176.567 253.669 176.442 253.669 176.379 253.606C176.128 253.48 175.814 253.355 175.562 253.229C175.5 253.166 175.374 253.166 175.311 253.103C174.997 252.978 174.746 252.852 174.432 252.727C174.369 252.664 174.244 252.664 174.181 252.601C173.867 252.475 173.616 252.35 173.302 252.287C173.239 252.287 173.114 252.224 173.051 252.224C172.737 252.099 172.423 252.036 172.109 251.91C172.046 251.91 171.983 251.847 171.921 251.847C171.544 251.722 171.23 251.659 170.853 251.533H170.79C168.844 250.968 166.772 250.591 164.762 250.403C164.7 250.403 164.7 250.403 164.637 250.403C164.26 250.34 163.883 250.34 163.569 250.277C163.507 250.277 163.444 250.277 163.381 250.277C163.067 250.277 162.69 250.214 162.376 250.214C162.314 250.214 162.251 250.214 162.125 250.214C161.811 250.214 161.497 250.214 161.121 250.214C161.058 250.214 160.932 250.214 160.869 250.214C160.555 250.214 160.242 250.214 159.865 250.214C159.802 250.214 159.676 250.214 159.614 250.214C159.3 250.214 158.986 250.277 158.609 250.277C158.546 250.277 158.421 250.277 158.358 250.277C158.044 250.277 157.667 250.34 157.353 250.34C157.29 250.34 157.228 250.34 157.165 250.34C156.788 250.403 156.411 250.403 156.097 250.466C156.035 250.466 156.035 250.466 155.972 250.466C153.9 250.78 151.828 251.282 149.818 251.973C149.755 251.973 149.755 251.973 149.693 252.036C149.316 252.161 148.939 252.287 148.625 252.413C148.562 252.413 148.5 252.475 148.437 252.475C148.123 252.601 147.809 252.727 147.432 252.852C147.369 252.915 147.244 252.915 147.181 252.978C146.867 253.103 146.553 253.229 146.239 253.417C146.176 253.48 146.051 253.48 145.988 253.543C145.674 253.669 145.423 253.857 145.109 253.983C145.046 254.045 144.921 254.108 144.858 254.108C144.544 254.234 144.293 254.422 143.979 254.611C143.916 254.674 143.79 254.736 143.728 254.736C143.414 254.925 143.162 255.113 142.848 255.239C142.786 255.302 142.66 255.364 142.597 255.364C142.283 255.553 141.969 255.741 141.718 255.93C141.655 255.992 141.593 255.992 141.53 256.055C141.467 256.118 141.404 256.118 141.342 256.181C141.216 256.306 141.028 256.369 140.902 256.495C140.714 256.62 140.462 256.809 140.274 256.935C140.086 257.06 139.897 257.249 139.709 257.374C139.458 257.563 139.269 257.751 139.018 257.939C138.83 258.065 138.704 258.191 138.516 258.379C138.265 258.63 138.014 258.819 137.762 259.07C137.637 259.195 137.511 259.321 137.386 259.447C137.009 259.824 136.632 260.2 136.255 260.577L122.442 273.892C124.514 277.66 125.518 283.187 125.518 290.284C125.518 291.163 125.518 291.98 125.455 292.796C125.33 294.366 125.204 296.062 125.016 297.82C123.697 307.492 119.553 313.773 111.202 313.773C102.286 313.773 98.6438 307.43 96.9485 299.391L12.6206 383.737L58.9601 354.156C64.6741 350.514 71.7694 349.446 78.2997 351.456C80.4346 352.084 82.695 352.712 84.9555 353.214C85.8346 353.403 86.9648 353.591 88.2206 353.78C110.323 356.794 132.614 349.195 148.437 333.368L159.425 322.377C159.865 322 160.242 321.561 160.618 321.184L196.66 285.134C196.66 284.945 196.66 284.694 196.66 284.506C196.597 284.003 196.535 283.564 196.535 283.124ZM198.921 108.652C195.53 107.836 192.139 110.16 191.7 113.677L189.816 130.32L201.683 118.45C204.886 115.247 203.379 109.72 198.921 108.652ZM189.188 297.004L160.555 325.706C160.43 325.831 160.242 326.02 160.116 326.145L131.044 355.224C148.939 353.026 163.318 347.311 174.055 338.581C174.181 338.455 174.369 338.33 174.495 338.204C174.809 337.953 175.06 337.702 175.311 337.513C180.711 332.866 185.107 327.464 188.497 321.309C191.951 315.029 194.337 307.995 195.593 300.27C196.221 296.627 191.762 294.429 189.188 297.004ZM78.4253 313.459L95.1276 296.753H31.3322C31.3322 296.941 31.395 297.067 31.395 297.255C34.0322 320.179 62.0997 329.788 78.4253 313.459Z" fill="url(#paint0_linear)"/>
</g>
<g filter="url(#filter1_d)">
<path d="M214.806 225.344C221.588 225.344 228.369 222.832 233.706 217.493L258.069 193.125L248.274 166.307H236.469L191.323 211.464C196.283 220.571 205.513 225.344 214.806 225.344ZM199.109 199.28L219.641 178.743C219.641 178.743 219.704 178.68 219.767 178.617L225.104 173.279C227.678 170.704 225.857 166.307 222.216 166.307H197.35L192.202 195.637C191.511 199.594 196.283 202.106 199.109 199.28ZM219.516 262.838L202.813 291.98C202.123 305.169 198.606 316.976 192.516 326.962L245.699 273.767L258.76 260.703L302.839 216.614L353.071 166.37H324.564C304.346 166.37 286.262 178.994 279.292 197.898L270.188 222.455H268.744L259.199 196.391L209.971 245.63L219.516 262.838ZM187.43 478.385C192.892 479.767 198.355 475.998 198.983 470.346L202.06 443.654L183.034 462.684C177.885 467.771 180.334 476.626 187.43 478.385ZM335.93 318.484C330.718 318.484 325.506 320.431 321.425 324.513L271.632 374.317C271.13 374.631 270.69 375.008 270.313 375.385C269.434 376.201 268.618 377.081 267.927 378.023C267.802 378.148 267.676 378.274 267.55 378.399L205.137 440.828L276.404 386.564C276.53 386.438 276.655 386.376 276.781 386.25C277.911 385.622 278.916 384.868 279.857 383.926L307.988 362.51C313.262 358.49 319.73 356.292 326.385 356.292L353.825 328.846C349.932 322.063 342.962 318.484 335.93 318.484ZM232.827 329.286L264.034 298.072L264.097 297.946H264.223L291.725 270.438C291.85 270.312 292.039 270.124 292.164 269.998L311.002 251.157C313.827 249.587 316.527 247.074 318.725 243.432C318.85 243.243 318.913 243.118 319.039 242.929L365.378 166.307H357.655L298.632 225.344C298.444 225.532 298.255 225.721 298.067 225.909L278.79 245.002L276.467 247.326C275.65 248.079 274.897 248.833 274.206 249.587L246.264 277.535L167.525 356.292C179.769 356.292 191.762 353.843 202.813 349.258C211.102 345.804 218.888 341.156 225.92 335.441C228.369 333.494 230.63 331.421 232.827 329.286ZM355.395 331.673L347.357 339.774L330.781 356.355H369.46L355.395 331.673ZM210.223 356.292H238.918C239.671 356.292 240.425 356.292 241.178 356.292L261.146 305.357L226.737 339.774L210.223 356.292ZM306.92 259.573C282.118 284.443 274.332 321.624 287.204 354.282L314.581 326.899L338.881 302.594L311.63 254.988L311.818 254.611L306.92 259.573Z" fill="url(#paint1_linear)"/>
</g>
<g filter="url(#filter2_d)">
<path d="M368.392 189.482C368.832 189.231 369.146 188.854 369.46 188.415L380.699 177.173C384.718 173.153 381.892 166.307 376.179 166.307C375.048 166.307 373.981 166.621 373.039 167.124C372.097 167.626 371.281 168.443 370.716 169.385L362.302 183.265L359.979 187.096L343.527 214.29L368.392 189.482ZM393.823 238.47L416.365 215.923L409.395 196.768C406.381 188.603 407.511 179.496 412.409 172.337L459.502 102.812L344.658 217.619L352.883 232.566C361.172 247.702 381.641 250.654 393.823 238.47ZM377.372 301.526C378.565 300.458 379.758 299.328 380.825 298.072L420.697 258.191C420.76 258.128 420.823 258.065 420.948 257.94C422.393 256.746 423.774 255.427 424.967 253.92L438.781 240.103L439.597 239.287C439.597 239.287 439.597 239.287 439.66 239.224L440.916 237.968L441.858 237.026L512.623 166.182C499.123 166.182 485.874 168.882 473.693 173.907C461.448 178.994 450.209 186.405 440.665 196.014L423.711 212.971L420.258 222.329H418.813L417.558 219.189L365.441 271.317C364.751 271.882 364.123 272.573 363.495 273.264L346.29 303.159C349.367 308.623 354.955 311.449 360.606 311.449C364.751 311.449 368.958 309.879 372.223 306.613L377.372 301.526ZM426.223 206.063L448.262 184.018L465.969 166.307H440.916L426.223 206.063ZM465.467 85.0377L463.96 98.3524L473.441 88.8688C476.016 86.2938 474.823 81.8975 471.244 81.0182C468.544 80.3274 465.781 82.2115 465.467 85.0377ZM490.395 343.982L504.397 329.977L489.641 304.164L470.93 322.817L437.776 355.978L437.902 356.292H478.088L490.206 344.171C490.269 344.108 490.332 344.045 490.395 343.982ZM517.332 352.712L509.358 338.707C507.662 335.755 503.644 335.19 501.258 337.639L494.288 344.61C493.158 345.49 492.153 346.494 491.337 347.562C488.072 350.828 490.395 356.355 494.979 356.355H519.467C518.776 355.036 518.086 353.843 517.332 352.712ZM472.123 237.591L512.434 170.892L427.165 256.181L372.348 311.073C364.311 319.112 362.616 331.61 368.267 341.533L403.053 306.739L472.123 237.591ZM488.009 301.338L461.574 254.988L465.341 248.77L454.039 260.075C430.492 283.627 423.146 318.86 435.327 349.823L436.52 352.838L449.079 340.277L488.009 301.338ZM385.22 328.972L375.362 338.77C372.097 342.035 371.406 347.122 373.73 351.142C374.672 352.775 375.927 354.031 377.497 354.91C379.067 355.79 380.825 356.292 382.646 356.292H384.153C388.36 356.292 392.19 353.717 393.697 349.76L399.599 334.687V334.624L412.534 301.526L385.22 328.972Z" fill="url(#paint2_linear)"/>
</g>
</g>
<path d="M397.904 39.1276L297.438 139.615C290.594 146.461 279.229 145.456 273.641 137.543C268.555 130.257 270.564 120.209 278.036 115.435L397.904 39.1276Z" fill="url(#paint3_linear)"/>
<path d="M397.904 39.1276L302.714 134.34C296.246 140.809 285.446 139.867 280.172 132.393C275.337 125.484 277.22 116.001 284.316 111.479L397.904 39.1276Z" fill="url(#paint4_linear)"/>
<path d="M382.96 398.183L287.77 493.458C281.302 499.927 270.502 498.985 265.228 491.511C260.393 484.602 262.277 475.119 269.372 470.597L382.96 398.183Z" fill="url(#paint5_linear)"/>
<path d="M324.377 27.4457L245.575 106.266C240.175 111.667 231.258 110.851 226.926 104.633C222.907 98.9176 224.477 91.067 230.379 87.2987L324.377 27.4457Z" fill="url(#paint6_linear)"/>
<path d="M324 27.0688L252.544 98.478C247.647 103.377 239.609 102.623 235.653 96.9706C232.012 91.8206 233.456 84.6609 238.793 81.2694L324 27.0688Z" fill="url(#paint7_linear)"/>
<path d="M199.36 73.2932L223.912 48.7365L193.521 65.4426C189.251 67.7663 190.57 74.1725 195.405 74.7377C196.849 74.8633 198.293 74.3609 199.36 73.2932Z" fill="url(#paint8_linear)"/>
<path d="M156.097 364.08L132.362 415.768C127.967 412 123.822 407.98 119.741 403.835L118.422 401.7L156.097 364.08Z" fill="url(#paint9_linear)"/>
<path d="M156.098 364.017L108.817 411.372C103.228 416.962 107.184 426.445 115.033 426.445C118.172 426.445 121.124 424.749 122.693 422.049L156.098 364.017Z" fill="url(#paint10_linear)"/>
<path d="M160.556 231.311L120.621 271.255C118.235 268.68 114.97 267.423 110.7 267.423C101.784 267.423 97.9534 272.322 95.5045 278.854L44.958 275.462L103.918 216.489C103.416 220.383 101.784 232.818 101.595 233.823C108.565 229.489 119.428 227.04 134.121 227.04C144.042 226.914 152.832 228.484 160.556 231.311Z" fill="url(#paint11_radial)"/>
<path d="M73.2777 176.042C73.2149 176.105 73.1521 176.168 73.0893 176.293L58.773 190.613C54.88 194.507 48.2869 191.304 48.9149 185.84C49.7939 178.806 50.4846 172.399 50.9242 167.061C50.9242 166.873 50.9242 166.621 50.9869 166.433H68.9451C74.0311 166.433 76.6056 172.399 73.2777 176.042Z" fill="url(#paint12_radial)"/>
<path d="M190.884 166.433L183.537 208.261L176.442 215.358H104.986L156.16 164.172L186.739 133.586L176.63 154.751C174.056 160.153 178.011 166.37 183.977 166.37H190.884V166.433Z" fill="url(#paint13_radial)"/>
<path d="M31.3325 296.753C31.3325 296.942 31.3953 297.067 31.3953 297.256C34.0953 320.179 62.1 329.789 78.4256 313.459L95.1279 296.753H31.3325Z" fill="url(#paint14_radial)"/>
<path d="M195.592 300.27C194.337 307.932 191.95 315.029 188.497 321.31C185.106 327.465 180.711 332.866 175.311 337.513C175.06 337.765 174.746 338.016 174.495 338.204C174.369 338.33 174.181 338.456 174.055 338.581C163.318 347.311 148.876 353.026 131.043 355.224L160.116 326.146C160.241 326.02 160.43 325.832 160.555 325.706L189.188 297.004C191.762 294.429 196.22 296.627 195.592 300.27Z" fill="url(#paint15_radial)"/>
<path d="M196.598 285.134L148.375 333.369C132.551 349.195 110.323 356.795 88.1583 353.78C86.8397 353.592 85.7095 353.403 84.8932 353.215C82.5699 352.712 80.3723 352.084 78.2374 351.456C71.7071 349.447 64.6746 350.514 58.8978 354.157L12.6211 383.738L96.949 299.391C98.6443 307.43 102.286 313.773 111.202 313.773C119.554 313.773 123.698 307.493 125.016 297.821C125.205 296.251 125.393 294.555 125.456 292.796C125.456 291.98 125.519 291.164 125.519 290.284C125.519 283.187 124.577 277.723 122.442 273.892L135.816 260.515C157.856 238.47 195.593 253.355 196.598 284.506C196.598 284.695 196.598 284.946 196.598 285.134Z" fill="url(#paint16_radial)"/>
<path d="M149.442 166.433L97.7648 218.122C97.4509 218.373 97.1997 218.687 96.8858 218.938L70.8277 245.002C60.216 255.616 42.1323 248.017 42.1323 233.195C42.1323 233.006 42.1323 232.818 42.1323 232.567L46.0881 207.633L64.9881 188.729L87.3416 166.37H149.442V166.433Z" fill="url(#paint17_radial)"/>
<path d="M149.442 166.433L97.7657 218.121C97.4517 218.373 97.2006 218.687 96.8866 218.938C96.0703 219.754 95.1912 220.634 94.3122 221.513C58.0192 257.814 46.6541 207.507 64.9262 188.792L87.2796 166.433H149.442Z" fill="url(#paint18_linear)"/>
<path d="M190.885 166.433L183.538 208.261C144.67 213.662 134.436 185.777 156.036 164.172L186.615 133.586L176.505 154.751C173.931 160.153 177.887 166.37 183.852 166.37H190.885V166.433Z" fill="url(#paint19_linear)"/>
<path d="M95.443 278.854L44.8965 275.462L103.857 216.489C103.355 220.383 101.722 232.818 101.534 233.823C108.503 229.489 119.366 227.04 134.059 227.04C143.98 227.04 152.834 228.61 160.494 231.436C113.087 231.436 89.9802 255.302 95.443 278.854Z" fill="url(#paint20_linear)"/>
<path d="M196.598 285.134L159.363 322.378L148.437 333.306C132.614 349.132 110.386 356.732 88.2212 353.717C119.428 347.688 123.384 317.228 125.079 297.758C125.205 296 125.393 294.304 125.519 292.734C125.519 291.917 125.582 291.101 125.582 290.222C125.582 283.125 124.64 277.661 122.505 273.829L135.879 260.452C137.512 258.819 139.27 257.375 141.028 256.118C163.319 240.731 195.719 255.616 196.661 284.443C196.598 284.695 196.598 284.946 196.598 285.134Z" fill="url(#paint21_radial)"/>
<path d="M196.599 285.134L160.62 321.121L159.364 322.378C172.801 308.937 166.083 271.254 140.966 256.181C163.257 240.794 195.657 255.679 196.599 284.506C196.599 284.695 196.599 284.946 196.599 285.134Z" fill="url(#paint22_linear)"/>
<path d="M73.2776 176.042C73.2148 176.105 73.1521 176.168 73.0893 176.293C62.4776 186.907 49.7939 181.946 50.9869 167.061C50.9869 166.873 50.9869 166.621 51.0497 166.433H69.0079C74.0311 166.433 76.6055 172.399 73.2776 176.042Z" fill="url(#paint23_linear)"/>
<path d="M95.1281 296.753C76.6676 313.648 36.6699 319.614 31.3955 296.753H95.1281Z" fill="url(#paint24_linear)"/>
<path d="M195.594 300.27C194.338 307.932 191.952 315.029 188.498 321.31C183.977 328.03 179.394 333.934 175.312 337.514C175.061 337.765 174.747 338.016 174.496 338.204C174.37 338.33 174.182 338.456 174.056 338.581C159.3 350.137 145.047 341.659 160.117 326.146C160.242 326.02 160.431 325.832 160.556 325.706L189.189 297.004C191.763 294.429 196.221 296.627 195.594 300.27Z" fill="url(#paint25_linear)"/>
<path opacity="0.5" d="M94.3752 221.513C58.0822 257.814 46.7171 207.507 64.9892 188.792C62.7287 191.367 61.0333 194.381 59.8403 197.521C58.5845 200.662 57.831 203.99 57.4543 207.319C57.1403 210.648 57.1403 214.039 57.6427 217.368C58.145 220.634 59.0868 223.899 60.7822 226.726C62.4147 229.552 64.8636 231.876 67.8775 232.881C70.8915 233.948 74.2822 233.571 77.4217 232.566C80.5613 231.499 83.5752 229.866 86.338 227.919C89.1636 225.972 91.8008 223.774 94.3752 221.513Z" fill="url(#paint26_linear)"/>
<path opacity="0.5" d="M183.6 208.261C144.733 213.662 134.498 185.777 156.098 164.172C151.891 168.945 148.375 174.409 146.742 180.376C145.926 183.39 145.549 186.468 145.989 189.483C146.366 192.497 147.433 195.449 149.254 197.898C151.012 200.348 153.398 202.42 156.035 203.928C158.673 205.435 161.686 206.503 164.7 207.193C167.777 207.884 170.854 208.261 174.056 208.387C177.259 208.638 180.398 208.449 183.6 208.261Z" fill="url(#paint27_linear)"/>
<path opacity="0.5" d="M95.4421 278.854C94.4374 275.148 94.0607 271.192 94.6258 267.298L94.877 265.853C94.9398 265.351 95.0653 264.911 95.1909 264.409C95.3793 263.467 95.6932 262.525 96.0072 261.583C96.1328 261.08 96.3839 260.64 96.5095 260.201C96.6979 259.761 96.8235 259.259 97.0746 258.819C97.5142 257.94 97.8909 257.061 98.456 256.181C100.403 252.79 102.977 249.712 105.865 247.075C108.754 244.437 112.019 242.176 115.472 240.292C118.926 238.407 122.505 236.9 126.21 235.644C129.914 234.451 133.682 233.446 137.512 232.755C145.172 231.373 152.896 230.934 160.619 231.31C113.086 231.436 89.9793 255.302 95.4421 278.854Z" fill="url(#paint28_linear)"/>
<path opacity="0.5" d="M125.017 297.758C124.891 303.85 124.389 309.942 123.258 315.972C122.693 318.986 121.94 321.938 120.998 324.89C120.056 327.842 118.863 330.668 117.419 333.431C115.975 336.132 114.217 338.77 112.207 341.093C110.198 343.417 107.875 345.553 105.3 347.311C100.214 350.891 94.1863 352.901 88.2212 353.717C119.428 347.688 123.384 317.29 125.017 297.758Z" fill="url(#paint29_linear)"/>
<path opacity="0.5" d="M166.773 304.981C166.522 308.184 165.831 311.387 164.701 314.464C163.759 316.914 162.378 319.237 160.62 321.184C160.243 321.624 159.803 322.064 159.364 322.44C172.801 309 166.082 271.317 140.966 256.244C146.617 259.196 151.578 263.592 155.534 268.68C159.489 273.767 162.441 279.67 164.387 285.825C166.334 291.98 167.338 298.512 166.773 304.981Z" fill="url(#paint30_linear)"/>
<path opacity="0.5" d="M73.0892 176.293C62.4776 186.907 49.7939 181.946 50.9869 167.061C51.1753 169.887 51.6148 172.713 52.7451 175.1C53.8753 177.549 55.759 179.496 58.1451 180.376C60.5311 181.318 63.2939 181.129 65.8683 180.313C68.4427 179.496 70.766 177.989 73.0892 176.293Z" fill="url(#paint31_linear)"/>
<path opacity="0.5" d="M95.1281 296.753C76.6676 313.648 36.6699 319.614 31.3955 296.753C32.2746 299.705 33.8443 302.406 35.9792 304.541C37.0467 305.609 38.3025 306.488 39.5583 307.242C40.249 307.556 40.8769 307.932 41.5676 308.246L42.5723 308.686L43.0746 308.875L43.5769 309.063C46.4025 310.005 49.4164 310.507 52.4304 310.696C55.4443 310.884 58.4583 310.759 61.4723 310.382C67.5002 309.691 73.4653 308.058 79.1164 305.797C84.8304 303.599 90.2304 300.647 95.1281 296.753Z" fill="url(#paint32_linear)"/>
<path opacity="0.5" d="M173.994 338.581C159.238 350.137 144.984 341.659 160.054 326.146C158.108 328.721 156.224 331.421 155.157 334.31C154.654 335.755 154.34 337.262 154.529 338.644C154.529 339.021 154.654 339.335 154.78 339.649C154.905 339.963 155.031 340.277 155.219 340.528C155.345 340.842 155.596 341.093 155.847 341.282C156.098 341.47 156.35 341.721 156.664 341.91C157.794 342.663 159.301 342.977 160.745 343.04C162.252 343.103 163.759 342.852 165.266 342.475C166.773 342.098 168.28 341.533 169.724 340.842C171.231 340.151 172.612 339.398 173.994 338.581Z" fill="url(#paint33_linear)"/>
<path d="M189.816 130.257L201.684 118.387C204.886 115.184 203.379 109.657 198.984 108.59C195.593 107.773 192.202 110.097 191.763 113.614L189.816 130.257Z" fill="url(#paint34_linear)"/>
<path d="M365.255 166.307L318.915 242.929C318.789 243.118 318.727 243.243 318.601 243.432L310.878 251.157L292.041 269.998C291.915 270.124 291.727 270.312 291.601 270.438L264.099 297.946H263.973L263.91 298.072L232.703 329.286C230.506 331.484 228.245 333.557 225.859 335.441C218.827 341.219 211.041 345.867 202.752 349.258C191.638 353.843 179.708 356.292 167.464 356.292L246.203 277.535L297.817 225.909C298.006 225.721 298.194 225.532 298.382 225.344L357.406 166.307H365.255Z" fill="url(#paint35_radial)"/>
<path d="M365.254 166.307L318.915 242.929C318.789 243.118 318.726 243.243 318.601 243.432L310.878 251.157L292.04 269.998C291.915 270.124 291.726 270.312 291.601 270.438L264.099 297.946H263.973L263.91 298.072L232.703 329.286C230.506 331.484 228.245 333.557 225.859 335.441C225.733 323.445 227.617 296.251 245.575 278.854L246.203 277.535L297.817 225.909C298.006 225.721 298.194 225.532 298.382 225.344L357.406 166.307H365.254Z" fill="url(#paint36_radial)"/>
<path d="M365.255 166.307L318.915 242.929C318.79 243.118 318.727 243.243 318.602 243.432L310.878 251.157L292.041 269.998C291.915 270.124 291.727 270.312 291.601 270.438C272.325 289.719 252.169 270.375 276.469 247.388L278.792 245.065L297.881 225.972C298.069 225.784 298.257 225.595 298.446 225.407L357.469 166.37H365.255V166.307Z" fill="url(#paint37_radial)"/>
<path d="M353.073 166.307L245.701 273.704L192.518 326.899C198.671 316.913 202.125 305.106 202.815 291.917L219.58 262.776L210.099 245.567L259.327 196.328L268.871 222.392H270.315L279.42 197.835C286.39 178.868 304.473 166.307 324.692 166.307H353.073Z" fill="url(#paint38_radial)"/>
<path d="M353.073 166.307L245.701 273.704C245.701 273.704 245.701 273.704 245.701 273.641C245.45 271.882 240.175 236.963 259.326 196.391L268.871 222.455H270.315L279.419 197.898C286.389 178.931 304.473 166.37 324.691 166.37H353.073V166.307Z" fill="url(#paint39_radial)"/>
<path d="M225.044 173.279L219.707 178.617C219.644 178.68 219.644 178.68 219.581 178.743L199.049 199.28C196.223 202.106 191.451 199.594 192.142 195.7L197.291 166.37H222.156C225.798 166.307 227.619 170.704 225.044 173.279Z" fill="url(#paint40_radial)"/>
<path d="M258.071 193.125L233.708 217.493C228.371 222.832 221.59 225.344 214.808 225.344C205.515 225.344 196.285 220.508 191.262 211.464L236.408 166.307H248.213L258.071 193.125Z" fill="url(#paint41_radial)"/>
<path d="M338.82 302.657L314.583 326.962L287.206 354.345C274.334 321.624 282.12 284.443 306.922 259.635L311.883 254.674L311.694 255.051L338.82 302.657Z" fill="url(#paint42_radial)"/>
<path d="M353.764 328.846L326.324 356.292C319.668 356.292 313.201 358.49 307.927 362.51L276.782 386.25C276.657 386.376 276.531 386.439 276.406 386.564L205.138 440.828L267.552 378.4C267.678 378.274 267.803 378.148 267.929 378.023L321.427 324.513C325.508 320.431 330.72 318.484 335.931 318.484C342.964 318.484 349.934 322.064 353.764 328.846Z" fill="url(#paint43_radial)"/>
<path d="M261.085 305.42L241.18 356.292H210.225L226.739 339.774L261.085 305.42Z" fill="url(#paint44_radial)"/>
<path d="M369.462 356.292H330.783L355.397 331.673L369.462 356.292Z" fill="url(#paint45_radial)"/>
<path d="M225.044 173.279L219.707 178.617C219.644 178.68 219.644 178.68 219.581 178.743C208.593 189.483 193.837 185.965 197.291 166.307H222.156C225.798 166.307 227.618 170.704 225.044 173.279Z" fill="url(#paint46_linear)"/>
<path d="M258.071 193.125C238.731 212.469 216.755 214.667 191.262 211.464L236.408 166.307H248.213L258.071 193.125Z" fill="url(#paint47_linear)"/>
<path d="M353.073 166.307L258.762 260.64C258.95 260.075 263.659 244.876 270.252 222.455L279.357 197.898C286.327 178.931 304.41 166.37 324.629 166.37H353.073V166.307Z" fill="url(#paint48_linear)"/>
<path d="M365.255 166.307L318.915 242.929C318.79 243.118 318.727 243.243 318.601 243.432C316.403 247.012 313.766 249.524 310.878 251.157C297.064 258.882 279.483 244.939 297.817 225.972C298.006 225.784 298.194 225.595 298.383 225.407L357.406 166.37H365.255V166.307Z" fill="url(#paint49_linear)"/>
<path d="M338.821 302.657L314.583 326.962C314.583 326.962 314.583 326.962 314.521 326.899C312.951 325.329 277.286 288.588 311.632 254.988L338.821 302.657Z" fill="url(#paint50_linear)"/>
<path d="M353.764 328.846L326.324 356.292C319.668 356.292 313.201 358.49 307.926 362.51L279.796 383.926L276.72 386.25C286.64 378.651 280.11 366.09 267.803 378.085L271.571 374.317L321.364 324.513C325.445 320.431 330.657 318.484 335.868 318.484C342.964 318.484 349.933 322.064 353.764 328.846Z" fill="url(#paint51_linear)"/>
<path d="M369.461 356.292H356.337C345.098 356.292 339.258 347.814 347.358 339.712L355.396 331.673L369.461 356.292Z" fill="url(#paint52_linear)"/>
<path d="M245.701 278.854C242.31 282.747 239.422 286.893 237.036 291.352C235.843 293.55 234.775 295.874 233.771 298.197C233.331 299.391 232.829 300.521 232.389 301.715L231.196 305.294L230.129 308.937C229.815 310.13 229.564 311.387 229.187 312.643C228.873 313.899 228.685 315.155 228.371 316.348C228.119 317.604 227.931 318.86 227.68 320.116C226.864 325.141 226.361 330.228 225.985 335.378C225.859 323.445 227.743 296.251 245.701 278.854Z" fill="url(#paint53_linear)"/>
<path d="M219.643 178.743C208.654 189.483 193.899 185.965 197.352 166.307C197.227 169.51 197.227 172.714 197.98 175.665C198.671 178.617 200.303 181.381 202.815 182.7C205.327 184.081 208.529 184.018 211.417 183.139C214.306 182.323 217.068 180.69 219.643 178.743Z" fill="url(#paint54_linear)"/>
<path d="M258.071 193.125C238.731 212.469 216.755 214.667 191.262 211.464C197.29 211.841 203.255 212.092 209.22 211.966C210.727 211.904 212.171 211.778 213.678 211.778C215.185 211.652 216.629 211.464 218.136 211.338L222.531 210.71C223.976 210.396 225.42 210.145 226.864 209.831C232.641 208.512 238.229 206.377 243.441 203.551C248.715 200.662 253.55 197.082 258.071 193.125Z" fill="url(#paint55_linear)"/>
<path d="M270.252 222.455C269.687 225.721 268.934 228.987 268.055 232.19C267.678 233.823 267.175 235.393 266.736 237.026L265.355 241.799L263.848 246.572C263.345 248.142 262.843 249.712 262.278 251.282C261.21 254.423 260.017 257.563 258.699 260.577C258.887 260.075 263.659 244.876 270.252 222.455Z" fill="url(#paint56_linear)"/>
<path d="M310.941 251.094C297.127 258.819 279.545 244.876 297.88 225.909C296.75 227.479 295.557 228.924 294.615 230.557C293.611 232.127 292.732 233.823 292.104 235.518C291.476 237.214 290.973 239.035 290.973 240.794C290.911 242.552 291.225 244.374 291.978 245.944C293.422 249.147 296.562 251.408 300.078 252.224C303.594 253.104 307.425 252.664 310.941 251.094Z" fill="url(#paint57_linear)"/>
<path d="M314.52 326.899C312.95 325.329 277.222 288.588 311.631 254.988C307.11 260.012 303.217 265.539 300.706 271.694C299.513 274.771 298.634 277.974 298.131 281.24C297.629 284.506 297.629 287.835 297.943 291.101C298.508 297.695 300.643 304.101 303.594 310.068C305.038 313.082 306.734 315.971 308.554 318.798C310.375 321.624 312.322 324.387 314.52 326.899Z" fill="url(#paint58_linear)"/>
<path d="M282.496 377.269C282.559 378.588 282.308 379.907 281.743 381.037C281.24 382.105 280.612 383.047 279.796 383.863C278.917 384.806 277.85 385.622 276.719 386.187C286.64 378.588 280.11 366.027 267.803 378.023C268.494 377.081 269.31 376.201 270.189 375.385C270.629 375.008 271.068 374.631 271.508 374.254C272.01 373.878 272.575 373.563 273.14 373.249C274.208 372.684 275.464 372.245 276.782 372.182H277.285C277.473 372.182 277.599 372.245 277.787 372.245C278.101 372.245 278.478 372.37 278.792 372.433C279.419 372.684 280.11 372.998 280.612 373.501C281.868 374.568 282.433 375.95 282.496 377.269Z" fill="url(#paint59_linear)"/>
<path d="M356.338 356.292C345.098 356.292 339.258 347.814 347.358 339.712C346.102 341.533 345.035 343.417 344.658 345.364C344.47 346.369 344.407 347.311 344.595 348.253C344.721 349.195 345.161 350.074 345.663 350.828C346.73 352.461 348.426 353.654 350.247 354.471C352.068 355.413 354.14 355.915 356.338 356.292Z" fill="url(#paint60_linear)"/>
<path d="M259.264 196.391C258.699 197.961 258.134 199.468 257.506 201.039C256.941 202.609 256.25 204.116 255.748 205.686C254.681 208.826 253.55 211.904 252.671 215.107L251.981 217.493C251.73 218.31 251.478 219.064 251.29 219.88L250.097 224.653C249.657 226.223 249.344 227.856 249.03 229.489C248.716 231.122 248.276 232.692 248.088 234.325L247.271 239.224L246.644 244.123L246.455 245.316L246.33 246.572L246.078 249.021C245.89 250.654 245.827 252.287 245.702 253.92C245.262 260.515 245.199 267.109 245.702 273.704V273.641C245.388 271.882 240.113 236.963 259.264 196.391Z" fill="url(#paint61_linear)"/>
<path d="M261.085 305.42L241.117 356.355C240.364 356.355 239.61 356.355 238.857 356.355C226.926 356.041 216.692 349.823 226.738 339.774L261.085 305.42Z" fill="url(#paint62_linear)"/>
<path d="M238.92 356.292C226.989 355.978 216.755 349.76 226.801 339.712C226.11 340.717 225.42 341.721 224.855 342.726C224.289 343.731 223.85 344.799 223.662 345.929C223.473 346.997 223.536 348.065 223.976 349.007C224.415 349.949 225.043 350.765 225.922 351.456C226.738 352.147 227.743 352.775 228.748 353.278C229.752 353.78 230.883 354.22 232.013 354.596C234.148 355.35 236.534 355.853 238.92 356.292Z" fill="url(#paint63_linear)"/>
<path d="M202.062 443.591L183.036 462.621C177.888 467.771 180.336 476.626 187.432 478.385C192.894 479.766 198.357 475.998 198.985 470.346L202.062 443.591Z" fill="url(#paint64_linear)"/>
<path d="M512.56 166.307L440.853 238.03L439.597 239.287C439.597 239.287 439.597 239.287 439.534 239.349L438.718 240.166L420.885 258.002C420.822 258.065 420.76 258.128 420.634 258.254L372.285 306.613C369.02 309.879 364.813 311.449 360.669 311.449C355.018 311.449 349.429 308.56 346.353 303.159L363.557 273.264L417.557 219.189L418.75 222.455H420.194L423.648 213.097L440.601 196.14C450.146 186.593 461.385 179.12 473.629 174.032C485.874 169.008 499.06 166.307 512.56 166.307Z" fill="url(#paint65_radial)"/>
<path d="M512.56 166.307L440.853 238.03L439.597 239.287C439.597 239.287 439.597 239.287 439.534 239.349L438.718 240.166L420.885 258.002C420.822 258.065 420.76 258.128 420.634 258.254L377.309 301.589C396.083 282.873 377.246 259.447 363.495 273.264L365.441 271.317L417.557 219.189L418.75 222.455H420.195L423.648 213.097L440.602 196.14C450.146 186.593 461.385 179.12 473.629 174.032C485.874 169.008 499.06 166.307 512.56 166.307Z" fill="url(#paint66_radial)"/>
<path d="M512.56 166.307L440.853 238.031L439.597 239.287C439.597 239.287 439.597 239.287 439.534 239.349L438.718 240.166L424.904 253.983L420.885 258.003C436.457 242.427 427.981 222.455 420.132 222.455L423.585 213.097L440.539 196.14C450.083 186.593 461.323 179.12 473.567 174.032C485.874 169.008 499.06 166.307 512.56 166.307Z" fill="url(#paint67_radial)"/>
<path d="M380.7 177.173L368.393 189.482C368.393 189.482 368.393 189.482 368.33 189.545L343.527 214.353L359.979 187.159L370.716 169.448C371.281 168.506 372.097 167.752 373.039 167.187C373.981 166.621 375.048 166.37 376.179 166.37C381.83 166.307 384.718 173.153 380.7 177.173Z" fill="url(#paint68_radial)"/>
<path d="M409.394 196.768L416.364 215.923L393.822 238.47C381.641 250.654 361.171 247.765 352.883 232.629L344.657 217.682L459.501 102.812L412.408 172.337C407.511 179.496 406.38 188.603 409.394 196.768Z" fill="url(#paint69_radial)"/>
<path d="M465.97 166.307L448.263 184.018L426.224 206.063L440.917 166.307H465.97Z" fill="url(#paint70_radial)"/>
<path d="M412.533 301.589L399.598 334.687V334.75L393.696 349.823C392.126 353.78 388.359 356.355 384.152 356.355H382.645C380.824 356.355 379.003 355.853 377.496 354.973C375.989 354.094 374.671 352.775 373.729 351.205C371.406 347.185 372.096 342.161 375.361 338.832L385.219 329.035L412.533 301.589Z" fill="url(#paint71_radial)"/>
<path d="M488.009 301.338L449.078 340.277L436.52 352.838L435.327 349.823C423.146 318.861 430.492 283.627 454.039 260.075L465.341 248.77L461.574 254.988L488.009 301.338Z" fill="url(#paint72_radial)"/>
<path d="M504.397 329.977L490.395 343.982C490.332 344.045 490.269 344.108 490.207 344.171L478.088 356.292H437.902L437.776 355.978L470.93 322.817L489.641 304.101L504.397 329.977Z" fill="url(#paint73_radial)"/>
<path d="M519.404 356.292H494.916C490.332 356.292 488.072 350.765 491.274 347.5L501.195 337.576C503.581 335.19 507.599 335.692 509.295 338.644L519.404 356.292Z" fill="url(#paint74_radial)"/>
<path d="M512.435 170.892L472.123 237.591L402.991 306.676L368.205 341.47C362.553 331.547 364.249 319.112 372.286 311.01L427.165 256.118L512.435 170.892Z" fill="url(#paint75_radial)"/>
<path d="M380.7 177.173L368.393 189.482C371.784 185.965 365.442 178.115 360.042 187.096L362.365 183.265L370.779 169.322C371.344 168.38 372.161 167.626 373.102 167.061C374.044 166.496 375.112 166.245 376.242 166.245C381.83 166.307 384.719 173.153 380.7 177.173Z" fill="url(#paint76_linear)"/>
<path d="M409.394 196.768L416.364 215.923C383.085 243.432 351.125 227.354 344.657 217.682L381.39 180.941L459.501 102.812L412.408 172.337C407.511 179.496 406.38 188.603 409.394 196.768Z" fill="url(#paint77_radial)"/>
<path d="M439.534 239.349L438.718 240.166C438.906 239.915 439.22 239.663 439.534 239.349Z" fill="url(#paint78_linear)"/>
<path d="M512.56 166.307L441.858 237.026C441.858 237.088 441.795 237.088 441.732 237.151L440.79 238.093C451.402 226.286 442.485 201.352 423.585 213.097L440.539 196.14C450.083 186.593 461.323 179.12 473.567 174.032C485.874 169.008 499.06 166.307 512.56 166.307Z" fill="url(#paint79_linear)"/>
<path d="M512.434 170.892L472.123 237.591L402.99 306.676C401.546 287.584 413.539 269.81 427.164 256.181L512.434 170.892Z" fill="url(#paint80_linear)"/>
<path d="M412.534 301.589L399.6 334.687V334.75C393.697 349.761 376.242 337.953 385.221 328.972L412.534 301.589Z" fill="url(#paint81_linear)"/>
<path d="M488.009 301.338L449.079 340.277C437.211 299.768 451.025 271.317 461.574 254.988L488.009 301.338Z" fill="url(#paint82_linear)"/>
<path d="M504.397 329.977L490.395 343.982C490.332 344.045 490.269 344.108 490.206 344.171C476.267 357.737 458.623 335.441 470.992 322.817L489.704 304.101L504.397 329.977Z" fill="url(#paint83_linear)"/>
<path d="M519.403 356.292C509.545 341.533 499.435 339.335 491.272 347.499L494.286 344.485L501.256 337.514C503.642 335.127 507.661 335.629 509.356 338.581L517.331 352.524L519.403 356.292Z" fill="url(#paint84_linear)"/>
<path d="M409.396 196.768L416.366 215.923C396.147 218.184 371.156 207.319 381.454 180.878L459.566 102.749L412.473 172.274C407.512 179.496 406.382 188.603 409.396 196.768Z" fill="url(#paint85_linear)"/>
<path d="M463.959 98.3525L473.441 88.869C476.015 86.294 474.822 81.8976 471.243 81.0184C468.48 80.3275 465.78 82.2116 465.466 85.0379L463.959 98.3525Z" fill="url(#paint86_linear)"/>
<path d="M465.97 166.307L448.263 184.018C448.263 184.018 436.208 179.057 440.917 166.307H465.97Z" fill="url(#paint87_linear)"/>
<path d="M430.555 239.349C430.492 241.171 430.178 242.992 429.738 244.751C429.236 246.509 428.545 248.205 427.729 249.775C426.976 251.282 426.034 252.664 424.966 253.983C423.773 255.49 422.392 256.809 420.948 258.002C436.52 242.427 428.043 222.455 420.194 222.455C421.073 222.392 422.015 222.518 422.832 222.894C423.648 223.271 424.464 223.774 425.155 224.402C426.536 225.595 427.604 227.165 428.42 228.798C429.236 230.431 429.801 232.19 430.178 233.948C430.492 235.707 430.617 237.528 430.555 239.349Z" fill="url(#paint88_linear)"/>
<path d="M369.775 187.787C369.712 188.038 369.586 188.226 369.461 188.415C369.21 188.854 368.833 189.231 368.393 189.482C371.784 185.965 365.442 178.115 360.042 187.096L362.365 183.265C362.868 182.825 363.496 182.448 364.124 182.197C364.877 181.946 365.756 181.883 366.572 182.071C368.268 182.511 369.461 183.893 369.838 185.4C370.026 186.217 370.026 187.033 369.775 187.787Z" fill="url(#paint89_linear)"/>
<path d="M416.364 215.923C383.085 243.432 351.125 227.354 344.657 217.682C345.662 219.001 346.855 220.131 348.173 221.136C349.492 222.141 350.811 223.083 352.255 223.837C355.08 225.47 358.094 226.788 361.171 227.793C364.248 228.798 367.45 229.552 370.653 229.929C373.855 230.306 377.12 230.431 380.385 230.243C383.65 230.054 386.853 229.552 389.992 228.798C391.562 228.421 393.132 227.982 394.701 227.479C396.208 226.914 397.778 226.412 399.285 225.784C400.792 225.218 402.236 224.465 403.743 223.774C405.187 223.02 406.694 222.267 408.076 221.387C410.964 219.754 413.664 217.807 416.364 215.923Z" fill="url(#paint90_linear)"/>
<path d="M446.002 227.793C445.562 231.185 444.118 234.513 441.857 237.026C441.857 237.088 441.795 237.088 441.732 237.151L440.79 238.093C451.402 226.286 442.485 201.352 423.585 213.097C425.092 211.966 426.788 210.962 428.609 210.208C430.43 209.517 432.439 209.14 434.448 209.329C436.458 209.454 438.467 210.333 440.099 211.527C441.732 212.783 443.05 214.416 443.992 216.174C446.002 219.754 446.567 223.899 446.002 227.793Z" fill="url(#paint91_linear)"/>
<path d="M427.164 256.181C424.025 259.887 421.011 263.592 418.185 267.423L416.113 270.312C415.422 271.317 414.794 272.322 414.104 273.264C413.476 274.269 412.848 275.274 412.22 276.279C411.592 277.284 411.09 278.351 410.462 279.356C409.897 280.424 409.394 281.492 408.829 282.496C408.327 283.564 407.887 284.695 407.385 285.762C406.946 286.83 406.506 287.96 406.129 289.091C405.753 290.221 405.439 291.352 405.062 292.482C403.743 297.067 403.053 301.778 403.053 306.613C401.546 287.584 413.539 269.81 427.164 256.181Z" fill="url(#paint92_linear)"/>
<path d="M399.6 334.75C393.697 349.761 376.241 337.953 385.221 328.972C384.467 330.04 383.839 331.107 383.588 332.301C383.274 333.431 383.274 334.625 383.588 335.692C384.279 337.828 386.037 339.586 388.109 340.403C390.181 341.282 392.63 341.156 394.639 340.026C395.644 339.461 396.586 338.707 397.402 337.765C398.218 336.886 398.909 335.818 399.6 334.75Z" fill="url(#paint93_linear)"/>
<path d="M461.574 254.988C457.932 261.457 454.541 268.051 451.967 274.96L451.025 277.598C450.9 278.037 450.711 278.477 450.586 278.917L450.146 280.236C449.581 281.994 449.016 283.753 448.639 285.574L447.948 288.275C447.697 289.154 447.572 290.096 447.383 290.975L446.818 293.676C446.63 294.555 446.567 295.497 446.441 296.376C446.19 298.198 445.876 300.019 445.751 301.84L445.562 304.604L445.437 305.986V307.367L445.374 310.131V311.512V312.203V312.894C445.437 314.715 445.5 316.6 445.625 318.421C446.19 325.769 447.446 333.054 449.079 340.34C437.211 299.768 451.025 271.317 461.574 254.988Z" fill="url(#paint94_linear)"/>
<path d="M490.206 344.171C476.267 357.737 458.623 335.441 470.992 322.817C469.862 324.324 468.92 325.895 468.355 327.59C467.727 329.286 467.539 331.107 467.602 332.866C467.727 334.624 468.041 336.383 468.732 338.016C469.36 339.649 470.302 341.219 471.432 342.538C473.63 345.238 476.832 347.248 480.285 347.562C482.044 347.751 483.802 347.499 485.497 346.809C487.13 346.306 488.699 345.301 490.206 344.171Z" fill="url(#paint95_linear)"/>
<path d="M519.403 356.292C509.545 341.533 499.435 339.335 491.272 347.499C492.089 346.369 493.093 345.364 494.286 344.485C495.542 343.543 496.924 342.789 498.493 342.349C500 341.91 501.57 341.847 503.14 341.973C504.71 342.161 506.154 342.664 507.535 343.292C510.298 344.673 512.621 346.62 514.568 348.881C515.572 350.012 516.514 351.268 517.331 352.524C518.084 353.78 518.775 355.036 519.403 356.292Z" fill="url(#paint96_linear)"/>
<path d="M416.366 215.923C396.147 218.184 371.156 207.319 381.454 180.878C380.763 183.327 380.135 185.84 379.884 188.352C379.57 190.864 379.633 193.376 380.073 195.826C380.952 200.724 383.84 205.058 387.733 208.073C389.68 209.643 391.814 210.899 394.138 211.904C396.398 212.971 398.847 213.725 401.233 214.353C406.131 215.609 411.217 216.112 416.366 215.923Z" fill="url(#paint97_linear)"/>
<path d="M448.264 184.018C448.264 184.018 436.208 179.057 440.917 166.307C440.666 168.129 440.478 169.824 440.603 171.52C440.666 173.216 441.043 174.849 441.671 176.356C442.298 177.863 443.24 179.245 444.371 180.501C445.501 181.757 446.819 182.951 448.264 184.018Z" fill="url(#paint98_linear)"/>
<path d="M386.099 284.443C386.037 286.704 385.66 288.902 384.906 291.038C384.153 293.11 383.085 295.057 381.767 296.816C381.453 297.255 381.139 297.695 380.762 298.135C379.695 299.391 378.564 300.521 377.309 301.589C396.083 282.873 377.246 259.447 363.495 273.264C364.06 272.573 364.688 271.945 365.441 271.317C366.383 270.501 367.513 269.81 368.706 269.308C370.778 268.491 373.164 268.24 375.362 268.805C377.623 269.308 379.632 270.626 381.264 272.197C382.897 273.829 384.09 275.776 384.906 277.912C385.723 279.921 386.162 282.182 386.099 284.443Z" fill="url(#paint99_linear)"/>
<defs>
<filter id="filter0_d" x="-6.37939" y="93.4885" width="228.773" height="313.249" filterUnits="userSpaceOnUse" color-interpolation-filters="sRGB">
<feFlood flood-opacity="0" result="BackgroundImageFix"/>
<feColorMatrix in="SourceAlpha" type="matrix" values="0 0 0 0 0 0 0 0 0 0 0 0 0 0 0 0 0 0 127 0"/>
<feOffset dy="4"/>
<feGaussianBlur stdDeviation="9.5"/>
<feColorMatrix type="matrix" values="0 0 0 0 0.144396 0 0 0 0 0.171163 0 0 0 0 0.211312 0 0 0 0.52 0"/>
<feBlend mode="normal" in2="BackgroundImageFix" result="effect1_dropShadow"/>
<feBlend mode="normal" in="SourceGraphic" in2="effect1_dropShadow" result="shape"/>
</filter>
<filter id="filter1_d" x="148.525" y="151.307" width="239.935" height="350.364" filterUnits="userSpaceOnUse" color-interpolation-filters="sRGB">
<feFlood flood-opacity="0" result="BackgroundImageFix"/>
<feColorMatrix in="SourceAlpha" type="matrix" values="0 0 0 0 0 0 0 0 0 0 0 0 0 0 0 0 0 0 127 0"/>
<feOffset dy="4"/>
<feGaussianBlur stdDeviation="9.5"/>
<feColorMatrix type="matrix" values="0 0 0 0 0.144396 0 0 0 0 0.171163 0 0 0 0 0.211312 0 0 0 0.52 0"/>
<feBlend mode="normal" in2="BackgroundImageFix" result="effect1_dropShadow"/>
<feBlend mode="normal" in="SourceGraphic" in2="effect1_dropShadow" result="shape"/>
</filter>
<filter id="filter2_d" x="324.527" y="65.875" width="213.94" height="313.48" filterUnits="userSpaceOnUse" color-interpolation-filters="sRGB">
<feFlood flood-opacity="0" result="BackgroundImageFix"/>
<feColorMatrix in="SourceAlpha" type="matrix" values="0 0 0 0 0 0 0 0 0 0 0 0 0 0 0 0 0 0 127 0"/>
<feOffset dy="4"/>
<feGaussianBlur stdDeviation="9.5"/>
<feColorMatrix type="matrix" values="0 0 0 0 0.144396 0 0 0 0 0.171163 0 0 0 0 0.211312 0 0 0 0.52 0"/>
<feBlend mode="normal" in2="BackgroundImageFix" result="effect1_dropShadow"/>
<feBlend mode="normal" in="SourceGraphic" in2="effect1_dropShadow" result="shape"/>
</filter>
<linearGradient id="paint0_linear" x1="217.579" y1="100.422" x2="-4.88484" y2="350.119" gradientUnits="userSpaceOnUse">
<stop stop-color="#E2E6E8"/>
<stop offset="1" stop-color="#A3ABAD"/>
</linearGradient>
<linearGradient id="paint1_linear" x1="384.476" y1="157.154" x2="130.596" y2="422.945" gradientUnits="userSpaceOnUse">
<stop stop-color="#E2E6E8"/>
<stop offset="1" stop-color="#A3ABAD"/>
</linearGradient>
<linearGradient id="paint2_linear" x1="532.55" y1="72.802" x2="308.54" y2="304.489" gradientUnits="userSpaceOnUse">
<stop stop-color="#E2E6E8"/>
<stop offset="1" stop-color="#A3ABAD"/>
</linearGradient>
<linearGradient id="paint3_linear" x1="287.898" y1="145.158" x2="310.846" y2="113.661" gradientUnits="userSpaceOnUse">
<stop stop-color="#80858A"/>
<stop offset="0.6358" stop-color="#666A6E"/>
</linearGradient>
<linearGradient id="paint4_linear" x1="285.389" y1="129.798" x2="350.058" y2="74.6055" gradientUnits="userSpaceOnUse">
<stop stop-color="#9AA0A6"/>
<stop offset="0.5854" stop-color="#80858A"/>
</linearGradient>
<linearGradient id="paint5_linear" x1="270.439" y1="488.874" x2="335.108" y2="433.681" gradientUnits="userSpaceOnUse">
<stop stop-color="#9AA0A6"/>
<stop offset="0.5854" stop-color="#80858A"/>
</linearGradient>
<linearGradient id="paint6_linear" x1="238.128" y1="110.575" x2="256.117" y2="85.8834" gradientUnits="userSpaceOnUse">
<stop stop-color="#80858A"/>
<stop offset="0.6358" stop-color="#666A6E"/>
</linearGradient>
<linearGradient id="paint7_linear" x1="239.574" y1="95.0598" x2="288.078" y2="53.6631" gradientUnits="userSpaceOnUse">
<stop stop-color="#9AA0A6"/>
<stop offset="0.5854" stop-color="#80858A"/>
</linearGradient>
<linearGradient id="paint8_linear" x1="190.909" y1="61.7389" x2="223.898" y2="61.7389" gradientUnits="userSpaceOnUse">
<stop stop-color="#9AA0A6"/>
<stop offset="0.5854" stop-color="#80858A"/>
</linearGradient>
<linearGradient id="paint9_linear" x1="118.431" y1="389.915" x2="156.105" y2="389.915" gradientUnits="userSpaceOnUse">
<stop stop-color="#80858A"/>
<stop offset="0.6358" stop-color="#666A6E"/>
</linearGradient>
<linearGradient id="paint10_linear" x1="106.191" y1="395.241" x2="156.116" y2="395.241" gradientUnits="userSpaceOnUse">
<stop stop-color="#9AA0A6"/>
<stop offset="0.5854" stop-color="#80858A"/>
</linearGradient>
<radialGradient id="paint11_radial" cx="0" cy="0" r="1" gradientUnits="userSpaceOnUse" gradientTransform="translate(121.787 270.595) scale(74.2597 74.2765)">
<stop offset="0.2102" stop-color="#B9C1C3"/>
<stop offset="0.7752" stop-color="#4D5152"/>
</radialGradient>
<radialGradient id="paint12_radial" cx="0" cy="0" r="1" gradientUnits="userSpaceOnUse" gradientTransform="translate(61.8353 179.368) scale(12.9445 12.9475)">
<stop stop-color="#4D5152"/>
<stop offset="1" stop-color="#B9C1C3"/>
</radialGradient>
<radialGradient id="paint13_radial" cx="0" cy="0" r="1" gradientUnits="userSpaceOnUse" gradientTransform="translate(168.186 187.583) scale(51.0419 51.0534)">
<stop stop-color="#4D5152"/>
<stop offset="1" stop-color="#B9C1C3"/>
</radialGradient>
<radialGradient id="paint14_radial" cx="0" cy="0" r="1" gradientUnits="userSpaceOnUse" gradientTransform="translate(64.0228 299.731) scale(34.6771 34.6847)">
<stop stop-color="#4D5152"/>
<stop offset="1" stop-color="#B9C1C3"/>
</radialGradient>
<radialGradient id="paint15_radial" cx="0" cy="0" r="1" gradientUnits="userSpaceOnUse" gradientTransform="translate(163.952 335.678) scale(27.3295 27.3357)">
<stop stop-color="#4D5152"/>
<stop offset="1" stop-color="#B9C1C3"/>
</radialGradient>
<radialGradient id="paint16_radial" cx="0" cy="0" r="1" gradientUnits="userSpaceOnUse" gradientTransform="translate(39.7936 360.94) scale(111.903 111.928)">
<stop offset="0.2102" stop-color="#B9C1C3"/>
<stop offset="0.7752" stop-color="#4D5152"/>
</radialGradient>
<radialGradient id="paint17_radial" cx="0" cy="0" r="1" gradientUnits="userSpaceOnUse" gradientTransform="translate(75.6706 212.101) scale(39.488 39.4968)">
<stop stop-color="#4D5152"/>
<stop offset="1" stop-color="#B9C1C3"/>
</radialGradient>
<linearGradient id="paint18_linear" x1="117.673" y1="162.762" x2="64.168" y2="237.554" gradientUnits="userSpaceOnUse">
<stop stop-color="#F6FAFC"/>
<stop offset="1" stop-color="#A3ABAD"/>
</linearGradient>
<linearGradient id="paint19_linear" x1="184.109" y1="159.209" x2="147.115" y2="224.84" gradientUnits="userSpaceOnUse">
<stop stop-color="#F6FAFC"/>
<stop offset="1" stop-color="#A3ABAD"/>
</linearGradient>
<linearGradient id="paint20_linear" x1="129.906" y1="222.638" x2="71.4232" y2="288.762" gradientUnits="userSpaceOnUse">
<stop stop-color="#F6FAFC"/>
<stop offset="1" stop-color="#A3ABAD"/>
</linearGradient>
<radialGradient id="paint21_radial" cx="0" cy="0" r="1" gradientUnits="userSpaceOnUse" gradientTransform="translate(91.6773 353.849) scale(196.034 196.078)">
<stop offset="0.2102" stop-color="#B9C1C3"/>
<stop offset="0.7752" stop-color="#4D5152"/>
</radialGradient>
<linearGradient id="paint22_linear" x1="174.508" y1="253.683" x2="152.908" y2="317.824" gradientUnits="userSpaceOnUse">
<stop stop-color="#F6FAFC"/>
<stop offset="1" stop-color="#A3ABAD"/>
</linearGradient>
<linearGradient id="paint23_linear" x1="65.2099" y1="164.718" x2="58.1149" y2="180.678" gradientUnits="userSpaceOnUse">
<stop stop-color="#F6FAFC"/>
<stop offset="1" stop-color="#A3ABAD"/>
</linearGradient>
<linearGradient id="paint24_linear" x1="69.4911" y1="289.887" x2="44.7491" y2="317.053" gradientUnits="userSpaceOnUse">
<stop stop-color="#F6FAFC"/>
<stop offset="1" stop-color="#A3ABAD"/>
</linearGradient>
<linearGradient id="paint25_linear" x1="189.986" y1="294.154" x2="161.411" y2="345.738" gradientUnits="userSpaceOnUse">
<stop stop-color="#F6FAFC"/>
<stop offset="1" stop-color="#A3ABAD"/>
</linearGradient>
<linearGradient id="paint26_linear" x1="56.3892" y1="211.579" x2="94.3713" y2="211.579" gradientUnits="userSpaceOnUse">
<stop stop-color="#E6EAEC"/>
<stop offset="1" stop-color="#E9F5F7"/>
</linearGradient>
<linearGradient id="paint27_linear" x1="144.988" y1="186.575" x2="183.596" y2="186.575" gradientUnits="userSpaceOnUse">
<stop stop-color="#E6EAEC"/>
<stop offset="1" stop-color="#E9F5F7"/>
</linearGradient>
<linearGradient id="paint28_linear" x1="94.3557" y1="255.037" x2="160.533" y2="255.037" gradientUnits="userSpaceOnUse">
<stop stop-color="#E6EAEC"/>
<stop offset="1" stop-color="#E9F5F7"/>
</linearGradient>
<linearGradient id="paint29_linear" x1="88.2046" y1="325.763" x2="125.044" y2="325.763" gradientUnits="userSpaceOnUse">
<stop stop-color="#E6EAEC"/>
<stop offset="1" stop-color="#E9F5F7"/>
</linearGradient>
<linearGradient id="paint30_linear" x1="140.981" y1="289.292" x2="166.922" y2="289.292" gradientUnits="userSpaceOnUse">
<stop stop-color="#E6EAEC"/>
<stop offset="1" stop-color="#E9F5F7"/>
</linearGradient>
<linearGradient id="paint31_linear" x1="50.8756" y1="174.515" x2="73.0789" y2="174.515" gradientUnits="userSpaceOnUse">
<stop stop-color="#E6EAEC"/>
<stop offset="1" stop-color="#E9F5F7"/>
</linearGradient>
<linearGradient id="paint32_linear" x1="31.335" y1="304.265" x2="95.0989" y2="304.265" gradientUnits="userSpaceOnUse">
<stop stop-color="#E6EAEC"/>
<stop offset="1" stop-color="#E9F5F7"/>
</linearGradient>
<linearGradient id="paint33_linear" x1="153.642" y1="335.025" x2="174.021" y2="335.025" gradientUnits="userSpaceOnUse">
<stop stop-color="#E6EAEC"/>
<stop offset="1" stop-color="#E9F5F7"/>
</linearGradient>
<linearGradient id="paint34_linear" x1="200.167" y1="108.224" x2="189.987" y2="131.863" gradientUnits="userSpaceOnUse">
<stop stop-color="#E2E6E8"/>
<stop offset="1" stop-color="#A3ABAD"/>
</linearGradient>
<radialGradient id="paint35_radial" cx="0" cy="0" r="1" gradientUnits="userSpaceOnUse" gradientTransform="translate(229.88 302.142) scale(84.4186 84.4377)">
<stop stop-color="#960E05"/>
<stop offset="1" stop-color="#F70F0F"/>
</radialGradient>
<radialGradient id="paint36_radial" cx="0" cy="0" r="1" gradientUnits="userSpaceOnUse" gradientTransform="translate(280.438 282.184) scale(69.8612 69.877)">
<stop stop-color="#960E05"/>
<stop offset="1" stop-color="#F70F0F"/>
</radialGradient>
<radialGradient id="paint37_radial" cx="0" cy="0" r="1" gradientUnits="userSpaceOnUse" gradientTransform="translate(304.398 243.04) scale(49.066 49.077)">
<stop stop-color="#AB1006"/>
<stop offset="1" stop-color="#F70F0F"/>
</radialGradient>
<radialGradient id="paint38_radial" cx="0" cy="0" r="1" gradientUnits="userSpaceOnUse" gradientTransform="translate(248.981 253.768) scale(85.6547 85.6741)">
<stop stop-color="#960E05"/>
<stop offset="1" stop-color="#F70F0F"/>
</radialGradient>
<radialGradient id="paint39_radial" cx="0" cy="0" r="1" gradientUnits="userSpaceOnUse" gradientTransform="translate(283.132 223.905) scale(57.6867 57.6997)">
<stop stop-color="#AB1006"/>
<stop offset="1" stop-color="#F70F0F"/>
</radialGradient>
<radialGradient id="paint40_radial" cx="0" cy="0" r="1" gradientUnits="userSpaceOnUse" gradientTransform="translate(209.185 183.381) scale(17.0761 17.08)">
<stop stop-color="#AB1006"/>
<stop offset="1" stop-color="#F70F0F"/>
</radialGradient>
<radialGradient id="paint41_radial" cx="0" cy="0" r="1" gradientUnits="userSpaceOnUse" gradientTransform="translate(224.709 195.832) scale(31.5158 31.523)">
<stop stop-color="#AB1006"/>
<stop offset="1" stop-color="#F70F0F"/>
</radialGradient>
<radialGradient id="paint42_radial" cx="0" cy="0" r="1" gradientUnits="userSpaceOnUse" gradientTransform="translate(321.185 297.543) scale(62.7625 62.7767)">
<stop stop-color="#960E05"/>
<stop offset="1" stop-color="#F70F0F"/>
</radialGradient>
<radialGradient id="paint43_radial" cx="0" cy="0" r="1" gradientUnits="userSpaceOnUse" gradientTransform="translate(279.45 379.662) scale(68.0689 68.0843)">
<stop stop-color="#AB1006"/>
<stop offset="1" stop-color="#F70F0F"/>
</radialGradient>
<radialGradient id="paint44_radial" cx="0" cy="0" r="1" gradientUnits="userSpaceOnUse" gradientTransform="translate(232.473 346.758) scale(23.6001 23.6054)">
<stop stop-color="#960E05"/>
<stop offset="1" stop-color="#F70F0F"/>
</radialGradient>
<radialGradient id="paint45_radial" cx="0" cy="0" r="1" gradientUnits="userSpaceOnUse" gradientTransform="translate(350.115 343.986) scale(16.2086 16.2123)">
<stop stop-color="#960E05"/>
<stop offset="1" stop-color="#F70F0F"/>
</radialGradient>
<linearGradient id="paint46_linear" x1="215.402" y1="163.37" x2="198.793" y2="188.98" gradientUnits="userSpaceOnUse">
<stop stop-color="#FF9752"/>
<stop offset="1" stop-color="#FA180A"/>
</linearGradient>
<linearGradient id="paint47_linear" x1="246.97" y1="166.812" x2="213.902" y2="219.512" gradientUnits="userSpaceOnUse">
<stop stop-color="#FF9752"/>
<stop offset="1" stop-color="#FA180A"/>
</linearGradient>
<linearGradient id="paint48_linear" x1="339.497" y1="154.261" x2="243.275" y2="257.769" gradientUnits="userSpaceOnUse">
<stop stop-color="#FF9752"/>
<stop offset="1" stop-color="#FA180A"/>
</linearGradient>
<linearGradient id="paint49_linear" x1="356.278" y1="162.467" x2="295.556" y2="253.055" gradientUnits="userSpaceOnUse">
<stop stop-color="#FF9752"/>
<stop offset="1" stop-color="#FA180A"/>
</linearGradient>
<linearGradient id="paint50_linear" x1="332.428" y1="253.412" x2="304.171" y2="326.337" gradientUnits="userSpaceOnUse">
<stop stop-color="#FF9752"/>
<stop offset="1" stop-color="#FA180A"/>
</linearGradient>
<linearGradient id="paint51_linear" x1="337.052" y1="320.767" x2="280.616" y2="391.106" gradientUnits="userSpaceOnUse">
<stop stop-color="#FF9752"/>
<stop offset="1" stop-color="#FA180A"/>
</linearGradient>
<linearGradient id="paint52_linear" x1="363.383" y1="335.626" x2="351.982" y2="361.083" gradientUnits="userSpaceOnUse">
<stop stop-color="#FF9752"/>
<stop offset="1" stop-color="#FA180A"/>
</linearGradient>
<linearGradient id="paint53_linear" x1="225.976" y1="307.144" x2="245.672" y2="307.144" gradientUnits="userSpaceOnUse">
<stop stop-color="#FF9752"/>
<stop offset="1" stop-color="#FA180A"/>
</linearGradient>
<linearGradient id="paint54_linear" x1="196.797" y1="175.503" x2="219.614" y2="175.503" gradientUnits="userSpaceOnUse">
<stop stop-color="#FF9752"/>
<stop offset="1" stop-color="#FA180A"/>
</linearGradient>
<linearGradient id="paint55_linear" x1="191.32" y1="202.911" x2="258.098" y2="202.911" gradientUnits="userSpaceOnUse">
<stop stop-color="#FF9752"/>
<stop offset="1" stop-color="#FA180A"/>
</linearGradient>
<linearGradient id="paint56_linear" x1="258.739" y1="241.545" x2="270.236" y2="241.545" gradientUnits="userSpaceOnUse">
<stop stop-color="#FF9752"/>
<stop offset="1" stop-color="#FA180A"/>
</linearGradient>
<linearGradient id="paint57_linear" x1="290.016" y1="239.605" x2="310.943" y2="239.605" gradientUnits="userSpaceOnUse">
<stop stop-color="#FF9752"/>
<stop offset="1" stop-color="#FA180A"/>
</linearGradient>
<linearGradient id="paint58_linear" x1="296.752" y1="290.953" x2="314.547" y2="290.953" gradientUnits="userSpaceOnUse">
<stop stop-color="#FF9752"/>
<stop offset="1" stop-color="#FA180A"/>
</linearGradient>
<linearGradient id="paint59_linear" x1="267.906" y1="379.225" x2="282.52" y2="379.225" gradientUnits="userSpaceOnUse">
<stop stop-color="#FF9752"/>
<stop offset="1" stop-color="#FA180A"/>
</linearGradient>
<linearGradient id="paint60_linear" x1="343.58" y1="348.021" x2="356.315" y2="348.021" gradientUnits="userSpaceOnUse">
<stop stop-color="#FF9752"/>
<stop offset="1" stop-color="#FA180A"/>
</linearGradient>
<linearGradient id="paint61_linear" x1="244.798" y1="235.054" x2="259.286" y2="235.054" gradientUnits="userSpaceOnUse">
<stop stop-color="#FF9752"/>
<stop offset="1" stop-color="#FA180A"/>
</linearGradient>
<linearGradient id="paint62_linear" x1="254.206" y1="303.09" x2="227.674" y2="360.211" gradientUnits="userSpaceOnUse">
<stop stop-color="#FF9752"/>
<stop offset="1" stop-color="#FA180A"/>
</linearGradient>
<linearGradient id="paint63_linear" x1="222.704" y1="348.021" x2="238.903" y2="348.021" gradientUnits="userSpaceOnUse">
<stop stop-color="#FF9752"/>
<stop offset="1" stop-color="#FA180A"/>
</linearGradient>
<linearGradient id="paint64_linear" x1="206.218" y1="455.495" x2="179.959" y2="471.903" gradientUnits="userSpaceOnUse">
<stop stop-color="#FF9752"/>
<stop offset="1" stop-color="#FA180A"/>
</linearGradient>
<radialGradient id="paint65_radial" cx="0" cy="0" r="1" gradientUnits="userSpaceOnUse" gradientTransform="translate(383.542 279.838) scale(42.2706 42.2801)">
<stop stop-color="#960E05"/>
<stop offset="1" stop-color="#F70F0F"/>
</radialGradient>
<radialGradient id="paint66_radial" cx="0" cy="0" r="1" gradientUnits="userSpaceOnUse" gradientTransform="translate(438.051 233.929) scale(71.1553 71.1713)">
<stop stop-color="#AB1006"/>
<stop offset="1" stop-color="#F70F0F"/>
</radialGradient>
<radialGradient id="paint67_radial" cx="0" cy="0" r="1" gradientUnits="userSpaceOnUse" gradientTransform="translate(442.962 217.668) scale(40.7913 40.8006)">
<stop stop-color="#AB1006"/>
<stop offset="1" stop-color="#F70F0F"/>
</radialGradient>
<radialGradient id="paint68_radial" cx="0" cy="0" r="1" gradientUnits="userSpaceOnUse" gradientTransform="translate(363.074 190.293) scale(21.8531 21.858)">
<stop stop-color="#AB1006"/>
<stop offset="1" stop-color="#F70F0F"/>
</radialGradient>
<radialGradient id="paint69_radial" cx="0" cy="0" r="1" gradientUnits="userSpaceOnUse" gradientTransform="translate(389.366 227.866) scale(46.3266 46.3372)">
<stop stop-color="#960E05"/>
<stop offset="1" stop-color="#F70F0F"/>
</radialGradient>
<radialGradient id="paint70_radial" cx="0" cy="0" r="1" gradientUnits="userSpaceOnUse" gradientTransform="translate(446.112 186.166) scale(19.8607 19.8652)">
<stop stop-color="#AB1006"/>
<stop offset="1" stop-color="#F70F0F"/>
</radialGradient>
<radialGradient id="paint71_radial" cx="0" cy="0" r="1" gradientUnits="userSpaceOnUse" gradientTransform="translate(392.466 328.944) scale(23.9972 24.0029)">
<stop stop-color="#960E05"/>
<stop offset="1" stop-color="#F70F0F"/>
</radialGradient>
<radialGradient id="paint72_radial" cx="0" cy="0" r="1" gradientUnits="userSpaceOnUse" gradientTransform="translate(466.513 297.888) scale(55.1913 55.2037)">
<stop stop-color="#960E05"/>
<stop offset="1" stop-color="#F70F0F"/>
</radialGradient>
<radialGradient id="paint73_radial" cx="0" cy="0" r="1" gradientUnits="userSpaceOnUse" gradientTransform="translate(471.089 330.222) scale(29.9034 29.9102)">
<stop stop-color="#960E05"/>
<stop offset="1" stop-color="#F70F0F"/>
</radialGradient>
<radialGradient id="paint74_radial" cx="0" cy="0" r="1" gradientUnits="userSpaceOnUse" gradientTransform="translate(504.087 346.184) scale(16.8156 16.8196)">
<stop stop-color="#AB1006"/>
<stop offset="1" stop-color="#F70F0F"/>
</radialGradient>
<radialGradient id="paint75_radial" cx="0" cy="0" r="1" gradientUnits="userSpaceOnUse" gradientTransform="translate(438.671 256.184) scale(79.7369 79.7548)">
<stop stop-color="#960E05"/>
<stop offset="1" stop-color="#F70F0F"/>
</radialGradient>
<linearGradient id="paint76_linear" x1="378.658" y1="167.281" x2="365.603" y2="191.053" gradientUnits="userSpaceOnUse">
<stop stop-color="#FF9752"/>
<stop offset="1" stop-color="#FA180A"/>
</linearGradient>
<radialGradient id="paint77_radial" cx="0" cy="0" r="1" gradientUnits="userSpaceOnUse" gradientTransform="translate(402.088 167.001) scale(60.9119 60.9257)">
<stop stop-color="#AB1006"/>
<stop offset="1" stop-color="#F70F0F"/>
</radialGradient>
<linearGradient id="paint78_linear" x1="439.2" y1="239.639" x2="438.876" y2="240.344" gradientUnits="userSpaceOnUse">
<stop stop-color="#FF9752"/>
<stop offset="1" stop-color="#FA180A"/>
</linearGradient>
<linearGradient id="paint79_linear" x1="498.246" y1="157.688" x2="401.922" y2="259.937" gradientUnits="userSpaceOnUse">
<stop stop-color="#FF9752"/>
<stop offset="1" stop-color="#FA180A"/>
</linearGradient>
<linearGradient id="paint80_linear" x1="512.879" y1="179.679" x2="347.672" y2="355.05" gradientUnits="userSpaceOnUse">
<stop stop-color="#FF9752"/>
<stop offset="1" stop-color="#FA180A"/>
</linearGradient>
<linearGradient id="paint81_linear" x1="407.189" y1="299.012" x2="382.064" y2="353.538" gradientUnits="userSpaceOnUse">
<stop stop-color="#FF9752"/>
<stop offset="1" stop-color="#FA180A"/>
</linearGradient>
<linearGradient id="paint82_linear" x1="476.974" y1="265.375" x2="450.412" y2="346.357" gradientUnits="userSpaceOnUse">
<stop stop-color="#FF9752"/>
<stop offset="1" stop-color="#FA180A"/>
</linearGradient>
<linearGradient id="paint83_linear" x1="495.53" y1="302.763" x2="473.953" y2="362.223" gradientUnits="userSpaceOnUse">
<stop stop-color="#FF9752"/>
<stop offset="1" stop-color="#FA180A"/>
</linearGradient>
<linearGradient id="paint84_linear" x1="508.259" y1="336.539" x2="506.323" y2="346.772" gradientUnits="userSpaceOnUse">
<stop stop-color="#FF9752"/>
<stop offset="1" stop-color="#FA180A"/>
</linearGradient>
<linearGradient id="paint85_linear" x1="425.433" y1="140.555" x2="386.895" y2="224.514" gradientUnits="userSpaceOnUse">
<stop stop-color="#FF9752"/>
<stop offset="1" stop-color="#FA180A"/>
</linearGradient>
<linearGradient id="paint86_linear" x1="461.869" y1="92.4257" x2="474.97" y2="84.2396" gradientUnits="userSpaceOnUse">
<stop stop-color="#FF9752"/>
<stop offset="1" stop-color="#FA180A"/>
</linearGradient>
<linearGradient id="paint87_linear" x1="453.907" y1="165.405" x2="440.475" y2="191.343" gradientUnits="userSpaceOnUse">
<stop stop-color="#FF9752"/>
<stop offset="1" stop-color="#FA180A"/>
</linearGradient>
<linearGradient id="paint88_linear" x1="430.298" y1="239.03" x2="417.783" y2="240.56" gradientUnits="userSpaceOnUse">
<stop stop-color="#FF9752"/>
<stop offset="1" stop-color="#FA180A"/>
</linearGradient>
<linearGradient id="paint89_linear" x1="367.734" y1="182.863" x2="365.392" y2="186.645" gradientUnits="userSpaceOnUse">
<stop stop-color="#FF9752"/>
<stop offset="1" stop-color="#FA180A"/>
</linearGradient>
<linearGradient id="paint90_linear" x1="378.647" y1="231.153" x2="380.088" y2="220.076" gradientUnits="userSpaceOnUse">
<stop stop-color="#FF9752"/>
<stop offset="1" stop-color="#FA180A"/>
</linearGradient>
<linearGradient id="paint91_linear" x1="445.064" y1="218.779" x2="431.918" y2="225.53" gradientUnits="userSpaceOnUse">
<stop stop-color="#FF9752"/>
<stop offset="1" stop-color="#FA180A"/>
</linearGradient>
<linearGradient id="paint92_linear" x1="406.647" y1="281.198" x2="419.162" y2="281.559" gradientUnits="userSpaceOnUse">
<stop stop-color="#FF9752"/>
<stop offset="1" stop-color="#FA180A"/>
</linearGradient>
<linearGradient id="paint93_linear" x1="387.963" y1="340.525" x2="392.466" y2="331.07" gradientUnits="userSpaceOnUse">
<stop stop-color="#FF9752"/>
<stop offset="1" stop-color="#FA180A"/>
</linearGradient>
<linearGradient id="paint94_linear" x1="446.436" y1="296.101" x2="454.809" y2="297.541" gradientUnits="userSpaceOnUse">
<stop stop-color="#FF9752"/>
<stop offset="1" stop-color="#FA180A"/>
</linearGradient>
<linearGradient id="paint95_linear" x1="471.143" y1="341.882" x2="478.258" y2="335.579" gradientUnits="userSpaceOnUse">
<stop stop-color="#FF9752"/>
<stop offset="1" stop-color="#FA180A"/>
</linearGradient>
<linearGradient id="paint96_linear" x1="509.845" y1="346.097" x2="504.621" y2="352.85" gradientUnits="userSpaceOnUse">
<stop stop-color="#FF9752"/>
<stop offset="1" stop-color="#FA180A"/>
</linearGradient>
<linearGradient id="paint97_linear" x1="379.041" y1="198.539" x2="416.368" y2="198.539" gradientUnits="userSpaceOnUse">
<stop stop-color="#FF9752"/>
<stop offset="1" stop-color="#FA180A"/>
</linearGradient>
<linearGradient id="paint98_linear" x1="439.821" y1="175.163" x2="448.247" y2="175.163" gradientUnits="userSpaceOnUse">
<stop stop-color="#FF9752"/>
<stop offset="1" stop-color="#FA180A"/>
</linearGradient>
<linearGradient id="paint99_linear" x1="382.45" y1="274.248" x2="370.112" y2="287.934" gradientUnits="userSpaceOnUse">
<stop stop-color="#FF9752"/>
<stop offset="1" stop-color="#FA180A"/>
</linearGradient>
</defs>
</svg>
