<svg width="338" height="338" viewBox="0 0 338 338" fill="none" xmlns="http://www.w3.org/2000/svg">
<path d="M169 338C262.336 338 338 262.336 338 169C338 75.6639 262.336 0 169 0C75.6639 0 0 75.6639 0 169C0 262.336 75.6639 338 169 338Z" fill="#BFD3DE" fill-opacity="0.3"/>
<path d="M319 169C319.019 203.293 307.295 236.559 285.779 263.263C264.262 289.966 234.25 308.496 200.737 315.77C167.224 323.044 132.231 318.623 101.58 303.242C70.9294 287.862 46.4695 262.449 32.2705 231.234C18.0715 200.018 14.9897 164.881 23.5378 131.671C32.086 98.4597 51.7487 69.1773 79.2541 48.6959C106.759 28.2145 140.449 17.7693 174.716 19.0982C208.984 20.427 241.763 33.45 267.6 55.9999C283.787 70.0328 296.758 87.3914 305.629 106.892C314.499 126.393 319.06 147.577 319 169Z" fill="#BFD3DE"/>
<path opacity="0.2" d="M319 169C319.048 188.914 315.104 208.636 307.4 227H60.1C56.3604 227 52.7741 225.514 50.1298 222.87C47.4855 220.226 46 216.64 46 212.9V70.1C46 66.3604 47.4855 62.7741 50.1298 60.1298C52.7741 57.4855 56.3604 56 60.1 56H267.6C283.757 70.0584 296.707 87.422 305.574 106.917C314.442 126.412 319.02 147.583 319 169Z" fill="#2E6699"/>
<path d="M319 169V171C319 173.4 318.9 175.7 318.7 178C318.7 178.7 318.6 179.4 318.6 180.1C317.91 189.877 316.235 199.56 313.6 209C313 211 312.5 213 311.8 215L310.8 218H42.1C38.3604 218 34.7741 216.514 32.1298 213.87C29.4855 211.226 28 207.64 28 203.9V61.1C28 57.3604 29.4855 53.7741 32.1298 51.1298C34.7741 48.4855 38.3604 47 42.1 47H256.3L260.3 50C262.8 51.9 265.3 53.9 267.6 56C276.298 63.5328 284.084 72.0574 290.8 81.4C292.1 83.2 293.4 85.1 294.6 87C295.8 88.9 297.5 91.6 298.9 94C302.598 100.312 305.807 106.898 308.5 113.7C309.9 117.4 311.3 121.2 312.4 125C313 127 313.6 129 314.1 131C314.6 133 314.6 133 314.9 134C315.2 135 315.8 138 316.2 140C317.5 146.634 318.335 153.35 318.7 160.1C318.9 163 319 166 319 169Z" fill="#F2F5F7"/>
<path d="M314.1 131H42.1C39.1561 131 36.3328 129.831 34.2511 127.749C32.1695 125.667 31 122.844 31 119.9V61.1C31 59.6423 31.2871 58.1989 31.8449 56.8522C32.4028 55.5055 33.2204 54.2818 34.2511 53.2511C35.2818 52.2204 36.5055 51.4028 37.8522 50.8449C39.1989 50.2871 40.6423 50 42.1 50H260.3C262.8 51.9 265.3 53.9 267.6 56C276.298 63.5328 284.084 72.0574 290.8 81.4C292.1 83.2 293.4 85.1 294.6 87C295.8 88.9 297.5 91.6 298.9 94C302.598 100.312 305.807 106.898 308.5 113.7C309.9 117.4 311.3 121.2 312.4 125C313 127 313.6 129 314.1 131Z" fill="white"/>
<path d="M42.1 50H58V131H42.1C39.1561 131 36.3328 129.831 34.2511 127.749C32.1695 125.667 31 122.844 31 119.9V61.1C31 59.6423 31.2871 58.1989 31.8449 56.8522C32.4028 55.5055 33.2204 54.2818 34.2511 53.2511C35.2818 52.2204 36.5055 51.4028 37.8522 50.8449C39.1989 50.2871 40.6423 50 42.1 50Z" fill="#FF4136"/>
<path d="M41.0001 65C40.9879 64.2953 41.1343 63.5968 41.4286 62.9563C41.7229 62.3159 42.1574 61.7498 42.7001 61.3L42.1001 60.4L41.6001 59.5C40.6192 60.3332 39.8628 61.399 39.4001 62.6C39.6132 62.7127 39.7874 62.8869 39.9001 63.1H40.0001C40.1509 63.3534 40.2467 63.6358 40.2812 63.9287C40.3156 64.2216 40.288 64.5185 40.2001 64.8C40.1417 65.0907 40.0224 65.3658 39.85 65.6071C39.6777 65.8484 39.4562 66.0505 39.2001 66.2H39.1001C39.4601 67.8565 40.3779 69.3391 41.7001 70.4L42.7001 68.6C42.1853 68.1483 41.7688 67.5958 41.4763 66.9765C41.1839 66.3572 41.0218 65.6845 41.0001 65ZM39.4001 63.6C39.21 63.2598 38.8949 63.0069 38.5216 62.8949C38.1483 62.7829 37.7461 62.8206 37.4001 63C37.2184 63.0939 37.0578 63.224 36.9282 63.3823C36.7986 63.5406 36.7028 63.7237 36.6466 63.9204C36.5904 64.1171 36.575 64.3232 36.6014 64.5261C36.6278 64.7289 36.6954 64.9242 36.8001 65.1C36.9031 65.2846 37.0466 65.4435 37.2198 65.5647C37.393 65.686 37.5914 65.7664 37.8001 65.8C37.9859 65.8584 38.1832 65.8708 38.3748 65.8359C38.5664 65.8011 38.7467 65.7201 38.9001 65.6C39.0703 65.5074 39.2194 65.3804 39.3381 65.2272C39.4567 65.074 39.5422 64.8978 39.5892 64.7098C39.6362 64.5218 39.6437 64.3261 39.6111 64.135C39.5786 63.944 39.5067 63.7618 39.4001 63.6ZM50.5001 57C50.2034 57 49.9134 57.088 49.6667 57.2528C49.4201 57.4176 49.2278 57.6519 49.1143 57.926C49.0007 58.2001 48.971 58.5017 49.0289 58.7926C49.0868 59.0836 49.2296 59.3509 49.4394 59.5607C49.6492 59.7704 49.9165 59.9133 50.2074 59.9712C50.4984 60.0291 50.8 59.9993 51.0741 59.8858C51.3482 59.7723 51.5825 59.58 51.7473 59.3334C51.9121 59.0867 52.0001 58.7967 52.0001 58.5C52.0001 58.1022 51.8421 57.7206 51.5607 57.4393C51.2794 57.158 50.8979 57 50.5001 57ZM51.4001 60.5L50.5001 60.7C49.9166 60.7 49.357 60.4682 48.9445 60.0556C48.5319 59.6431 48.3001 59.0835 48.3001 58.5C47.5748 58.1805 46.7926 58.0105 46.0001 58C45.3223 58.0012 44.6484 58.1023 44.0001 58.3L43.4001 58.5V58.8L44.3001 60.3C44.839 60.0805 45.4186 59.9782 46.0001 60C47.1527 59.9998 48.2701 60.3978 49.163 61.1267C50.0559 61.8556 50.6696 62.8706 50.9001 64H52.9001C52.7185 62.7212 52.2009 61.5134 51.4001 60.5ZM50.1001 70.9C49.9383 70.7934 49.7561 70.7215 49.565 70.689C49.374 70.6564 49.1783 70.6639 48.9903 70.7109C48.8023 70.7579 48.6261 70.8434 48.4729 70.962C48.3196 71.0806 48.1927 71.2298 48.1001 71.4C47.9062 71.7493 47.8501 72.1584 47.9426 72.547C48.0351 72.9356 48.2696 73.2756 48.6001 73.5C48.8807 73.6321 49.1973 73.6673 49.5001 73.6C49.7417 73.5887 49.9771 73.5192 50.186 73.3973C50.395 73.2754 50.5713 73.1048 50.7001 72.9C50.8596 72.6284 50.9296 72.3136 50.9001 72C50.8628 71.7666 50.771 71.5453 50.6319 71.3541C50.4929 71.163 50.3107 71.0074 50.1001 70.9ZM50.9001 66C50.6876 67.1382 50.0789 68.1643 49.182 68.8965C48.285 69.6287 47.1578 70.0197 46.0001 70C45.4846 70.0056 44.9737 69.9034 44.5001 69.7L43.4001 71.5C44.2302 71.8195 45.1106 71.9888 46.0001 72H47.2001C47.2068 71.6766 47.3114 71.3628 47.5001 71.1C47.7116 70.7913 47.9951 70.5389 48.3262 70.3647C48.6573 70.1904 49.0259 70.0996 49.4001 70.1C49.7779 70.0708 50.1568 70.1397 50.5001 70.3H50.6001C51.8574 69.1887 52.6736 67.6627 52.9001 66H50.9001Z" fill="white"/>
<path d="M81 110H66V125H81V110Z" fill="#FF4136"/>
<path d="M102 110H87V125H102V110Z" fill="#FFC300"/>
<path d="M143 60H66V70H143V60Z" fill="#E4E9ED"/>
<path d="M127 74H66V79H127V74Z" fill="#E4E9ED"/>
<path d="M249 54V89H163V54H249ZM250 53H162V90H250V53Z" fill="#FF4136"/>
<path d="M247 56H165V87H247V56Z" fill="#F3F4F5"/>
<path d="M247 94H165V125H247V94Z" fill="#F3F4F5"/>
<path d="M290.8 81.4C292.1 83.2 293.4 85.1 294.6 87H254V56H267.6C276.298 63.5328 284.084 72.0574 290.8 81.4Z" fill="#F3F4F5"/>
<path d="M308.5 113.7C309.9 117.4 311.3 121.2 312.4 125H254V94H298.9C302.598 100.312 305.807 106.898 308.5 113.7Z" fill="#F3F4F5"/>
<path d="M165 75.2L170 71L173 74L176 78L178 81L180 82H183L187 80L188 77L192 75L194 73L197 71L201 68L202 65L205 63L210 59L213 62L215 63L219 66H223L226 65L229 62L233 60L238 59L242 58L245 57H247V87H165V75.2Z" fill="#E2E7EB"/>
<path d="M165 100.5L167 104L170 106H174L177 105L179 106L182 108L185 109H187L189 107L192 106L194 107L197 108L199 111L202 112L206 111H210L213 113L215 115L218 117L221 116L223 117L226 119L228 121L230 120L233 119L235 120L237 121L240 122L242 123L244 122L247 120.2V125H165V100.5Z" fill="#E2E7EB"/>
<path d="M290.8 81.4C292.1 83.2 293.4 85.1 294.6 87H254V69L258 73L259 76L262 78L263 80L266 82L269 80L272 81L276 83L279 82L283 78H286L288 80L290.8 81.4Z" fill="#E2E7EB"/>
<path d="M312.4 125H254V122L258 119L262 121L265 120L266 118L269 117L272 118L276 116L277 114L280 112L283 111L285 114L290 113L294 110L297 109L299 111L302 113L304 114H308L308.5 113.7C309.9 117.4 311.3 121.2 312.4 125Z" fill="#E2E7EB"/>
<path d="M319 169V171C319 173.4 318.9 175.7 318.7 178C318.7 178.7 318.6 179.4 318.6 180.1C317.91 189.877 316.235 199.56 313.6 209C313 211 312.5 213 311.8 215H42.1C39.1561 215 36.3328 213.831 34.2511 211.749C32.1695 209.667 31 206.844 31 203.9V145.1C31 142.156 32.1695 139.333 34.2511 137.251C36.3328 135.169 39.1561 134 42.1 134H314.9C315.4 136 315.8 138 316.2 140C317.5 146.634 318.335 153.35 318.7 160.1C318.9 163 319 166 319 169Z" fill="white"/>
<path d="M42.1 134H58V215H42.1C39.1561 215 36.3328 213.831 34.2511 211.749C32.1695 209.667 31 206.844 31 203.9V145.1C31 142.156 32.1695 139.333 34.2511 137.251C36.3328 135.169 39.1561 134 42.1 134Z" fill="#FFC300"/>
<path d="M41.0001 149C40.9879 148.295 41.1343 147.597 41.4286 146.956C41.7229 146.316 42.1574 145.75 42.7001 145.3L42.1001 144.4L41.6001 143.5C40.6192 144.333 39.8628 145.399 39.4001 146.6C39.6132 146.713 39.7874 146.887 39.9001 147.1H40.0001C40.1509 147.353 40.2467 147.636 40.2812 147.929C40.3156 148.222 40.288 148.518 40.2001 148.8C40.1417 149.091 40.0224 149.366 39.85 149.607C39.6777 149.848 39.4562 150.05 39.2001 150.2H39.1001C39.4601 151.856 40.3779 153.339 41.7001 154.4L42.7001 152.6C42.1853 152.148 41.7688 151.596 41.4763 150.977C41.1839 150.357 41.0218 149.684 41.0001 149ZM39.4001 147.6C39.21 147.26 38.8949 147.007 38.5216 146.895C38.1483 146.783 37.7461 146.821 37.4001 147C37.2184 147.094 37.0578 147.224 36.9282 147.382C36.7986 147.541 36.7028 147.724 36.6466 147.92C36.5904 148.117 36.575 148.323 36.6014 148.526C36.6278 148.729 36.6954 148.924 36.8001 149.1C36.9031 149.285 37.0466 149.443 37.2198 149.565C37.393 149.686 37.5914 149.766 37.8001 149.8C37.9859 149.858 38.1832 149.871 38.3748 149.836C38.5664 149.801 38.7467 149.72 38.9001 149.6C39.0703 149.507 39.2194 149.38 39.3381 149.227C39.4567 149.074 39.5422 148.898 39.5892 148.71C39.6362 148.522 39.6437 148.326 39.6111 148.135C39.5786 147.944 39.5067 147.762 39.4001 147.6ZM50.5001 141C50.2034 141 49.9134 141.088 49.6667 141.253C49.4201 141.418 49.2278 141.652 49.1143 141.926C49.0007 142.2 48.971 142.502 49.0289 142.793C49.0868 143.084 49.2296 143.351 49.4394 143.561C49.6492 143.77 49.9165 143.913 50.2074 143.971C50.4984 144.029 50.8 143.999 51.0741 143.886C51.3482 143.772 51.5825 143.58 51.7473 143.333C51.9121 143.087 52.0001 142.797 52.0001 142.5C52.0001 142.102 51.8421 141.721 51.5607 141.439C51.2794 141.158 50.8979 141 50.5001 141ZM51.4001 144.5L50.5001 144.7C49.9166 144.7 49.357 144.468 48.9445 144.056C48.5319 143.643 48.3001 143.083 48.3001 142.5C47.5748 142.181 46.7926 142.01 46.0001 142C45.3223 142.001 44.6484 142.102 44.0001 142.3L43.4001 142.5V142.8L44.3001 144.3C44.839 144.08 45.4186 143.978 46.0001 144C47.1527 144 48.2701 144.398 49.163 145.127C50.0559 145.856 50.6696 146.871 50.9001 148H52.9001C52.7185 146.721 52.2009 145.513 51.4001 144.5ZM50.1001 154.9C49.9383 154.793 49.7561 154.722 49.565 154.689C49.374 154.656 49.1783 154.664 48.9903 154.711C48.8023 154.758 48.6261 154.843 48.4729 154.962C48.3196 155.081 48.1927 155.23 48.1001 155.4C47.9062 155.749 47.8501 156.158 47.9426 156.547C48.0351 156.936 48.2696 157.276 48.6001 157.5C48.8807 157.632 49.1973 157.667 49.5001 157.6C49.7417 157.589 49.9771 157.519 50.186 157.397C50.395 157.275 50.5713 157.105 50.7001 156.9C50.8596 156.628 50.9296 156.314 50.9001 156C50.8628 155.767 50.771 155.545 50.6319 155.354C50.4929 155.163 50.3107 155.007 50.1001 154.9ZM50.9001 150C50.6876 151.138 50.0789 152.164 49.182 152.897C48.285 153.629 47.1578 154.02 46.0001 154C45.4846 154.006 44.9737 153.903 44.5001 153.7L43.4001 155.5C44.2302 155.82 45.1106 155.989 46.0001 156H47.2001C47.2068 155.677 47.3114 155.363 47.5001 155.1C47.7116 154.791 47.9951 154.539 48.3262 154.365C48.6573 154.19 49.0259 154.1 49.4001 154.1C49.7779 154.071 50.1568 154.14 50.5001 154.3C50.5001 154.4 50.5001 154.4 50.6001 154.4C51.8574 153.289 52.6736 151.763 52.9001 150.1L50.9001 150Z" fill="white"/>
<path d="M81 194H66V209H81V194Z" fill="#FFC300"/>
<path d="M128 144H66V154H128V144Z" fill="#E4E9ED"/>
<path d="M137 158H66V163H137V158Z" fill="#E4E9ED"/>
<path d="M247 140H165V171H247V140Z" fill="#F3F4F5"/>
<path d="M249 176V211H163V176H249ZM250 175H162V212H250V175Z" fill="#FFC300"/>
<path d="M247 178H165V209H247V178Z" fill="#F3F4F5"/>
<path d="M319 169V171H254V140H316.2C317.5 146.634 318.335 153.35 318.7 160.1C318.9 163 319 166 319 169Z" fill="#F3F4F5"/>
<path d="M254 178H318.7C318.7 178.7 318.6 179.4 318.6 180.1C317.91 189.877 316.235 199.56 313.6 209H254V178Z" fill="#F3F4F5"/>
<path d="M165 149L167 151L170 154L173 155L174 158L177 161L179 163H183L186 160H188L192 163L196 165L200 167L205 166L209 164L212 166L218 169L220 167H223L228 166H229L232 163L235 162L238 163L241 166L247 167V171H165V149Z" fill="#E2E7EB"/>
<path d="M319 169V171H254V155.5L256 157L259 160H263L267 163L270 164L274 166H278L281 163L286 162L290 163H292L296 166L299 167L304 168L308 166L312 163L315 161L318.7 160.1C318.9 163 319 166 319 169Z" fill="#E2E7EB"/>
<path d="M165 206L167 207L171 206L173 203H176L181 205L186 203L188 200L192 198L195 199L199 201L202 199L204 197L208 195L212 193L216 194L219 192L221 190H225L227 192L231 190L234 187L237 186L239 183L242 182L246 181L247 182.2V209H165V206Z" fill="#E2E7EB"/>
<path d="M318.6 180.1C317.91 189.877 316.235 199.56 313.6 209H254V190L256 192L265 195L266 197L269 199L275 197L279 198H284L286 195L290 194L293 192L298 190L304 188L308 186L312 183L315 181L318.6 180.1Z" fill="#E2E7EB"/>
<path opacity="0.03" d="M312.4 125C311.3 121.2 309.9 117.4 308.5 113.7C305.807 106.898 302.598 100.312 298.9 94C297.5 91.6 296.1 89.3 294.6 87C293.1 84.7 292.1 83.2 290.8 81.4C284.084 72.0574 276.298 63.5328 267.6 56C265.3 53.9 262.8 51.9 260.3 50L256.3 47H191.2C209.19 50.2533 226.233 57.46 241.1 68.1L244.5 70.6C246.6 72.2 248.6 73.9 250.5 75.6C257.682 81.8121 264.095 88.8624 269.6 96.6C270.7 98.1 271.8 99.6 272.8 101.2C273.8 102.8 275.3 105 276.4 107C279.451 112.221 282.093 117.67 284.3 123.3C285.5 126.3 286.6 129.5 287.6 132.6C288.6 135.7 288.6 135.9 289 137.6L289.6 140.1C290 141.7 290.4 143.4 290.7 145C291.756 150.482 292.458 156.027 292.8 161.6C292.9 164.1 293 166.5 293 169V170.7C293 172.6 292.9 174.5 292.8 176.4C292.717 176.996 292.684 177.598 292.7 178.2C292.122 186.289 290.715 194.298 288.5 202.1C288.1 203.7 287.6 205.4 287.1 207L286.2 209.5C285.2 212.4 284.1 215.2 282.9 218H310.8L311.8 215C312.5 213 313 211 313.6 209C313.7 208.5 313.9 208 314 207.5V130.5C313.5 128.6 313 126.8 312.4 125Z" fill="#304659"/>
<path opacity="0.03" d="M318.7 160.1C318.335 153.35 317.5 146.634 316.2 140C315.8 138 315.4 136 314.9 134C314.4 132 314.4 132 314.1 131C313.8 130 313 127 312.4 125C311.3 121.2 309.9 117.4 308.5 113.7C305.807 106.898 302.598 100.312 298.9 94C297.5 91.6 296.1 89.3 294.6 87C293.1 84.7 292.1 83.2 290.8 81.4C284.084 72.0574 276.298 63.5328 267.6 56C265.3 53.9 262.8 51.9 260.3 50L256.3 47H177V218H310.8L311.8 215C312.5 213 313 211 313.6 209C316.235 199.56 317.91 189.877 318.6 180.1C318.6 179.4 318.7 178.7 318.7 178C318.9 175.7 319 173.4 319 171V169C319 166 318.9 163 318.7 160.1Z" fill="#304659"/>
<path d="M319 162H241V308H319V162Z" fill="#708899"/>
<path d="M310 171H250V297H310V171Z" fill="#404F59"/>
<path d="M316 156H244V162H316V156Z" fill="#708899"/>
<path opacity="0.1" d="M316 160H244V162H316V160Z" fill="black"/>
<path d="M246 197H244V245H246V197Z" fill="#E1EBF2"/>
<path opacity="0.2" d="M248 199H246V247H248V199Z" fill="black"/>
<path d="M310 251H250V274H310V251Z" fill="#4B5C69"/>
<path d="M254 272H278V263H254V272Z" fill="#404F59"/>
<path d="M282 272H306V263H282V272Z" fill="#404F59"/>
<path d="M254 261H278V252H254V261Z" fill="#404F59"/>
<path d="M282 261H306V252H282V261Z" fill="#404F59"/>
<path d="M258 270C258.552 270 259 269.552 259 269C259 268.448 258.552 268 258 268C257.448 268 257 268.448 257 269C257 269.552 257.448 270 258 270Z" fill="#00AB44"/>
<path d="M261 270C261.552 270 262 269.552 262 269C262 268.448 261.552 268 261 268C260.448 268 260 268.448 260 269C260 269.552 260.448 270 261 270Z" fill="#00AB44"/>
<path d="M264 270C264.552 270 265 269.552 265 269C265 268.448 264.552 268 264 268C263.448 268 263 268.448 263 269C263 269.552 263.448 270 264 270Z" fill="#00AB44"/>
<path d="M267 270C267.552 270 268 269.552 268 269C268 268.448 267.552 268 267 268C266.448 268 266 268.448 266 269C266 269.552 266.448 270 267 270Z" fill="#00AB44"/>
<path d="M286 270C286.552 270 287 269.552 287 269C287 268.448 286.552 268 286 268C285.448 268 285 268.448 285 269C285 269.552 285.448 270 286 270Z" fill="#00AB44"/>
<path d="M289 270C289.552 270 290 269.552 290 269C290 268.448 289.552 268 289 268C288.448 268 288 268.448 288 269C288 269.552 288.448 270 289 270Z" fill="#00AB44"/>
<path d="M292 270C292.552 270 293 269.552 293 269C293 268.448 292.552 268 292 268C291.448 268 291 268.448 291 269C291 269.552 291.448 270 292 270Z" fill="#FF4136"/>
<path d="M295 270C295.552 270 296 269.552 296 269C296 268.448 295.552 268 295 268C294.448 268 294 268.448 294 269C294 269.552 294.448 270 295 270Z" fill="#00AB44"/>
<path d="M258 259C258.552 259 259 258.552 259 258C259 257.448 258.552 257 258 257C257.448 257 257 257.448 257 258C257 258.552 257.448 259 258 259Z" fill="#00AB44"/>
<path d="M261 259C261.552 259 262 258.552 262 258C262 257.448 261.552 257 261 257C260.448 257 260 257.448 260 258C260 258.552 260.448 259 261 259Z" fill="#00AB44"/>
<path d="M264 259C264.552 259 265 258.552 265 258C265 257.448 264.552 257 264 257C263.448 257 263 257.448 263 258C263 258.552 263.448 259 264 259Z" fill="#FF4136"/>
<path d="M267 259C267.552 259 268 258.552 268 258C268 257.448 267.552 257 267 257C266.448 257 266 257.448 266 258C266 258.552 266.448 259 267 259Z" fill="#FF4136"/>
<path d="M286 259C286.552 259 287 258.552 287 258C287 257.448 286.552 257 286 257C285.448 257 285 257.448 285 258C285 258.552 285.448 259 286 259Z" fill="#00AB44"/>
<path d="M289 259C289.552 259 290 258.552 290 258C290 257.448 289.552 257 289 257C288.448 257 288 257.448 288 258C288 258.552 288.448 259 289 259Z" fill="#00AB44"/>
<path d="M292 259C292.552 259 293 258.552 293 258C293 257.448 292.552 257 292 257C291.448 257 291 257.448 291 258C291 258.552 291.448 259 292 259Z" fill="#00AB44"/>
<path d="M295 259C295.552 259 296 258.552 296 258C296 257.448 295.552 257 295 257C294.448 257 294 257.448 294 258C294 258.552 294.448 259 295 259Z" fill="#00AB44"/>
<path d="M310 192H250V214H310V192Z" fill="#4B5C69"/>
<path d="M254 213H278V204H254V213Z" fill="#404F59"/>
<path d="M282 213H306V204H282V213Z" fill="#404F59"/>
<path d="M254 202H278V193H254V202Z" fill="#404F59"/>
<path d="M282 202H306V193H282V202Z" fill="#404F59"/>
<path d="M258 211C258.552 211 259 210.552 259 210C259 209.448 258.552 209 258 209C257.448 209 257 209.448 257 210C257 210.552 257.448 211 258 211Z" fill="#00AB44"/>
<path d="M261 211C261.552 211 262 210.552 262 210C262 209.448 261.552 209 261 209C260.448 209 260 209.448 260 210C260 210.552 260.448 211 261 211Z" fill="#00AB44"/>
<path d="M264 211C264.552 211 265 210.552 265 210C265 209.448 264.552 209 264 209C263.448 209 263 209.448 263 210C263 210.552 263.448 211 264 211Z" fill="#00AB44"/>
<path d="M267 211C267.552 211 268 210.552 268 210C268 209.448 267.552 209 267 209C266.448 209 266 209.448 266 210C266 210.552 266.448 211 267 211Z" fill="#00AB44"/>
<path d="M286 211C286.552 211 287 210.552 287 210C287 209.448 286.552 209 286 209C285.448 209 285 209.448 285 210C285 210.552 285.448 211 286 211Z" fill="#00AB44"/>
<path d="M289 211C289.552 211 290 210.552 290 210C290 209.448 289.552 209 289 209C288.448 209 288 209.448 288 210C288 210.552 288.448 211 289 211Z" fill="#00AB44"/>
<path d="M292 211C292.552 211 293 210.552 293 210C293 209.448 292.552 209 292 209C291.448 209 291 209.448 291 210C291 210.552 291.448 211 292 211Z" fill="#00AB44"/>
<path d="M295 211C295.552 211 296 210.552 296 210C296 209.448 295.552 209 295 209C294.448 209 294 209.448 294 210C294 210.552 294.448 211 295 211Z" fill="#FF4136"/>
<path d="M258 200C258.552 200 259 199.552 259 199C259 198.448 258.552 198 258 198C257.448 198 257 198.448 257 199C257 199.552 257.448 200 258 200Z" fill="#FF4136"/>
<path d="M261 200C261.552 200 262 199.552 262 199C262 198.448 261.552 198 261 198C260.448 198 260 198.448 260 199C260 199.552 260.448 200 261 200Z" fill="#00AB44"/>
<path d="M264 200C264.552 200 265 199.552 265 199C265 198.448 264.552 198 264 198C263.448 198 263 198.448 263 199C263 199.552 263.448 200 264 200Z" fill="#00AB44"/>
<path d="M267 200C267.552 200 268 199.552 268 199C268 198.448 267.552 198 267 198C266.448 198 266 198.448 266 199C266 199.552 266.448 200 267 200Z" fill="#00AB44"/>
<path d="M286 200C286.552 200 287 199.552 287 199C287 198.448 286.552 198 286 198C285.448 198 285 198.448 285 199C285 199.552 285.448 200 286 200Z" fill="#00AB44"/>
<path d="M289 200C289.552 200 290 199.552 290 199C290 198.448 289.552 198 289 198C288.448 198 288 198.448 288 199C288 199.552 288.448 200 289 200Z" fill="#FF4136"/>
<path d="M292 200C292.552 200 293 199.552 293 199C293 198.448 292.552 198 292 198C291.448 198 291 198.448 291 199C291 199.552 291.448 200 292 200Z" fill="#FF4136"/>
<path d="M295 200C295.552 200 296 199.552 296 199C296 198.448 295.552 198 295 198C294.448 198 294 198.448 294 199C294 199.552 294.448 200 295 200Z" fill="#00AB44"/>
<path d="M250 250H310V236H250V250Z" fill="#4B5C69"/>
<path d="M306 238H282V247H306V238Z" fill="#404F59"/>
<path d="M278 238H254V247H278V238Z" fill="#404F59"/>
<path d="M302 245C302.552 245 303 244.552 303 244C303 243.448 302.552 243 302 243C301.448 243 301 243.448 301 244C301 244.552 301.448 245 302 245Z" fill="#FF4136"/>
<path d="M299 245C299.552 245 300 244.552 300 244C300 243.448 299.552 243 299 243C298.448 243 298 243.448 298 244C298 244.552 298.448 245 299 245Z" fill="#00AB44"/>
<path d="M296 245C296.552 245 297 244.552 297 244C297 243.448 296.552 243 296 243C295.448 243 295 243.448 295 244C295 244.552 295.448 245 296 245Z" fill="#00AB44"/>
<path d="M293 245C293.552 245 294 244.552 294 244C294 243.448 293.552 243 293 243C292.448 243 292 243.448 292 244C292 244.552 292.448 245 293 245Z" fill="#00AB44"/>
<path d="M274 245C274.552 245 275 244.552 275 244C275 243.448 274.552 243 274 243C273.448 243 273 243.448 273 244C273 244.552 273.448 245 274 245Z" fill="#00AB44"/>
<path d="M271 245C271.552 245 272 244.552 272 244C272 243.448 271.552 243 271 243C270.448 243 270 243.448 270 244C270 244.552 270.448 245 271 245Z" fill="#FF4136"/>
<path d="M268 245C268.552 245 269 244.552 269 244C269 243.448 268.552 243 268 243C267.448 243 267 243.448 267 244C267 244.552 267.448 245 268 245Z" fill="#FF4136"/>
<path d="M265 245C265.552 245 266 244.552 266 244C266 243.448 265.552 243 265 243C264.448 243 264 243.448 264 244C264 244.552 264.448 245 265 245Z" fill="#00AB44"/>
<path d="M310 171H250V191H310V171Z" fill="#4B5C69"/>
<path d="M258 173H254V189H258V173Z" fill="#404F59"/>
<path d="M264 173H260V189H264V173Z" fill="#404F59"/>
<path d="M270 173H266V189H270V173Z" fill="#404F59"/>
<path d="M306 173H273V177H306V173Z" fill="#404F59"/>
<path d="M306 179H273V183H306V179Z" fill="#404F59"/>
<path d="M256 176C256.552 176 257 175.552 257 175C257 174.448 256.552 174 256 174C255.448 174 255 174.448 255 175C255 175.552 255.448 176 256 176Z" fill="#00AB44"/>
<path d="M262 176C262.552 176 263 175.552 263 175C263 174.448 262.552 174 262 174C261.448 174 261 174.448 261 175C261 175.552 261.448 176 262 176Z" fill="#00AB44"/>
<path d="M268 176C268.552 176 269 175.552 269 175C269 174.448 268.552 174 268 174C267.448 174 267 174.448 267 175C267 175.552 267.448 176 268 176Z" fill="#00AB44"/>
<path d="M250 235H310V215H250V235Z" fill="#4B5C69"/>
<path d="M302 233H306V217H302V233Z" fill="#404F59"/>
<path d="M296 233H300V217H296V233Z" fill="#404F59"/>
<path d="M290 233H294V217H290V233Z" fill="#404F59"/>
<path d="M254 221H287V217H254V221Z" fill="#404F59"/>
<path d="M254 227H287V223H254V227Z" fill="#404F59"/>
<path d="M254 233H287V229H254V233Z" fill="#404F59"/>
<path d="M304 220C304.552 220 305 219.552 305 219C305 218.448 304.552 218 304 218C303.448 218 303 218.448 303 219C303 219.552 303.448 220 304 220Z" fill="#00AB44"/>
<path d="M298 220C298.552 220 299 219.552 299 219C299 218.448 298.552 218 298 218C297.448 218 297 218.448 297 219C297 219.552 297.448 220 298 220Z" fill="#00AB44"/>
<path d="M292 220C292.552 220 293 219.552 293 219C293 218.448 292.552 218 292 218C291.448 218 291 218.448 291 219C291 219.552 291.448 220 292 220Z" fill="#00AB44"/>
<path d="M313 308H247V319H313V308Z" fill="#708899"/>
<path opacity="0.1" d="M313 308H247V312H313V308Z" fill="black"/>
<path d="M310 275H250V297H310V275Z" fill="#4B5C69"/>
<path d="M254 281H278V276H254V281Z" fill="#404F59"/>
<path d="M282 281H306V276H282V281Z" fill="#404F59"/>
<path d="M254 288H278V283H254V288Z" fill="#404F59"/>
<path d="M282 288H306V283H282V288Z" fill="#404F59"/>
<path d="M256.5 279C256.776 279 257 278.776 257 278.5C257 278.224 256.776 278 256.5 278C256.224 278 256 278.224 256 278.5C256 278.776 256.224 279 256.5 279Z" fill="#00AB44"/>
<path d="M256.5 286C256.776 286 257 285.776 257 285.5C257 285.224 256.776 285 256.5 285C256.224 285 256 285.224 256 285.5C256 285.776 256.224 286 256.5 286Z" fill="#00AB44"/>
<path d="M285.5 279C285.776 279 286 278.776 286 278.5C286 278.224 285.776 278 285.5 278C285.224 278 285 278.224 285 278.5C285 278.776 285.224 279 285.5 279Z" fill="#00AB44"/>
<path d="M285.5 286C285.776 286 286 285.776 286 285.5C286 285.224 285.776 285 285.5 285C285.224 285 285 285.224 285 285.5C285 285.776 285.224 286 285.5 286Z" fill="#FF4136"/>
<path d="M254 295H278V290H254V295Z" fill="#404F59"/>
<path d="M282 295H306V290H282V295Z" fill="#404F59"/>
<path d="M256.5 293C256.776 293 257 292.776 257 292.5C257 292.224 256.776 292 256.5 292C256.224 292 256 292.224 256 292.5C256 292.776 256.224 293 256.5 293Z" fill="#00AB44"/>
<path d="M285.5 293C285.776 293 286 292.776 286 292.5C286 292.224 285.776 292 285.5 292C285.224 292 285 292.224 285 292.5C285 292.776 285.224 293 285.5 293Z" fill="#00AB44"/>
<path opacity="0.15" d="M316 162V156H280V319H313V308H319V162H316Z" fill="black"/>
<path d="M262 156H184V308H262V156Z" fill="#708899"/>
<path d="M253 165H193V297H253V165Z" fill="#4B5C69"/>
<path d="M259 150H187V156H259V150Z" fill="#708899"/>
<path opacity="0.1" d="M259 154H187V156H259V154Z" fill="black"/>
<path d="M189 193H187V243H189V193Z" fill="#E1EBF2"/>
<path opacity="0.2" d="M191 195H189V245H191V195Z" fill="black"/>
<path d="M253 189H193V191H253V189Z" fill="#404F59"/>
<path d="M253 211H193V213H253V211Z" fill="#404F59"/>
<path d="M253 235H193V237H253V235Z" fill="#404F59"/>
<path d="M197 187H221V178H197V187Z" fill="#404F59"/>
<path d="M225 187H249V178H225V187Z" fill="#404F59"/>
<path d="M197 176H221V167H197V176Z" fill="#404F59"/>
<path d="M225 176H249V167H225V176Z" fill="#404F59"/>
<path d="M201 185C201.552 185 202 184.552 202 184C202 183.448 201.552 183 201 183C200.448 183 200 183.448 200 184C200 184.552 200.448 185 201 185Z" fill="#00AB44"/>
<path d="M204 185C204.552 185 205 184.552 205 184C205 183.448 204.552 183 204 183C203.448 183 203 183.448 203 184C203 184.552 203.448 185 204 185Z" fill="#00AB44"/>
<path d="M207 185C207.552 185 208 184.552 208 184C208 183.448 207.552 183 207 183C206.448 183 206 183.448 206 184C206 184.552 206.448 185 207 185Z" fill="#00AB44"/>
<path d="M210 185C210.552 185 211 184.552 211 184C211 183.448 210.552 183 210 183C209.448 183 209 183.448 209 184C209 184.552 209.448 185 210 185Z" fill="#00AB44"/>
<path d="M229 185C229.552 185 230 184.552 230 184C230 183.448 229.552 183 229 183C228.448 183 228 183.448 228 184C228 184.552 228.448 185 229 185Z" fill="#00AB44"/>
<path d="M232 185C232.552 185 233 184.552 233 184C233 183.448 232.552 183 232 183C231.448 183 231 183.448 231 184C231 184.552 231.448 185 232 185Z" fill="#00AB44"/>
<path d="M235 185C235.552 185 236 184.552 236 184C236 183.448 235.552 183 235 183C234.448 183 234 183.448 234 184C234 184.552 234.448 185 235 185Z" fill="#FF4136"/>
<path d="M238 185C238.552 185 239 184.552 239 184C239 183.448 238.552 183 238 183C237.448 183 237 183.448 237 184C237 184.552 237.448 185 238 185Z" fill="#00AB44"/>
<path d="M201 174C201.552 174 202 173.552 202 173C202 172.448 201.552 172 201 172C200.448 172 200 172.448 200 173C200 173.552 200.448 174 201 174Z" fill="#00AB44"/>
<path d="M204 174C204.552 174 205 173.552 205 173C205 172.448 204.552 172 204 172C203.448 172 203 172.448 203 173C203 173.552 203.448 174 204 174Z" fill="#00AB44"/>
<path d="M207 174C207.552 174 208 173.552 208 173C208 172.448 207.552 172 207 172C206.448 172 206 172.448 206 173C206 173.552 206.448 174 207 174Z" fill="#FF4136"/>
<path d="M210 174C210.552 174 211 173.552 211 173C211 172.448 210.552 172 210 172C209.448 172 209 172.448 209 173C209 173.552 209.448 174 210 174Z" fill="#FF4136"/>
<path d="M229 174C229.552 174 230 173.552 230 173C230 172.448 229.552 172 229 172C228.448 172 228 172.448 228 173C228 173.552 228.448 174 229 174Z" fill="#00AB44"/>
<path d="M232 174C232.552 174 233 173.552 233 173C233 172.448 232.552 172 232 172C231.448 172 231 172.448 231 173C231 173.552 231.448 174 232 174Z" fill="#00AB44"/>
<path d="M235 174C235.552 174 236 173.552 236 173C236 172.448 235.552 172 235 172C234.448 172 234 172.448 234 173C234 173.552 234.448 174 235 174Z" fill="#00AB44"/>
<path d="M238 174C238.552 174 239 173.552 239 173C239 172.448 238.552 172 238 172C237.448 172 237 172.448 237 173C237 173.552 237.448 174 238 174Z" fill="#00AB44"/>
<path d="M197 234H221V225H197V234Z" fill="#404F59"/>
<path d="M225 234H249V225H225V234Z" fill="#404F59"/>
<path d="M197 223H221V214H197V223Z" fill="#404F59"/>
<path d="M225 223H249V214H225V223Z" fill="#404F59"/>
<path d="M197 243H221V238H197V243Z" fill="#404F59"/>
<path d="M225 243H249V238H225V243Z" fill="#404F59"/>
<path d="M197 250H221V245H197V250Z" fill="#404F59"/>
<path d="M225 250H249V245H225V250Z" fill="#404F59"/>
<path d="M201 232C201.552 232 202 231.552 202 231C202 230.448 201.552 230 201 230C200.448 230 200 230.448 200 231C200 231.552 200.448 232 201 232Z" fill="#00AB44"/>
<path d="M204 232C204.552 232 205 231.552 205 231C205 230.448 204.552 230 204 230C203.448 230 203 230.448 203 231C203 231.552 203.448 232 204 232Z" fill="#00AB44"/>
<path d="M207 232C207.552 232 208 231.552 208 231C208 230.448 207.552 230 207 230C206.448 230 206 230.448 206 231C206 231.552 206.448 232 207 232Z" fill="#00AB44"/>
<path d="M210 232C210.552 232 211 231.552 211 231C211 230.448 210.552 230 210 230C209.448 230 209 230.448 209 231C209 231.552 209.448 232 210 232Z" fill="#00AB44"/>
<path d="M229 232C229.552 232 230 231.552 230 231C230 230.448 229.552 230 229 230C228.448 230 228 230.448 228 231C228 231.552 228.448 232 229 232Z" fill="#00AB44"/>
<path d="M232 232C232.552 232 233 231.552 233 231C233 230.448 232.552 230 232 230C231.448 230 231 230.448 231 231C231 231.552 231.448 232 232 232Z" fill="#00AB44"/>
<path d="M235 232C235.552 232 236 231.552 236 231C236 230.448 235.552 230 235 230C234.448 230 234 230.448 234 231C234 231.552 234.448 232 235 232Z" fill="#00AB44"/>
<path d="M238 232C238.552 232 239 231.552 239 231C239 230.448 238.552 230 238 230C237.448 230 237 230.448 237 231C237 231.552 237.448 232 238 232Z" fill="#FF4136"/>
<path d="M201 221C201.552 221 202 220.552 202 220C202 219.448 201.552 219 201 219C200.448 219 200 219.448 200 220C200 220.552 200.448 221 201 221Z" fill="#FF4136"/>
<path d="M204 221C204.552 221 205 220.552 205 220C205 219.448 204.552 219 204 219C203.448 219 203 219.448 203 220C203 220.552 203.448 221 204 221Z" fill="#00AB44"/>
<path d="M207 221C207.552 221 208 220.552 208 220C208 219.448 207.552 219 207 219C206.448 219 206 219.448 206 220C206 220.552 206.448 221 207 221Z" fill="#00AB44"/>
<path d="M210 221C210.552 221 211 220.552 211 220C211 219.448 210.552 219 210 219C209.448 219 209 219.448 209 220C209 220.552 209.448 221 210 221Z" fill="#00AB44"/>
<path d="M229 221C229.552 221 230 220.552 230 220C230 219.448 229.552 219 229 219C228.448 219 228 219.448 228 220C228 220.552 228.448 221 229 221Z" fill="#00AB44"/>
<path d="M232 221C232.552 221 233 220.552 233 220C233 219.448 232.552 219 232 219C231.448 219 231 219.448 231 220C231 220.552 231.448 221 232 221Z" fill="#FF4136"/>
<path d="M235 221C235.552 221 236 220.552 236 220C236 219.448 235.552 219 235 219C234.448 219 234 219.448 234 220C234 220.552 234.448 221 235 221Z" fill="#FF4136"/>
<path d="M238 221C238.552 221 239 220.552 239 220C239 219.448 238.552 219 238 219C237.448 219 237 219.448 237 220C237 220.552 237.448 221 238 221Z" fill="#00AB44"/>
<path d="M197 294H221V285H197V294Z" fill="#404F59"/>
<path d="M225 294H249V285H225V294Z" fill="#404F59"/>
<path d="M201 292C201.552 292 202 291.552 202 291C202 290.448 201.552 290 201 290C200.448 290 200 290.448 200 291C200 291.552 200.448 292 201 292Z" fill="#FF4136"/>
<path d="M204 292C204.552 292 205 291.552 205 291C205 290.448 204.552 290 204 290C203.448 290 203 290.448 203 291C203 291.552 203.448 292 204 292Z" fill="#00AB44"/>
<path d="M207 292C207.552 292 208 291.552 208 291C208 290.448 207.552 290 207 290C206.448 290 206 290.448 206 291C206 291.552 206.448 292 207 292Z" fill="#00AB44"/>
<path d="M210 292C210.552 292 211 291.552 211 291C211 290.448 210.552 290 210 290C209.448 290 209 290.448 209 291C209 291.552 209.448 292 210 292Z" fill="#00AB44"/>
<path d="M229 292C229.552 292 230 291.552 230 291C230 290.448 229.552 290 229 290C228.448 290 228 290.448 228 291C228 291.552 228.448 292 229 292Z" fill="#00AB44"/>
<path d="M232 292C232.552 292 233 291.552 233 291C233 290.448 232.552 290 232 290C231.448 290 231 290.448 231 291C231 291.552 231.448 292 232 292Z" fill="#FF4136"/>
<path d="M235 292C235.552 292 236 291.552 236 291C236 290.448 235.552 290 235 290C234.448 290 234 290.448 234 291C234 291.552 234.448 292 235 292Z" fill="#FF4136"/>
<path d="M238 292C238.552 292 239 291.552 239 291C239 290.448 238.552 290 238 290C237.448 290 237 290.448 237 291C237 291.552 237.448 292 238 292Z" fill="#00AB44"/>
<path d="M201 193H197V209H201V193Z" fill="#404F59"/>
<path d="M207 193H203V209H207V193Z" fill="#404F59"/>
<path d="M213 193H209V209H213V193Z" fill="#404F59"/>
<path d="M249 193H216V197H249V193Z" fill="#404F59"/>
<path d="M249 199H216V203H249V199Z" fill="#404F59"/>
<path d="M199 196C199.552 196 200 195.552 200 195C200 194.448 199.552 194 199 194C198.448 194 198 194.448 198 195C198 195.552 198.448 196 199 196Z" fill="#00AB44"/>
<path d="M205 196C205.552 196 206 195.552 206 195C206 194.448 205.552 194 205 194C204.448 194 204 194.448 204 195C204 195.552 204.448 196 205 196Z" fill="#00AB44"/>
<path d="M211 196C211.552 196 212 195.552 212 195C212 194.448 211.552 194 211 194C210.448 194 210 194.448 210 195C210 195.552 210.448 196 211 196Z" fill="#00AB44"/>
<path d="M253 259H193V261H253V259Z" fill="#404F59"/>
<path d="M253 281H193V283H253V281Z" fill="#404F59"/>
<path d="M201 263H197V279H201V263Z" fill="#404F59"/>
<path d="M207 263H203V279H207V263Z" fill="#404F59"/>
<path d="M213 263H209V279H213V263Z" fill="#404F59"/>
<path d="M249 263H216V267H249V263Z" fill="#404F59"/>
<path d="M249 269H216V273H249V269Z" fill="#404F59"/>
<path d="M249 275H216V279H249V275Z" fill="#404F59"/>
<path d="M199 266C199.552 266 200 265.552 200 265C200 264.448 199.552 264 199 264C198.448 264 198 264.448 198 265C198 265.552 198.448 266 199 266Z" fill="#00AB44"/>
<path d="M205 266C205.552 266 206 265.552 206 265C206 264.448 205.552 264 205 264C204.448 264 204 264.448 204 265C204 265.552 204.448 266 205 266Z" fill="#00AB44"/>
<path d="M211 266C211.552 266 212 265.552 212 265C212 264.448 211.552 264 211 264C210.448 264 210 264.448 210 265C210 265.552 210.448 266 211 266Z" fill="#00AB44"/>
<path d="M256 308H190V319H256V308Z" fill="#708899"/>
<path opacity="0.1" d="M256 308H190V312H256V308Z" fill="black"/>
<path d="M199.5 241C199.776 241 200 240.776 200 240.5C200 240.224 199.776 240 199.5 240C199.224 240 199 240.224 199 240.5C199 240.776 199.224 241 199.5 241Z" fill="#00AB44"/>
<path d="M199.5 248C199.776 248 200 247.776 200 247.5C200 247.224 199.776 247 199.5 247C199.224 247 199 247.224 199 247.5C199 247.776 199.224 248 199.5 248Z" fill="#00AB44"/>
<path d="M228.5 241C228.776 241 229 240.776 229 240.5C229 240.224 228.776 240 228.5 240C228.224 240 228 240.224 228 240.5C228 240.776 228.224 241 228.5 241Z" fill="#00AB44"/>
<path d="M228.5 248C228.776 248 229 247.776 229 247.5C229 247.224 228.776 247 228.5 247C228.224 247 228 247.224 228 247.5C228 247.776 228.224 248 228.5 248Z" fill="#FF4136"/>
<path d="M197 257H221V252H197V257Z" fill="#404F59"/>
<path d="M225 257H249V252H225V257Z" fill="#404F59"/>
<path d="M199.5 255C199.776 255 200 254.776 200 254.5C200 254.224 199.776 254 199.5 254C199.224 254 199 254.224 199 254.5C199 254.776 199.224 255 199.5 255Z" fill="#00AB44"/>
<path d="M228.5 255C228.776 255 229 254.776 229 254.5C229 254.224 228.776 254 228.5 254C228.224 254 228 254.224 228 254.5C228 254.776 228.224 255 228.5 255Z" fill="#00AB44"/>
<path opacity="0.2" d="M259 156V150H223V319H256V308H262V156H259Z" fill="black"/>
</svg>
