<svg width="1723" height="1723" viewBox="0 0 1723 1723" fill="none" xmlns="http://www.w3.org/2000/svg">
<path fill-rule="evenodd" clip-rule="evenodd" d="M0.628784 849.678C0.628784 473.909 235.042 153.621 563.766 30.7914C701.438 19.0613 843.892 50.2449 970.557 129.297C1052.47 180.42 1119.71 246.528 1170.96 321.982C1161.21 207.568 1122.97 96.4678 1058.94 0.187012C1220.56 38.587 1364.64 123.126 1476.91 239.343C1518.34 297.634 1548.55 365.545 1563.67 440.489C1578.54 514.244 1577.35 587.545 1562.5 656.661C1601.04 613.105 1632.22 563.24 1654.63 509.251C1698.41 613.852 1722.63 728.899 1722.63 849.678C1722.63 1331.55 1337.15 1722.19 861.629 1722.19C386.112 1722.19 0.628784 1331.55 0.628784 849.678ZM1178.87 1369.04C1286.71 1369.04 1374.13 1280.45 1374.13 1171.17C1374.13 1061.88 1286.71 973.293 1178.87 973.293C1071.03 973.293 983.603 1061.88 983.603 1171.17C983.603 1280.45 1071.03 1369.04 1178.87 1369.04Z" fill="#00C853"/>
</svg>
