<svg width="1387" height="1151" viewBox="0 0 1387 1151" fill="none" xmlns="http://www.w3.org/2000/svg">
    <g style="mix-blend-mode:hard-light" opacity="0.35">
        <g style="mix-blend-mode:overlay" opacity="0.196">
            <path d="M-25.0792 1154.45L-136.96 1002.61L250.129 237.268L575.591 678.953C701.821 850.938 661.524 1095.35 485.385 1225.28C320.974 1346 92.7063 1314.29 -25.0792 1154.45Z" fill="#00AB44"/>
        </g>
        <g style="mix-blend-mode:overlay" opacity="0.196">
            <path d="M-12.3173 1111.06L15.9345 924.586L830.828 657.12L748.648 1199.57C716.293 1410.44 514.975 1554.77 298.551 1522.1C96.9356 1491.21 -42.0581 1307.38 -12.3173 1111.06Z" fill="#00AB44"/>
        </g>
        <g style="mix-blend-mode:overlay" opacity="0.196">
            <path d="M231.61 1038.92L383.444 927.039L1148.79 1314.13L707.105 1639.59C535.126 1765.82 290.711 1725.52 160.78 1549.38C40.0569 1384.98 71.7626 1156.71 231.61 1038.92Z" fill="#00AB44"/>
        </g>
        <g style="mix-blend-mode:overlay" opacity="0.196">
            <g style="mix-blend-mode:overlay" opacity="0.196">
                <g style="mix-blend-mode:overlay" opacity="0.196">
                    <path d="M274.998 1051.68L461.47 1079.93L728.939 1894.83L186.485 1812.65C-24.3848 1780.29 -168.713 1578.97 -136.039 1362.55C-105.148 1160.94 78.6817 1021.94 274.998 1051.68Z" fill="#00AB44"/>
                </g>
            </g>
        </g>
        <g style="mix-blend-mode:overlay" opacity="0.196">
            <path d="M347.136 1295.61L459.017 1447.44L71.9289 2212.79L-253.533 1771.1C-379.764 1599.12 -339.466 1354.71 -163.328 1224.78C1.0794 1104.06 229.351 1135.76 347.136 1295.61Z" fill="#00AB44"/>
        </g>
        <g style="mix-blend-mode:overlay" opacity="0.196">
            <path d="M334.373 1339L306.126 1525.47L-508.771 1792.94L-426.591 1250.48C-394.238 1039.62 -192.92 895.285 23.5043 927.96C225.121 958.851 364.119 1142.69 334.373 1339Z" fill="#00AB44"/>
        </g>
        <g style="mix-blend-mode:overlay" opacity="0.196">
            <path d="M90.4466 1411.14L-61.3861 1523.02L-826.731 1135.93L-385.046 810.466C-213.063 684.237 31.3459 724.533 161.277 900.672C281.998 1065.08 250.294 1293.35 90.4466 1411.14Z" fill="#00AB44"/>
        </g>
        <g style="mix-blend-mode:overlay" opacity="0.196">
            <path d="M47.0605 1398.37L-139.414 1370.12L-406.881 555.229L135.573 637.41C346.442 669.763 490.772 871.081 458.098 1087.51C427.206 1289.12 243.377 1428.12 47.0605 1398.37Z" fill="#00AB44"/>
        </g>
    </g>
</svg>
