<?xml version="1.0" encoding="UTF-8" standalone="no"?>
<svg xmlns="http://www.w3.org/2000/svg" viewBox="0 0 144 144" preserveAspectRatio="xMidYMid"><path d="M60.672 66.736l5.19 5.162-5.19 5.16h-36.54v17.197L1.848 71.898l22.284-21.982v16.82h36.54z" fill="#932279"/><path d="M77.217 60.672l-5.16 5.19-5.162-5.19v-36.54H49.698L72.056 1.848l21.981 22.284h-16.82v36.54z" fill="#EFA724"/><path d="M83.282 77.217l-5.192-5.16 5.192-5.162h36.539V49.698l22.284 22.358-22.284 21.981v-16.82H83.282z" fill="#262577"/><path d="M66.736 83.282l5.16-5.192 5.162 5.192v36.54h17.197l-22.358 22.283-21.98-22.283h16.819v-36.54zM22.822 22.822H67.22v44.399H22.822V22.822z" fill="#9CCD2A"/><path d="M21.237 21.237h47.569v47.569h-47.57v-47.57zm3.17 44.398h41.227V24.408H24.407v41.227z" fill="#FFF"/><path d="M76.733 22.822h44.397v44.399H76.733V22.822z" fill="#932279"/><path d="M75.148 21.237h47.57v47.569h-47.57v-47.57zm3.171 44.398h41.227V24.408H78.319v41.227z" fill="#FFF"/><path d="M76.733 76.733h44.397v44.398H76.733V76.733z" fill="#EFA724"/><path d="M75.148 75.148h47.57v47.57h-47.57v-47.57zm3.171 44.398h41.227V78.319H78.319v41.227z" fill="#FFF"/><path d="M22.822 76.733H67.22v44.398H22.822V76.733z" fill="#262577"/><path d="M21.237 75.148h47.569v47.57h-47.57v-47.57zm3.17 44.398h41.227V78.319H24.407v41.227z" fill="#FFF"/><path d="M33.856 105.614L.219 71.976 33.855 38.34l33.637 33.636-33.636 33.638zM4.704 71.976l29.152 29.152 29.15-29.152-29.151-29.15-29.151 29.15zM71.976 67.492L38.34 33.856 71.976.219l33.637 33.637-33.637 33.636zm-29.15-33.636l29.15 29.15 29.152-29.15L71.976 4.704l-29.15 29.152zM110.098 105.614L76.462 71.976l33.636-33.636 33.636 33.636-33.636 33.638zM80.946 71.976l29.152 29.152 29.151-29.152-29.151-29.15-29.152 29.15zM71.976 143.734L38.34 110.098l33.636-33.636 33.637 33.636-33.637 33.636zm-29.15-33.636l29.15 29.151 29.152-29.151-29.152-29.151-29.15 29.151z" fill="#FFF"/>
	<metadata>
		<rdf:RDF xmlns:rdf="http://www.w3.org/1999/02/22-rdf-syntax-ns#" xmlns:rdfs="http://www.w3.org/2000/01/rdf-schema#" xmlns:dc="http://purl.org/dc/elements/1.1/">
			<rdf:Description about="https://iconscout.com/legal#licenses" dc:title="centos-company-brand-logo" dc:description="centos-company-brand-logo" dc:publisher="Iconscout" dc:date="2017-07-12" dc:format="image/svg+xml" dc:language="en">
				<dc:creator>
					<rdf:Bag>
						<rdf:li>Icon Mafia</rdf:li>
					</rdf:Bag>
				</dc:creator>
			</rdf:Description>
		</rdf:RDF>
    </metadata></svg>
