<svg xmlns="http://www.w3.org/2000/svg" xmlns:xlink="http://www.w3.org/1999/xlink" width="256" height="256" preserveAspectRatio="xMidYMid meet" viewBox="0 0 256 256" style="-ms-transform: rotate(360deg); -webkit-transform: rotate(360deg); transform: rotate(360deg);"><path d="M128.008 0C57.418 0 0 57.42 0 128c0 70.584 57.417 128 128.008 128C198.578 256 256 198.584 256 128 256 57.42 198.578 0 128.008 0z" fill="#53A3DA"/><path d="M128.572 11.253c-20.384 0-37.671 32.604-43.915 77.92-.2 1.458-.393 2.933-.564 4.418a274.635 274.635 0 0 0-1.72 22.182 268.485 268.485 0 0 0-.205 10.6c0 3.573.068 7.111.206 10.597.289 7.633.867 15.054 1.72 22.186 9.557 1.237 19.777 2.076 30.436 2.475 4.608.172 9.284.275 14.043.275 4.744 0 9.435-.104 14.029-.275 10.672-.399 20.884-1.238 30.45-2.475 1.052-.135 2.088-.282 3.136-.434 39.809-5.59 67.502-17.965 67.502-32.349-.001-63.582-51.546-115.12-115.118-115.12z" fill="#F1606D"/><path d="M176.187 94.022a58.427 58.427 0 0 0-3.713-4.847c-10.562-12.451-26.297-20.363-43.901-20.363-5.707 0-10.79 8.736-14.043 22.301-1.293 5.41-2.296 11.58-2.943 18.279a180.47 180.47 0 0 0-.784 16.981c0 5.907.275 11.616.784 16.979 5.371.51 11.071.783 16.986.783 5.907 0 11.607-.274 16.978-.783 11.807-1.12 22-3.39 29.22-6.382 7.13-2.95 11.35-6.622 11.35-10.597-.001-11.992-3.663-23.13-9.934-32.351z" fill="#FFF"/><rect x="0" y="0" width="256" height="256" fill="rgba(0, 0, 0, 0)" /></svg>