<?xml version="1.0" encoding="UTF-8"?><svg xmlns="http://www.w3.org/2000/svg" xmlns:xlink="http://www.w3.org/1999/xlink" viewBox="0 0 48 48" version="1.1"><path d="M26.762 24.547c-.614.012.117.316.918.441.222-.172.422-.347.601-.515-.5.12-1.008.12-1.52.074m3.294-.82c.363-.5.629-1.055.722-1.625-.082.406-.304.757-.511 1.128-1.145.723-.106-.43 0-.863-1.23 1.547-.168.926-.211 1.36m1.215-3.16c.074-1.102-.22-.755-.317-.337.113.063.203.782.317.336m-6.832-15.09c.328.06.707.106.656.184.355-.078.437-.148-.657-.183m.657.183l-.235.047.215-.016.02-.03m10.199 15.323c.039.993-.29 1.473-.582 2.325l-.531.265c-.434.84.043.535-.27 1.203-.676.602-2.055 1.883-2.496 2.004-.32-.011.219-.383.29-.527-.903.621-.727.933-2.11 1.312l-.043-.09c-3.418 1.61-8.164-1.574-8.102-5.925-.039.273-.105.207-.18.316-.175-2.234 1.032-4.484 3.07-5.402 1.997-.985 4.337-.578 5.766.75-.785-1.027-2.347-2.117-4.199-2.016-1.816.028-3.511 1.184-4.078 2.434-.93.586-1.039 2.258-1.441 2.562-.543 4.004 1.023 5.735 3.68 7.77.417.281.117.324.175.539a7.134 7.134 0 0 1-2.355-1.8c.355.519.734 1.019 1.222 1.41-.828-.278-1.941-2.012-2.265-2.083 1.433 2.567 5.816 4.5 8.113 3.54-1.062.038-2.41.023-3.605-.419-.5-.257-1.18-.793-1.063-.894 3.137 1.172 6.371.887 9.078-1.285.692-.54 1.446-1.45 1.664-1.465-.328.492.059.238-.195.676.687-1.11-.3-.45.71-1.914l.372.511c-.14-.918 1.145-2.035 1.012-3.488.293-.445.328.477.015 1.5.434-1.137.114-1.316.223-2.254.121.316.281.648.36.98-.282-1.093.288-1.847.433-2.484-.14-.062-.434.485-.504-.812.012-.563.156-.293.215-.434-.11-.062-.399-.496-.578-1.324.129-.192.343.508.515.535-.109-.656-.3-1.16-.312-1.664-.508-1.063-.18.14-.59-.461-.543-1.688.45-.39.512-1.156.82 1.187 1.289 3.031 1.504 3.793a15.463 15.463 0 0 0-.75-2.703c.25.105-.403-1.91.324-.575-.774-2.847-3.317-5.511-5.652-6.761.289.261.648.59.52.64-1.165-.687-.962-.742-1.126-1.039-.945-.383-1.012.035-1.637 0-1.785-.941-2.129-.844-3.77-1.437l.079.347c-1.188-.39-1.383.149-2.66.004-.078-.062.41-.218.812-.277-1.144.148-1.09-.23-2.207.043.278-.2.567-.324.86-.488-.93.058-2.227.543-1.825.101-1.52.68-4.218 1.633-5.734 3.055l-.047-.324c-.695.836-3.027 2.492-3.215 3.57l-.187.043c-.36.613-.594 1.305-.88 1.934-.476.808-.69.312-.624.437-.93 1.883-1.39 3.469-1.793 4.77.285.421.008 2.554.113 4.261-.465 8.43 5.918 16.61 12.89 18.5 1.024.367 2.544.356 3.837.39-1.524-.437-1.723-.23-3.207-.75-1.074-.503-1.309-1.081-2.067-1.737l.301.53c-1.492-.526-.867-.651-2.078-1.034l.32-.426c-.48-.031-1.28-.809-1.496-1.238l-.527.02c-.637-.782-.973-1.348-.95-1.786l-.171.305c-.192-.332-2.332-2.938-1.223-2.328-.207-.192-.48-.309-.777-.852l.226-.258c-.535-.687-.984-1.566-.949-1.86.281.384.48.454.68.52-1.352-3.347-1.43-.183-2.45-3.406l.215-.02c-.164-.245-.265-.523-.398-.785l.094-.937c-.973-1.125-.274-4.781-.133-6.785.098-.817.812-1.684 1.355-3.043l-.332-.055c.633-1.105 3.614-4.433 4.989-4.262.672-.84-.13 0-.262-.214 1.469-1.52 1.93-1.075 2.922-1.348 1.066-.633-.918.25-.41-.238 1.847-.477 1.308-1.075 3.715-1.313.253.145-.59.223-.797.41 1.535-.754 4.867-.586 7.03.418 2.513 1.172 5.333 4.64 5.446 7.903l.125.035c-.062 1.297.2 2.797-.258 4.176l.309-.66M20.07 25.39l-.086.43c.407.546.727 1.14 1.239 1.566-.371-.723-.645-1.024-1.153-1.996m.953-.04c-.214-.234-.34-.515-.48-.8.137.496.41.922.668 1.355l-.188-.554m16.856-3.665l-.09.227a11.067 11.067 0 0 1-1.066 3.41 10.786 10.786 0 0 0 1.156-3.637M24.559 5.184c.414-.153 1.02-.082 1.46-.184-.574.047-1.144.078-1.706.152l.246.032m-14.551 7.738c.094.883-.668 1.23.168.644.445-1.004-.176-.28-.168-.644m-.98 4.094c.19-.59.226-.942.3-1.286-.531.68-.242.825-.3 1.286" fill="#E91E63" id="surface1"/><metadata><rdf:RDF xmlns:rdf="http://www.w3.org/1999/02/22-rdf-syntax-ns#" xmlns:rdfs="http://www.w3.org/2000/01/rdf-schema#" xmlns:dc="http://purl.org/dc/elements/1.1/"><rdf:Description about="https://iconscout.com/legal#licenses" dc:title="debian" dc:description="debian" dc:publisher="Iconscout" dc:date="2017-12-15" dc:format="image/svg+xml" dc:language="en"><dc:creator><rdf:Bag><rdf:li>Icons8</rdf:li></rdf:Bag></dc:creator></rdf:Description></rdf:RDF></metadata></svg>