<svg width="21" height="14" viewBox="0 0 21 14" fill="none" xmlns="http://www.w3.org/2000/svg">
<path d="M13.0001 3H11.0001V5H13.0001V3ZM13.0001 0H11.0001V2H13.0001V0ZM10.0001 0H8.00006V2H10.0001V0ZM10.0001 3H8.00006V5H10.0001V3ZM18.0601 6.22C17.9101 6.2 18.2501 3.93 16.2901 4C16.2901 4 15.3301 5.24 15.7001 6.22C16.0001 7 14.0001 7 14.0001 7H2.50006C1.24006 7 0.570058 8.66 1.26006 9.65C2.62006 11.58 4.52006 14 8.05006 14C9.23006 14 8.83006 14 9.23006 14C10.8101 14 12.1301 13.62 13.1801 13.12C14.7701 12.36 15.9301 11.02 16.6801 9.49C16.9701 8.89 17.4701 8.28 18.2601 8.22C19.8301 8.1 21.0101 7.48 21.0001 6.22C21.0001 6.22 19.4101 5.64 18.0601 6.22ZM7.00006 3H5.00006V5H7.00006V3Z" fill="#00AB44"/>
</svg>
