<?xml version="1.0" encoding="UTF-8" standalone="no"?>
<svg
   xmlns:dc="http://purl.org/dc/elements/1.1/"
   xmlns:cc="http://creativecommons.org/ns#"
   xmlns:rdf="http://www.w3.org/1999/02/22-rdf-syntax-ns#"
   xmlns:svg="http://www.w3.org/2000/svg"
   xmlns="http://www.w3.org/2000/svg"
   id="svg2"
   version="1.1"
   xml:space="preserve"
   width="64.506248"
   height="53.041248"
   viewBox="0 0 64.506248 53.041248"><metadata
     id="metadata8"><rdf:RDF><cc:Work
         rdf:about=""><dc:format>image/svg+xml</dc:format><dc:type
           rdf:resource="http://purl.org/dc/dcmitype/StillImage" /><dc:title></dc:title></cc:Work></rdf:RDF></metadata><defs
     id="defs6"><clipPath
       clipPathUnits="userSpaceOnUse"
       id="clipPath36"><path
         d="m 0,42.493 180.37,0 0,-42.433 L 0,0.06 0,42.493 Z"
         id="path38" /></clipPath></defs><g
     style="fill:#343434;fill-opacity:1"
     id="g10"
     transform="matrix(1.25,0,0,-1.25,0,53.11625)"><path
       d="m 42.14,41.229 0.307,0 c 0.129,0 0.217,-0.022 0.267,-0.068 0.049,-0.046 0.074,-0.106 0.074,-0.179 0,-0.097 -0.037,-0.165 -0.109,-0.208 -0.071,-0.042 -0.183,-0.063 -0.329,-0.063 l -0.21,0 0,0.518 z m 0,-0.841 0.194,0 0.46,-0.724 0.437,0 -0.521,0.766 0,0.015 c 0.146,0.028 0.262,0.086 0.347,0.175 0.083,0.09 0.126,0.21 0.126,0.362 0,0.106 -0.023,0.196 -0.065,0.268 -0.043,0.074 -0.1,0.131 -0.171,0.177 -0.071,0.046 -0.154,0.078 -0.246,0.097 -0.092,0.02 -0.188,0.029 -0.286,0.029 l -0.651,0 0,-1.889 0.376,0 0,0.724"
       style="fill:#343434;fill-opacity:1;fill-rule:nonzero;stroke:none"
       id="path30" /><g
       style="fill:#343434;fill-opacity:1"
       id="g32"><g
         style="fill:#343434;fill-opacity:1"
         id="g34"
         clip-path="url(#clipPath36)"><path
           d="m 41.098,41.178 c 0.068,0.182 0.164,0.34 0.293,0.473 0.126,0.133 0.279,0.239 0.455,0.316 0.179,0.078 0.376,0.115 0.595,0.115 0.218,0 0.415,-0.037 0.595,-0.115 0.178,-0.077 0.329,-0.183 0.456,-0.316 0.127,-0.133 0.224,-0.291 0.292,-0.473 0.07,-0.182 0.105,-0.375 0.105,-0.58 0,-0.206 -0.035,-0.399 -0.105,-0.582 -0.068,-0.182 -0.165,-0.339 -0.292,-0.472 -0.127,-0.132 -0.278,-0.237 -0.456,-0.315 -0.18,-0.079 -0.377,-0.116 -0.595,-0.116 -0.219,0 -0.416,0.037 -0.595,0.116 -0.176,0.078 -0.329,0.183 -0.455,0.315 -0.129,0.133 -0.225,0.29 -0.293,0.472 -0.071,0.183 -0.105,0.376 -0.105,0.582 0,0.205 0.034,0.398 0.105,0.58 z m 0.028,-1.9 c 0.167,-0.164 0.362,-0.292 0.588,-0.385 0.226,-0.092 0.468,-0.138 0.727,-0.138 0.259,0 0.502,0.046 0.728,0.138 0.225,0.093 0.419,0.221 0.585,0.385 0.167,0.164 0.296,0.356 0.391,0.582 0.097,0.225 0.144,0.47 0.144,0.738 0,0.266 -0.047,0.511 -0.144,0.736 -0.095,0.225 -0.224,0.42 -0.391,0.583 -0.166,0.165 -0.36,0.292 -0.585,0.385 -0.226,0.092 -0.469,0.138 -0.728,0.138 -0.259,0 -0.501,-0.046 -0.727,-0.138 -0.226,-0.093 -0.421,-0.22 -0.588,-0.385 -0.165,-0.163 -0.295,-0.358 -0.389,-0.583 -0.098,-0.225 -0.143,-0.47 -0.143,-0.736 0,-0.268 0.045,-0.513 0.143,-0.738 0.094,-0.226 0.224,-0.418 0.389,-0.582"
           style="fill:#343434;fill-opacity:1;fill-rule:nonzero;stroke:none"
           id="path40" /><path
           d="M 37.119,12.7 C 36.627,11.614 35.935,10.741 35.118,10.088 33.863,9.082 32.326,8.593 30.8,8.593 c -1.942,0 -3.877,0.793 -5.21,2.332 -0.49,0.563 -0.791,1.193 -0.945,1.838 -0.088,0.367 -0.128,0.742 -0.128,1.117 0.004,1.837 0.92,3.677 1.817,5.079 0.452,0.702 0.899,1.294 1.237,1.707 l 0.448,-0.547 c 0.022,-0.029 0.047,-0.062 0.078,-0.099 0.114,-0.137 0.284,-0.333 0.506,-0.572 0.441,-0.476 1.091,-1.115 1.915,-1.756 1.647,-1.284 3.978,-2.574 6.722,-2.643 0.025,0 0.05,-0.007 0.075,-0.009 0.043,0.009 0.09,0.009 0.138,0 0.186,-0.038 0.311,-0.217 0.272,-0.407 -0.134,-0.708 -0.343,-1.349 -0.606,-1.933 z m 14.448,15.104 c 0,0 0,0 0,0.001 -0.381,-0.536 -0.96,-1.237 -1.766,-1.948 -1.616,-1.428 -4.163,-2.888 -7.846,-3.086 L 40.87,20.78 c -0.065,-0.118 -0.185,-0.19 -0.316,-0.193 -0.133,-0.003 -0.256,0.066 -0.326,0.177 l -1.249,2.051 c -0.591,-0.109 -2.116,-0.361 -3.887,-0.361 -2.958,0.064 -3.886,0.519 -4.865,1.143 l 3.308,4.456 -7.094,1.643 8.894,1.709 c 2.597,5.24 3.403,9.722 3.601,11.088 -9.972,-1.104 -17.42,-3.58 -22.209,-5.657 l -0.385,-0.17 c -0.025,-0.01 -0.049,-0.021 -0.073,-0.031 l -0.535,0.518 c -0.13,0.109 -0.288,0.237 -0.472,0.38 -0.609,0.473 -1.508,1.105 -2.664,1.737 -2.311,1.266 -5.638,2.529 -9.712,2.529 -0.621,0 -1.267,-0.02 -1.923,-0.092 -1.056,-0.066 -0.545,-0.329 -0.417,-0.436 0.485,-0.398 1.17,-1.234 1.62,-2.392 0.454,-1.163 0.761,-2.73 0.761,-4.846 0,-0.591 -0.026,-1.245 -0.077,-1.926 C 2.43,31.326 2.04,30.512 1.69,29.671 0.668,27.21 0,24.518 0,21.747 0,16.821 1.936,12.333 4.689,8.686 L 5.062,8.123 2.149,2.317 C 2.119,2.258 2.138,2.182 2.194,2.145 2.217,2.129 2.244,2.123 2.27,2.123 c 0.037,0 0.074,0.015 0.1,0.044 L 6.921,6.173 7.454,5.656 C 11.324,2.142 16.462,0 22.101,0 31.812,0 40.037,6.35 42.855,15.12 l 0.62,0.266 c 0.13,0.046 0.322,0.118 0.559,0.219 0.477,0.2 1.139,0.519 1.875,0.974 1.471,0.911 3.23,2.38 4.398,4.604 0.777,1.481 1.298,3.302 1.298,5.542 0,0.351 -0.013,0.709 -0.038,1.079"
           style="fill:#343434;fill-opacity:1;fill-rule:nonzero;stroke:none"
           id="path42" /></g></g></g></svg>