<?xml version="1.0" encoding="UTF-8"?><svg xmlns="http://www.w3.org/2000/svg" xmlns:xlink="http://www.w3.org/1999/xlink" viewBox="0 0 48 48" version="1.1"><g id="surface1"><path d="M8.012 14.527A18.538 18.538 0 0 1 13.5 9.02c-.078-.04-.152-.075-.234-.114C10.59 7.488 7.574 6.324 6.449 7.45c-1.125 1.121.13 4.356 1.531 7.02.004.015.02.043.032.058z" fill="#FF3D00"/><path d="M40.137 7.602c1.828 1.828-3.242 9.867-4.102 10.722-.86.856-3.035.07-4.863-1.758-1.832-1.828-2.617-4.007-1.762-4.867.86-.855 8.895-5.93 10.727-4.097z" fill="#FF3D00"/><path d="M37.367 19.664c-.406.406-1.14.895-2.3.895-1.61 0-3.567-.993-5.231-2.657-2.691-2.687-3.434-5.863-1.758-7.543.207-.207.8-.656 1.621-1.195a16.42 16.42 0 0 0-6.21-1.219c-9.13 0-16.528 7.403-16.528 16.528C6.96 33.602 14.359 41 23.488 41c9.13 0 16.528-7.398 16.528-16.527 0-2.332-.489-4.543-1.36-6.559-.523.816-.996 1.457-1.289 1.75z" fill="#FF3D00"/><path d="M38.93 7.203c.511 0 .93.121 1.207.399 1.828 1.828-3.242 9.867-4.102 10.722-.234.235-.57.348-.969.348-1.058 0-2.57-.781-3.898-2.106-1.828-1.828-2.613-4.007-1.762-4.867.735-.726 6.637-4.496 9.524-4.496m0-2c-3.727 0-10.13 4.281-10.93 5.074-1.723 1.735-.98 4.97 1.758 7.703 1.687 1.684 3.672 2.692 5.308 2.692 1.196 0 1.957-.508 2.383-.93.684-.683 2.297-3.195 3.442-5.539 1.222-2.504 2.62-6.055.66-8.02-.45-.445-1.266-.98-2.621-.98z" fill="#ECEFF1"/><path d="M23.488 7.945c2.2 0 4.293.438 6.211 1.22-.82.538-1.414.987-1.62 1.194-1.677 1.68-.938 4.856 1.757 7.543 1.664 1.664 3.621 2.657 5.23 2.657 1.16 0 1.895-.489 2.301-.895.293-.293.766-.937 1.29-1.75a16.473 16.473 0 0 1 1.359 6.559C40.016 33.602 32.617 41 23.488 41 14.36 41 6.961 33.602 6.961 24.473c0-9.125 7.398-16.528 16.527-16.528m0-2c-10.215 0-18.527 8.313-18.527 18.528C4.96 34.688 13.273 43 23.488 43c10.215 0 18.528-8.313 18.528-18.527 0-2.54-.512-5.012-1.524-7.352l-1.484-3.441-2.031 3.152c-.567.883-.918 1.313-1.02 1.414-.21.211-.504.313-.89.313-.805 0-2.286-.543-3.82-2.075-1.934-1.93-2.466-3.996-1.75-4.714.058-.055.468-.383 1.308-.934l3.172-2.094-3.52-1.43a18.398 18.398 0 0 0-6.969-1.367z" fill="#ECEFF1"/><path d="M6.262 15.496l.543.969c.34-.707.718-1.395 1.144-2.055-1.386-2.652-2.617-5.848-1.504-6.96.32-.313.785-.45 1.352-.45 1.445 0 3.543.887 5.469 1.906.043.02.082.04.12.059.665-.434 1.36-.817 2.079-1.164l-1.024-.543a3.774 3.774 0 0 0-.28-.14C11.46 5.69 9.374 5 7.796 5c-1.426 0-2.29.563-2.762 1.035-1.676 1.672-1.305 4.649 1.176 9.363a.768.768 0 0 0 .05.098z" fill="#ECEFF1"/></g><metadata><rdf:RDF xmlns:rdf="http://www.w3.org/1999/02/22-rdf-syntax-ns#" xmlns:rdfs="http://www.w3.org/2000/01/rdf-schema#" xmlns:dc="http://purl.org/dc/elements/1.1/"><rdf:Description about="https://iconscout.com/legal#licenses" dc:title="freebsd" dc:description="freebsd" dc:publisher="Iconscout" dc:date="2017-12-15" dc:format="image/svg+xml" dc:language="en"><dc:creator><rdf:Bag><rdf:li>Icons8</rdf:li></rdf:Bag></dc:creator></rdf:Description></rdf:RDF></metadata></svg>