<?xml version="1.0" encoding="UTF-8" standalone="no"?>
<!-- Created with Inkscape (http://www.inkscape.org/) -->

<svg
   xmlns:dc="http://purl.org/dc/elements/1.1/"
   xmlns:cc="http://creativecommons.org/ns#"
   xmlns:rdf="http://www.w3.org/1999/02/22-rdf-syntax-ns#"
   xmlns:svg="http://www.w3.org/2000/svg"
   xmlns="http://www.w3.org/2000/svg"
   xmlns:xlink="http://www.w3.org/1999/xlink"
   xmlns:sodipodi="http://sodipodi.sourceforge.net/DTD/sodipodi-0.dtd"
   xmlns:inkscape="http://www.inkscape.org/namespaces/inkscape"
   id="svg1"
   sodipodi:version="0.32"
   inkscape:version="0.48.1 r9760"
   width="493.26517"
   height="519.30951"
   sodipodi:docname="gentoo-logo-peach-plain.svg"
   version="1.1"
   inkscape:export-filename="gentoo-logo-peach-plain.png"
   inkscape:export-xdpi="27.782827"
   inkscape:export-ydpi="27.782827">
  <title
     id="title3153">Gentoo Logo Vector</title>
  <defs
     id="defs3">
    <linearGradient
       id="linearGradient4036">
      <stop
         style="stop-color:#7b7bdf;stop-opacity:1;"
         offset="0"
         id="stop4038" />
      <stop
         style="stop-color:#a6a6e9;stop-opacity:1;"
         offset="1"
         id="stop4040" />
    </linearGradient>
    <linearGradient
       id="linearGradient3933">
      <stop
         id="stop3935"
         offset="0.0000000"
         style="stop-color:#ffffff;stop-opacity:1.0000000;" />
      <stop
         style="stop-color:#ffffff;stop-opacity:1;"
         offset="0.48660609"
         id="stop3937" />
      <stop
         style="stop-color:#d9d9f6;stop-opacity:1;"
         offset="0.59311914"
         id="stop3939" />
      <stop
         id="stop3941"
         offset="1"
         style="stop-color:#adadeb;stop-opacity:1;" />
    </linearGradient>
    <linearGradient
       id="linearGradient3915">
      <stop
         id="stop3917"
         offset="0.0000000"
         style="stop-color:#ffffff;stop-opacity:1.0000000;" />
      <stop
         id="stop3919"
         offset="1"
         style="stop-color:#ffffff;stop-opacity:0;" />
    </linearGradient>
    <linearGradient
       id="linearGradient4049">
      <stop
         style="stop-color:#000000;stop-opacity:0.45918366;"
         offset="0.0000000"
         id="stop4050" />
      <stop
         style="stop-color:#9999e6;stop-opacity:1.0000000;"
         offset="1.0000000"
         id="stop4051" />
    </linearGradient>
    <linearGradient
       id="linearGradient2797">
      <stop
         style="stop-color:#000000;stop-opacity:1.0000000;"
         offset="0.0000000"
         id="stop2798" />
      <stop
         style="stop-color:#9999e6;stop-opacity:1.0000000;"
         offset="1.0000000"
         id="stop2799" />
    </linearGradient>
    <linearGradient
       id="linearGradient2791">
      <stop
         style="stop-color:#ffffff;stop-opacity:1.0000000;"
         offset="0.0000000"
         id="stop2792" />
      <stop
         id="stop3931"
         offset="0.30357143"
         style="stop-color:#ffffff;stop-opacity:1;" />
      <stop
         id="stop3921"
         offset="0.60714287"
         style="stop-color:#e6e6f9;stop-opacity:1;" />
      <stop
         style="stop-color:#9999e6;stop-opacity:1.0000000;"
         offset="1.0000000"
         id="stop2793" />
    </linearGradient>
    <linearGradient
       id="linearGradient2791-7">
      <stop
         id="stop2792-2"
         offset="0.0000000"
         style="stop-color:#ffffff;stop-opacity:1.0000000;" />
      <stop
         id="stop2793-7"
         offset="1"
         style="stop-color:#c0c0c0;stop-opacity:1;" />
    </linearGradient>
    <linearGradient
       id="linearGradient2797-8">
      <stop
         id="stop2798-7"
         offset="0.0000000"
         style="stop-color:#000000;stop-opacity:1.0000000;" />
      <stop
         id="stop2799-1"
         offset="1"
         style="stop-color:#c0c0c0;stop-opacity:1;" />
    </linearGradient>
    <linearGradient
       id="linearGradient4049-5">
      <stop
         id="stop4050-0"
         offset="0.0000000"
         style="stop-color:#000000;stop-opacity:0.45918366;" />
      <stop
         id="stop4051-4"
         offset="1"
         style="stop-color:#c0c0c0;stop-opacity:1;" />
    </linearGradient>
    <linearGradient
       id="linearGradient2791-5">
      <stop
         id="stop2792-6"
         offset="0.0000000"
         style="stop-color:#ffffff;stop-opacity:1.0000000;" />
      <stop
         id="stop2793-3"
         offset="1"
         style="stop-color:#c0c0c0;stop-opacity:1;" />
    </linearGradient>
    <linearGradient
       id="linearGradient2797-6">
      <stop
         id="stop2798-73"
         offset="0.0000000"
         style="stop-color:#000000;stop-opacity:1.0000000;" />
      <stop
         id="stop2799-6"
         offset="1"
         style="stop-color:#c0c0c0;stop-opacity:1;" />
    </linearGradient>
    <linearGradient
       id="linearGradient4049-59">
      <stop
         id="stop4050-7"
         offset="0.0000000"
         style="stop-color:#000000;stop-opacity:0.45918366;" />
      <stop
         id="stop4051-7"
         offset="1"
         style="stop-color:#c0c0c0;stop-opacity:1;" />
    </linearGradient>
    <radialGradient
       inkscape:collect="always"
       xlink:href="#linearGradient3933"
       id="radialGradient3135"
       cx="240.19441"
       cy="350.79166"
       fx="240.19441"
       fy="350.79166"
       r="303.34283"
       gradientTransform="matrix(0.69099478,1.0116748,-0.81542574,0.5569526,374.42974,-116.469)"
       gradientUnits="userSpaceOnUse" />
    <radialGradient
       inkscape:collect="always"
       xlink:href="#linearGradient2791"
       id="radialGradient3137"
       cx="402.91514"
       cy="273.53453"
       fx="402.91515"
       fy="273.53453"
       r="77.791385"
       gradientTransform="scale(1.0948953,0.91332936)"
       gradientUnits="userSpaceOnUse" />
    <radialGradient
       inkscape:collect="always"
       xlink:href="#linearGradient2797"
       id="radialGradient3139"
       cx="363.31471"
       cy="343.67726"
       fx="362.55895"
       fy="342.73846"
       r="35.682201"
       gradientTransform="scale(1.1116231,0.89958546)"
       gradientUnits="userSpaceOnUse" />
    <linearGradient
       inkscape:collect="always"
       xlink:href="#linearGradient4049"
       id="linearGradient3141"
       x1="192.5567"
       y1="404.65598"
       x2="234.90553"
       y2="331.94254"
       gradientTransform="scale(1.083205,0.9231863)"
       gradientUnits="userSpaceOnUse" />
    <linearGradient
       inkscape:collect="always"
       xlink:href="#linearGradient4049"
       id="linearGradient3143"
       x1="188.64751"
       y1="785.09646"
       x2="450.44758"
       y2="519.51469"
       gradientTransform="scale(1.3482945,0.74167773)"
       gradientUnits="userSpaceOnUse" />
    <linearGradient
       inkscape:collect="always"
       xlink:href="#linearGradient3915"
       id="linearGradient3145"
       x1="508.15967"
       y1="428.62717"
       x2="271.03165"
       y2="659.76666"
       gradientTransform="scale(1.2005549,0.83294815)"
       gradientUnits="userSpaceOnUse" />
    <filter
       inkscape:collect="always"
       id="filter3951">
      <feGaussianBlur
         inkscape:collect="always"
         stdDeviation="1.3094535"
         id="feGaussianBlur3953" />
    </filter>
    <linearGradient
       inkscape:collect="always"
       xlink:href="#linearGradient4036"
       id="linearGradient4042"
       x1="354.16965"
       y1="83.331688"
       x2="314.37476"
       y2="322.3338"
       gradientUnits="userSpaceOnUse" />
    <radialGradient
       inkscape:collect="always"
       xlink:href="#linearGradient2797"
       id="radialGradient4049"
       gradientUnits="userSpaceOnUse"
       gradientTransform="matrix(1.5036118,-0.05644673,0.04112021,1.0953482,-156.89173,-46.745246)"
       cx="364.28299"
       cy="340.96454"
       fx="364.28299"
       fy="340.96454"
       r="35.682201" />
    <radialGradient
       inkscape:collect="always"
       xlink:href="#linearGradient2797"
       id="radialGradient3832"
       gradientUnits="userSpaceOnUse"
       gradientTransform="matrix(1.5036118,-0.05644673,0.04112021,1.0953482,-329.6866,-176.79092)"
       cx="364.28299"
       cy="340.96454"
       fx="364.28299"
       fy="340.96454"
       r="35.682201" />
    <radialGradient
       inkscape:collect="always"
       xlink:href="#linearGradient2791"
       id="radialGradient3840"
       gradientUnits="userSpaceOnUse"
       gradientTransform="matrix(1.0948953,0,0,0.91332936,-172.79487,-130.04567)"
       cx="402.91514"
       cy="273.53453"
       fx="402.91515"
       fy="273.53453"
       r="77.791385" />
    <radialGradient
       inkscape:collect="always"
       xlink:href="#linearGradient3933"
       id="radialGradient3845"
       gradientUnits="userSpaceOnUse"
       gradientTransform="matrix(0.69099478,1.0116748,-0.81542574,0.5569526,201.63487,-246.51467)"
       cx="240.19441"
       cy="350.79166"
       fx="240.19441"
       fy="350.79166"
       r="303.34283" />
    <linearGradient
       inkscape:collect="always"
       xlink:href="#linearGradient4036"
       id="linearGradient3848"
       gradientUnits="userSpaceOnUse"
       x1="354.16965"
       y1="83.331688"
       x2="314.37476"
       y2="322.3338"
       gradientTransform="translate(-172.79487,-130.04567)" />
  </defs>
  <sodipodi:namedview
     id="base"
     pagecolor="#ffffff"
     bordercolor="#666666"
     borderopacity="1.0"
     inkscape:pageopacity="0"
     inkscape:pageshadow="2"
     inkscape:zoom="1"
     inkscape:cx="218.97278"
     inkscape:cy="189.06551"
     inkscape:window-width="1280"
     inkscape:window-height="968"
     inkscape:window-x="0"
     inkscape:window-y="0"
     showgrid="false"
     fit-margin-top="10"
     fit-margin-left="10"
     fit-margin-right="10"
     fit-margin-bottom="10"
     inkscape:window-maximized="1"
     inkscape:current-layer="layer1" />
  <metadata
     id="metadata4">
    <rdf:RDF>
      <cc:Work
         rdf:about="">
        <dc:format>image/svg+xml</dc:format>
        <dc:type
           rdf:resource="http://purl.org/dc/dcmitype/StillImage" />
        <dc:title>Gentoo Logo Vector</dc:title>
        <dc:creator>
          <cc:Agent>
            <dc:title>Matteo 'Peach' Pescarin</dc:title>
          </cc:Agent>
        </dc:creator>
        <dc:description />
        <cc:license
           rdf:resource="http://creativecommons.org/licenses/by-sa/2.5/" />
        <dc:contributor>
          <cc:Agent>
            <dc:title>Daniel Robbins as creator of the original logo</dc:title>
          </cc:Agent>
        </dc:contributor>
      </cc:Work>
      <cc:License
         rdf:about="http://creativecommons.org/licenses/by-sa/2.5/">
        <cc:permits
           rdf:resource="http://creativecommons.org/ns#Reproduction" />
        <cc:permits
           rdf:resource="http://creativecommons.org/ns#Distribution" />
        <cc:requires
           rdf:resource="http://creativecommons.org/ns#Notice" />
        <cc:requires
           rdf:resource="http://creativecommons.org/ns#Attribution" />
        <cc:permits
           rdf:resource="http://creativecommons.org/ns#DerivativeWorks" />
        <cc:requires
           rdf:resource="http://creativecommons.org/ns#ShareAlike" />
      </cc:License>
    </rdf:RDF>
  </metadata>
  <g
     inkscape:groupmode="layer"
     id="layer1"
     inkscape:label="Logo"
     transform="translate(-151.98946,-138.96728)">
    <g
       id="g955"
       transform="translate(-20.80541,8.921608)">
      <path
         style="fill:url(#linearGradient3848);fill-opacity:1;fill-rule:evenodd;stroke:none"
         d="M 200.875 16.125 C 164.49064 16.232807 135.64208 27.308416 121.84375 34.90625 C 81.2986 57.23184 51.08503 91.48157 41.0625 112.625 C 20.46824 156.01022 22.35038 177.03741 44.90625 204.3125 C 62.02603 225.01415 124.53125 257.59375 124.53125 257.59375 C 124.53125 257.59375 70.71259 304.82327 49.84375 324.59375 C 28.97492 344.36423 12.51639 372.90936 23.5 416.84375 C 34.48359 460.77813 68.53125 476.15625 68.53125 476.15625 C 68.53125 476.15625 113.00467 502.52611 178.90625 473.96875 C 244.80784 445.4114 293.6875 414.65625 293.6875 414.65625 C 293.6875 414.65625 390.88937 348.22282 417.25 317.46875 C 443.61064 286.71467 479.31914 256.48868 462.84375 207.0625 C 446.36835 157.6363 372.78125 91.75 372.78125 91.75 C 372.78125 91.75 299.42037 35.65084 246.59375 21.90625 C 230.49542 17.717734 215.11236 16.082815 200.875 16.125 z M 227.75 167.625 C 230.23438 167.625 232.75 167.8125 235 168.3125 C 241.29066 169.71042 250.91113 174.96314 256.1875 178.03125 C 253.93916 178.91465 251.26955 179.61051 248.09375 180.15625 C 239.90769 181.56297 226.21067 176.29085 215.46875 168.8125 C 218.23073 168.31378 222.92771 167.625 227.75 167.625 z "
         transform="translate(172.79487,130.04567)"
         id="path919" />
      <path
         style="fill:url(#radialGradient3845);fill-opacity:1;fill-rule:evenodd;stroke:none"
         d="M 204.03125 25.25 C 203.1611 25.250262 202.30417 25.255507 201.4375 25.28125 C 145.97033 26.92879 109.71875 53.84375 109.71875 53.84375 C 98.18596 63.72898 58.08606 93.10606 48.75 118.09375 C 39.34495 143.2661 43.81456 163.69468 61.9375 176.875 C 80.06044 190.05533 137.71875 214.21875 137.71875 214.21875 L 166.28125 228.5 C 166.28125 228.5 145.40469 253.21621 123.4375 272.4375 C 101.47031 291.6588 92.99355 300.39292 70.28125 323.59375 C 57.10617 337.05223 45.82382 351.07832 42.6875 377.34375 C 40.40211 396.48299 44.99731 414.79564 57.71875 425.5625 C 70.44019 436.32936 87.94463 446.54592 122.90625 439.84375 C 163.63052 432.03688 194.4375 415.125 194.4375 415.125 C 194.4375 415.125 287.33713 368.14342 337.3125 330.25 C 387.28788 292.35659 437.9375 235.625 437.9375 235.625 C 437.9375 235.625 455.47288 224.09337 436.375 189.40625 C 416.83178 153.91027 359.42672 103.43492 339.65625 89.15625 C 320.19467 75.100655 258.85099 25.233484 204.03125 25.25 z M 227.75 167.625 C 230.23438 167.625 232.75 167.8125 235 168.3125 C 241.29066 169.71042 250.91113 174.96314 256.1875 178.03125 C 253.93916 178.91465 251.26955 179.61051 248.09375 180.15625 C 239.90769 181.56297 226.21067 176.29085 215.46875 168.8125 C 218.23073 168.31378 222.92771 167.625 227.75 167.625 z "
         transform="translate(172.79487,130.04567)"
         id="path2165" />
      <path
         style="fill:url(#radialGradient3840);fill-opacity:0.75000000000000000;fill-rule:evenodd;stroke:none"
         d="M 215.71875 106.5625 C 195.39909 107.11168 176.16957 126.88629 176.71875 142.8125 C 177.26793 158.73872 197.59375 175.78125 197.59375 175.78125 C 197.59375 175.78125 228.88015 202.66547 257.4375 200.46875 C 285.99486 198.27203 288.1875 180.71875 288.1875 180.71875 C 288.1875 180.71875 294.77459 157.64087 277.75 138.96875 C 260.72543 120.29665 236.0384 106.01332 215.71875 106.5625 z M 227.75 167.625 C 230.23438 167.625 232.75 167.8125 235 168.3125 C 241.29066 169.71042 250.91113 174.96314 256.1875 178.03125 C 253.93916 178.91465 251.26955 179.61051 248.09375 180.15625 C 239.90769 181.56297 226.21067 176.29085 215.46875 168.8125 C 218.23073 168.31378 222.92771 167.625 227.75 167.625 z "
         transform="translate(172.79487,130.04567)"
         id="path2166" />
      <path
         style="fill:url(#radialGradient3832);fill-opacity:0.75000000000000000;fill-rule:evenodd;stroke:none"
         d="M 224.5 126.34375 C 206.37706 126.61833 198.12563 134.78155 199.78125 149.40625 C 200.50368 155.78774 207.0802 162.97253 215.46875 168.8125 C 218.23073 168.31378 222.92771 167.625 227.75 167.625 C 230.23438 167.625 232.75 167.8125 235 168.3125 C 241.28265 169.70864 250.87556 174.9615 256.15625 178.03125 C 256.16298 178.03516 256.18078 178.02734 256.1875 178.03125 C 264.63815 174.71089 266.96361 168.83747 266.21875 159.28125 C 265.31828 147.72848 242.07375 126.06916 224.5 126.34375 z M 232.75 177.8125 C 234.03033 178.27204 235.29356 178.68624 236.53125 179.03125 C 235.2875 178.68549 234.03694 178.27413 232.75 177.8125 z M 255.9375 178.125 C 255.55884 178.26963 255.1525 178.39673 254.75 178.53125 C 255.15474 178.39606 255.55731 178.27003 255.9375 178.125 z M 248.09375 180.15625 C 247.58212 180.24417 247.05262 180.30692 246.5 180.34375 C 247.05373 180.307 247.58124 180.24432 248.09375 180.15625 z "
         transform="translate(172.79487,130.04567)"
         id="path2167" />
      <path
         style="fill:url(#linearGradient3141);fill-opacity:0.75;fill-rule:evenodd;stroke:none"
         d="m 207.81825,281.09986 c 0,0 3.29507,17.57377 25.81146,33.49998 22.51638,15.92622 64.22753,31.93931 86.13869,44.64151 4.19889,2.43415 4.91042,6.04898 -2.97209,13.06009 -7.55417,6.71907 -12.48494,10.97187 -12.48494,10.97187 0,0 -63.08933,-34.93175 -79.84094,-50.68249 -27.07688,-25.45908 -16.65218,-51.49096 -16.65218,-51.49096 z"
         id="path2168"
         sodipodi:nodetypes="ccsscsc"
         inkscape:connector-curvature="0" />
      <path
         style="fill:url(#linearGradient3143);fill-opacity:0.75;fill-rule:evenodd;stroke:none"
         d="m 202.28984,543.29529 c 0,0 20.58737,37.55172 69.23327,37.65681 39.23215,0.0847 76.55506,-11.62851 135.09824,-41.1885 82.88906,-41.85287 146.58187,-92.16386 178.4343,-120.17204 31.85243,-28.00817 49.18028,-50.48357 49.18028,-50.48357 0,0 -18.37703,42.6967 -44.73767,67.95898 -26.36063,25.26227 -91.71304,82.92616 -154.86873,117.52449 -63.15569,34.59834 -106.15746,58.39556 -150.29852,56.23083 -41.87578,-2.05364 -61.6849,-26.57512 -70.47178,-38.10789 -8.78687,-11.53278 -11.56939,-29.41911 -11.56939,-29.41911 z"
         id="path2169"
         sodipodi:nodetypes="cssccccscc"
         inkscape:connector-curvature="0" />
      <path
         style="fill:url(#linearGradient3145);fill-opacity:1;fill-rule:evenodd;stroke:none;filter:url(#filter3951)"
         d="m 315.4575,562.82917 c 0,0 38.44259,-8.23772 111.48351,-48.32784 73.04093,-40.09014 103.48277,-66.84963 125.41795,-85.02452 21.93518,-18.17489 54.25353,-45.05573 64.68794,-57.68687 10.43442,-12.63113 7.49577,-21.39018 3.04751,-23.77266 -3.4232,-1.83346 -13.11663,5.8693 -18.59672,11.93117 -5.48009,6.06187 -46.59776,44.16773 -69.66332,63.9382 -23.06556,19.77047 -87.86877,71.39338 -126.86055,93.90976 -38.99177,22.51637 -89.51632,45.03276 -89.51632,45.03276 z"
         id="path3421"
         sodipodi:nodetypes="cczcszccc"
         inkscape:connector-curvature="0" />
    </g>
  </g>
</svg>
