<svg width="17" height="20" viewBox="0 0 17 20" fill="none" xmlns="http://www.w3.org/2000/svg">
<path d="M7.54001 6.43C8.07001 6.43 9.12001 5.76 9.24001 5.68C9.31001 5.63 9.33001 5.54 9.29001 5.47C9.24001 5.4 9.15001 5.38 9.08001 5.42C8.78001 5.62 7.92001 6.12 7.54001 6.12C7.12001 6.12 6.85001 5.97 6.55001 5.56C6.50001 5.49 6.40001 5.48 6.34001 5.53C6.27001 5.58 6.26001 5.68 6.31001 5.75C6.66001 6.23 7.02001 6.43 7.54001 6.43ZM15.97 16.7C15.89 16.45 15.66 16.2 15.44 15.96C15.32 15.83 15.19 15.69 15.13 15.59C15.08 15.51 15.08 15.27 15.08 15.09C15.08 14.79 15.08 14.48 14.93 14.24C14.8 14.04 14.67 13.9 14.54 13.8C14.57 13.66 14.58 13.52 14.58 13.38C14.58 11.2 13.47 9.34 12.76 8.3C12.05 7.26 11.24 6.23 11.24 5.5V3.01C11.24 2.08 10.73 0 8.41001 0C7.09001 0 5.58001 0.62 5.58001 2.28C5.58001 3.73 5.58001 5.6 5.58001 5.6C5.58001 5.6 5.58001 6.43 4.97001 7.26C4.39001 8.05 1.80001 11 2.25001 13.33C2.07001 13.47 1.90001 13.68 1.77001 13.96C1.61001 14.29 1.31001 14.5 1.23001 14.51C1.00001 14.51 0.40001 14.51 0.23001 15.03C0.15001 15.27 0.22001 15.54 0.27001 15.77C0.30001 15.91 0.35001 16.1 0.33001 16.17C0.22001 16.51 0.0100098 17.15 0.0100098 17.62C0.0100098 18.23 0.47001 18.66 1.12001 18.66C1.59001 18.66 2.65001 18.86 3.09001 19.13C3.51001 19.39 4.27001 19.62 4.81001 19.62C4.93001 19.62 5.04001 19.61 5.14001 19.58C5.58001 19.47 6.03001 19.11 6.20001 18.65C7.40001 18.61 7.47001 18.45 8.00001 18.45C8.50001 18.45 9.28001 18.59 9.93001 18.64C9.94001 18.67 9.94001 18.71 9.95001 18.74C10.08 19.24 10.33 19.62 10.69 19.82C10.9 19.94 11.13 20 11.39 20C11.59 20 11.8 19.96 12.03 19.89C12.83 19.64 13.14 19.26 13.35 19.01C13.42 18.92 13.48 18.85 13.53 18.82C13.57 18.79 13.61 18.76 13.67 18.73C13.98 18.51 14.56 18.11 14.86 18.04C15.26 17.94 15.73 17.57 15.92 17.22C16.03 16.99 16.01 16.81 15.97 16.7ZM8.86001 2.8C9.36001 2.78 9.79001 3.33 9.81001 4.01C9.82001 4.35 9.73001 4.67 9.57001 4.9C9.47001 4.81 9.35001 4.72 9.22001 4.64C9.23001 4.56 9.23001 4.49 9.23001 4.4C9.21001 3.92 8.99001 3.53 8.73001 3.54C8.51001 3.55 8.34001 3.83 8.30001 4.21C8.19001 4.18 8.09001 4.15 7.99001 4.13C7.99001 4.11 7.99001 4.09 7.99001 4.08C7.97001 3.39 8.36001 2.82 8.86001 2.8ZM9.66001 5.6C9.66001 6.09 8.14001 6.9 7.59001 6.9C7.06001 6.9 6.11001 6.23 6.02001 5.68C6.00001 5.56 6.10001 5.41 6.18001 5.31C6.57001 4.84 7.45001 4.41 7.69001 4.41C8.37001 4.41 9.66001 5.12 9.66001 5.6ZM6.58001 2.9C6.97001 2.9 7.29001 3.43 7.29001 4.09C7.29001 4.12 7.29001 4.16 7.29001 4.19C7.16001 4.24 7.03001 4.3 6.89001 4.38C6.89001 4.35 6.89001 4.32 6.89001 4.3C6.89001 3.93 6.73001 3.63 6.54001 3.63C6.35001 3.63 6.19001 3.93 6.19001 4.3C6.19001 4.49 6.23001 4.66 6.30001 4.78C6.23001 4.84 6.17001 4.89 6.11001 4.95C5.98001 4.73 5.89001 4.43 5.89001 4.09C5.87001 3.44 6.19001 2.9 6.58001 2.9ZM4.99001 18.98C4.69001 19.06 3.86001 18.89 3.40001 18.6C2.84001 18.26 1.68001 18.04 1.12001 18.04C0.80001 18.04 0.61001 17.88 0.61001 17.63C0.61001 17.27 0.80001 16.67 0.90001 16.38C0.98001 16.14 0.91001 15.87 0.86001 15.64C0.83001 15.5 0.78001 15.31 0.80001 15.24C0.83001 15.14 1.12001 15.14 1.22001 15.14C1.57001 15.14 2.06001 14.73 2.30001 14.24C2.50001 13.83 2.69001 13.75 2.82001 13.75C2.87001 13.75 2.92001 13.76 2.94001 13.77C3.38001 13.92 3.86001 14.8 3.96001 15.21C4.08001 15.71 4.64001 16.39 5.08001 16.73C5.38001 16.96 5.67001 17.78 5.67001 18.24C5.67001 18.61 5.26001 18.91 4.99001 18.98ZM10.43 16C10.41 16.08 10.37 16.21 10.32 16.37C10.23 16.66 10.14 16.95 10.07 17.24C9.60001 17.57 8.98001 17.78 7.90001 17.84C7.06001 17.89 6.48001 17.6 6.10001 17.29C5.99001 16.98 5.85001 16.68 5.66001 16.45C5.76001 16.38 5.88001 16.23 5.98001 15.87C6.18001 15.14 4.87001 14.31 4.26001 13.8C3.65001 13.28 3.96001 11.52 4.26001 10.79C4.56001 10.06 5.47001 8.41 5.78001 7.78C6.08001 7.16 6.08001 6.64 6.08001 6.33C6.08001 6.33 6.79001 7.26 7.60001 7.26C8.41001 7.26 9.42001 6.43 9.83001 6.12C9.83001 6.12 11.15 9.44 11.75 11.1C11.85 11.36 11.91 11.65 11.94 11.96C12.58 11.94 13.29 12.16 13.57 12.45C13.97 12.86 14.18 13.8 13.97 13.8C13.77 13.8 13.71 13.47 13.57 13.18C13.37 12.77 12.49 12.47 11.98 12.55V12.56C11.84 12.58 11.73 12.64 11.65 12.76C11.57 12.89 11.52 13.11 11.5 13.34C11.08 13.48 10.85 13.72 10.65 14.44C10.52 14.9 10.51 15.25 10.49 15.53C10.47 15.7 10.47 15.86 10.43 16ZM14.7 17.43C14.33 17.53 13.81 17.87 13.32 18.21C13.27 18.24 13.23 18.28 13.19 18.3C13.06 18.39 12.97 18.5 12.88 18.61C12.69 18.84 12.48 19.1 11.86 19.29C11.5 19.4 11.2 19.39 10.98 19.27C10.72 19.12 10.59 18.81 10.53 18.58C10.41 18.1 10.73 17.09 10.9 16.55C10.96 16.38 11 16.24 11.02 16.14C11.07 15.94 11.08 15.75 11.09 15.55C11.1 15.29 11.11 14.99 11.22 14.6C11.33 14.21 11.42 14.06 11.54 13.98C11.56 14.07 11.59 14.15 11.63 14.2C11.83 14.51 12.03 14.72 12.34 14.82C12.64 14.92 13.35 14.51 13.55 14.41C13.58 14.39 13.62 14.36 13.65 14.31C14.01 14.17 14.15 14.18 14.41 14.58C14.46 14.66 14.46 14.9 14.46 15.08C14.46 15.38 14.46 15.69 14.61 15.93C14.71 16.08 14.84 16.23 14.99 16.38C15.13 16.54 15.33 16.75 15.38 16.87C15.36 17.02 14.99 17.35 14.7 17.43Z" fill="#00AB44"/>
</svg>
