<svg xmlns="http://www.w3.org/2000/svg" viewBox="0 0 128 128"><path fill="#fff" d="M116.4 97.9c-2.4-.5-5-.9-7.5-.9-4.4 0-8.4.8-11.4 2-.3.2-.6.5-.6.9 0 .1 0 .3.1.4.3 1-.2 2.1-3.1 2.7-4.3.9-6.9 5.3-8.5 6.8-1.8 1.7-6.9 2.8-6.1 1.7.6-.8 2.9-3.3 4.3-6 1.3-2.4 2.4-3.1 3.9-5.4.5-.7 2.2-3 2.7-4.9.6-1.8.4-4.1.6-5.1.3-1.4 1.6-4.3 1.7-6 .1-.9-3.9 1.4-5.8 1.4s-3.7-1.1-5.4-1.2c-2.1-.1-3.4 1.6-5.3 1.3-1.1-.2-2-1.1-3.9-1.2-2.7-.1-6 1.5-12.2 1.3-6.1-.2-11.7-7.7-12.5-8.9-.9-1.4-2-1.4-3.2-.3-1.2 1.1-2.7.2-3.1-.5-.8-1.4-2.9-5.5-6.2-6.3-4.6-1.2-6.9 2.5-6.6 5.5.3 3 2.2 3.8 3.1 5.4.9 1.6 1.4 2.6 3 3.3 1.2.5 1.6 1.2 1.3 2.2-.3.9-1.6 1.1-2.4 1.1-1.7.1-3-.4-3.8-1-1-.7-1.9-1.6-2.8-3.1-1-1.7-2.7-2.5-4.6-2.5-.9 0-1.8.2-2.5.6-3 1.6-6.6 2.5-10.4 2.5h-4.3c8.3 24.7 31.7 42.4 59.2 42.4 21.9.3 41.2-11 52.3-28.2"/><path d="M116.4 97.9c-2.4-.6-5-.9-7.5-.9-4.4 0-8.4.8-11.4 2-.3.2-.6.5-.6.9 0 .1 0 .3.1.4.3 1-.2 2.1-3.1 2.8-4.3.9-6.9 5.3-8.5 6.8-1.8 1.7-6.9 2.8-6.1 1.7.6-.8 2.9-3.3 4.3-6 1.3-2.4 2.4-3.1 3.9-5.4.5-.7 2.2-3 2.7-4.9.6-1.8.4-4.1.6-5.1.3-1.4 1.6-4.3 1.7-6 .1-.9-3.9 1.3-5.8 1.3s-3.7-1.1-5.4-1.2c-2.1-.1-3.4 1.6-5.3 1.3-1.1-.2-2-1.1-3.9-1.2-2.7-.1-6 1.5-12.2 1.3-6.1-.2-11.7-7.7-12.5-8.9-.9-1.4-2-1.4-3.2-.3-1.2 1.1-2.7.2-3.1-.5-.8-1.4-2.9-5.5-6.2-6.3-4.6-1.2-6.9 2.5-6.6 5.5.3 3 2.2 3.8 3.1 5.4.9 1.6 1.4 2.6 3 3.3 1.2.5 1.6 1.2 1.3 2.2-.3.9-1.6 1.1-2.4 1.1-1.7.1-3-.4-3.8-1-1-.7-1.9-1.6-2.8-3.1-1-1.7-2.7-2.5-4.6-2.5-.9 0-1.8.2-2.5.6-3 1.6-6.6 2.5-10.4 2.5h-4.4c-2.1-6-3.2-12.7-3.2-19.7 0-34.5 27.9-62.4 62.4-62.4s62.4 27.9 62.4 62.4c0 12.5-3.7 24.1-10 33.9M77.7 92.2c.3.3.9 1.4.2 2.7-.4.7-.8 1.2-1.5 1.8-.9.7-2.6 1.5-4.9 0-1.3-.8-1.3-1.1-3.1-.8-1.2.2-1.7-1.1-1.3-2.1.5-1 2.3-1.9 4.6-.5 1 .6 2.6 1.9 4 .7.6-.5.9-.8 1.7-1.7l.1-.1c.2-.1.2 0 .2 0"/><path fill="#E93442" d="M59.1 31.3c-7.2.5-8 1.3-9.3 2.7-1.9 2-4.4-2.6-4.4-2.6-1.5-.3-3.3-2.7-2.3-5 1-2.2 2.8-1.6 3.3-.9.7.8 2.1 2.2 4 2.2 1.9-.1 4.1-.4 7.1-.4 3.1 0 5.2 1.1 5.3 2.1.1.9-.2 1.7-3.7 1.9m7.6-11.9c-.1 0-.2-.1-.2-.2s0-.1.1-.2c1.4-.7 3.5-1.3 5.9-1.6.7-.1 1.4-.1 2.1-.1h.4c4 .1 7.2 1.7 7.2 3.6-.1 1.9-3.3 3.3-7.3 3.2-1.3 0-2.5-.2-3.6-.5-.1 0-.2-.1-.2-.3 0-.1.1-.2.2-.3 2.5-.6 4.2-1.5 4.1-2.4-.2-1.2-3.4-1.8-7.3-1.4-.6.1-1 .2-1.4.2m32.5 28c-.6 2.1-1.5 4.7-5.4 6.7-.6.3-.8-.2-.5-.6 1.5-2.5 1.7-3.1 2.2-4.1.6-1.4.9-3.5-.3-7.8-2.3-8.4-7.2-19.7-10.8-23.4-3.4-3.5-9.7-4.5-15.3-3.1-2.1.5-6.1 2.6-13.6.9-13-2.9-14.9 3.6-15.7 6.4-.8 2.8-2.5 10.9-2.5 10.9-.6 3.3-1.4 9 18.8 12.8 9.4 1.8 9.9 4.2 10.3 6 .7 3.1 1.9 4.9 3.3 5.8 1.3.9 0 1.6-1.5 1.8-4 .4-18.8-3.8-27.6-8.8-7.2-4.4-7.3-8.3-5.6-11.7-10.8-1.2-19 1-20.4 6.1-2.6 9 19.2 24 44.1 31.5 26.1 7.9 53 2.4 56-14 1.4-7.5-4.9-13-15.5-15.4"/></svg>