<?xml version="1.0" encoding="UTF-8"?><svg xmlns="http://www.w3.org/2000/svg" xmlns:xlink="http://www.w3.org/1999/xlink" viewBox="0 0 48 48" version="1.1"><g id="surface1"><path d="M37.453 17.809l-.644-1.457c2.09 1.296 4.02 2.27 5.46 2.27 1.446 0 2.731-1.138 2.731-1.138-1.285-4.699-1.285-4.375-9.152-6v1.301c-.32-.484-4.016-1.625-8.828-1.785h-1.125C18.988 11 10 16.676 10 23c0 3.406 2.727 6 6.102 6 2.57 0 4.496-1.945 4.496-4.059 0-1.941-1.285-4.21-4.016-4.21-.645 0-2.89.484-2.89 2.753 0 1.621 1.285 2.434 2.25 2.434 1.445 0 1.605-.648 1.605-.977 0-.484-.32-.644-.805-.808-.32 0-.64.164-.8.164-.165 0-.645-.164-.645-.813 0-.644.644-.972 1.445-.972 1.285 0 2.086 1.297 2.086 2.27 0 .484-.16 2.269-2.566 2.269-1.77 0-3.856-1.297-3.856-3.727 0-2.433 2.086-3.89 4.016-3.89 5.137 0 5.941 5.183 5.941 5.183l2.246 1.137s-.16-.813-.16-1.457c0-2.106.965-2.922 2.89-2.922 2.891 0 4.013 2.434 5.138 3.566l2.89 1.301s-1.441-1.945-1.441-3.73c0-2.11 1.926-1.137 4.492-1.137 2.73 0 6.422-.648 6.422-2.758-.48 0-1.445.977-3.05.977-1.126-.324-4.017-1.785-4.337-1.785zm4.016-4.375c1.125 0 2.086.972 2.086 2.109 0 1.133-.961 2.105-2.086 2.105s-2.086-.972-2.086-2.105c0-1.137.8-2.11 2.086-2.11z" fill="#7CB342"/><path d="M41.469 13.918c-.805 0-1.446.648-1.446 1.46a1.446 1.446 0 1 0 2.891 0c0-.812-.644-1.46-1.445-1.46zm.32 1.625c-.32 0-.64-.164-.64-.484 0-.164.32-.489.64-.489s.645.16.645.489c-.164.32-.325.484-.645.484z" fill="#7CB342"/><path d="M19.52 30c-.5 0-.836.332-.836.832l-.02 3.504c0 .496-.332.832-.832.832h-2.164c-.504 0-.504-.336-.504-.832l.02-3.52c0-.5-.496-.832-.996-.832h-.336c-.5 0-.832.332-.832.832L13 34.504C13 36.168 14 37 15.836 37c.828 0 1.5-.328 2.164-.664.332-.168.5-.336.664-.336 0 0 .172 0 .336.168l.5.832h.664c.504 0 .836-.5.836-.836v-5.367c0-.5-.48-.797-.98-.797h-.5" fill="#004D40"/><path d="M24.727 28c-1.286 0-2.41 1.125-2.41 2.41v.645c0 1.28.964 2.086 2.25 2.086h2.41c.32 0 .644.164.644.644v.543c0 .32-.324.672-.644.672h-4.66v1.195c0 .485.32.805.8.805h4.02c1.285 0 2.41-1.129 2.41-2.41v-.965c0-1.285-.805-1.93-2.25-1.93h-2.41c-.48 0-.645-.16-.645-.48v-.57c0-.32.324-.645.805-.645h4.015v-1.195c0-.485-.32-.805-.8-.805" fill="#004D40"/><path d="M6.41 28C5.121 28 4 29.125 4 30.41v.645c0 1.28.965 2.086 2.25 2.086h2.406c.324 0 .649.164.649.644v.543c-.004.317-.328.672-.649.672H4v1.195c0 .485.32.805.8.805h4.016c1.286 0 2.414-1.129 2.414-2.41v-.969c0-1.285-.804-1.926-2.25-1.926H6.57c-.48 0-.644-.164-.644-.48v-.57C5.93 30.32 6.25 30 6.73 30h4.016v-1.195c0-.485-.32-.805-.8-.805" fill="#004D40"/><path d="M36.547 28h-3.094C32.145 28 31 29.145 31 30.453v4.094C31 35.852 32.145 37 33.453 37h3.438c.488 0 .816-.324.816-.82V35h-3.93c-.488 0-.648-.293-.648-.617v-1.149h4.562c.653 0 1.309-.492 1.309-1.144v-1.633C39 29.145 37.855 28 36.547 28zm.344 3.438h-3.766v-.016l.004-.969c0-.324.324-.652.648-.652h2.457c.328 0 .653.328.653.652v.985z" fill="#004D40"/></g><metadata><rdf:RDF xmlns:rdf="http://www.w3.org/1999/02/22-rdf-syntax-ns#" xmlns:rdfs="http://www.w3.org/2000/01/rdf-schema#" xmlns:dc="http://purl.org/dc/elements/1.1/"><rdf:Description about="https://iconscout.com/legal#licenses" dc:title="suse" dc:description="suse" dc:publisher="Iconscout" dc:date="2017-12-15" dc:format="image/svg+xml" dc:language="en"><dc:creator><rdf:Bag><rdf:li>Icons8</rdf:li></rdf:Bag></dc:creator></rdf:Description></rdf:RDF></metadata></svg>