<?xml version="1.0" encoding="UTF-8"?><svg xmlns="http://www.w3.org/2000/svg" xmlns:xlink="http://www.w3.org/1999/xlink" version="1.1" id="Layer_1" x="0px" y="0px" viewBox="0 0 48 48" xml:space="preserve"><g id="surface1_38_"><path d="M40 24c0 8.836-7.164 16-16 16S8 32.836 8 24 15.164 8 24 8s16 7.164 16 16z" fill="#FFF"/><path d="M30 24c0 3.313-2.688 6-6 6-3.313 0-6-2.688-6-6s2.687-6 6-6c3.312 0 6 2.688 6 6z" fill="#E64A19"/><path d="M12 21.5a2.5 2.5 0 1 1 0 5 2.5 2.5 0 0 1 0-5m0-1c-1.93 0-3.5 1.57-3.5 3.5s1.57 3.5 3.5 3.5 3.5-1.57 3.5-3.5-1.57-3.5-3.5-3.5z" fill="#E64A19"/><path d="M30 31.5a2.5 2.5 0 1 1 0 5 2.5 2.5 0 0 1 0-5m0-1c-1.93 0-3.5 1.57-3.5 3.5s1.57 3.5 3.5 3.5 3.5-1.57 3.5-3.5-1.57-3.5-3.5-3.5z" fill="#E64A19"/><path d="M24 4C12.956 4 4 12.956 4 24s8.956 20 20 20 20-8.956 20-20S35.044 4 24 4zm8.5 30a2.5 2.5 0 1 1-5 0c0-.238.043-.465.105-.68A9.95 9.95 0 0 1 24 34c-5.063 0-9.238-3.77-9.898-8.652A2.5 2.5 0 0 1 12 26.5a2.5 2.5 0 1 1 2.102-3.848C14.762 17.77 18.937 14 24 14a9.95 9.95 0 0 1 3.605.68A2.448 2.448 0 0 1 27.5 14c0-1.383 1.117-2.5 2.5-2.5a2.497 2.497 0 0 1 .531 4.938 9.977 9.977 0 0 1 0 15.125A2.496 2.496 0 0 1 32.5 34z" fill="#E64A19"/><path d="M30 11.5a2.5 2.5 0 1 1 0 5 2.5 2.5 0 0 1 0-5m0-1c-1.93 0-3.5 1.57-3.5 3.5s1.57 3.5 3.5 3.5 3.5-1.57 3.5-3.5-1.57-3.5-3.5-3.5z" fill="#E64A19"/><path d="M24 24a56598.92 56598.92 0 0 0-7.75-12.18" fill="#E64A19" stroke="#E64A19" stroke-width="2"/><path d="M24 24h14.434" fill="none" stroke="#E64A19" stroke-width="2"/><path d="M24 24c-2.664 4.004-5.332 8.012-8 12.016" fill="#E64A19" stroke="#E64A19" stroke-width="2"/></g><metadata><rdf:RDF xmlns:rdf="http://www.w3.org/1999/02/22-rdf-syntax-ns#" xmlns:rdfs="http://www.w3.org/2000/01/rdf-schema#" xmlns:dc="http://purl.org/dc/elements/1.1/"><rdf:Description about="https://iconscout.com/legal#licenses" dc:title="ubuntu" dc:description="ubuntu" dc:publisher="Iconscout" dc:date="2017-12-15" dc:format="image/svg+xml" dc:language="en"><dc:creator><rdf:Bag><rdf:li>Icons8</rdf:li></rdf:Bag></dc:creator></rdf:Description></rdf:RDF></metadata></svg>