<?xml version="1.0" encoding="UTF-8" standalone="no"?>
<!-- Created with Inkscape (http://www.inkscape.org/) -->

<svg
   xmlns:dc="http://purl.org/dc/elements/1.1/"
   xmlns:cc="http://creativecommons.org/ns#"
   xmlns:rdf="http://www.w3.org/1999/02/22-rdf-syntax-ns#"
   xmlns:svg="http://www.w3.org/2000/svg"
   xmlns="http://www.w3.org/2000/svg"
   version="1.1"
   width="715.74799"
   height="225"
   id="svg3981">
  <defs
     id="defs3983">
    <clipPath
       id="clipPath3009">
      <path
         d="m 34.502,725.023 97.734,0 0,39.173 -97.734,0 0,-39.173 z"
         id="path3011" />
    </clipPath>
  </defs>
  <metadata
     id="metadata3986">
    <rdf:RDF>
      <cc:Work
         rdf:about="">
        <dc:format>image/svg+xml</dc:format>
        <dc:type
           rdf:resource="http://purl.org/dc/dcmitype/StillImage" />
        <dc:title></dc:title>
      </cc:Work>
    </rdf:RDF>
  </metadata>
  <g
     transform="translate(-18.413229,-408.34536)"
     id="layer1">
    <g
       transform="matrix(7.4785579,0,0,-7.4785579,-246.55512,6089.6451)"
       id="g3005">
      <g
         clip-path="url(#clipPath3009)"
         id="g3007">
        <g
           transform="translate(85.3493,733.6513)"
           id="g3013">
          <path
             d="m 0,0 c 0,-0.676 0.351,-0.825 1.018,-0.825 l 0.991,0 c 0.808,0 0.887,0.281 0.887,0.781 l 0,0.527 c 0,0.5 -0.079,0.781 -0.887,0.781 l -0.991,0 C 0.351,1.264 0,1.114 0,0.439 L 0,0 z m -1.58,4.335 1.685,0 0,-2.703 0.018,0 c 0.105,0.702 0.816,0.895 1.509,0.895 l 0.5,0 c 2.133,0 2.396,-0.763 2.396,-1.904 l 0,-0.807 c 0,-1.141 -0.263,-1.905 -2.396,-1.905 l -0.491,0 c -1.018,0 -1.439,0.343 -1.624,0.896 l -0.017,0 0,-0.825 -1.58,0 0,6.353 z"
             id="path3015"
             style="fill:#231f20;fill-opacity:1;fill-rule:nonzero;stroke:none" />
        </g>
        <g
           transform="translate(91.869,731.1767)"
           id="g3017">
          <path
             d="m 0,0 0.141,0 c 0.666,0 1.096,0.132 1.096,0.649 l -0.596,0 -2.054,4.283 1.825,0 1.29,-3.116 1.29,3.116 1.826,0 -2.51,-5.3 C 2.045,-0.913 1.536,-1.106 0.685,-1.106 0.368,-1.106 0.167,-1.079 0,-1.071 L 0,0 z"
             id="path3019"
             style="fill:#231f20;fill-opacity:1;fill-rule:nonzero;stroke:none" />
        </g>
        <g
           transform="translate(103.8293,734.8096)"
           id="g3021">
          <path
             d="m 0,0 3.027,0 c 0.457,0 0.632,0.298 0.632,0.676 l 0,0.245 c 0,0.43 -0.21,0.676 -0.798,0.676 L 0,1.597 0,0 z m -1.948,3.177 5.309,0 C 5.212,3.177 5.66,2.247 5.66,1 l 0,-0.544 C 5.66,-0.491 5.247,-1.58 3.87,-1.58 l -3.87,0 0,-1.597 -1.948,0 0,6.354 z"
             id="path3023"
             style="fill:#231f20;fill-opacity:1;fill-rule:nonzero;stroke:none" />
        </g>
        <g
           transform="translate(110.6301,737.9863)"
           id="g3025">
          <path
             d="M 0,0 2.992,0 5.195,-4.089 7.397,0 l 2.993,0 0,-6.353 -1.896,0 0,4.563 -0.017,0 -2.554,-4.563 -1.457,0 -2.553,4.563 -0.018,0 0,-4.563 L 0,-6.353 0,0 z"
             id="path3027"
             style="fill:#231f20;fill-opacity:1;fill-rule:nonzero;stroke:none" />
        </g>
        <g
           transform="translate(122.2833,735.7573)"
           id="g3029">
          <path
             d="m 0,0 c 0,1.86 1.044,2.299 2.799,2.299 l 2.291,0 c 2.773,0 3.132,-0.597 3.115,-2.395 l -1.948,0 0,0.175 c 0,0.456 -0.334,0.588 -0.913,0.588 l -2.124,0 c -1.026,0 -1.219,-0.483 -1.219,-1.272 l 0,-0.685 c 0,-0.921 0.193,-1.272 1.114,-1.272 l 2.08,0 c 0.877,0 1.141,0.087 1.141,0.877 l 1.948,0 0,-0.597 c 0,-1.07 -0.386,-1.913 -2.343,-1.913 l -3.142,0 C 1.044,-4.195 0,-3.756 0,-1.895 L 0,0 z"
             id="path3031"
             style="fill:#231f20;fill-opacity:1;fill-rule:nonzero;stroke:none" />
        </g>
        <g
           transform="translate(94.5723,759.0421)"
           id="g3033">
          <path
             d="m 0,0 3.755,0 0,-3.245 3.671,0 -1.37,-3.324 -2.301,0 0,-9.699 -3.755,0 L 0,0 z"
             id="path3035"
             style="fill:#10427a;fill-opacity:1;fill-rule:nonzero;stroke:none" />
        </g>
        <g
           transform="translate(48.8912,755.8763)"
           id="g3037">
          <path
             d="m 0,0 0,-13.103 -3.914,0 0,9.739 -1.682,0 c -1.886,0 -3.415,-1.422 -3.415,-3.188 0,-1.765 1.529,-3.186 3.415,-3.186 l 1.525,0 -1.681,-3.44 c -0.064,-0.002 -0.13,-0.002 -0.196,-0.002 -3.888,0 -7.039,2.95 -7.039,6.59 0,3.64 3.151,6.59 7.039,6.59 L 0,0 z"
             id="path3039"
             style="fill:#10427a;fill-opacity:1;fill-rule:nonzero;stroke:none" />
        </g>
        <g
           transform="translate(59.6431,755.8763)"
           id="g3041">
          <path
             d="m 0,0 -2.035,0 c -3.887,0 -7.038,-2.95 -7.038,-6.59 0,-3.64 3.151,-6.59 7.038,-6.59 0.068,0 0.132,0 0.198,0.002 l 1.68,3.44 -1.524,0 c -1.887,0 -3.417,1.421 -3.417,3.186 0,1.766 1.53,3.188 3.417,3.188 l 1.681,0 0,-9.739 3.913,0 0,16.427 L 0,3.324 0,0 z"
             id="path3043"
             style="fill:#10427a;fill-opacity:1;fill-rule:nonzero;stroke:none" />
        </g>
        <g
           transform="translate(78.184,755.8763)"
           id="g3045">
          <path
             d="m 0,0 0,-13.103 -3.915,0 0,9.739 -1.681,0 c -1.885,0 -3.415,-1.422 -3.415,-3.188 0,-1.765 1.53,-3.186 3.415,-3.186 l 1.525,0 -1.682,-3.44 c -0.065,-0.002 -0.13,-0.002 -0.194,-0.002 -3.889,0 -7.04,2.95 -7.04,6.59 0,3.64 3.151,6.59 7.04,6.59 L 0,0 z"
             id="path3047"
             style="fill:#10427a;fill-opacity:1;fill-rule:nonzero;stroke:none" />
        </g>
        <g
           transform="translate(79.9021,755.8763)"
           id="g3049">
          <path
             d="m 0,0 0,-15.566 3.913,0 0,12.202 1.682,0 c 1.885,0 3.415,-1.422 3.415,-3.188 0,-1.765 -1.53,-3.186 -3.415,-3.186 l -1.527,0 1.684,-3.44 c 0.064,-0.002 0.129,-0.002 0.194,-0.002 3.889,0 7.041,2.95 7.041,6.59 C 12.987,-2.95 9.835,0 5.946,0 L 0,0 z"
             id="path3051"
             style="fill:#10427a;fill-opacity:1;fill-rule:nonzero;stroke:none" />
        </g>
        <g
           transform="translate(110.4176,746.9454)"
           id="g3053">
          <path
             d="m 0,0 c -0.61,-0.619 -1.459,-1.004 -2.397,-1.004 -1.858,0 -3.363,1.507 -3.363,3.365 0,1.856 1.505,3.362 3.363,3.362 1.276,0 2.386,-0.712 2.956,-1.76 l -3.876,0 -1.215,-2.854 8.904,0 c 0.075,0.407 0.114,0.824 0.114,1.252 0,3.801 -3.082,6.882 -6.883,6.882 -3.801,0 -6.883,-3.081 -6.883,-6.882 0,-3.803 3.082,-6.885 6.883,-6.885 2.975,0 5.509,1.875 6.469,4.518 L 0,0 z"
             id="path3055"
             style="fill:#10427a;fill-opacity:1;fill-rule:nonzero;stroke:none" />
        </g>
        <g
           transform="translate(126.5423,748.0141)"
           id="g3057">
          <path
             d="m 0,0 c -0.52,-1.168 -1.702,-1.994 -3.074,-1.994 -1.855,0 -3.358,1.489 -3.358,3.325 0,1.835 1.503,3.325 3.358,3.325 1.398,0 2.595,-0.873 3.101,-2.073 l 4.094,0 c -0.611,3.203 -3.53,5.632 -7.039,5.632 -3.952,0 -7.157,-3.082 -7.157,-6.884 0,-3.802 3.205,-6.883 7.157,-6.883 3.486,0 6.391,2.379 7.027,5.552 L 0,0 z"
             id="path3059"
             style="fill:#10427a;fill-opacity:1;fill-rule:nonzero;stroke:none" />
        </g>
      </g>
    </g>
  </g>
</svg>
