<!DOCTYPE svg PUBLIC "-//W3C//DTD SVG 20010904//EN" "http://www.w3.org/TR/2001/REC-SVG-20010904/DTD/svg10.dtd">
<svg version="1.0" xmlns="http://www.w3.org/2000/svg" width="200px" height="200px" viewBox="0 0 2000 2000" preserveAspectRatio="xMidYMid meet">
<g id="layer101" fill="#00cc00" stroke="none">
 <path d="M190 1991 c-56 -8 -109 -40 -145 -87 -30 -40 -44 -114 -45 -236 l0 -78 1002 0 1001 0 -6 126 c-5 116 -8 131 -34 173 -17 27 -48 58 -77 76 l-49 30 -801 1 c-441 1 -821 -1 -846 -5z"/>
 </g>
<g id="layer102" fill="#ff2600" stroke="none">
 <path d="M3 278 c6 -110 9 -126 34 -167 17 -27 48 -58 77 -76 l49 -30 784 -3 c462 -2 812 1 853 7 81 11 127 41 166 107 21 36 26 59 31 163 l6 121 -1003 0 -1003 0 6 -122z"/>
 </g>
<g id="layer103" fill="#1b83e8" stroke="none">
 <path d="M0 1395 l0 -195 1000 0 1000 0 0 195 0 195 -1000 0 -1000 0 0 -195z"/>
 </g>
<g id="layer104" fill="#ffa500" stroke="none">
 <path d="M497 1193 c277 -2 729 -2 1005 0 277 1 51 2 -502 2 -553 0 -779 -1 -503 -2z"/>
 <path d="M0 600 l0 -200 1000 0 1000 0 0 200 0 200 -1000 0 -1000 0 0 -200z"/>
 </g>
<g id="layer105" fill="#fcfd05" stroke="none">
 <path d="M0 995 l0 -195 1000 0 1000 0 0 195 0 195 -1000 0 -1000 0 0 -195z"/>
 </g>

</svg>