<?xml version="1.0" encoding="UTF-8" standalone="no"?>
<svg
   xmlns:dc="http://purl.org/dc/elements/1.1/"
   xmlns:cc="http://creativecommons.org/ns#"
   xmlns:rdf="http://www.w3.org/1999/02/22-rdf-syntax-ns#"
   xmlns:svg="http://www.w3.org/2000/svg"
   xmlns="http://www.w3.org/2000/svg"
   viewBox="0 0 191.48 88.080002"
   height="88.080002"
   width="191.48"
   xml:space="preserve"
   id="svg2"
   version="1.1"><metadata
     id="metadata8"><rdf:RDF><cc:Work
         rdf:about=""><dc:format>image/svg+xml</dc:format><dc:type
           rdf:resource="http://purl.org/dc/dcmitype/StillImage" /></cc:Work></rdf:RDF></metadata><defs
     id="defs6"><clipPath
       id="clipPath20"
       clipPathUnits="userSpaceOnUse"><path
         id="path18"
         d="M 0,0 H 1436 V 660.598 H 0 Z" /></clipPath></defs><g
     transform="matrix(1.3333333,0,0,-1.3333333,0,88.08)"
     id="g10"><g
       transform="scale(0.1)"
       id="g12"><g
         id="g14"><g
           clip-path="url(#clipPath20)"
           id="g16"><path
             id="path22"
             style="fill:#00a650;fill-opacity:1;fill-rule:nonzero;stroke:none"
             d="m 19.3047,49.0234 c 0,-2.2656 0.4141,-4.3164 1.2422,-6.1796 0.8203,-1.8672 1.9531,-3.4688 3.3867,-4.8165 1.4375,-1.3359 3.1055,-2.3828 5.0234,-3.1171 1.9102,-0.7305 4.0039,-1.1016 6.2578,-1.1016 4.961,0 8.9375,1.7109 11.9336,5.1367 3,3.418 4.5039,7.9102 4.5039,13.457 0,5.7149 -1.4765,10.2657 -4.4335,13.6446 -2.961,3.3789 -6.918,5.0664 -11.8672,5.0664 -3.918,0 -7.2149,-0.9258 -9.9102,-2.793 -2.6992,-1.8672 -4.7383,-4.3945 -6.1367,-7.5976 z m 0,-19.9218 c 0,-3.2618 -0.75,-5.5157 -2.2734,-6.7657 -1.504,-1.2421 -3.4297,-1.8671 -5.7618,-1.8671 H 9.32422 c -2.50781,0 -4.51953,0.6054 -6.03125,1.8164 -1.51563,1.2109 -2.26953,3.5078 -2.26953,6.8867 v 80.0001 c 0,0.351 0.69531,0.777 2.07031,1.297 1.38672,0.519 2.98828,0.781 4.80469,0.781 1.3789,0 2.74606,-0.215 4.08206,-0.645 1.3398,-0.437 2.5508,-1.191 3.625,-2.285 1.0859,-1.074 1.9726,-2.578 2.6679,-4.48 0.6914,-1.906 1.0313,-4.3283 1.0313,-7.2775 l 0.0586,-21.1914 c 2.2578,3.2148 5.1094,5.7422 8.5859,7.6172 3.4649,1.8555 7.4531,2.793 11.961,2.793 4.25,0 8.1757,-0.7813 11.7695,-2.3438 3.6016,-1.5625 6.6992,-3.7695 9.2969,-6.6211 2.6093,-2.8711 4.6484,-6.3555 6.1132,-10.4687 1.4844,-4.1211 2.2149,-8.6914 2.2149,-13.7188 0,-4.9414 -0.7109,-9.4648 -2.1484,-13.5859 -1.4336,-4.1211 -3.4454,-7.625 -6.0547,-10.5274 -2.6055,-2.9101 -5.7305,-5.1758 -9.375,-6.8242 -3.6407,-1.6523 -7.6836,-2.4726 -12.1094,-2.4726 -4.9492,0 -9.1406,1.0625 -12.5664,3.1835 -3.4297,2.129 -6.0078,4.7071 -7.7461,7.7344 v -1.0351" /><path
             id="path24"
             style="fill:#00a650;fill-opacity:1;fill-rule:nonzero;stroke:none"
             d="M 95.418,0.65625 C 93.7695,0.226563 91.7773,0.03125 89.4453,0.0703125 87.0977,0.117188 84.7852,0.371094 82.4883,0.851563 80.1953,1.32813 78.0469,2.07031 76.0547,3.05859 74.0625,4.0625 72.5586,5.29297 71.5625,6.76953 70.5664,8.24219 70.207,9.97266 70.4609,11.9648 c 0.2618,2 1.4727,4.2071 3.6407,6.629 3.0273,-1.2969 5.9375,-2.2071 8.7109,-2.7344 2.4219,-0.4297 4.8711,-0.5352 7.3438,-0.3242 2.4726,0.2265 4.5703,1.2421 6.3085,3.0586 0.9454,1.1328 1.6915,2.1093 2.2071,2.9296 0.5195,0.8204 0.8672,1.4844 1.0351,2.0118 0.2657,0.6953 0.352,1.2109 0.2657,1.5625 -1.4766,0.1679 -2.6875,0.5586 -3.6446,1.1718 -0.9453,0.6055 -1.7304,1.5547 -2.3359,2.8516 L 72.1484,79.8242 c -0.0781,0.2539 0.1368,0.6953 0.6524,1.2969 0.5195,0.6094 1.2305,1.1953 2.1406,1.7617 0.918,0.5547 2.0039,1.082 3.2617,1.5625 1.25,0.4766 2.5782,0.711 3.9649,0.711 2.1601,0 4.1133,-0.6055 5.8398,-1.8165 1.7383,-1.2226 3.2149,-3.6406 4.4219,-7.2851 l 13.7813,-36.2695 12.227,36.1445 c 1.125,3.6328 2.597,6.082 4.414,7.3437 1.816,1.2579 3.73,1.8829 5.722,1.8829 1.297,0 2.559,-0.2149 3.77,-0.6524 1.211,-0.4297 2.273,-0.9492 3.183,-1.5547 0.911,-0.6054 1.641,-1.1719 2.207,-1.6992 0.567,-0.5156 0.801,-0.9062 0.723,-1.1602 L 115.313,19.5039 c -0.696,-1.7305 -1.543,-3.5273 -2.54,-5.3906 -0.996,-1.8672 -2.277,-3.6641 -3.828,-5.40236 -1.562,-1.72656 -3.449,-3.3086 -5.664,-4.7461 C 101.074,2.53906 98.457,1.4375 95.418,0.65625" /><path
             id="path26"
             style="fill:#231f20;fill-opacity:1;fill-rule:nonzero;stroke:none"
             d="m 245.398,46.4922 c 0,-5.4844 -1.406,-10.2305 -4.207,-14.2461 -2.812,-4.0039 -6.726,-7.0703 -11.75,-9.2109 -5.027,-2.1289 -10.789,-3.1914 -17.285,-3.1914 -1.812,0 -4.051,0.1171 -6.687,0.3515 -2.637,0.2344 -6.133,0.8711 -10.508,1.9219 -4.375,1.0586 -8.914,2.6211 -13.645,4.6797 v 21.5429 c 4.426,-2.7539 8.774,-5.039 13.039,-6.8554 4.278,-1.8281 8.86,-2.7344 13.743,-2.7344 4.507,0 7.422,0.7539 8.75,2.2578 1.328,1.5039 1.992,2.9102 1.992,4.2188 0,2.3711 -1.145,4.375 -3.41,6.0039 -2.278,1.6328 -5.575,3.3125 -9.91,5.0508 -4.805,2.0312 -9.016,4.246 -12.637,6.6289 -3.625,2.4023 -6.582,5.3906 -8.879,8.9961 -2.305,3.6015 -3.445,7.8593 -3.445,12.7734 0,4.7461 1.16,9.0312 3.484,12.8594 2.312,3.8399 5.859,6.8949 10.625,9.1799 4.773,2.297 10.605,3.437 17.48,3.437 4.891,0 9.422,-0.476 13.575,-1.426 4.16,-0.957 7.59,-2.031 10.293,-3.222 2.695,-1.184 4.558,-2.11 5.566,-2.793 V 82.0703 c -3.594,2.5781 -7.598,4.8828 -12.012,6.9141 -4.414,2.0312 -9.14,3.0469 -14.16,3.0469 -3.301,0 -5.683,-0.6329 -7.168,-1.9024 -1.472,-1.2695 -2.219,-2.8437 -2.219,-4.6992 0,-1.7383 0.735,-3.2422 2.207,-4.5117 1.477,-1.2696 4.106,-2.8125 7.891,-4.6367 6.77,-3.1758 12.199,-6.0391 16.262,-8.5782 4.062,-2.5351 7.246,-5.4648 9.551,-8.7968 2.312,-3.3204 3.464,-7.461 3.464,-12.4141" /><path
             id="path28"
             style="fill:#231f20;fill-opacity:1;fill-rule:nonzero;stroke:none"
             d="m 315.059,23.9648 c -1.914,-0.7226 -3.926,-1.3867 -6.036,-2 -2.121,-0.6171 -4.492,-1.1132 -7.136,-1.5156 -2.649,-0.3984 -5.539,-0.6054 -8.664,-0.6054 -7.071,0 -13.047,1.1914 -17.942,3.5859 -4.89,2.3906 -8.648,5.3906 -11.297,9.0117 -2.644,3.6133 -4.472,7.3047 -5.488,11.0742 -1.016,3.7617 -1.523,7.0821 -1.523,9.961 0,2.8711 0.507,6.1914 1.55,9.9609 1.04,3.7617 2.844,7.4023 5.422,10.9102 2.586,3.5039 6.328,6.4531 11.211,8.8164 4.883,2.3632 10.907,3.5547 18.067,3.5547 4.773,0 8.672,-0.3399 11.679,-1.0157 2.996,-0.6718 6.043,-1.582 9.141,-2.7226 V 65.0391 c -7.449,2.3632 -13.273,3.5547 -17.461,3.5547 -4.062,0 -7.676,-1.2305 -10.82,-3.6915 -3.157,-2.4531 -4.727,-6.2695 -4.727,-11.4257 0,-3.4375 0.781,-6.3282 2.344,-8.6797 1.562,-2.3555 3.555,-4.0742 5.969,-5.1797 2.41,-1.1016 4.824,-1.6484 7.234,-1.6484 2.285,0 4.883,0.332 7.813,1.0156 2.91,0.6719 6.464,1.6523 10.664,2.9219 V 23.9648" /><path
             id="path30"
             style="fill:#231f20;fill-opacity:1;fill-rule:nonzero;stroke:none"
             d="m 395.145,20.9375 h -22.809 v 33.5273 c 0,0.254 0.008,0.4961 0.027,0.7305 0.02,0.2266 0.039,0.7227 0.039,1.4844 0,3.0859 -0.664,5.9297 -1.972,8.5078 -1.309,2.5859 -3.809,3.875 -7.481,3.875 -2.883,0 -5.422,-0.9648 -7.617,-2.8906 -2.195,-1.9258 -4.297,-4.3477 -6.277,-7.2656 V 20.9375 h -22.817 v 87.9685 h 22.817 V 76.3086 c 3.758,4.0156 7.476,6.7578 11.16,8.2227 3.672,1.457 7.578,2.1875 11.726,2.1875 15.469,0 23.204,-8.6993 23.204,-26.0938 V 20.9375" /><path
             id="path32"
             style="fill:#231f20;fill-opacity:1;fill-rule:nonzero;stroke:none"
             d="M 477.859,20.9375 H 455.051 V 55.793 c 0,3.5547 -0.586,6.6484 -1.75,9.3047 -1.16,2.6367 -3.711,3.9648 -7.649,3.9648 -1.863,0 -3.504,-0.3516 -4.91,-1.043 -1.426,-0.7031 -2.695,-1.6015 -3.808,-2.707 -1.121,-1.0937 -2.063,-2.1562 -2.825,-3.1719 -0.757,-1.0195 -1.543,-2.0898 -2.351,-3.2343 V 20.9375 H 408.945 V 85.625 h 22.813 v -9.3164 c 3.594,3.8477 7.195,6.543 10.808,8.0859 3.618,1.5547 7.649,2.3243 12.082,2.3243 15.469,0 23.211,-9.2696 23.211,-27.8125 V 20.9375" /><path
             id="path34"
             style="fill:#231f20;fill-opacity:1;fill-rule:nonzero;stroke:none"
             d="m 536.504,59.0625 c 0,4.1328 -1.035,7.4297 -3.098,9.8906 -2.066,2.4727 -5.039,3.7032 -8.902,3.7032 -3.84,0 -6.938,-1.25 -9.301,-3.7579 -2.359,-2.5117 -3.543,-5.7929 -3.543,-9.8359 z m 21.406,-11.25 h -45.613 c 0.887,-3.9453 3.074,-7.1758 6.551,-9.6758 3.476,-2.5117 7.422,-3.7617 11.836,-3.7617 7.722,0 16.25,2.168 25.578,6.4922 v -14.168 c -3.34,-1.7383 -7.407,-3.3203 -12.168,-4.7265 -4.77,-1.4141 -10.832,-2.1289 -18.203,-2.1289 -7.961,0 -14.746,1.4843 -20.332,4.4414 -5.586,2.9609 -9.778,6.9765 -12.551,12.0546 -2.774,5.0782 -4.16,10.8282 -4.16,17.254 0,6.3476 1.386,12.0312 4.16,17.0429 2.773,5.0078 6.965,8.9414 12.551,11.8047 5.586,2.8516 12.363,4.2774 20.332,4.2774 5.254,0 10.32,-1.1329 15.214,-3.3907 4.891,-2.2617 8.915,-5.957 12.071,-11.0898 3.152,-5.1289 4.734,-11.75 4.734,-19.8672 v -4.5586" /><path
             id="path36"
             style="fill:#231f20;fill-opacity:1;fill-rule:nonzero;stroke:none"
             d="m 591.23,100.52 c 0,-2.6684 -0.949,-4.9341 -2.839,-6.7895 -1.899,-1.8633 -4.153,-2.793 -6.758,-2.793 -1.778,0 -3.379,0.4219 -4.836,1.2695 -1.453,0.8399 -2.609,1.9922 -3.445,3.4571 -0.84,1.4531 -1.262,3.0781 -1.262,4.8559 0,2.617 0.93,4.882 2.781,6.785 1.848,1.894 4.106,2.851 6.762,2.851 2.605,0 4.859,-0.957 6.758,-2.851 1.89,-1.903 2.839,-4.168 2.839,-6.785 z m 1.836,-79.5825 H 570.254 V 85.625 h 22.812 V 20.9375" /><path
             id="path38"
             style="fill:#231f20;fill-opacity:1;fill-rule:nonzero;stroke:none"
             d="m 654.434,41.4531 v 24.7305 c -2.676,1.4844 -4.778,2.5391 -6.282,3.1719 -1.504,0.6367 -3.281,0.957 -5.32,0.957 -3.613,0 -6.609,-1.5234 -9.016,-4.5781 -2.398,-3.0469 -3.601,-7.1992 -3.601,-12.4531 0,-5.7227 1.262,-9.8907 3.789,-12.5 2.527,-2.6055 5.476,-3.9063 8.828,-3.9063 2.766,0 4.988,0.4297 6.688,1.3086 1.703,0.8594 3.339,1.9531 4.914,3.2695 z m 22.808,-20.5156 h -22.808 v 5.8398 c -2.414,-2.0117 -4.969,-3.6718 -7.664,-4.9804 -2.7,-1.3008 -6.418,-1.9531 -11.165,-1.9531 -4.707,0 -9.335,1.164 -13.867,3.4843 -4.543,2.336 -8.269,5.9571 -11.203,10.8907 -2.918,4.9218 -4.383,11.1328 -4.383,18.6132 0,5.8789 1.106,11.3868 3.313,16.5352 2.207,5.1367 5.664,9.3164 10.371,12.5273 4.707,3.2149 10.469,4.8243 17.293,4.8243 4.238,0 7.676,-0.4688 10.305,-1.3946 2.632,-0.9375 4.961,-2.1211 7,-3.5664 v 27.1482 h 22.808 V 20.9375" /><path
             id="path40"
             style="fill:#231f20;fill-opacity:1;fill-rule:nonzero;stroke:none"
             d="m 736.637,59.0625 c 0,4.1328 -1.035,7.4297 -3.086,9.8906 -2.071,2.4727 -5.039,3.7032 -8.906,3.7032 -3.848,0 -6.934,-1.25 -9.297,-3.7579 -2.364,-2.5117 -3.555,-5.7929 -3.555,-9.8359 z m 21.406,-11.25 h -45.605 c 0.878,-3.9453 3.066,-7.1758 6.542,-9.6758 3.477,-2.5117 7.422,-3.7617 11.836,-3.7617 7.735,0 16.25,2.168 25.586,6.4922 v -14.168 c -3.339,-1.7383 -7.402,-3.3203 -12.168,-4.7265 -4.765,-1.4141 -10.839,-2.1289 -18.203,-2.1289 -7.968,0 -14.746,1.4843 -20.332,4.4414 -5.586,2.9609 -9.785,6.9765 -12.558,12.0546 -2.774,5.0782 -4.161,10.8282 -4.161,17.254 0,6.3476 1.387,12.0312 4.161,17.0429 2.773,5.0078 6.972,8.9414 12.558,11.8047 5.586,2.8516 12.364,4.2774 20.332,4.2774 5.254,0 10.313,-1.1329 15.215,-3.3907 4.883,-2.2617 8.906,-5.957 12.07,-11.0898 3.145,-5.1289 4.727,-11.75 4.727,-19.8672 v -4.5586" /><path
             id="path42"
             style="fill:#231f20;fill-opacity:1;fill-rule:nonzero;stroke:none"
             d="m 826.051,82.1094 -8.438,-22.8399 c -3.476,3.3008 -6.992,4.9493 -10.547,4.9493 -3.203,0 -5.996,-1.0938 -8.339,-3.2813 -2.344,-2.1875 -4.61,-6.2187 -6.758,-12.1172 V 20.9375 H 769.156 V 85.625 h 22.813 V 70.0391 c 1.426,3.8281 3.965,7.5703 7.617,11.2109 3.633,3.6445 7.91,5.4688 12.812,5.4688 2.579,0 4.844,-0.379 6.758,-1.1329 1.934,-0.7617 4.239,-1.9257 6.895,-3.4765" /><path
             id="path44"
             style="fill:#231f20;fill-opacity:1;fill-rule:nonzero;stroke:none"
             d="m 887.906,95.9375 h 42.5 V 86.4063 H 898.688 V 63.4375 h 30.781 V 53.75 H 898.688 V 30.4688 H 931.5 v -9.5313 h -43.594 v 75" /><path
             id="path46"
             style="fill:#231f20;fill-opacity:1;fill-rule:nonzero;stroke:none"
             d="m 962.711,20.9375 h 9.84375 v 75 H 962.711 Z" /><path
             id="path48"
             style="fill:#231f20;fill-opacity:1;fill-rule:nonzero;stroke:none"
             d="m 1015.07,50.625 h 24.85 c -0.26,3.9453 -1.41,6.9922 -3.48,9.1406 -2.09,2.1289 -4.86,3.2032 -8.38,3.2032 -3.49,0 -6.37,-1.0743 -8.61,-3.2032 -2.23,-2.1484 -3.69,-5.1953 -4.38,-9.1406 z m 34.53,-5.7812 h -34.68 c 0.25,-4.7735 1.83,-8.5743 4.74,-11.3946 2.89,-2.8242 6.66,-4.2304 11.25,-4.2304 6.43,0 12.35,1.9726 17.76,5.9375 v -9.4727 c -2.99,-1.9844 -5.98,-3.3984 -8.93,-4.2461 -2.95,-0.8516 -6.41,-1.2812 -10.37,-1.2812 -5.43,0 -9.82,1.1328 -13.18,3.3906 -3.36,2.2656 -6.06,5.3008 -8.09,9.1289 -2.01,3.8164 -3.03,8.2422 -3.03,13.2617 0,7.5391 2.13,13.6719 6.41,18.3867 4.26,4.7188 9.78,7.0821 16.58,7.0821 6.56,0 11.8,-2.293 15.69,-6.8829 3.9,-4.5898 5.85,-10.7343 5.85,-18.4375 v -1.2421" /><path
             id="path50"
             style="fill:#231f20;fill-opacity:1;fill-rule:nonzero;stroke:none"
             d="M 1118.2,32.3438 V 22.7266 C 1113.26,20.9063 1108.43,20 1103.73,20 c -7.78,0 -13.97,2.2969 -18.6,6.8945 -4.63,4.5977 -6.93,10.7618 -6.93,18.4883 0,7.793 2.24,14.082 6.78,18.8555 4.51,4.7773 10.44,7.168 17.81,7.168 2.56,0 4.86,-0.2461 6.91,-0.7227 2.03,-0.4883 4.55,-1.3984 7.56,-2.7227 V 57.5 c -5.02,3.2227 -9.65,4.8438 -13.93,4.8438 -4.47,0 -8.12,-1.5625 -10.99,-4.6875 -2.87,-3.125 -4.3,-7.1094 -4.3,-11.9532 0,-5.0976 1.54,-9.1406 4.63,-12.1367 3.09,-3 7.25,-4.5039 12.48,-4.5039 3.79,0 8.13,1.0938 13.05,3.2813" /><path
             id="path52"
             style="fill:#231f20;fill-opacity:1;fill-rule:nonzero;stroke:none"
             d="m 1143.22,62.5313 18.44,18.0937 V 70.3125 h 15.46 v -8.75 h -15.46 V 37.2656 c 0,-5.6836 2.32,-8.5156 6.95,-8.5156 3.47,0 7.15,1.1445 11.01,3.4375 v -9.043 C 1175.87,21.0469 1171.79,20 1167.38,20 c -4.47,0 -8.17,1.3086 -11.13,3.9258 -0.92,0.793 -1.7,1.6797 -2.31,2.668 -0.61,0.9843 -1.11,2.2851 -1.52,3.875 -0.41,1.6015 -0.61,4.6406 -0.61,9.1328 v 21.9609 h -8.59 v 0.9688" /><path
             id="path54"
             style="fill:#231f20;fill-opacity:1;fill-rule:nonzero;stroke:none"
             d="M 1218.08,70.3125 V 59.082 l 0.55,0.8594 c 4.74,7.6367 9.51,11.4649 14.26,11.4649 3.71,0 7.57,-1.8633 11.6,-5.6055 l -5.18,-8.6133 c -3.42,3.2227 -6.58,4.8438 -9.51,4.8438 -3.16,0 -5.92,-1.504 -8.22,-4.5196 -2.33,-3.0078 -3.5,-6.5742 -3.5,-10.7031 V 20.9375 h -9.84 v 49.375 h 9.84" /><path
             id="path56"
             style="fill:#231f20;fill-opacity:1;fill-rule:nonzero;stroke:none"
             d="m 1272.4,70.3125 h 9.84 v -49.375 h -9.84 z m 4.92,20.7813 c 1.6,0 2.99,-0.5586 4.14,-1.668 1.13,-1.1133 1.72,-2.4727 1.72,-4.082 0,-1.5821 -0.59,-2.9415 -1.72,-4.0938 -1.15,-1.1406 -2.54,-1.7187 -4.14,-1.7187 -1.5,0 -2.83,0.5859 -3.99,1.75 -1.15,1.1601 -1.71,2.5195 -1.71,4.0625 0,1.5039 0.56,2.8398 1.71,4.0039 1.16,1.1601 2.49,1.7461 3.99,1.7461" /><path
             id="path58"
             style="fill:#231f20;fill-opacity:1;fill-rule:nonzero;stroke:none"
             d="M 1354.29,32.3438 V 22.7266 C 1349.35,20.9063 1344.53,20 1339.82,20 c -7.77,0 -13.97,2.2969 -18.59,6.8945 -4.63,4.5977 -6.94,10.7618 -6.94,18.4883 0,7.793 2.25,14.082 6.78,18.8555 4.51,4.7773 10.45,7.168 17.81,7.168 2.56,0 4.87,-0.2461 6.92,-0.7227 2.03,-0.4883 4.55,-1.3984 7.55,-2.7227 V 57.5 c -5.02,3.2227 -9.64,4.8438 -13.92,4.8438 -4.47,0 -8.13,-1.5625 -11,-4.6875 -2.87,-3.125 -4.29,-7.1094 -4.29,-11.9532 0,-5.0976 1.54,-9.1406 4.62,-12.1367 3.09,-3 7.25,-4.5039 12.49,-4.5039 3.78,0 8.12,1.0938 13.04,3.2813" /><path
             id="path60"
             style="fill:none;stroke:#231f20;stroke-width:7.4749999;stroke-linecap:butt;stroke-linejoin:miter;stroke-miterlimit:4;stroke-dasharray:none;stroke-opacity:1"
             d="M 6.34766,198.555 H 1354.25" /><path
             id="path62"
             style="fill:#e51635;fill-opacity:1;fill-rule:nonzero;stroke:none"
             d="m 241.926,291.145 -47.973,85.527 H 367.258 L 280.227,561.027 152.637,291.145 H 0 L 199.844,655.441 H 360.613 L 558.984,291.145 H 241.926" /><path
             id="path64"
             style="fill:#e51635;fill-opacity:1;fill-rule:nonzero;stroke:none"
             d="m 559.734,502.773 h 190.243 c 47.968,0 67.109,2.969 67.109,36.883 0,32.473 -15.469,36.157 -64.902,36.157 h -193.2 l -42.793,79.628 h 268.454 c 126.875,0 174.043,-55.343 174.043,-114.308 0,-56.797 -43.497,-119.461 -182.852,-119.461 H 712.359 V 291.145 H 558.984 v 211.628 h 0.75" /><path
             id="path66"
             style="fill:#e51635;fill-opacity:1;fill-rule:nonzero;stroke:none"
             d="m 1356.21,318.418 c -45.73,-21.387 -102.5,-31.727 -162.99,-31.727 -182.89,0 -245.568,101.786 -245.568,185.86 0,106.16 92.908,188.047 252.968,188.047 58.24,0 109.12,-8.828 151.88,-25.071 V 530.07 c -44.22,23.582 -82.58,33.926 -127.58,33.926 -76.7,0 -139.38,-34.648 -139.38,-89.953 0,-54.59 64.16,-90 140.86,-90 44.28,0 80.39,8.84 129.81,31.719 v -97.344" /><path
             id="path68"
             style="fill:#231f20;fill-opacity:1;fill-rule:nonzero;stroke:none"
             d="m 1379.17,631.152 c -1.47,0 -2.27,0.762 -2.27,2.09 v 0.227 c 0,1.316 0.8,2.031 2.27,2.031 h 21.6 c 1.47,0 2.21,-0.715 2.21,-2.031 v -0.227 c 0,-1.328 -0.74,-2.09 -2.21,-2.09 h -8.35 v -24.148 c 0,-1.457 -0.75,-2.219 -2.17,-2.219 h -0.66 c -1.37,0 -2.08,0.762 -2.08,2.219 v 24.148 h -8.34" /><path
             id="path70"
             style="fill:#231f20;fill-opacity:1;fill-rule:nonzero;stroke:none"
             d="M 1407.2,607.004 V 633 c 0,1.648 1.09,2.695 2.79,2.695 h 1.26 c 1.9,0 2.42,-0.715 3.17,-2.453 l 7.22,-16.289 7.26,16.289 c 0.76,1.789 1.33,2.453 3.12,2.453 h 1.18 c 1.75,0 2.88,-1.047 2.88,-2.695 v -25.996 c 0,-1.457 -0.62,-2.219 -2.03,-2.219 h -0.67 c -1.36,0 -1.92,0.762 -1.92,2.219 v 22.41 l -6.76,-15.195 c -0.51,-1.231 -1.03,-2.071 -3.1,-2.071 -2.13,0 -2.55,0.84 -3.12,2.071 l -6.66,15.058 v -22.273 c 0,-1.457 -0.57,-2.219 -1.98,-2.219 h -0.75 c -1.32,0 -1.89,0.762 -1.89,2.219" /></g></g></g></g></svg>