<?xml version="1.0" encoding="UTF-8" standalone="no"?>
<!DOCTYPE svg PUBLIC "-//W3C//DTD SVG 1.1//EN" "http://www.w3.org/Graphics/SVG/1.1/DTD/svg11.dtd">
<svg version="1.1" xmlns="http://www.w3.org/2000/svg" xmlns:xlink="http://www.w3.org/1999/xlink" preserveAspectRatio="xMidYMid meet" viewBox="-0.3333333333333144 -1 292.0862068965517 221" width="288.09" height="217"><defs><path d="M161.5 74.83L127.87 63.6L127.87 14.97L161.55 24.94L161.5 74.83" id="a6i78UWRW5"></path><path d="M170.28 24.94L203.95 14.97L203.83 63.57L170.28 74.83L170.28 24.94" id="c1kSBIZSmk"></path><path d="M197.09 9.7L165.71 0L134.73 9.7L165.75 18.01L197.09 9.7" id="f2C7jVbD0O"></path><path d="M246.31 74.83L212.68 63.6L212.68 14.97L246.35 24.94L246.31 74.83" id="b3wlRdjpNf"></path><path d="M255.08 24.94L288.75 14.97L288.64 63.57L255.08 74.83L255.08 24.94" id="c6WqZeXWHv"></path><path d="M281.89 9.7L250.51 0L219.54 9.7L250.56 18.01L281.89 9.7" id="b2HTNUfPC"></path><path d="M34.34 96.03L0.67 86.05L0.67 134.69L34.3 145.91L34.34 96.03" id="m49ORF42U"></path><path d="M43.07 96.03L76.74 86.05L76.62 134.66L43.07 145.91L43.07 96.03" id="f1RDQfOHjD"></path><path d="M69.88 80.79L38.5 71.09L7.53 80.79L38.54 89.1L69.88 80.79" id="a194LFvtNE"></path><path d="M119.1 145.91L85.47 134.69L85.47 86.05L119.14 96.03L119.1 145.91" id="b5elu9AInk"></path><path d="M127.87 96.03L161.55 86.05L161.43 134.66L127.87 145.91L127.87 96.03" id="c4eqlFk4NP"></path><path d="M154.69 80.79L123.3 71.09L92.33 80.79L123.35 89.1L154.69 80.79" id="a1LgrdZCg1"></path><path d="M76.7 217L43.07 205.78L43.07 157.14L76.74 167.11L76.7 217" id="ar9tHB3jz"></path><path d="M85.47 167.11L119.14 157.14L119.03 205.74L85.47 217L85.47 167.11" id="a7bimAJdvo"></path><path d="M112.28 151.87L80.9 142.17L49.93 151.87L80.95 160.19L112.28 151.87" id="a46ujOx2SR"></path></defs><g><g><use xlink:href="#a6i78UWRW5" opacity="1" fill="#f68d11" fill-opacity="1"></use><g><use xlink:href="#a6i78UWRW5" opacity="1" fill-opacity="0" stroke="#000000" stroke-width="1" stroke-opacity="0"></use></g></g><g><use xlink:href="#c1kSBIZSmk" opacity="1" fill="#f68d11" fill-opacity="1"></use><g><use xlink:href="#c1kSBIZSmk" opacity="1" fill-opacity="0" stroke="#000000" stroke-width="1" stroke-opacity="0"></use></g></g><g><use xlink:href="#f2C7jVbD0O" opacity="1" fill="#f68d11" fill-opacity="1"></use><g><use xlink:href="#f2C7jVbD0O" opacity="1" fill-opacity="0" stroke="#000000" stroke-width="1" stroke-opacity="0"></use></g></g><g><use xlink:href="#b3wlRdjpNf" opacity="1" fill="#f68d11" fill-opacity="1"></use><g><use xlink:href="#b3wlRdjpNf" opacity="1" fill-opacity="0" stroke="#000000" stroke-width="1" stroke-opacity="0"></use></g></g><g><use xlink:href="#c6WqZeXWHv" opacity="1" fill="#f68d11" fill-opacity="1"></use><g><use xlink:href="#c6WqZeXWHv" opacity="1" fill-opacity="0" stroke="#000000" stroke-width="1" stroke-opacity="0"></use></g></g><g><use xlink:href="#b2HTNUfPC" opacity="1" fill="#f68d11" fill-opacity="1"></use><g><use xlink:href="#b2HTNUfPC" opacity="1" fill-opacity="0" stroke="#000000" stroke-width="1" stroke-opacity="0"></use></g></g><g><use xlink:href="#m49ORF42U" opacity="1" fill="#f68d11" fill-opacity="1"></use><g><use xlink:href="#m49ORF42U" opacity="1" fill-opacity="0" stroke="#000000" stroke-width="1" stroke-opacity="0"></use></g></g><g><use xlink:href="#f1RDQfOHjD" opacity="1" fill="#f68d11" fill-opacity="1"></use><g><use xlink:href="#f1RDQfOHjD" opacity="1" fill-opacity="0" stroke="#000000" stroke-width="1" stroke-opacity="0"></use></g></g><g><use xlink:href="#a194LFvtNE" opacity="1" fill="#f68d11" fill-opacity="1"></use><g><use xlink:href="#a194LFvtNE" opacity="1" fill-opacity="0" stroke="#000000" stroke-width="1" stroke-opacity="0"></use></g></g><g><use xlink:href="#b5elu9AInk" opacity="1" fill="#f68d11" fill-opacity="1"></use><g><use xlink:href="#b5elu9AInk" opacity="1" fill-opacity="0" stroke="#000000" stroke-width="1" stroke-opacity="0"></use></g></g><g><use xlink:href="#c4eqlFk4NP" opacity="1" fill="#f68d11" fill-opacity="1"></use><g><use xlink:href="#c4eqlFk4NP" opacity="1" fill-opacity="0" stroke="#000000" stroke-width="1" stroke-opacity="0"></use></g></g><g><use xlink:href="#a1LgrdZCg1" opacity="1" fill="#f68d11" fill-opacity="1"></use><g><use xlink:href="#a1LgrdZCg1" opacity="1" fill-opacity="0" stroke="#000000" stroke-width="1" stroke-opacity="0"></use></g></g><g><use xlink:href="#ar9tHB3jz" opacity="1" fill="#f68d11" fill-opacity="1"></use><g><use xlink:href="#ar9tHB3jz" opacity="1" fill-opacity="0" stroke="#000000" stroke-width="1" stroke-opacity="0"></use></g></g><g><use xlink:href="#a7bimAJdvo" opacity="1" fill="#f68d11" fill-opacity="1"></use><g><use xlink:href="#a7bimAJdvo" opacity="1" fill-opacity="0" stroke="#000000" stroke-width="1" stroke-opacity="0"></use></g></g><g><use xlink:href="#a46ujOx2SR" opacity="1" fill="#f68d11" fill-opacity="1"></use><g><use xlink:href="#a46ujOx2SR" opacity="1" fill-opacity="0" stroke="#000000" stroke-width="1" stroke-opacity="0"></use></g></g></g></svg>