<?xml version="1.0" encoding="UTF-8" standalone="no"?>
<!-- Created with Inkscape (http://www.inkscape.org/) -->

<svg
   xmlns:dc="http://purl.org/dc/elements/1.1/"
   xmlns:cc="http://creativecommons.org/ns#"
   xmlns:rdf="http://www.w3.org/1999/02/22-rdf-syntax-ns#"
   xmlns:svg="http://www.w3.org/2000/svg"
   xmlns="http://www.w3.org/2000/svg"
   xmlns:sodipodi="http://sodipodi.sourceforge.net/DTD/sodipodi-0.dtd"
   xmlns:inkscape="http://www.inkscape.org/namespaces/inkscape"
   width="24.148739mm"
   height="3.99632mm"
   viewBox="0 0 24.148739 3.99632"
   version="1.1"
   id="svg8"
   inkscape:version="0.92.4 (5da689c313, 2019-01-14)"
   sodipodi:docname="beanstalkd.svg">
  <defs
     id="defs2" />
  <sodipodi:namedview
     id="base"
     pagecolor="#ffffff"
     bordercolor="#666666"
     borderopacity="1.0"
     inkscape:pageopacity="0.0"
     inkscape:pageshadow="2"
     inkscape:zoom="3.959798"
     inkscape:cx="43.971005"
     inkscape:cy="-30.84196"
     inkscape:document-units="mm"
     inkscape:current-layer="layer1"
     showgrid="false"
     inkscape:window-width="1920"
     inkscape:window-height="986"
     inkscape:window-x="-11"
     inkscape:window-y="-11"
     inkscape:window-maximized="1" />
  <metadata
     id="metadata5">
    <rdf:RDF>
      <cc:Work
         rdf:about="">
        <dc:format>image/svg+xml</dc:format>
        <dc:type
           rdf:resource="http://purl.org/dc/dcmitype/StillImage" />
        <dc:title></dc:title>
      </cc:Work>
    </rdf:RDF>
  </metadata>
  <g
     inkscape:label="Layer 1"
     inkscape:groupmode="layer"
     id="layer1"
     transform="translate(-14.349308,-16.402286)">
    <g
       aria-label="beanstalkd"
       style="font-style:normal;font-variant:normal;font-weight:normal;font-stretch:normal;font-size:5.64444447px;line-height:1.25;font-family:'Times New Roman';-inkscape-font-specification:'Times New Roman, ';letter-spacing:0px;word-spacing:0px;fill:#000000;fill-opacity:1;stroke:none;stroke-width:0.26458332"
       id="text817">
      <path
         d="m 15.231258,18.232322 q 0.366559,-0.509874 0.790994,-0.509874 0.388607,0 0.677995,0.333485 0.289388,0.33073 0.289388,0.90675 0,0.672482 -0.446484,1.083138 -0.383095,0.352777 -0.854384,0.352777 -0.220486,0 -0.44924,-0.07993 -0.225999,-0.07993 -0.463021,-0.239778 v -2.615517 q 0,-0.429948 -0.02205,-0.529167 -0.01929,-0.09922 -0.06339,-0.135047 -0.0441,-0.03583 -0.110243,-0.03583 -0.07717,0 -0.192925,0.0441 l -0.03859,-0.09646 0.757921,-0.30868 h 0.124023 z m 0,0.176389 v 1.51033 q 0.14056,0.137804 0.289388,0.209462 0.151585,0.0689 0.308681,0.0689 0.250803,0 0.465777,-0.275608 0.21773,-0.275607 0.21773,-0.802018 0,-0.485069 -0.21773,-0.744141 -0.214974,-0.261827 -0.490582,-0.261827 -0.146072,0 -0.292144,0.07441 -0.110243,0.05512 -0.28112,0.220486 z"
         style="stroke-width:0.26458332"
         id="path819"
         inkscape:connector-curvature="0" />
      <path
         d="m 17.786141,18.747709 q -0.0028,0.562239 0.272852,0.881944 0.275607,0.319705 0.647678,0.319705 0.248047,0 0.429948,-0.135048 0.184657,-0.137804 0.30868,-0.468533 l 0.08544,0.05512 q -0.05788,0.377582 -0.336242,0.689019 -0.278363,0.30868 -0.697287,0.30868 -0.454753,0 -0.77997,-0.352777 -0.322461,-0.355534 -0.322461,-0.953603 0,-0.647678 0.33073,-1.008724 0.333485,-0.363802 0.835091,-0.363802 0.424435,0 0.697287,0.28112 0.272852,0.278364 0.272852,0.746897 z m 0,-0.159853 h 1.168577 q -0.01378,-0.242534 -0.05788,-0.341753 -0.0689,-0.154341 -0.206706,-0.242535 -0.135047,-0.08819 -0.283876,-0.08819 -0.228754,0 -0.410655,0.179145 -0.179145,0.176388 -0.209462,0.493337 z"
         style="stroke-width:0.26458332"
         id="path821"
         inkscape:connector-curvature="0" />
      <path
         d="m 21.294626,19.957626 q -0.388606,0.300413 -0.487825,0.347266 -0.148828,0.0689 -0.316949,0.0689 -0.261827,0 -0.432704,-0.179145 -0.168121,-0.179145 -0.168121,-0.471289 0,-0.184657 0.08268,-0.319705 0.112999,-0.187413 0.391363,-0.352778 0.281119,-0.165365 0.931553,-0.402387 v -0.09922 q 0,-0.377582 -0.121267,-0.518142 -0.118511,-0.14056 -0.347266,-0.14056 -0.173632,0 -0.275607,0.09371 -0.104731,0.09371 -0.104731,0.214973 l 0.0055,0.159853 q 0,0.126779 -0.06615,0.195681 -0.06339,0.0689 -0.168121,0.0689 -0.101974,0 -0.16812,-0.07166 -0.06339,-0.07166 -0.06339,-0.195681 0,-0.237023 0.242535,-0.43546 0.242534,-0.198438 0.680751,-0.198438 0.336241,0 0.551215,0.112999 0.162608,0.08544 0.239779,0.26734 0.04961,0.118511 0.04961,0.485069 v 0.85714 q 0,0.361046 0.01378,0.443728 0.01378,0.07993 0.0441,0.107487 0.03307,0.02756 0.07441,0.02756 0.0441,0 0.07717,-0.01929 0.05788,-0.03583 0.223242,-0.201194 v 0.15434 q -0.308681,0.413412 -0.5898,0.413412 -0.135048,0 -0.214974,-0.09371 -0.07993,-0.09371 -0.08268,-0.319705 z m 0,-0.179145 v -0.96187 q -0.416167,0.165364 -0.537435,0.234266 -0.21773,0.121267 -0.311436,0.253559 -0.09371,0.132292 -0.09371,0.289388 0,0.198438 0.118511,0.330729 0.118512,0.129536 0.272852,0.129536 0.209462,0 0.551215,-0.275608 z"
         style="stroke-width:0.26458332"
         id="path823"
         inkscape:connector-curvature="0" />
      <path
         d="m 23.102613,18.257127 q 0.443728,-0.534679 0.846115,-0.534679 0.206706,0 0.355534,0.104731 0.148828,0.101975 0.237023,0.338998 0.06063,0.165364 0.06063,0.507118 v 1.077625 q 0,0.239779 0.03858,0.325217 0.03032,0.0689 0.09646,0.107487 0.0689,0.03859 0.250803,0.03859 v 0.09922 h -1.248503 v -0.09922 h 0.05237 q 0.176389,0 0.245291,-0.05237 0.07166,-0.05512 0.09922,-0.159852 0.01103,-0.04134 0.01103,-0.259072 v -1.033528 q 0,-0.34451 -0.09095,-0.49885 -0.08819,-0.157096 -0.300412,-0.157096 -0.327973,0 -0.65319,0.35829 v 1.331184 q 0,0.256316 0.03032,0.316949 0.03858,0.07993 0.104731,0.118512 0.0689,0.03583 0.275607,0.03583 v 0.09922 H 22.26477 v -0.09922 h 0.05512 q 0.192925,0 0.259071,-0.09646 0.0689,-0.09922 0.0689,-0.374827 v -0.937065 q 0,-0.454753 -0.02205,-0.553972 -0.01929,-0.09922 -0.06339,-0.135048 -0.04134,-0.03583 -0.112999,-0.03583 -0.07717,0 -0.184657,0.04134 l -0.04134,-0.09922 0.760677,-0.308681 h 0.118512 z"
         style="stroke-width:0.26458332"
         id="path825"
         inkscape:connector-curvature="0" />
      <path
         d="m 26.820559,17.722448 v 0.859896 h -0.09095 q -0.104731,-0.405143 -0.270096,-0.551215 -0.162608,-0.146072 -0.416167,-0.146072 -0.192926,0 -0.311437,0.101975 -0.118511,0.101974 -0.118511,0.225998 0,0.15434 0.08819,0.264583 0.08544,0.112999 0.347266,0.239779 l 0.402387,0.195681 q 0.559484,0.272852 0.559484,0.719336 0,0.34451 -0.261828,0.556728 -0.259071,0.209461 -0.581532,0.209461 -0.23151,0 -0.529166,-0.08268 -0.09095,-0.02756 -0.148829,-0.02756 -0.06339,0 -0.09922,0.07166 H 25.2992 v -0.901237 h 0.09095 q 0.07717,0.385851 0.2949,0.581533 0.21773,0.195681 0.487825,0.195681 0.19017,0 0.308681,-0.110243 0.121267,-0.112999 0.121267,-0.270096 0,-0.190169 -0.135047,-0.319704 -0.132292,-0.129536 -0.531923,-0.327974 -0.399631,-0.198437 -0.523655,-0.358289 -0.124023,-0.157097 -0.124023,-0.396875 0,-0.311437 0.212218,-0.520899 0.214974,-0.209462 0.553971,-0.209462 0.148828,0 0.361046,0.06339 0.14056,0.04134 0.187413,0.04134 0.0441,0 0.0689,-0.01929 0.0248,-0.01929 0.05788,-0.08544 z"
         style="stroke-width:0.26458332"
         id="path827"
         inkscape:connector-curvature="0" />
      <path
         d="m 28.115916,16.967283 v 0.829579 h 0.5898 v 0.192926 h -0.5898 v 1.637109 q 0,0.245291 0.0689,0.330729 0.07166,0.08544 0.181901,0.08544 0.09095,0 0.176388,-0.05512 0.08544,-0.05788 0.132292,-0.168121 h 0.107487 q -0.09646,0.270096 -0.272851,0.4079 -0.176389,0.135047 -0.363803,0.135047 -0.126779,0 -0.248046,-0.0689 -0.121268,-0.07166 -0.179145,-0.201194 -0.05788,-0.132292 -0.05788,-0.405143 v -1.697743 h -0.399631 v -0.09095 q 0.151584,-0.06063 0.30868,-0.20395 0.159853,-0.146072 0.283876,-0.344509 0.06339,-0.104731 0.176389,-0.383095 z"
         style="stroke-width:0.26458332"
         id="path829"
         inkscape:connector-curvature="0" />
      <path
         d="m 30.378655,19.957626 q -0.388607,0.300413 -0.487826,0.347266 -0.148828,0.0689 -0.316949,0.0689 -0.261827,0 -0.432704,-0.179145 -0.16812,-0.179145 -0.16812,-0.471289 0,-0.184657 0.08268,-0.319705 0.112999,-0.187413 0.391363,-0.352778 0.28112,-0.165365 0.931554,-0.402387 v -0.09922 q 0,-0.377582 -0.121268,-0.518142 -0.118511,-0.14056 -0.347265,-0.14056 -0.173633,0 -0.275608,0.09371 -0.104731,0.09371 -0.104731,0.214973 l 0.0055,0.159853 q 0,0.126779 -0.06615,0.195681 -0.06339,0.0689 -0.16812,0.0689 -0.101975,0 -0.168121,-0.07166 -0.06339,-0.07166 -0.06339,-0.195681 0,-0.237023 0.242535,-0.43546 0.242535,-0.198438 0.680751,-0.198438 0.336241,0 0.551215,0.112999 0.162609,0.08544 0.239779,0.26734 0.04961,0.118511 0.04961,0.485069 v 0.85714 q 0,0.361046 0.01378,0.443728 0.01378,0.07993 0.0441,0.107487 0.03307,0.02756 0.07441,0.02756 0.0441,0 0.07717,-0.01929 0.05788,-0.03583 0.223242,-0.201194 v 0.15434 q -0.30868,0.413412 -0.5898,0.413412 -0.135048,0 -0.214974,-0.09371 -0.07993,-0.09371 -0.08268,-0.319705 z m 0,-0.179145 v -0.96187 q -0.416168,0.165364 -0.537435,0.234266 -0.21773,0.121267 -0.311437,0.253559 -0.09371,0.132292 -0.09371,0.289388 0,0.198438 0.118512,0.330729 0.118511,0.129536 0.272851,0.129536 0.209462,0 0.551216,-0.275608 z"
         style="stroke-width:0.26458332"
         id="path831"
         inkscape:connector-curvature="0" />
      <path
         d="m 32.318933,16.402288 v 3.348632 q 0,0.237023 0.03307,0.314193 0.03583,0.07717 0.107487,0.118511 0.07166,0.03859 0.267339,0.03859 v 0.09922 h -1.237478 v -0.09922 q 0.173633,0 0.237022,-0.03583 0.06339,-0.03583 0.09922,-0.118512 0.03583,-0.08268 0.03583,-0.316949 v -2.293055 q 0,-0.427192 -0.01929,-0.523655 -0.01929,-0.09922 -0.06339,-0.135047 -0.04134,-0.03583 -0.107487,-0.03583 -0.07166,0 -0.181901,0.0441 l -0.04685,-0.09646 0.752409,-0.30868 z"
         style="stroke-width:0.26458332"
         id="path833"
         inkscape:connector-curvature="0" />
      <path
         d="m 33.763116,16.402288 v 2.510785 l 0.642166,-0.584288 q 0.203949,-0.187413 0.237022,-0.237023 0.02205,-0.03307 0.02205,-0.06614 0,-0.05512 -0.04685,-0.09371 -0.0441,-0.04134 -0.148828,-0.04685 v -0.08819 h 1.096918 v 0.08819 q -0.225998,0.0055 -0.377583,0.0689 -0.148828,0.06339 -0.327973,0.225998 l -0.647678,0.598069 0.647678,0.818554 q 0.270096,0.338998 0.363802,0.429948 0.132292,0.129536 0.231511,0.168121 0.0689,0.02756 0.239779,0.02756 v 0.09922 h -1.226454 v -0.09922 q 0.10473,-0.0028 0.140559,-0.03032 0.03859,-0.03032 0.03859,-0.08268 0,-0.06339 -0.110244,-0.203949 l -0.774457,-0.989432 v 0.837848 q 0,0.24529 0.03307,0.32246 0.03583,0.07717 0.09922,0.110244 0.06339,0.03307 0.275607,0.03583 v 0.09922 H 32.88669 v -0.09922 q 0.192925,0 0.289388,-0.04685 0.05788,-0.03032 0.08819,-0.09371 0.04134,-0.09095 0.04134,-0.314193 v -2.298568 q 0,-0.438216 -0.01929,-0.534679 -0.01929,-0.09922 -0.06339,-0.135047 -0.0441,-0.03859 -0.115755,-0.03859 -0.05788,0 -0.173633,0.04685 l -0.04685,-0.09646 0.749652,-0.30868 z"
         style="stroke-width:0.26458332"
         id="path835"
         inkscape:connector-curvature="0" />
      <path
         d="m 37.621622,20.037552 q -0.184657,0.192926 -0.361046,0.278364 -0.176388,0.08268 -0.380338,0.08268 -0.413412,0 -0.722092,-0.344509 -0.308681,-0.347266 -0.308681,-0.890213 0,-0.542947 0.341754,-0.992187 0.341753,-0.451997 0.879188,-0.451997 0.333485,0 0.551215,0.212218 v -0.465777 q 0,-0.432704 -0.02205,-0.531923 -0.01929,-0.09922 -0.06339,-0.135047 -0.0441,-0.03583 -0.110243,-0.03583 -0.07166,0 -0.190169,0.0441 l -0.03583,-0.09646 0.752409,-0.30868 h 0.124023 v 2.918685 q 0,0.443728 0.01929,0.542947 0.02205,0.09646 0.06614,0.135047 0.04685,0.03859 0.107487,0.03859 0.07441,0 0.198438,-0.04685 l 0.03032,0.09646 -0.749653,0.311436 h -0.12678 z m 0,-0.192925 v -1.300868 q -0.01654,-0.187413 -0.09922,-0.341753 -0.08268,-0.154341 -0.220486,-0.231511 -0.135048,-0.07993 -0.264584,-0.07993 -0.242534,0 -0.432704,0.21773 -0.250803,0.286632 -0.250803,0.837847 0,0.556728 0.242535,0.854384 0.242535,0.2949 0.540191,0.2949 0.250803,0 0.485069,-0.250803 z"
         style="stroke-width:0.26458332"
         id="path837"
         inkscape:connector-curvature="0" />
    </g>
  </g>
</svg>
