<?xml version="1.0" encoding="UTF-8" standalone="no"?>
<!-- Generator: Adobe Illustrator 13.0.0, SVG Export Plug-In . SVG Version: 6.00 Build 14948)  -->
<svg
   xmlns:dc="http://purl.org/dc/elements/1.1/"
   xmlns:cc="http://web.resource.org/cc/"
   xmlns:rdf="http://www.w3.org/1999/02/22-rdf-syntax-ns#"
   xmlns:svg="http://www.w3.org/2000/svg"
   xmlns="http://www.w3.org/2000/svg"
   xmlns:sodipodi="http://sodipodi.sourceforge.net/DTD/sodipodi-0.dtd"
   xmlns:inkscape="http://www.inkscape.org/namespaces/inkscape"
   version="1.0"
   id="Layer_1"
   x="0px"
   y="0px"
   width="1004"
   height="420"
   viewBox="0 0 170.064 70.992"
   enable-background="new 0 0 170.064 70.992"
   xml:space="preserve"
   sodipodi:version="0.32"
   inkscape:version="0.45.1"
   sodipodi:docname="boinc_logo copy.svg"
   sodipodi:docbase="/Users/mtughan/Downloads"
   inkscape:output_extension="org.inkscape.output.svg.inkscape"><metadata
   id="metadata2274"><rdf:RDF><cc:Work
       rdf:about=""><dc:format>image/svg+xml</dc:format><dc:type
         rdf:resource="http://purl.org/dc/dcmitype/StillImage" /></cc:Work></rdf:RDF></metadata><defs
   id="defs2272" /><sodipodi:namedview
   inkscape:window-height="581"
   inkscape:window-width="701"
   inkscape:pageshadow="2"
   inkscape:pageopacity="0.0"
   guidetolerance="10.0"
   gridtolerance="10.0"
   objecttolerance="10.0"
   borderopacity="1.0"
   bordercolor="#666666"
   pagecolor="#ffffff"
   id="base"
   width="1004px"
   height="420px"
   inkscape:zoom="0.90407143"
   inkscape:cx="258.58057"
   inkscape:cy="79.74029"
   inkscape:window-x="201"
   inkscape:window-y="23"
   inkscape:current-layer="Layer_1" />
<g
   id="g2237">
	<path
   d="M 30.6,44.28 C 30.6,49.176 27.216,51.552 20.376,51.552 L 0,51.552 L 0,18.648 L 20.016,18.648 C 26.856,18.648 30.24,21.024 30.24,25.848 L 30.24,28.8 C 30.24,30.384 29.664,31.68 28.512,32.688 C 27.288,33.624 25.704,34.128 23.616,34.2 C 28.296,34.416 30.6,36.432 30.6,40.392 L 30.6,44.28 L 30.6,44.28 z M 23.544,41.112 C 23.544,39.816 23.256,38.88 22.608,38.304 C 21.96,37.728 20.88,37.44 19.368,37.44 L 7.992,37.44 L 7.992,44.784 L 19.368,44.784 C 20.88,44.784 21.96,44.496 22.608,43.992 C 23.256,43.416 23.544,42.48 23.544,41.112 L 23.544,41.112 z M 19.08,31.32 C 20.592,31.32 21.672,31.032 22.248,30.6 C 22.824,30.096 23.184,29.232 23.184,28.008 C 23.184,26.784 22.824,25.92 22.248,25.488 C 21.672,24.984 20.592,24.768 19.08,24.768 L 7.992,24.768 L 7.992,31.32 L 19.08,31.32 L 19.08,31.32 z "
   id="path2239"
   style="fill:#265581" />
	<path
   d="M 170.064,51.552 L 151.992,51.552 C 148.824,51.552 146.376,50.688 144.576,48.888 C 142.776,47.088 141.912,44.64 141.912,41.472 L 141.912,29.376 C 141.912,26.208 142.776,23.904 144.576,22.104 C 146.376,20.304 148.824,19.44 151.992,19.44 L 170.064,19.44 L 170.064,25.992 L 153.936,25.992 C 151.344,25.992 150.048,27.288 150.048,29.88 L 150.048,40.968 C 150.048,43.488 151.344,44.784 153.936,44.784 L 170.064,44.784 L 170.064,51.552 L 170.064,51.552 z "
   id="path2241"
   style="fill:#265581" />
	<path
   d="M 105.84,51.552 L 105.84,29.088 C 105.84,25.92 106.704,23.472 108.504,21.672 C 110.304,19.944 112.752,19.008 115.92,19.008 L 126.072,19.008 C 129.24,19.008 131.976,19.944 133.704,21.672 C 135.504,23.472 136.872,25.776 136.872,28.944 L 136.872,51.552 L 128.736,51.552 L 128.736,29.592 C 128.736,27 127.44,25.776 124.776,25.776 L 116.568,25.776 C 114.048,25.776 112.752,27 112.752,29.592 L 112.752,51.552 L 105.84,51.552 L 105.84,51.552 z "
   id="path2243"
   style="fill:#265581" />
	<rect
   x="92.232002"
   y="20.087999"
   width="8.2080002"
   height="31.464001"
   id="rect2245"
   style="fill:#265581" />
	<rect
   x="77.903999"
   y="43.675999"
   clip-rule="evenodd"
   width="0"
   height="6.823"
   id="rect2247"
   style="fill-rule:evenodd" />
	<radialGradient
   id="SVGID_1_"
   cx="60.704102"
   cy="35.215801"
   r="16.1059"
   gradientUnits="userSpaceOnUse">
		<stop
   offset="0"
   style="stop-color:#F9C635"
   id="stop2250" />
		<stop
   offset="0.52"
   style="stop-color:#F9C635"
   id="stop2252" />
		<stop
   offset="0.71"
   style="stop-color:#F7B832"
   id="stop2254" />
		<stop
   offset="1"
   style="stop-color:#F7B832"
   id="stop2256" />
	</radialGradient>
	<path
   clip-rule="evenodd"
   d="M 60.912,46.872 C 67.176,46.872 72.288,41.76 72.288,35.496 C 72.288,29.232 67.176,24.12 60.912,24.12 C 54.576,24.12 49.464,29.232 49.464,35.496 C 49.464,41.76 54.576,46.872 60.912,46.872 z "
   id="path2258"
   style="fill:url(#SVGID_1_);fill-rule:evenodd" />
	<radialGradient
   id="SVGID_2_"
   cx="64.704102"
   cy="35.215801"
   r="111.2814"
   gradientUnits="userSpaceOnUse">
		<stop
   offset="0"
   style="stop-color:#265581"
   id="stop2261" />
		<stop
   offset="0.24"
   style="stop-color:#265581"
   id="stop2263" />
		<stop
   offset="0.61"
   style="stop-color:#0086B8"
   id="stop2265" />
		<stop
   offset="1"
   style="stop-color:#0086B8"
   id="stop2267" />
	</radialGradient>
	<path
   clip-rule="evenodd"
   d="M 75.456,44.784 L 75.456,44.712 C 74.808,45.648 74.088,46.512 73.224,47.304 C 72.36,48.096 71.496,48.816 70.56,49.464 L 70.56,49.464 L 70.56,49.464 C 69.912,49.824 69.192,50.184 68.544,50.544 L 68.472,50.472 L 68.472,50.472 L 68.472,50.472 C 66.528,51.48 64.368,51.984 62.208,52.128 C 60.984,52.272 59.76,52.2 58.536,52.056 L 58.536,52.056 C 58.464,52.056 58.32,52.056 58.248,51.984 C 56.448,51.768 56.016,51.84 54.864,53.136 L 51.12,56.88 C 55.944,58.968 61.272,59.4 66.384,58.32 C 66.456,58.248 66.528,58.248 66.6,58.248 L 66.6,58.248 C 69.624,57.528 72.576,56.304 75.168,54.432 L 86.256,64.656 C 91.224,69.192 95.904,70.992 101.664,70.992 L 170.064,70.992 L 170.064,64.296 L 101.736,64.296 C 98.784,64.296 94.896,63 92.016,60.264 L 75.456,44.784 L 75.456,44.784 z M 53.424,20.52 L 53.424,20.52 L 53.424,20.52 C 56.016,19.224 58.896,18.72 61.704,18.792 C 61.776,18.792 61.776,18.792 61.848,18.792 L 61.848,18.792 L 61.92,18.792 C 62.424,18.864 62.928,18.864 63.432,18.936 L 63.432,18.936 C 63.504,18.936 63.576,19.008 63.648,19.008 C 65.448,19.224 65.88,19.224 67.104,17.928 L 70.776,14.112 C 70.2,13.896 69.696,13.68 69.12,13.464 L 69.12,13.464 C 67.176,12.816 65.16,12.384 63.144,12.24 L 63.144,12.168 L 63,12.168 C 58.896,11.88 54.72,12.528 50.904,14.256 C 49.464,14.832 48.096,15.624 46.8,16.56 L 35.64,6.336 C 30.672,1.8 26.064,0 20.232,0 L 0,0 L 0,6.696 L 20.16,6.696 C 23.112,6.696 27,7.992 29.88,10.728 L 46.512,26.28 L 46.584,26.28 C 47.16,25.344 47.88,24.48 48.744,23.688 C 49.608,22.896 50.472,22.176 51.48,21.528 L 51.48,21.528 L 51.48,21.528 C 52.056,21.168 52.704,20.808 53.424,20.52 L 53.424,20.52 L 53.424,20.52 z M 83.304,44.568 L 79.992,41.76 C 78.336,40.32 78.048,39.744 78.12,37.872 L 78.12,37.8 C 78.12,37.656 78.192,37.44 78.192,37.224 C 78.192,37.08 78.192,36.936 78.264,36.792 C 78.264,36.648 78.264,36.576 78.264,36.504 C 78.552,31.896 76.896,27.216 73.224,23.688 C 72.36,22.896 71.496,22.176 70.56,21.528 L 86.256,6.336 C 91.08,1.656 95.904,0 101.664,0 L 170.064,0 L 170.064,6.696 L 101.736,6.696 C 98.784,6.696 94.896,7.992 92.016,10.728 C 90.648,12.024 80.712,21.96 80.712,21.96 C 84.96,27.72 86.112,34.848 84.456,41.4 C 84.384,41.472 84.384,41.544 84.312,41.616 L 84.312,41.616 C 84.096,42.624 83.736,43.632 83.304,44.568 L 83.304,44.568 z M 38.52,26.424 L 41.76,29.304 C 43.416,30.672 43.776,31.248 43.632,33.192 L 43.632,33.192 L 43.632,33.264 C 43.632,33.552 43.56,33.912 43.56,34.272 C 43.488,35.208 43.488,36.072 43.56,37.008 C 43.92,40.752 45.576,44.424 48.528,47.304 C 49.392,48.096 50.256,48.816 51.264,49.464 L 35.424,64.656 C 30.6,69.336 25.848,70.992 20.016,70.992 L 0,70.992 L 0,64.296 L 20.016,64.296 C 22.896,64.296 26.856,63 29.664,60.264 C 31.032,58.968 41.04,49.032 41.04,49.032 C 36.432,42.696 35.352,34.776 37.944,27.648 L 38.016,27.72 C 38.16,27.288 38.304,26.856 38.52,26.424 z "
   id="path2269"
   style="fill:url(#SVGID_2_);fill-rule:evenodd" />
</g>
</svg>