<?xml version="1.0" encoding="UTF-8" standalone="no"?>
<!-- Created with Inkscape (http://www.inkscape.org/) -->

<svg
   xmlns:dc="http://purl.org/dc/elements/1.1/"
   xmlns:cc="http://creativecommons.org/ns#"
   xmlns:rdf="http://www.w3.org/1999/02/22-rdf-syntax-ns#"
   xmlns:svg="http://www.w3.org/2000/svg"
   xmlns="http://www.w3.org/2000/svg"
   xmlns:xlink="http://www.w3.org/1999/xlink"
   xmlns:sodipodi="http://sodipodi.sourceforge.net/DTD/sodipodi-0.dtd"
   xmlns:inkscape="http://www.inkscape.org/namespaces/inkscape"
   version="1.1"
   width="289.59698"
   height="190.049"
   viewBox="0 0 289.59699 190.049"
   id="Layer_1"
   xml:space="preserve"
   sodipodi:docname="couchdb.svg"
   inkscape:version="0.92.4 (5da689c313, 2019-01-14)"><sodipodi:namedview
     pagecolor="#ffffff"
     bordercolor="#666666"
     borderopacity="1"
     objecttolerance="10"
     gridtolerance="10"
     guidetolerance="10"
     inkscape:pageopacity="0"
     inkscape:pageshadow="2"
     inkscape:window-width="1920"
     inkscape:window-height="986"
     id="namedview22"
     showgrid="false"
     inkscape:zoom="0.80490861"
     inkscape:cx="144.799"
     inkscape:cy="43.448506"
     inkscape:window-x="-11"
     inkscape:window-y="-11"
     inkscape:window-maximized="1"
     inkscape:current-layer="Layer_1" /><metadata
     id="metadata41"><rdf:RDF><cc:Work
         rdf:about=""><dc:format>image/svg+xml</dc:format><dc:type
           rdf:resource="http://purl.org/dc/dcmitype/StillImage" /><dc:title /></cc:Work></rdf:RDF></metadata><defs
     id="defs39"><defs
       id="defs5"><rect
         width="841.89001"
         height="595.28003"
         x="-275.78601"
         y="-151.084"
         id="SVGID_1_" /></defs><clipPath
       id="SVGID_2_"><use
         id="use9"
         style="overflow:visible"
         x="0"
         y="0"
         width="289.59799"
         height="293.20099"
         xlink:href="#SVGID_1_" /></clipPath></defs><path
     d="m 235.298,126.699 c 0,12.001 -6.323,17.882 -18.1,18.09 v 0.01 H 72.399 v -0.01 c -11.777,-0.208 -18.1,-6.089 -18.1,-18.09 0,-12.001 6.323,-17.882 18.1,-18.09 v -0.01 h 144.799 v 0.01 c 11.777,0.208 18.1,6.089 18.1,18.09 m -18.1,27.159 v -0.01 H 72.399 v 0.01 c -11.777,0.208 -18.1,6.09 -18.1,18.091 0,12.001 6.323,17.882 18.1,18.09 v 0.01 h 144.799 v -0.01 c 11.776,-0.208 18.1,-6.089 18.1,-18.09 0,-12.001 -6.323,-17.883 -18.1,-18.091 m 45.25,-99.538 v -0.01 c -11.777,0.208 -18.101,6.089 -18.101,18.09 v 99.549 c 0,12.001 6.323,17.882 18.101,18.09 v -0.021 c 17.665,-0.623 27.149,-18.266 27.149,-54.27 V 90.5 C 289.598,66.498 280.113,54.736 262.448,54.32 M 27.15,54.31 v 0.01 C 9.484,54.736 0,66.497 0,90.5 v 45.249 c 0,36.004 9.484,53.646 27.15,54.27 v 0.021 c 11.777,-0.208 18.099,-6.089 18.099,-18.09 V 72.4 c 0,-12.001 -6.322,-17.882 -18.099,-18.09 m 235.298,-9.06 c 0,-30.003 -15.808,-44.705 -45.25,-45.225 V 0 H 72.399 V 0.025 C 42.957,0.545 27.15,15.247 27.15,45.25 v 0.015 c 17.665,0.312 27.149,9.133 27.149,27.135 0,18.001 9.485,26.823 27.15,27.135 v 0.015 h 126.699 v -0.015 c 17.666,-0.312 27.15,-9.134 27.15,-27.135 0,-18.002 9.484,-26.823 27.15,-27.135 z"
     clip-path="url(#SVGID_2_)"
     id="path35"
     style="fill:#e42528"
     inkscape:connector-curvature="0" /></svg>