<?xml version="1.0"?>
<svg xmlns="http://www.w3.org/2000/svg" viewBox="0 0 24 24" enable-background="new 0 0 24 24">
    <path style="text-indent:0;text-align:start;line-height:normal;text-transform:none;block-progression:tb;-inkscape-font-specification:Bitstream Vera Sans" d="M 10 2 C 7.9511948 2 6.0922763 2.3533102 4.65625 2.96875 C 3.9382369 3.2764699 3.3259104 3.6364477 2.84375 4.125 C 2.3615896 4.6135523 2 5.2705297 2 6 L 2 18 C 2 20.6 6 22 10 22 C 12.2 22 14.5 21.5875 16 20.6875 L 15.8125 20.40625 C 14.5125 20.60625 13.3125 20.3125 12.3125 19.8125 C 11.6125 19.9125 10.9 20 10 20 C 6.3 20 4 18.7 4 18 L 4 16.6875 C 5.5 17.4875 7.8 18 10 18 L 10.40625 18 C 10.00625 17.4 9.69375 16.7 9.59375 16 C 6.09375 15.9 4 14.7 4 14 L 4 12.6875 C 5.4 13.4875 7.49375 13.9 9.59375 14 C 9.69375 13.3 10.00625 12.6 10.40625 12 L 10 12 C 6.3 12 4 10.7 4 10 L 4 8.6875 C 4.2137588 8.8036742 4.4184082 8.9293178 4.65625 9.03125 C 6.0922763 9.6466898 7.9511948 10 10 10 C 12.048805 10 13.907724 9.6466898 15.34375 9.03125 C 15.581592 8.9293178 15.786241 8.8036742 16 8.6875 L 16 9.59375 C 16.7 9.69375 17.4 10.00625 18 10.40625 L 18 6 C 18 5.2705297 17.63841 4.6135523 17.15625 4.125 C 16.67409 3.6364477 16.061763 3.2764699 15.34375 2.96875 C 13.907724 2.3533102 12.048805 2 10 2 z M 10 4 C 11.817188 4 13.465025 4.3421534 14.5625 4.8125 C 15.111238 5.0476733 15.523722 5.3019722 15.75 5.53125 C 15.976278 5.7605278 16 5.9010432 16 6 C 16 6.0989568 15.976278 6.2394722 15.75 6.46875 C 15.523722 6.6980278 15.111238 6.9523267 14.5625 7.1875 C 13.465025 7.6578466 11.817188 8 10 8 C 8.182812 8 6.5349754 7.6578466 5.4375 7.1875 C 4.8887623 6.9523267 4.4762781 6.6980278 4.25 6.46875 C 4.0237219 6.2394722 4 6.0989568 4 6 C 4 5.9010432 4.0237219 5.7605278 4.25 5.53125 C 4.4762781 5.3019722 4.8887623 5.0476733 5.4375 4.8125 C 6.5349754 4.3421534 8.182812 4 10 4 z M 15 11.09375 C 12.8 11.09375 11 12.89375 11 15.09375 C 11 17.29375 12.8 19.09375 15 19.09375 C 15.4 19.09375 15.7875 19.00625 16.1875 18.90625 L 19.09375 21.8125 C 19.29375 22.0125 19.5125 22.09375 19.8125 22.09375 L 21 22.09375 C 21.6 22.09375 22 21.69375 22 21.09375 L 22 20 C 22 19.6 21.8875 19.2875 21.6875 19.1875 L 18.8125 16.3125 C 18.9125 15.9125 19 15.49375 19 15.09375 C 19 12.89375 17.2 11.09375 15 11.09375 z M 14.40625 13.09375 C 15.20625 13.09375 15.8125 13.7 15.8125 14.5 C 15.9125 15.2 15.20625 15.90625 14.40625 15.90625 C 13.60625 15.90625 13 15.3 13 14.5 C 13 13.7 13.60625 13.09375 14.40625 13.09375 z" overflow="visible" enable-background="accumulate" font-family="Bitstream Vera Sans"/>
</svg>
