<?xml version="1.0" encoding="UTF-8" standalone="no"?>
<!-- Generator: Adobe Illustrator 22.1.0, SVG Export Plug-In . SVG Version: 6.00 Build 0)  -->

<svg
   xmlns:dc="http://purl.org/dc/elements/1.1/"
   xmlns:cc="http://creativecommons.org/ns#"
   xmlns:rdf="http://www.w3.org/1999/02/22-rdf-syntax-ns#"
   xmlns:svg="http://www.w3.org/2000/svg"
   xmlns="http://www.w3.org/2000/svg"
   xmlns:sodipodi="http://sodipodi.sourceforge.net/DTD/sodipodi-0.dtd"
   xmlns:inkscape="http://www.inkscape.org/namespaces/inkscape"
   version="1.1"
   id="Ebene_1"
   x="0px"
   y="0px"
   viewBox="0 0 387.22501 116.5"
   xml:space="preserve"
   sodipodi:docname="dovecot.svg"
   width="387.22501"
   height="116.5"
   inkscape:version="0.92.4 (5da689c313, 2019-01-14)"><metadata
   id="metadata31"><rdf:RDF><cc:Work
       rdf:about=""><dc:format>image/svg+xml</dc:format><dc:type
         rdf:resource="http://purl.org/dc/dcmitype/StillImage" /></cc:Work></rdf:RDF></metadata><defs
   id="defs29" /><sodipodi:namedview
   pagecolor="#ffffff"
   bordercolor="#666666"
   borderopacity="1"
   objecttolerance="10"
   gridtolerance="10"
   guidetolerance="10"
   inkscape:pageopacity="0"
   inkscape:pageshadow="2"
   inkscape:window-width="1920"
   inkscape:window-height="986"
   id="namedview27"
   showgrid="false"
   inkscape:zoom="0.784"
   inkscape:cx="206.75"
   inkscape:cy="16.474997"
   inkscape:window-x="-11"
   inkscape:window-y="-11"
   inkscape:window-maximized="1"
   inkscape:current-layer="g24" />
<style
   type="text/css"
   id="style2">
	.st0{fill:#4B9BD7;}
</style>
<g
   id="g24"
   transform="translate(-43.25,-0.025)">
	
	<path
   class="st0"
   d="M 344.1,3.1 427.7,67 c 3.7,2.8 3.7,8.3 0,11.1 l -46.6,35.7 c -3.6,2.7 -8.6,2.7 -12.1,0 L 296,58.1 c -3.6,-2.7 -8.5,-2.7 -12.1,0 l -74.8,57 c -2.5,1.9 -6,1.9 -8.5,0 l -5.4,-4.1 c -2.6,-2 -2.6,-5.9 0,-7.9 L 325.9,3.1 c 5.4,-4.1 12.8,-4.1 18.2,0 z"
   id="path20"
   inkscape:connector-curvature="0"
   style="fill:#4b9bd7" />
	<path
   class="st0"
   d="M 247.7,44.1 194.1,3.1 C 188.7,-1 181.3,-1 175.9,3.1 L 45.2,103 c -2.6,2 -2.6,5.9 0,7.9 l 5.4,4.1 c 2.5,1.9 6,1.9 8.5,0 l 64.8,-49.4 c 3.6,-2.7 8.6,-2.7 12.1,0 l 42.9,32.8 c 3.6,2.7 8.6,2.7 12.1,0 l 56.7,-43.3 c 3.7,-2.7 3.7,-8.2 0,-11 z"
   id="path22"
   inkscape:connector-curvature="0"
   style="fill:#4b9bd7" />
</g>
</svg>