<?xml version="1.0" encoding="UTF-8" standalone="no"?>
<svg
   xmlns:dc="http://purl.org/dc/elements/1.1/"
   xmlns:cc="http://creativecommons.org/ns#"
   xmlns:rdf="http://www.w3.org/1999/02/22-rdf-syntax-ns#"
   xmlns:svg="http://www.w3.org/2000/svg"
   xmlns="http://www.w3.org/2000/svg"
   xmlns:sodipodi="http://sodipodi.sourceforge.net/DTD/sodipodi-0.dtd"
   xmlns:inkscape="http://www.inkscape.org/namespaces/inkscape"
   id="Layer_1"
   data-name="Layer 1"
   viewBox="0 0 57 64.005562"
   version="1.1"
   sodipodi:docname="elasticsearch.svg"
   width="57"
   height="64.005562"
   inkscape:version="0.92.4 (5da689c313, 2019-01-14)">
  <metadata
     id="metadata43">
    <rdf:RDF>
      <cc:Work
         rdf:about="">
        <dc:format>image/svg+xml</dc:format>
        <dc:type
           rdf:resource="http://purl.org/dc/dcmitype/StillImage" />
      </cc:Work>
    </rdf:RDF>
  </metadata>
  <sodipodi:namedview
     pagecolor="#ffffff"
     bordercolor="#666666"
     borderopacity="1"
     objecttolerance="10"
     gridtolerance="10"
     guidetolerance="10"
     inkscape:pageopacity="0"
     inkscape:pageshadow="2"
     inkscape:window-width="1920"
     inkscape:window-height="986"
     id="namedview41"
     showgrid="false"
     inkscape:zoom="1.195122"
     inkscape:cx="156"
     inkscape:cy="32.002779"
     inkscape:window-x="-11"
     inkscape:window-y="-11"
     inkscape:window-maximized="1"
     inkscape:current-layer="Layer_1" />
  <defs
     id="defs4">
    <style
       id="style2">.cls-1{fill:#343741;}.cls-1,.cls-2,.cls-3{fill-rule:evenodd;}.cls-2{fill:#fec514;}.cls-3{fill:#00bfb3;}</style>
  </defs>
  <title
     id="title6">Elastic Search Color Lockup</title>
  <path
     class="cls-1"
     d="m 0,32.002779 a 32,32 0 0 0 1.05,8 H 40 a 8,8 0 0 0 8,-8 v 0 a 8,8 0 0 0 -8,-8 H 1.09 a 32,32 0 0 0 -1.09,8 z"
     id="path34"
     inkscape:connector-curvature="0"
     style="fill:#343741;fill-rule:evenodd" />
  <path
     class="cls-2"
     d="m 53.89,15.322779 a 29.59,29.59 0 0 0 3.11,-3.32 31.92,31.92 0 0 0 -53.67,6 h 43.73 a 10.07,10.07 0 0 0 6.83,-2.68 z"
     id="path36"
     inkscape:connector-curvature="0"
     style="fill:#fec514;fill-rule:evenodd" />
  <path
     class="cls-3"
     d="M 47.06,46.002779 H 3.33 a 31.92,31.92 0 0 0 53.67,6 29.59,29.59 0 0 0 -3.11,-3.32 10.07,10.07 0 0 0 -6.83,-2.68 z"
     id="path38"
     inkscape:connector-curvature="0"
     style="fill:#00bfb3;fill-rule:evenodd" />
</svg>
