<svg xmlns="http://www.w3.org/2000/svg" xmlns:xlink="http://www.w3.org/1999/xlink" width="464.56" height="448.1"><defs><linearGradient id="c" x1="211.92" x2="282.53" y1="253.85" y2="324.46" gradientTransform="matrix(1.20225 0 0 .83178 96.09 84.94)" gradientUnits="userSpaceOnUse" xlink:href="#a"/><linearGradient id="d" x1="73.75" x2="144.43" y1="247.72" y2="318.39" gradientTransform="matrix(1.20152 0 0 .83228 96.09 84.94)" gradientUnits="userSpaceOnUse" xlink:href="#a"/><linearGradient id="e" x1="263.78" x2="360.86" y1="143.79" y2="240.87" gradientTransform="matrix(.69215 0 0 1.44478 96.09 84.94)" gradientUnits="userSpaceOnUse" xlink:href="#b"/></defs><g fill-opacity=".5" transform="translate(-15.47 15.83)"><defs><linearGradient id="a"><stop offset="0" stop-color="#ffff9f" stop-opacity=".96"/><stop offset="1" stop-opacity=".46"/></linearGradient><linearGradient id="b"><stop offset="0" stop-color="#fff" stop-opacity=".27"/><stop offset="1" stop-opacity=".68"/></linearGradient></defs><path fill="#42aa44" fill-opacity="1" fill-rule="evenodd" d="M48.3 326.49c2.64 16.2-13.59 18.45-15.66 25.21 14.63 11.47-23.36 28.94-16.28 34.07 5.03 4.8 79.78 37.57 92.07 38.85 75.23 15.79 231.35 4.5 259.92-10.22 34.23-20.97 51.54-23.24 57-33.4-3.23-8.41-33.5-24.12-26.94-30.66-5.46-7.43-29-6.66-23.8-22.5-16.5-5.12-3.22-.02-15.03-9.53-4.41-1.2-5.56-11.59-10.02-11.59-40.23-29.38-236.53-19.76-278.08 4.77-5.93 12.83-16.25 12.48-23.18 15z"/><path fill-opacity=".23" fill-rule="evenodd" d="M77.34 316.73c5.85 22.82-25.75 78.92-14.79 88.88 125.5-23.8 163.64-39.4 232.7 5.27 7.95-10.83 76.93-91.63 60.59-99.42-47.7-19.24-177.88-9-278.5 5.27z"/><path fill="#fff" fill-opacity="1" fill-rule="evenodd" stroke="#000" stroke-width="12.5" d="M72.55 159.37c0 18.55 14.05 167.2 17.14 175.1 41.86-7.7 182.74 27.04 252.06-5.15 1.99-2.55 20.16-151.85 20.16-167.37 3.55-12.48-285.94-6.44-289.36-2.58z" font-size="12"/><path fill="#ffc900" fill-opacity="1" fill-rule="evenodd" stroke="#000" stroke-linejoin="round" stroke-width="12.5" d="M42.28 9.17C55.84 44.07 75.16 115 24.65 199.37c134.55-42.2 260.73-40.75 383.13 5.12C369.45 146.7 353.3 60.4 376.55 13.1c-27.8 9.28-141.93 12.14-165.67 12.7-18.24.44-146.74.73-168.6-16.63z" font-size="12"/><path fill="#fff" fill-opacity=".54" fill-rule="evenodd" d="M86.32 47.9c.45 22.6-4.6 73.13-16.59 116.34-1.69 5.17.8 5.59 2.29 1.03 6.45-6.43 16.7-34.7 21.36-66.6C96.7 75.5 87.33 45.7 86.32 47.9zM121.68 38.4c.45 22.6-4.6 73.13-16.6 116.34-1.68 5.17.81 5.58 2.3 1.03 6.45-6.44 16.7-34.71 21.36-66.6 3.32-23.17-6.05-52.96-7.06-50.77zM161.77 38.54c.45 22.59-4.6 73.12-16.6 116.34-1.68 5.17.81 5.58 2.3 1.03 6.45-6.44 16.7-34.71 21.36-66.61 3.32-23.16-6.05-52.95-7.06-50.76zM201.73 32.17c.45 22.6-4.6 73.13-16.6 116.34-1.68 5.17.81 5.59 2.3 1.03 6.45-6.43 16.7-34.7 21.36-66.6 3.32-23.16-6.05-52.96-7.06-50.77zM230.74 36.9c.45 22.6 7.5 72.85 21.2 115.45 1.9 5.09-.57 5.62-2.24 1.14-6.7-6.12-18.07-33.89-24-65.53-4.24-22.98 3.94-53.2 5.04-51.05zM270.13 40.31c.45 22.6 7.5 72.84 21.22 115.45 1.89 5.08-.58 5.62-2.25 1.14-6.7-6.13-18.07-33.9-24-65.54-4.24-22.98 3.94-53.19 5.03-51.05zM306.53 44.87c.45 22.6 7.5 72.84 21.21 115.45 1.9 5.08-.58 5.62-2.24 1.13-6.7-6.12-18.08-33.88-24-65.53-4.24-22.98 3.93-53.2 5.03-51.05zM340.61 47.32c.45 22.59 7.5 72.84 21.22 115.44 1.89 5.09-.58 5.62-2.25 1.14-6.7-6.13-18.07-33.89-24-65.53-4.24-22.98 3.94-53.2 5.03-51.05z"/><path fill="#7f470e" fill-opacity="1" fill-rule="evenodd" d="M189.36 338.5c0-5.78-2.95-108.8-4.64-125.1 9.08 0 41.42-1.52 55.37 2.17 2.66 18-5.63 90.14-5.63 126.8-7.08 0-42.6.43-45.1-3.88z" font-size="12"/><path fill="url(#c)" fill-opacity="1" fill-rule="evenodd" stroke="#000" stroke-width="6.25" d="M257.9 263.5c14.26-2.79 63.79 5.29 74.3 2.75 1.92-14.7 3.45-28.18 4.34-43.66-6.88-.73-66.43-8.4-77.74-8.32.13 14.3.02 33.11-.9 49.23z" font-size="12"/><path fill="none" stroke="#000" stroke-width="6.25" d="M289.89 216.93c-.7 12.47-7.24 29.31-2.74 48.5M319.69 219.8c-3.01 13.77-6.14 28.67-3.87 45.06M258.45 239.15c6.87.74 68.28 5.32 75.96 7.74" font-size="12"/><path fill="url(#d)" fill-opacity="1" fill-rule="evenodd" stroke="#000" stroke-width="6.25" d="M170.4 258.52c-14.25-2.77-63.77 5.38-74.28 2.86-1.94-14.7-3.48-28.18-4.38-43.66 6.89-.74 66.42-8.5 77.74-8.42-.13 14.29 0 33.1.92 49.22z" font-size="12"/><path fill="none" stroke="#000" stroke-width="6.25" d="M116.22 212.6c.72 12.46 7.26 29.3 2.77 48.48M138.5 212.8c-.98 11 9.27 33.4 6.46 47.8M170.77 234.02c-6.87.74-68.28 5.4-75.96 7.84" font-size="12"/><path fill="url(#e)" fill-opacity="1" fill-rule="evenodd" stroke="#000" stroke-width="11.25" d="M191.88 338.5c0-5.78-2-108.8-3.68-125.1 9.08 0 39.5-.52 55.37 2.17 2.66 18-4.68 88.14-6.6 126.8-7.07 0-42.58.43-45.09-3.88z" font-size="12"/><path fill="#fff" fill-opacity=".66" fill-rule="evenodd" d="M54.93 21.75c70.94 15.87 249.62 13.57 312.9-1.06-12.02 33.6-10.5 50.72-2.77 93.81-176.75-58.5-203.74-33.35-302.5-5.79 8.23-41.14-2.84-53.34-7.63-86.96z"/><path fill="#000059" fill-opacity=".33" fill-rule="evenodd" d="M77.63 188.66c65.9-22.57 221.4-24.84 278.68.68-4.1 25.57-3.99 46.04-6.48 65.08-88.46-55.75-222.35-43.26-268.14-10.22-4.38-38.39-3.1-21.92-4.06-55.54z"/></g><path d="M323.8 289.95c80.06-2.35 143.05-69.15 140.7-149.2C462.16 60.72 395.36-2.27 315.31.07c-80.05 2.35-143.04 69.15-140.7 149.2 2.36 80.04 69.15 143.03 149.2 140.69z"/><path fill="red" stroke="#fff" stroke-width="6.1384799999999995" d="M323.45 281.15c75.25-2.2 134.46-65 132.25-140.24C453.5 65.67 390.71 6.45 315.47 8.66c-75.25 2.2-134.46 65-132.26 140.24 2.21 75.24 65 134.46 140.24 132.25z"/><path fill="#fff" d="M321.86 249.26c57.64-1.69 102.99-49.78 101.3-107.41-1.69-57.64-49.78-103-107.41-101.3-57.64 1.69-103 49.78-101.3 107.41 1.69 57.64 49.78 103 107.41 101.3zM343.6 111.96l-.6 2.05.6-2.05z"/><path fill="#fff" d="M280.79 166.39c-4.7-.61-8.6 1.64-12.9 0l2.05-19.03c2.87 6.14 9.21 11.87 10.85 19.03z"/><path d="M343 75.13c2.24 11.25.4 23.53-.42 34.79l-2.51 26.52c2.28-4.93 3.67-15.98 5.02-27.33 1.67-14.08 3.66-28.46 11.81-30.5 4.71 2.05 7.37 7.16 8.19 12.28.2 11.66-3.89 25.78-3.89 36.83 5.73-6.35 5.53-22.72 17.19-18.62 7.77 5.52 2.04 14.32 1.02 21.48-8.8 12.48-10.84 25.99-15.14 40.31.82 5.93-1.23 13.1-4.1 18.62-7.56 14.12-20.86 22.3-37.23 20.26-9-2.25-17.8-7.16-24.55-12.9-6.96.82-19.85-4.3-26 2.46-4.7 6.76-18.75 16.44-25.3 21.97l-3.03-4.68c10.23-4.7 22.4-23.22 34.27-26.09l15.55.41c-.4-6.13-4.9-11.66-7.36-17.6-4.5-4.3-11.26.62-17.2-1.02-2.04.41-3.67-1.02-5.72-.4-3.48 6.75-10.44 12.68-17.8 13.3-.82-.83-.41-2.05-.41-3.07 1.23-2.87 4.3-1.64 5.93-3.9-4.5-2.65-6.75-7.15-7.98-11.86 1.23-3.27 1.44-7.57 5.53-9.2 2.04-1.44 5.11.4 6.34.4 2.05 3.27 4.7 7.57 2.87 11.26 2.86 0 3.06-3.9 4.9-5.73 1.23-5.53 1.92-12.61.66-17.9l-26.64.1c-1.43-1.44-1.84-4.39.41-5l26.6.08c3.48-1.22 1.64-5.11 1.43-7.36-3.68-4.7-6.75-9-12.28-11.26-8.18 1.03-17.18 3.07-21.48 10.23-1.02 6.55.61 14.33-5.52 18.83-1.64 8.8 14.11 15.96 1.43 22.91-1.84 0-7.57-.68-8.8-.68l-1.54-5.66c3.28 0 8.09 2.05 10.34 0 1.02-4.7-6.35-7.36-6.35-12.27-.4-5.32 2.26-9.21 4.92-13.3.61-7.17.2-15.76 7.36-19.65 8.39-2.66 19.64-8.18 27.62-1.84 6.76 5.53 10 14.46 9.8 22.23.27.24-.88 1.76-1.89 3.15-.2 1.79-.8 14.5.13 20.13-.63 2.39 3.32 1.66 3.4 1.63.26-.07 8.3.38 10.94-1.5-.88-3.03-7.76-12.09-9.06-15.48-.75-3.78-.38-7.33-.12-7.55.92-.78 2.4-3.49 3.52-3.4 5.73-.82 12.13.23 15.2 5.34 2.05 5.12 6.55 9 10.23 12.7 1.03-7.37 1.64-14.95 3.48-22.1-2.66-18.42 4.5-35.2 1.85-53 .29-5.65 6.54-5.12 11.45-4.91 8.6 9.61.8 40.14 3.67 52l2-14.95c2.45-13.3-.14-28.46 4.56-41.56 3.07-5.32 11.26-2.65 12.7 2.05z"/><path fill="#fff" d="M252.76 166.39c-.82 1.23.4 3.27-1.44 4.1-2.86-.42-1.02-4.3-1.63-6.56 2.45-3.07 2.45 1.23 3.07 2.46z"/><path fill="red" d="M413 223.87L242.22 53.9 226.1 69.96l170.76 169.97 16.13-16.06z"/></svg>