<?xml version="1.0" encoding="UTF-8" standalone="no"?>
<!DOCTYPE svg PUBLIC "-//W3C//DTD SVG 1.1//EN" "http://www.w3.org/Graphics/SVG/1.1/DTD/svg11.dtd">
<svg version="1.1" xmlns="http://www.w3.org/2000/svg" xmlns:xlink="http://www.w3.org/1999/xlink" preserveAspectRatio="xMidYMid meet" viewBox="-0.9209196285343477 210.037990364146 228.72298303156904 221.82251900569182" width="224.72" height="217.82"><defs><path d="M205.23 383.31C204.81 376.74 206.66 369.38 208.52 364.02C209.67 361.52 210.67 358.95 211.59 356.37C211.59 356.37 211.59 356.34 211.59 356.3C211.59 356.3 211.59 356.3 211.59 356.3C231.67 299.63 202.02 237.39 145.28 217.31C88.54 197.23 26.44 226.96 6.36 283.63C-13.72 340.29 15.94 402.54 72.68 422.62C103.97 433.69 138.63 429.91 166.79 412.26C169.65 410.9 172.08 410.11 173.43 410.68C187.87 416.76 203.66 418.62 219.1 415.9C221.81 415.47 228.74 412.9 221.81 407.75C214.81 402.61 206.09 395.61 205.23 383.31Z" id="a1uI2In0GO"></path><path d="M150.07 270.55C156.86 270.55 162.36 276.05 162.36 282.84C162.36 282.89 162.36 283.29 162.36 283.34C162.36 290.13 156.86 295.63 150.07 295.63C142.75 295.63 84.21 295.63 76.89 295.63C70.1 295.63 64.6 290.13 64.6 283.34C64.6 283.29 64.6 282.89 64.6 282.84C64.6 276.05 70.1 270.55 76.89 270.55C91.53 270.55 142.75 270.55 150.07 270.55Z" id="nRyEIC7eu"></path><path d="M123.13 307.78C129.92 307.78 135.42 313.28 135.42 320.07C135.42 320.13 135.42 320.59 135.42 320.64C135.42 327.43 129.92 332.93 123.13 332.93C118.5 332.93 81.51 332.93 76.89 332.93C70.1 332.93 64.6 327.43 64.6 320.64C64.6 320.59 64.6 320.13 64.6 320.07C64.6 313.28 70.1 307.78 76.89 307.78C86.14 307.78 118.5 307.78 123.13 307.78Z" id="f4x5GOQlE0"></path><path d="M85.25 344.37C92.04 344.37 97.54 349.87 97.54 356.66C97.54 356.71 97.54 357.11 97.54 357.16C97.54 363.95 92.04 369.45 85.25 369.45C84.42 369.45 77.73 369.45 76.89 369.45C70.1 369.45 64.6 363.95 64.6 357.16C64.6 357.11 64.6 356.71 64.6 356.66C64.6 349.87 70.1 344.37 76.89 344.37C78.56 344.37 84.42 344.37 85.25 344.37Z" id="c12zCWZqFr"></path></defs><g><g><use xlink:href="#a1uI2In0GO" opacity="1" fill="#0abe51" fill-opacity="1"></use><g><use xlink:href="#a1uI2In0GO" opacity="1" fill-opacity="0" stroke="#000000" stroke-width="1" stroke-opacity="0"></use></g></g><g><use xlink:href="#nRyEIC7eu" opacity="1" fill="#ffffff" fill-opacity="1"></use><g><use xlink:href="#nRyEIC7eu" opacity="1" fill-opacity="0" stroke="#000000" stroke-width="1" stroke-opacity="0"></use></g></g><g><use xlink:href="#f4x5GOQlE0" opacity="1" fill="#ffffff" fill-opacity="1"></use><g><use xlink:href="#f4x5GOQlE0" opacity="1" fill-opacity="0" stroke="#000000" stroke-width="1" stroke-opacity="0"></use></g></g><g><use xlink:href="#c12zCWZqFr" opacity="1" fill="#ffffff" fill-opacity="1"></use><g><use xlink:href="#c12zCWZqFr" opacity="1" fill-opacity="0" stroke="#000000" stroke-width="1" stroke-opacity="0"></use></g></g></g></svg>