<?xml version="1.0" encoding="utf-8"?>
<!-- Generator: Adobe Illustrator 19.2.1, SVG Export Plug-In . SVG Version: 6.00 Build 0)  -->
<svg version="1.1" id="Layer_1" xmlns="http://www.w3.org/2000/svg" xmlns:xlink="http://www.w3.org/1999/xlink" x="0px" y="0px"
	 viewBox="0 0 1274 1047" style="enable-background:new 0 0 1274 1047;" xml:space="preserve">
<style type="text/css">
	.st0{fill:url(#SVGID_1_);}
	.st1{fill:url(#SVGID_2_);}
	.st2{fill:url(#SVGID_3_);}
	.st3{fill:url(#SVGID_4_);}
	.st4{fill:url(#SVGID_5_);}
	.st5{fill:url(#SVGID_6_);}
	.st6{fill:url(#SVGID_7_);}
	.st7{fill:url(#SVGID_8_);}
	.st8{fill:#FFFFFF;}
</style>
<g>
	<g>
		<g>
			
				<linearGradient id="SVGID_1_" gradientUnits="userSpaceOnUse" x1="21.0001" y1="1105.2095" x2="1258.6993" y2="1105.2095" gradientTransform="matrix(1 0 0 -1 0 1630)">
				<stop  offset="0" style="stop-color:#2A59A2"/>
				<stop  offset="1" style="stop-color:#2A59A2"/>
			</linearGradient>
			<path class="st0" d="M1252.1,450.3c-6.5,0-16.5,0-22.1,0c-40.2-0.5-117.3,3.8-187.2,64.2c-166.9,144.5-205,357.2-490.6,472
				C314.3,1082.1,21,991.6,21,991.6s261.7-18.2,296.4-217.9c27.1-156.2-115-267.1-204.2-408C22.5,222.2-0.8,103,42.9,51.5
				C166.8-94.8,508,300.7,677.4,354c165.8,52.1,277.7-68.9,415-51.1c43.8,5.6,65.2,24.5,79.4,48.6c4.8,8.1,16.6,35.7,27.1,45.9
				c10.3,10,24,17.4,36.8,24.9C1252,431.9,1268.1,450.3,1252.1,450.3z"/>
			
				<linearGradient id="SVGID_2_" gradientUnits="userSpaceOnUse" x1="-28.9755" y1="1316.5281" x2="1280.1417" y2="1316.5281" gradientTransform="matrix(1 0 0 -1 0 1630)">
				<stop  offset="0" style="stop-color:#91D3F2"/>
				<stop  offset="0.2664" style="stop-color:#6FB2DE"/>
				<stop  offset="0.5214" style="stop-color:#5598CE"/>
				<stop  offset="0.6729" style="stop-color:#4B8FC8"/>
			</linearGradient>
			<path class="st1" d="M468,221.5c-41-31.2-83.3-63.9-124.9-93.7l0,0c-9.4-6.7-18.8-13.3-28.1-19.7l0,0
				C203.5,31.8,100.1-16,42.9,51.5C-0.8,103,22.5,222.2,113.3,365.7c0.9,1.5,1.9,2.9,2.8,4.4c47.3,73.2,184.5,244.7,509.7,237.4
				c21.4-22.7,53.9-65.6,95.9-112.3C653.6,385.1,551,289.1,468,221.5z"/>
			
				<linearGradient id="SVGID_3_" gradientUnits="userSpaceOnUse" x1="21.1001" y1="817.0737" x2="1267.8341" y2="817.0737" gradientTransform="matrix(1 0 0 -1 0 1630)">
				<stop  offset="0" style="stop-color:#2C9EC7"/>
				<stop  offset="0.4037" style="stop-color:#2C63A5"/>
				<stop  offset="1" style="stop-color:#395DA1"/>
			</linearGradient>
			<path class="st2" d="M795.8,738.9c1.3-48.8-7.6-96.9-24.5-143.4c-42.7,6.4-90.8,10.8-145.5,12C586,649.8,495.1,762.8,344.5,864.6
				c-200.5,135.6-323.4,127-323.4,127s293.4,90.5,531.2-5.1c85.3-34.3,148.6-77.3,199.8-124.7C760.5,853.8,794,812,795.8,738.9z"/>
			
				<linearGradient id="SVGID_4_" gradientUnits="userSpaceOnUse" x1="21.0793" y1="1078.65" x2="1267.8134" y2="1078.65" gradientTransform="matrix(1 0 0 -1 0 1630)">
				<stop  offset="0" style="stop-color:#4FAAC4"/>
				<stop  offset="1.554530e-03" style="stop-color:#2F75B1"/>
				<stop  offset="1" style="stop-color:#356EAC"/>
			</linearGradient>
			<path class="st3" d="M721.8,495.2c-42,46.6-74.6,89.6-95.9,112.3c54.8-1.2,102.9-5.6,145.5-12c-5-13.9-10.8-27.6-17.2-41.1
				C744.6,534.3,733.7,514.5,721.8,495.2z"/>
			
				<linearGradient id="SVGID_5_" gradientUnits="userSpaceOnUse" x1="467.9999" y1="1271.65" x2="1274.9838" y2="1271.65" gradientTransform="matrix(1 0 0 -1 0 1630)">
				<stop  offset="0" style="stop-color:#4FAAC4"/>
				<stop  offset="1.554530e-03" style="stop-color:#2F81B6"/>
				<stop  offset="1" style="stop-color:#3B5EA9"/>
			</linearGradient>
			<path class="st4" d="M965.6,318.3c-87.8,26.6-175.5,71.1-288.2,35.7c-55.8-17.5-130.3-72.2-209.4-132.5
				c83,67.6,185.6,163.5,253.8,273.7C784,426.3,867,349.3,965.6,318.3z"/>
			
				<linearGradient id="SVGID_6_" gradientUnits="userSpaceOnUse" x1="467.9684" y1="962.7" x2="1274.9521" y2="962.7" gradientTransform="matrix(1 0 0 -1 0 1630)">
				<stop  offset="0" style="stop-color:#4FAAC4"/>
				<stop  offset="1.554530e-03" style="stop-color:#1E3773"/>
				<stop  offset="1" style="stop-color:#203370"/>
			</linearGradient>
			<path class="st5" d="M771.4,595.5c16.9,46.5,25.8,94.6,24.5,143.4c-1.9,73-35.4,114.8-43.8,122.9
				c120.1-111.1,173.8-246,290.8-347.3c21.8-18.8,44.2-32.2,66.1-41.7h-0.1C1032.2,505,949,568.7,771.4,595.5z"/>
			
				<linearGradient id="SVGID_7_" gradientUnits="userSpaceOnUse" x1="990.2508" y1="895.2981" x2="990.2508" y2="1337.8136" gradientTransform="matrix(1 0 0 -1 0 1630)">
				<stop  offset="0" style="stop-color:#4FAAC4"/>
				<stop  offset="1.554530e-03" style="stop-color:#2C5A9A"/>
				<stop  offset="1" style="stop-color:#374580"/>
			</linearGradient>
			<path class="st6" d="M1252.1,450.3c16,0-0.1-18.4-16.3-27.9c-12.8-7.6-26.5-15-36.8-24.9c-10.6-10.2-22.4-37.9-27.1-45.9
				c-14.3-24.2-35.6-43-79.4-48.6c-44-5.7-85.4,2.9-126.8,15.4c-98.6,31-181.7,108-243.9,176.9c11.9,19.3,22.9,39,32.4,59.1
				c6.4,13.6,12.2,27.3,17.2,41.1c177.7-26.8,260.8-90.5,337.5-122.7h0.1c48.3-21,93.5-22.9,121.1-22.5
				C1235.7,450.3,1245.7,450.3,1252.1,450.3z"/>
			
				<linearGradient id="SVGID_8_" gradientUnits="userSpaceOnUse" x1="-113.5052" y1="949.0955" x2="804.8284" y2="949.0955" gradientTransform="matrix(1 0 0 -1 0 1630)">
				<stop  offset="0.1115" style="stop-color:#38B1DA"/>
				<stop  offset="1" style="stop-color:#326FB5"/>
			</linearGradient>
			<path class="st7" d="M344.5,864.6C495.1,762.8,586,649.8,625.8,607.5c-325.2,7.3-462.4-164.2-509.7-237.4
				C205.4,509,344.3,619.2,317.5,773.7C282.8,973.4,21.1,991.6,21.1,991.6S144,1000.2,344.5,864.6z"/>
			<ellipse class="st8" cx="1083.4" cy="377.4" rx="26" ry="25.8"/>
		</g>
	</g>
</g>
</svg>
