<?xml version="1.0" encoding="UTF-8" standalone="no"?>
<!-- Created with Inkscape (http://www.inkscape.org/) -->

<svg
   xmlns:dc="http://purl.org/dc/elements/1.1/"
   xmlns:cc="http://creativecommons.org/ns#"
   xmlns:rdf="http://www.w3.org/1999/02/22-rdf-syntax-ns#"
   xmlns:svg="http://www.w3.org/2000/svg"
   xmlns="http://www.w3.org/2000/svg"
   xmlns:sodipodi="http://sodipodi.sourceforge.net/DTD/sodipodi-0.dtd"
   xmlns:inkscape="http://www.inkscape.org/namespaces/inkscape"
   width="12.410612mm"
   height="5.3192272mm"
   viewBox="0 0 12.410612 5.3192272"
   version="1.1"
   id="svg8"
   inkscape:version="0.92.4 (5da689c313, 2019-01-14)"
   sodipodi:docname="fping.svg">
  <defs
     id="defs2" />
  <sodipodi:namedview
     id="base"
     pagecolor="#ffffff"
     bordercolor="#666666"
     borderopacity="1.0"
     inkscape:pageopacity="0.0"
     inkscape:pageshadow="2"
     inkscape:zoom="5.6"
     inkscape:cx="71.128622"
     inkscape:cy="31.988971"
     inkscape:document-units="mm"
     inkscape:current-layer="layer1"
     showgrid="false"
     inkscape:window-width="1920"
     inkscape:window-height="986"
     inkscape:window-x="-11"
     inkscape:window-y="-11"
     inkscape:window-maximized="1" />
  <metadata
     id="metadata5">
    <rdf:RDF>
      <cc:Work
         rdf:about="">
        <dc:format>image/svg+xml</dc:format>
        <dc:type
           rdf:resource="http://purl.org/dc/dcmitype/StillImage" />
        <dc:title />
      </cc:Work>
    </rdf:RDF>
  </metadata>
  <g
     inkscape:label="Layer 1"
     inkscape:groupmode="layer"
     id="layer1"
     transform="translate(-24.369622,-142.4038)">
    <g
       aria-label="fping"
       style="font-style:normal;font-variant:normal;font-weight:normal;font-stretch:normal;font-size:50.79999924px;line-height:1.25;font-family:'Trebuchet MS';-inkscape-font-specification:'Trebuchet MS';letter-spacing:0px;word-spacing:0px;fill:#000000;fill-opacity:1;stroke:none;stroke-width:0.26458332"
       id="text12">
      <path
         d="m 26.158316,142.87233 q -0.159853,-0.0551 -0.297656,-0.0551 -0.239779,0 -0.396875,0.1819 -0.154341,0.1819 -0.154341,0.46027 0,0.0744 0.01378,0.15434 h 0.600824 v 0.44097 h -0.600824 v 2.51079 H 24.79957 v -2.51079 h -0.429948 v -0.44097 h 0.429948 q 0,-0.565 0.278364,-0.88746 0.278364,-0.32246 0.735872,-0.32246 0.228755,0 0.490582,0.0827 z"
         style="font-size:5.64444447px;stroke-width:0.26458332"
         id="path814" />
      <path
         d="m 27.169796,146.40287 v 1.32016 h -0.523654 v -4.10931 h 0.523654 v 0.24253 q 0.297656,-0.29765 0.719336,-0.29765 0.628385,0 0.978407,0.39136 0.350022,0.39136 0.350022,1.14653 0,0.67248 -0.352778,1.09967 -0.352778,0.42444 -1.019748,0.42444 -0.187413,0 -0.402387,-0.0661 -0.212218,-0.0661 -0.272852,-0.15158 z m 0,-2.1525 v 1.71979 q 0.04961,0.0744 0.209462,0.14332 0.159852,0.0661 0.311436,0.0661 0.975652,0 0.975652,-1.10243 0,-0.55948 -0.231511,-0.81855 -0.23151,-0.25907 -0.741384,-0.25907 -0.110243,0 -0.270096,0.0772 -0.159852,0.0772 -0.253559,0.17363 z"
         style="font-size:5.64444447px;stroke-width:0.26458332"
         id="path816" />
      <path
         d="m 30.32826,142.49751 q 0.135047,0 0.228754,0.0965 0.09646,0.0937 0.09646,0.226 0,0.13505 -0.09646,0.23151 -0.09371,0.0937 -0.228754,0.0937 -0.132292,0 -0.228755,-0.0937 -0.09371,-0.0965 -0.09371,-0.23151 0,-0.13505 0.09371,-0.22876 0.09371,-0.0937 0.228755,-0.0937 z m -0.286632,4.06797 v -2.51079 h -0.405143 v -0.44097 h 0.928797 v 2.95176 z"
         style="font-size:5.64444447px;stroke-width:0.26458332"
         id="path818" />
      <path
         d="m 33.213872,146.56548 v -1.71704 q 0,-0.47129 -0.143316,-0.6587 -0.14056,-0.19017 -0.474045,-0.19017 -0.179145,0 -0.374827,0.10749 -0.195681,0.10748 -0.300412,0.26458 v 2.19384 h -0.523655 v -2.95176 h 0.35829 l 0.165365,0.38034 q 0.259071,-0.43546 0.846115,-0.43546 0.970139,0 0.970139,1.1796 v 1.82728 z"
         style="font-size:5.64444447px;stroke-width:0.26458332"
         id="path820" />
      <path
         d="m 34.376936,147.37301 0.283876,-0.41893 q 0.457508,0.30593 0.843359,0.30593 0.355534,0 0.559483,-0.12403 0.206706,-0.12126 0.206706,-0.30317 0,-0.35829 -0.518142,-0.35829 -0.08819,0 -0.319705,0.0441 -0.23151,0.0441 -0.361046,0.0441 -0.628385,0 -0.628385,-0.47405 0,-0.14607 0.146072,-0.26458 0.148828,-0.11851 0.366558,-0.17088 -0.622874,-0.29214 -0.622874,-1.01423 0,-0.46302 0.322461,-0.7717 0.322461,-0.30868 0.796507,-0.30868 0.43546,0 0.68075,0.17914 l 0.261828,-0.31419 0.341753,0.32246 -0.314193,0.23702 q 0.201194,0.26183 0.201194,0.68351 0,0.44648 -0.278364,0.74965 -0.278363,0.30317 -0.73036,0.34727 l -0.432704,0.0441 q -0.07717,0.008 -0.206706,0.0606 -0.129535,0.0496 -0.129535,0.13229 0,0.113 0.270095,0.113 0.118511,0 0.369314,-0.0413 0.250803,-0.0441 0.372071,-0.0441 0.43546,0 0.677995,0.20946 0.24529,0.20671 0.24529,0.57602 0,0.4079 -0.366558,0.6587 -0.363802,0.25081 -0.923285,0.25081 -0.286632,0 -0.603581,-0.10198 -0.316949,-0.10197 -0.509874,-0.24804 z m 1.110698,-3.39273 q -0.272851,0 -0.446484,0.19292 -0.170877,0.19293 -0.170877,0.46853 0,0.30868 0.165365,0.51263 0.168121,0.2012 0.451996,0.2012 0.278364,0 0.435461,-0.19568 0.157096,-0.19844 0.157096,-0.51815 0,-0.2756 -0.170877,-0.46853 -0.16812,-0.19292 -0.42168,-0.19292 z"
         style="font-size:5.64444447px;stroke-width:0.26458332"
         id="path822" />
    </g>
  </g>
</svg>
