<?xml version="1.0" encoding="UTF-8" standalone="no"?>
<!-- Generator: Adobe Illustrator 19.2.1, SVG Export Plug-In . SVG Version: 6.00 Build 0)  -->

<svg
   xmlns:dc="http://purl.org/dc/elements/1.1/"
   xmlns:cc="http://creativecommons.org/ns#"
   xmlns:rdf="http://www.w3.org/1999/02/22-rdf-syntax-ns#"
   xmlns:svg="http://www.w3.org/2000/svg"
   xmlns="http://www.w3.org/2000/svg"
   xmlns:sodipodi="http://sodipodi.sourceforge.net/DTD/sodipodi-0.dtd"
   xmlns:inkscape="http://www.inkscape.org/namespaces/inkscape"
   version="1.1"
   id="Layer_1"
   x="0px"
   y="0px"
   viewBox="0 0 106.30795 105"
   xml:space="preserve"
   sodipodi:docname="freeradius.svg"
   width="106.30795"
   height="105"
   inkscape:version="0.92.4 (5da689c313, 2019-01-14)"><metadata
   id="metadata49"><rdf:RDF><cc:Work
       rdf:about=""><dc:format>image/svg+xml</dc:format><dc:type
         rdf:resource="http://purl.org/dc/dcmitype/StillImage" /></cc:Work></rdf:RDF></metadata><defs
   id="defs47" /><sodipodi:namedview
   pagecolor="#ffffff"
   bordercolor="#666666"
   borderopacity="1"
   objecttolerance="10"
   gridtolerance="10"
   guidetolerance="10"
   inkscape:pageopacity="0"
   inkscape:pageshadow="2"
   inkscape:window-width="1920"
   inkscape:window-height="986"
   id="namedview45"
   showgrid="false"
   inkscape:zoom="0.91162791"
   inkscape:cx="43.5"
   inkscape:cy="56.6"
   inkscape:window-x="-11"
   inkscape:window-y="-11"
   inkscape:window-maximized="1"
   inkscape:current-layer="Layer_1" />
<style
   type="text/css"
   id="style2">
	.st0{fill:none;stroke:#FFD62B;stroke-width:3;stroke-miterlimit:10;}
	.st1{fill:#B0C3C6;}
	.st2{fill:none;stroke:#DEE7E8;stroke-miterlimit:10;}
	.st3{fill:#00A6E2;}
	.st4{fill:none;stroke:#B0C3C6;stroke-width:2;stroke-miterlimit:10;}
	.st5{fill:#666666;}
	.st6{fill:none;stroke:#B0C3C6;stroke-width:2;stroke-linejoin:round;stroke-miterlimit:10;}
	.st7{fill:#00C9ED;}
	.st8{fill:#FFFFFF;stroke:#B0C3C6;stroke-width:2;stroke-linejoin:round;stroke-miterlimit:10;}
	.st9{fill:#303030;}
	.st10{opacity:0.4;fill:#F6F6F6;}
	.st11{fill:none;stroke:#999999;stroke-width:2;stroke-miterlimit:10;}
	.st12{fill:#999999;}
	.st13{fill:#FFFFFF;}
	.st14{clip-path:url(#SVGID_3_);fill:#2F3537;}
	.st15{opacity:0.3;fill:none;stroke:#9FB1B3;stroke-width:2;stroke-miterlimit:10;}
	.st16{fill:none;stroke:#FFFFFF;stroke-miterlimit:10;}
	.st17{fill:#FFFFFF;stroke:#FFFFFF;stroke-miterlimit:10;}
	.st18{fill:none;stroke:#303030;stroke-miterlimit:10;}
	.st19{opacity:0.8;fill:#B0C3C6;}
	.st20{opacity:0.7;}
	.st21{opacity:0.8;clip-path:url(#SVGID_5_);fill:#00A6E2;}
	.st22{opacity:0.8;fill:#00A6E2;}
	.st23{opacity:0.8;clip-path:url(#SVGID_7_);fill:#00A6E2;}
	.st24{clip-path:url(#SVGID_9_);}
	.st25{clip-path:url(#SVGID_11_);}
	.st26{fill:none;stroke:#B0C3C6;stroke-width:3;stroke-linejoin:round;stroke-miterlimit:10;}
	.st27{opacity:0.3;fill:none;stroke:#9FB1B3;stroke-width:3;stroke-miterlimit:10;}
	.st28{fill:#FFFFFF;stroke:#B0C3C6;stroke-width:3;stroke-linejoin:round;stroke-miterlimit:10;}
	.st29{clip-path:url(#SVGID_13_);fill:#2F3537;}
	.st30{clip-path:url(#SVGID_14_);fill:#2F3537;}
	.st31{clip-path:url(#SVGID_16_);fill:#B0C3C6;}
	.st32{fill:#33B8E8;}
	.st33{fill:#238DB4;}
	.st34{fill:#E2E7E8;}
	.st35{clip-path:url(#SVGID_20_);}
	.st36{fill:#FFFFFF;stroke:#B0C3C6;stroke-width:2;stroke-miterlimit:10;}
	.st37{fill:#B4CBCE;}
	.st38{fill:#003147;}
	.st39{fill:#FFD62B;}
	.st40{fill:#00B78E;}
	.st41{fill:#FF7824;}
	.st42{fill:#FF3223;}
	.st43{fill:#7955DF;}
	.st44{fill:none;stroke:#FF3223;stroke-width:2;stroke-miterlimit:10;}
	.st45{fill:none;stroke:#00A6E2;stroke-width:2;stroke-miterlimit:10;}
	.st46{clip-path:url(#SVGID_22_);fill:#303030;}
	.st47{fill:#F5C81F;}
	.st48{fill:#F49F90;}
	.st49{fill:#F3EEDE;}
	.st50{fill-rule:evenodd;clip-rule:evenodd;fill:#FFFFFF;}
	.st51{fill:#00131F;}
	.st52{clip-path:url(#SVGID_24_);fill:#303030;}
	.st53{fill:none;stroke:#FFFFFF;stroke-width:2;stroke-miterlimit:10;}
	.st54{clip-path:url(#SVGID_25_);fill:#303030;}
	.st55{clip-path:url(#SVGID_26_);fill:#303030;}
	.st56{opacity:0.3;fill:#B0C3C6;stroke:#B0C3C6;stroke-width:3;stroke-miterlimit:10;}
	.st57{fill:#FBFFFF;stroke:#9FB1B3;stroke-width:2;stroke-miterlimit:10;}
	.st58{fill:none;stroke:#666666;stroke-width:2;stroke-miterlimit:10;}
	.st59{clip-path:url(#SVGID_28_);fill:#2F3537;}
	.st60{fill-rule:evenodd;clip-rule:evenodd;fill:#00131F;}
	.st61{fill:#BBBBBB;}
	.st62{fill:#FF6434;}
	.st63{fill:#B5F0F5;}
	.st64{fill:none;stroke:#B0C3C6;stroke-width:3;stroke-miterlimit:10;}
	.st65{fill:#B0C3C6;stroke:#B0C3C6;stroke-width:2;stroke-miterlimit:10;}
	.st66{fill:#EBFAFB;}
	.st67{clip-path:url(#SVGID_30_);}
	.st68{fill:#DEE7E8;}
	.st69{fill:none;}
	.st70{fill:#757575;}
	.st71{fill:#FFFFFF;stroke:#808184;stroke-width:2;stroke-linejoin:round;stroke-miterlimit:10;}
	.st72{fill:none;stroke:#808184;stroke-width:2;stroke-linejoin:round;stroke-miterlimit:10;}
	.st73{fill:#333435;}
	.st74{clip-path:url(#SVGID_32_);fill:#303030;}
	.st75{clip-path:url(#SVGID_34_);fill:#303030;}
	.st76{opacity:0.8;}
	.st77{fill:#576263;}
	.st78{opacity:0.2;fill:#9FB1B3;}
	.st79{opacity:0.2;fill:none;stroke:#9FB1B3;stroke-miterlimit:10;}
	.st80{opacity:0.3;}
	.st81{fill:#FBFBFB;}
	.st82{clip-path:url(#SVGID_36_);fill:#303030;}
	.st83{fill:#A4A4A4;}
	.st84{clip-path:url(#SVGID_38_);fill:#303030;}
	.st85{fill:none;stroke:#808184;stroke-width:2;stroke-miterlimit:10;}
	.st86{clip-path:url(#SVGID_40_);fill:#303030;}
	.st87{clip-path:url(#SVGID_42_);fill:#303030;}
	.st88{clip-path:url(#SVGID_44_);fill:#B0C3C6;}
	.st89{clip-path:url(#SVGID_46_);}
	.st90{clip-path:url(#SVGID_48_);fill:#303030;}
	.st91{fill:#1A1A1B;}
	.st92{clip-path:url(#SVGID_50_);fill:#303030;}
</style>
<path
   class="st3"
   d="m 98.6,74.3 c -4.4,0 -8.2,-3 -9.3,-7.1 2.8,1 5.7,1.6 8.8,1.6 4.4,0 7.9,-3.5 7.9,-7.9 0,-4.4 -3.5,-7.9 -7.9,-7.9 -5.3,0 -9.9,-4.3 -9.9,-9.6 0,-0.7 0,-2.1 0,-2.1 V 35.2 C 88.2,15.8 72.5,0 53,0 33.5,0 17.8,15.7 17.8,35.2 v 6.1 c 0,0 0,1.3 0,2.1 0,5.3 -4.6,9.6 -9.9,9.6 -4.4,0 -7.9,3.5 -7.9,7.9 0,4.4 3.5,7.9 7.9,7.9 3.5,0 6.8,-0.7 9.8,-2 -1,4.3 -4.8,7.5 -9.4,7.5 -4.4,0 -7.9,3.5 -7.9,7.9 0,4.4 3.5,7.9 7.9,7.9 6.9,0 13.2,-2.8 17.8,-7.3 v 10.4 c 0,4.4 3.5,7.9 7.9,7.9 4.4,0 7.9,-3.5 7.9,-7.9 V 78.4 H 45 v 18.7 c 0,4.4 3.5,7.9 7.9,7.9 4.4,0 7.9,-3.5 7.9,-7.9 V 78.4 h 3.1 v 14.8 c 0,4.4 3.5,7.9 7.9,7.9 4.4,0 7.9,-3.5 7.9,-7.9 V 81.8 c 4.7,5.1 11.3,8.2 18.7,8.2 4.4,0 7.9,-3.5 7.9,-7.9 0.2,-4.2 -3.4,-7.8 -7.7,-7.8 z"
   id="path4"
   inkscape:connector-curvature="0"
   style="fill:#00a6e2" />
<circle
   class="st13"
   cx="53.100006"
   cy="38.099998"
   r="17.5"
   id="circle6"
   style="fill:#ffffff" />
<path
   class="st9"
   d="m 70.4,40.9 c -1.1,-5.5 -6.1,-9.7 -11.9,-9.7 -6.7,0 -12.2,5.5 -12.2,12.2 0,5.9 4.2,10.8 9.7,11.9 7.3,-1.2 13.1,-7 14.4,-14.4 z"
   id="path8"
   inkscape:connector-curvature="0"
   style="fill:#303030" />
<g
   id="g22"
   transform="translate(-171.5,-71.6)">
	<path
   class="st73"
   d="m 58.1,64.1 c -0.2,-0.2 -0.4,-0.3 -0.7,-0.3 h -51 c -0.3,0 -0.5,0.1 -0.7,0.3 -0.2,0.2 -0.3,0.4 -0.3,0.7 v 51 c 0,0.3 0.1,0.5 0.3,0.7 0.2,0.2 0.4,0.3 0.7,0.3 h 51 c 0.3,0 0.5,-0.1 0.7,-0.3 0.2,-0.2 0.3,-0.4 0.3,-0.7 v -51 c 0,-0.2 -0.1,-0.5 -0.3,-0.7 z M 7.3,65.8 h 49 V 76 h -49 z m 49.1,49.1 H 7.4 V 78 h 49 z"
   id="path10"
   inkscape:connector-curvature="0"
   style="fill:#333435" />
	<path
   class="st73"
   d="m 13,67.5 c -1.9,0 -3.4,1.5 -3.4,3.4 0,1.9 1.5,3.4 3.4,3.4 1.9,0 3.4,-1.5 3.4,-3.4 0,-1.9 -1.5,-3.4 -3.4,-3.4 z m 0,4.8 c -0.8,0 -1.4,-0.6 -1.4,-1.4 0,-0.8 0.6,-1.4 1.4,-1.4 0.8,0 1.4,0.6 1.4,1.4 0,0.8 -0.6,1.4 -1.4,1.4 z"
   id="path12"
   inkscape:connector-curvature="0"
   style="fill:#333435" />
	<path
   class="st73"
   d="m 22.1,67.5 c -1.9,0 -3.4,1.5 -3.4,3.4 0,1.9 1.5,3.4 3.4,3.4 1.9,0 3.4,-1.5 3.4,-3.4 0,-1.9 -1.5,-3.4 -3.4,-3.4 z m 0,4.8 c -0.8,0 -1.4,-0.6 -1.4,-1.4 0,-0.8 0.6,-1.4 1.4,-1.4 0.8,0 1.4,0.6 1.4,1.4 0,0.8 -0.6,1.4 -1.4,1.4 z"
   id="path14"
   inkscape:connector-curvature="0"
   style="fill:#333435" />
	<path
   class="st73"
   d="m 31.2,67.5 c -1.9,0 -3.4,1.5 -3.4,3.4 0,1.9 1.5,3.4 3.4,3.4 1.9,0 3.4,-1.5 3.4,-3.4 0,-1.9 -1.5,-3.4 -3.4,-3.4 z m 0,4.8 c -0.8,0 -1.4,-0.6 -1.4,-1.4 0,-0.8 0.6,-1.4 1.4,-1.4 0.8,0 1.4,0.6 1.4,1.4 0.1,0.8 -0.6,1.4 -1.4,1.4 z"
   id="path16"
   inkscape:connector-curvature="0"
   style="fill:#333435" />
	<path
   class="st73"
   d="m 10.2,91.2 1.4,1.4 4.6,-4.6 c 0.1,-0.1 0.2,-0.2 0.4,-0.4 0.1,-0.2 0.2,-0.4 0.2,-0.8 0,-0.3 -0.1,-0.6 -0.2,-0.8 -0.1,-0.2 -0.2,-0.3 -0.4,-0.4 l -4.6,-4.6 -0.7,0.7 -0.7,0.7 0.7,0.7 3.6,3.6 -3.6,3.6 z"
   id="path18"
   inkscape:connector-curvature="0"
   style="fill:#333435" />
	<polygon
   class="st73"
   points="25.8,93.2 25.8,91.2 16.6,91.2 16.6,92.2 16.6,93.2 "
   id="polygon20"
   style="fill:#333435" />
</g>
<path
   class="st73"
   d="m 184.7,-30.3 c -15.9,0 -28.8,12.9 -28.8,28.8 0,15.9 12.9,28.8 28.8,28.8 15.9,0 28.8,-12.9 28.8,-28.8 0,-15.9 -12.9,-28.8 -28.8,-28.8 z m 5,8.9 c 0.1,0.4 0.4,0.7 0.8,0.8 0.1,0 0.3,0 0.4,0.1 -0.1,0 -0.2,0.1 -0.3,0.1 -0.9,0.2 -2,0.5 -3.3,1.2 -0.3,0.2 -0.5,0.4 -0.8,0.6 -0.9,0.8 -2,2.1 -2.9,3.3 -0.4,0.5 -0.7,0.9 -1,1.3 -0.2,-0.2 -0.5,-0.4 -0.8,-0.6 -0.4,-0.3 -1,-0.5 -1.6,-0.5 H 180 v 0 c -0.9,0.1 -1.8,0.1 -2.7,0.4 -0.5,0.2 -0.9,0.4 -1.3,0.8 -0.4,0.4 -0.7,0.9 -0.9,1.5 -0.3,0.7 -0.4,1.2 -0.4,1.8 0,0.2 0,0.4 0.1,0.7 0,0 0,0 0,0 -0.6,-0.2 -1,-0.4 -1.3,-0.7 0,0 -0.1,-0.1 -0.1,-0.3 -0.3,-0.6 -0.7,-1.7 -1.1,-2.6 -0.2,-0.5 -0.4,-0.9 -0.7,-1.3 -0.1,-0.2 -0.3,-0.4 -0.5,-0.6 -0.2,-0.2 -0.5,-0.3 -0.9,-0.4 -0.1,0 -0.2,0 -0.3,0 -0.2,-0.8 -0.3,-1.7 -0.3,-2.4 0,-0.2 0,-0.4 0,-0.5 v 0 c 0,-0.2 0.1,-0.3 0.2,-0.6 0.2,-0.3 0.7,-0.7 1.1,-1.2 0.2,-0.3 0.5,-0.6 0.6,-0.9 0.2,-0.4 0.3,-0.8 0.3,-1.3 0,-0.5 -0.1,-1 -0.3,-1.5 v 0 c 0,-0.1 -0.1,-0.2 -0.1,-0.2 2.8,-1.6 5.8,-2.7 9.1,-3.3 2,-0.1 4.7,-0.2 6.9,-0.2 -0.2,0.1 -0.5,0.2 -0.7,0.3 -0.7,0.3 -1.4,0.7 -1.9,1 -0.3,0.2 -0.5,0.3 -0.7,0.6 -0.1,0.1 -0.2,0.2 -0.3,0.4 -0.1,0.2 -0.2,0.4 -0.2,0.7 0,0 0,0.1 0,0.3 0,0.1 0.1,0.2 0.1,0.2 0.1,0.1 0.1,0.2 0.1,0.2 l 0.1,0.1 c 0.2,0.1 0.4,0.3 0.7,0.6 0.5,0.4 1,0.8 1.5,1.1 0.2,0.2 0.4,0.3 0.5,0.4 l 0.1,0.1 c 0.1,0.2 0.3,0.3 0.5,0.3 0.2,0 0.4,0.1 0.5,0.1 0.8,0 1.4,-0.4 1.9,-0.8 0.7,-0.6 1.3,-1.4 1.8,-1.9 0.3,-0.3 0.5,-0.5 0.8,-0.6 0.2,-0.1 0.5,-0.2 0.7,-0.2 0.2,0 0.5,0 0.8,0.2 0.1,0.2 0.1,0.3 0.2,0.5 0.2,0.4 0.4,0.8 0.6,1.1 -0.1,0 -0.1,0 -0.2,0.1 -0.6,0.1 -1.4,0.2 -2.2,0.3 -0.4,0 -0.7,0.1 -1.1,0.2 -0.3,0.1 -0.6,0.1 -1,0.3 -0.2,0.1 -0.4,0.5 -0.3,0.9 z m -20.1,-2.2 c 0.5,-0.3 1,-0.6 1.5,-0.9 -0.5,0.3 -1,0.6 -1.5,0.9 z m 20.2,-4.2 c 0.3,0.1 0.6,0.1 0.9,0.2 -0.4,-0.1 -0.7,-0.1 -0.9,-0.2 z m 1.2,0.3 c 0.6,0.1 1.1,0.3 1.7,0.5 -0.7,0.1 -1.3,0.4 -1.8,0.7 -0.9,0.6 -1.4,1.4 -2,2 -0.3,0.3 -0.5,0.5 -0.7,0.6 -0.2,0.1 -0.3,0.1 -0.4,0.2 0,0 0,0 0,0 -0.4,-0.3 -1.1,-0.8 -1.7,-1.3 -0.1,-0.1 -0.2,-0.1 -0.3,-0.2 0.4,-0.2 0.8,-0.5 1.3,-0.7 1,-0.5 2.1,-0.9 3,-1.3 0.3,-0.3 0.6,-0.4 0.9,-0.5 z m -4.3,-0.7 c 0.3,0 0.7,0.1 1,0.1 -0.3,0 -0.6,0 -1,-0.1 z m 1.6,0.2 c 0.3,0 0.6,0.1 0.9,0.1 -0.3,0 -0.6,-0.1 -0.9,-0.1 z m 4.4,0.9 c 0.5,0.1 0.9,0.3 1.4,0.5 -0.5,-0.1 -0.9,-0.3 -1.4,-0.5 z m 1.8,0.7 c 0.3,0.1 0.7,0.3 1,0.4 -0.4,-0.2 -0.7,-0.3 -1,-0.4 z m -8.3,-1.8 c -0.5,0 -1,0 -1.5,0 -0.7,0 -1.4,0 -2,0.1 0.7,0 1.3,-0.1 2,-0.1 0.5,-0.1 1,0 1.5,0 z m -5.8,0.3 c 0.6,-0.1 1.3,-0.2 1.9,-0.2 -0.6,0 -1.2,0.1 -1.9,0.2 z m 23.3,45.4 c -4.9,4.8 -11.5,7.8 -18.9,7.8 -7.4,0 -14.1,-3 -18.9,-7.8 -4.8,-4.9 -7.8,-11.5 -7.8,-18.9 0,-7.4 3,-14.1 7.8,-18.9 1.1,-1.1 2.4,-2.2 3.7,-3.1 0.1,0.3 0.2,0.5 0.2,0.7 0,0.2 -0.1,0.4 -0.2,0.6 -0.2,0.3 -0.6,0.7 -1.1,1.2 -0.2,0.2 -0.5,0.5 -0.7,0.9 -0.2,0.3 -0.3,0.8 -0.4,1.2 v 0 c 0,0.2 0,0.4 0,0.7 0,2.2 0.7,4.7 2.2,6.6 0.2,0.2 0.5,0.4 0.8,0.4 0.2,0 0.3,0 0.5,-0.1 0.1,0.1 0.1,0.3 0.1,0.4 0.1,0.3 0.3,0.7 0.4,0.9 0.1,0.1 0.1,0.3 0.2,0.4 0.1,0.1 0.2,0.3 0.3,0.4 0.9,0.8 2.1,1.2 3.2,1.4 1.1,0.3 2.1,0.4 2.8,0.7 0.3,0.1 0.5,0.2 0.6,0.4 0.2,0.2 0.5,0.5 0.9,0.9 0.3,0.3 0.7,0.6 1.3,0.8 -0.6,1 -0.9,2.2 -0.9,3.5 0,0.9 0.2,1.8 0.5,2.7 0.3,0.6 0.7,1.1 1.1,1.6 0.6,0.6 1.3,1 1.8,1.4 0.5,0.4 0.9,0.7 1.1,1.2 0.2,0.4 0.3,0.9 0.4,1.5 0.1,0.6 0.1,1.2 0.1,1.9 0,0.2 0,0.5 0,0.7 0,0.8 0,1.7 0.2,2.6 v 0 c 0.2,1 0.5,2.3 1.1,3.5 0.5,1.1 1.1,2.1 2,2.9 0.1,0.1 0.2,0.1 0.2,0.2 0,0 0,0 0,0 0,0 0.1,0.1 0.1,0.1 0.1,0.1 0.3,0.1 0.4,0.1 0,0 0,0 0,0 0,0 0,0 0,0 0.4,0 0.8,-0.2 1.1,-0.4 0.4,-0.4 0.6,-0.8 0.7,-1.2 0.1,-0.4 0.1,-0.9 0.1,-1.3 0,-0.5 -0.1,-1.1 -0.2,-1.6 0.2,-0.1 0.3,-0.1 0.4,-0.2 0.3,-0.2 0.5,-0.4 0.7,-0.6 0.2,-0.4 0.3,-0.7 0.4,-1.1 0,-0.3 0.1,-0.5 0.1,-0.7 0.2,0 0.5,-0.1 0.7,-0.2 0.3,-0.2 0.6,-0.4 0.7,-0.6 0.3,-0.3 0.4,-0.6 0.6,-0.9 0.2,-0.2 0.3,-0.5 0.6,-0.7 0.1,-0.1 0.8,-0.7 1.5,-1.3 0.4,-0.3 0.7,-0.6 1,-0.9 0.1,-0.1 0.2,-0.2 0.3,-0.3 v 0 c 0.1,-0.1 0.2,-0.2 0.3,-0.3 0.6,-0.9 1.1,-1.7 1.5,-2.5 0.4,-0.8 0.6,-1.6 0.6,-2.4 0,-0.7 -0.2,-1.3 -0.5,-1.9 -0.3,-0.6 -0.8,-1.1 -1.4,-1.6 -0.2,-0.2 -0.4,-0.3 -0.6,-0.3 -0.3,-0.1 -0.7,-0.2 -1.1,-0.3 -0.6,-0.1 -1.2,-0.3 -1.8,-0.4 -0.1,0 -0.2,0 -0.3,-0.1 0,-0.2 -0.1,-0.4 -0.1,-0.6 -0.1,-0.2 -0.3,-0.4 -0.4,-0.5 -0.2,-0.1 -0.3,-0.3 -0.6,-0.4 C 192,-5 190.7,-5.8 189.4,-6.4 188,-7 186.6,-7.6 185,-7.6 h -0.1 c -0.7,0 -1.4,0.2 -2.1,0.6 -0.4,0.2 -0.7,0.5 -1,0.8 -0.1,-0.2 -0.2,-0.4 -0.3,-0.6 -0.1,-0.2 -0.1,-0.4 -0.1,-0.7 0,-0.2 -0.1,-0.4 -0.2,-0.7 -0.1,-0.4 -0.5,-0.8 -0.9,-1 0,0 0,0 -0.1,0 0,-0.2 0.1,-0.4 0.1,-0.6 0,-0.3 -0.1,-0.6 -0.2,-0.9 -0.1,-0.3 -0.3,-0.5 -0.5,-0.6 -0.2,-0.1 -0.4,-0.1 -0.6,-0.1 -0.2,0 -0.4,0 -0.5,0.1 -0.5,0.1 -1,0.4 -1.5,0.6 -0.2,0.1 -0.5,0.2 -0.7,0.2 0,0 -0.1,0 -0.1,0 0,-0.2 0.1,-0.4 0.2,-0.7 0.2,-0.4 0.3,-0.7 0.5,-0.8 0.2,-0.2 0.5,-0.3 0.9,-0.4 0.4,-0.1 1.1,-0.1 1.8,-0.2 v 0 h 0.1 c 0.1,0 0.3,0 0.5,0.1 0.3,0.1 0.6,0.4 0.9,0.7 0.1,0.1 0.3,0.2 0.4,0.4 0.1,0.1 0.1,0.1 0.3,0.2 0.1,0.1 0.3,0.2 0.6,0.2 h 0.2 c 0.2,0 0.2,-0.1 0.3,-0.1 0.1,-0.1 0.1,-0.1 0.2,-0.1 l 0.1,-0.1 0.1,-0.1 v 0 c 0.2,-0.2 1.1,-1.4 2.1,-2.7 0.5,-0.6 1,-1.3 1.5,-1.8 0.2,-0.3 0.5,-0.5 0.6,-0.6 0.2,-0.2 0.3,-0.3 0.4,-0.3 1.1,-0.6 1.9,-0.7 2.8,-1 0.9,-0.2 2,-0.5 3.1,-1.3 0.3,-0.2 0.5,-0.5 0.4,-0.9 0,-0.2 -0.1,-0.3 -0.2,-0.5 0.3,-0.1 0.5,-0.1 0.8,-0.2 0.4,-0.1 0.8,-0.3 1.1,-0.5 0.2,-0.1 0.4,-0.3 0.5,-0.5 0.1,-0.2 0.2,-0.5 0.2,-0.8 0,0 0,0 0,0 0,0 0,0 0,0 0,-0.4 -0.2,-0.7 -0.6,-0.9 0,-0.1 -0.1,-0.1 -0.2,-0.2 -0.2,-0.3 -0.4,-0.6 -0.5,-0.9 0,-0.1 -0.1,-0.1 -0.1,-0.2 0,-0.1 0,-0.2 0,-0.4 0,0 0,-0.1 0,-0.1 3,1.3 5.7,3.2 8,5.5 5.3,4.1 8.3,10.8 8.3,18.2 0,7.4 -3,14.1 -7.8,19 z m -26,-26.9 c 0.2,-0.1 0.3,-0.1 0.5,-0.2 -0.1,0.1 -0.1,0.2 -0.1,0.3 -0.2,0 -0.3,0 -0.4,-0.1 z m 14.5,7.2 c 0.1,0.2 0.3,0.3 0.4,0.4 0.1,0.1 0.2,0.1 0.3,0.2 0.2,0.1 0.3,0.1 0.5,0.2 0.6,0.2 1.4,0.3 2.2,0.5 0.4,0.1 0.7,0.2 1,0.2 0.1,0 0.2,0.1 0.3,0.1 h 0.1 c 0.5,0.4 0.7,0.7 0.9,1 0.2,0.3 0.2,0.6 0.2,1 0,0.4 -0.1,1 -0.4,1.6 -0.3,0.6 -0.7,1.3 -1.2,2.1 -0.1,0.1 -0.3,0.3 -0.6,0.5 -0.9,0.7 -2.2,1.9 -2.3,2 -0.8,0.7 -1.1,1.4 -1.3,1.7 -0.1,0.1 -0.1,0.1 -0.2,0.2 -0.1,0 -0.2,0.1 -0.5,0.1 h -0.2 c 0,0 0,0 0,0 -0.4,0 -0.8,0.3 -0.9,0.6 -0.1,0.2 -0.1,0.3 -0.1,0.4 0,0.1 0,0.2 0,0.3 0,0.2 0,0.3 0,0.4 0,0.4 0,0.7 -0.1,0.8 l -0.1,0.1 c 0,0 -0.1,0 -0.2,0 -0.1,0 -0.2,0 -0.4,0 -0.1,0 -0.1,0 -0.2,0 -0.4,0 -0.7,0.2 -0.9,0.5 -0.2,0.4 -0.1,0.9 0.2,1.2 0,0 0,0.1 0.1,0.2 0.1,0.3 0.3,1 0.3,1.6 0,0.2 0,0.3 0,0.4 -0.3,-0.4 -0.7,-1 -0.9,-1.6 -0.5,-1 -0.8,-2.1 -0.9,-3 v 0 c -0.1,-0.6 -0.1,-1.4 -0.1,-2.2 0,-0.2 0,-0.5 0,-0.7 0,-0.7 0,-1.4 -0.1,-2.1 -0.1,-0.7 -0.3,-1.4 -0.6,-2.1 -0.3,-0.6 -0.7,-1 -1.1,-1.4 -0.6,-0.5 -1.2,-0.9 -1.7,-1.3 -0.5,-0.4 -0.9,-0.8 -1.1,-1.3 -0.3,-0.6 -0.4,-1.2 -0.4,-1.9 0,-1.2 0.5,-2.4 1.1,-3.3 0.3,-0.4 0.7,-0.8 1.1,-1 0.4,-0.2 0.7,-0.3 1,-0.3 v 0 c 1.1,0 2.3,0.4 3.6,1 1.2,0.5 2.3,1.3 3.3,1.9 0,0.1 -0.1,0.3 -0.1,0.4 -0.2,0.2 -0.1,0.4 0,0.6 z"
   id="path24"
   inkscape:connector-curvature="0"
   style="fill:#333435" />
<path
   class="st73"
   d="m 186.3,111.7 v 0 c -1.4,0 -2.6,-0.5 -3.5,-1.4 -0.9,-0.9 -1.4,-2.1 -1.4,-3.5 0,-1.4 0.5,-2.6 1.4,-3.5 0.9,-0.9 2.1,-1.4 3.5,-1.4 1.4,0 2.6,0.5 3.5,1.4 0.9,0.9 1.4,2.1 1.4,3.5 0,1.4 -0.5,2.6 -1.4,3.5 -0.9,0.9 -2.1,1.4 -3.5,1.4 m 0,-11.8 c -3.8,0 -6.9,3.1 -6.9,6.9 0,3 1.9,5.6 4.6,6.5 0.7,-0.1 1.5,-0.1 2.3,-0.1 v 0 c 0.8,0 1.6,0 2.3,0.1 2.7,-0.9 4.6,-3.5 4.6,-6.5 0,-3.8 -3.1,-6.9 -6.9,-6.9"
   id="path26"
   inkscape:connector-curvature="0"
   style="fill:#333435" />
<path
   class="st73"
   d="m 186.3,113.2 c -0.8,0 -1.6,0 -2.3,0.1 -2,0.2 -3.8,0.8 -5.3,1.6 0.7,0.4 1.4,0.8 2,1.3 1.6,-0.6 3.5,-1 5.6,-1 v 0 c 3.3,0 6,0.9 7.9,2.3 1.9,1.4 2.9,3.3 2.9,5.6 v 0.5 H 186 c 0.2,0.6 0.4,1.3 0.5,2 h 11.6 c 0.3,0 0.5,-0.1 0.7,-0.3 0.2,-0.2 0.3,-0.4 0.3,-0.7 v -1.5 c 0,-2.9 -1.4,-5.5 -3.7,-7.2 -1.8,-1.3 -4.1,-2.2 -6.8,-2.5 -0.7,-0.2 -1.5,-0.2 -2.3,-0.2 v 0"
   id="path28"
   inkscape:connector-curvature="0"
   style="fill:#333435" />
<path
   class="st73"
   d="m 147.4,111.7 v 0 c -1.4,0 -2.6,-0.5 -3.5,-1.4 -0.9,-0.9 -1.4,-2.1 -1.4,-3.5 0,-1.4 0.5,-2.6 1.4,-3.5 0.9,-0.9 2.1,-1.4 3.5,-1.4 1.4,0 2.6,0.5 3.5,1.4 0.9,0.9 1.4,2.1 1.4,3.5 0,1.4 -0.5,2.6 -1.4,3.5 -0.9,0.9 -2.2,1.4 -3.5,1.4 m 0,-11.8 c -3.8,0 -6.9,3.1 -6.9,6.9 0,3 1.9,5.6 4.6,6.5 0.7,-0.1 1.5,-0.1 2.3,-0.1 v 0 c 0.8,0 1.6,0 2.3,0.1 2.7,-0.9 4.6,-3.5 4.6,-6.5 0,-3.8 -3.1,-6.9 -6.9,-6.9"
   id="path30"
   inkscape:connector-curvature="0"
   style="fill:#333435" />
<path
   class="st73"
   d="m 147.4,113.2 c -0.8,0 -1.6,0 -2.3,0.1 -2.7,0.3 -5,1.2 -6.8,2.5 -2.3,1.7 -3.7,4.3 -3.7,7.2 v 1.5 c 0,0.3 0.1,0.5 0.3,0.7 0.2,0.2 0.4,0.3 0.7,0.3 h 11.6 c 0.1,-0.7 0.3,-1.4 0.5,-2 H 136.6 V 123 c 0,-2.3 1,-4.2 2.9,-5.6 1.9,-1.4 4.6,-2.3 7.9,-2.3 v 0 c 2.1,0 4,0.4 5.6,1 0.6,-0.5 1.3,-0.9 2,-1.3 -0.2,-0.1 -0.4,-0.2 -0.7,-0.3 -1.4,-0.6 -2.9,-1 -4.6,-1.2 -0.8,-0.1 -1.5,-0.1 -2.3,-0.1 v 0"
   id="path32"
   inkscape:connector-curvature="0"
   style="fill:#333435" />
<path
   class="st73"
   d="m 165.2,112.1 c -1.4,-0.3 -2.6,-1 -3.5,-1.9 -1.3,-1.3 -2.1,-3.1 -2.1,-5.1 0,-2 0.8,-3.8 2.1,-5.1 1.3,-1.3 3.1,-2.1 5.1,-2.1 2,0 3.8,0.8 5.1,2.1 1.3,1.3 2.1,3.1 2.1,5.1 0,2 -0.8,3.8 -2.1,5.1 -1,1 -2.2,1.6 -3.5,1.9 -0.5,0.1 -1.1,0.2 -1.6,0.2 v 0 c -0.5,0 -1,0 -1.6,-0.2 m 1.7,-16.3 c -5.1,0 -9.3,4.2 -9.3,9.3 0,3.1 1.5,5.9 3.9,7.5 1.5,1.1 3.4,1.7 5.4,1.7 v 0 c 2,0 3.9,-0.6 5.4,-1.7 2.3,-1.7 3.9,-4.4 3.9,-7.5 -0.1,-5.2 -4.2,-9.3 -9.3,-9.3"
   id="path34"
   inkscape:connector-curvature="0"
   style="fill:#333435" />
<path
   class="st73"
   d="m 151.3,128.9 v -1.1 c 0,-3.3 1.5,-6.1 4.2,-8.1 2.7,-2 6.6,-3.3 11.3,-3.3 v 0 c 4.7,0 8.6,1.2 11.3,3.3 2.7,2 4.2,4.8 4.2,8.1 v 1.1 h -31 m 15.6,-14.5 c -5,0 -9.4,1.3 -12.5,3.7 -3.1,2.3 -5,5.8 -5,9.7 v 2.1 c 0,0.3 0.1,0.5 0.3,0.7 0.2,0.2 0.4,0.3 0.7,0.3 h 33.1 c 0.3,0 0.5,-0.1 0.7,-0.3 0.2,-0.2 0.3,-0.4 0.3,-0.7 v -2.1 c 0,-4 -1.9,-7.4 -5,-9.7 -3.3,-2.4 -7.6,-3.7 -12.6,-3.7 v 0"
   id="path36"
   inkscape:connector-curvature="0"
   style="fill:#333435" />
<path
   class="st73"
   d="M -43.9,118.9 -37,112 c 0.1,-0.1 0.1,-0.1 0.2,-0.2 L -31,106 c 0.5,-0.5 0.8,-1.2 0.8,-1.9 0,-0.7 -0.3,-1.4 -0.8,-1.9 l -8.3,-8.3 c -0.5,-0.5 -1.2,-0.8 -1.9,-0.8 0,0 0,0 0,0 0,0 0,0 0,0 -0.7,0 -1.4,0.3 -1.9,0.8 v 0 l -6,6 v 0 l -6.9,6.9 c -3,-3 -6,-6.1 -8.2,-8.5 -1.1,-1.2 -2.1,-2.2 -2.7,-2.9 -0.7,-0.7 -1,-1.1 -1,-1.1 v 0 c -0.7,-0.7 -1.5,-1 -2.2,-1 0,0 0,0 0,0 -0.5,0 -1,0.1 -1.4,0.3 -0.4,0.2 -0.7,0.4 -1,0.7 l -8,8 c -0.7,0.7 -1,1.5 -1,2.3 0,1 0.4,1.8 1,2.3 v 0 c 0,0 0.4,0.4 1.1,1.1 2.1,2 6.7,6.6 11.3,11.1 l -8.3,8.3 c -0.1,0.1 -0.2,0.2 -0.2,0.4 l -5,15.5 c -0.1,0.4 0,0.7 0.2,1 0.2,0.2 0.5,0.3 0.7,0.3 0.1,0 0.2,0 0.3,0 l 15.9,-4.7 c 0.2,0 0.3,-0.1 0.4,-0.3 l 8.2,-8.2 c 2.9,2.9 5.9,6 8.2,8.3 1.2,1.2 2.1,2.2 2.8,2.9 0.7,0.7 1.1,1.1 1.1,1.1 v 0 c 0.6,0.6 1.5,0.9 2.2,0.9 0,0 0,0 0,0 0.9,0 1.7,-0.3 2.3,-0.9 v 0 l 8,-8.1 v 0 c 0.6,-0.6 0.8,-1.3 0.9,-2.1 0,-0.6 -0.2,-1.3 -0.7,-1.8 -0.2,-0.2 -6.8,-6.8 -12.8,-12.8 z m 2.1,-23.6 v 0 c 0.1,-0.1 0.3,-0.2 0.5,-0.2 0.2,0 0.3,0.1 0.5,0.2 l 8.3,8.3 c 0.1,0.1 0.2,0.3 0.2,0.5 0,0.2 -0.1,0.3 -0.2,0.5 l -5.2,5.2 -9.3,-9.3 z m -25.1,37.6 h -3.4 v -3.4 l 24.7,-24.7 3.6,3.6 z m -4.3,-19.8 2.4,-2.4 -1.4,-1.4 -2.4,2.4 c -1.3,-1.2 -2.4,-2.4 -3.4,-3.3 l 5.6,-5.6 -1.4,-1.4 -5.6,5.6 c -1,-1 -1.6,-1.6 -1.7,-1.7 v 0 c -0.2,-0.2 -0.4,-0.6 -0.4,-0.9 0,-0.3 0.1,-0.5 0.4,-0.8 l 8,-8 c 0.1,-0.1 0.3,-0.2 0.4,-0.3 0.2,-0.1 0.3,-0.1 0.5,-0.1 0.2,0 0.5,0.1 0.9,0.4 v 0 c 0.5,0.5 6.1,6.7 12,12.6 l -9.4,9.4 c -1.6,-1.6 -3.1,-3.1 -4.5,-4.5 z m 22.8,-11.1 1.4,1.4 -24.5,24.5 -2.3,-0.5 z m -30.9,39.9 4.2,-12.8 2.9,0.6 v 4.1 c 0,0.3 0.1,0.5 0.3,0.7 0.2,0.2 0.4,0.3 0.7,0.3 h 4 l 0.9,3.2 z m 14.7,-5 -0.8,-2.7 24.8,-24.4 1.5,1.5 z m 31.8,-2.9 v 0 l -8,8.1 c -0.1,0.1 -0.5,0.3 -0.9,0.3 0,0 0,0 0,0 -0.3,0 -0.6,-0.1 -0.8,-0.3 -0.1,-0.1 -0.7,-0.7 -1.7,-1.8 l 5.7,-5.7 -1.4,-1.4 -5.7,5.7 c -1,-1 -2.1,-2.2 -3.3,-3.4 l 2.4,-2.4 -1.4,-1.4 -2.4,2.4 c -1.4,-1.4 -2.8,-2.9 -4.2,-4.3 l 9.3,-9.4 c 2.9,2.9 6,6 8.4,8.4 2.4,2.4 4.1,4.1 4.1,4.1 0.1,0.1 0.1,0.2 0.1,0.4 0.1,0.2 -0.1,0.5 -0.2,0.7 z"
   id="path38"
   inkscape:connector-curvature="0"
   style="fill:#333435" />
<path
   class="st73"
   d="m -35.7,-51.4 c 4.7,0 8.9,-2 11.8,-5.2 3,3.2 7.2,5.2 11.8,5.2 v 0 c 3.9,0 7.4,-1.4 10.9,-3.6 v 33.1 c -0.2,0.6 -1.2,3.3 -4.2,6.6 -3.3,3.6 -8.9,7.9 -18.5,10.7 -9.8,-2.8 -15.5,-7.2 -18.7,-10.8 -1.6,-1.8 -2.7,-3.5 -3.3,-4.7 -0.3,-0.6 -0.5,-1.1 -0.6,-1.4 -0.1,-0.1 -0.1,-0.3 -0.1,-0.3 V -55 c 3.5,2.2 7,3.6 10.9,3.6 m 11.8,-7.7 v 0 c -0.3,0 -0.6,0.1 -0.8,0.4 -2.6,3.2 -6.6,5.3 -11,5.3 -3.9,0 -7.5,-1.6 -11.3,-4.3 -0.2,-0.1 -0.4,-0.2 -0.6,-0.2 -0.2,0 -0.3,0 -0.5,0.1 -0.3,0.2 -0.5,0.5 -0.5,0.9 v 35.1 c 0,0.1 0,0.2 0,0.3 0,0.1 1,3.4 4.5,7.4 3.5,4 9.6,8.6 19.9,11.5 0.1,0 0.2,0 0.3,0 0.1,0 0.2,0 0.3,0 10.3,-2.9 16.4,-7.5 19.9,-11.5 3.5,-4 4.4,-7.2 4.5,-7.4 0,-0.1 0,-0.2 0,-0.3 v -35 c 0,-0.4 -0.2,-0.7 -0.5,-0.9 -0.1,-0.1 -0.3,-0.1 -0.5,-0.1 -0.2,0 -0.4,0.1 -0.6,0.2 -3.9,2.7 -7.4,4.3 -11.3,4.3 v 0 c -4.5,0 -8.4,-2.1 -11,-5.3 -0.2,-0.3 -0.5,-0.5 -0.8,-0.5"
   id="path40"
   inkscape:connector-curvature="0"
   style="fill:#333435" />
<path
   class="st73"
   d="m -13,-36.7 h 1 -1 m -21.7,8.5 v -7.5 h 6.1 c 0.3,0 0.5,-0.1 0.7,-0.3 0.2,-0.2 0.3,-0.4 0.3,-0.7 v -6.1 h 7.5 v 6.1 c 0,0.3 0.1,0.5 0.3,0.7 0.2,0.2 0.4,0.3 0.7,0.3 h 6.1 v 7.5 h -6.1 c -0.3,0 -0.5,0.1 -0.7,0.3 -0.2,0.2 -0.3,0.4 -0.3,0.7 v 6.1 h -7.5 v -6.1 c 0,-0.3 -0.1,-0.5 -0.3,-0.7 -0.2,-0.2 -0.4,-0.3 -0.7,-0.3 h -6.1 m 15.6,-16.6 h -9.5 c -0.3,0 -0.5,0.1 -0.7,0.3 -0.2,0.2 -0.3,0.4 -0.3,0.7 v 6.1 h -6.1 c -0.3,0 -0.5,0.1 -0.7,0.3 -0.2,0.2 -0.3,0.4 -0.3,0.7 v 9.5 c 0,0.3 0.1,0.5 0.3,0.7 0.2,0.2 0.4,0.3 0.7,0.3 h 6.1 v 6.1 c 0,0.3 0.1,0.5 0.3,0.7 0.2,0.2 0.4,0.3 0.7,0.3 h 9.5 c 0.3,0 0.5,-0.1 0.7,-0.3 0.2,-0.2 0.3,-0.4 0.3,-0.7 v -6.1 h 6.1 c 0.3,0 0.5,-0.1 0.7,-0.3 0.2,-0.2 0.3,-0.4 0.3,-0.7 v -9.5 c 0,-0.3 -0.1,-0.5 -0.3,-0.7 -0.2,-0.2 -0.4,-0.3 -0.7,-0.3 v 0 h -6.1 v -6.1 c 0,-0.3 -0.1,-0.5 -0.3,-0.7 -0.2,-0.2 -0.5,-0.3 -0.7,-0.3"
   id="path42"
   inkscape:connector-curvature="0"
   style="fill:#333435" />
</svg>