<svg id="svg2680" xmlns="http://www.w3.org/2000/svg" viewBox="0 0 1007.2 279.8" width="2500" height="694"><style>.st0{fill:#e20009}.st1{fill:#fff}</style><path id="path2601" class="st0" d="M0 139.9C0 62.6 225.5 0 503.6 0s503.6 62.6 503.6 139.9-225.5 139.9-503.6 139.9S0 217.2 0 139.9"/><path id="path2607" class="st1" d="M237.3 191.1l30.5-67.8s8.2-20.4 27.4-20.4h74.7L359 126.5h-56.1s-5.8-1.5-9.1 5.3L267 191.1h-29.7zm535.2 0h102.6s15.2.5 23.7-17.9c6.9-14.9 9.5-22.6 9.5-22.6s4.2-14.3-9.8-14.3h-70.8s-2.6-10.1 13.6-10.1h78.1l10.7-23.3H829.5s-17.9.3-24.1 14c-5.9 13.1-12.1 25.2-12.1 25.2s-6 16.1 10.7 16.1h70.8s-2.6 10-12.4 10H782l-9.5 22.9zM682 103l-30 68.6s-10.1 19.5 11 19.5h80s16.7 1.2 25.8-19.2c9.1-20.4 29.6-68.9 29.6-68.9h-30l-25.5 58.1s-1.7 7.4-8.5 7.4h-45.1s-6.4 0-2.9-7.9l25.3-57.6H682zm-29.2-32.4h28.8l-10.1 23.5h-28.7l10-23.5zm-14.3 32.3H667l-39.4 88.3h-28.8l39.7-88.3zm-171.6 88.2l39.3-88.3h95.5s21-1.4 12.1 19.1c-8.1 18.5-31.3 69.2-31.3 69.2h-30l27.3-59.9s2.7-4.7-6-4.7h-48.2l-29.9 64.6h-28.8zM392 102.8c-19.2 0-26.1 20.4-26.1 20.4l-23.6 52.4s-8 15.5 14.9 15.5h75.2s17.3 1.8 25.9-17.2c8.7-19.1 24.5-53.5 24.5-53.5s8.1-17.6-6.6-17.6H392zm6.2 23.6c1.4-.1 2.3.2 2.3.2h45.7c4.4 0 2.1 5.5 2.1 5.5s-12.3 27.4-14.7 32.2c-2.5 4.8-8 3.7-8 3.7h-42.5c-8 0-4.8-5.5-4.8-5.5l11.9-29c2.4-5.6 5.8-6.9 8-7.1zM98.1 191.1l48.1-111s8.4-21 26.3-21h118.7l-10.3 23.4h-99.5s-4.6-.8-7.4 4.6c-2.8 5.4-36.6 81-36.6 81h9.9l21-45.2s8.3-19.9 26.5-19.9h76.7l-10.1 23.2-59.2.3s-5-2.5-10.3 8.5c-4.7 9.8-25.5 56.1-25.5 56.1H98.1z"/></svg>