<?xml version="1.0" encoding="UTF-8" standalone="no"?>
<!DOCTYPE svg PUBLIC "-//W3C//DTD SVG 1.1//EN" "http://www.w3.org/Graphics/SVG/1.1/DTD/svg11.dtd">
<svg version="1.1" xmlns="http://www.w3.org/2000/svg" xmlns:xlink="http://www.w3.org/1999/xlink" preserveAspectRatio="xMidYMid meet" viewBox="61.22172326690991 231.90385418235306 520.3877541397698 196.9664798058591" width="516.39" height="192.97"><defs><path d="M100.34 290.07C100.87 289.4 105.09 283.96 105.62 283.28C106.12 282.53 107.38 282.03 108.39 282.03C117.36 282.03 189.18 282.03 198.16 282.03C199.17 282.03 199.42 282.78 198.92 283.54C198.49 284.19 195.07 289.42 194.64 290.07C194.14 290.83 192.88 291.58 192.13 291.58C186.06 291.57 155.71 291.48 101.09 291.33C100.25 291 100 290.58 100.34 290.07Z" id="aelSYCqZ6"></path><path d="M62.37 313.21C62.89 312.53 67.12 307.1 67.65 306.42C68.15 305.67 69.41 305.16 70.41 305.16C81.88 305.16 173.62 305.16 185.08 305.16C186.09 305.16 186.59 305.92 186.34 306.67C186.14 307.28 184.53 312.1 184.33 312.71C184.08 313.71 183.07 314.22 182.07 314.22C174.14 314.23 134.49 314.32 63.12 314.47C62.28 314.13 62.03 313.71 62.37 313.21Z" id="a7I5ldbQ0e"></path><path d="M123.22 336.09C123.57 335.47 126.39 330.44 126.74 329.81C127.25 329.05 128.25 328.3 129.26 328.3C134.29 328.3 174.52 328.3 179.55 328.3C180.56 328.3 181.06 329.05 181.06 330.06C181.01 330.66 180.61 335.49 180.56 336.09C180.56 337.1 179.55 337.85 178.8 337.85C175.14 337.84 156.87 337.75 123.98 337.6C123.14 337.1 122.89 336.6 123.22 336.09Z" id="a1XhfKJNUE"></path><path d="M342.76 297.87C338.99 298.88 338.73 299.13 335.47 295.36C331.69 291.08 328.93 288.31 323.65 285.8C307.8 278 292.46 280.27 278.13 289.57C261.03 300.64 252.23 316.98 252.48 337.35C252.73 357.47 266.56 374.07 286.43 376.83C303.53 379.1 317.86 373.06 329.18 360.24C331.44 357.47 333.45 354.45 335.97 350.93C326.92 350.93 315.6 350.93 287.43 350.93C282.15 350.93 280.9 347.66 282.66 343.39C285.93 335.59 291.96 322.51 295.48 315.98C296.24 314.47 298 311.95 301.77 311.95C314.59 311.95 361.87 311.95 393.3 311.95C392.8 318.74 392.8 325.53 391.8 332.32C389.03 350.43 382.24 367.03 371.17 381.61C353.07 405.5 329.43 420.34 299.5 424.36C274.86 427.63 251.98 422.85 231.86 407.76C213.25 393.68 202.69 375.07 199.92 351.94C196.65 324.53 204.7 299.88 221.3 278.26C239.15 254.87 262.79 240.03 291.71 234.75C315.35 230.48 337.98 233.24 358.35 247.07C371.68 255.87 381.23 267.94 387.52 282.53C389.03 284.79 388.02 286.05 385.01 286.81C369.16 290.83 358.35 293.85 342.76 297.87Z" id="dUb3UqwOV"></path><path d="M496.85 235.33L498.69 235.42L500.51 235.55L502.34 235.71L504.15 235.91L505.96 236.15L507.76 236.42L509.55 236.72L511.34 237.07L513.11 237.44L514.88 237.86L516.65 238.32L518.41 238.81L520.15 239.35L521.9 239.92L523.63 240.54L525.36 241.19L527.07 241.89L528.78 242.62L530.49 243.4L532.18 244.23L533.87 245.09L535.55 246L537.22 246.96L538.88 247.96L540.53 249L542.18 250.09L543.65 251.12L545.1 252.16L546.52 253.23L547.91 254.31L549.27 255.41L550.6 256.53L551.91 257.66L553.18 258.82L554.42 259.99L555.64 261.19L556.82 262.4L557.98 263.63L559.1 264.88L560.2 266.15L561.26 267.44L562.3 268.74L563.3 270.07L564.28 271.42L565.22 272.78L566.13 274.17L567.01 275.57L567.86 277L568.68 278.45L569.46 279.91L570.22 281.4L570.94 282.9L571.63 284.43L572.29 285.98L572.91 287.54L573.51 289.13L574.07 290.74L574.6 292.37L575.09 294.02L575.56 295.69L575.99 297.39L576.38 299.1L576.75 300.83L577.08 302.59L577.37 304.37L577.63 306.17L577.93 308.7L578.17 311.21L578.36 313.7L578.5 316.17L578.58 318.61L578.61 321.03L578.59 323.43L578.51 325.8L578.39 328.16L578.21 330.49L577.98 332.8L577.69 335.09L577.36 337.35L576.97 339.6L576.53 341.83L576.04 344.03L575.49 346.22L574.9 348.39L574.25 350.53L573.55 352.66L572.8 354.77L571.99 356.86L571.14 358.93L570.23 360.98L569.27 363.01L568.26 365.02L567.2 367.02L566.08 369L564.92 370.96L563.7 372.9L562.43 374.83L561.11 376.73L559.74 378.63L558.32 380.5L556.85 382.36L555.32 384.2L553.75 386.03L552.12 387.84L550.44 389.64L548.72 391.42L547.46 392.67L546.2 393.9L544.92 395.1L543.62 396.28L542.32 397.44L540.99 398.58L539.66 399.69L538.31 400.78L536.95 401.84L535.57 402.88L534.18 403.9L532.78 404.9L531.36 405.87L529.93 406.82L528.49 407.75L527.04 408.65L525.57 409.53L524.09 410.39L522.59 411.23L521.08 412.04L519.56 412.83L518.03 413.6L516.49 414.34L514.93 415.07L513.36 415.77L511.78 416.44L510.18 417.1L508.57 417.73L506.96 418.34L505.32 418.93L503.68 419.5L502.03 420.04L500.36 420.56L498.68 421.06L496.99 421.54L495.29 422L493.57 422.43L491.85 422.85L490.11 423.24L488.36 423.61L487.85 423.7L487.34 423.79L486.83 423.87L486.32 423.96L485.82 424.03L485.31 424.11L484.8 424.18L484.29 424.25L483.78 424.32L483.27 424.39L482.77 424.45L482.26 424.51L481.75 424.57L481.24 424.62L480.74 424.68L480.23 424.73L479.72 424.78L479.22 424.83L478.71 424.88L478.21 424.93L477.7 424.97L477.2 425.02L476.7 425.07L476.19 425.11L475.69 425.15L475.19 425.2L474.69 425.24L474.19 425.29L473.69 425.33L473.19 425.38L472.69 425.42L472.19 425.47L471.7 425.51L471.2 425.56L470.71 425.61L470.21 425.66L469.72 425.71L469.23 425.76L468.73 425.81L468.24 425.87L466.53 425.82L464.83 425.75L463.13 425.65L461.44 425.54L459.76 425.39L458.09 425.23L456.42 425.04L454.76 424.82L453.12 424.59L451.48 424.32L449.85 424.03L448.23 423.72L446.61 423.38L445.01 423.02L443.41 422.63L441.83 422.21L440.25 421.77L438.69 421.3L437.13 420.8L435.58 420.28L434.05 419.72L432.52 419.14L431 418.54L429.5 417.9L428 417.24L426.51 416.55L425.04 415.83L423.58 415.08L422.12 414.3L420.68 413.49L419.25 412.66L417.83 411.79L416.42 410.89L415.02 409.96L413.64 409L412.26 408.01L410.9 406.99L409.55 405.94L408.21 404.86L406.88 403.74L405.78 402.77L404.7 401.79L403.64 400.8L402.6 399.79L401.58 398.77L400.58 397.73L399.61 396.69L398.65 395.63L397.72 394.55L396.81 393.47L395.91 392.37L395.04 391.26L394.2 390.14L393.37 389L392.57 387.85L391.78 386.69L391.02 385.52L390.28 384.33L389.57 383.14L388.87 381.93L388.2 380.7L387.55 379.47L386.92 378.22L386.32 376.96L385.73 375.69L385.17 374.41L384.63 373.11L384.12 371.81L383.63 370.49L383.16 369.16L382.71 367.81L382.28 366.46L381.88 365.09L381.5 363.71L381.15 362.33L380.82 360.92L380.51 359.51L380.22 358.09L379.96 356.65L379.72 355.21L379.41 353.08L379.14 350.97L378.91 348.87L378.73 346.78L378.6 344.7L378.51 342.64L378.46 340.59L378.46 338.54L378.51 336.52L378.59 334.5L378.72 332.49L378.9 330.5L379.11 328.52L379.37 326.55L379.67 324.59L380.01 322.64L380.4 320.71L380.82 318.78L381.29 316.87L381.8 314.97L382.35 313.08L382.94 311.2L383.57 309.33L384.23 307.48L384.94 305.63L385.69 303.8L386.47 301.98L387.3 300.16L388.16 298.36L389.06 296.57L390 294.79L390.97 293.03L391.99 291.27L393.04 289.52L394.12 287.78L395.25 286.06L396.41 284.34L397.6 282.64L398.83 280.95L400.09 279.26L401.48 277.47L402.88 275.73L404.29 274.02L405.72 272.36L407.16 270.74L408.62 269.16L410.1 267.63L411.59 266.13L413.1 264.67L414.63 263.26L416.18 261.88L417.74 260.54L419.33 259.24L420.93 257.98L422.55 256.76L424.19 255.57L425.85 254.42L427.54 253.31L429.24 252.23L430.96 251.19L432.71 250.19L434.48 249.21L436.27 248.28L438.08 247.38L439.92 246.51L441.78 245.67L443.66 244.87L445.57 244.1L447.5 243.37L449.46 242.66L451.45 241.99L453.45 241.34L455.49 240.73L457.55 240.15L459.64 239.6L461.76 239.07L463.9 238.58L466.08 238.11L468.28 237.68L470.51 237.27L472.43 236.94L474.34 236.64L476.25 236.37L478.16 236.12L480.05 235.91L481.95 235.72L483.83 235.56L485.71 235.44L487.58 235.34L489.45 235.27L491.31 235.24L493.16 235.24L495.01 235.26L496.85 235.33ZM483.16 281.45L481.39 281.61L479.61 281.85L477.83 282.15L476.04 282.53L474.3 282.94L472.59 283.39L470.92 283.88L469.27 284.4L467.66 284.96L466.08 285.55L464.53 286.18L463.01 286.84L461.53 287.54L460.07 288.27L458.65 289.04L457.27 289.84L455.91 290.68L454.59 291.55L453.3 292.46L452.04 293.41L450.81 294.38L449.62 295.4L448.46 296.44L447.34 297.52L446.25 298.64L445.19 299.79L444.17 300.98L443.18 302.19L442.22 303.45L441.3 304.73L440.41 306.05L439.56 307.41L438.74 308.8L437.95 310.22L437.2 311.68L436.49 313.17L435.81 314.69L435.16 316.25L434.55 317.84L433.98 319.46L433.44 321.12L432.93 322.81L432.46 324.53L432.03 326.29L431.72 327.76L431.46 329.23L431.25 330.7L431.09 332.17L430.98 333.63L430.93 335.09L430.92 336.54L430.96 337.99L431.05 339.43L431.19 340.86L431.38 342.28L431.61 343.68L431.89 345.08L432.22 346.46L432.59 347.82L433.01 349.17L433.47 350.51L433.97 351.82L434.52 353.11L435.11 354.39L435.75 355.64L436.42 356.87L437.14 358.08L437.9 359.26L438.7 360.41L439.53 361.54L440.41 362.64L441.33 363.71L442.28 364.75L443.28 365.75L444.31 366.73L445.37 367.67L446.48 368.57L447.62 369.44L448.79 370.27L450 371.06L451.24 371.81L452.52 372.52L453.83 373.19L455.17 373.82L456.2 374.26L457.24 374.67L458.28 375.06L459.32 375.42L460.35 375.76L461.39 376.08L462.43 376.36L463.46 376.63L464.5 376.87L465.53 377.08L466.57 377.27L467.6 377.43L468.63 377.57L469.67 377.69L470.7 377.78L471.73 377.85L472.76 377.89L473.79 377.91L474.82 377.9L475.85 377.87L476.88 377.82L477.9 377.74L478.93 377.64L479.95 377.51L480.98 377.36L482 377.19L483.02 376.99L484.04 376.77L485.06 376.52L486.07 376.26L487.09 375.96L488.1 375.65L489.12 375.31L490.13 374.95L491.14 374.57L492.14 374.16L493.15 373.73L494.15 373.28L495.16 372.8L496.16 372.31L497.63 371.52L499.07 370.72L500.47 369.89L501.84 369.04L503.18 368.17L504.48 367.28L505.75 366.36L506.99 365.43L508.19 364.47L509.35 363.49L510.48 362.49L511.58 361.47L512.64 360.43L513.67 359.37L514.66 358.28L515.62 357.17L516.54 356.05L517.43 354.9L518.29 353.73L519.1 352.53L519.89 351.32L520.64 350.09L521.35 348.83L522.03 347.56L522.67 346.26L523.28 344.94L523.86 343.6L524.4 342.24L524.9 340.86L525.37 339.45L525.8 338.03L526.2 336.59L526.56 335.12L526.89 333.63L527.18 332.13L527.43 330.6L527.65 329.05L527.83 327.48L527.98 325.89L528.09 324.28L528.08 324.03L528.06 323.79L528.04 323.55L528.03 323.32L528.01 323.08L528 322.85L527.98 322.62L527.97 322.4L527.95 322.17L527.94 321.95L527.93 321.73L527.92 321.52L527.9 321.3L527.89 321.09L527.88 320.88L527.86 320.67L527.85 320.46L527.84 320.25L527.83 320.05L527.81 319.84L527.8 319.64L527.78 319.44L527.77 319.24L527.75 319.04L527.73 318.85L527.72 318.65L527.7 318.45L527.68 318.26L527.66 318.07L527.63 317.87L527.61 317.68L527.59 317.49L527.56 317.3L527.53 317.11L527.51 316.92L527.48 316.73L527.44 316.54L527.41 316.35L527.38 316.17L527.34 315.98L526.97 314.13L526.53 312.32L526.02 310.56L525.45 308.84L524.82 307.16L524.12 305.53L523.37 303.95L522.56 302.41L521.69 300.91L520.77 299.47L519.8 298.07L518.78 296.73L517.71 295.43L516.58 294.19L515.42 292.99L514.21 291.86L512.95 290.77L511.66 289.74L510.32 288.76L508.95 287.84L507.54 286.98L506.1 286.18L504.62 285.43L503.11 284.74L501.58 284.12L500.01 283.55L498.42 283.05L496.8 282.61L495.16 282.23L493.5 281.92L491.81 281.67L490.11 281.49L488.4 281.38L486.66 281.34L484.92 281.36L483.16 281.45Z" id="beP5JAaM"></path></defs><g><g><use xlink:href="#aelSYCqZ6" opacity="1" fill="#2dbcaf" fill-opacity="1"></use><g><use xlink:href="#aelSYCqZ6" opacity="1" fill-opacity="0" stroke="#000000" stroke-width="1" stroke-opacity="0"></use></g></g><g><use xlink:href="#a7I5ldbQ0e" opacity="1" fill="#2dbcaf" fill-opacity="1"></use><g><use xlink:href="#a7I5ldbQ0e" opacity="1" fill-opacity="0" stroke="#000000" stroke-width="1" stroke-opacity="0"></use></g></g><g><use xlink:href="#a1XhfKJNUE" opacity="1" fill="#2dbcaf" fill-opacity="1"></use><g><use xlink:href="#a1XhfKJNUE" opacity="1" fill-opacity="0" stroke="#000000" stroke-width="1" stroke-opacity="0"></use></g></g><g><use xlink:href="#dUb3UqwOV" opacity="1" fill="#2dbcaf" fill-opacity="1"></use><g><use xlink:href="#dUb3UqwOV" opacity="1" fill-opacity="0" stroke="#000000" stroke-width="1" stroke-opacity="0"></use></g></g><g><use xlink:href="#beP5JAaM" opacity="1" fill="#2dbcaf" fill-opacity="1"></use><g><use xlink:href="#beP5JAaM" opacity="1" fill-opacity="0" stroke="#000000" stroke-width="1" stroke-opacity="0"></use></g></g></g></svg>