<svg height="64" width="64" xmlns="http://www.w3.org/2000/svg" xmlns:xlink="http://www.w3.org/1999/xlink"><defs><path id="a" d="m11.2 9.013.013-1.88 1.916.013-.013 1.88z"/></defs><g fill="none" stroke-miterlimit="10"><g stroke="#284a6a"><path d="m31.973 23.69-6.65-7.518" stroke-width=".26"/><path d="m11 17.908 5.205 7.6" stroke-width=".13"/><g stroke-width=".26"><path d="m31.973 23.7 6.578-7.6m1.374 15.987 7.807-6.578m-7.807 6.568 7.807 6.867m-9.108 8.676-6.65-7.373m-6.65 7.373 6.65-7.373m-15.76-1.592 7.518-6.578m-7.517-6.58 7.518 6.578m8.24-8.386-15.76 1.807m15.76-1.806 15.76 1.807"/><path d="m39.925 32.077-1.375-15.977m1.375 15.977-1.3 15.542"/><path d="m47.732 38.944-15.76 1.3m-15.758-1.59 15.76 1.6"/><path d="m25.323 47.62-1.6-15.542m1.6-15.905-1.6 15.903"/></g><g stroke-width=".13"><path d="m8.985 27.522 7.23-2.024m1.517-14.746 7.6 5.422m1.726-8.82-1.735 8.82m1.735-8.82 11.492 8.746"/><path d="m36.816 7.354 1.734 8.746m7.592-5.348-7.6 5.35m14.395 1.806-14.387-1.808m9.182 9.398 5.205-7.6m-5.205 7.6 7.373 2.024"/><path d="m47.732 25.498 7.23 10.988m-18.146-29.132-11.494 8.82"/><path d="m47.732 25.498-1.6-14.747m1.6 28.193 7.23-2.458"/><path d="m47.732 38.944 7.373-11.422m-7.373 11.422 5.205 7.012m-5.205-7.012-1.6 14.168m-7.508-5.492 7.518 5.494"/><path d="m38.624 47.62 14.313-1.663m-14.313 1.663-1.724 8.88m1.724-8.88-11.566 8.88m-1.735-8.88 1.735 8.9"/><path d="m25.323 47.62 11.577 8.88m-11.567-8.88-7.6 5.494m7.6-5.494-14.333-1.592m5.214-7.373-5.214 7.373"/><path d="m16.214 38.655 1.518 14.458m-1.518-14.458-7.3-2.24m7.3-10.917-7.3 10.916"/><path d="m16.214 38.655-7.23-11.132m8.748-16.77-1.518 14.747"/><path d="m11 17.908 14.313-1.735"/></g></g><g stroke="#24405d" stroke-width=".101"><path d="m17.732 10.752-5.566-2.602m5.566 2.602-.432-6.072m9.758 2.674-9.758-2.674"/><path d="m27.058 7.354-4.193-5.132m4.193 5.132 1.734-6.154m-11.06 9.552 5.132-8.53m13.952 5.132-8.024-6.154"/><path d="m36.816 7.354-1.816-6.361m-7.952 6.36 7.952-6.36m1.816 6.36 4.193-5.132m5.133 8.53-5.142-8.529"/><path d="m46.142 10.752.506-6.072m-9.832 2.674 9.83-2.675m-.504 6.073 5.7-2.892m-5.7 2.892 9.903 1.518"/><path d="m52.937 17.908 3.108-5.638m-3.108 5.638-1.085-10.048m1.085 10.048 6.506-.506m-6.506.506 8.9 5.06"/><path d="m55.105 27.522 4.337-10.12m-4.337 10.12 6.723-4.554m-6.723 4.554 7.518 1.518m-7.663 7.446 7.663-7.446"/><path d="m54.96 36.486 7.88-1.446m-7.735-7.518 7.735 7.518m-7.88 1.446 6.723 4.482m-8.746 4.988 8.747-4.988"/><path d="m52.937 45.956 6.434.65m-4.4-10.12 4.4 10.12m-6.424-.65 3.036 5.7m-3.036-5.7-1.157 9.976"/><path d="m51.78 55.932-5.638-2.82m0 0 .434 6.3m-.434-6.3 9.83-1.446m-9.83 1.446-5.142 8.675"/><path d="m36.9 56.5 4.1 5.277m-4.1-5.277 9.687 2.892m-9.687-2.892-1.9 6.506m1.9-6.506-8.096 6.506"/><path d="m27.058 56.5 1.735 6.506m-1.735-6.506 7.942 6.506m-7.942-6.506-4.12 5.277m-5.206-8.665 5.205 8.675"/><path d="m27.058 56.5-9.83 3.036m.504-6.424-.506 6.434m.506-6.434-5.638 3.108m-1.094-10.192 1.084 10.193"/><path d="m17.732 53.112-9.902-1.372m3.17-5.712-3.18 5.7m3.18-5.7-6.506.65m6.506-.65-8.954-4.988m6.867-4.626-6.867 4.626m6.867-4.626-7.807-1.374"/><path d="m8.913 36.414-4.4 10.265m4.472-19.157-7.88 7.518"/><path d="m8.913 36.414-7.807-7.374m7.88-1.518-6.723-4.482"/><path d="m8.985 27.522-7.88 1.518m7.88-1.518-4.482-10.12"/><path d="m11 17.908-6.506-.506m6.506.506-8.737 5.132m8.737-5.132-3.1-5.348m3.1 5.348 1.157-9.76"/><path d="m17.732 10.752-9.832 1.808"/></g></g><path d="m19.862 35.835.053-7.6 7.605.053-.053 7.6zm8.228-8.372.053-7.6 7.605.053-.053 7.6zm-.002 16.67.053-7.6 7.605.053-.053 7.6zm8.3-8.37.053-7.6 7.605.053-.053 7.6z" fill="#256ea5"/><path d="m35.95 18.744.037-5.277 5.3.037-.037 5.277zm-13.25-.001.037-5.277 5.3.037-.037 5.277zm-9.172 9.4.037-5.277 5.3.037-.037 5.277zm-.006 13.257.055-5.277 5.298.055-.055 5.277zm31.598-.1.037-5.277 5.3.037-.037 5.277zm.107-13.12.055-5.277 5.298.055-.055 5.277z" fill="#3378bc"/><path d="m9.233 19.63.024-3.47 3.463.024-.024 3.47zm6.77-7.062.024-3.47 3.463.024-.024 3.47zm9.32-3.493.024-3.47 3.463.024-.024 3.47zm-18.129 20.165.024-3.47 3.44.024-.024 3.47zm43.993-13.032 3.47-.024.024 3.463-3.47.024zm-6.773-7.18 3.47-.024.024 3.463-3.47.024zm-9.35-3.406 3.47-.024.024 3.463-3.47.024zm18.14 20.186 3.47-.024.024 3.463-3.47.024z" fill="#169bd6"/><path d="m22.627 50.4.037-5.277 5.3.037-.037 5.277zm13.25 0 .037-5.277 5.3.037-.037 5.277z" fill="#3378bc"/><path d="m51.164 47.73.024-3.47 3.463.024-.024 3.47zm-6.698 7.134.024-3.47 3.463.024-.024 3.47zm-9.32 3.42.024-3.47 3.463.024-.024 3.47zm18.056-20.164.024-3.47 3.463.024-.024 3.47zm-43.962 6.14 3.47-.024.024 3.463-3.47.024zm6.772 7.108 3.47-.024.024 3.463-3.47.024zm9.276 3.405 3.47-.024.024 3.463-3.47.024zm-18.068-20.113 3.47-.024.024 3.463-3.47.024z" fill="#169bd6"/><g fill="#00a8da"><use x="47.244" xlink:href="#a" y="9.319"/><use x="49.718" xlink:href="#a" y="14.997"/><use x="43.896" xlink:href="#a" y="4.295"/><use xlink:href="#a"/><use x="-10.993" xlink:href="#a" y="20.964"/><use x="39.674" xlink:href="#a" y=".001"/><use x="-9.9" xlink:href="#a" y="14.995"/><use x="10.772" xlink:href="#a" y="-5.823"/><use x="-7.572" xlink:href="#a" y="9.317"/><use x="-4.15" xlink:href="#a" y="4.223"/><path d="m16.33 3.73 1.88-.013.013 1.916-1.88.013zm11.612-3.696 1.88-.013.013 1.916-1.88.013z"/><use x="34.577" xlink:href="#a" y="-3.348"/><use x="50.666" xlink:href="#a" y="20.893"/><path d="m34.057 1.88.013-1.88 1.916.013-.013 1.88z"/><use x="28.827" xlink:href="#a" y="-5.896"/><use x="39.672" xlink:href="#a" y="47.9"/><use x="50.666" xlink:href="#a" y="26.935"/><use x="-.002" xlink:href="#a" y="47.899"/><use x="49.718" xlink:href="#a" y="32.987"/><use x="28.825" xlink:href="#a" y="53.797"/><use x="47.243" xlink:href="#a" y="38.655"/><use x="43.895" xlink:href="#a" y="43.751"/><path d="m45.7 58.534 1.88-.013.013 1.916-1.88.013zm-11.542 3.55 1.88-.013.013 1.916-1.88.013z"/><use x="5.167" xlink:href="#a" y="51.467"/><use x="-7.645" xlink:href="#a" y="38.581"/><use x="-9.902" xlink:href="#a" y="32.977"/><use x="-4.225" xlink:href="#a" y="43.749"/><use x="-10.993" xlink:href="#a" y="26.934"/><use x="16.814" xlink:href="#a" y="54.961"/><use x="10.7" xlink:href="#a" y="53.723"/></g></svg>