<?xml version="1.0" encoding="UTF-8" standalone="no"?>
<svg
   xmlns:dc="http://purl.org/dc/elements/1.1/"
   xmlns:cc="http://creativecommons.org/ns#"
   xmlns:rdf="http://www.w3.org/1999/02/22-rdf-syntax-ns#"
   xmlns:svg="http://www.w3.org/2000/svg"
   xmlns="http://www.w3.org/2000/svg"
   version="1.1"
   width="5041"
   height="5528"
   id="svg2"
   style="stroke-linecap:round;stroke-linejoin:round;stroke-miterlimit:1.41421">
  <metadata
     id="metadata76">
    <rdf:RDF>
      <cc:Work
         rdf:about="">
        <dc:format>image/svg+xml</dc:format>
        <dc:type
           rdf:resource="http://purl.org/dc/dcmitype/StillImage" />
        <dc:title></dc:title>
      </cc:Work>
    </rdf:RDF>
  </metadata>
  <defs
     id="defs74" />
  <g
     id="The Cube">
    <path
       d="m 2520.6719,487.8759 -2519.921,2519.921 2519.921,2519.921 2519.921,-2519.921 z"
       id="path14"
       style="fill:#546db2" />
    <path
       d="m 2520.6719,487.8759 0,2519.921 -2519.921,0 z"
       id="path10"
       style="fill:#7294f4" />
    <path
       d="m 5040.5929,3007.7969 -2519.921,0 0,2519.921 z"
       id="path22"
       style="fill:#303f6a" />
  </g>
  <g
     style="fill:#f2f2f2;stroke:#000000;stroke-width:53.33px"
     id="g24">
    <path
       d="m 530.623,3708.98 c -81.718,77.63 -120.775,489.2 -35.35,557.93 60.481,48.66 23.18,-15.31 114.875,1.04 91.694,16.36 91.299,60.21 91.299,60.21 l 405.503,24.64 c 172.5,-7.29 280.76,-53.77 359.8,-118.06 l 77.2,-331.01 c -76.76,-149.78 -170.54,-188.33 -266.75,-210.99 -273.31,-17.4 -603.689,-119.49 -746.577,16.24 z"
       id="path26" />
    <path
       d="m 638.756,3559.61 c 14.075,-147.97 44.577,-276.08 93.779,-334.32 120.015,-65.65 227.195,-79.42 321.555,-41.3 l 260.54,20.65 253.58,0 c 70.53,-2.59 104.63,47.83 102.32,151.27 l -20.57,302.61 c -54.41,115.64 -92.15,39.02 -248.54,87.08 -253.43,77.88 -553.53,-4.89 -802.287,-33.72 l 39.623,-152.27 z"
       id="path28" />
    <path
       d="m 1494.05,4234.58 c 110.67,174.35 189.46,163.16 331.11,-33.56 l 91.18,-273.58 c 51.3,-130.94 93.65,-223.73 57.63,-314 l -78.94,-40.23 -148.02,13.73 c -134.9,-6.1 -222.83,155.72 -212.84,253.27 l -39.89,194.7 -0.23,199.67 z"
       id="path30" />
    <path
       d="m 1003.44,3104.8 c -25.77,-77.77 -25.77,-145.7 0,-203.77 37.81,-51.89 80.53,-83.44 128.14,-94.66 73.33,-55.29 151.98,-61.29 231.39,-60.25 l 223.57,0 213.71,-19.15 159.33,56.9 90.63,79.8 -12.92,252.82 -239.24,65.65 -548.46,-19.8 c -83.49,15.81 -165.54,-3.37 -246.15,-57.54 z"
       id="path32" />
    <path
       d="m 1871.91,3495.81 137.5,-219.25 c 80.84,-73.7 202.56,-155.61 239.77,-198.94 101.38,-46.24 288.95,66.28 236.26,177.06 l -97.56,110.43 c -175.33,160.46 -319.21,268.35 -393.86,260.56 l -122.11,-129.86 z"
       id="path34" />
    <path
       d="m 2937.89,3116.71 -246.78,-74.01 -215.07,48.18 0,219.25 c 62.37,-2.02 128.02,16.59 196.98,55.83 l 149.64,74.78 144.62,73.39 100.45,-116.46 -13.76,-196.12 -116.08,-84.84 z"
       id="path36" />
    <path
       d="m 3172.52,3355.37 149.64,73.93 194.87,115.23 c 96.43,72.19 120.79,146.74 73.08,223.65 l -212.89,155.67 -236.56,-251.95 -154,-153.6 c -81.66,-43.78 -1.9,-98.33 185.86,-162.93 z"
       id="path38" />
    <path
       d="m 3695.69,3822.18 82.86,194.44 42.11,211.31 -133.95,90.52 c -113.9,1.21 -140.78,-62.88 -181.08,-122.61 -45.3,-59.76 -141.5,-157.33 -136.93,-261.53 l 138.77,-109.54 c 48.71,-64.62 111.45,-65.49 188.22,-2.59 z"
       id="path40" />
    <path
       d="m 1221.43,2662.25 c -10.3,-60.33 28.87,-121.11 152.13,-182.35 l 227.36,-55.08 c 79.33,-4.17 111.63,32.54 96.9,110.14 27.62,66.41 11.46,116.27 -48.49,149.58 L 1364.2,2731 c -56.51,8.62 -104.1,-14.29 -142.77,-68.75 z"
       id="path44" />
    <path
       d="m 1457.39,2225.59 197.75,-94.66 216.77,-128.15 456.58,0 c 80.85,18.59 122.13,84.51 123.81,197.75 34.55,66.55 12.18,104.98 -67.12,115.3 l -444.52,54.99 -308.65,0 c -144.92,42.84 -203.13,-5.57 -174.62,-145.23 z"
       id="path46" />
    <path
       d="m 1747.86,2683.02 c 142.54,26.47 261.45,45.88 333.86,19.41 l 310.96,-5.64 c 157.22,2.57 267.37,-19.68 330.47,-66.74 -10.76,-119.95 -57.27,-215.79 -139.53,-287.53 -80.06,-13.34 -162.05,-28.77 -268.89,-15.43 -91.12,-23.95 -223.52,-8.52 -374.31,15.43 -51.13,-1.61 -112.17,18.44 -183.12,60.16 l -9.44,280.34 z"
       id="path48" />
    <path
       d="m 2178.54,2732.36 c -83.6,54.64 -108.27,131.49 -74.01,230.53 26.97,64.27 90.62,103.25 190.94,116.93 l 280.26,-40.44 c 107.94,-9.14 204.42,-22.99 220.64,-69.8 l 1.69,-149.49 c 1.68,-91.01 -105.98,-122.25 -263.63,-153.16 l -355.89,65.43 z"
       id="path50" />
    <path
       d="m 3865.43,4262.63 c 159.3,51.37 318.94,42.82 478.63,25.7 l 164.26,-93.66 c 32.91,-78.48 46.65,-185.97 41.22,-322.48 l -74.78,-135.87 -135.88,-54.21 -212.36,-13.77 -300.16,42.31 c -121.64,-20.71 -168.32,26.54 -140.03,141.75 l 74.86,210.66 104.24,199.57 z"
       id="path52" />
    <path
       d="m 3628.02,3150.04 253.58,-19.79 130.7,0 c 164.16,-30.04 269.15,28.73 268.37,176.32 62.11,91.87 72.42,156.88 23.89,271.65 -30.07,23.99 -79.27,44.87 -262.3,43.93 l -120.21,20.66 -194.19,1.04 -155.75,-221.2 55.91,-272.61 z"
       id="path54" />
    <path
       d="m 3461.29,3150.04 -322.41,0 c -113.29,-13.86 -192.71,-47.97 -238.27,-102.31 -54.59,-43.44 -81.53,-106.52 -80.81,-189.24 -22.86,-41.23 -6.83,-82.22 48.1,-122.96 l 239.89,-20.65 635.46,0 94.58,75.63 103.16,74.86 48.18,198.6 c -115.55,48.72 -200.39,84.85 -254.5,72.27 -52.62,20 -143.75,12.56 -273.38,13.8 z"
       id="path56" />
    <path
       d="m 2704.43,2376.85 405,-28.66 242.58,-7.14 c 26.68,-25.89 115.82,-25.89 267.43,0 84.46,59.78 116.55,125.98 96.28,198.59 4.82,41.17 -19.85,88.76 -74.01,142.76 l -480.56,0 c -100.74,32.28 -187.77,42.56 -261.07,30.86 -71.72,2.6 -135.99,-13.85 -192.81,-49.36 l -31.08,-82.19 28.24,-204.86 z"
       id="path58" />
    <path
       d="m 2449.21,2001.36 c 62.15,-24.29 134.5,-39.95 217.05,-47 106.39,-41.87 271.09,1.18 386.55,26.31 79.76,-14.25 141.09,6.12 183.98,61.09 42.65,37.22 108.08,151.2 65.42,200.54 5.32,72.29 -16.49,104.92 -65.42,97.9 l -260.47,0 -294.95,20.64 c -100.08,-16.77 -154.52,-71.52 -163.33,-164.25 -29.85,-60.99 -52.79,-112.28 -68.83,-195.23 z"
       id="path60" />
    <path
       d="m 2051.07,1870.22 c 22.26,-56.65 74.79,-76.2 131.64,-90.46 107.34,-62.33 349.79,-81.65 414.19,-17.55 l 59.41,85.51 c -4.08,69.64 -32.39,117.49 -123.73,97.76 l -342.98,41.22 c -96.39,16.74 -138.66,-15.48 -138.53,-116.48 z"
       id="path62" />
    <path
       d="m 3508.38,3174.87 c 105.83,35.9 117.28,136.66 115.23,246.7 52.36,134.93 34.8,197.31 -52.67,187.14 -118.64,-49.72 -327.61,-105.97 -393.24,-234.9 -121.96,-89.58 -84.3,-141.16 -41.2,-207.39 l 371.88,8.45 z"
       id="path64" />
    <path
       d="m 1707.07,3215.37 c 176.95,-133.71 263.17,-80.12 275.99,112.62 l -61.74,149.64 c -75.58,92.54 -148.72,103.99 -219.41,34.35 -31.64,-122.68 -52.16,-258.82 5.16,-296.61 z"
       id="path66" />
    <path
       d="M 2604.04,1749.98 4191.33,53.6449"
       id="path68"
       style="stroke-width:64px" />
    <path
       d="M 2131.3,1771.63 433.562,32.9713"
       id="path70"
       style="stroke-width:64px" />
  </g>
</svg>
