<?xml version="1.0" encoding="UTF-8" standalone="no"?>
<!DOCTYPE svg PUBLIC "-//W3C//DTD SVG 1.1//EN" "http://www.w3.org/Graphics/SVG/1.1/DTD/svg11.dtd">
<svg version="1.1" xmlns="http://www.w3.org/2000/svg" xmlns:xlink="http://www.w3.org/1999/xlink" preserveAspectRatio="xMidYMid meet" viewBox="154.99666517857145 281 79.06099702380948 80.09523809523807" width="75.06" height="76.1"><defs><path d="M185.4 282L185.44 282L185.48 282L185.51 282L185.55 282.01L185.58 282.01L185.62 282.01L185.65 282.01L185.69 282.02L185.73 282.02L185.76 282.02L185.8 282.03L185.83 282.03L185.87 282.04L185.9 282.04L185.94 282.04L185.98 282.05L186.01 282.05L186.05 282.06L186.08 282.06L186.12 282.07L186.15 282.08L186.19 282.08L186.23 282.09L186.26 282.09L186.3 282.1L186.33 282.11L186.37 282.11L186.4 282.12L186.44 282.13L186.48 282.13L186.51 282.14L186.55 282.15L186.58 282.15L186.62 282.16L186.65 282.17L186.73 282.18L186.76 282.19L220 292.38L220.13 292.42L220.26 292.46L220.38 292.51L220.51 292.56L220.64 292.62L220.76 292.67L220.89 292.74L221.01 292.81L221.13 292.88L221.25 292.95L221.37 293.03L221.49 293.11L221.6 293.2L221.72 293.28L221.83 293.37L221.94 293.47L222.05 293.56L222.15 293.66L222.26 293.76L222.36 293.87L222.46 293.98L222.55 294.08L222.65 294.2L222.74 294.31L222.82 294.42L222.91 294.54L222.99 294.66L223.07 294.78L223.14 294.9L223.21 295.02L223.28 295.14L223.35 295.27L223.41 295.39L223.46 295.52L223.52 295.65L223.56 295.77L223.61 295.9L223.65 296.03L223.68 296.16L223.71 296.29L230.95 327.9L230.98 328.03L231 328.17L231.02 328.3L231.04 328.43L231.05 328.57L231.05 328.71L231.06 328.85L231.06 328.99L231.05 329.13L231.05 329.27L231.03 329.41L231.02 329.56L231 329.7L230.98 329.84L230.95 329.98L230.92 330.13L230.89 330.27L230.86 330.41L230.82 330.55L230.77 330.69L230.73 330.83L230.68 330.97L230.62 331.1L230.57 331.24L230.51 331.37L230.45 331.5L230.38 331.63L230.31 331.76L230.24 331.88L230.16 332L230.08 332.12L230 332.24L229.92 332.35L229.83 332.46L229.74 332.57L229.64 332.67L229.55 332.77L229.45 332.87L229.34 332.96L229.24 333.05L203.81 356.67L203.74 356.73L203.68 356.79L203.61 356.85L203.53 356.91L203.46 356.97L203.38 357.03L203.3 357.09L203.22 357.14L203.14 357.2L203.05 357.25L202.97 357.3L202.88 357.35L202.79 357.4L202.7 357.45L202.6 357.5L202.51 357.54L202.41 357.58L202.32 357.62L202.22 357.66L202.12 357.7L202.02 357.74L201.92 357.77L201.81 357.81L201.71 357.84L201.61 357.87L201.5 357.9L201.4 357.92L201.29 357.95L201.18 357.97L201.08 357.99L200.97 358.01L200.86 358.03L200.75 358.04L200.65 358.06L200.54 358.07L200.43 358.08L200.32 358.09L200.21 358.09L200.11 358.09L200 358.1L199.96 358.1L199.93 358.09L199.89 358.09L199.86 358.09L199.82 358.09L199.79 358.09L199.75 358.09L199.71 358.08L199.68 358.08L199.64 358.08L199.61 358.08L199.57 358.07L199.54 358.07L199.5 358.06L199.46 358.06L199.43 358.06L199.39 358.05L199.36 358.05L199.32 358.04L199.29 358.04L199.25 358.03L199.21 358.02L199.18 358.02L199.14 358.01L199.11 358.01L199.07 358L199.04 357.99L199 357.99L198.96 357.98L198.93 357.97L198.89 357.97L198.86 357.96L198.82 357.95L198.79 357.95L198.75 357.94L198.71 357.93L198.68 357.93L198.61 357.91L198.57 357.9L167.52 348.38L167.4 348.34L167.27 348.3L167.14 348.25L167.01 348.2L166.89 348.15L166.76 348.09L166.64 348.02L166.52 347.96L166.39 347.89L166.27 347.81L166.15 347.73L166.04 347.65L165.92 347.57L165.81 347.48L165.7 347.39L165.59 347.29L165.48 347.2L165.37 347.1L165.27 347L165.17 346.89L165.07 346.79L164.97 346.68L164.88 346.57L164.79 346.45L164.7 346.34L164.62 346.22L164.53 346.11L164.46 345.99L164.38 345.86L164.31 345.74L164.24 345.62L164.18 345.49L164.12 345.37L164.06 345.24L164.01 345.12L163.96 344.99L163.92 344.86L163.88 344.73L163.84 344.6L163.81 344.48L156.1 310.67L156.07 310.54L156.05 310.41L156.03 310.27L156.01 310.14L156 310L156 309.86L156 309.72L156 309.58L156 309.44L156.01 309.3L156.03 309.16L156.04 309.02L156.06 308.87L156.09 308.73L156.11 308.59L156.14 308.44L156.18 308.3L156.21 308.16L156.25 308.02L156.3 307.88L156.34 307.74L156.39 307.6L156.44 307.47L156.5 307.33L156.56 307.2L156.62 307.07L156.68 306.94L156.75 306.81L156.81 306.69L156.89 306.57L156.96 306.45L157.03 306.33L157.11 306.22L157.19 306.11L157.27 306L157.36 305.9L157.44 305.8L157.53 305.7L157.62 305.61L157.71 305.52L181.52 283.43L181.59 283.36L181.66 283.3L181.73 283.24L181.8 283.18L181.88 283.12L181.95 283.06L182.03 283.01L182.11 282.95L182.19 282.9L182.28 282.84L182.37 282.79L182.45 282.74L182.54 282.69L182.64 282.65L182.73 282.6L182.82 282.56L182.92 282.51L183.02 282.47L183.11 282.43L183.21 282.39L183.31 282.36L183.42 282.32L183.52 282.29L183.62 282.26L183.73 282.23L183.83 282.2L183.94 282.17L184.04 282.15L184.15 282.12L184.26 282.1L184.36 282.08L184.47 282.07L184.58 282.05L184.69 282.04L184.79 282.03L184.9 282.02L185.01 282.01L185.12 282L185.23 282L185.33 282L185.37 282L185.4 282ZM176.52 325.76L176.38 325.79L176.24 325.83L176.11 325.89L175.98 325.95L175.85 326.03L175.73 326.12L175.62 326.21L175.52 326.32L175.42 326.43L175.34 326.55L175.26 326.68L175.2 326.81L175.14 326.95L170.86 341.05L170.82 341.19L170.79 341.34L170.78 341.48L170.79 341.62L170.81 341.77L170.84 341.91L170.88 342.05L170.93 342.18L171 342.31L171.08 342.43L171.16 342.55L171.26 342.66L171.36 342.77L171.48 342.86L171.6 342.95L171.73 343.02L171.86 343.09L172 343.14L198 351.14L198.14 351.18L198.29 351.21L198.43 351.22L198.58 351.22L198.72 351.21L198.86 351.19L199 351.15L199.13 351.1L199.26 351.04L199.39 350.96L199.5 350.88L199.62 350.78L199.72 350.68L199.81 350.56L199.9 350.44L199.98 350.3L200.04 350.15L200.1 350L204.38 335.9L204.42 335.76L204.45 335.62L204.46 335.47L204.45 335.33L204.43 335.18L204.4 335.04L204.36 334.91L204.3 334.77L204.24 334.64L204.16 334.52L204.07 334.4L203.98 334.29L203.87 334.19L203.76 334.09L203.64 334L203.51 333.93L203.38 333.86L203.24 333.81L177.24 325.81L177.09 325.77L176.95 325.75L176.81 325.74L176.66 325.74L176.52 325.76ZM220.76 331.43L208.76 334.19L208.48 334.27L208.2 334.39L207.92 334.54L207.66 334.73L207.42 334.94L207.19 335.17L206.99 335.42L206.82 335.67L206.68 335.93L206.57 336.19L202.95 347.9L202.89 348.14L202.86 348.35L202.86 348.51L202.91 348.63L202.98 348.71L203.08 348.75L203.2 348.73L203.35 348.67L203.52 348.55L203.71 348.38L221.14 332.19L221.32 332.03L221.44 331.87L221.52 331.74L221.54 331.62L221.52 331.52L221.46 331.45L221.35 331.4L221.19 331.38L221 331.39L220.76 331.43ZM163.42 313.83L163.38 313.94L163.37 314.1L163.39 314.31L163.43 314.57L168.76 337.71L168.83 337.95L168.91 338.13L169 338.26L169.09 338.34L169.19 338.37L169.29 338.35L169.39 338.29L169.48 338.17L169.55 338.02L169.62 337.81L173.24 326.1L173.31 325.82L173.34 325.53L173.35 325.23L173.32 324.91L173.26 324.6L173.18 324.28L173.06 323.99L172.92 323.71L172.76 323.46L172.57 323.24L164.19 314.19L164 314.01L163.84 313.88L163.7 313.8L163.58 313.76L163.49 313.77L163.42 313.83ZM216.19 298.95L201.81 302.19L201.67 302.23L201.54 302.28L201.41 302.34L201.29 302.41L201.17 302.49L201.07 302.58L200.97 302.68L200.88 302.79L200.8 302.9L200.73 303.03L200.67 303.16L200.62 303.29L200.58 303.43L200.55 303.58L200.54 303.72L200.54 303.88L200.55 304.03L200.57 304.19L206.67 330.76L206.7 330.9L206.75 331.04L206.81 331.16L206.89 331.29L206.97 331.4L207.06 331.51L207.16 331.6L207.27 331.69L207.38 331.77L207.5 331.84L207.63 331.9L207.77 331.95L207.91 331.99L208.05 332.02L208.2 332.03L208.35 332.04L208.51 332.02L208.67 332L223.05 328.76L223.19 328.72L223.32 328.67L223.45 328.61L223.57 328.53L223.69 328.45L223.79 328.35L223.89 328.24L223.98 328.13L224.06 328.01L224.13 327.89L224.19 327.75L224.24 327.62L224.28 327.48L224.31 327.34L224.32 327.19L224.32 327.05L224.31 326.91L224.29 326.76L218.19 300.19L218.15 300.05L218.1 299.92L218.04 299.79L217.97 299.67L217.89 299.55L217.8 299.45L217.7 299.35L217.59 299.26L217.48 299.18L217.35 299.11L217.22 299.05L217.09 299L216.95 298.96L216.81 298.93L216.66 298.92L216.5 298.92L216.35 298.93L216.19 298.95ZM197.56 304.63L197.43 304.68L197.3 304.75L197.17 304.84L197.05 304.95L178.19 322.48L178.08 322.59L177.98 322.7L177.9 322.81L177.85 322.93L177.81 323.05L177.79 323.16L177.79 323.28L177.81 323.39L177.85 323.5L177.9 323.61L177.97 323.71L178.06 323.8L178.16 323.89L178.28 323.97L178.42 324.04L178.57 324.1L203.14 331.62L203.25 331.65L203.35 331.66L203.45 331.67L203.54 331.65L203.63 331.63L203.72 331.59L203.8 331.54L203.88 331.48L203.96 331.4L204.03 331.31L204.1 331.2L204.16 331.08L204.22 330.95L204.28 330.81L204.33 330.65L204.38 330.48L198.67 305.43L198.62 305.27L198.57 305.13L198.5 305.01L198.43 304.9L198.34 304.8L198.25 304.73L198.14 304.66L198.04 304.62L197.92 304.59L197.8 304.58L197.68 304.59L197.56 304.63ZM184.67 289.2L184.53 289.24L184.4 289.29L184.27 289.35L184.14 289.42L184.02 289.51L183.9 289.62L163.9 308.19L163.8 308.3L163.71 308.43L163.63 308.55L163.56 308.68L163.5 308.82L163.46 308.96L163.42 309.1L163.4 309.24L163.39 309.38L163.39 309.52L163.41 309.67L163.43 309.81L163.47 309.94L163.51 310.08L163.57 310.21L163.64 310.34L163.72 310.46L163.81 310.57L173.81 321.33L173.92 321.44L174.04 321.53L174.17 321.62L174.3 321.69L174.44 321.75L174.57 321.8L174.72 321.84L174.86 321.87L175 321.88L175.14 321.88L175.28 321.87L175.43 321.85L175.56 321.81L175.7 321.76L175.83 321.7L175.96 321.62L176.08 321.53L176.19 321.43L196.19 302.86L196.3 302.74L196.39 302.62L196.48 302.5L196.55 302.36L196.61 302.23L196.66 302.09L196.7 301.95L196.72 301.81L196.74 301.67L196.74 301.52L196.73 301.38L196.71 301.24L196.67 301.1L196.62 300.97L196.56 300.84L196.48 300.71L196.39 300.59L196.29 300.48L186.29 289.71L186.17 289.61L186.05 289.51L185.92 289.43L185.79 289.36L185.66 289.3L185.52 289.25L185.38 289.21L185.24 289.18L185.1 289.17L184.95 289.16L184.81 289.18L184.67 289.2ZM189.49 289.61L189.43 289.67L189.41 289.75L189.44 289.85L189.51 289.98L189.64 290.12L189.81 290.29L198.19 299.33L198.38 299.52L198.61 299.7L198.86 299.85L199.14 299.98L199.43 300.08L199.73 300.16L200.04 300.22L200.35 300.24L200.66 300.23L200.95 300.19L212.95 297.43L213.18 297.37L213.36 297.29L213.49 297.21L213.57 297.13L213.6 297.04L213.57 296.94L213.49 296.85L213.36 296.75L213.18 296.66L212.95 296.57L190.19 289.62L189.95 289.58L189.76 289.56L189.6 289.57L189.49 289.61Z" id="a88a06AeO"></path><linearGradient id="gradientaTxb7iwc" gradientUnits="userSpaceOnUse" x1="195.55" y1="320" x2="460.08" y2="320"><stop style="stop-color: #4591ed;stop-opacity: 1" offset="0%"></stop><stop style="stop-color: #00c9ff;stop-opacity: 1" offset="100%"></stop></linearGradient></defs><g><g><use xlink:href="#a88a06AeO" opacity="1" fill="url(#gradientaTxb7iwc)"></use><g><use xlink:href="#a88a06AeO" opacity="1" fill-opacity="0" stroke="#000000" stroke-width="1" stroke-opacity="0"></use></g></g></g></svg>