<?xml version="1.0" encoding="UTF-8" standalone="no"?>
<!-- Created with Inkscape (http://www.inkscape.org/) -->

<svg
   xmlns:dc="http://purl.org/dc/elements/1.1/"
   xmlns:cc="http://creativecommons.org/ns#"
   xmlns:rdf="http://www.w3.org/1999/02/22-rdf-syntax-ns#"
   xmlns:svg="http://www.w3.org/2000/svg"
   xmlns="http://www.w3.org/2000/svg"
   xmlns:sodipodi="http://sodipodi.sourceforge.net/DTD/sodipodi-0.dtd"
   xmlns:inkscape="http://www.inkscape.org/namespaces/inkscape"
   height="25.602175"
   id="svg1"
   inkscape:version="0.92.4 (5da689c313, 2019-01-14)"
   sodipodi:docname="irc.svg"
   sodipodi:version="0.32"
   version="1.0"
   width="51.283073"
   x="0"
   y="0">
  <metadata
     id="metadata2">
    <rdf:RDF>
      <cc:Work
         rdf:about="">
        <dc:title>Part of the Flat Icon Collection (Wed Aug 25 23:29:46 2004)</dc:title>
        <dc:description />
        <dc:subject>
          <rdf:Bag>
            <rdf:li>hash</rdf:li>
            <rdf:li />
            <rdf:li>action</rdf:li>
            <rdf:li>computer</rdf:li>
            <rdf:li>icons</rdf:li>
            <rdf:li>theme</rdf:li>
          </rdf:Bag>
        </dc:subject>
        <dc:publisher>
          <cc:Agent
             rdf:about="http://www.openclipart.org/">
            <dc:title>Danny Allen</dc:title>
          </cc:Agent>
        </dc:publisher>
        <dc:creator>
          <cc:Agent>
            <dc:title>Danny Allen</dc:title>
          </cc:Agent>
        </dc:creator>
        <dc:rights>
          <cc:Agent>
            <dc:title>Danny Allen</dc:title>
          </cc:Agent>
        </dc:rights>
        <dc:date />
        <dc:format>image/svg+xml</dc:format>
        <dc:type
           rdf:resource="http://purl.org/dc/dcmitype/StillImage" />
        <cc:license
           rdf:resource="http://web.resource.org/cc/PublicDomain" />
        <dc:language>en</dc:language>
      </cc:Work>
      <cc:License
         rdf:about="http://web.resource.org/cc/PublicDomain">
        <cc:permits
           rdf:resource="http://web.resource.org/cc/Reproduction" />
        <cc:permits
           rdf:resource="http://web.resource.org/cc/Distribution" />
        <cc:permits
           rdf:resource="http://web.resource.org/cc/DerivativeWorks" />
      </cc:License>
    </rdf:RDF>
  </metadata>
  <sodipodi:namedview
     bordercolor="#666666"
     borderopacity="1.0"
     id="base"
     inkscape:cx="9.6412633"
     inkscape:cy="5.5931283"
     inkscape:pageopacity="0.0"
     inkscape:pageshadow="2"
     inkscape:window-height="986"
     inkscape:window-width="1920"
     inkscape:window-x="-11"
     inkscape:window-y="-11"
     inkscape:zoom="6.9465337"
     pagecolor="#ffffff"
     showguides="true"
     snaptoguides="true"
     showgrid="false"
     inkscape:window-maximized="1"
     inkscape:current-layer="svg1" />
  <defs
     id="defs3" />
  <path
     d="m 36.844455,16.406806 c 0,-1.669023 0.356899,-3.206832 1.070695,-4.613431 0.713796,-1.417095 1.711011,-2.5297749 2.991643,-3.338043 1.291132,-0.8082707 2.760711,-1.2124034 4.408739,-1.2124034 0.871251,0 1.768743,0.1049633 2.692479,0.3149086 0.923736,0.1994463 1.700515,0.5458438 2.330334,1.0392033 0.62982,0.4933595 0.944729,1.159919 0.944729,1.9996785 0,0.671808 -0.199447,1.233396 -0.598328,1.684768 -0.388389,0.451371 -0.8765,0.677056 -1.464332,0.677056 -0.283419,0 -0.561588,-0.04724 -0.834511,-0.141698 -0.262435,-0.09448 -0.530097,-0.194206 -0.80302,-0.299167 -0.262435,-0.11547 -0.545844,-0.209953 -0.850256,-0.283417 -0.293916,-0.07347 -0.66656,-0.11023 -1.117931,-0.11023 -0.818765,0 -1.511568,0.194206 -2.078404,0.582584 -0.55634,0.377892 -0.97622,0.892244 -1.25964,1.543059 -0.272923,0.640316 -0.409383,1.35936 -0.409383,2.157132 0,0.776779 0.136457,1.501071 0.409383,2.172878 0.272921,0.661312 0.66656,1.18616 1.180912,1.574549 0.524849,0.38839 1.144172,0.582583 1.857968,0.582583 0.808268,0 1.621787,-0.152205 2.440551,-0.45662 0.818767,-0.304412 1.306876,-0.456619 1.464331,-0.456619 0.377892,0 0.724292,0.11023 1.039204,0.330656 0.314908,0.220433 0.561588,0.509103 0.740039,0.866003 0.188939,0.3464 0.283417,0.703299 0.283417,1.070692 0,0.776779 -0.341152,1.432842 -1.023456,1.968187 -0.671808,0.535348 -1.474828,0.923736 -2.40906,1.165167 -0.934235,0.251928 -1.779243,0.377892 -2.535026,0.377892 -1.249143,0 -2.393315,-0.23094 -3.432519,-0.6928 -1.028704,-0.461868 -1.926196,-1.117931 -2.692479,-1.968187 -0.76628,-0.860755 -1.348863,-1.847472 -1.747748,-2.960155 -0.398887,-1.123179 -0.598331,-2.314587 -0.598331,-3.574226 z M 26.169011,22.626275 V 10.187336 c 0,-0.7452877 0.230935,-1.3646111 0.692802,-1.8579679 0.472365,-0.5038558 1.075942,-0.7557837 1.810732,-0.7557837 0.608826,0 1.133675,0.1627118 1.574549,0.4881086 0.451371,0.3149112 0.766281,0.6875549 0.94473,1.1179311 1.081192,-1.2911312 2.241108,-1.9366955 3.479755,-1.9366955 0.682304,0 1.280632,0.2466879 1.794984,0.7400366 0.524852,0.4828632 0.787276,1.1074348 0.787276,1.8737148 0,0.787275 -0.246688,1.35936 -0.740037,1.716259 -0.482863,0.356897 -1.285883,0.698051 -2.409062,1.023456 -1.144172,0.325408 -1.9157,0.734791 -2.314587,1.228151 -0.398886,0.48286 -0.598329,1.354112 -0.598329,2.613751 v 6.187978 c 0,0.745288 -0.236183,1.375108 -0.708547,1.88946 -0.461868,0.503856 -1.065446,0.755783 -1.810732,0.755783 -0.73479,0 -1.338367,-0.251927 -1.810732,-0.755783 -0.461868,-0.514352 -0.692802,-1.144172 -0.692802,-1.88946 z m -7.258672,0 V 10.187336 c 0,-0.7452877 0.230932,-1.3646111 0.692801,-1.8579679 0.472365,-0.5038558 1.075942,-0.7557837 1.810732,-0.7557837 0.745287,0 1.348864,0.2519279 1.810732,0.7557837 0.472365,0.4933568 0.708547,1.1126802 0.708547,1.8579679 v 12.438939 c 0,0.745288 -0.236183,1.375108 -0.708547,1.88946 -0.461868,0.503856 -1.065445,0.755783 -1.810732,0.755783 -0.73479,0 -1.338367,-0.251927 -1.810732,-0.755783 -0.461868,-0.514352 -0.692801,-1.144172 -0.692801,-1.88946 z M 18.422228,3.0231349 c 0,-0.8187644 0.293916,-1.5273119 0.881748,-2.12564005 C 19.891807,0.29916405 20.595106,0 21.413872,0 c 0.829263,0 1.53781,0.29391589 2.125642,0.88174767 0.587831,0.58783183 0.881747,1.30162753 0.881747,2.14138723 0,0.8712513 -0.293916,1.5955434 -0.881747,2.1728788 -0.587832,0.5773355 -1.296379,0.8660032 -2.125642,0.8660032 -0.818766,0 -1.522065,-0.2939159 -2.109896,-0.8817476 C 18.716144,4.5924375 18.422228,3.8733936 18.422228,3.0231349 Z M 2.2043692,22.799476 2.771207,18.563937 H 1.5588039 c -0.5353467,0 -0.92898413,-0.152205 -1.18091204,-0.456617 C 0.12596395,17.792409 0,17.419765 0,16.989389 0,16.559013 0.12596395,16.196866 0.37789186,15.90295 0.62981977,15.598538 1.0234572,15.44633 1.5588039,15.44633 H 3.1963353 L 3.7159366,11.572939 H 2.4877881 c -0.52485,0 -0.9132387,-0.152205 -1.1651666,-0.456619 C 1.0706936,10.801411 0.94472965,10.428767 0.94472965,9.9983884 0.94472965,9.557516 1.0706936,9.1901204 1.3226215,8.8962045 1.5745494,8.5917923 1.9629381,8.4395849 2.4877881,8.4395849 H 4.1883014 L 4.8811032,3.3852822 C 4.9545822,2.8499348 5.1225341,2.4353031 5.384959,2.1413872 5.6578809,1.8474713 6.0882577,1.7005147 6.6760895,1.7005147 c 0.4198799,0 0.7662807,0.1207104 1.0392025,0.3621447 0.2729219,0.2309406 0.409383,0.5510946 0.409383,0.9604755 0,0.178459 -0.041988,0.5668391 -0.125964,1.1651672 L 7.4161277,8.4395849 H 10.329044 L 11.0061,3.3852822 c 0.07348,-0.5353474 0.241432,-0.9499791 0.503856,-1.243895 0.272922,-0.2939159 0.703299,-0.4408725 1.291131,-0.4408725 0.41988,0 0.76628,0.1207104 1.039202,0.3621447 0.272922,0.2414208 0.409383,0.561591 0.409383,0.9604755 0,0.178459 -0.04199,0.5668391 -0.125964,1.1651672 l -0.582583,4.2512828 h 1.228148 c 0.545844,0 0.939482,0.1522047 1.180913,0.4566196 0.251928,0.2939159 0.377891,0.6613115 0.377891,1.1021839 0,0.4303786 -0.125963,0.8030226 -0.377891,1.1179316 -0.251928,0.304412 -0.645566,0.456619 -1.180913,0.456619 h -1.637531 l -0.519601,3.873391 h 1.228148 c 0.545844,0 0.939481,0.146965 1.180912,0.440875 0.241432,0.293916 0.362147,0.661309 0.362147,1.102184 0,0.440873 -0.125964,0.813516 -0.377892,1.117931 -0.241432,0.304412 -0.62982,0.456617 -1.165167,0.456617 H 12.12403 l -0.677056,5.038558 c -0.07348,0.524852 -0.241431,0.934235 -0.503856,1.228151 -0.262424,0.293916 -0.692801,0.440872 -1.29113,0.440872 -0.4198799,0 -0.7715293,-0.11547 -1.0549483,-0.3464 -0.2729219,-0.241421 -0.4093827,-0.566839 -0.4093827,-0.97622 0,-0.209953 0.047236,-0.59308 0.1417084,-1.149422 L 8.9119495,18.563937 H 5.9990333 L 5.321977,23.602495 c -0.073479,0.535348 -0.2466795,0.94998 -0.5196013,1.243895 -0.2624249,0.28342 -0.6928017,0.425128 -1.2911305,0.425128 -0.4093829,0 -0.7557837,-0.11547 -1.0392026,-0.3464 -0.2729219,-0.241421 -0.4093829,-0.566839 -0.4093829,-0.97622 0,-0.209953 0.047236,-0.59308 0.1417095,-1.149422 z M 9.3843145,15.44633 9.9039159,11.572939 H 6.9752539 L 6.4556526,15.44633 Z"
     id="path832"
     style="font-weight:900;font-size:12px;font-family:'VAG Rounded Black SSi';fill:#7f7f7f;stroke-width:2.687231pt"
     inkscape:connector-curvature="0" />
</svg>
