<!DOCTYPE svg PUBLIC "-//W3C//DTD SVG 20010904//EN" "http://www.w3.org/TR/2001/REC-SVG-20010904/DTD/svg10.dtd">
<svg version="1.0" xmlns="http://www.w3.org/2000/svg" width="900px" height="564px" viewBox="0 0 9000 5640" preserveAspectRatio="xMidYMid meet">
<g id="layer101" fill="#59595c" stroke="none">
 <path d="M0 5080 l0 -560 22 5 c13 2 81 16 153 31 201 40 382 89 590 159 498 167 877 383 1166 666 95 93 219 236 219 253 0 3 -484 6 -1075 6 l-1075 0 0 -560z"/>
 <path d="M2020 5233 c-36 -35 -115 -102 -175 -149 -409 -319 -1002 -567 -1670 -699 -72 -14 -140 -28 -152 -30 l-23 -5 0 -815 c0 -448 3 -815 6 -815 3 0 79 37 167 82 363 185 669 408 952 692 404 406 689 867 870 1411 52 155 105 347 105 379 0 24 -10 18 -80 -51z"/>
 <path d="M2344 4648 c77 -2079 427 -3634 1019 -4525 l82 -123 2777 0 2778 0 0 1117 0 1117 -71 -105 c-233 -343 -521 -615 -860 -812 -314 -182 -682 -296 -1094 -338 -164 -16 -506 -14 -670 5 -761 90 -1513 449 -2190 1047 -187 165 -468 465 -660 704 -445 555 -853 1323 -1076 2023 -13 39 -27 72 -32 72 -6 0 -7 -69 -3 -182z"/>
 <path d="M2061 4602 c-49 -123 -187 -397 -266 -527 -162 -265 -336 -487 -560 -710 -309 -310 -646 -549 -1061 -752 l-174 -86 0 -1194 c0 -953 3 -1193 13 -1187 104 62 432 358 587 530 756 842 1288 2164 1479 3679 27 210 36 335 25 335 -5 0 -24 -39 -43 -88z"/>
 <path d="M2162 3806 c-209 -1167 -632 -2207 -1203 -2957 -192 -252 -457 -529 -678 -709 -57 -47 -118 -97 -135 -112 l-31 -27 1564 -1 1563 0 -18 28 c-48 72 -154 262 -221 396 -378 755 -632 1819 -758 3178 -14 150 -25 291 -25 314 0 44 -8 74 -19 74 -3 0 -21 -83 -39 -184z"/>
 </g>
<g id="layer102" fill="#067fc2" stroke="none">
 <path d="M2330 5620 c0 -26 40 -211 80 -372 467 -1870 1739 -3427 3215 -3937 508 -176 1019 -223 1527 -140 512 82 955 306 1308 659 191 190 325 368 469 620 l71 125 0 1533 0 1532 -3335 0 -3335 0 0 -20z m3674 -550 c316 -86 495 -283 542 -594 13 -82 13 -116 4 -181 -36 -253 -214 -406 -625 -537 -163 -51 -254 -91 -312 -135 -104 -79 -99 -275 9 -353 132 -96 445 -56 669 85 37 23 56 30 60 22 4 -7 37 -91 74 -187 l66 -175 -23 -19 c-71 -57 -289 -141 -438 -167 -102 -18 -345 -16 -435 4 -287 64 -471 221 -530 452 -20 78 -20 262 0 340 66 256 238 392 645 510 264 76 371 173 357 324 -16 180 -177 284 -415 268 -123 -8 -265 -47 -392 -108 -61 -29 -112 -50 -114 -48 -2 2 -34 84 -72 183 -79 207 -83 186 55 236 248 90 364 110 606 106 156 -3 204 -8 269 -26z m1928 19 c169 -18 365 -79 465 -144 l21 -14 -70 -183 c-39 -101 -72 -184 -72 -185 -1 -1 -51 23 -111 53 -125 62 -209 84 -332 84 -282 0 -463 -151 -539 -449 -68 -264 -29 -622 86 -799 106 -164 243 -235 455 -235 124 0 225 26 344 89 46 24 87 44 91 44 4 0 31 -62 60 -137 29 -76 61 -159 71 -185 l19 -48 -63 -31 c-172 -87 -304 -118 -535 -126 -237 -8 -367 15 -525 92 -350 172 -546 589 -524 1114 21 500 228 855 582 997 164 65 357 87 577 63z m-3192 -1128 c0 -609 -2 -1110 -4 -1112 -2 -2 -113 -3 -245 -1 l-241 3 0 1109 0 1110 238 2 c130 2 240 2 245 0 4 -2 7 -502 7 -1111z"/>
 </g>
<g id="layer103" fill="#f8fafd" stroke="none">
 <path d="M5465 5085 c-139 -26 -397 -107 -441 -139 -17 -13 -14 -24 50 -192 38 -99 70 -181 72 -183 2 -2 53 19 114 48 410 195 782 122 807 -160 14 -151 -93 -248 -357 -324 -407 -118 -579 -254 -645 -510 -20 -78 -20 -262 0 -340 59 -231 243 -388 530 -452 90 -20 333 -22 435 -4 149 26 367 110 438 167 l23 19 -66 175 c-37 96 -70 180 -74 187 -4 8 -23 1 -60 -22 -224 -141 -537 -181 -669 -85 -108 78 -113 274 -9 353 58 44 149 84 312 135 411 131 589 284 625 537 9 65 9 99 -4 181 -47 311 -226 508 -542 594 -105 29 -416 37 -539 15z"/>
 <path d="M7630 5093 c-388 -41 -657 -262 -784 -643 -88 -265 -100 -595 -30 -882 101 -418 365 -675 756 -738 111 -18 396 -7 508 18 98 23 189 56 277 101 l63 31 -19 48 c-10 26 -42 109 -71 185 -29 75 -56 137 -60 137 -4 0 -45 -20 -91 -44 -119 -63 -220 -89 -344 -89 -162 0 -277 40 -370 130 -145 138 -216 376 -202 677 11 240 74 415 193 533 99 100 214 143 377 143 123 0 207 -22 332 -84 60 -30 110 -54 111 -53 0 1 33 84 72 185 l70 183 -21 14 c-166 109 -512 175 -767 148z"/>
 <path d="M4488 5072 l-238 -2 0 -1110 0 -1109 241 -3 c132 -2 243 -1 245 1 7 8 4 2220 -3 2223 -5 2 -115 2 -245 0z"/>
 </g>

</svg>