<!DOCTYPE svg PUBLIC "-//W3C//DTD SVG 20010904//EN" "http://www.w3.org/TR/2001/REC-SVG-20010904/DTD/svg10.dtd">
<svg version="1.0" xmlns="http://www.w3.org/2000/svg" width="100px" height="99px" viewBox="0 0 1000 990" preserveAspectRatio="xMidYMid meet">
<g id="layer101" fill="#404041" stroke="none">
 <path d="M400 904 c-148 -40 -263 -161 -295 -310 -15 -71 -20 -259 -9 -352 l7 -52 108 0 108 0 3 177 c3 157 5 183 24 218 29 55 90 97 152 103 66 6 110 -10 156 -57 119 -122 45 -317 -124 -329 -50 -4 -66 0 -106 22 -25 14 -48 26 -50 26 -2 0 -4 -58 -4 -129 l0 -129 51 -12 c31 -8 83 -11 130 -7 233 16 403 214 387 451 -19 271 -273 451 -538 380z"/>
 </g>
<g id="layer102" fill="#ec145a" stroke="none">
 <path d="M454 620 c-27 -11 -72 -65 -80 -96 -4 -14 -4 -43 -1 -64 15 -116 153 -166 243 -88 73 64 63 188 -19 238 -33 21 -105 26 -143 10z"/>
 </g>

</svg>