<?xml version="1.0" ?><svg height="56.25" id="svg2" version="1.1" width="56.25" xml:space="preserve" xmlns="http://www.w3.org/2000/svg" xmlns:cc="http://creativecommons.org/ns#" xmlns:dc="http://purl.org/dc/elements/1.1/" xmlns:inkscape="http://www.inkscape.org/namespaces/inkscape" xmlns:rdf="http://www.w3.org/1999/02/22-rdf-syntax-ns#" xmlns:svg="http://www.w3.org/2000/svg"><defs id="defs6"><clipPath id="clipPath16"><path d="M 0,0 0,45 45,45 45,0 0,0" id="path18"/></clipPath></defs><g id="g10" transform="matrix(1.25,0,0,-1.25,0,56.25)"><g id="g12"><g clip-path="url(#clipPath16)" id="g14"><g id="g20"><g id="g22"><g id="g24"><path d="m 9.347,6.027 0,32.946 c 0,0.843 0.684,1.527 1.527,1.527 l 13.349,0 11.43,-11.43 0,-23.043 C 35.653,5.184 34.969,4.5 34.126,4.5 l -23.252,0 c -0.843,0 -1.527,0.684 -1.527,1.527 z" id="path26" style="fill:#2b2b2b;fill-opacity:1;fill-rule:evenodd;stroke:none"/></g></g><g id="g28"><g id="g30"><path d="m 24.223,40.5 11.43,-11.43 -9.903,0 c -0.843,0 -1.527,0.684 -1.527,1.527 l 0,9.903 z" id="path32" style="fill:#525252;fill-opacity:1;fill-rule:evenodd;stroke:none"/></g></g><g id="g34"><g id="g36"><path d="m 15.299,12.002 2.252,-3.34 -0.941,0 -1.83,2.767 -0.57,-0.578 0,-2.189 -0.772,0 0,5.514 0.772,0 0,-2.349 2.248,2.349 0.94,0 -2.099,-2.174 z" id="path38" style="fill:#e6e6e6;fill-opacity:1;fill-rule:nonzero;stroke:none"/></g></g><g id="g40"><g id="g42"><path d="m 21.351,9.318 0,-0.656 -3.289,0 0,5.514 3.227,0 0,-0.648 -2.455,0 0,-1.647 2.318,0 0,-0.648 -2.318,0 0,-1.915 2.517,0 z" id="path44" style="fill:#e6e6e6;fill-opacity:1;fill-rule:nonzero;stroke:none"/></g></g><g id="g46"><g id="g48"><path d="m 25.425,14.176 0.874,0 -1.919,-3.204 0,-2.31 -0.777,0 0,2.31 -1.916,3.204 0.87,0 1.432,-2.533 1.436,2.533 z" id="path50" style="fill:#e6e6e6;fill-opacity:1;fill-rule:nonzero;stroke:none"/></g></g></g></g></g></g></svg>