<!DOCTYPE svg PUBLIC "-//W3C//DTD SVG 20010904//EN" "http://www.w3.org/TR/2001/REC-SVG-20010904/DTD/svg10.dtd">
<svg version="1.0" xmlns="http://www.w3.org/2000/svg" width="318px" height="293px" viewBox="0 0 3180 2930" preserveAspectRatio="xMidYMid meet">
<g id="layer101" fill="#333333" stroke="none">
 <path d="M2395 1897 c-3 -7 -4 -125 -3 -262 l3 -250 365 -213 c201 -117 373 -217 383 -223 16 -9 17 6 17 258 l0 268 -374 218 c-206 119 -378 217 -381 217 -3 0 -8 -6 -10 -13z"/>
 <path d="M1999 1429 c-200 -116 -374 -217 -386 -225 -22 -14 -23 -21 -23 -134 0 -65 4 -121 9 -124 8 -5 632 348 744 420 l37 24 0 120 c0 65 -4 121 -8 124 -5 3 -172 -90 -373 -205z"/>
 <path d="M1610 931 c-426 -246 -775 -452 -777 -458 -2 -6 167 -110 376 -231 l380 -221 781 451 c628 362 779 453 768 463 -7 7 -143 88 -303 180 -159 92 -326 189 -371 215 l-81 48 -773 -447z"/>
 </g>
<g id="layer102" fill="#dd4b18" stroke="none">
 <path d="M790 2466 l-765 -442 -3 -264 c-1 -145 1 -267 6 -272 6 -6 1471 830 1541 880 24 18 27 17 413 -208 214 -124 545 -315 735 -425 190 -110 368 -213 394 -228 l49 -29 0 274 -1 273 -763 443 c-661 383 -768 442 -802 441 -33 0 -161 -71 -804 -443z"/>
 <path d="M736 1611 c-4 -5 -2 -12 3 -15 5 -4 12 -2 15 3 4 5 2 12 -3 15 -5 4 -12 2 -15 -3z"/>
 <path d="M1066 1491 c-4 -5 -2 -12 3 -15 5 -4 12 -2 15 3 4 5 2 12 -3 15 -5 4 -12 2 -15 -3z"/>
 <path d="M476 1461 c-4 -5 -2 -12 3 -15 5 -4 12 -2 15 3 4 5 2 12 -3 15 -5 4 -12 2 -15 -3z"/>
 <path d="M806 1371 c-4 -5 -2 -12 3 -15 5 -4 12 -2 15 3 4 5 2 12 -3 15 -5 4 -12 2 -15 -3z"/>
 <path d="M696 1341 c-4 -5 -2 -12 3 -15 5 -4 12 -2 15 3 4 5 2 12 -3 15 -5 4 -12 2 -15 -3z"/>
 <path d="M930 1311 c-6 -12 -6 -22 -1 -26 6 -3 15 3 21 14 6 12 6 22 1 26 -6 3 -15 -3 -21 -14z"/>
 <path d="M216 1311 c-4 -5 -2 -12 3 -15 5 -4 12 -2 15 3 4 5 2 12 -3 15 -5 4 -12 2 -15 -3z"/>
 <path d="M1376 1311 c-4 -5 -2 -12 3 -15 5 -4 12 -2 15 3 4 5 2 12 -3 15 -5 4 -12 2 -15 -3z"/>
 <path d="M636 1281 c-4 -5 -2 -12 3 -15 5 -4 12 -2 15 3 4 5 2 12 -3 15 -5 4 -12 2 -15 -3z"/>
 <path d="M1056 1251 c-4 -5 -2 -12 3 -15 5 -4 12 -2 15 3 4 5 2 12 -3 15 -5 4 -12 2 -15 -3z"/>
 <path d="M436 1191 c-4 -5 -2 -12 3 -15 5 -4 12 -2 15 3 4 5 2 12 -3 15 -5 4 -12 2 -15 -3z"/>
 <path d="M1497 1173 c-4 -6 0 -18 7 -28 8 -11 16 -14 19 -8 4 6 0 18 -7 28 -8 11 -16 14 -19 8z"/>
 <path d="M376 1131 c-4 -5 -2 -12 3 -15 5 -4 12 -2 15 3 4 5 2 12 -3 15 -5 4 -12 2 -15 -3z"/>
 <path d="M1236 1121 c-4 -5 -2 -12 3 -15 5 -4 12 -2 15 3 4 5 2 12 -3 15 -5 4 -12 2 -15 -3z"/>
 <path d="M1377 1103 c-4 -6 0 -18 7 -28 8 -11 16 -14 19 -8 4 6 0 18 -7 28 -8 11 -16 14 -19 8z"/>
 <path d="M206 1081 c-4 -5 -2 -12 3 -15 5 -4 12 -2 15 3 4 5 2 12 -3 15 -5 4 -12 2 -15 -3z"/>
 <path d="M1356 1051 c-4 -5 -2 -12 3 -15 5 -4 12 -2 15 3 4 5 2 12 -3 15 -5 4 -12 2 -15 -3z"/>
 <path d="M177 1043 c-4 -6 0 -18 7 -28 8 -11 16 -14 19 -8 4 6 0 18 -7 28 -8 11 -16 14 -19 8z"/>
 <path d="M330 1021 c-6 -12 -6 -22 -1 -26 6 -3 15 3 21 14 6 12 6 22 1 26 -6 3 -15 -3 -21 -14z"/>
 <path d="M1256 1031 c-4 -5 -2 -12 3 -15 5 -4 12 -2 15 3 4 5 2 12 -3 15 -5 4 -12 2 -15 -3z"/>
 <path d="M456 961 c-4 -5 -2 -12 3 -15 5 -4 12 -2 15 3 4 5 2 12 -3 15 -5 4 -12 2 -15 -3z"/>
 <path d="M126 881 c-4 -5 -2 -12 3 -15 5 -4 12 -2 15 3 4 5 2 12 -3 15 -5 4 -12 2 -15 -3z"/>
 <path d="M636 831 c-4 -5 -2 -12 3 -15 5 -4 12 -2 15 3 4 5 2 12 -3 15 -5 4 -12 2 -15 -3z"/>
 <path d="M760 771 c-6 -12 -6 -22 -1 -26 6 -3 15 3 21 14 6 12 6 22 1 26 -6 3 -15 -3 -21 -14z"/>
 <path d="M836 761 c-4 -5 -2 -12 3 -15 5 -4 12 -2 15 3 4 5 2 12 -3 15 -5 4 -12 2 -15 -3z"/>
 </g>
<g id="layer103" fill="#878787" stroke="none">
 <path d="M800 1918 l-775 -448 -3 -122 c-1 -67 1 -124 5 -128 4 -4 357 194 783 441 l775 447 3 123 c1 67 -1 125 -5 129 -4 4 -357 -195 -783 -442z"/>
 <path d="M1606 2363 c-3 -3 -6 -59 -6 -123 0 -99 3 -119 18 -132 23 -20 726 -427 743 -430 8 -2 16 -21 19 -43 3 -22 10 -40 15 -40 6 0 11 58 13 148 1 85 6 145 12 142 5 -3 11 -1 15 4 6 10 -28 33 -42 29 -4 -1 -26 9 -48 24 -28 19 -586 344 -726 424 -3 2 -9 1 -13 -3z"/>
 <path d="M1216 1885 c-203 -117 -373 -218 -378 -223 -13 -13 -1 -21 406 -257 213 -124 346 -195 357 -192 10 3 18 2 17 -2 -2 -18 4 -21 22 -11 11 6 18 15 15 21 -4 5 -11 7 -16 4 -5 -4 -9 -4 -9 -1 0 3 9 10 20 16 11 6 20 7 19 3 -3 -21 3 -22 31 -8 17 9 28 20 25 26 -4 5 -11 7 -16 4 -5 -4 -9 -4 -9 -1 0 3 9 10 20 16 11 6 20 7 19 3 -3 -19 2 -23 21 -13 11 6 17 17 14 24 -3 8 3 19 15 26 12 6 21 7 20 3 -3 -19 2 -23 21 -13 11 6 17 17 14 24 -3 8 3 19 15 26 12 6 21 7 20 3 -3 -20 2 -23 21 -13 11 6 18 15 15 21 -4 5 -11 7 -16 4 -5 -4 -9 -4 -9 -1 0 3 9 10 20 16 11 6 20 7 19 3 -3 -21 3 -22 31 -8 17 9 28 20 25 26 -4 5 -11 7 -16 4 -5 -4 -9 -4 -9 -1 0 3 9 10 20 16 11 6 20 7 19 3 -3 -19 2 -23 21 -13 11 6 17 17 14 24 -3 8 3 19 15 26 12 6 21 7 20 3 -3 -19 2 -23 21 -13 10 6 17 17 14 24 -3 8 0 17 6 21 6 3 10 3 9 -2 -4 -21 3 -22 31 -8 17 9 28 20 25 26 -4 5 -11 7 -16 4 -5 -4 -9 -4 -9 -1 0 3 9 10 20 16 11 6 20 7 19 3 -3 -21 3 -22 31 -8 17 9 28 20 25 26 -4 5 -11 7 -16 4 -5 -4 -9 -4 -9 -1 0 3 9 10 20 16 11 6 20 7 19 3 -3 -19 2 -23 21 -13 11 6 17 17 14 24 -3 8 3 19 15 26 12 6 21 7 20 3 -3 -20 2 -23 21 -13 11 6 18 15 15 21 -4 5 -12 6 -18 2 -8 -5 -8 -2 1 9 10 12 10 17 0 25 -29 23 -741 433 -752 433 -6 -1 -177 -97 -380 -215z"/>
 <path d="M2445 1881 c-3 -6 3 -15 14 -21 12 -6 22 -6 26 -1 3 6 -3 15 -14 21 -12 6 -22 6 -26 1z"/>
 <path d="M2515 1841 c-3 -6 3 -15 14 -21 12 -6 22 -6 26 -1 3 6 -3 15 -14 21 -12 6 -22 6 -26 1z"/>
 <path d="M2565 1810 c-3 -5 8 -16 24 -25 18 -9 32 -11 36 -5 3 5 -8 16 -24 25 -18 9 -32 11 -36 5z"/>
 <path d="M2635 1771 c-3 -6 3 -15 14 -21 12 -6 22 -6 26 -1 3 6 -3 15 -14 21 -12 6 -22 6 -26 1z"/>
 <path d="M2705 1731 c-3 -6 3 -15 14 -21 12 -6 22 -6 26 -1 3 6 -3 15 -14 21 -12 6 -22 6 -26 1z"/>
 <path d="M2755 1701 c-3 -6 3 -15 14 -21 12 -6 22 -6 26 -1 3 6 -3 15 -14 21 -12 6 -22 6 -26 1z"/>
 <path d="M2825 1661 c-3 -6 3 -15 14 -21 12 -6 22 -6 26 -1 3 6 -3 15 -14 21 -12 6 -22 6 -26 1z"/>
 <path d="M2875 1630 c-3 -5 8 -16 24 -25 18 -9 32 -11 36 -5 3 5 -8 16 -24 25 -18 9 -32 11 -36 5z"/>
 <path d="M2945 1591 c-3 -6 3 -15 14 -21 12 -6 22 -6 26 -1 3 6 -3 15 -14 21 -12 6 -22 6 -26 1z"/>
 <path d="M2995 1560 c-3 -5 8 -16 24 -25 18 -9 32 -11 36 -5 3 5 -8 16 -24 25 -18 9 -32 11 -36 5z"/>
 <path d="M3065 1521 c-3 -6 3 -15 14 -21 12 -6 22 -6 26 -1 3 6 -3 15 -14 21 -12 6 -22 6 -26 1z"/>
 <path d="M3136 1481 c-4 -5 -2 -12 3 -15 5 -4 12 -2 15 3 4 5 2 12 -3 15 -5 4 -12 2 -15 -3z"/>
 <path d="M2345 1386 c-11 -9 -17 -16 -12 -17 15 -3 27 -7 32 -9 3 -1 8 -3 13 -4 4 -1 17 -7 30 -14 20 -12 26 -9 23 11 -1 5 3 6 8 3 5 -4 12 -2 16 3 3 6 -4 15 -15 21 -18 10 -24 7 -21 -12 1 -13 -29 -1 -42 15 -11 16 -14 16 -32 3z"/>
 <path d="M2288 1354 c-19 -10 -25 -19 -21 -32 5 -13 3 -15 -7 -5 -9 8 -19 9 -32 2 -15 -8 -16 -14 -8 -29 10 -19 13 -19 40 -5 21 11 28 20 23 33 -6 14 -4 15 8 5 12 -10 19 -10 33 0 14 10 15 15 4 29 -12 15 -16 15 -40 2z"/>
 <path d="M2469 1358 c-8 -26 -2 -51 13 -59 17 -9 22 -5 19 14 -1 5 3 6 8 3 5 -4 12 -2 16 3 3 6 -8 17 -25 26 -16 8 -30 14 -31 13z"/>
 <path d="M2539 1313 c-1 -4 -1 -12 0 -16 1 -5 -3 -6 -8 -3 -5 4 -12 2 -16 -3 -3 -6 8 -17 25 -26 16 -8 30 -14 31 -13 8 26 2 51 -13 59 -10 5 -19 6 -19 2z"/>
 <path d="M2157 1279 c-10 -6 -15 -15 -12 -20 4 -5 10 -7 15 -4 5 3 11 1 15 -5 4 -7 13 -7 26 1 18 9 19 24 1 24 -4 0 -12 3 -17 7 -6 3 -18 2 -28 -3z"/>
 <path d="M2609 1273 c-1 -4 -1 -12 0 -16 1 -5 -3 -6 -8 -3 -5 4 -12 2 -16 -3 -3 -6 4 -15 15 -21 19 -10 24 -7 21 13 -1 5 3 6 8 3 5 -4 12 -2 16 3 3 6 -4 15 -15 21 -11 6 -21 7 -21 3z"/>
 <path d="M2100 1245 c-23 -12 -30 -30 -12 -30 4 0 12 -3 18 -7 6 -4 19 -2 28 5 14 10 15 15 4 29 -11 15 -16 15 -38 3z"/>
 <path d="M2659 1248 c-8 -27 -2 -51 13 -59 10 -5 18 -8 19 -7 8 27 2 51 -13 59 -10 5 -18 8 -19 7z"/>
 <path d="M2037 1208 c-15 -11 -16 -16 -5 -31 11 -15 16 -16 31 -5 15 11 16 16 5 31 -11 15 -16 16 -31 5z"/>
 <path d="M2729 1203 c-1 -4 -1 -12 0 -16 1 -5 -3 -6 -8 -3 -5 4 -12 2 -16 -3 -3 -6 4 -15 15 -21 19 -10 24 -7 21 13 -1 5 3 6 8 3 5 -4 12 -2 16 3 3 6 -4 15 -15 21 -11 6 -21 7 -21 3z"/>
 <path d="M1967 1169 c-13 -8 -15 -14 -7 -30 10 -18 13 -18 41 -3 27 13 32 29 11 29 -4 0 -12 3 -17 7 -6 3 -18 2 -28 -3z"/>
 <path d="M2779 1178 c-8 -27 -2 -51 13 -59 10 -5 18 -8 19 -7 8 27 2 51 -13 59 -10 5 -18 8 -19 7z"/>
 <path d="M1897 1129 c-10 -6 -15 -15 -12 -20 4 -5 10 -7 15 -4 5 3 11 1 15 -5 4 -7 13 -7 26 1 18 9 19 24 1 24 -4 0 -12 3 -17 7 -6 3 -18 2 -28 -3z"/>
 <path d="M2849 1133 c-1 -4 -1 -12 0 -16 1 -5 -3 -6 -8 -3 -5 4 -12 2 -16 -3 -3 -6 4 -15 15 -21 19 -10 24 -7 21 13 -1 5 3 6 8 3 5 -4 12 -2 16 3 3 6 -4 15 -15 21 -11 6 -21 7 -21 3z"/>
 <path d="M1840 1095 c-23 -12 -30 -30 -12 -30 4 0 12 -3 18 -7 6 -4 19 -2 28 5 14 10 15 15 4 29 -11 15 -16 15 -38 3z"/>
 <path d="M2899 1108 c-8 -26 -2 -51 13 -59 17 -9 22 -5 19 14 -1 5 3 6 8 3 5 -4 12 -2 16 3 3 6 -8 17 -25 26 -16 8 -30 14 -31 13z"/>
 <path d="M1777 1058 c-15 -11 -16 -16 -5 -31 11 -15 16 -16 31 -5 15 11 16 16 5 31 -11 15 -16 16 -31 5z"/>
 <path d="M2969 1063 c-1 -4 -1 -12 0 -16 1 -5 -3 -6 -8 -3 -5 4 -12 2 -16 -3 -3 -6 8 -17 25 -26 16 -8 30 -14 31 -13 8 26 2 51 -13 59 -10 5 -19 6 -19 2z"/>
 <path d="M1707 1019 c-13 -8 -15 -14 -7 -30 10 -18 13 -18 41 -3 27 13 32 29 11 29 -4 0 -12 3 -17 7 -6 3 -18 2 -28 -3z"/>
 <path d="M3039 1023 c-1 -4 -1 -12 0 -16 1 -5 -3 -6 -8 -3 -5 4 -12 2 -16 -3 -3 -6 4 -15 15 -21 19 -10 24 -7 21 13 -1 5 3 6 8 3 5 -4 12 -2 16 3 3 6 -4 15 -15 21 -11 6 -21 7 -21 3z"/>
 <path d="M3089 998 c-8 -27 -2 -51 13 -59 10 -5 18 -8 19 -7 8 27 2 51 -13 59 -10 5 -18 8 -19 7z"/>
 <path d="M1637 979 c-10 -6 -15 -15 -12 -20 4 -5 10 -7 15 -4 5 3 11 1 15 -5 4 -7 13 -7 26 1 18 9 19 24 1 24 -4 0 -12 3 -17 7 -6 3 -18 2 -28 -3z"/>
 <path d="M1599 958 c-1 -5 -2 -11 -3 -15 -1 -5 -5 -13 -9 -20 -11 -17 7 -24 27 -10 15 11 15 14 2 32 -9 11 -16 17 -17 13z"/>
 <path d="M3105 916 c-11 -8 -14 -16 -8 -19 6 -4 18 0 28 7 11 8 14 16 8 19 -6 4 -18 0 -28 -7z"/>
 <path d="M1537 894 c-38 -20 -24 -38 14 -19 16 9 27 20 24 25 -7 12 -4 13 -38 -6z"/>
 <path d="M3035 876 c-11 -8 -14 -16 -8 -19 6 -4 18 0 28 7 11 8 14 16 8 19 -6 4 -18 0 -28 -7z"/>
 <path d="M1475 856 c-11 -8 -14 -16 -8 -19 6 -4 18 0 28 7 11 8 14 16 8 19 -6 4 -18 0 -28 -7z"/>
 <path d="M2977 844 c-38 -20 -24 -38 14 -19 16 9 27 20 24 25 -7 12 -4 13 -38 -6z"/>
 <path d="M1405 816 c-11 -8 -14 -16 -8 -19 6 -4 18 0 28 7 11 8 14 16 8 19 -6 4 -18 0 -28 -7z"/>
 <path d="M2915 806 c-11 -8 -14 -16 -8 -19 6 -4 18 0 28 7 11 8 14 16 8 19 -6 4 -18 0 -28 -7z"/>
 <path d="M1335 776 c-11 -8 -14 -16 -8 -19 6 -4 18 0 28 7 11 8 14 16 8 19 -6 4 -18 0 -28 -7z"/>
 <path d="M2845 766 c-11 -8 -14 -16 -8 -19 6 -4 18 0 28 7 11 8 14 16 8 19 -6 4 -18 0 -28 -7z"/>
 <path d="M1277 744 c-38 -20 -24 -38 14 -19 16 9 27 20 24 25 -7 12 -4 13 -38 -6z"/>
 <path d="M2775 726 c-11 -8 -14 -16 -8 -19 6 -4 18 0 28 7 11 8 14 16 8 19 -6 4 -18 0 -28 -7z"/>
 <path d="M1215 706 c-11 -8 -14 -16 -8 -19 6 -4 18 0 28 7 11 8 14 16 8 19 -6 4 -18 0 -28 -7z"/>
 <path d="M2717 694 c-38 -20 -24 -38 14 -19 16 9 27 20 24 25 -7 12 -4 13 -38 -6z"/>
 <path d="M1145 666 c-11 -8 -14 -16 -8 -19 6 -4 18 0 28 7 11 8 14 16 8 19 -6 4 -18 0 -28 -7z"/>
 <path d="M2655 656 c-11 -8 -14 -16 -8 -19 6 -4 18 0 28 7 11 8 14 16 8 19 -6 4 -18 0 -28 -7z"/>
 <path d="M1075 626 c-11 -8 -14 -16 -8 -19 6 -4 18 0 28 7 11 8 14 16 8 19 -6 4 -18 0 -28 -7z"/>
 <path d="M2585 616 c-11 -8 -14 -16 -8 -19 6 -4 18 0 28 7 11 8 14 16 8 19 -6 4 -18 0 -28 -7z"/>
 <path d="M1017 594 c-38 -20 -24 -38 14 -19 16 9 27 20 24 25 -7 12 -4 13 -38 -6z"/>
 <path d="M2515 576 c-11 -8 -14 -16 -8 -19 6 -4 18 0 28 7 11 8 14 16 8 19 -6 4 -18 0 -28 -7z"/>
 <path d="M955 556 c-11 -8 -14 -16 -8 -19 6 -4 18 0 28 7 11 8 14 16 8 19 -6 4 -18 0 -28 -7z"/>
 <path d="M2457 544 c-38 -20 -24 -38 14 -19 16 9 27 20 24 25 -7 12 -4 13 -38 -6z"/>
 <path d="M885 516 c-11 -8 -14 -16 -8 -19 6 -4 18 0 28 7 11 8 14 16 8 19 -6 4 -18 0 -28 -7z"/>
 <path d="M2395 506 c-11 -8 -14 -16 -8 -19 6 -4 18 0 28 7 11 8 14 16 8 19 -6 4 -18 0 -28 -7z"/>
 <path d="M837 489 c-10 -6 -15 -15 -12 -20 4 -5 11 -6 17 -3 7 4 8 2 4 -4 -3 -6 2 -16 13 -22 13 -7 22 -7 26 0 3 6 -1 13 -10 16 -9 4 -14 13 -11 20 7 18 -6 24 -27 13z"/>
 <path d="M2325 466 c-11 -8 -14 -16 -8 -19 6 -4 18 0 28 7 11 8 14 16 8 19 -6 4 -18 0 -28 -7z"/>
 <path d="M2267 434 c-38 -20 -24 -38 14 -19 16 9 27 20 24 25 -7 12 -4 13 -38 -6z"/>
 <path d="M895 430 c-3 -5 8 -16 24 -25 18 -9 32 -11 36 -5 3 5 -8 16 -24 25 -18 9 -32 11 -36 5z"/>
 <path d="M2205 396 c-11 -8 -14 -16 -8 -19 6 -4 18 0 28 7 11 8 14 16 8 19 -6 4 -18 0 -28 -7z"/>
 <path d="M965 391 c-3 -6 3 -15 14 -21 12 -6 22 -6 26 -1 3 6 -3 15 -14 21 -12 6 -22 6 -26 1z"/>
 <path d="M2135 356 c-11 -8 -14 -16 -8 -19 6 -4 18 0 28 7 11 8 14 16 8 19 -6 4 -18 0 -28 -7z"/>
 <path d="M1035 351 c-3 -6 3 -15 14 -21 12 -6 22 -6 26 -1 3 6 -3 15 -14 21 -12 6 -22 6 -26 1z"/>
 <path d="M1085 321 c-3 -6 3 -15 14 -21 12 -6 22 -6 26 -1 3 6 -3 15 -14 21 -12 6 -22 6 -26 1z"/>
 <path d="M2065 316 c-11 -8 -14 -16 -8 -19 6 -4 18 0 28 7 11 8 14 16 8 19 -6 4 -18 0 -28 -7z"/>
 <path d="M2007 284 c-38 -20 -24 -38 14 -19 16 9 27 20 24 25 -7 12 -4 13 -38 -6z"/>
 <path d="M1155 281 c-3 -6 3 -15 14 -21 12 -6 22 -6 26 -1 3 6 -3 15 -14 21 -12 6 -22 6 -26 1z"/>
 <path d="M1205 250 c-3 -5 8 -16 24 -25 18 -9 32 -11 36 -5 3 5 -8 16 -24 25 -18 9 -32 11 -36 5z"/>
 <path d="M1945 246 c-11 -8 -14 -16 -8 -19 6 -4 18 0 28 7 11 8 14 16 8 19 -6 4 -18 0 -28 -7z"/>
 <path d="M1275 211 c-3 -6 3 -15 14 -21 12 -6 22 -6 26 -1 3 6 -3 15 -14 21 -12 6 -22 6 -26 1z"/>
 <path d="M1875 206 c-11 -8 -14 -16 -8 -19 6 -4 18 0 28 7 11 8 14 16 8 19 -6 4 -18 0 -28 -7z"/>
 <path d="M1325 180 c-3 -5 8 -16 24 -25 18 -9 32 -11 36 -5 3 5 -8 16 -24 25 -18 9 -32 11 -36 5z"/>
 <path d="M1805 166 c-11 -8 -14 -16 -8 -19 6 -4 18 0 28 7 11 8 14 16 8 19 -6 4 -18 0 -28 -7z"/>
 <path d="M1395 141 c-3 -6 3 -15 14 -21 12 -6 22 -6 26 -1 3 6 -3 15 -14 21 -12 6 -22 6 -26 1z"/>
 <path d="M1747 134 c-38 -20 -24 -38 14 -19 16 9 27 20 24 25 -7 12 -4 13 -38 -6z"/>
 <path d="M1465 101 c-3 -6 3 -15 14 -21 12 -6 22 -6 26 -1 3 6 -3 15 -14 21 -12 6 -22 6 -26 1z"/>
 <path d="M1685 96 c-11 -8 -14 -16 -8 -19 6 -4 18 0 28 7 11 8 14 16 8 19 -6 4 -18 0 -28 -7z"/>
 <path d="M1515 71 c-3 -6 3 -15 14 -21 12 -6 22 -6 26 -1 3 6 -3 15 -14 21 -12 6 -22 6 -26 1z"/>
 <path d="M1615 56 c-11 -8 -14 -16 -8 -19 6 -4 18 0 28 7 11 8 14 16 8 19 -6 4 -18 0 -28 -7z"/>
 </g>
<g id="layer104" fill="#cccccc" stroke="none">
 <path d="M812 1931 c-425 -245 -771 -450 -770 -456 2 -5 6 -9 10 -8 4 2 346 198 760 438 l753 435 3 -107 c1 -58 -1 -110 -5 -114 -4 -4 -341 -200 -748 -435 -407 -234 -750 -432 -762 -440 -19 -12 -21 -18 -13 -39 7 -18 6 -24 -3 -22 -9 1 -13 -29 -15 -112 -3 -121 4 -144 35 -120 17 13 17 12 0 -8 -18 -21 -18 -21 75 -76 484 -283 650 -377 658 -372 6 4 10 57 10 125 0 117 0 119 -27 140 l-28 22 28 -17 c16 -9 36 -14 45 -10 14 5 15 4 5 -6 -17 -17 -18 -245 -2 -254 6 -4 8 -13 5 -21 -9 -23 10 -24 30 -1 10 12 18 25 17 29 -4 12 25 30 32 18 9 -15 46 7 39 24 -6 16 22 30 31 15 4 -5 11 -7 16 -3 5 3 7 9 4 14 -3 4 2 13 9 19 10 8 16 9 21 1 9 -15 46 7 39 24 -6 16 22 30 31 16 9 -15 45 8 39 24 -6 16 22 30 31 16 11 -17 45 8 38 28 -5 13 -3 15 7 5 17 -15 52 1 44 21 -6 16 22 30 31 16 9 -15 45 8 39 24 -6 16 22 30 31 16 9 -14 45 7 40 23 -3 6 4 18 15 25 11 7 20 9 19 5 -3 -19 2 -23 21 -13 12 7 17 16 13 28 -5 13 -3 15 7 5 16 -15 52 1 45 20 -3 6 4 18 15 25 11 7 20 9 19 5 -3 -20 3 -23 21 -13 11 6 18 15 15 21 -4 5 -12 6 -18 3 -7 -4 -9 -3 -4 1 4 5 -1 17 -10 27 -16 18 -16 18 12 4 22 -11 32 -12 43 -4 7 6 12 7 11 2 -3 -20 2 -24 20 -14 16 8 19 21 12 48 -1 1 -10 -2 -21 -8 -21 -11 -21 -9 -19 115 1 96 4 125 13 122 17 -7 41 9 41 25 0 7 12 13 28 14 30 1 42 9 42 27 0 7 12 12 28 13 30 1 42 9 42 27 0 7 12 12 26 13 33 1 51 12 43 26 -5 7 -2 9 8 6 18 -7 43 7 43 24 0 7 12 13 28 14 30 1 42 9 42 27 0 7 12 12 28 13 30 1 42 9 42 27 0 7 11 12 25 12 15 0 25 6 25 15 0 9 10 15 28 16 30 1 42 9 42 27 0 7 12 12 28 13 30 1 42 9 42 27 0 7 12 12 28 13 30 1 42 9 42 27 0 7 8 13 17 15 16 3 18 -10 20 -120 2 -98 6 -122 17 -120 8 2 11 -3 8 -12 -7 -18 28 -42 38 -27 3 5 1 12 -4 15 -5 3 -9 56 -10 116 -2 91 -6 118 -22 147 -14 25 -17 39 -10 46 7 7 11 59 11 128 0 117 0 118 -27 137 -58 40 -725 424 -744 427 -10 2 -22 6 -27 8 -4 3 -355 -196 -780 -442z m1187 194 l361 -210 0 -107 c0 -60 -2 -108 -5 -108 -3 0 -170 95 -370 212 l-365 211 0 110 c0 63 4 107 9 105 6 -1 172 -97 370 -213z m-22 -260 c199 -115 361 -210 360 -211 -29 -21 -739 -424 -746 -424 -6 0 -175 95 -375 212 l-365 212 147 84 c81 47 246 143 367 213 121 71 227 128 236 126 8 -1 178 -96 376 -212z m-1148 -219 c9 -11 7 -13 -11 -11 -33 4 -34 4 -18 15 19 12 16 12 29 -4z m-15 -264 c3 -5 -1 -9 -9 -9 -8 0 -12 4 -9 9 3 4 7 8 9 8 2 0 6 -4 9 -8z m-34 -16 c0 -3 -5 -8 -12 -12 -7 -4 -8 -3 -4 4 7 12 16 16 16 8z m105 -26 c3 -5 4 -10 1 -10 -3 0 -8 5 -11 10 -3 6 -4 10 -1 10 3 0 8 -4 11 -10z m-175 -14 c0 -3 -5 -8 -12 -12 -7 -4 -8 -3 -4 4 7 12 16 16 16 8z m250 -32 c0 -2 -9 0 -20 6 -11 6 -20 13 -20 16 0 2 9 0 20 -6 11 -6 20 -13 20 -16z m-300 2 c0 -3 -5 -8 -12 -12 -7 -4 -8 -3 -4 4 7 12 16 16 16 8z m345 -26 c3 -5 4 -10 1 -10 -3 0 -8 5 -11 10 -3 6 -4 10 -1 10 3 0 8 -4 11 -10z m-415 -14 c0 -3 -5 -8 -12 -12 -7 -4 -8 -3 -4 4 7 12 16 16 16 8z m485 -26 c3 -5 4 -10 1 -10 -3 0 -8 5 -11 10 -3 6 -4 10 -1 10 3 0 8 -4 11 -10z m-555 -14 c0 -3 -5 -8 -12 -12 -7 -4 -8 -3 -4 4 7 12 16 16 16 8z m605 -16 c3 -5 4 -10 1 -10 -3 0 -8 5 -11 10 -3 6 -4 10 -1 10 3 0 8 -4 11 -10z m459 1 c3 -5 -1 -11 -9 -14 -9 -4 -12 -1 -8 9 6 16 10 17 17 5z m-1134 -25 c0 -3 -5 -8 -12 -12 -7 -4 -8 -3 -4 4 7 12 16 16 16 8z m-355 -16 c3 -5 4 -10 1 -10 -3 0 -8 5 -11 10 -3 6 -4 10 -1 10 3 0 8 -4 11 -10z m1100 0 c3 -5 4 -10 1 -10 -3 0 -8 5 -11 10 -3 6 -4 10 -1 10 3 0 8 -4 11 -10z m335 5 c0 -2 -10 -9 -22 -15 -22 -11 -22 -10 -4 4 21 17 26 19 26 11z m-1130 -19 c0 -3 -5 -8 -12 -12 -7 -4 -8 -3 -4 4 7 12 16 16 16 8z m845 -16 c3 -5 4 -10 1 -10 -3 0 -8 5 -11 10 -3 6 -4 10 -1 10 3 0 8 -4 11 -10z m-1080 -10 c3 -5 4 -10 1 -10 -3 0 -8 5 -11 10 -3 6 -4 10 -1 10 3 0 8 -4 11 -10z m1295 6 c0 -3 -5 -8 -12 -12 -7 -4 -8 -3 -4 4 7 12 16 16 16 8z m-1130 -20 c0 -3 -5 -8 -12 -12 -7 -4 -8 -3 -4 4 7 12 16 16 16 8z m-115 -16 c3 -5 4 -10 1 -10 -3 0 -8 5 -11 10 -3 6 -4 10 -1 10 3 0 8 -4 11 -10z m1100 0 c3 -5 4 -10 1 -10 -3 0 -8 5 -11 10 -3 6 -4 10 -1 10 3 0 8 -4 11 -10z m77 -8 c-18 -14 -20 -20 -10 -31 11 -11 9 -11 -10 -2 -18 10 -27 10 -40 -1 -15 -11 -15 -11 -5 3 7 9 10 19 6 23 -4 4 0 4 9 1 10 -4 27 0 40 9 30 22 39 20 10 -2z m-1118 -11 c-2 -2 2 -11 9 -20 10 -14 10 -14 -5 -3 -13 11 -21 11 -40 1 -20 -11 -21 -10 -11 3 7 8 11 17 9 19 -2 2 6 4 19 4 13 0 21 -2 19 -4z m-64 -36 c0 -2 -10 -9 -22 -15 -22 -11 -22 -10 -4 4 21 17 26 19 26 11z m150 -31 c0 -2 -9 0 -20 6 -11 6 -20 13 -20 16 0 2 9 0 20 -6 11 -6 20 -13 20 -16z m1075 16 c3 -5 4 -10 1 -10 -3 0 -8 5 -11 10 -3 6 -4 10 -1 10 3 0 8 -4 11 -10z m-165 -4 c0 -3 -5 -8 -12 -12 -7 -4 -8 -3 -4 4 7 12 16 16 16 8z m-1130 -20 c0 -3 -5 -8 -12 -12 -7 -4 -8 -3 -4 4 7 12 16 16 16 8z m265 -16 c3 -5 4 -10 1 -10 -3 0 -8 5 -11 10 -3 6 -4 10 -1 10 3 0 8 -4 11 -10z m815 6 c0 -3 -5 -8 -12 -12 -7 -4 -8 -3 -4 4 7 12 16 16 16 8z m285 -6 c3 -5 4 -10 1 -10 -3 0 -8 5 -11 10 -3 6 -4 10 -1 10 3 0 8 -4 11 -10z m-1030 -40 c3 -5 4 -10 1 -10 -3 0 -8 5 -11 10 -3 6 -4 10 -1 10 3 0 8 -4 11 -10z m675 6 c0 -3 -5 -8 -12 -12 -7 -4 -8 -3 -4 4 7 12 16 16 16 8z m-625 -36 c3 -5 4 -10 1 -10 -3 0 -8 5 -11 10 -3 6 -4 10 -1 10 3 0 8 -4 11 -10z m575 6 c0 -3 -5 -8 -12 -12 -7 -4 -8 -3 -4 4 7 12 16 16 16 8z m-505 -46 c3 -5 4 -10 1 -10 -3 0 -8 5 -11 10 -3 6 -4 10 -1 10 3 0 8 -4 11 -10z m435 6 c0 -3 -5 -8 -12 -12 -7 -4 -8 -3 -4 4 7 12 16 16 16 8z m-385 -36 c3 -5 4 -10 1 -10 -3 0 -8 5 -11 10 -3 6 -4 10 -1 10 3 0 8 -4 11 -10z m335 6 c0 -3 -5 -8 -12 -12 -7 -4 -8 -3 -4 4 7 12 16 16 16 8z m-265 -46 c3 -5 4 -10 1 -10 -3 0 -8 5 -11 10 -3 6 -4 10 -1 10 3 0 8 -4 11 -10z m195 6 c0 -3 -5 -8 -12 -12 -7 -4 -8 -3 -4 4 7 12 16 16 16 8z m-50 -30 c0 -3 -5 -8 -12 -12 -7 -4 -8 -3 -4 4 7 12 16 16 16 8z"/>
 <path d="M2435 1891 c-3 -6 3 -15 14 -21 12 -6 22 -6 26 -1 3 6 -3 15 -14 21 -12 6 -22 6 -26 1z"/>
 <path d="M2485 1861 c-3 -6 3 -15 14 -21 12 -6 22 -6 26 -1 3 6 -3 15 -14 21 -12 6 -22 6 -26 1z"/>
 <path d="M2555 1821 c-3 -6 3 -15 14 -21 12 -6 22 -6 26 -1 3 6 -3 15 -14 21 -12 6 -22 6 -26 1z"/>
 <path d="M2626 1781 c-4 -5 -2 -12 3 -15 5 -4 12 -2 15 3 4 5 2 12 -3 15 -5 4 -12 2 -15 -3z"/>
 <path d="M2675 1751 c-3 -6 3 -15 14 -21 12 -6 22 -6 26 -1 3 6 -3 15 -14 21 -12 6 -22 6 -26 1z"/>
 <path d="M2745 1711 c-3 -6 3 -15 14 -21 12 -6 22 -6 26 -1 3 6 -3 15 -14 21 -12 6 -22 6 -26 1z"/>
 <path d="M2795 1681 c-3 -6 3 -15 14 -21 12 -6 22 -6 26 -1 3 6 -3 15 -14 21 -12 6 -22 6 -26 1z"/>
 <path d="M2865 1641 c-3 -6 3 -15 14 -21 12 -6 22 -6 26 -1 3 6 -3 15 -14 21 -12 6 -22 6 -26 1z"/>
 <path d="M2936 1601 c-4 -5 -2 -12 3 -15 5 -4 12 -2 15 3 4 5 2 12 -3 15 -5 4 -12 2 -15 -3z"/>
 <path d="M2985 1571 c-3 -6 3 -15 14 -21 12 -6 22 -6 26 -1 3 6 -3 15 -14 21 -12 6 -22 6 -26 1z"/>
 <path d="M3056 1531 c-4 -5 -2 -12 3 -15 5 -4 12 -2 15 3 4 5 2 12 -3 15 -5 4 -12 2 -15 -3z"/>
 <path d="M3105 1501 c-3 -6 3 -15 14 -21 12 -6 22 -6 26 -1 3 6 -3 15 -14 21 -12 6 -22 6 -26 1z"/>
 <path d="M2338 1379 c-13 -7 -16 -20 -9 -47 3 -11 39 21 37 33 -3 21 -9 25 -28 14z"/>
 <path d="M2440 1351 c-8 -16 -7 -22 9 -31 21 -11 40 3 21 15 -6 4 -8 10 -5 15 3 5 1 11 -4 15 -6 3 -15 -3 -21 -14z"/>
 <path d="M2268 1339 c-13 -7 -16 -20 -9 -47 3 -11 39 21 37 33 -3 21 -9 25 -28 14z"/>
 <path d="M2495 1331 c-3 -5 -1 -12 5 -16 6 -4 8 -10 5 -15 -3 -5 3 -14 14 -20 21 -10 40 3 21 15 -6 4 -8 10 -5 15 3 5 -3 14 -14 20 -12 6 -22 6 -26 1z"/>
 <path d="M2198 1299 c-13 -7 -16 -20 -9 -47 3 -11 39 21 37 33 -3 21 -9 25 -28 14z"/>
 <path d="M2565 1291 c-3 -5 -1 -12 5 -16 6 -4 8 -10 5 -15 -3 -5 -1 -11 4 -15 6 -3 15 3 21 14 8 16 7 22 -9 31 -12 6 -22 6 -26 1z"/>
 <path d="M2139 1268 c-11 -42 -1 -54 26 -34 18 13 18 14 -3 25 -12 6 -22 10 -23 9z"/>
 <path d="M2615 1261 c-3 -5 -1 -12 5 -16 6 -4 8 -10 5 -15 -3 -5 3 -14 14 -20 21 -10 40 3 21 15 -6 4 -8 10 -5 15 3 5 -3 14 -14 20 -12 6 -22 6 -26 1z"/>
 <path d="M2078 1229 c-13 -7 -16 -20 -9 -47 3 -11 39 21 37 33 -3 21 -9 25 -28 14z"/>
 <path d="M2685 1221 c-3 -5 -1 -12 5 -16 6 -4 8 -10 5 -15 -3 -5 -1 -11 4 -15 6 -3 15 3 21 14 8 16 7 22 -9 31 -12 6 -22 6 -26 1z"/>
 <path d="M2008 1189 c-13 -7 -16 -20 -9 -47 3 -11 39 21 37 33 -3 21 -9 25 -28 14z"/>
 <path d="M2750 1171 c-8 -16 -7 -22 9 -31 21 -11 40 3 21 15 -6 4 -8 10 -5 15 3 5 1 11 -4 15 -6 3 -15 -3 -21 -14z"/>
 <path d="M1938 1149 c-13 -7 -16 -20 -9 -47 3 -11 39 21 37 33 -3 21 -9 25 -28 14z"/>
 <path d="M2805 1151 c-3 -5 -1 -12 5 -16 6 -4 8 -10 5 -15 -3 -5 3 -14 14 -20 21 -10 40 3 21 15 -6 4 -8 10 -5 15 3 5 -3 14 -14 20 -12 6 -22 6 -26 1z"/>
 <path d="M1879 1118 c-11 -42 -1 -54 26 -34 18 13 18 14 -3 25 -12 6 -22 10 -23 9z"/>
 <path d="M2870 1101 c-8 -16 -7 -22 9 -31 21 -11 40 3 21 15 -6 4 -8 10 -5 15 3 5 1 11 -4 15 -6 3 -15 -3 -21 -14z"/>
 <path d="M1818 1079 c-13 -7 -16 -20 -9 -47 3 -11 39 21 37 33 -3 21 -9 25 -28 14z"/>
 <path d="M2925 1081 c-3 -5 -1 -12 5 -16 6 -4 8 -10 5 -15 -3 -5 3 -14 14 -20 21 -10 40 3 21 15 -6 4 -8 10 -5 15 3 5 -3 14 -14 20 -12 6 -22 6 -26 1z"/>
 <path d="M1748 1039 c-13 -7 -16 -20 -9 -47 3 -11 39 21 37 33 -3 21 -9 25 -28 14z"/>
 <path d="M2995 1041 c-3 -5 -1 -12 5 -16 6 -4 8 -10 5 -15 -3 -5 -1 -11 4 -15 6 -3 15 3 21 14 8 16 7 22 -9 31 -12 6 -22 6 -26 1z"/>
 <path d="M3045 1011 c-3 -5 -1 -12 5 -16 6 -4 8 -10 5 -15 -3 -5 3 -14 14 -20 21 -10 40 3 21 15 -6 4 -8 10 -5 15 3 5 -3 14 -14 20 -12 6 -22 6 -26 1z"/>
 <path d="M1675 996 c-18 -13 -18 -14 3 -25 12 -6 22 -10 23 -9 11 42 1 54 -26 34z"/>
 <path d="M3115 971 c-3 -5 -1 -12 5 -16 6 -4 8 -10 5 -15 -3 -4 2 -13 10 -20 8 -7 15 -11 16 -9 7 32 3 52 -12 60 -11 5 -20 5 -24 0z"/>
 <path d="M3075 896 c-11 -8 -14 -16 -8 -19 6 -4 18 0 28 7 11 8 14 16 8 19 -6 4 -18 0 -28 -7z"/>
 <path d="M3016 861 c-4 -5 -2 -12 3 -15 5 -4 12 -2 15 3 4 5 2 12 -3 15 -5 4 -12 2 -15 -3z"/>
 <path d="M2955 826 c-11 -8 -14 -16 -8 -19 6 -4 18 0 28 7 11 8 14 16 8 19 -6 4 -18 0 -28 -7z"/>
 <path d="M2885 786 c-11 -8 -14 -16 -8 -19 6 -4 18 0 28 7 11 8 14 16 8 19 -6 4 -18 0 -28 -7z"/>
 <path d="M2815 746 c-11 -8 -14 -16 -8 -19 6 -4 18 0 28 7 11 8 14 16 8 19 -6 4 -18 0 -28 -7z"/>
 <path d="M2765 716 c-11 -8 -14 -16 -8 -19 6 -4 18 0 28 7 11 8 14 16 8 19 -6 4 -18 0 -28 -7z"/>
 <path d="M2695 676 c-11 -8 -14 -16 -8 -19 6 -4 18 0 28 7 11 8 14 16 8 19 -6 4 -18 0 -28 -7z"/>
 <path d="M2625 636 c-11 -8 -14 -16 -8 -19 6 -4 18 0 28 7 11 8 14 16 8 19 -6 4 -18 0 -28 -7z"/>
 <path d="M2555 596 c-11 -8 -14 -16 -8 -19 6 -4 18 0 28 7 11 8 14 16 8 19 -6 4 -18 0 -28 -7z"/>
 <path d="M2505 566 c-11 -8 -14 -16 -8 -19 6 -4 18 0 28 7 11 8 14 16 8 19 -6 4 -18 0 -28 -7z"/>
 <path d="M2435 526 c-11 -8 -14 -16 -8 -19 6 -4 18 0 28 7 11 8 14 16 8 19 -6 4 -18 0 -28 -7z"/>
 <path d="M2365 486 c-11 -8 -14 -16 -8 -19 6 -4 18 0 28 7 11 8 14 16 8 19 -6 4 -18 0 -28 -7z"/>
 <path d="M2306 451 c-4 -5 -2 -12 3 -15 5 -4 12 -2 15 3 4 5 2 12 -3 15 -5 4 -12 2 -15 -3z"/>
 <path d="M876 441 c-4 -5 -2 -12 3 -15 5 -4 12 -2 15 3 4 5 2 12 -3 15 -5 4 -12 2 -15 -3z"/>
 <path d="M2245 416 c-11 -8 -14 -16 -8 -19 6 -4 18 0 28 7 11 8 14 16 8 19 -6 4 -18 0 -28 -7z"/>
 <path d="M925 411 c-3 -6 3 -15 14 -21 12 -6 22 -6 26 -1 3 6 -3 15 -14 21 -12 6 -22 6 -26 1z"/>
 <path d="M2175 376 c-11 -8 -14 -16 -8 -19 6 -4 18 0 28 7 11 8 14 16 8 19 -6 4 -18 0 -28 -7z"/>
 <path d="M995 371 c-3 -6 3 -15 14 -21 12 -6 22 -6 26 -1 3 6 -3 15 -14 21 -12 6 -22 6 -26 1z"/>
 <path d="M1045 341 c-3 -6 3 -15 14 -21 12 -6 22 -6 26 -1 3 6 -3 15 -14 21 -12 6 -22 6 -26 1z"/>
 <path d="M2105 336 c-11 -8 -14 -16 -8 -19 6 -4 18 0 28 7 11 8 14 16 8 19 -6 4 -18 0 -28 -7z"/>
 <path d="M2055 306 c-11 -8 -14 -16 -8 -19 6 -4 18 0 28 7 11 8 14 16 8 19 -6 4 -18 0 -28 -7z"/>
 <path d="M1115 301 c-3 -6 3 -15 14 -21 12 -6 22 -6 26 -1 3 6 -3 15 -14 21 -12 6 -22 6 -26 1z"/>
 <path d="M1985 266 c-11 -8 -14 -16 -8 -19 6 -4 18 0 28 7 11 8 14 16 8 19 -6 4 -18 0 -28 -7z"/>
 <path d="M1186 261 c-4 -5 -2 -12 3 -15 5 -4 12 -2 15 3 4 5 2 12 -3 15 -5 4 -12 2 -15 -3z"/>
 <path d="M1235 231 c-3 -6 3 -15 14 -21 12 -6 22 -6 26 -1 3 6 -3 15 -14 21 -12 6 -22 6 -26 1z"/>
 <path d="M1915 226 c-11 -8 -14 -16 -8 -19 6 -4 18 0 28 7 11 8 14 16 8 19 -6 4 -18 0 -28 -7z"/>
 <path d="M1306 191 c-4 -5 -2 -12 3 -15 5 -4 12 -2 15 3 4 5 2 12 -3 15 -5 4 -12 2 -15 -3z"/>
 <path d="M1845 186 c-11 -8 -14 -16 -8 -19 6 -4 18 0 28 7 11 8 14 16 8 19 -6 4 -18 0 -28 -7z"/>
 <path d="M1355 161 c-3 -6 3 -15 14 -21 12 -6 22 -6 26 -1 3 6 -3 15 -14 21 -12 6 -22 6 -26 1z"/>
 <path d="M1795 156 c-11 -8 -14 -16 -8 -19 6 -4 18 0 28 7 11 8 14 16 8 19 -6 4 -18 0 -28 -7z"/>
 <path d="M1425 121 c-3 -6 3 -15 14 -21 12 -6 22 -6 26 -1 3 6 -3 15 -14 21 -12 6 -22 6 -26 1z"/>
 <path d="M1725 116 c-11 -8 -14 -16 -8 -19 6 -4 18 0 28 7 11 8 14 16 8 19 -6 4 -18 0 -28 -7z"/>
 <path d="M1475 91 c-3 -6 3 -15 14 -21 12 -6 22 -6 26 -1 3 6 -3 15 -14 21 -12 6 -22 6 -26 1z"/>
 <path d="M1655 76 c-11 -8 -14 -16 -8 -19 6 -4 18 0 28 7 11 8 14 16 8 19 -6 4 -18 0 -28 -7z"/>
 <path d="M1545 51 c-6 -11 21 -27 45 -26 8 0 16 5 17 10 0 6 -3 9 -8 7 -6 -1 -18 2 -29 8 -12 6 -21 6 -25 1z"/>
 </g>
<g id="layer105" fill="#fafafa" stroke="none">
 <path d="M1520 2912 c-62 -32 -1485 -854 -1498 -866 -10 -10 -13 -133 -13 -575 l-1 -562 387 -227 c212 -125 398 -233 412 -240 13 -8 182 -106 375 -218 193 -112 364 -209 382 -215 41 -15 -9 -42 879 471 l737 425 0 566 0 567 -722 419 c-398 231 -745 432 -771 447 -56 31 -115 34 -167 8z m60 -266 l0 -254 -764 -441 c-420 -242 -767 -441 -770 -441 -3 0 -6 114 -6 253 l1 252 767 442 c422 243 768 443 770 443 1 0 2 -114 2 -254z m860 -225 l705 -410 3 -250 c1 -138 0 -251 -3 -251 -2 0 -175 98 -382 219 -208 120 -552 319 -765 442 l-388 224 0 253 0 254 63 -35 c34 -20 379 -220 767 -446z m-862 -188 l-3 -117 -765 -441 -765 -442 -3 115 c-2 86 1 118 10 123 225 132 1515 878 1521 878 4 1 6 -52 5 -116z m419 -100 l373 -217 0 -118 0 -117 -112 65 c-62 37 -233 136 -380 222 l-268 155 0 113 c0 63 3 114 7 114 4 0 175 -98 380 -217z m-24 -259 c205 -119 373 -217 374 -218 2 -1 -59 -37 -539 -313 l-217 -125 -376 218 c-234 136 -371 220 -363 225 7 4 177 102 378 218 201 116 366 211 368 211 2 0 171 -97 375 -216z m810 -194 l367 -213 0 -254 0 -253 -48 27 c-26 16 -195 114 -375 218 l-327 190 0 253 c0 139 3 251 8 249 4 -2 172 -100 375 -217z m-413 -168 l0 -119 -362 -209 c-199 -115 -372 -215 -385 -222 l-23 -13 0 118 0 118 383 222 c210 122 383 222 385 222 1 1 2 -52 2 -117z m-1580 -5 l0 -113 -263 -152 c-145 -84 -267 -152 -271 -152 -10 0 -186 104 -186 110 0 5 708 418 718 420 1 0 2 -51 2 -113z m401 -99 c192 -112 349 -205 349 -208 0 -6 -176 -110 -185 -110 -4 0 -123 68 -266 151 l-259 150 0 110 c0 60 3 109 6 109 4 0 164 -91 355 -202z m-127 -197 c136 -79 243 -147 239 -151 -11 -10 -491 -290 -498 -290 -6 0 -487 279 -498 289 -7 7 492 302 504 298 3 -1 116 -67 253 -146z m1688 -62 c200 -116 366 -214 370 -218 7 -6 -1497 -882 -1527 -889 -12 -3 -728 406 -747 426 -5 6 1517 891 1534 892 5 0 171 -95 370 -211z m-2617 -37 l84 -48 -89 -52 -90 -51 0 100 c0 54 2 99 5 99 3 0 43 -22 90 -48z m1435 -51 l0 -99 -89 51 -88 51 81 48 c45 26 84 48 89 48 4 0 7 -45 7 -99z m-1046 -175 l256 -149 0 -115 0 -114 -22 14 c-13 8 -173 101 -355 208 -183 106 -333 195 -333 199 1 8 183 112 191 108 3 -1 121 -69 263 -151z m928 99 c49 -27 88 -53 88 -56 0 -4 -145 -91 -322 -195 -178 -103 -338 -196 -355 -207 l-33 -19 0 114 0 115 258 151 c141 83 262 150 267 149 6 -1 49 -24 97 -52z"/>
 </g>

</svg>