<!DOCTYPE svg PUBLIC "-//W3C//DTD SVG 20010904//EN" "http://www.w3.org/TR/2001/REC-SVG-20010904/DTD/svg10.dtd">
<svg version="1.0" xmlns="http://www.w3.org/2000/svg" width="420px" height="283px" viewBox="0 0 4200 2830" preserveAspectRatio="xMidYMid meet">
<g id="layer101" fill="#21315f" stroke="none">
 <path d="M2143 2763 c-23 -9 -14 -29 59 -129 39 -54 93 -135 120 -179 l48 -80 -47 -7 c-103 -16 -406 -60 -548 -79 -179 -24 -411 -22 -510 5 -63 17 -177 71 -385 182 -228 122 -363 157 -592 157 -157 0 -177 -7 -154 -52 8 -15 45 -49 82 -76 l68 -50 -80 -6 c-77 -5 -144 -28 -144 -50 0 -15 50 -59 94 -81 51 -26 148 -45 271 -53 153 -10 253 -24 310 -46 59 -22 122 -87 221 -229 185 -265 433 -409 930 -539 290 -76 408 -116 559 -191 144 -72 233 -137 312 -228 81 -92 114 -141 249 -364 258 -430 346 -496 698 -528 151 -13 195 -23 279 -61 74 -34 111 -33 143 3 25 27 25 133 0 207 -21 60 -113 166 -200 228 -28 20 -79 61 -113 91 -95 82 -145 197 -188 437 -34 194 -127 548 -182 694 -74 198 -46 441 63 546 l43 42 -27 26 c-40 39 -103 57 -196 57 -127 0 -251 -44 -319 -115 l-33 -34 -98 114 c-139 164 -227 234 -379 305 -141 66 -303 104 -354 83z m202 -95 c115 -38 231 -106 316 -186 44 -42 100 -101 123 -131 52 -67 145 -233 198 -351 38 -86 48 -87 27 -4 -18 69 -1 75 57 23 138 -127 243 -311 325 -572 143 -457 215 -653 270 -739 39 -61 102 -118 224 -205 113 -79 169 -136 195 -197 34 -76 31 -87 -23 -101 -50 -13 -87 -39 -87 -62 0 -16 1 -16 -46 1 -22 7 -101 16 -178 20 -76 4 -164 14 -195 22 -98 25 -193 77 -264 144 -88 82 -133 144 -262 357 -251 415 -380 533 -730 668 -130 50 -163 60 -418 124 -317 80 -559 187 -706 311 -96 80 -140 131 -223 252 -91 135 -151 193 -217 212 -30 9 -126 20 -215 26 -267 18 -354 37 -400 88 -18 21 -18 22 8 32 15 5 60 10 101 10 40 0 80 3 89 6 27 10 -8 60 -68 99 -110 70 -107 85 14 85 230 -1 371 -52 658 -238 174 -114 258 -155 382 -186 208 -53 467 -58 810 -16 229 28 241 27 281 -12 18 -18 51 -74 74 -123 23 -50 50 -96 59 -104 16 -13 17 -10 11 40 -27 233 -90 394 -236 614 -41 61 -76 114 -78 119 -4 10 43 0 124 -26z"/>
 <path d="M3866 423 c13 -62 28 -101 56 -152 16 -29 27 -55 24 -58 -9 -9 -104 138 -117 182 -7 25 -17 45 -22 45 -27 0 53 -158 116 -227 17 -19 21 -20 33 -8 12 12 10 21 -15 62 -31 51 -61 131 -61 163 0 11 -5 20 -10 20 -6 0 -8 -12 -4 -27z"/>
 <path d="M3924 390 c2 -46 11 -81 30 -119 36 -70 43 -60 11 14 -15 32 -30 83 -35 114 l-9 56 3 -65z"/>
 <path d="M3750 430 c0 -33 103 -191 159 -244 49 -47 36 -22 -29 56 -33 40 -75 100 -92 135 -30 62 -38 73 -38 53z"/>
 <path d="M3510 406 c-38 -13 -41 -31 -13 -74 31 -49 165 -84 180 -47 9 24 -19 86 -47 105 -34 24 -78 30 -120 16z"/>
 </g>
<g id="layer102" fill="#be755a" stroke="none">
 <path d="M2221 2694 c2 -5 37 -58 78 -119 146 -220 209 -381 236 -614 6 -50 5 -53 -11 -40 -9 8 -36 54 -59 104 -23 49 -56 105 -74 123 -40 39 -52 40 -281 12 -343 -42 -602 -37 -810 16 -124 31 -208 72 -382 186 -287 186 -428 237 -658 238 -121 0 -124 -15 -14 -85 60 -39 95 -89 68 -99 -9 -3 -49 -6 -89 -6 -41 0 -86 -5 -101 -10 -26 -10 -26 -11 -8 -32 46 -51 133 -70 400 -88 89 -6 185 -17 215 -26 66 -19 126 -77 217 -212 83 -121 127 -172 223 -252 147 -124 389 -231 706 -311 255 -64 288 -74 418 -124 350 -135 479 -253 730 -668 129 -213 174 -275 262 -357 71 -67 166 -119 264 -144 31 -8 119 -18 195 -22 77 -4 156 -13 178 -20 47 -17 46 -17 46 -1 0 23 37 49 87 62 54 14 57 25 23 101 -26 61 -82 118 -195 197 -122 87 -185 144 -224 205 -55 86 -127 282 -270 739 -82 261 -187 445 -325 572 -58 52 -75 46 -57 -23 21 -83 11 -82 -27 4 -53 118 -146 284 -198 351 -77 100 -195 202 -291 252 -111 57 -282 114 -272 91z m1659 -2264 c0 -32 30 -112 61 -163 25 -41 27 -50 15 -62 -12 -12 -16 -11 -33 8 -63 69 -143 227 -116 227 5 0 15 -20 22 -45 13 -44 108 -191 117 -182 3 3 -8 29 -24 58 -41 74 -71 179 -52 179 5 0 10 -9 10 -20z m85 -145 c32 -74 25 -84 -11 -14 -19 38 -28 73 -30 119 l-3 65 9 -56 c5 -31 20 -82 35 -114z m-177 92 c17 -35 59 -95 92 -135 65 -78 78 -103 29 -56 -69 65 -184 254 -155 254 2 0 17 -28 34 -63z m-158 13 c28 -19 56 -81 47 -105 -15 -37 -149 -2 -180 47 -28 43 -25 61 13 74 42 14 86 8 120 -16z"/>
 </g>
<g id="layer103" fill="#a5abbe" stroke="none">
 <path d="M2178 2773 c12 -2 30 -2 40 0 9 3 -1 5 -23 4 -22 0 -30 -2 -17 -4z"/>
 <path d="M2123 2754 c-3 -8 0 -21 6 -27 9 -9 11 -8 5 7 -4 11 -2 21 7 27 10 6 11 9 1 9 -7 0 -15 -7 -19 -16z"/>
 <path d="M2491 2686 c10 -9 69 -36 69 -32 0 6 -55 36 -66 36 -4 0 -5 -2 -3 -4z"/>
 <path d="M188 2633 c12 -2 32 -2 45 0 12 2 2 4 -23 4 -25 0 -35 -2 -22 -4z"/>
 <path d="M368 2633 c12 -2 30 -2 40 0 9 3 -1 5 -23 4 -22 0 -30 -2 -17 -4z"/>
 <path d="M2750 2517 c0 -2 15 -16 33 -33 l32 -29 -29 33 c-28 30 -36 37 -36 29z"/>
 <path d="M178 2453 c12 -2 32 -2 45 0 12 2 2 4 -23 4 -25 0 -35 -2 -22 -4z"/>
 <path d="M2820 2437 c0 -2 15 -16 33 -33 l32 -29 -29 33 c-28 30 -36 37 -36 29z"/>
 <path d="M3293 2413 c20 -2 54 -2 75 0 20 2 3 4 -38 4 -41 0 -58 -2 -37 -4z"/>
 <path d="M3088 2364 c-39 -21 -35 -28 5 -8 37 19 44 24 31 24 -5 -1 -21 -8 -36 -16z"/>
 <path d="M3523 2352 c22 -23 25 -31 14 -42 -10 -12 -9 -12 6 0 17 12 16 15 -9 42 -15 15 -30 28 -33 28 -2 0 7 -13 22 -28z"/>
 <path d="M2954 2283 c15 -18 22 -20 33 -12 7 6 13 14 13 17 0 3 -5 1 -12 -6 -9 -9 -16 -8 -32 6 -21 17 -21 17 -2 -5z"/>
 <path d="M1383 2273 c9 -2 25 -2 35 0 9 3 1 5 -18 5 -19 0 -27 -2 -17 -5z"/>
 <path d="M1608 2273 c12 -2 30 -2 40 0 9 3 -1 5 -23 4 -22 0 -30 -2 -17 -4z"/>
 <path d="M368 2263 c12 -2 30 -2 40 0 9 3 -1 5 -23 4 -22 0 -30 -2 -17 -4z"/>
 <path d="M508 2253 c12 -2 30 -2 40 0 9 3 -1 5 -23 4 -22 0 -30 -2 -17 -4z"/>
 <path d="M3455 2219 c-9 -17 -15 -33 -13 -35 3 -2 12 12 21 31 21 43 13 47 -8 4z"/>
 <path d="M755 2203 c17 -8 41 -25 55 -37 l25 -21 -20 24 c-19 22 -66 51 -82 51 -4 -1 6 -8 22 -17z"/>
 <path d="M875 2088 c22 -27 41 -48 43 -48 7 0 -36 56 -59 75 -12 11 -5 -1 16 -27z"/>
 <path d="M3403 1950 c0 -47 2 -66 4 -42 2 23 2 61 0 85 -2 23 -4 4 -4 -43z"/>
 <path d="M1070 1835 c19 -19 36 -35 39 -35 3 0 -10 16 -29 35 -19 19 -36 35 -39 35 -3 0 10 -16 29 -35z"/>
 <path d="M1340 1645 c0 -7 61 -37 66 -33 2 3 -12 12 -31 21 -19 9 -35 15 -35 12z"/>
 <path d="M2710 1078 c41 -45 50 -53 50 -45 0 2 -21 23 -47 47 l-48 45 45 -47z"/>
 <path d="M2800 973 c18 -24 35 -43 37 -43 7 0 -35 56 -54 71 -9 8 -2 -5 17 -28z"/>
 <path d="M3747 675 c12 -16 34 -41 49 -55 19 -17 15 -10 -10 20 -53 61 -63 71 -39 35z"/>
 <path d="M3844 582 c8 -13 66 -56 66 -49 0 3 -17 17 -37 33 -20 15 -33 23 -29 16z"/>
 <path d="M4025 430 c33 -33 62 -60 64 -60 3 0 -21 27 -54 60 -33 33 -62 60 -64 60 -3 0 21 -27 54 -60z"/>
 <path d="M3170 400 c17 -22 34 -40 37 -40 2 0 -10 18 -27 40 -17 22 -34 40 -37 40 -2 0 10 -18 27 -40z"/>
 <path d="M3220 337 c0 -2 15 -16 33 -33 l32 -29 -29 33 c-28 30 -36 37 -36 29z"/>
 <path d="M3723 133 c9 -2 25 -2 35 0 9 3 1 5 -18 5 -19 0 -27 -2 -17 -5z"/>
 </g>
<g id="layer104" fill="#fdfdfd" stroke="none">
 <path d="M2130 2787 c-45 -23 -37 -49 58 -184 49 -71 101 -146 114 -168 l25 -39 -221 -33 c-416 -61 -461 -66 -601 -65 -178 0 -257 20 -420 104 -456 235 -492 247 -745 255 -85 2 -173 1 -195 -4 -37 -8 -40 -11 -43 -47 -3 -34 1 -43 42 -81 l46 -43 -37 -7 c-38 -7 -133 -51 -133 -61 0 -19 45 -75 77 -96 79 -51 133 -63 358 -82 170 -15 252 -30 302 -59 29 -16 108 -108 176 -204 78 -111 136 -173 220 -236 182 -136 377 -221 717 -311 296 -79 421 -121 560 -189 240 -119 343 -229 573 -618 180 -305 290 -415 467 -469 36 -11 133 -27 215 -35 163 -16 227 -30 292 -63 89 -46 175 -19 193 61 12 54 -4 160 -34 221 -29 59 -125 155 -257 257 -139 107 -168 169 -233 494 -42 211 -135 558 -178 665 -55 137 -48 331 17 459 23 46 69 91 94 91 22 0 10 23 -32 65 -59 60 -130 80 -252 72 -126 -8 -227 -45 -296 -110 l-25 -24 -75 89 c-174 210 -337 317 -584 384 -101 27 -148 30 -185 11z m178 -32 c238 -64 392 -165 568 -372 l96 -113 50 45 c132 119 397 141 505 41 l35 -32 -36 -28 c-78 -59 -120 -198 -113 -371 4 -93 9 -122 35 -185 43 -105 134 -447 181 -680 69 -337 89 -376 274 -518 191 -147 247 -232 247 -373 0 -61 -3 -73 -25 -94 -31 -32 -81 -33 -143 -1 -61 31 -166 52 -320 66 -139 13 -202 29 -285 73 -115 61 -211 173 -355 417 -232 393 -345 514 -597 635 -127 61 -264 107 -545 181 -483 128 -721 262 -905 510 -127 170 -173 223 -218 246 -53 26 -150 45 -277 53 -130 8 -264 29 -313 50 -38 16 -117 80 -117 96 0 5 19 19 42 31 32 16 61 22 111 23 37 0 67 1 67 2 0 1 -20 16 -44 32 -66 45 -106 90 -106 116 0 21 6 24 57 31 100 12 298 -2 407 -30 100 -26 248 -93 460 -210 256 -141 411 -152 941 -72 127 20 263 38 303 42 39 4 72 9 72 12 0 11 -81 137 -157 244 -46 64 -83 121 -83 127 0 14 36 30 70 30 14 1 67 -10 118 -24z"/>
 </g>

</svg>