<svg viewBox="-682.5 456.9 164.5 138" xmlns="http://www.w3.org/2000/svg"><path d="m-534.9 481.4c-6.6 0-12.5 3.3-16.1 8.3l-24.3 34.1c-.9 1.3-2.4 2.1-4 2.1-2.7 0-4.9-2.2-4.9-4.9 0-1 .3-2 .8-2.7l20.5-30.7c2.1-3.1 3.3-6.9 3.3-11 0-10.9-8.8-19.7-19.7-19.7h-103.2v19.7h88.4c0 5.4-4.4 9.9-9.9 9.9h-78.5c0 7 1.5 13.7 4.1 19.7h64.5c0 5.4-4.4 9.9-9.9 9.9h-48.9c9 12 23.3 19.7 39.5 19.7h24.3c2.7 0 4.9 2.2 4.9 4.9s-2.2 4.9-4.9 4.9h-24.3l-33 49.3h59.7c27.3 0 50.5-17.8 58.6-42.4l11.1-33.7c3.6-10.9 10.2-20.5 18.8-27.8-3.4-5.7-9.7-9.6-16.9-9.6zm0 13.6c-2 0-3.7-1.7-3.7-3.7s1.7-3.7 3.7-3.7 3.7 1.7 3.7 3.7-1.6 3.7-3.7 3.7z" fill="#0089FF"/></svg>