<?xml version="1.0" encoding="iso-8859-1"?>
<!-- Generator: Adobe Illustrator 16.0.0, SVG Export Plug-In . SVG Version: 6.00 Build 0)  -->
<!DOCTYPE svg PUBLIC "-//W3C//DTD SVG 1.1//EN" "http://www.w3.org/Graphics/SVG/1.1/DTD/svg11.dtd">
<svg version="1.1" id="Capa_1" xmlns="http://www.w3.org/2000/svg" xmlns:xlink="http://www.w3.org/1999/xlink" x="0px" y="0px"
	 width="412.998px" height="412.998px" viewBox="0 0 412.998 412.998" style="enable-background:new 0 0 412.998 412.998;"
	 xml:space="preserve">
<g>
	<g>
		<g>
			<path d="M392.998,28.339H20c-11.046,0-20,8.954-20,20v234c0,11.046,8.954,20,20,20h139.499v45.32h-54.283
				c-10.201,0-18.5,8.299-18.5,18.5s8.299,18.5,18.5,18.5h202.566c10.201,0,18.5-8.299,18.5-18.5s-8.299-18.5-18.5-18.5h-54.283
				v-45.32h139.499c11.046,0,20-8.954,20-20v-234C412.998,37.293,404.044,28.339,392.998,28.339z M382.998,272.339H30v-214h352.998
				V272.339z"/>
			<path d="M134.589,235.304c7.563,0,13.701-6.136,13.701-13.699v-65.156c0-7.564-6.139-13.697-13.701-13.697
				c-7.564,0-13.695,6.133-13.695,13.697v65.155C120.894,229.168,127.024,235.304,134.589,235.304z"/>
			<path d="M182.53,235.304c7.564,0,13.695-6.136,13.695-13.699V108.506c0-7.564-6.131-13.695-13.695-13.695
				c-7.566,0-13.699,6.131-13.699,13.695v113.099C168.831,229.168,174.964,235.304,182.53,235.304z"/>
			<path d="M230.468,235.304c7.566,0,13.699-6.136,13.699-13.699v-84.333c0-7.564-6.133-13.695-13.699-13.695
				c-7.562,0-13.693,6.131-13.693,13.695v84.333C216.771,229.168,222.902,235.304,230.468,235.304z"/>
			<path d="M278.411,235.304c7.562,0,13.692-6.136,13.692-13.699v-98.714c0-7.564-6.132-13.697-13.692-13.697
				c-7.564,0-13.701,6.133-13.701,13.697v98.714C264.71,229.168,270.847,235.304,278.411,235.304z"/>
		</g>
	</g>
</g>
<g>
</g>
<g>
</g>
<g>
</g>
<g>
</g>
<g>
</g>
<g>
</g>
<g>
</g>
<g>
</g>
<g>
</g>
<g>
</g>
<g>
</g>
<g>
</g>
<g>
</g>
<g>
</g>
<g>
</g>
</svg>
