<!DOCTYPE svg PUBLIC "-//W3C//DTD SVG 20010904//EN" "http://www.w3.org/TR/2001/REC-SVG-20010904/DTD/svg10.dtd">
<svg version="1.0" xmlns="http://www.w3.org/2000/svg" width="1024px" height="1024px" viewBox="0 0 10240 10240" preserveAspectRatio="xMidYMid meet">
<g id="layer101" fill="#28384b" stroke="none">
 <path d="M4640 10224 c-494 -48 -966 -161 -1435 -345 -167 -66 -642 -307 -802 -407 -374 -236 -763 -559 -1054 -879 -381 -417 -656 -833 -892 -1350 -266 -582 -399 -1099 -447 -1740 -19 -242 -8 -790 19 -988 50 -370 102 -610 201 -940 161 -535 490 -1160 844 -1604 252 -317 441 -508 771 -781 410 -340 589 -458 1008 -666 468 -232 869 -362 1417 -459 426 -75 1045 -87 1505 -30 648 81 1355 317 1879 627 644 381 1072 752 1513 1313 397 505 702 1106 888 1750 75 260 115 461 157 790 21 164 23 218 23 615 -1 415 -2 444 -28 645 -31 233 -63 402 -108 575 -41 158 -163 542 -203 642 -328 812 -827 1508 -1467 2045 -510 427 -1075 744 -1709 957 -324 109 -825 208 -1189 236 -184 14 -726 10 -891 -6z"/>
 </g>
<g id="layer102" fill="#ffffff" stroke="none">
 <path d="M5025 8524 c-163 -18 -404 -96 -493 -161 -18 -13 -58 -36 -90 -51 -48 -23 -71 -27 -142 -27 -81 0 -88 2 -146 38 -82 51 -128 63 -160 42 -14 -9 -34 -36 -46 -60 l-22 -44 47 -69 c66 -100 114 -200 222 -464 216 -527 340 -725 502 -804 l58 -29 365 -7 c201 -4 379 -5 395 -2 53 11 126 57 174 111 115 129 322 517 426 798 74 201 137 340 185 410 38 55 35 82 -15 132 -44 44 -69 43 -179 -14 -117 -60 -170 -63 -266 -16 -240 118 -398 179 -521 202 -67 12 -237 21 -294 15z"/>
 <path d="M6737 8429 c-73 -11 -134 -29 -229 -69 -89 -37 -68 4 -183 -350 -94 -292 -145 -424 -240 -615 -127 -259 -236 -414 -372 -530 -121 -104 -219 -146 -386 -170 -108 -15 -143 -31 -154 -73 -5 -15 -8 -245 -8 -512 l0 -485 33 -56 c29 -51 30 -58 16 -70 -25 -21 -129 -24 -159 -5 l-25 16 29 53 29 52 5 475 c3 262 2 493 -3 514 -14 63 -36 77 -135 87 -109 11 -166 28 -255 74 -177 94 -398 407 -590 840 -59 131 -166 395 -278 685 -21 53 -44 67 -176 105 -110 31 -258 35 -357 10 -229 -59 -369 -247 -369 -495 0 -58 -4 -73 -25 -98 -14 -17 -25 -37 -25 -45 0 -36 128 -563 185 -762 371 -1288 812 -1936 1423 -2091 53 -13 168 -31 257 -39 254 -24 304 -40 350 -112 24 -39 29 -40 43 -8 29 63 135 99 341 116 223 17 367 53 516 130 472 241 860 893 1165 1959 43 150 169 650 190 754 8 38 15 55 22 48 6 -6 4 -52 -6 -133 -44 -355 -73 -687 -87 -1011 -18 -410 9 -912 72 -1328 54 -361 60 -439 34 -460 -13 -11 -20 -9 -43 12 -15 13 -49 40 -77 60 -167 116 -329 169 -518 167 l-92 -1 91 -23 c120 -30 198 -69 261 -130 41 -40 54 -62 68 -110 9 -33 26 -68 37 -77 29 -26 105 -23 195 7 42 14 78 23 81 21 8 -9 -36 -109 -85 -192 -57 -97 -124 -164 -206 -203 -170 -84 -358 -33 -651 177 -240 172 -441 242 -696 242 -131 0 -225 -20 -315 -65 -158 -78 -260 -214 -295 -393 -7 -34 -16 -62 -19 -62 -4 0 -13 29 -20 65 -27 134 -109 264 -215 340 -284 203 -725 158 -1103 -113 -258 -184 -361 -228 -513 -220 -146 9 -243 76 -336 234 -44 76 -90 181 -82 189 2 3 38 -6 78 -20 77 -26 158 -32 190 -15 11 6 26 33 35 64 41 139 149 219 360 266 l80 17 -57 8 c-72 9 -223 -8 -314 -36 -91 -28 -223 -97 -304 -159 -36 -27 -69 -49 -74 -50 -15 0 1 213 29 380 33 204 61 462 76 689 15 238 6 901 -15 1151 -27 311 -75 700 -86 700 -13 0 -180 -209 -246 -307 -166 -246 -306 -612 -374 -970 -68 -365 -90 -938 -45 -1193 36 -202 -20 -443 -136 -580 -22 -26 -39 -53 -39 -62 0 -23 46 -58 128 -97 40 -19 72 -38 72 -42 0 -8 -43 -26 -244 -104 -82 -32 -157 -66 -168 -77 -26 -26 -19 -60 31 -170 64 -139 72 -216 30 -298 -18 -37 -82 -102 -136 -139 -22 -15 -33 -30 -33 -47 0 -25 30 -92 68 -154 27 -44 27 -73 1 -172 -24 -90 -77 -159 -134 -178 -63 -21 -122 31 -165 146 -22 61 -34 150 -55 431 -12 165 -19 206 -45 285 -80 239 -176 335 -244 245 -62 -81 -118 -260 -138 -439 -15 -137 2 -498 31 -636 42 -201 99 -324 163 -355 20 -9 82 -23 139 -31 138 -20 215 -43 447 -132 242 -93 333 -117 437 -118 94 0 166 21 222 66 56 45 112 68 169 68 106 0 189 -37 719 -320 520 -279 718 -382 756 -395 67 -24 165 -36 289 -36 132 0 229 16 367 62 89 29 112 32 256 37 91 2 199 -1 255 -7 189 -23 358 -53 452 -79 178 -49 392 -31 564 47 34 15 212 108 396 206 184 98 429 227 543 286 114 60 220 117 235 127 89 63 180 87 269 71 71 -13 101 -28 177 -87 59 -45 59 -46 133 -44 97 2 174 21 567 142 180 55 362 107 403 115 128 24 209 90 238 190 18 64 65 474 65 571 0 98 -34 360 -60 458 -39 147 -98 256 -139 256 -30 0 -96 -82 -140 -171 -69 -145 -88 -229 -117 -537 -29 -304 -38 -342 -95 -384 -65 -48 -116 -44 -177 15 -41 40 -72 123 -79 212 -5 70 -5 70 41 140 78 120 63 155 -99 230 -51 24 -98 52 -103 62 -20 36 -31 127 -21 176 11 63 40 101 105 143 101 65 110 119 26 156 -26 12 -112 52 -192 90 l-145 69 61 57 c95 88 95 125 1 178 -41 24 -55 38 -65 69 -25 77 -30 267 -14 580 26 517 -4 910 -103 1321 -69 288 -184 518 -448 899 -61 88 -114 162 -119 163 -4 2 -8 14 -8 27 0 12 -6 28 -14 34 -8 7 -16 45 -20 104 -9 113 -28 192 -67 270 -91 180 -301 271 -542 236z m-1866 -2520 c-13 -56 -1 -109 33 -154 21 -27 26 -45 26 -88 0 -87 -48 -177 -95 -177 -32 0 -49 35 -65 130 -7 41 -16 85 -21 98 -12 32 -82 60 -168 68 -68 7 -110 24 -58 24 51 0 200 31 235 49 20 11 55 38 76 60 22 22 41 39 43 37 2 -2 -1 -23 -6 -47z m624 -65 c29 -12 116 -27 250 -45 6 -1 -36 -7 -91 -14 -159 -21 -169 -30 -194 -175 -20 -114 -53 -147 -101 -99 -56 56 -80 197 -39 234 10 9 27 37 36 60 13 36 14 52 5 95 -6 28 -11 54 -11 57 0 3 25 -17 55 -46 30 -29 71 -59 90 -67z"/>
 <path d="M8627 3511 c-37 -75 -37 -78 -26 -131 14 -68 28 -95 40 -83 10 10 38 293 29 292 -3 0 -22 -35 -43 -78z"/>
 </g>

</svg>