<?xml version="1.0" encoding="UTF-8" standalone="no"?>
<!-- Created with Inkscape (http://www.inkscape.org/) -->

<svg
   xmlns:dc="http://purl.org/dc/elements/1.1/"
   xmlns:cc="http://creativecommons.org/ns#"
   xmlns:rdf="http://www.w3.org/1999/02/22-rdf-syntax-ns#"
   xmlns:svg="http://www.w3.org/2000/svg"
   xmlns="http://www.w3.org/2000/svg"
   xmlns:sodipodi="http://sodipodi.sourceforge.net/DTD/sodipodi-0.dtd"
   xmlns:inkscape="http://www.inkscape.org/namespaces/inkscape"
   width="20.893814mm"
   height="4.2167969mm"
   viewBox="0 0 20.893814 4.2167969"
   version="1.1"
   id="svg8"
   inkscape:version="0.92.4 (5da689c313, 2019-01-14)"
   sodipodi:docname="netfilter2.svg">
  <defs
     id="defs2" />
  <sodipodi:namedview
     id="base"
     pagecolor="#ffffff"
     bordercolor="#666666"
     borderopacity="1.0"
     inkscape:pageopacity="0.0"
     inkscape:pageshadow="2"
     inkscape:zoom="11.2"
     inkscape:cx="41.009816"
     inkscape:cy="6.35486"
     inkscape:document-units="mm"
     inkscape:current-layer="layer1"
     showgrid="false"
     inkscape:window-width="1920"
     inkscape:window-height="986"
     inkscape:window-x="-11"
     inkscape:window-y="-11"
     inkscape:window-maximized="1" />
  <metadata
     id="metadata5">
    <rdf:RDF>
      <cc:Work
         rdf:about="">
        <dc:format>image/svg+xml</dc:format>
        <dc:type
           rdf:resource="http://purl.org/dc/dcmitype/StillImage" />
        <dc:title />
      </cc:Work>
    </rdf:RDF>
  </metadata>
  <g
     inkscape:label="Layer 1"
     inkscape:groupmode="layer"
     id="layer1"
     transform="translate(-15.491117,-117.45737)">
    <g
       aria-label="netfilter"
       style="font-style:normal;font-variant:normal;font-weight:normal;font-stretch:normal;font-size:5.64444447px;line-height:1.25;font-family:'Overpass Mono';-inkscape-font-specification:'Overpass Mono';letter-spacing:0px;word-spacing:0px;fill:#000000;fill-opacity:1;stroke:none;stroke-width:0.26458332"
       id="text817">
      <path
         d="m 17.307372,121.61904 v -1.71703 q 0,-0.47129 -0.143316,-0.65871 -0.14056,-0.19017 -0.474045,-0.19017 -0.179145,0 -0.374827,0.10749 -0.195681,0.10749 -0.300412,0.26458 v 2.19384 h -0.523655 v -2.95176 h 0.35829 l 0.165365,0.38034 q 0.259071,-0.43546 0.846115,-0.43546 0.970139,0 0.970139,1.1796 v 1.82728 z"
         style="font-style:normal;font-variant:normal;font-weight:normal;font-stretch:normal;font-family:'Trebuchet MS';-inkscape-font-specification:'Trebuchet MS';letter-spacing:0px;stroke-width:0.26458332"
         id="path814" />
      <path
         d="m 21.063904,120.19415 h -2.127691 q 0,0.51814 0.283876,0.79651 0.250803,0.24253 0.644922,0.24253 0.44924,0 0.749653,-0.26183 l 0.220486,0.37759 q -0.121268,0.12126 -0.372071,0.20946 -0.314192,0.11575 -0.700043,0.11575 -0.556728,0 -0.945334,-0.37758 -0.432704,-0.41617 -0.432704,-1.11897 0,-0.73036 0.443728,-1.17133 0.396875,-0.39412 0.939822,-0.39412 0.631142,0 0.989431,0.35554 0.347266,0.34175 0.347266,0.90675 0,0.17363 -0.04134,0.3197 z m -1.270551,-1.14102 q -0.350022,0 -0.587045,0.226 -0.225998,0.21498 -0.256315,0.53468 h 1.634354 q 0,-0.31695 -0.198438,-0.52917 -0.21773,-0.23151 -0.592556,-0.23151 z"
         style="font-style:normal;font-variant:normal;font-weight:normal;font-stretch:normal;font-family:'Trebuchet MS';-inkscape-font-specification:'Trebuchet MS';letter-spacing:0px;stroke-width:0.26458332"
         id="path816" />
      <path
         d="m 21.841118,119.0807 h -0.341754 v -0.41342 h 0.341754 v -0.61736 l 0.523654,-0.20119 v 0.81855 h 0.810287 v 0.41342 h -0.810287 v 1.46623 q 0,0.37207 0.124024,0.52916 0.126779,0.1571 0.405143,0.1571 0.201194,0 0.416168,-0.10197 l 0.07717,0.46026 q -0.325217,0.0827 -0.713824,0.0827 -0.350022,0 -0.592557,-0.25907 -0.239778,-0.26183 -0.239778,-0.6587 z"
         style="font-style:normal;font-variant:normal;font-weight:normal;font-stretch:normal;font-family:'Trebuchet MS';-inkscape-font-specification:'Trebuchet MS';letter-spacing:0px;stroke-width:0.26458332"
         id="path818" />
      <path
         d="m 25.487407,117.9259 q -0.159852,-0.0551 -0.297656,-0.0551 -0.239779,0 -0.396875,0.1819 -0.154341,0.1819 -0.154341,0.46026 0,0.0744 0.01378,0.15434 h 0.600824 v 0.44098 h -0.600824 v 2.51078 h -0.523655 v -2.51078 h -0.429948 v -0.44098 h 0.429948 q 0,-0.56499 0.278364,-0.88745 0.278364,-0.32246 0.735872,-0.32246 0.228755,0 0.490582,0.0827 z"
         style="font-style:normal;font-variant:normal;font-weight:normal;font-stretch:normal;font-family:'Trebuchet MS';-inkscape-font-specification:'Trebuchet MS';letter-spacing:0px;stroke-width:0.26458332"
         id="path820" />
      <path
         d="m 26.515423,117.55107 q 0.135048,0 0.228754,0.0965 0.09646,0.0937 0.09646,0.22599 0,0.13505 -0.09646,0.23151 -0.09371,0.0937 -0.228754,0.0937 -0.132292,0 -0.228754,-0.0937 -0.09371,-0.0965 -0.09371,-0.23151 0,-0.13504 0.09371,-0.22875 0.09371,-0.0937 0.228754,-0.0937 z m -0.286632,4.06797 v -2.51078 h -0.405143 v -0.44098 h 0.928798 v 2.95176 z"
         style="font-style:normal;font-variant:normal;font-weight:normal;font-stretch:normal;font-family:'Trebuchet MS';-inkscape-font-specification:'Trebuchet MS';letter-spacing:0px;stroke-width:0.26458332"
         id="path822" />
      <path
         d="m 27.626122,120.78395 v -3.32658 h 0.523654 v 3.23839 q 0,0.23702 0.135048,0.37482 0.137804,0.13505 0.35829,0.13505 v 0.46853 q -1.016992,0 -1.016992,-0.89021 z"
         style="font-style:normal;font-variant:normal;font-weight:normal;font-stretch:normal;font-family:'Trebuchet MS';-inkscape-font-specification:'Trebuchet MS';letter-spacing:0px;stroke-width:0.26458332"
         id="path824" />
      <path
         d="M 29.436864,119.0807 H 29.09511 v -0.41342 h 0.341754 v -0.61736 l 0.523654,-0.20119 v 0.81855 h 0.810287 v 0.41342 h -0.810287 v 1.46623 q 0,0.37207 0.124024,0.52916 0.126779,0.1571 0.405143,0.1571 0.201194,0 0.416168,-0.10197 l 0.07717,0.46026 q -0.325217,0.0827 -0.713824,0.0827 -0.350022,0 -0.592556,-0.25907 -0.239779,-0.26183 -0.239779,-0.6587 z"
         style="font-style:normal;font-variant:normal;font-weight:normal;font-stretch:normal;font-family:'Trebuchet MS';-inkscape-font-specification:'Trebuchet MS';letter-spacing:0px;stroke-width:0.26458332"
         id="path826" />
      <path
         d="m 33.973366,120.19415 h -2.127691 q 0,0.51814 0.283876,0.79651 0.250803,0.24253 0.644921,0.24253 0.449241,0 0.749653,-0.26183 l 0.220486,0.37759 q -0.121267,0.12126 -0.37207,0.20946 -0.314193,0.11575 -0.700043,0.11575 -0.556728,0 -0.945335,-0.37758 -0.432704,-0.41617 -0.432704,-1.11897 0,-0.73036 0.443729,-1.17133 0.396875,-0.39412 0.939822,-0.39412 0.631141,0 0.989431,0.35554 0.347266,0.34175 0.347266,0.90675 0,0.17363 -0.04134,0.3197 z m -1.270552,-1.14102 q -0.350021,0 -0.587044,0.226 -0.225998,0.21498 -0.256315,0.53468 h 1.634353 q 0,-0.31695 -0.198437,-0.52917 -0.21773,-0.23151 -0.592557,-0.23151 z"
         style="font-style:normal;font-variant:normal;font-weight:normal;font-stretch:normal;font-family:'Trebuchet MS';-inkscape-font-specification:'Trebuchet MS';letter-spacing:0px;stroke-width:0.26458332"
         id="path828" />
      <path
         d="m 36.167202,119.17165 q -0.170877,-0.11852 -0.344509,-0.11852 -0.278364,0 -0.487826,0.25632 -0.206706,0.25631 -0.206706,0.61736 v 1.69223 h -0.523654 v -2.95176 h 0.523654 v 0.47129 q 0.286632,-0.52641 0.851628,-0.52641 0.14056,0 0.405143,0.0496 z"
         style="font-style:normal;font-variant:normal;font-weight:normal;font-stretch:normal;font-family:'Trebuchet MS';-inkscape-font-specification:'Trebuchet MS';letter-spacing:0px;stroke-width:0.26458332"
         id="path830" />
    </g>
  </g>
</svg>
