<?xml version="1.0" encoding="iso-8859-1"?>
<!-- Generator: Adobe Illustrator 18.1.1, SVG Export Plug-In . SVG Version: 6.00 Build 0)  -->
<svg version="1.1" id="Capa_1" xmlns="http://www.w3.org/2000/svg" xmlns:xlink="http://www.w3.org/1999/xlink" x="0px" y="0px"
	 viewBox="0 0 32 32" style="enable-background:new 0 0 32 32;" xml:space="preserve">
<g>
	<g>
		<path style="fill:#010002;" d="M22.414,0H4v32h24V5.584L22.414,0z M21.998,2.413L25.586,6h-3.588
			C21.998,6,21.998,2.413,21.998,2.413z M26,30H6V1.998h14v6.001h6V30z"/>
		<path style="fill:#010002;" d="M16,14c0,0.74,0.215,1.424,0.564,2.019l-2.546,2.547C13.424,18.215,12.74,18,12,18
			c-2.209,0-4,1.792-4,4s1.791,4,4,4s4-1.792,4-4c0-0.74-0.215-1.425-0.566-2.02l2.546-2.547C18.575,17.785,19.26,18,20,18
			c2.208,0,4-1.792,4-4s-1.792-4-4-4S16,11.792,16,14z"/>
	</g>
</g>
<g>
</g>
<g>
</g>
<g>
</g>
<g>
</g>
<g>
</g>
<g>
</g>
<g>
</g>
<g>
</g>
<g>
</g>
<g>
</g>
<g>
</g>
<g>
</g>
<g>
</g>
<g>
</g>
<g>
</g>
</svg>
