<!DOCTYPE svg PUBLIC "-//W3C//DTD SVG 20010904//EN" "http://www.w3.org/TR/2001/REC-SVG-20010904/DTD/svg10.dtd">
<svg version="1.0" xmlns="http://www.w3.org/2000/svg" width="399px" height="222px" viewBox="0 0 3990 2220" preserveAspectRatio="xMidYMid meet">
<g id="layer101" fill="#28438e" stroke="none">
 <path d="M3195 2154 c-152 -36 -248 -80 -315 -145 l-45 -44 499 -3 c275 -1 502 1 505 4 11 11 -90 93 -152 122 -115 55 -161 64 -322 68 -82 1 -159 1 -170 -2z"/>
 <path d="M1897 2122 l-248 -2 3 -78 3 -77 258 -3 257 -2 0 79 c0 54 -4 80 -12 82 -7 2 -125 3 -261 1z"/>
 <path d="M90 2040 l0 -80 215 0 215 0 1 23 c1 12 2 47 2 77 l1 55 -217 3 -217 2 0 -80z"/>
 <path d="M771 2051 c-12 -38 -21 -74 -21 -80 0 -8 76 -11 250 -11 l250 0 0 80 0 80 -229 0 -229 0 -21 -69z"/>
 <path d="M90 1780 l0 -70 218 2 217 3 0 65 0 65 -217 3 -218 2 0 -70z"/>
 <path d="M696 1795 c-9 -30 -19 -61 -22 -70 -5 -13 27 -15 285 -15 l291 0 0 70 0 70 -269 0 -270 0 -15 -55z"/>
 <path d="M1650 1780 l0 -70 260 0 260 0 0 70 0 70 -260 0 -260 0 0 -70z"/>
 <path d="M2776 1834 c-3 -9 -9 -40 -12 -70 l-7 -54 235 0 236 0 11 44 c13 54 28 67 80 69 49 2 88 -30 97 -80 l6 -33 247 2 c278 3 250 -7 236 91 l-6 47 -559 0 c-500 0 -558 -2 -564 -16z"/>
 <path d="M90 860 l0 -740 217 2 217 3 62 190 c35 105 98 299 141 432 43 134 82 243 86 243 4 0 7 -195 7 -432 l-1 -433 213 0 213 0 3 738 2 737 -307 -2 -307 -3 -38 -130 c-21 -71 -43 -147 -49 -167 -5 -21 -13 -38 -18 -38 -4 0 -8 75 -8 168 l1 167 -217 3 -217 2 0 -740z"/>
 <path d="M1652 863 l3 -738 435 0 435 0 3 197 2 198 -177 2 -178 3 -3 187 -2 187 157 3 158 3 0 190 0 190 -157 3 -158 3 0 154 0 155 -260 0 -260 0 2 -737z"/>
 <path d="M2745 1527 c-4 -40 -5 -84 -3 -97 l3 -25 240 0 240 0 3 98 3 97 -240 0 -239 0 -7 -73z"/>
 <path d="M3427 1593 c-4 -3 -7 -18 -7 -32 0 -49 -21 -103 -57 -141 -19 -22 -126 -100 -237 -174 -277 -186 -318 -229 -369 -390 -19 -61 -22 -92 -21 -226 0 -220 29 -316 119 -403 58 -57 126 -93 219 -117 206 -52 467 -26 620 64 64 37 129 115 150 178 19 57 44 333 33 361 -6 15 -30 17 -246 17 l-239 0 -4 -136 c-3 -129 -4 -137 -27 -155 -96 -78 -176 79 -126 249 19 62 58 98 200 184 252 152 390 274 433 384 26 66 52 213 52 292 l0 52 -243 0 c-134 0 -247 -3 -250 -7z"/>
 </g>

</svg>