<?xml version="1.0" encoding="utf-8"?>
<!-- Generator: Adobe Illustrator 20.0.0, SVG Export Plug-In . SVG Version: 6.00 Build 0)  -->
<svg version="1.1" id="Layer_1" xmlns="http://www.w3.org/2000/svg" xmlns:xlink="http://www.w3.org/1999/xlink" x="0px" y="0px"
	 viewBox="0 0 73 83" style="enable-background:new 0 0 73 83;" xml:space="preserve">
<style type="text/css">
	.st0{fill:#00AB4E;}
	.st1{fill:#00853E;}
	.st2{fill:#004C2C;}
	.st3{fill:#FFFFFF;}
</style>
<path class="st0" d="M36.5,0.5c-0.9,0-1.7,0.2-2.5,0.7L2.8,19.2c-1.5,0.9-2.5,2.5-2.5,4.3v36.1c0,0.9,0.2,1.7,0.7,2.5l35.5-20.5
	C36.5,41.5,36.5,14.9,36.5,0.5z"/>
<path class="st1" d="M1,62c0.4,0.7,1,1.4,1.8,1.8L34,81.9c1.5,0.9,3.4,0.9,4.9,0l31.3-18.1c0.8-0.4,1.4-1.1,1.8-1.8L36.5,41.5
	C36.5,41.5,13.5,54.8,1,62z"/>
<path class="st2" d="M72,62c0.4-0.7,0.7-1.6,0.7-2.5l0-36.1c0-1.8-0.9-3.4-2.5-4.3L39,1.1c-0.8-0.4-1.6-0.7-2.5-0.7l0,41
	C36.5,41.5,59.5,54.8,72,62z"/>
<path class="st3" d="M44.7,57.1c1.4,1.7,3.6,2.5,5.6,2.5c2.7,0,4.7-1.8,4.7-4l0-28.2c0-2.2-1.8-4-4-4h-0.1c-2.3,0-4.1,1.8-4.1,4.1
	l0,20.1c0,0.1-0.1,0.1-0.2,0.1L28.3,25.9c-1.4-1.7-3.6-2.5-5.6-2.5c-2.7,0-4.7,1.8-4.7,4l0,28.2c0,2.2,1.8,4,4,4h0.1
	c2.3,0,4.1-1.8,4.1-4.1l0-20.1c0-0.1,0.1-0.1,0.2-0.1L44.7,57.1z"/>
</svg>
