<?xml version="1.0" encoding="UTF-8" standalone="no"?>
<svg
   xmlns:dc="http://purl.org/dc/elements/1.1/"
   xmlns:cc="http://creativecommons.org/ns#"
   xmlns:rdf="http://www.w3.org/1999/02/22-rdf-syntax-ns#"
   xmlns:svg="http://www.w3.org/2000/svg"
   xmlns="http://www.w3.org/2000/svg"
   xmlns:sodipodi="http://sodipodi.sourceforge.net/DTD/sodipodi-0.dtd"
   xmlns:inkscape="http://www.inkscape.org/namespaces/inkscape"
   width="164.63"
   height="164.14159"
   version="1.1"
   xml:space="preserve"
   style="clip-rule:evenodd;fill-rule:evenodd;stroke-linejoin:round;stroke-miterlimit:1.41420996"
   id="svg41"
   sodipodi:docname="nsd.svg"
   inkscape:version="0.92.4 (5da689c313, 2019-01-14)"><metadata
   id="metadata45"><rdf:RDF><cc:Work
       rdf:about=""><dc:format>image/svg+xml</dc:format><dc:type
         rdf:resource="http://purl.org/dc/dcmitype/StillImage" /></cc:Work></rdf:RDF></metadata><sodipodi:namedview
   pagecolor="#ffffff"
   bordercolor="#666666"
   borderopacity="1"
   objecttolerance="10"
   gridtolerance="10"
   guidetolerance="10"
   inkscape:pageopacity="0"
   inkscape:pageshadow="2"
   inkscape:window-width="1920"
   inkscape:window-height="986"
   id="namedview43"
   showgrid="false"
   inkscape:zoom="0.85032538"
   inkscape:cx="230.5"
   inkscape:cy="81.641576"
   inkscape:window-x="-11"
   inkscape:window-y="-11"
   inkscape:window-maximized="1"
   inkscape:current-layer="Layer_1" />
    <g
   transform="translate(-80.685,-80.928983)"
   id="g25">
        <g
   id="Layer_1">
            <g
   id="g8">
                
                
                
            </g>
            <g
   id="g22">
                <path
   d="m 86.156,107.313 c -3.385,1.954 -5.471,5.567 -5.471,9.476 v 123.696 c 0,2.074 1.444,3.868 3.47,4.312 2.026,0.443 4.088,-0.584 4.954,-2.469 L 136.274,139.726 129.307,82.4 Z"
   style="fill:#273d8d;fill-rule:nonzero"
   id="path10"
   inkscape:connector-curvature="0" />
                <path
   d="m 85.1,244.899 c -0.313,0 -0.629,-0.033 -0.945,-0.102 -2.026,-0.444 -3.47,-2.238 -3.47,-4.312 V 116.789 c 0,-3.909 2.086,-7.522 5.471,-9.476 l 43.151,-24.913 6.967,57.326 -47.165,102.602 c -0.731,1.591 -2.314,2.571 -4.009,2.571 z"
   style="fill:url(#_Linear1)"
   id="path12"
   inkscape:connector-curvature="0" />
                <path
   d="m 239.843,218.687 c 3.386,-1.955 5.472,-5.568 5.472,-9.477 V 85.515 c 0,-2.074 -1.444,-3.869 -3.469,-4.312 -2.026,-0.443 -4.089,0.584 -4.954,2.469 l -47.165,102.601 6.967,57.327 z"
   style="fill:#1196b3;fill-rule:nonzero"
   id="path14"
   inkscape:connector-curvature="0" />
                <path
   d="m 196.694,243.6 -6.967,-57.327 47.165,-102.601 c 0.731,-1.592 2.313,-2.572 4.009,-2.572 0.313,0 0.629,0.034 0.945,0.103 2.025,0.443 3.469,2.238 3.469,4.312 V 209.21 c 0,3.909 -2.086,7.522 -5.472,9.477 z"
   style="fill:url(#_Linear2)"
   id="path16"
   inkscape:connector-curvature="0" />
                <path
   d="m 143.296,84.963 c -3.404,-4.168 -9.328,-5.254 -13.989,-2.563 l -43.151,24.912 c -3.385,1.955 -5.471,5.568 -5.471,9.477 v -0.277 c 0,-1.278 0.669,-2.462 1.763,-3.123 1.093,-0.66 2.453,-0.7 3.583,-0.105 L 219.069,183.3 c 0.77,0.405 1.718,0.212 2.269,-0.461 0.55,-0.674 0.55,-1.641 0,-2.315 z"
   style="fill:#273d8d;fill-rule:nonzero"
   id="path18"
   inkscape:connector-curvature="0" />
                <path
   d="m 182.705,241.037 c 3.405,4.168 9.328,5.253 13.989,2.563 l 43.149,-24.913 c 3.386,-1.955 5.472,-5.568 5.472,-9.477 v 0.277 c 0,1.278 -0.668,2.463 -1.763,3.123 -1.092,0.66 -2.452,0.7 -3.584,0.105 L 106.932,142.7 c -0.769,-0.405 -1.718,-0.212 -2.268,0.461 -0.55,0.673 -0.55,1.641 -0.001,2.314 z"
   style="fill:#26c0d2;fill-rule:nonzero"
   id="path20"
   inkscape:connector-curvature="0" />
            </g>
        </g>
    </g>
    <defs
   id="defs39"><linearGradient
     id="_Linear1"
     x1="0"
     y1="0"
     x2="1"
     y2="0"
     gradientUnits="userSpaceOnUse"
     gradientTransform="matrix(0,-162.5,162.5,0,108.48,244.899)"><stop
       offset="0"
       style="stop-color:rgb(27,35,86);stop-opacity:1"
       id="stop27" /><stop
       offset="1"
       style="stop-color:rgb(2,0,33);stop-opacity:1"
       id="stop29" /></linearGradient><linearGradient
     id="_Linear2"
     x1="0"
     y1="0"
     x2="1"
     y2="0"
     gradientUnits="userSpaceOnUse"
     gradientTransform="matrix(0,162.5,-162.5,0,217.522,81.1004)"><stop
       offset="0"
       style="stop-color:rgb(17,150,179);stop-opacity:1"
       id="stop32" /><stop
       offset="0.3"
       style="stop-color:rgb(21,135,162);stop-opacity:1"
       id="stop34" /><stop
       offset="1"
       style="stop-color:rgb(16,18,52);stop-opacity:1"
       id="stop36" /></linearGradient></defs>
</svg>