<svg xmlns="http://www.w3.org/2000/svg" xmlns:xlink="http://www.w3.org/1999/xlink" width="80" height="80"><defs><radialGradient id="f" cx="22767.4" cy="148727" r="15252" fx="22767.4" fy="148727" gradientTransform="matrix(.00329 .0025 -.0025 .00329 813.5 -242.18)" gradientUnits="userSpaceOnUse" xlink:href="#a"/><radialGradient id="a" cx="22767.4" cy="148727" r="15252" fx="22767.4" fy="148727" gradientUnits="userSpaceOnUse"><stop offset="0" stop-color="#ef9a48"/><stop offset="1" stop-color="#8f5444"/></radialGradient><radialGradient id="g" cx="326.28" cy="591.72" r="28.29" fx="326.28" fy="591.72" gradientTransform="matrix(.93052 0 0 .92334 288.43 -616.84)" gradientUnits="userSpaceOnUse" xlink:href="#b"/><linearGradient id="b"><stop offset="0" stop-color="#fff"/><stop offset="1" stop-color="#fff" stop-opacity="0"/></linearGradient><radialGradient id="h" cx="306.03" cy="601.15" r="19.89" fx="306.03" fy="601.15" gradientTransform="matrix(1.8368 -.15304 .21772 1.73154 -184.24 -677.81)" gradientUnits="userSpaceOnUse" xlink:href="#c"/><linearGradient id="c"><stop offset="0" stop-color="#d69600"/><stop offset="1" stop-color="#ffff90"/></linearGradient><linearGradient id="i" x1="20482.52" x2="22053.29" y1="138225.59" y2="146536.86" gradientTransform="matrix(.00415 .00046 -.00063 .00386 516.6 -282)" gradientUnits="userSpaceOnUse" xlink:href="#d"/><linearGradient id="d"><stop offset="0" stop-color="#fff"/><stop offset="1" stop-color="#fff" stop-opacity="0"/></linearGradient><radialGradient id="j" cx="18876.2" cy="150304" r="14266.5" fx="18876.2" fy="150304" gradientTransform="matrix(.00329 .0025 -.00244 .0032 799.15 -219.16)" gradientUnits="userSpaceOnUse" xlink:href="#e"/><radialGradient id="e" cx="18876.2" cy="150304" r="14266.5" fx="18876.2" fy="150304" gradientUnits="userSpaceOnUse"><stop offset="0" stop-color="#fff974"/><stop offset="1" stop-color="#97946b"/></radialGradient></defs><path fill="none" d="M0 0h80v80H0z" color="#000" overflow="visible" style="marker:none"/><path fill="#1f1a17" fill-rule="evenodd" d="M46.74 2.27C51.02 1.49 56.9 1.1 61.2.47l3.7 8c8.58 10.86 11.54 25.75 10.08 34.58l-2.48 12.6L6.74 25.87c2.2-5.1 5.35-8.25 8.37-11.67C24.37 5.6 35.49 3.18 46.74 2.27z"/><path fill="url(#f)" fill-rule="evenodd" d="M492.25 332.78c-12.53-10.5-15.1-26-11.31-41.38l3.65-7.34c7.4-10.74 17.59-14.5 29.78-17.46 6.96-.53 13.98-1.45 19.92-1.83 9.7 16.57 15.4 26.61 12.2 46.37l-2.73 7.87-3.54 5.44c-12.32 15.22-31.46 18.77-47.97 8.33z" transform="translate(-473.92 -262.15)"/><path fill="url(#g)" fill-rule="evenodd" d="M565.72-96.6h52.65v52.25h-52.65z" color="#000" overflow="visible" style="marker:none" transform="rotate(37.29 151.56 -833.44)"/><path d="M55.9 6.64s-33.83 28.43-32.8 30.8c.68 1.56 13.03 3.26 13.03 3.26L26.06 62.76c-1.78 5.72 1.46 2.51 3.1 3.1 0 0 33.7-28.99 32.86-30.94-.83-1.96-8.93-2.48-12.44-3.5 2.28-4.66 9.49-22.94 9.49-22.94 2.12-4.13 1.38-6.27-3.17-1.84z"/><path fill="url(#h)" d="M531.54 269.8l-29.95 27.54 12.9 2.53-12.04 25.46 29.94-27.53-12.9-2.52z" transform="translate(-473.92 -262.15)"/><path fill="url(#i)" fill-rule="evenodd" d="M516.05 269.15c16.42-.02 29.7 11.43 29.68 25.57v.36l-59.46.08v-.36c.02-14.14 13.36-25.62 29.78-25.65z" class="fil16" transform="translate(-473.92 -262.15)"/><path fill="#1f1a17" fill-rule="evenodd" d="M75.72 51.03l1.24 2.3-9.74 10.76c-6.49 7.95-9.22 9.85-14.9 13.02-12.6 4.67-19.6 1.76-29.44-1.67l-5.7 3.72-2.8-1.32-1.43-2.26 4.78-2.78C.46 54.4 2.37 38.13 6.1 21.91l2.6-.61 2.26 15.45 9.4-7.04 2.26 2.02-2.48 14 9.78-3.16 3.15.88-.3 13.32 22.88-12.04 2.39 1.42L53 58.47l12.98-12.6 2.41 1.4-4.85 10.86z"/><path fill="url(#j)" fill-rule="evenodd" d="M499.65 336.92c-2.53-.75-5.37-1.31-7.33-2.97-13.6-16.33-14.71-29.29-11.32-46.9l2.27 15.52 10.67-7.7-3.38 18.03 13.13-5.22-.04 17.02 24.7-14.6-5.58 17.72 17.12-17.07-4.87 12.91 13.17-7.59c-7.08 8.92-14.3 18.24-22.79 21.46-7.5 3.45-13.62 2.6-25.75-.6z" transform="translate(-473.92 -262.15)"/><path fill="#99ae6a" fill-rule="evenodd" d="M19.88 75.8l-2.74 1.54-1.3-.48-.37-.88 2.6-1.72z" class="fil43"/></svg>