<svg xmlns="http://www.w3.org/2000/svg" xmlns:xlink="http://www.w3.org/1999/xlink" width="401.38" height="807.45"><defs><linearGradient id="e"><stop offset="0" stop-color="#212121"/><stop offset="1" stop-color="#212121" stop-opacity="0"/></linearGradient><linearGradient id="b"><stop offset="0" stop-color="#60c"/><stop offset="1" stop-color="#60c" stop-opacity="0"/></linearGradient><linearGradient id="d"><stop offset="0" stop-color="#6d5744"/><stop offset="1" stop-color="#6d5744" stop-opacity="0"/></linearGradient><linearGradient id="c"><stop offset="0" stop-color="#6d5744"/><stop offset="1" stop-color="#6d5744" stop-opacity="0"/></linearGradient><linearGradient id="a"><stop offset="0" stop-color="#60c"/><stop offset="1" stop-color="#60c" stop-opacity="0"/></linearGradient><linearGradient id="j" x1="80.92" x2="89.43" y1="129.23" y2="129.23" gradientTransform="matrix(1.92364 0 0 1.92364 244.83 -81.7)" gradientUnits="userSpaceOnUse" xlink:href="#a"/><linearGradient id="i" x1="80.92" x2="89.43" y1="129.23" y2="129.23" gradientTransform="matrix(1.92364 0 0 1.92364 216.56 -73.97)" gradientUnits="userSpaceOnUse" xlink:href="#b"/><linearGradient id="g" x1="8.54" x2="77.02" y1="384.81" y2="465.09" gradientTransform="matrix(1.92364 0 0 1.92364 267.18 -40.5)" gradientUnits="userSpaceOnUse" xlink:href="#c"/><linearGradient id="f" x1="-41.91" x2="100.23" y1="163.64" y2="197.66" gradientTransform="matrix(1.92364 0 0 1.92364 267.18 -40.5)" gradientUnits="userSpaceOnUse" xlink:href="#d"/><linearGradient id="h" x1="420.17" x2="416.51" y1="220.22" y2="202.05" gradientUnits="userSpaceOnUse" xlink:href="#e"/></defs><path fill="#ff9" stroke="#816647" stroke-width="2.5" d="M246.46 266.57c-13.92 2.16-30 7.1-40.07 15.5 4.96 23.73 26.3-3.86 41.7 1.12 19.58-2 11.28-20.96-1.63-16.62zM234.55 229.73c-14.08-.44-30.79 1.47-42.24 7.87.52 24.24 26.57 1.04 40.8 8.77 19.6 1.63 14.92-18.53 1.44-16.64zM274.79 303.87c-13.87 2.5-29.81 7.85-39.68 16.49 5.55 23.6 26.2-4.51 41.72.09 19.52-2.48 10.75-21.23-2.04-16.58zM299.42 350.08c-14.49-5.12-45.34 19.4-19.28 22.57 8.32-8.55 21.1-5.33 32.54-7.27 13.8-10.4-3.59-17.6-13.26-15.3zM340.9 512.99c-19.38 6.19.02 20.38 12.16 15.99 8.8.1 17.77-.42 26.33.71 14.8-8.3-3-20.33-13.63-16.7H340.9zM373.05 587.29c-16.55-7.79-30.68 18.9-7.97 16.24 11.17-3.07 30.47 6.07 35.02-8.25-1.66-13.08-18.78-5.97-27.05-7.99zM340.47 661.65c-23.06 11.23 20.12 24.64 19.42 29.16 5.02 8.05 5.42 11.55 9.6 13.68 18.95 4.07 9.71-18.68.8-25.05-8.27-8.39-17.81-15.76-29.82-17.79zM365.66 699.52l.06.24zM288.11 741.54c-21.03 7.37 4.82 20.58 14.91 23.69-2.96 12.59 14.93 29.9 18.1 9.73 1.8-20.17-15.98-29.58-33-33.42z"/><g fill="#6c3" stroke="#015a01"><path stroke-width="1.731276" d="M89.94 787.07a59.87 70.2 0 1 1-2.36-124.04"/><path stroke-width="1.7233392" d="M40.2 715.94a72.26 66.56 79.78 1 1 32.5 72.83"/><path stroke-width=".85" d="M167.9 478.33a43.7 33.99 0 1 1 38.34 11.56" transform="matrix(1.86572 .99926 -1.08997 1.64532 293.08 -229.08)"/><path stroke-width=".87" d="M205.36 406.05a50.38 30.21 0 1 1 75.37 24.9" transform="matrix(1.82132 .7448 -.71166 1.90613 35.79 -257.21)"/><path stroke-width=".82" d="M221.38 425.53a50.38 28.41 0 1 1 67.77.44" transform="matrix(1.9953 .47632 -.45535 2.12333 -80.43 -308.03)"/><path stroke-width=".78" d="M206.04 409.53a50.38 28.41 0 1 1 86.24 14.73" transform="matrix(2.04648 0 0 2.40941 -258.94 -352.3)"/><path stroke-width=".81" d="M225.39 392a46.97 26.9 0 1 1 62.78-15.18" transform="matrix(2.15627 0 0 2.13974 -259.97 -197.7)"/><path stroke-width="1.731276" d="M347.85 559.77c9.5-17.34 3.17-33.39-14.67-47.07 11.69-33.95-16.65-115.7-67.39-176.62-2.66-3.19-6.34-5.74-10.82-7.7-11.9-43.13-50.3-54.9-84.4-45.38-45.77 12.77-86.02 25.18-86.02 56.27 0 16.23 10.5 30.84 27.29 41.12a50.11 50.11 0 0 0-1.62 3.96C97.75 437.83 141.19 510.07 160.29 532c.28.32.56.6.84.9-10.72 25.81 12.72 52.96 57.23 63.42"/><path stroke-width="1.7321692000000002" d="M88.63 325.39a81.4 57.94-7.12 1 1 134.42-33.93M73.97 261.38a81.4 59.32 0 1 1 134.23-12.32M108.18 229.3a81.4 60.58 0 1 1 98.55-20.75"/><path stroke-width="1.731276" d="M121.05 192.53a97.2 85.1-25.36 1 1 92.79 3.64"/></g><path fill="url(#f)" d="M345.16 123.48A110.15 110.15 0 0 0 294 144.22c3.67 10.44 8.55 19.44 7.77 31.25 6.17 3.42 6.97.76 8.7 8.67-5.47 1.34 12.15 3.99 16.65 3.2 12.85-6.4 1.97-24 5.48-35.18-1.16-12.64 4.17-18.62 12.56-28.68zm-11.66 17.07c-1.08 1.83 2.06.05 0 0zm-54.47 17.26a89.74 89.74 0 0 0-24.58 54.64c5.55 6.7 10.06 14.06 23.74 12.74 12.83-.6 25.13 13.6 38.06 3.78.55-10.68-11.82-20.2-21.38-24.2-10.8-5.48-9.34-17.83-11.32-24.5-4.49-7.63-1.21-4.53-4.03-14.4a46.43 46.43 0 0 1-.49-8.06zm-39.19 77c-12.09 13.67-14.62 34.88-6.5 51.16-8.44 11.86-13.27 28.95-6.38 42.53 8.69 9.37 15.54 18.78 23.92 27.83 5.15 4.23 29.95 1.33 22.9-9.39 3.62-9.74 11.58-4.67 20.46-5.55-.88-6.94-13.13-21.4-3.72-21.28-5.31-.46-10.45.92-16.64-.66-2.31 1.18-11.75 3.97-16.79 7.16-2.81-4.37-9.53-9.03-14-13.29 6.32-6.94 12.56-11.4 18.63-22.36-1.42-11.03 1.41-23.94-4.95-34.53-4.39-7.98-9.54-16.26-16.93-21.62zm21.04 29.58c-2.58 2.07 2.65 1.22 0 0zm33.06 1.26c-7.96 8.6-13.6-.64-22.6 6.85-7.4 6.57-7.96 18.18.77 23.5 4.06 2.44 8.14 13 11.97 4.82 3.51-.21 6.1-.73 12.39-6.25 8.12-2.65 16.85-9.2 7.93-11.73-1.73 2.57-1.67-1.99-4.27-3.9-2.25 2.35-1.05-11.24-6.19-13.29zm9.68 15.15c-4.6 4.34 3.15 1.22 0 0zm-11.96 20.44c6.23 3.03 17.23-.03 4.42.28-1.48.2-2.95-.17-4.42-.28zm12.2.48c-.6 3.29 1.9.63 0 0zm-56.03 14.9c-.85.91 1.55.2 0 0zm43.7 3.5c-2.57 1.48 1.97 0 0 0zm.43.11c-.56.64 1.28.3 0 0zm-13.65 20.92c-1.3.21.81 1.14 0 0zm3.91.43c-3.4 3.4 4.72.29 0 0zm-38.71 20.13c-16.8 2.29-10.96 31.5 2.8 33.36 5.64 9.28 19.76 13.7 24.55 24.65 12.72 4.12 22.56-7.9 20.44-20.01 8.73 1.28 22.7-6.83 20.38-18.34-11.93-.22-22.75-2.6-33.62 2.76-15.9 2.69-25.96-11.9-34.55-22.42zm45.02 14.97c-2.3 3.06 1.95 1.48 0 0zm-.78 1.5c-1.04-3.2-2.89 3.6 0 0zm2.65-1.5c-3.15 1.92 5.56.92 0 0zm.84 1.68c-1.52 1.52 3.67.7 0 0zm22.36 4.27c-2.08 2.18 2.8 3.95 0 0zm1.92 42.44c-1.06 2.52 4.03 2.28 0 0zm-60.83.48c-3.13 19.35 11.04 36.92 26.69 46.47-7.27 14.97 24.86 4.6 22.53-7.43-3.52-4.4-3.6-8.43-6.66-12.23 10.34.23 18.67-.72 29.33-7.57 10.55-.48-9.43-19.03-14.57-17.47-7.5 6.7-18.9 3.17-26.72 11.46a75.75 75.75 0 0 0-30.6-13.23zm50.61 27.24c-2.01.84 3.15 1.79 0 0zm-.78 8.23c-5.88 2.55 3.1 1.2 0 0z" transform="translate(-170.47 -90.71)"/><path fill="url(#g)" d="M376.06 624.62c-5.88 3.04-21.76 3.7-21.12 7.54 6.7 3.03-9.73 2.3-3.05-1.53-6.05 3.63-4.39-1.1-6.97 4.51-4.35-.59-1.8-8.58-9.24-2.74-12.23 6.27-3.7 20.15 2.66 27.6 2.66 6.13 15.76-6.6 17.04 4.54 8.02-2.48 15.8-2.18 24.89-5.53 7.5-.58 12.59 10.9 15.56 5.95 7.23-1.07 4.56 7.09 9.33.25 5.22-7.09 10.9-21.6 4.85-21.06-2.7-2.06-4.3-9.43.01-3 4.3-2.72.15-4.5 6.85-4.49 4.6-4.49-10.7 2.54-3.84-2.48-8.94.8 7.61-4.56-4.7-3.55-8.26-1.49-26.34 1.2-28.38-1.91 6.6-4.35-4.69 1.95-3.9-4.1zm-30.18 6.85c-.38-2.6-2.78-.59 0 0zm38.41-5.35c-5.54 4.11 3.66 3.36 0 0zm-35.16 3.25c-5.57 2.01 3.46 2.67 0 0zm-4.51 2.04c-3.6 1.4 5.34 4.05 0 0zm-1.69.54c-.85 1.16.96 2 0 0zm69.8 10.28c-3.38 1.08 2.56 1.77 0 0zm.78 12.45l4.93 12.44c-1.21-4.27-1.66-9.1-4.93-12.44zm-65.77 27.59c-5.27 5.04-13.38 8.08-14.4 16.23-5.05 9.29.72 20.87 9.09 22.72 4.2 9.6 17.53 7.67 22.5 16.33 10.9 2.66 26.68.48 27.8-13.26 6.02-16.3 13.06 9.72 22.88 9.78 4.93-1.53 7.34-2.07 10.62 1.27 3.22-2.62 8.77-1.22 12.59-5.94 2.4-1.37 5.57-10.13-1.5-13.02-6.04-4.78-11.2-22.29-19.28-11.6-2.18-3.1-10.74-6.59-9.8-.4-5.93 4.84-10.63.02-5.8-4.92-11.97 1.76-23.05-.58-34.99-.4-5.47 1.5-14.34 1.29-6.78-4.47-3.46-4.98-10.88-6.38-12.93-12.32zm17.8 13.1c-10.6 2.31 7.36 2.83 0 0zm51.15 4.81c-1.85 2.25 4.15 1.69 0 0zm2.17 1.33c-2.22 4 3.01.56 0 0zm-77.07 20.86c-2.94 1.25 1.57 2.38 0 0zm102.2 2.28c.7 3 4.89 1.72 0 0zm-125.94 6.67c-8.12 5.52-20.71 9.84-24.89 18.1 5.36 7.53 9.86 15.7 12.55 23.68 3.71 1.49 12.27 11.94 10.23 7.16-2.54-3.4 10.38 6.4 2.56 2.02-3.48 5.55 6.9 14.76 12.92 6.7 3.37-2.54 11.63-6.88 5.26.05-6.15 14.27 11.76 23.92 21.88 23.33-1.58 5.03 13.16 3.34 10.16-3.8 9.79 6.21 10.04-12.57 12.15-18.91l3.12-13.3c-1.89 2.53-9.14.33-9 1.83-4.93-4.1-13.49 3.44-16.67-.15-6.93-1.54-9.06-7.52-9.73-12.98-8.1.56-3.7.62-1.58-4.52-5.87-.31-13.84-1.76-12.14-7.1-11.4-4.65-2.2-15.07-10.82-21.29a20.38 20.38 0 0 0-6-.82zm-44.97 12.87c-8.59-1-7.51 5.96-13.22 2.94-10.15 5.75-20.14-2.75-30.93-1.38-29.13.25-51.07 29.09-55.87 56.42-7.33 13.75 5.34-.48 13.64-2.2-2.18-12.2 15.58-25.2 15.6-13.98-2.58 4.95.56 35.9 9.37 42.41 5.65 7.41 15.86 7.44 16.82-3.37 2.97-7.94 10.06-14.31 13.03-18.14-6.7 3.54-3.79-6.9-7.88-9.22 6.74-6.24-3.49-25.48.97-30.58 1.89.82 19.21-10.24 18.07 3.77 1.16 3.56-8.11 5.14-2.02 8.43-7.66 4.67 3.45 5.4-3.43 9.5 3.26 5.4 6.01 9.83 2.17 15.03 5.35 2.88-.85 4.96 2.46 9.86 1.78 3.93 6.25.78 1.39 5.4-1.37 8.4 12.41 11.34 9.27 18.6 8.52 3.14 17.26 14.93 21.65 1.17 4.39-6.64 8.99-13.15 13.44-19.76-3.42 1.67-6.98-2.02-10.4-3.3 3.18-7.45-7.57-10.68-4.39-18.7 2.03-5.58-2.94-14.99 1.4-15.45-3.64-2.88 2.34.65-.44-4.33 3.83-1.82-1.3-7.13 5.6-7.1-4.78-7.5 7.28-4.68 3.05-10.75-6.33-3.2 11.09-14.42-1.01-12.03-3.6-.46-14.71-3.29-18.34-3.24zm68.41 12.56c-5.6.82-1.06 2.67 0 0zm-106.58 10.76c-3.12 2.5 2.53 2 0 0zm-.18 2.17c-2.7.23 3.6 2.23 0 0zm116.32 1.98c-.61 2.06 1.54.49 0 0zm-33.12 9.26c-1.11 1.05.9.7 0 0zm-75.75 29.81c.21 1.67-.16.54 0 0zm1.33.06c.48 1.07-.2.15 0 0zm112.77 2.17c-3.8 1.32 3.07 2.7 0 0z" transform="translate(-170.47 -90.71)"/><g fill="#6c3" stroke="#015a01"><path stroke-width="1.92364" d="M271.75 121.7c3.96 25.29-12.78 32.57-21.1 30.77"/><path d="M247.45 144.66a14.9 15.41 0 0 1-28.87 1.41" transform="matrix(2.06786 0 0 1.92364 -255.73 -153.62)"/><path d="M254.4 122.14a13.76 14.19 0 0 1-9.6 26.55" transform="matrix(1.69042 0 0 1.92364 -162.42 -153.62)"/></g><path fill="url(#h)" stroke="#333" stroke-width="1.43" d="M427.42 204.03a13.58 11.91 0 1 1-20.9 3.65" transform="translate(-170.47 -90.71)"/><path fill="none" stroke="#015a01" stroke-width="1.73" d="M110.07 378.93c8.64 3.94 25.1 2 46.42-3.57M86.65 323.99c8.63 3.93 28.9 5.78 50.2.21M71.52 259.88c12.42 7.73 15.9 10.8 32.11 11.82"/><g fill="#060" stroke="#015a01" opacity=".45"><path d="M238.76 154.03a10.9 13.63 0 1 1-21.8 0 10.9 13.63 0 1 1 21.8 0z" opacity=".33" transform="matrix(1.91315 -1.09052 1.24 1.68252 -455.22 115.13)"/><path stroke-width="1.92364" d="M161.71 107.84c-20 15.14 6.1 49.62 29.63 38.6 22.1-14.37-6.16-51.83-29.63-38.6z" opacity=".33"/></g><path fill="#015a01" stroke="#015a01" stroke-width="1.92" d="M232.8 59.93c-7.68.5-14.78 4.69-15.08 13.59.07 1.12.24 2.23.48 3.3a31.87 31.87 0 0 0-11.36-7.81c-11.25-6.31-32.1-3.9-32.64 12.08 1.27 20.2 29.98 34.11 46.29 21.7 4.54-4.37 5.48-9.5 4.26-14.48 8.65 8.68 23.31 12.13 32.95 4.56 10.54-10.48-1.26-25.96-11.79-30.11-3.64-2.11-8.49-3.13-13.1-2.83z" opacity=".57"/><path fill="#474747" stroke="#424242" stroke-width="1.92" d="M182.5 25.63a3.94 3.94 0 0 1 5.17 2.07s3.19 13.71 11.46 25c2.15 6.47-6.45 8.72-8.76 4.02 0 0-.97-10.62-11.46-25-10.49-14.4.65-4.75 3.58-6.1z"/><path fill="#474747" stroke="#3c3c3c" stroke-width="2.84" d="M191.76 21.92a11.73 11.73 0 1 1-23.47 0 11.73 11.73 0 1 1 23.47 0z"/><path fill="#eee" stroke="#015a01" stroke-width="1.92" d="M221.54 98.3c-3.48 7.06-14.96 8.53-25.65 3.26-10.68-5.26-16.53-15.25-13.05-22.32 3.48-7.06 12.93-3.34 25.65-3.27 11.91.07 16.53 15.26 13.05 22.33zM258.3 88.68c-2.93 6.14-12.6 7.42-21.61 2.84-9-4.58-13.93-13.27-11-19.42 2.93-6.14 10.39-3.7 21.62-2.84 10.07.78 13.93 13.27 11 19.42z"/><path fill="#212121" stroke="url(#i)" stroke-width="3.27" d="M386.95 174.62a6.55 6.3 0 1 1-13.1 0 6.55 6.3 0 1 1 13.1 0z" transform="translate(-170.47 -90.71)"/><path fill="#2f5a01" stroke="#015a01" stroke-opacity=".46" stroke-width="1.92" d="M249.82 169.37c-66.52-.14-41.52 15.05-88.38 22.3-26.99 12.35 2.26 36.02-28.25 57.53-12.19 24.26 25.43 32.98 14.13 56.99 1.1 17.72 28.21 17.04 15.87 35.1.08 27.3 34.62 32.87 25 61.14 5.82 58.5 26.55 115.42 56.87 165.6 24.2 15.06 1.4 44.85 26.58 58.26-15.42 16.02-2.31 41.47-16.42 58.7-15.86 27.91-52.03 71.54-86.05 70.2-32.5 6.16-62.67-8.1-85.52 18.72C62.6 801.06 110.5 803 127.6 796.14c17.66-15.93 35.2-5.87 56.13-3.46 22 1.56 46.03-3.35 62.06-19.47 25.6.83 58.06-11.78 61.13-40.7 25.46-6.1 48.47-32.94 36.24-59.63 7.35-17.16 35.37-42.28 20.03-68.4 16.57-22.15-13.54-40.23-11.65-57.9 1.52-24.03-27.48-32.74-16.42-57.82-5.88-56.78-34.65-109-69.86-152.93-17.71-10.83-17.77-37.67-38.85-46.98-1.58-13.24-.08-35.22-15.13-46.08 12.85-21.04-11.48-49.56 20.58-57.4 9.32-6.83 11.77-6.16 17.96-16z" opacity=".16"/><path fill="#816647" d="M193.92 200.52l-33.12 5.23c17.19-1.05 41.4 10.7 52.14 2.15 2.8-7.65-14.42-4.55-19.02-7.38zm18.76 37.46c-2.23.22-5.16.95-5.95.18-15.9.46-38.76 1.68-50.26 5.95l31.38 8c9.79-5.77 36.1 1.64 26.45-11.31 2.1-2.73.6-3.05-1.62-2.82zm15.27 47.36c-23.53 1.42-46.95 4.24-70.52 5.17 18.49 2.74 36.87 6.8 55.6 3.55 8.86-2.88 26.73 3.88 14.92-8.72zm30.41 42.63c-17.6 2.14-22.02.73-40.57 1.08-12.18-.35-44.7.35-44.25 2.94 15.71 2.07 31.36 6.1 47.2 2.47 8.77-3.2 54.75 6.42 37.62-6.5zm27.48 33.66c-30.01 4.48-61.25 1.05-90.42 10.88l33.37 3.9c16.45-8.85 54.59-1.7 59.69-10.93zM326.53 511.85c-7.13-.1-15.75 1.45-21.4.36-22.65.08-44.37 7.02-66.3 11.79 15.16.92 30.6 7.28 45.44 1.62 15.96-6.58 41.9-5.3 52.54-10.82-2.28-2.21-6-2.88-10.28-2.95zm13.53 44.97c-14.18-.3-32.5 2.87-43.58.9l-33 5.23c31.71-.05 63.43.02 95.15 0-3.03-4.52-10.07-5.95-18.57-6.13zm-6.92 48.69c-4.5-.07-8.98.19-13.52 1.02l-32.52 8.18c21.54-3.55 43 2.84 64.56-1.2 11.96 2.21 20.66-8.79 3.9-6.8-7.5-.17-14.92-1.08-22.42-1.2zm-38.4 61.56l-29.58 8c23.85 2.83 47.75 6.2 71.65 1.5 9.75-1.58 4.57-13.92-3.67-5.6-12.55 1.87-25.7-3.4-38.4-3.9zm-33.07 63.96l-33.12 5.23c26.42-2.52 51.98 6.29 78.33 4.69 5.41-14.8-36.35-7.58-45.21-9.92zm-38.77 30.3c-10.95.79-21.78 3.13-32.65 4.8 19.66-1.44 39.98 13.76 57.41 7.58 8.57.63 33.33-2.74 11.85-4.93-12.15-2.62-24-7.7-36.61-7.45z" opacity=".22"/><path fill="#ff9" stroke="#816647" stroke-width="2.5" d="M133.98 235.44c-10.88 1.97-8.4 22.06 3.07 22.3 8.46 2.33 15.63 3.85 26.34.94 11.16-8.74-4.14-14.98-12.45-12.72-16.16 1.4-6.89-8.03-16.96-10.52zm5.95 53.08c-15.56 5.85-1.74 25.36 11.6 21.83 10.84.87 16.45-4.83 22.43-7.52 13.36-13.21-9.2-14.9-16.95-6.01-12.52 4.1-8.06-5.9-17.08-8.3zm50.74 40.88c-10.28-.31-16.72 10.52-26.51 10.1-15.41-2.71-11.5 17.88 2.16 13.29 10.44 1.73 13.95-8.47 23.93-9.32 8.07-.63 9.6-13.53.42-14.07zm19.72 50.92c-7.24 2.81-15.74 11.6-24.05 7.21-17.48-12.77-11.25 18.6-.9 14.13 9.03 2.15 20.79-3.4 25.43-6.8 3.64.52 11.82-13.3-.48-14.54zm-4.63 17.37c-1.76 1.06 1.7-.6 0 0zm48.63 150.16c-16.23 5.23 1.9 25.32 13.47 25.07 10.31.83 21.68.35 28.73-8.17 9.25-23.36-30.97 7.12-37.2-14.13l-1.45-1.52-3.55-1.25zm7.33 67.03c-12.78 3.28-2.84 22.22 3.73 28.44 9.87 6.7 22.12 6.79 33.62 5.38 11.17-8.72-4.15-15-12.46-12.72-8 1.03-16.76-3.31-17.25-12.14-1.53-3.69-2.48-8.88-7.64-8.96zm12.87 32.82l-.6-.3zm-60.36 65.35c-11.48 3.66-6.54 21.41-.12 28.37 4.49 5.22 7.88 12.23 12.2 15.2 5.72 3.36 9.68 8.46 16.78 5.43 9.56-6.93-8.2-15-5.83-13.9-5.89-2.69-9.89-12.65-15.03-18.03-3.53-5.64 2.14-16.52-8-17.07zm11.97 43.46c-2.06-2.26-.51-.14 0 0zm-91.32-6.31c-10.66 4.69-10.69 19.06-10.21 29.21-1.5 10.1 2.83 20.3 12.8 24.05 16.5 8.54 9.81-16.68 2.1-14.43-4.5-4.57.28-13.54-1.62-19.36-.48-6.55 10.8-17.5-3.07-19.47zm-75.62 3.24c-8.98 2.73-15.86 14.03-15.5 26.03-2.02 9.6 3.41 22.03 10.4 23.87 15.63 10.55 16.94-11.28 2.88-14.67-.48-9.2-.57-19.47 8.14-25.05 3.09-4.2-.8-10.66-5.92-10.18zm172.17 6.38c.43.02.03.14 0 0zm-92.82 5.59c.29-.06-.48.46 0 0z"/><path fill="#474747" stroke="#424242" stroke-width="1.92" d="M232.96 17.61c2.1.35 3.51 2.4 3.15 4.61 0 0-5 13.16-4.41 27.15-1.82 6.56-10.2 3.64-9.52-1.55 0 0 5.11-9.35 4.42-27.14-.7-17.8 3.18-3.58 6.36-3.07z"/><path fill="#474747" stroke="#3c3c3c" stroke-width="2.84" d="M242.73 19.7a11.73 11.73 0 1 1-19.5-13.08 11.73 11.73 0 1 1 19.5 13.07z"/><path fill="#212121" stroke="url(#j)" stroke-width="3.27" d="M415.23 166.9a6.55 6.3 0 1 1-13.11 0 6.55 6.3 0 1 1 13.1 0z" transform="translate(-170.47 -90.71)"/></svg>