<?xml version="1.0" encoding="UTF-8" standalone="no"?>
<!-- Created with Inkscape (http://www.inkscape.org/) -->

<svg
   xmlns:dc="http://purl.org/dc/elements/1.1/"
   xmlns:cc="http://creativecommons.org/ns#"
   xmlns:rdf="http://www.w3.org/1999/02/22-rdf-syntax-ns#"
   xmlns:svg="http://www.w3.org/2000/svg"
   xmlns="http://www.w3.org/2000/svg"
   xmlns:sodipodi="http://sodipodi.sourceforge.net/DTD/sodipodi-0.dtd"
   xmlns:inkscape="http://www.inkscape.org/namespaces/inkscape"
   id="svg2997"
   version="1.1"
   inkscape:version="0.48.5 r10040"
   width="256"
   height="256"
   sodipodi:docname="openvpn.svg">
  <metadata
     id="metadata3003">
    <rdf:RDF>
      <cc:Work
         rdf:about="">
        <dc:format>image/svg+xml</dc:format>
        <dc:type
           rdf:resource="http://purl.org/dc/dcmitype/StillImage" />
        <dc:title />
      </cc:Work>
    </rdf:RDF>
  </metadata>
  <defs
     id="defs3001" />
  <sodipodi:namedview
     pagecolor="#ffffff"
     bordercolor="#666666"
     borderopacity="1"
     objecttolerance="10"
     gridtolerance="10"
     guidetolerance="10"
     inkscape:pageopacity="0"
     inkscape:pageshadow="2"
     inkscape:window-width="1189"
     inkscape:window-height="639"
     id="namedview2999"
     showgrid="false"
     inkscape:zoom="1.3037281"
     inkscape:cx="284.63291"
     inkscape:cy="126.957"
     inkscape:window-x="15"
     inkscape:window-y="39"
     inkscape:window-maximized="0"
     inkscape:current-layer="svg2997" />
  <path
     style="fill:#f4811f"
     d="M 59.467896,225.80109 C 27.760736,202.67634 8.6123859,160.27282 12.966036,122.82398 c 4.9752,-42.795091 28.7518,-76.554178 66.51691,-94.443679 17.82077,-8.44178 40.696184,-12.49773 58.689114,-10.40594 42.79509,4.975194 76.55417,28.7518 94.44368,66.516908 8.44178,17.820771 12.49773,40.696181 10.40594,58.689111 -3.3414,28.74165 -14.34384,52.11872 -33.55902,71.30336 -7.70718,7.69494 -20.43768,17.52799 -20.49752,15.83231 -0.0158,-0.44763 -1.55963,-11.35376 -3.43073,-24.23584 l -3.40199,-23.42197 3.38536,-3.95504 c 1.86195,-2.17527 5.21996,-7.48136 7.46225,-11.79131 11.06204,-21.26264 11.06705,-46.54714 0.0134,-67.793595 C 174.32315,63.231592 130.05525,49.30179 94.109976,68.002576 c -35.89911,18.67677 -49.81696,62.937344 -31.10228,98.909314 2.24228,4.30995 5.59577,9.61076 7.45219,11.77957 l 3.37533,3.94331 -3.31369,23.74338 c -1.82253,13.05886 -3.48601,23.91571 -3.69663,24.12633 -0.21062,0.21062 -3.52127,-1.90591 -7.357,-4.70339 z"
     id="path2988"
     inkscape:connector-curvature="0" />
  <path
     style="fill:#0a3566;fill-opacity:1;fill-rule:evenodd;stroke:#ffffff;stroke-width:0;stroke-linecap:round;stroke-linejoin:miter;stroke-miterlimit:4;stroke-opacity:1;stroke-dasharray:none"
     d="m 101.16006,235.41168 c 0,-0.29332 3.16833,-17.65631 7.04073,-38.58443 l 7.04074,-38.05113 -9.92211,-9.64181 c -7.850424,-7.62866 -10.302874,-11.17853 -11.745744,-17.00172 -3.43254,-13.85329 -1.31189,-23.43829 7.298664,-32.988728 7.44804,-8.261026 16.03113,-12.121643 26.94939,-12.121643 11.17539,0 19.83077,4.006374 27.16397,12.573572 13.69365,15.997949 11.00454,36.540919 -6.79013,51.871939 l -7.99945,6.89194 5.52663,30.5589 c 3.03964,16.80741 6.15793,34.2641 6.92953,38.79267 l 1.40291,8.23374 -26.44757,0 c -14.54615,0 -26.44756,-0.23999 -26.44756,-0.5333 z"
     id="path3005"
     inkscape:connector-curvature="0" />
</svg>
