<!DOCTYPE svg PUBLIC "-//W3C//DTD SVG 20010904//EN" "http://www.w3.org/TR/2001/REC-SVG-20010904/DTD/svg10.dtd">
<svg version="1.0" xmlns="http://www.w3.org/2000/svg" width="969px" height="969px" viewBox="0 0 9690 9690" preserveAspectRatio="xMidYMid meet">
<g id="layer101" fill="#1879a2" stroke="none">
 <path d="M185 9679 c-5 -5 -31 -23 -58 -39 -28 -18 -59 -49 -77 -77 -16 -27 -34 -53 -40 -60 -13 -16 -14 -1643 -1 -1643 5 0 14 -14 20 -30 16 -46 100 -122 157 -143 45 -16 110 -17 824 -17 886 0 834 -5 925 86 89 88 85 43 85 925 0 754 0 769 -21 821 -28 72 -61 112 -117 145 -26 15 -48 31 -50 35 -5 12 -1635 9 -1647 -3z"/>
 <path d="M2750 9681 c0 -5 -13 -14 -29 -19 -51 -18 -118 -89 -141 -148 -20 -53 -20 -74 -19 -842 0 -576 4 -796 12 -819 26 -69 73 -120 140 -152 l65 -31 781 0 c758 0 782 1 834 20 60 23 118 74 150 135 l22 40 0 815 0 815 -24 43 c-26 48 -92 109 -133 124 -16 6 -28 14 -28 19 0 5 -337 9 -815 9 -478 0 -815 -4 -815 -9z"/>
 <path d="M5300 9681 c0 -5 -10 -13 -22 -17 -32 -10 -103 -65 -116 -89 -6 -11 -19 -36 -29 -55 -17 -33 -18 -78 -18 -845 l0 -810 28 -50 c33 -60 77 -97 147 -125 49 -19 73 -20 840 -20 449 0 791 4 794 9 3 5 18 12 33 16 47 11 110 71 140 133 l28 57 0 795 0 795 -22 48 c-26 55 -94 122 -140 138 -18 6 -33 15 -33 20 0 5 -324 9 -815 9 -497 0 -815 -4 -815 -9z"/>
 <path d="M7840 9681 c0 -5 -14 -14 -31 -22 -41 -16 -101 -77 -125 -126 -18 -36 -19 -76 -22 -835 -2 -785 -2 -797 18 -852 27 -71 95 -135 172 -159 50 -15 122 -17 815 -17 737 0 762 1 819 20 71 25 127 76 160 145 l24 50 0 795 0 795 -24 50 c-27 59 -81 116 -125 135 -17 7 -31 16 -31 21 0 5 -358 9 -825 9 -467 0 -825 -4 -825 -9z"/>
 <path d="M2747 7116 c-87 -32 -153 -99 -177 -182 -8 -28 -10 -261 -8 -834 3 -793 3 -795 25 -835 27 -50 76 -97 130 -124 42 -21 48 -21 849 -21 l807 0 46 26 c61 35 96 69 123 118 l23 41 0 815 0 815 -22 41 c-28 53 -74 99 -127 127 l-41 22 -795 2 c-653 2 -802 0 -833 -11z"/>
 <path d="M7847 7114 c-43 -13 -112 -70 -152 -125 -32 -43 -35 -122 -35 -868 0 -658 2 -754 16 -802 21 -71 63 -127 121 -164 l48 -30 815 -3 815 -3 43 22 c54 26 105 76 134 132 l23 42 0 810 0 810 -22 40 c-33 62 -103 121 -164 139 -77 23 -1568 23 -1642 0z"/>
 <path d="M568 5113 c195 -2 510 -2 700 0 191 1 32 2 -353 2 -385 0 -541 -1 -347 -2z"/>
 <path d="M5818 5113 c166 -2 438 -2 605 0 166 1 30 2 -303 2 -333 0 -469 -1 -302 -2z"/>
 <path d="M3258 4573 c172 -2 451 -2 620 0 169 1 28 2 -313 2 -341 0 -479 -1 -307 -2z"/>
 <path d="M8408 4573 c195 -2 510 -2 700 0 191 1 32 2 -353 2 -385 0 -541 -1 -347 -2z"/>
 <path d="M157 4548 c-50 -27 -106 -84 -123 -125 -8 -18 -19 -33 -24 -33 -7 0 -10 -287 -10 -820 0 -451 4 -820 8 -820 5 0 16 -18 26 -40 24 -54 98 -117 159 -135 75 -22 1558 -22 1633 0 64 19 127 73 162 139 l27 51 3 780 c3 728 2 784 -15 839 -21 70 -78 134 -146 165 -45 21 -57 21 -854 20 -799 0 -808 -1 -846 -21z"/>
 <path d="M5250 4537 c-60 -35 -113 -103 -130 -168 -7 -26 -10 -300 -8 -826 3 -787 3 -788 25 -829 32 -59 91 -112 151 -134 51 -19 80 -20 826 -20 857 0 836 -1 913 65 23 20 54 61 70 93 l28 57 0 795 0 795 -23 46 c-27 54 -81 109 -137 138 -39 21 -46 21 -850 21 l-811 0 -54 -33z"/>
 <path d="M2555 3475 c0 -390 1 -552 2 -358 2 193 2 513 0 710 -1 197 -2 39 -2 -352z"/>
 <path d="M4575 3490 c0 -382 1 -539 2 -347 2 191 2 503 0 695 -1 191 -2 34 -2 -348z"/>
 <path d="M191 2003 c-41 -12 -67 -30 -107 -70 -30 -29 -54 -60 -54 -69 0 -8 -7 -17 -15 -20 -13 -5 -15 -107 -15 -834 0 -456 4 -830 8 -832 4 -1 20 -25 36 -51 17 -31 45 -59 74 -77 26 -16 52 -34 59 -40 17 -14 1663 -14 1663 0 0 6 8 13 18 17 41 15 102 76 129 131 l28 57 0 780 c0 895 5 844 -85 935 -92 94 -51 90 -931 89 -658 -1 -761 -3 -808 -16z"/>
 <path d="M2713 1990 c-66 -32 -119 -92 -142 -159 -8 -24 -11 -254 -11 -817 0 -756 1 -785 20 -836 23 -62 76 -120 131 -145 21 -9 39 -20 39 -25 0 -4 367 -8 815 -8 478 0 815 4 815 9 0 5 12 13 28 19 41 15 107 76 133 124 l24 43 0 815 0 815 -22 40 c-32 61 -90 112 -150 135 -52 19 -76 20 -836 20 l-782 -1 -62 -29z"/>
 <path d="M5275 1995 c-63 -29 -106 -70 -137 -126 l-23 -44 0 -810 c0 -767 1 -812 18 -845 10 -19 23 -44 29 -55 13 -24 84 -79 116 -89 12 -4 22 -12 22 -17 0 -5 318 -9 815 -9 491 0 815 4 815 9 0 5 15 14 33 20 47 16 113 81 140 138 l22 48 0 795 0 795 -28 57 c-30 62 -93 122 -140 133 -15 4 -30 11 -33 16 -3 5 -347 9 -802 8 l-797 -1 -50 -23z"/>
 <path d="M7843 2001 c-67 -26 -123 -78 -152 -140 l-26 -56 -3 -760 c-2 -558 0 -775 9 -815 17 -82 53 -136 118 -178 31 -21 58 -40 59 -44 5 -11 1642 -10 1642 1 0 5 14 14 30 21 44 18 105 78 132 130 l23 45 0 820 0 820 -25 29 c-64 75 -110 114 -156 130 -43 14 -130 16 -828 15 -701 -1 -785 -3 -823 -18z"/>
 </g>
<g id="layer102" fill="#88bd44" stroke="none">
 <path d="M166 7120 c-46 -14 -93 -52 -122 -97 -15 -24 -31 -43 -35 -43 -5 0 -9 -385 -9 -855 0 -522 4 -855 9 -855 5 0 13 -9 16 -21 11 -32 65 -88 106 -110 37 -18 65 -19 753 -19 393 0 725 -4 738 -9 21 -8 907 -886 928 -921 6 -9 10 -297 10 -724 0 -502 3 -720 11 -747 17 -55 65 -108 123 -135 l51 -24 810 0 c512 0 823 4 846 10 52 15 99 49 134 99 l30 43 2 721 c2 397 5 732 8 744 6 27 899 921 932 934 14 5 285 9 621 9 l596 0 468 -468 468 -467 0 -700 c0 -704 2 -743 37 -810 21 -41 87 -93 133 -105 26 -7 317 -10 862 -8 913 3 850 -1 919 69 69 70 64 4 64 934 0 800 -1 842 -19 875 -24 45 -63 87 -101 108 -27 15 -105 18 -772 22 l-743 5 -455 455 -455 455 0 711 c0 790 1 780 -66 853 -19 21 -57 48 -84 60 -50 21 -51 21 -878 19 l-829 -3 -49 -30 c-30 -19 -60 -49 -79 -79 l-30 -49 -3 -734 -3 -734 -463 -465 -464 -464 -617 0 -616 0 -465 465 -464 466 -1 717 c0 801 3 763 -71 841 -69 74 -34 71 -942 70 -446 0 -824 -5 -840 -9z"/>
 </g>

</svg>