<?xml version="1.0" encoding="UTF-8" standalone="no"?>
<svg
   xmlns:dc="http://purl.org/dc/elements/1.1/"
   xmlns:cc="http://creativecommons.org/ns#"
   xmlns:rdf="http://www.w3.org/1999/02/22-rdf-syntax-ns#"
   xmlns:svg="http://www.w3.org/2000/svg"
   xmlns="http://www.w3.org/2000/svg"
   xmlns:sodipodi="http://sodipodi.sourceforge.net/DTD/sodipodi-0.dtd"
   xmlns:inkscape="http://www.inkscape.org/namespaces/inkscape"
   version="1.0"
   width="747.58765"
   height="379.74466"
   viewBox="0 0 7475.8765 3797.4466"
   preserveAspectRatio="xMidYMid meet"
   id="svg17"
   sodipodi:docname="php-fpm.svg"
   inkscape:version="0.92.4 (5da689c313, 2019-01-14)">
  <metadata
     id="metadata23">
    <rdf:RDF>
      <cc:Work
         rdf:about="">
        <dc:format>image/svg+xml</dc:format>
        <dc:type
           rdf:resource="http://purl.org/dc/dcmitype/StillImage" />
      </cc:Work>
    </rdf:RDF>
  </metadata>
  <defs
     id="defs21" />
  <sodipodi:namedview
     pagecolor="#ffffff"
     bordercolor="#666666"
     borderopacity="1"
     objecttolerance="10"
     gridtolerance="10"
     guidetolerance="10"
     inkscape:pageopacity="0"
     inkscape:pageshadow="2"
     inkscape:window-width="1920"
     inkscape:window-height="986"
     id="namedview19"
     showgrid="false"
     inkscape:zoom="0.28"
     inkscape:cx="373.975"
     inkscape:cy="189.9145"
     inkscape:window-x="-11"
     inkscape:window-y="-11"
     inkscape:window-maximized="1"
     inkscape:current-layer="svg17" />
  <g
     id="layer101"
     style="fill:#4b4b4c;stroke:none"
     transform="translate(-3260.25,-1351.6985)">
    <path
       d="m 6610,5139 c -592,-31 -1159,-135 -1667,-304 -442,-147 -838,-351 -1118,-578 -108,-88 -289,-276 -351,-367 -285,-414 -285,-866 0,-1280 62,-91 243,-279 351,-367 199,-161 508,-339 805,-464 365,-153 870,-287 1331,-353 1757,-253 3584,156 4397,985 182,187 295,375 355,594 31,117 31,374 -1,491 -92,339 -339,643 -739,907 -797,527 -2063,804 -3363,736 z"
       id="path2"
       inkscape:connector-curvature="0" />
  </g>
  <g
     id="layer102"
     style="fill:#6182b9;stroke:none"
     transform="translate(-3260.25,-1351.6985)">
    <path
       d="m 6610,5139 c -592,-31 -1159,-135 -1667,-304 -442,-147 -838,-351 -1118,-578 -108,-88 -289,-276 -351,-367 -285,-414 -285,-866 0,-1280 62,-91 243,-279 351,-367 199,-161 508,-339 805,-464 365,-153 870,-287 1331,-353 1757,-253 3584,156 4397,985 182,187 295,375 355,594 31,117 31,374 -1,491 -92,339 -339,643 -739,907 -797,527 -2063,804 -3363,736 z M 8052,3825 c 20,-93 37,-173 37,-177 1,-5 74,-8 164,-8 194,0 258,-10 353,-56 56,-26 88,-51 146,-112 121,-129 179,-278 180,-462 1,-144 -42,-236 -140,-299 -85,-55 -134,-61 -462,-61 h -295 l -139,658 c -77,361 -141,665 -144,675 -4,16 5,17 129,15 l 134,-3 z m -602,-187 c 0,-2 38,-178 84,-393 l 83,-390 125,-3 125,-3 17,-85 c 10,-48 20,-92 23,-100 4,-12 -17,-14 -121,-14 h -126 l 6,-27 c 14,-68 35,-110 62,-123 15,-7 70,-15 122,-18 l 96,-4 17,-83 c 9,-45 17,-88 17,-94 0,-8 -49,-11 -163,-11 -174,0 -255,13 -308,51 -38,27 -84,126 -105,226 l -17,82 -95,3 -96,3 -17,80 c -28,124 -33,115 71,115 50,0 90,4 90,9 0,5 -36,179 -80,385 -44,207 -80,381 -80,386 0,8 269,16 270,8 z m 1803,-65 c 9,-38 46,-211 83,-385 l 67,-318 h 149 c 122,0 148,3 148,14 0,8 -30,153 -66,323 -36,169 -71,336 -78,371 l -14,63 136,-3 136,-3 81,-380 80,-380 h 122 c 105,0 124,3 142,19 33,30 27,85 -44,421 -36,168 -65,310 -65,316 0,6 49,9 132,7 l 132,-3 68,-320 c 77,-361 87,-432 68,-501 -17,-60 -71,-115 -136,-140 -45,-17 -91,-19 -630,-22 l -580,-3 -93,438 c -51,241 -99,464 -106,496 l -13,57 h 133 133 z"
       id="path5"
       inkscape:connector-curvature="0" />
    <path
       d="m 8140,3420 c 0,-8 26,-134 57,-282 l 57,-268 h 138 c 155,0 204,13 239,61 43,61 29,212 -31,336 -58,117 -130,152 -332,160 -102,5 -128,3 -128,-7 z"
       id="path7"
       inkscape:connector-curvature="0" />
  </g>
  <g
     id="layer103"
     style="fill:#ffffff;stroke:none"
     transform="translate(-3260.25,-1351.6985)">
    <path
       d="m 3667,3903 c -3,-6 216,-1161 238,-1250 l 5,-23 h 308 c 346,0 410,8 500,62 106,64 155,158 154,298 0,274 -183,508 -437,561 -33,6 -143,15 -245,18 l -185,6 -32,165 c -18,91 -32,166 -33,168 -1,6 -269,1 -273,-5 z m 690,-557 c 139,-37 211,-141 220,-321 8,-151 -43,-186 -279,-193 -82,-2 -148,-3 -148,-1 0,2 -23,119 -50,259 -27,140 -50,258 -50,263 0,13 252,8 307,-7 z"
       id="path10"
       inkscape:connector-curvature="0" />
    <path
       d="m 5830,3897 c 0,-8 54,-292 120,-631 66,-339 120,-621 120,-626 0,-13 602,-13 671,0 81,15 172,64 219,117 137,156 92,465 -94,648 -126,124 -216,153 -503,162 l -192,6 -10,51 c -6,28 -21,103 -33,166 l -23,115 -137,3 c -113,2 -138,0 -138,-11 z m 738,-566 c 71,-32 127,-96 151,-177 51,-162 33,-256 -56,-296 -42,-19 -67,-22 -198,-22 l -150,-1 -46,230 c -25,127 -48,245 -52,264 l -7,33 153,-4 c 132,-3 159,-7 205,-27 z"
       id="path12"
       inkscape:connector-curvature="0" />
    <path
       d="m 4820,3557 c 0,-7 54,-291 120,-631 66,-340 120,-622 120,-627 0,-5 61,-9 140,-9 h 141 l -7,38 c -3,20 -17,90 -30,156 -13,65 -24,125 -24,132 0,11 32,14 163,14 243,0 339,21 402,88 71,76 71,136 -5,526 -33,170 -63,312 -66,317 -3,5 -66,9 -140,9 -121,0 -134,-2 -134,-17 0,-10 25,-144 55,-298 30,-154 55,-297 55,-317 0,-25 -8,-46 -24,-65 l -24,-28 -164,-3 -163,-3 -70,363 -70,363 -138,3 c -109,2 -137,0 -137,-11 z"
       id="path14"
       inkscape:connector-curvature="0" />
  </g>
</svg>
