<?xml version="1.0"?>
<svg width="300" height="300" xmlns="http://www.w3.org/2000/svg" xmlns:svg="http://www.w3.org/2000/svg">
  <g id="XMLID_27_">
   <path d="m70,125c-13.785,0 -25,11.215 -25,25s11.215,25 25,25c13.785,0 25,-11.215 25,-25s-11.215,-25 -25,-25z" id="XMLID_28_"/>
   <path d="m150,125c-13.785,0 -25,11.215 -25,25s11.215,25 25,25c13.785,0 25,-11.215 25,-25s-11.215,-25 -25,-25z" id="XMLID_30_"/>
   <path d="m230,125c-13.785,0 -25,11.215 -25,25s11.215,25 25,25c13.785,0 25,-11.215 25,-25s-11.215,-25 -25,-25z" id="XMLID_71_"/>
 </g>
</svg>