<?xml version="1.0" encoding="UTF-8" standalone="no"?>
<!-- Created with Inkscape (http://www.inkscape.org/) -->

<svg
   xmlns:dc="http://purl.org/dc/elements/1.1/"
   xmlns:cc="http://creativecommons.org/ns#"
   xmlns:rdf="http://www.w3.org/1999/02/22-rdf-syntax-ns#"
   xmlns:svg="http://www.w3.org/2000/svg"
   xmlns="http://www.w3.org/2000/svg"
   xmlns:sodipodi="http://sodipodi.sourceforge.net/DTD/sodipodi-0.dtd"
   xmlns:inkscape="http://www.inkscape.org/namespaces/inkscape"
   id="svg2"
   sodipodi:version="0.32"
   inkscape:version="0.48.4 r9939"
   width="526.04089"
   height="397.40039"
   version="1.0"
   sodipodi:docname="postfix_flags.svg"
   inkscape:output_extension="org.inkscape.output.svg.inkscape"
   sodipodi:modified="true">
  <metadata
     id="metadata7">
    <rdf:RDF>
      <cc:Work
         rdf:about="">
        <dc:format>image/svg+xml</dc:format>
        <dc:type
           rdf:resource="http://purl.org/dc/dcmitype/StillImage" />
      </cc:Work>
    </rdf:RDF>
  </metadata>
  <defs
     id="defs5">
    <filter
       inkscape:collect="always"
       x="-0.048278429"
       width="1.0965569"
       y="-0.23832753"
       height="1.4766551"
       id="filter5275"
       color-interpolation-filters="sRGB">
      <feGaussianBlur
         inkscape:collect="always"
         stdDeviation="4.170345"
         id="feGaussianBlur5277" />
    </filter>
  </defs>
  <sodipodi:namedview
     inkscape:window-height="1007"
     inkscape:window-width="1680"
     inkscape:pageshadow="2"
     inkscape:pageopacity="0.0"
     guidetolerance="10.0"
     gridtolerance="10.0"
     objecttolerance="10.0"
     borderopacity="1.0"
     bordercolor="#666666"
     pagecolor="#ffffff"
     id="base"
     inkscape:zoom="0.70710678"
     inkscape:cx="433.37684"
     inkscape:cy="136.247"
     inkscape:window-x="0"
     inkscape:window-y="0"
     inkscape:current-layer="svg2"
     showgrid="false"
     fit-margin-top="0"
     fit-margin-left="0"
     fit-margin-right="0"
     fit-margin-bottom="0"
     inkscape:window-maximized="1" />
  <g
     id="g3045"
     transform="matrix(0.96563627,0,0,0.96563627,-634.29626,119.30273)">
    <g
       transform="matrix(0.9431181,0.1033962,-0.1033962,0.9431181,666.53154,-143.30056)"
       id="g16173">
      <path
         style="color:#000000;fill:#555753;fill-opacity:1;fill-rule:nonzero;stroke:none;stroke-width:8.39999962;marker:none;visibility:visible;display:inline;overflow:visible;enable-background:accumulate"
         d="m 102.1296,125.7933 c -0.29722,-9.6e-4 -0.58971,0.004 -0.88804,0.0129 -11.511442,-0.11059 -21.505714,9.55344 -23.088612,20.74632 -2.702932,14.23492 4.429232,28.92905 15.894341,37.27131 6.814511,5.74268 17.147481,8.57776 25.328021,4.04116 0.40422,-0.21229 0.7939,-0.43806 1.18403,-0.66924 7.83344,15.57868 17.51105,30.58464 31.7115,40.83629 5.66825,3.80931 12.85025,7.14499 19.8068,5.14797 5.48181,-2.50195 7.43207,-8.95907 7.83781,-14.51728 -9.83621,0.64297 -17.47666,-6.87045 -24.00244,-13.20455 -9.39467,-9.55841 -16.89136,-20.82985 -23.05002,-32.74109 2.16944,-5.01617 5.17305,-10.79879 5.05593,-16.17565 -0.23887,-7.50748 0.13891,-19.18107 -6.17135,-23.36935 -5.91317,-6.87146 -20.40421,-7.34911 -29.61797,-7.37876 z"
         id="path14129"
         sodipodi:nodetypes="cccccccccccccc"
         inkscape:connector-curvature="0" />
      <path
         style="color:#000000;fill:#b4b4b4;fill-opacity:1;fill-rule:nonzero;stroke:none;stroke-width:8.39999962;marker:none;visibility:visible;display:inline;overflow:visible;enable-background:accumulate"
         d="m 101.04853,130.671 c -11.127649,0.021 -19.819237,8.41166 -20.514666,21.01659 -0.824128,14.93917 9.893783,30.15686 23.925216,33.97661 6.44707,1.75509 12.34064,-0.11973 16.92394,-4.1055 4.59244,9.78208 23.26483,46.4986 45.97138,49.02155 7.2803,0.97072 8.73866,-8.73868 8.73866,-8.73868 -11.35066,-0.53078 -31.29612,-19.08306 -45.70567,-46.72428 -0.29454,-0.565 -3.93292,3.92838 -4.22273,3.35587 1.92909,-5.6808 6.75504,-11.95603 7.2957,-18.01559 0.82413,-14.93919 1.05748,-23.03248 -12.97391,-26.85223 -2.19242,-0.59683 -17.37725,-2.93823 -19.43792,-2.93434 z"
         id="path13154"
         sodipodi:nodetypes="csscccsccsc"
         inkscape:connector-curvature="0" />
      <path
         id="rect2542"
         d="m 119.4375,7.90625 c -6.52499,0.014143 -11.51163,6.450696 -10.41807,12.771846 -8.3115,61.03776 -17.271658,122.061654 -24.98818,183.134404 2.555738,10.21019 18.50766,14.16921 24.90625,5.59375 3.61181,-12.85595 3.51254,-26.36361 6.08213,-39.50399 6.73275,-50.73495 14.65229,-101.455642 20.54287,-152.21476 -1.82396,-6.836449 -9.68912,-9.8758856 -16.125,-9.78125 z"
         style="color:#000000;fill:#8f5902;fill-opacity:1;fill-rule:nonzero;stroke:none;stroke-width:4.40723753;marker:none;visibility:visible;display:inline;overflow:visible;enable-background:accumulate"
         inkscape:connector-curvature="0" />
      <rect
         style="color:#000000;fill:#fcaf3e;fill-opacity:1;fill-rule:nonzero;stroke:none;stroke-width:4.40723753;marker:none;visibility:visible;display:inline;overflow:visible;enable-background:accumulate"
         id="rect8246"
         width="18.478729"
         height="199.23947"
         x="115.0238"
         y="-12.857941"
         transform="matrix(0.9794735,0.2015728,-0.1368021,0.9905984,0,0)"
         ry="6.019043"
         rx="17.946199" />
      <path
         style="color:#000000;fill:#555753;fill-opacity:1;fill-rule:nonzero;stroke:none;stroke-width:9.72461319;marker:none;visibility:visible;display:inline;overflow:visible;enable-background:accumulate"
         d="m 88.242972,117.95551 c -6.546614,0.15583 -13.196928,6.29919 -12.783484,12.77984 -0.120133,3.06542 2.304232,6.27206 3.259737,8.88025 -5.956203,1.94105 -10.638427,9.0444 -8.847098,15.06884 1.012421,4.20528 4.838517,7.48883 7.766024,10.51658 -2.530496,6.72445 1.1641,14.76489 7.188792,17.72921 8.898824,5.03849 22.384157,4.15283 29.979557,-3.23767 4.55518,-4.60804 4.2005,-12.61147 -0.34751,-17.09127 -1.30952,-1.67824 -3.53319,-2.6952 -4.86483,-4.11837 0.0661,-2.25214 -1.17658,-4.49924 -1.72457,-6.39636 5.42341,-3.93024 6.23226,-11.79424 3.56495,-17.59319 -3.59069,-9.32819 -12.924125,-16.80222 -23.191568,-16.53786 z"
         id="path12134"
         sodipodi:nodetypes="cccccccccccc"
         inkscape:connector-curvature="0" />
      <path
         style="color:#000000;fill:#b4b4b4;fill-opacity:1;fill-rule:nonzero;stroke:none;stroke-width:9.72461319;marker:none;visibility:visible;display:inline;overflow:visible;enable-background:accumulate"
         d="m 95.948414,123.65313 c -4.427585,-2.34358 -11.441716,-2.52744 -14.064052,2.49769 -4.574199,14.41508 6.567123,16.62659 15.901136,22.88158 -5.706835,-0.50776 -10.859254,-5.21639 -14.007218,-5.8112 -4.591702,-0.8676 -8.436413,0.79849 -9.196377,8.5162 2.002273,12.06047 14.945755,12.47666 27.170497,13.29934 -5.732121,3.99209 -19.702685,0.15452 -20.008845,0.82513 -1.871473,4.09946 0.57649,9.44244 4.35959,11.74014 7.657216,5.15681 19.188175,5.72193 26.047545,-1.09899 4.76665,-4.48384 -1.69459,-17.47887 -7.28179,-13.59529 2.20185,-5.27204 0.81087,-10.72755 -4.78292,-12.81204 6.69286,0.53513 10.30142,-8.07273 7.8299,-13.19957 -1.90825,-5.80412 -6.37067,-10.70451 -11.967466,-13.24299 z"
         id="path12147"
         sodipodi:nodetypes="cccsccscccccc"
         inkscape:connector-curvature="0" />
      <g
         id="g12171"
         transform="matrix(0.3747361,0.2399862,-0.259102,0.4040961,802.97069,401.28447)"
         style="stroke:#555753;stroke-width:8.40000057;stroke-miterlimit:4;stroke-dasharray:none">
        <path
           transform="matrix(0.9616877,-0.2741473,0.2741473,0.9616877,-149.35808,-453.95001)"
           d="m -1580.8333,326 c 0,24.39258 -13.8045,44.16667 -30.8333,44.16667 -17.0288,0 -30.8334,-19.77409 -30.8334,-44.16667 0,-24.39258 13.8046,-44.16667 30.8334,-44.16667 17.0288,0 30.8333,19.77409 30.8333,44.16667 z"
           sodipodi:ry="44.166668"
           sodipodi:rx="30.833334"
           sodipodi:cy="326"
           sodipodi:cx="-1611.6666"
           id="path10190"
           style="color:#000000;fill:#b4b4b4;fill-opacity:1;fill-rule:nonzero;stroke:#555753;stroke-width:8.40000057;stroke-linecap:butt;stroke-linejoin:miter;stroke-miterlimit:4;stroke-opacity:1;stroke-dasharray:none;stroke-dashoffset:0;marker:none;visibility:visible;display:inline;overflow:visible;enable-background:accumulate"
           sodipodi:type="arc" />
      </g>
      <path
         style="color:#000000;fill:#555753;fill-opacity:1;fill-rule:nonzero;stroke:none;stroke-width:8.39999962;marker:none;visibility:visible;display:inline;overflow:visible;enable-background:accumulate"
         d="m 108.79338,20.897822 c 4.63415,-3.886825 19.57332,-3.239432 26.40529,2.447867 L 272.39602,38.161914 260.1235,122.83716 122.17106,107.18606 c -6.05562,-3.42323 -18.34266,-4.15233 -25.412502,-3.28734 2.842719,-27.641469 6.665142,-54.095953 12.034822,-83.000898 z"
         id="rect14141"
         sodipodi:nodetypes="ccccccc"
         inkscape:connector-curvature="0" />
      <path
         style="color:#000000;fill:#ffffff;fill-opacity:1;fill-rule:nonzero;stroke:none;stroke-width:8.39999962;marker:none;visibility:visible;display:inline;overflow:visible;enable-background:accumulate"
         d="m 134.59313,28.328852 131.21103,14.594709 -10.40889,74.193549 c -43.18463,-5.42709 -87.05565,-9.13461 -130.2403,-14.56169 l 9.43816,-74.226568 z"
         id="rect15128"
         sodipodi:nodetypes="ccccc"
         inkscape:connector-curvature="0" />
      <path
         style="color:#000000;fill:#ffffff;fill-opacity:1;fill-rule:nonzero;stroke:none;stroke-width:8.39999962;marker:none;visibility:visible;display:inline;overflow:visible;enable-background:accumulate"
         d="m 112.17671,26.265853 c -5.61573,26.089835 -6.4691,46.944489 -9.61113,71.385203 0,-1.853817 17.84793,1.036266 17.84793,2.402384 1.56408,0.67032 11.3696,-73.248245 9.73086,-73.950562 0,0 -12.13328,-5.671392 -17.96766,0.162975 z"
         id="path15132"
         sodipodi:nodetypes="ccccc"
         inkscape:connector-curvature="0" />
    </g>
    <g
       transform="matrix(0.948769,0,0,0.948769,643.92167,-119.64613)"
       id="g16185">
      <path
         style="color:#000000;fill:#8f5902;fill-opacity:1;fill-rule:nonzero;stroke:none;stroke-width:10;marker:none;visibility:visible;display:inline;overflow:visible;enable-background:accumulate"
         d="m 354.63759,297.07917 c -6.49447,0.32579 -14.42112,0.0237 -18.9574,5.48259 -4.87732,7.39201 -3.10083,16.86338 -2.43242,25.18645 0.14385,2.70352 1.33055,5.63495 1.02055,8.16469 -8.51647,10.23315 -13.45953,15.6793 -21.71829,26.11601 8.22364,11.13265 21.22584,24.75116 34.68735,29.48979 1.07635,-9.9461 2.16981,-19.89091 3.16601,-29.84536 11.21128,16.25433 28.87923,26.68931 46.87097,34.00756 12.79215,4.89961 27.06201,8.15741 40.67028,4.84677 7.72483,-2.29879 14.18356,-9.60027 13.73221,-17.95357 0.0172,-9.84105 -4.311,-18.92972 -7.63187,-27.99209 -10.48484,-24.37337 -31.32952,-44.33557 -56.80329,-52.34779 -10.46588,-3.5125 -21.53067,-5.35227 -32.6041,-5.15505 z"
         id="path5302"
         sodipodi:nodetypes="ccccccccccccc"
         inkscape:connector-curvature="0" />
      <path
         style="color:#000000;fill:#e9b96e;fill-opacity:1;fill-rule:nonzero;stroke:none;stroke-width:10;marker:none;visibility:visible;display:inline;overflow:visible;enable-background:accumulate"
         d="m 319.56241,359.59201 19.41501,-22.86656 c 0,0 -6.04022,-26.74954 0.86289,-32.78977 6.90311,-6.04022 88.01466,-9.92322 107.42966,73.777 6.9031,42.71297 -89.309,10.35465 -99.66367,-31.49546 0.8629,-4.74587 -3.45155,35.37846 -3.45155,35.37846 0,0 -15.532,-22.00367 -24.59234,-22.00367 z"
         id="path2207"
         inkscape:connector-curvature="0" />
      <path
         style="color:#000000;fill:#555753;fill-opacity:1;fill-rule:nonzero;stroke:none;stroke-width:10;marker:none;visibility:visible;display:inline;overflow:visible;enable-background:accumulate"
         d="m 486.76028,138.4187 c -23.18494,0.35032 -44.48409,14.2421 -57.49348,32.81866 -28.89341,3.02691 -37.33367,11.73449 -44.86106,33.8733 -12.43349,4.75148 -27.63005,12.77824 -23.23022,28.08219 -0.41743,4.56369 0.74142,9.32929 -1.22937,13.6304 -9.22045,36.64354 -7.74547,76.57651 7.10725,111.52852 2.74608,5.79708 6.52793,12.74705 13.46562,13.90065 9.97601,1.87889 19.5865,-3.39878 26.9484,-9.64078 4.97539,-4.20984 10.30156,-8.27097 16.70307,-9.94479 9.31689,-3.60389 20.75154,-12.79676 23.79553,-22.84229 3.08601,-14.63475 -4.62151,-19.23948 -17.58042,-21.31654 -16.11451,-1.70652 -33.21794,10.57242 -47.64008,-9.69141 6.33294,-11.63505 16.55513,-29.94667 23.68925,-41.12371 3.01746,4.64446 5.88246,9.77776 11.08958,10.63485 1.68464,17.74074 22.02713,17.02249 27.60297,13.86773 16.80821,18.7336 60.33277,17.10412 82.62832,14.40283 18.70543,-3.50333 39.0511,-11.95315 49.49955,-28.3896 26.02508,-66.23489 1.18193,-87.03056 -43.98299,-116.21224 -14.0188,-8.19485 -30.02172,-13.93737 -46.51192,-13.57777 z"
         id="path5331"
         sodipodi:nodetypes="ccccccccccccccccccc"
         inkscape:connector-curvature="0" />
      <path
         style="color:#000000;fill:#f8eda6;fill-opacity:1;fill-rule:nonzero;stroke:none;stroke-width:10;marker:none;visibility:visible;display:inline;overflow:visible;enable-background:accumulate"
         d="m 487.45525,142.5242 c -28.57275,0.40377 -42.09718,17.11967 -49.22218,26.46992 0,0 18.54068,-0.18103 38.79754,6.79885 -52.08221,-13.00441 -91.20402,16.25487 -85.88103,27.32286 12.55984,-5.19119 45.26445,0.63879 43.02417,1.63448 -20.7545,-0.0908 -74.09932,-1.8787 -68.50663,36.69216 -18.91478,63.45608 3.66086,122.63167 13.42334,126.29261 34.86511,8.08825 35.42855,-38.98595 59.17593,-46.70497 6.41354,2.31885 -11.33806,25.52066 -16.76952,28.32671 -1.6904,0.87331 4.42333,3.09488 10.74639,-5.66277 19.6839,-19.20835 12.99127,-34.47376 -11.46711,-31.11949 -7.41639,1.06484 -22.75067,1.86664 -28.57295,0.60892 -0.96871,1.35107 14.75891,5.18394 10.59569,8.40199 0,0 -11.01356,-3.43399 -13.26934,-8.80546 0,0 -0.69539,-0.49292 -1.02951,-0.75503 3.1699,11.83021 15.95579,19.39998 15.95579,19.39998 -14.36728,-1.43568 -25.83687,-26.85866 -26.57515,-32.63409 0,0 28.19802,-51.60669 28.19802,-47.33559 3.63477,12.44029 19.90249,17.86256 35.21212,10.43751 0.0701,-0.0129 -4.39659,7.34804 -19.29202,7.00124 5.45136,18.58356 25.98937,12.16873 41.24812,-5.30241 0,-10e-6 -2.10569,8.71515 -14.76181,16.74377 16.27558,13.39267 92.36791,28.68107 121.9297,-11.54432 -8.21302,1.17206 -62.71644,8.61635 -60.81041,-0.91377 12.35513,-19.21909 -12.35514,-82.36754 -12.35513,-82.36754 -5.37042,-8.10434 35.48565,-19.29196 55.72679,-14.4658 -1.20862,-1.00675 -2.36187,-1.9398 -3.3848,-2.75416 -24.46164,-19.474 -45.17791,-26.00524 -62.13601,-25.7656 z m 68.76403,31.29967 c 12.26629,15.01925 16.6258,75.10064 15.97158,92.40608 8.22555,-12.68272 12.11996,-30.40092 8.86738,-54.68432 -2.04665,-15.28002 -14.87117,-28.95035 -24.83896,-37.72176 z"
         id="path2209"
         sodipodi:nodetypes="csccccccscccssccccccscccccscccsc"
         inkscape:connector-curvature="0" />
      <path
         style="color:#000000;fill:#555753;fill-opacity:1;fill-rule:nonzero;stroke:none;stroke-width:10;marker:none;visibility:visible;display:inline;overflow:visible;enable-background:accumulate"
         d="m 213.64755,125.26563 c -20.15027,0.46126 -37.99796,14.72378 -46.21593,32.57379 -5.75881,11.84616 -6.89684,25.75835 -4.87768,38.5583 -16.04417,5.56833 -29.12352,19.19108 -33.47471,35.67544 -19.24715,-2.14923 -39.047606,-3.17461 -58.081962,0.96525 -7.530164,1.5955 -14.733535,4.40054 -21.60863,7.76057 -5.012765,1.45429 -10.766138,0.74991 -15.044925,4.25994 -4.08263,2.76197 -5.637441,7.95248 -4.736134,12.66401 1.485416,9.09838 8.725647,15.82102 15.546873,21.37695 11.692237,8.99657 27.064738,12.79939 41.698567,10.54047 21.693221,-2.49642 40.959111,-13.8262 61.067791,-21.41556 8.4486,-2.55601 17.58679,-0.23789 26.08876,-2.76046 3.86967,-0.92807 7.63041,-2.46089 10.95089,-4.7041 25.20315,20.1809 23.06069,49.83226 15.36752,78.30932 -7.64437,-5.86922 -14.85112,-17.92721 -24.10618,-20.8837 -17.26609,4.92136 -22.76318,25.64036 -33.28859,41.716 4.72015,3.638 7.12265,1.34837 11.79659,5.04545 7.31926,-9.43582 14.16059,-19.88341 21.51935,-29.31611 7.76684,5.52905 16.77439,16.7816 23.05673,23.92556 8.12099,50.64182 51.67921,46.17421 92.26986,32.0136 7.14947,6.40636 17.09195,12.63738 27.13198,12.58607 9.26848,-1.22464 10.85935,-15.73015 13.52945,-28.82844 -3.95648,-5.23432 -3.73676,-5.99123 -8.86215,-9.18597 -5.43166,9.78265 -4.2625,13.45508 -9.77016,23.19567 -1.06251,-0.79879 -10.35872,-9.68332 -8.69996,-11.44389 22.41818,-47.29302 9.04814,-81.359 -29.2758,-113.0924 19.21187,-10.38291 42.56224,-9.74286 63.03171,-3.8304 1.14747,0.57099 3.86883,0.70916 3.92796,1.70172 -3.35968,4.49695 -6.44731,10.91429 -3.40796,16.33708 4.15101,6.35026 11.06105,10.09369 17.00117,14.55589 12.2713,8.07186 25.39057,15.16912 39.4592,19.53655 20.76931,-0.69721 20.45078,-11.95769 11.80173,-24.19546 4.21843,-2.13385 8.60052,-8.08862 2.9136,-19.76073 6.80214,-16.65715 -15.45408,-29.61515 -29.95292,-31.14512 -8.69722,-0.44779 -17.08934,2.45261 -25.36508,4.49551 -15.01643,-1.74806 -29.94819,-3.92108 -44.95661,-5.84157 18.66991,-12.6947 33.88472,-32.09801 37.37427,-54.85164 2.50631,-16.67939 -3.19196,-35.46766 -17.4811,-45.24091 -14.36415,-10.0003 -33.50004,-9.91318 -49.69292,-4.73475 -10.57488,3.09488 -20.55813,8.08474 -29.96819,13.65673 -8.24331,-11.78409 -21.87299,-20.66998 -36.66641,-20.21866 z"
         id="path2242"
         sodipodi:nodetypes="ccccccccccccccccccccccccccccccccccccccccc"
         inkscape:connector-curvature="0" />
      <path
         style="color:#000000;fill:#b4b4b4;fill-opacity:1;fill-rule:nonzero;stroke:none;stroke-width:10;marker:none;visibility:visible;display:inline;overflow:visible;enable-background:accumulate"
         d="m 213.67325,129.39688 c -28.13173,0.38588 -55.52927,32.58918 -46.03571,69.78075 -24.23649,6.06009 -35.27979,29.44414 -35.05769,37.38714 -64.066211,-7.93202 -77.478117,7.94308 -84.799932,9.16339 -1.830495,-3e-5 -21.332576,-0.61376 -11.570086,18.30104 38.439736,50.6428 98.095088,-1.99399 118.969618,-1.23552 17.93153,0.65153 23.36689,-4.6972 26.53779,-6.78245 12.69667,-13.86577 10.46582,-15.96896 15.70131,-23.95094 l 13.17881,-17.27144 c 3.33164,1.02511 -4.56193,18.50057 -10.82363,22.03332 -1.82864,5.04634 -14.12834,19.23583 -13.4748,19.88404 33.67457,27.21631 20.6764,62.5101 15.4358,97.86676 -0.4323,-0.36601 -0.94862,-10.99924 -1.37319,-11.3518 -14.06747,-11.68166 -23.80516,-20.94268 -23.80516,-20.94268 -9.15721,-2.04363 -20.54407,21.94175 -28.94684,36.34468 l 5.35867,2.2889 23.18543,-30.86643 c 4e-5,-10e-6 18.68681,19.40707 26.6188,29.16954 12.79934,59.16352 71.41668,34.41047 85.21266,29.22489 1.06801,-0.40144 -8.17281,-11.24199 -8.22493,-13.86881 10.11708,11.1984 20.79719,23.33956 37.63106,27.09885 8.69966,-4e-5 12.45303,-29.36312 12.45303,-29.36312 -1.09806,-2.44497 -2.71869,-4.05383 -4.6433,-5.17632 l -9.97449,27.60862 c -5.68288,-2.61048 -22.44433,-22.11745 -25.46439,-27.59826 0.2523,-0.45747 12.01261,9.5656 12.25492,9.11019 29.66202,-55.74742 -14.80601,-97.40618 -29.54034,-108.64439 -0.55498,-0.42329 -11.13889,5.62754 -11.60395,5.29143 -1.49051,-1.07721 7.58041,-8.13311 7.25323,-8.27705 34.77342,-24.31538 83.53207,-4.26473 81.09341,-3.65506 0,-1e-5 -10.57748,11.44804 -6.22904,16.5636 11.58709,13.63121 47.15429,30.77272 53.80917,31.66002 13.92465,0.041 13.96762,-7.64941 9.91582,-14.50415 -2.3309,-3.94337 -6.65974,-6.69714 -9.31972,-9.49227 17.77737,2.59382 14.0972,-13.28391 4.50859,-17.85571 0.0603,-0.6667 5.94701,0.46837 5.98412,-0.18875 -0.91142,-27.85203 -32.02849,-27.55997 -51.35882,-20.18522 L 298.1,239.17736 c 74.93288,-41.33384 51.73456,-131.3037 -25.58542,-100.28248 -29.17584,8.28703 -41.11402,43.52936 -43.30545,73.11742 -0.49656,-2.12939 -2.06039,-10.99915 -2.30732,-13.02402 -27.55063,-16.541 -38.21685,-8.08436 -56.7804,5.62046 21.30367,-30.37307 44.37008,-18.60696 57.92757,-8.5585 -1.03112,-18.10467 7.62855,-32.41525 18.90595,-48.1078 -2.07505,-8.8882 -21.40996,-18.70841 -33.28168,-18.54556 z m 92.03288,32.21343 c 10.08405,0.0544 18.16917,5.10661 19.48507,19.03462 -9.53596,-30.39481 -59.70724,-3.24392 -66.39596,22.49664 19.84132,-9.01941 18.02389,23.59559 -0.69498,17.02691 1.89667,7.35141 9.30333,7.85934 22.32933,2.39381 -37.21683,20.77536 -34.38614,-19.89129 -16.92396,-41.22238 8.44838,-9.2003 27.46227,-19.80906 42.2005,-19.7296 z m -67.55424,79.21441 c 17.30256,5.68703 21.99826,8.04277 48.00482,0 -14.00105,6.02595 -32.83692,11.08494 -39.60324,18.55784 l 3.59657,-8.4648 -11.99815,-10.09304 z"
         id="path2161"
         sodipodi:nodetypes="cccccsccccccscccccsccccccssscsscscccccccccccccccccccccccc"
         inkscape:connector-curvature="0" />
      <path
         style="color:#000000;fill:#8f5902;fill-opacity:1;fill-rule:nonzero;stroke:none;stroke-width:10;marker:none;visibility:visible;display:inline;overflow:visible;enable-background:accumulate"
         d="m 70.920007,322.53589 c -7.025292,0.63161 -14.760181,0.16279 -20.888655,4.11709 -13.120326,10.51371 -16.977927,30.48697 -9.831843,45.59944 6.425369,14.48939 19.780689,24.34587 33.178346,32.04019 17.549722,9.63663 36.821585,15.80576 56.113055,20.9966 10.33407,2.52032 20.94721,4.81549 31.64733,4.28587 5.04119,-0.45858 10.88039,-3.49069 11.36413,-9.08617 0.76235,-6.63289 -3.24602,-12.40673 -5.12223,-18.5198 -3.30545,-8.37804 -6.92069,-16.63008 -10.45038,-24.91621 4.70664,-3.93323 9.41069,-7.86961 14.11829,-11.80172 -6.36347,-8.13079 -13.40083,-17.20119 -24.04103,-19.48507 -4.38582,-1.33768 -9.30819,2.02028 -9.72966,6.56366 -0.72455,1.96745 -1.25232,3.99702 -1.80179,6.02313 -13.91139,-21.5148 -38.365815,-36.90866 -64.555563,-35.81701 z"
         id="path5290"
         inkscape:connector-curvature="0" />
      <path
         style="color:#000000;fill:#555753;fill-opacity:1;fill-rule:nonzero;stroke:none;stroke-width:10;marker:none;visibility:visible;display:inline;overflow:visible;enable-background:accumulate"
         d="m 130.90676,234.87881 c 2.13686,4.30755 7.19304,7.72588 12.072,5.92017 8.23057,18.3803 33.8325,4.89754 38.07159,-10.92299 4.17978,-15.59907 5.89208,-36.08992 -14.49216,-30.46801 -13.90813,-18.7966 -43.38735,14.23617 -35.65143,35.47083 z"
         id="path2259"
         sodipodi:nodetypes="cczcc"
         inkscape:connector-curvature="0" />
      <path
         style="color:#000000;fill:#ffffff;fill-opacity:1;fill-rule:nonzero;stroke:none;stroke-width:10;marker:none;visibility:visible;display:inline;overflow:visible;enable-background:accumulate"
         d="m 133.35567,210.7766 c -7.06466,7.82668 -2.01747,34.06378 11.30309,26.66372 4.09124,20.74834 28.53101,5.97794 32.20094,-7.71845 7.37164,-27.51142 -3.72652,-29.9736 -11.38464,-25.73535 -7.29365,4.03658 -13.62915,11.82948 -19.78892,29.1402 1.68972,-11.45978 9.5256,-28.09105 17.69889,-31.53004 -4.79301,-9.44091 -24.89337,1.0604 -30.02936,9.17992 z"
         id="path2168"
         sodipodi:nodetypes="ccssccc"
         inkscape:connector-curvature="0" />
      <path
         style="color:#000000;fill:#000000;fill-opacity:1;fill-rule:nonzero;stroke:none;stroke-width:10;marker:none;visibility:visible;display:inline;overflow:visible;enable-background:accumulate"
         d="m 164.85677,228.04394 c -2.03324,-0.10381 -3.91234,2.27996 -4.21911,5.30834 -0.30678,3.02839 1.06077,5.57063 3.09401,5.67444 2.03328,0.10381 3.91237,-2.27995 4.21919,-5.30835 0.01,-0.0945 -0.006,-0.18109 0,-0.27456 -0.39528,0.43507 -0.96703,0.73218 -1.68767,0.73218 -1.19914,0 -2.19398,-0.77417 -2.19398,-1.73894 0,-0.96477 0.99484,-1.73894 2.19398,-1.73894 0.59956,0 1.12568,0.18703 1.51886,0.50338 -0.4323,-1.8002 -1.49822,-3.08469 -2.92528,-3.15755 z"
         id="path2173"
         inkscape:connector-curvature="0" />
      <path
         id="path2178"
         d="m 143.76887,220.91784 c -1.65551,-0.0757 -3.14331,2.33375 -3.34137,5.36595 -0.19801,3.0322 0.95753,5.55515 2.61303,5.63082 1.65551,0.0757 3.14331,-2.33374 3.34136,-5.36594 0.006,-0.0946 -0.008,-0.181 -0.005,-0.27454 -0.31411,0.44048 -0.77409,0.74546 -1.36022,0.75542 -0.97531,0.0166 -1.79759,-0.74369 -1.81402,-1.70833 -0.0164,-0.96464 0.77957,-1.75246 1.75488,-1.76904 0.48766,-0.008 0.91877,0.17142 1.24396,0.4823 -0.38227,-1.79398 -1.27106,-3.06353 -2.43297,-3.11664 z"
         style="color:#000000;fill:#000000;fill-opacity:1;fill-rule:nonzero;stroke:none;stroke-width:10;marker:none;visibility:visible;display:inline;overflow:visible;enable-background:accumulate"
         inkscape:connector-curvature="0" />
      <path
         style="color:#000000;fill:#a40000;fill-opacity:1;fill-rule:nonzero;stroke:none;stroke-width:10;marker:none;visibility:visible;display:inline;overflow:visible;enable-background:accumulate"
         d="m 199.70738,236.90868 c -1.30936,2.24082 -3.11992,6.2295 -4.75644,7.30448 15.92614,17.28763 17.95135,55.14537 41.09988,32.9874 17.85053,-21.87537 -16.0536,-42.85676 -31.5244,-45.9419 -3.55573,1.63185 -2.37845,2.43553 -4.81904,5.65002 z"
         id="path2292"
         sodipodi:nodetypes="ccccc"
         inkscape:connector-curvature="0" />
      <path
         style="color:#000000;fill:#ef2929;fill-opacity:1;fill-rule:nonzero;stroke:none;stroke-width:10;marker:none;visibility:visible;display:inline;overflow:visible;enable-background:accumulate"
         d="m 203.13284,232.31218 c -0.73501,0.12088 -1.42928,1.29001 -3.51355,4.76739 12.83999,-2.49321 18.87057,12.71828 17.2457,12.9214 L 199.2551,237.5316 c -2.41691,3.14092 -4.32697,6.52957 -4.5763,6.52957 14.76068,6.90476 20.1548,40.41683 29.74086,35.65647 14.44887,-7.17519 18.00419,-31.72518 -20.28301,-47.28412 -0.0429,-0.0143 -0.94854,-0.13043 -1.00381,-0.12134 z"
         id="path2180"
         sodipodi:nodetypes="cccccscc"
         inkscape:connector-curvature="0" />
      <path
         sodipodi:type="arc"
         style="color:#000000;fill:#000000;fill-opacity:1;fill-rule:nonzero;stroke:none;stroke-width:10;marker:none;visibility:visible;display:inline;overflow:visible;enable-background:accumulate"
         id="path2185"
         sodipodi:cx="21.655146"
         sodipodi:cy="97.082977"
         sodipodi:rx="12.816311"
         sodipodi:ry="24.896051"
         d="m 34.471457,97.082977 c 0,13.749713 -5.738058,24.896053 -12.816311,24.896053 -7.078253,0 -12.8163112,-11.14634 -12.8163112,-24.896053 0,-13.749709 5.7380582,-24.896051 12.8163112,-24.896051 7.078253,0 12.816311,11.146342 12.816311,24.896051 z"
         transform="matrix(1.6655823,-0.189739,0.2388868,1.3229105,-23.448854,106.96423)" />
      <path
         style="color:#000000;fill:#e9b96e;fill-opacity:1;fill-rule:nonzero;stroke:none;stroke-width:10;marker:none;visibility:visible;display:inline;overflow:visible;enable-background:accumulate"
         d="m 134.95237,365.24209 c 0,0 -21.8419,-48.88543 -79.223985,-36.80498 -7.334541,-1.29435 -55.32014006,57.9998 71.188325,91.89765 39.68044,10.63233 42.71301,3.02013 41.41865,-3.45157 -1.29433,-6.47166 -16.39489,-40.98722 -16.39489,-40.98722 l 13.3748,-11.21754 c 0,0 -12.51188,-17.25778 -22.43511,-14.6691 -1.26508,1.26506 -3.58196,8.78831 -4.86714,13.79102 -0.17639,0.68657 5.11548,12.26901 4.95733,12.88992 -0.65437,2.5697 -8.01798,-11.44818 -8.01798,-11.44818 z"
         id="path2205"
         sodipodi:nodetypes="ccsscccssc"
         inkscape:connector-curvature="0" />
      <path
         style="opacity:0.6;color:#000000;fill:#c17d11;fill-opacity:1;fill-rule:nonzero;stroke:none;stroke-width:10;marker:none;visibility:visible;display:inline;overflow:visible;enable-background:accumulate"
         d="m 52.803473,337.54652 c 16.944073,-8.74193 37.4692,34.92572 63.834387,53.19775 21.47384,14.88216 44.57229,22.90443 43.5866,30.54258 -18.59933,7.52683 -150.062045,-31.19893 -107.420987,-83.74033 z"
         id="path2282"
         sodipodi:nodetypes="cscc"
         inkscape:connector-curvature="0" />
      <path
         sodipodi:type="arc"
         style="opacity:0.4;color:#000000;fill:#ffffff;fill-opacity:1;fill-rule:nonzero;stroke:none;stroke-width:10;marker:none;visibility:visible;display:inline;overflow:visible;enable-background:accumulate"
         id="path2303"
         sodipodi:cx="-1541.4626"
         sodipodi:cy="590.00568"
         sodipodi:rx="24.726122"
         sodipodi:ry="34.978416"
         d="m -1516.7365,590.00568 c 0,19.31804 -11.0703,34.97841 -24.7261,34.97841 -13.6559,0 -24.7262,-15.66037 -24.7262,-34.97841 0,-19.31805 11.0703,-34.97842 24.7262,-34.97842 13.6558,0 24.7261,15.66037 24.7261,34.97842 z"
         transform="matrix(0.4118377,0,0,0.4657017,663.29001,-50.901396)" />
      <path
         style="opacity:0.4;color:#000000;fill:#ffffff;fill-opacity:1;fill-rule:nonzero;stroke:none;stroke-width:10;marker:none;visibility:visible;display:inline;overflow:visible;filter:url(#filter5275);enable-background:accumulate"
         d="m -1473.7049,625.61122 c -0.7597,0.65155 -3.1926,20.94892 -0.882,20.0244 39.2717,-15.71373 100.1226,-28.41087 173.1852,-30.94038 -14.4738,-3.61846 -111.6527,-18.65878 -172.3032,10.91598 z"
         id="path4251"
         sodipodi:nodetypes="cscc"
         transform="matrix(0.4118377,0,0,0.4118377,666.78483,-14.643358)"
         inkscape:connector-curvature="0" />
      <path
         style="color:#000000;fill:#555753;fill-opacity:1;fill-rule:nonzero;stroke:none;stroke-width:10;marker:none;visibility:visible;display:inline;overflow:visible;enable-background:accumulate"
         d="m 127.57463,208.2253 c 0,0 -11.67334,12.66685 -0.24834,22.35326 -2.98043,-8.1962 -2.48371,-17.1375 0.24834,-22.35326 z"
         id="path5329"
         sodipodi:nodetypes="ccc"
         inkscape:connector-curvature="0" />
      <path
         style="color:#000000;fill:#ffffff;fill-opacity:1;fill-rule:nonzero;stroke:none;stroke-width:10;marker:none;visibility:visible;display:inline;overflow:visible;enable-background:accumulate"
         d="m 549.4497,173.54073 c -16.20312,0.24434 -32.78577,2.73371 -47.10394,10.59195 -0.86588,0.47553 -2.18664,1.65698 -1.13256,2.68982 7.8758,22.11751 15.31808,44.99229 15.08356,68.73828 -0.29107,4.26177 -1.24979,8.47834 -2.81851,12.43235 4.24082,1.4771 8.89555,0.98705 13.32037,1.29987 14.14189,0.0426 28.32612,-1.93114 42.23911,-3.6808 -0.2976,-1.92059 -0.23666,-3.87635 -0.1748,-5.85575 -0.47798,-23.29041 -2.96563,-46.68621 -8.74406,-69.22741 -1.74597,-5.67995 -3.57796,-11.83688 -7.96649,-16.08741 -0.77701,-0.56684 -1.72803,-0.9588 -2.70268,-0.9009 z"
         id="path2186"
         inkscape:connector-curvature="0" />
      <path
         style="font-size:65.09156799px;font-style:normal;font-variant:normal;font-weight:normal;font-stretch:normal;text-align:center;line-height:100%;writing-mode:lr-tb;text-anchor:middle;fill:#555753;fill-opacity:1;stroke:none;font-family:Bitstream Vera Sans"
         d="m 527.70224,258.74942 c -0.69916,-2.66516 -0.36839,-7.54059 -0.36839,-7.54059 0,0 15.82029,-4.14915 12.31905,-4.81736 -4.53451,-1.13847 -9.069,-2.27699 -13.60349,-3.41548 -1.29293,-2.86387 0.58926,-7.4489 0.58926,-7.4489 0,0 21.35981,-0.0491 28.95423,-0.4851 1.88153,3.1286 -0.62608,5.18869 -0.62608,5.18869 -4.93615,0.28335 -16.86606,0.36105 -21.80221,0.64441 5.04088,1.26321 10.08179,2.5263 15.12269,3.78946 0.45729,6.64202 -9.24153,5.48796 -13.18781,8.7183 6.41188,-0.36814 14.66665,2.18695 22.73252,2.18695 4.00122,0.80024 1.16162,5.67958 0.0287,5.45299 -7.10445,0.40784 -23.87676,-1.44701 -30.15842,-2.27337 z m 21.13259,-40.71774 c 0.619,2.57514 -0.3002,5.64083 1.56463,7.80685 2.23104,0.61681 5.64429,1.25103 4.75938,4.62017 -3.08344,3.05602 -30.86241,-4.21172 -30.86241,-4.21172 -4.03646,-2.50989 0.0398,-6.19339 3.94294,-7.74443 0,0 17.60383,-4.75034 24.86299,-7.22837 1.559,3.22569 -0.44321,7.17328 -4.26753,6.7575 z m -4.94025,7.30487 c 0.94369,-3.21011 0.0827,-5.91351 0.0827,-5.91351 -1.32791,0.47069 -13.17033,2.48309 -12.00337,3.67901 3.15076,0.6077 8.76992,1.62681 11.92068,2.2345 z m -23.36016,-14.3325 c -2.15581,-3.31414 4.93628,-5.49609 4.93628,-5.49609 7.2228,-0.41464 16.5026,-1.85775 23.7254,-2.27238 2.15582,3.31412 -3.49639,5.90748 -3.49639,5.90748 -7.2228,0.41463 -17.94249,1.44636 -25.16529,1.86099 z m -0.66605,-11.31083 c -3.67087,-8.17826 17.57623,-6.02181 22.95895,-6.43622 0.51796,-3.06081 -6.10085,-13.25481 -2.17851,-14.98618 4.66085,-0.11997 7.18515,18.81597 6.33595,19.96022 -8.49027,0.48734 -18.62613,0.97481 -27.11639,1.46218 z"
         id="text2199"
         sodipodi:nodetypes="cccccccccccccccccccccccccccccccccc"
         inkscape:connector-curvature="0" />
      <path
         sodipodi:nodetypes="cscc"
         id="path2225"
         d="m -1047.0838,507.76009 c -0.7597,0.65155 -1.8547,22.31514 -0.882,20.0244 40.4502,-95.26324 103.06887,-157.16323 184.08642,-161.75513 -71.92623,2.56872 -150.24892,9.62549 -183.20442,141.73073 z"
         style="opacity:0.2;color:#000000;fill:#ffffff;fill-opacity:1;fill-rule:nonzero;stroke:none;stroke-width:10;marker:none;visibility:visible;display:inline;overflow:visible;filter:url(#filter5275);enable-background:accumulate"
         transform="matrix(0.4118377,0,0,0.4118377,666.78483,-14.643358)"
         inkscape:connector-curvature="0" />
    </g>
  </g>
</svg>
