<svg height="512pt" viewBox="0 0 512 512.001" width="512pt" xmlns="http://www.w3.org/2000/svg"><path d="m399.554688 276c8.167968 22.15625 29.488281 38 54.445312 38 31.980469 0 58-26.019531 58-58s-26.019531-58-58-58c-24.957031 0-46.277344 15.84375-54.445312 38h-43.554688v-46.8125l57.878906-24.804688c7.355469-3.152343 12.121094-10.382812 12.121094-18.382812v-33.554688c22.15625-8.167968 38-29.488281 38-54.445312 0-31.980469-26.019531-58-58-58s-58 26.019531-58 58c0 24.957031 15.84375 46.277344 38 54.445312v20.367188l-54.105469 23.1875h-55.894531v-43.554688c22.15625-8.167968 38-29.488281 38-54.445312 0-31.980469-26.019531-58-58-58s-58 26.019531-58 58c0 24.957031 15.84375 46.277344 38 54.445312v43.554688h-55.894531l-54.105469-23.1875v-20.367188c22.15625-8.167968 38-29.488281 38-54.445312 0-31.980469-26.019531-58-58-58s-58 26.019531-58 58c0 24.957031 15.84375 46.277344 38 54.445312v33.554688c0 8 4.769531 15.230469 12.121094 18.382812l57.878906 24.804688v46.8125h-43.554688c-8.164062-22.15625-29.488281-38-54.445312-38-31.980469 0-58 26.019531-58 58s26.019531 58 58 58c24.957031 0 46.28125-15.84375 54.445312-38h43.554688v46.8125l-57.878906 24.804688c-7.351563 3.152343-12.121094 10.382812-12.121094 18.382812v33.554688c-22.15625 8.167968-38 29.488281-38 54.445312 0 31.980469 26.019531 58 58 58s58-26.019531 58-58c0-24.957031-15.84375-46.277344-38-54.445312v-20.367188l54.105469-23.1875h55.894531v43.554688c-22.15625 8.167968-38 29.488281-38 54.445312 0 31.980469 26.019531 58 58 58s58-26.019531 58-58c0-24.957031-15.84375-46.277344-38-54.445312v-43.554688h55.894531l54.105469 23.1875v20.371094c-22.15625 8.164062-38 29.488281-38 54.441406 0 31.980469 26.019531 58 58 58s58-26.019531 58-58c0-24.953125-15.84375-46.277344-38-54.441406v-33.558594c0-8-4.765625-15.230469-12.121094-18.382812l-57.878906-24.804688v-46.8125zm54.445312-38c9.925781 0 18 8.074219 18 18s-8.074219 18-18 18-18-8.074219-18-18 8.074219-18 18-18zm-48-198c9.925781 0 18 8.074219 18 18s-8.074219 18-18 18-18-8.074219-18-18 8.074219-18 18-18zm-300 36c-9.925781 0-18-8.074219-18-18s8.074219-18 18-18 18 8.074219 18 18-8.074219 18-18 18zm-48 198c-9.925781 0-18-8.074219-18-18s8.074219-18 18-18 18 8.074219 18 18-8.074219 18-18 18zm48 198c-9.925781 0-18-8.074219-18-18s8.074219-18 18-18 18 8.074219 18 18-8.074219 18-18 18zm150-432c9.925781 0 18 8.074219 18 18s-8.074219 18-18 18-18-8.074219-18-18 8.074219-18 18-18zm0 432c-9.925781 0-18-8.074219-18-18s8.074219-18 18-18 18 8.074219 18 18-8.074219 18-18 18zm60-156h-120v-120h120zm90 120c9.925781 0 18 8.074219 18 18s-8.074219 18-18 18-18-8.074219-18-18 8.074219-18 18-18zm0 0"/></svg>