<svg xmlns="http://www.w3.org/2000/svg" viewBox="0 0 1000 1000"><g fill="#231F20"><path d="M71.78 591.004c-.85-4.383-1.72-8.877-2.645-13.346-.309-1.49-.623-2.977-.945-4.456a4.441 4.441 0 0 0-.137-.493c-.828-2.42-3.723-4.15-7.261-4.27l-.015-.001-.014.001c-.228.017-.458.027-.688.037-.508.02-1.033.041-1.542.151-5.883 1.268-7.691 4.108-6.45 10.132.517 2.506 1.018 5.05 1.506 7.54l.23 1.176c.48 2.444.957 4.889 1.453 7.33.231 1.136.514 2.24.841 3.519a376.155 376.155 0 0 1 .501 1.984l.061.25 8.655-2.105 6.955-1.087.034-.179c.06-.322.127-.584.183-.807.107-.417.183-.72.124-1.024-.283-1.45-.564-2.901-.846-4.352zm.223 5.249c-.048.188-.103.405-.155.66l-6.502 1.015-.005.002-.111.017-8.177 1.988a159.688 159.688 0 0 0-.44-1.74c-.244-.953-.464-1.81-.654-2.652a38.81 38.81 0 0 1-.181-.84c-.496-2.44-.974-4.884-1.452-7.327-.56-2.86-1.14-5.818-1.738-8.72-1.198-5.812.387-8.304 6.054-9.525.465-.1.945-.12 1.454-.14.2-.008.396-.018.577-.03.037-.003.075-.004.112-.006.106.003.21.013.316.02.112.007.225.011.335.022.094.009.186.023.28.035.119.014.24.026.356.045.076.012.148.028.223.042.131.023.264.046.392.074.059.013.114.03.172.044.141.034.283.067.42.107.047.014.092.03.14.045.143.044.287.089.425.14.035.012.068.027.102.04.148.055.294.112.436.175.03.013.056.028.086.041a7.9 7.9 0 0 1 .42.204c.026.014.05.03.077.045.135.074.27.15.397.23.024.015.046.032.07.048.126.082.25.165.368.253l.074.06c.112.087.223.175.327.267.022.02.042.042.063.062.103.094.204.19.298.29.03.031.055.065.083.098.081.09.163.181.236.276.032.04.058.085.088.126.064.09.13.177.186.269.042.068.077.14.115.21.037.068.079.135.112.205.045.094.08.191.118.288.02.049.043.096.06.145.051.148.093.298.126.45.322 1.478.636 2.964.944 4.452.924 4.466 1.795 8.958 2.644 13.339l.846 4.353c.037.19-.024.432-.117.798zM123.255 304.289c1.457.9 2.964 1.83 4.509 2.636a6.737 6.737 0 0 0 3.102.762 6.582 6.582 0 0 0 5.186-2.514 6.35 6.35 0 0 0 .48-.71 406.517 406.517 0 0 0 8.427-15.192c1.91-3.63.841-7.343-2.721-9.459-1.16-.688-2.387-1.287-3.6-1.858l-.773-.364c-.664-.31-1.327-.62-1.973-.938l-8.48-4.697-.186-.101a7.705 7.705 0 0 0-.686-.25c-.476-.158-.926-.306-1.182-.591-1.1-1.225-2.37-1.82-3.882-1.82-.605 0-1.251.092-1.975.28-2.716.71-4.036 2.61-4.969 4.375-.401.759-.809 1.518-1.221 2.277a520.502 520.502 0 0 1-3.754 6.749c-.718 1.275-1.436 2.55-2.148 3.83-1.305 2.345-1.652 4.457-1.033 6.278.645 1.898 2.33 3.446 4.984 4.59l9.92 5.51c.661.396 1.318.801 1.975 1.207zm-11.668-7.178c-2.538-1.096-4.127-2.54-4.723-4.295-.57-1.677-.235-3.65.996-5.862a891.954 891.954 0 0 1 2.146-3.827c1.659-2.948 3.374-5.996 4.982-9.038 1.265-2.393 2.61-3.586 4.643-4.116.68-.178 1.284-.264 1.845-.264 1.376 0 2.488.523 3.498 1.648.348.388.885.565 1.404.736.22.072.44.144.62.222l8.655 4.795c.66.324 1.327.636 1.994.947 1.447.677 2.943 1.376 4.327 2.198 3.307 1.965 4.3 5.41 2.53 8.776a406.358 406.358 0 0 1-8.418 15.173 5.994 5.994 0 0 1-3.644 2.76 6.116 6.116 0 0 1-1.576.207 6.21 6.21 0 0 1-2.864-.703c-1.219-.636-2.417-1.353-3.588-2.071l-.888-.547c-.66-.407-1.318-.814-1.99-1.215l-9.949-5.524zM775.242 232.172c-35.641-35.641-77.144-63.624-123.357-83.17-46.35-19.604-95.496-29.847-146.153-30.468a398.963 398.963 0 0 0-9.814 0c-40.853.501-80.723 7.26-118.936 20.139a387.897 387.897 0 0 0-27.217 10.329 388.04 388.04 0 0 0-35.601 17.242 385.144 385.144 0 0 0-55.489 37.03 392.77 392.77 0 0 0-32.268 28.897c-35.64 35.641-63.623 77.145-83.17 123.358-20.236 47.845-30.497 98.669-30.497 151.06s10.26 103.215 30.498 151.06c19.546 46.213 47.528 87.717 83.17 123.357 32.299 32.3 69.413 58.31 110.484 77.451 4.249 1.98 8.54 3.887 12.873 5.72a387.827 387.827 0 0 0 27.217 10.328c38.213 12.88 78.083 19.638 118.936 20.139a398.963 398.963 0 0 0 9.814 0c50.657-.621 99.803-10.864 146.153-30.468 34.66-14.66 66.67-34.065 95.545-57.887a390.005 390.005 0 0 0 10.68-9.14 395.044 395.044 0 0 0 17.132-16.143c35.641-35.64 63.623-77.144 83.17-123.357 20.237-47.845 30.498-98.67 30.498-151.06s-10.261-103.215-30.498-151.06c-19.547-46.213-47.529-87.716-83.17-123.357zm113.152 274.417c0 213.706-173.863 387.57-387.57 387.57s-387.569-173.864-387.569-387.57c0-3.34.043-6.669.127-9.988 4.43-174.258 124.446-320.295 286.068-364.134a384.309 384.309 0 0 1 47.246-9.68c17.692-2.483 35.763-3.767 54.129-3.767s36.436 1.284 54.128 3.767a384.257 384.257 0 0 1 47.246 9.68c161.623 43.84 281.638 189.877 286.068 364.134.085 3.32.127 6.649.127 9.988zM316.528 92.821c.492 1.651 1.641 2.526 2.935 3.192l.037.02.004.001c.435.222.885.421 1.332.618 1.192.526 2.35 1.198 3.47 1.848.505.292 1.01.585 1.52.866l.077.028c.448.085.906.15 1.364.213.417.058.839.12 1.256.197.543.1 1.077.226 1.573.422 1.652.651 3.307 1.339 4.948 2.034a698.11 698.11 0 0 1 3.887 1.664c1.1.474 2.2.948 3.302 1.417.163.175.357.347.545.514.249.22.517.46.674.68a.836.836 0 0 1 .115.208v.005a.372.372 0 0 1 .02.107c.005.31-.055.63-.146.953-.122.426-.301.859-.48 1.283-.085.203-.17.406-.249.608-1.19 3.049-2.473 6.336-3.8 9.722a3372.882 3372.882 0 0 1-4.493 11.418c-.57 1.44-1.012 2.938-.264 4.377.302.582.793 1.155 1.558 1.71l.122.088.136-.062c.311-.14.625-.29.94-.441l.686-.334c.395-.193.796-.385 1.199-.575.86-.405 1.738-.788 2.643-1.076.172-.055.34-.113.503-.175 2.453-.927 3.957-2.66 4.842-5.55.929-3.037 1.94-6.082 2.965-9.092.55-1.617 1.104-3.227 1.652-4.814l.179-.52.558-1.616c.087-.254.193-.503.308-.752.196-.428.424-.86.677-1.333l.21-.39c.098-.186.198-.376.299-.574.543.209 1.066.407 1.572.6.508.193.999.38 1.486.568.652.25 1.294.501 1.923.758 1.478.602 2.951 1.216 4.425 1.83 3 1.248 6.101 2.54 9.19 3.713 1.243.472 2.555.91 3.736.91.42 0 .8-.06 1.132-.174a99.44 99.44 0 0 0 3.775-1.38c2.703-1.06 5.532-2.374 8.489-4.277l.252-.162-.198-.226c-.399-.452-.742-.878-1.074-1.29-.428-.53-.823-1.01-1.24-1.43a6.242 6.242 0 0 0-.781-.689 6.807 6.807 0 0 0-1.264-.697c-.444-.194-.905-.358-1.359-.52-.367-.13-.735-.261-1.091-.407l-19.351-7.898-4.056-1.362 5.474-12.758 4.867-12.592-1.362-4.096-.26.117a55.1 55.1 0 0 1-2.764 1.124c-.634.245-1.262.488-1.874.744l-.183.076c-.38.161-.752.33-1.117.507-.063.03-.128.06-.19.091-.063.03-.122.064-.183.096-.359.184-.71.377-1.046.587-.1.062-.194.13-.29.194-.096.064-.194.125-.287.191l-.047.036a9.747 9.747 0 0 0-.672.536 8.157 8.157 0 0 0-1.675 1.972 9.017 9.017 0 0 0-.936 2.186l-6.085 17.779-18.31-7.918-.058-.024-.062.004c-.53.036-1.085.04-1.62.042-1.219.006-2.478.013-3.607.405-2.754.957-5.421 2.286-8 3.572l-.49.244c-.54.269-.938.775-1.323 1.264l-.17.215c-.112.14-.225.277-.34.4l-.101.108.041.142zm13.991-5.834c.524-.003 1.064-.005 1.59-.04l18.765 8.115 6.27-18.319c.358-1.251.902-2.236 1.583-3.047 1.6-1.905 3.979-2.827 6.612-3.842.828-.32 1.683-.65 2.528-1.02l1.124 3.38-4.797 12.41-5.691 13.263 4.57 1.535 19.337 7.893c.363.148.738.282 1.113.416.873.31 1.775.632 2.494 1.15.444.318.839.732 1.24 1.2.222.26.446.53.682.824.104.13.212.262.32.395.182.223.368.449.57.685-4.223 2.676-8.193 4.157-11.902 5.443-.277.096-.601.145-.964.145-.962 0-2.088-.34-3.117-.714a32.544 32.544 0 0 1-.435-.162c-3.082-1.171-6.18-2.46-9.175-3.708-1.475-.614-2.95-1.228-4.429-1.831a93.972 93.972 0 0 0-1.384-.548 263.368 263.368 0 0 0-2.873-1.1l-.951-.365-.22-.085-.104.21c-.205.414-.41.796-.606 1.16-.16.298-.313.587-.458.876-.216.427-.412.85-.561 1.285l-.736 2.131c-1.57 4.547-3.193 9.25-4.623 13.927-.89 2.905-2.434 4.566-5.01 5.386-.886.282-1.741.651-2.577 1.04-.45.21-.895.425-1.333.639a66.51 66.51 0 0 1-1.475.706c-2.226-1.687-1.77-3.441-.998-5.391 2.877-7.266 5.79-14.723 8.294-21.143.077-.197.16-.396.245-.596.292-.694.592-1.41.654-2.133.01-.103.013-.207.012-.31-.009-.515-.504-.954-.983-1.378-.096-.086-.194-.173-.287-.259a4.147 4.147 0 0 1-.256-.257l-.091-.065c-1.118-.475-2.233-.956-3.35-1.437-2.888-1.244-5.875-2.531-8.851-3.705-.934-.369-1.957-.512-2.947-.65-.436-.06-.871-.122-1.3-.201a85.539 85.539 0 0 1-1.473-.842l-.656-.378c-.928-.533-1.88-1.06-2.865-1.495-.215-.095-.429-.189-.64-.285-1.473-.673-2.79-1.43-3.338-3.084.152-.173.297-.357.437-.536.153-.195.304-.381.458-.552.03-.033.059-.07.089-.102.186-.195.382-.36.6-.468l.49-.244.025-.012c2.557-1.275 5.2-2.59 7.915-3.534 1.048-.364 2.263-.37 3.44-.376z"></path><path d="M996.8 421.155L969.025 384.1c-21.927-82.293-65.586-157.734-126.266-218.183l-18.205-42.579-.051-.12-45.15-10.547-.023-.003c-34.32-24.151-71.613-43.735-110.846-58.206-40.321-14.873-82.567-24.29-125.564-27.99l-41.323-20.92-41.02 20.766c-85.412 7.025-167.634 36.772-237.805 86.032l-45.359 10.597-18.227 42.631-.033.078C98.146 226.34 54.329 302.124 32.43 384.832L4.824 421.667l13.401 44.244a492.855 492.855 0 0 0-1.906 43.256c0 36.258 4.025 72.411 11.962 107.454a482.024 482.024 0 0 0 34.107 98.994l2.532 46.02.007.13 39.047 25.503.032-.056c48.765 69.468 115.02 125.127 191.649 160.998l-.044.037 31.895 34.026 45.949-5.52c41.31 11.227 84.164 16.92 127.37 16.92 42.498 0 84.677-5.514 125.372-16.386l-.001.004 46.304 5.563 31.693-33.809c78.047-36.144 145.337-92.669 194.603-163.47l38.68-25.262.109-.071 2.558-46.492a481.934 481.934 0 0 0 33.43-98.024c7.802-34.756 11.757-70.608 11.757-106.56a492.8 492.8 0 0 0-1.948-43.715l13.417-44.296zm-13.55 42.953v-.007l-.306 1.017-76.563-28.02 62.363-52.517 27.486 36.674-12.98 42.853zm-141.1-298.306l-76.662 27.75 14.015-80.316 44.63 10.426 18.016 42.14zM542.486 26.832l-40.889 70.533-40.89-70.534 1.233-.624 39.657-20.076 40.89 20.7zM177.786 123.39l44.629-10.426 14.015 80.315-76.661-27.749 18.017-42.14zM32.079 386.163v.001l.74-.99.054-.071.007-.01 62.362 52.517-76.563 28.02-.332-1.1v.004L5.393 421.767l26.686-35.604zm30.893 330.693l.001.001-.063-1.141 81.53.143-40.64 70.68-38.373-25.062-2.455-44.621zm233.389 231.437l62.547-52.295 14.299 80.262-1.124.12.047.013-44.426 5.337-31.343-33.437zm375.942 34.019l-45.504-5.468 14.3-80.265 62.547 52.296-31.343 33.437zm264.781-222.359l-38.371 25.06-40.64-70.678 81.53-.144-2.519 45.762zm2.527-46.277l-81.984.145h-.444l10.179 17.703 30.955 53.837c-49.194 70.67-116.358 127.087-194.264 163.181l-63.306-52.93-14.451 81.117c-40.724 10.9-82.936 16.428-125.471 16.428-43.11 0-85.867-5.673-127.088-16.862l-14.478-81.263-63.17 52.816c-76.706-35.863-143.03-91.58-191.8-161.126l38.053-66.181 2.987-5.196-82.568-.146c-30.476-64.68-45.926-133.994-45.926-206.032 0-14.326.634-28.793 1.885-43.002l8.818-3.228 68.717-25.148-31.798-26.778-31.419-26.458c21.914-82.476 65.645-158.031 126.503-218.556l77.55 28.07-14.168-81.193c69.998-49.178 152.005-78.907 237.214-86l41.461 71.52 41.39-71.399c84.78 7.316 166.378 37.075 236.02 86.077l-14.18 81.267 77.553-28.072c60.596 60.359 104.2 135.682 126.115 217.848l-42.978 36.193-19.809 16.682-.04.033-.3.253 77.513 28.368a492.32 492.32 0 0 1 1.933 43.523c0 71.456-15.21 140.265-45.204 204.509z"></path><path d="M959.32 568.334c-.144-.216-.297-.43-.462-.644-2.209-3.21-4.543-6.118-8.768-6.423l-11.595-1.913-10.672-1.8a9.91 9.91 0 0 0-2.324-.503 8.544 8.544 0 0 0-.757-.034c-2.635 0-5.087 1.176-7.948 3.812-.2.184-.427.34-.665.493-.123.08-.244.158-.374.237-.133.082-.267.164-.398.249-1.807 1.17-2.771 2.81-3.129 5.32-.434 3.046-.973 6.116-1.528 9.135-.184.998-.37 1.991-.553 2.976a764.59 764.59 0 0 0-.866 4.694 265.19 265.19 0 0 1-2.334.582l-1.529.38c-1.395.35-2.744.701-4.073 1.099-.755.226-2.53.844-2.668 1.694-.15.915-.37 1.812-.604 2.761-.412 1.677-.833 3.39-.85 5.23-.01 1.105.124 2.256.493 3.473l.064.213 1.214-.182 8.103-1.213c-.115.323-.211.639-.299.952-.897 3.199-.411 5.947 1.53 8.688.143.2.292.401.45.602.361.46.705.933 1.048 1.403 1.194 1.638 2.416 3.315 4.24 4.234.83.417 1.784.678 2.917.708l10.715 1.818 11.666 2.005c1.308.335 2.482.498 3.588.498 2.639 0 4.814-.942 6.648-2.88.23-.243.56-.41.91-.587.173-.088.345-.176.507-.272 3.242-1.924 4.136-5.043 4.581-7.84 1.157-7.251 2.31-14.393 3.59-21.549l.025-.146c.43-2.401.875-4.805 1.339-7.215.042-.22.083-.443.122-.665.542-3.118.646-6.369-1.355-9.39zm-8.567 46.362c-.152.09-.314.173-.475.254-.374.19-.76.386-1.053.694-1.731 1.829-3.784 2.718-6.273 2.718-1.062 0-2.194-.157-3.48-.486-3.895-.671-7.79-1.34-11.687-2.01l-10.752-1.821a7.38 7.38 0 0 1-.619-.042c-2.995-.332-4.54-2.454-6.171-4.692a48.257 48.257 0 0 0-1.059-1.417c-2.487-3.168-2.936-6.298-1.453-10.151l.158-.413-9.742 1.458a10.874 10.874 0 0 1-.404-2.73c-.03-1.405.195-2.739.486-4.037.11-.487.228-.97.346-1.448.225-.918.458-1.866.61-2.803.06-.36 1.03-.9 2.309-1.282a92.464 92.464 0 0 1 4.027-1.087l.11-.028 1.438-.357.716-.177c.583-.145 1.174-.292 1.785-.448l.16-.04.03-.164c.113-.629.232-1.257.347-1.886.182-.988.362-1.976.547-2.964.74-3.968 1.506-8.071 2.085-12.136.339-2.381 1.205-3.865 2.898-4.96.128-.083.258-.162.388-.242.102-.063.205-.13.307-.196a5.61 5.61 0 0 0 .811-.595c1.897-1.747 3.597-2.83 5.286-3.335a7.993 7.993 0 0 1 2.313-.34c.944 0 1.924.17 2.955.52l22.332 3.725c4.02.291 6.27 3.101 8.412 6.216 2.524 3.262 2.262 6.877 1.604 10.297a569.384 569.384 0 0 0-1.339 7.22c-.1.561-.193 1.123-.293 1.684-1.172 6.646-2.25 13.287-3.324 20.023-.427 2.679-1.276 5.662-4.336 7.478z"></path><path d="M946.332 574.645c-2.425-.423-4.9-.79-7.293-1.146-1.075-.16-2.15-.32-3.213-.483-.938-.183-1.874-.374-2.81-.563-2.066-.42-4.201-.853-6.316-1.21a9.17 9.17 0 0 0-1.516-.13c-3.538 0-6.085 2.194-6.815 5.869-.743 3.743-1.375 7.572-1.986 11.274a784.313 784.313 0 0 1-.81 4.854c-.705 4.115 1.338 7.313 5.205 8.147 2.194.473 4.455.79 6.642 1.098.986.138 1.972.277 2.945.427 1.167.231 2.334.47 3.5.709 2.7.553 5.493 1.125 8.259 1.581.19.031.39.047.596.047 2.657 0 5.956-2.553 6.417-4.967 1.339-7.003 2.285-12.711 2.978-17.966.487-3.7-1.945-6.872-5.783-7.541zm5.271 7.474c-.043.328-.087.657-.133.989-.678 4.972-1.587 10.391-2.84 16.947-.388 2.032-3.13 4.252-5.453 4.521a3.966 3.966 0 0 1-.457.027c-.178 0-.35-.013-.513-.04-2.756-.455-5.543-1.026-8.238-1.577a495.42 495.42 0 0 0-3.515-.711c-.985-.154-1.974-.292-2.963-.43-2.177-.307-4.429-.623-6.604-1.093-3.574-.77-5.46-3.736-4.806-7.556.277-1.617.544-3.236.81-4.856.611-3.698 1.242-7.523 1.983-11.258.678-3.415 3.038-5.453 6.31-5.453.463 0 .944.041 1.43.123 2.106.355 4.238.787 6.299 1.205.937.19 1.875.381 2.824.567 1.075.165 2.15.325 3.226.485 1.792.266 3.631.54 5.459.837.61.1 1.217.201 1.822.306 3.556.62 5.81 3.55 5.359 6.967zM80.208 595.032l-4.828-23.786 1.221-.86.384-.27c.74-.523 1.437-1.012 2.135-1.491 1.524-1.047 3.05-2.09 4.577-3.132 1.538-1.051 3.077-2.102 4.612-3.157a8.334 8.334 0 0 0 1.21-.981c.804-.812 1.336-1.854 1.033-3.316a4327.257 4327.257 0 0 0-1.4-6.725l-.63-3.021-.151-.042a5.726 5.726 0 0 0-1.546-.228c-.213 0-.417.014-.614.041-1.378.187-2.39.98-3.295 1.689-.288.225-.572.448-.862.648-1.11.766-2.22 1.55-3.325 2.336a726.343 726.343 0 0 0-4.92 3.542c-1.108.802-2.215 1.605-3.333 2.408-.49.38-.94.564-1.372.564-.8 0-1.464-.654-2.105-1.286a37.06 37.06 0 0 0-.233-.226 9.003 9.003 0 0 0-.393-.364 12.463 12.463 0 0 0-2.37-1.626c-1.333-.691-2.701-1.03-4.134-1.03-.297 0-.601.014-.95.05l-11.563 3.186-.053.094c-.295.525-.575 1.072-.846 1.6-.592 1.156-1.204 2.35-1.999 3.358-1.879 2.381-2.387 5.016-1.648 8.544 1.66 7.931 3.287 16.009 4.86 23.82 1.063 5.285 2.126 10.57 3.208 15.851.05.24.109.476.175.71.2.703.467 1.383.726 2.046.078.198.147.39.222.585.074.195.153.392.22.585l.076.214 15.578-3.279c3.897-.747 7.795-1.495 11.701-2.246l20.412-4.674-2.653-13.18-17.127 3.05zm-.738 14.3c-3.897.75-7.795 1.498-11.697 2.246l-15.14 3.186c-.118-.321-.245-.645-.374-.974-.338-.864-.688-1.757-.876-2.672a4648.295 4648.295 0 0 1-3.208-15.848c-1.573-7.813-3.199-15.891-4.86-23.825-.715-3.41-.252-5.838 1.548-8.119.826-1.047 1.45-2.264 2.053-3.442a48.87 48.87 0 0 1 .784-1.488l11.313-3.12c2.54-.24 4.752.542 7.024 2.491.2.17.398.366.6.565.426.42.888.876 1.421 1.158.32.17.667.277 1.046.277.551 0 1.103-.22 1.68-.666 1.111-.799 2.22-1.602 3.328-2.404 2.684-1.946 5.46-3.958 8.235-5.872.298-.206.59-.434.887-.666.762-.597 1.544-1.21 2.53-1.479.329-.09.68-.141 1.06-.141.398 0 .82.056 1.257.168l.565 2.712c.456 2.185.93 4.455 1.4 6.725.359 1.724-.552 2.753-2.029 3.768-1.535 1.054-3.073 2.104-4.61 3.155-.733.5-1.465 1.002-2.198 1.504-.794.542-1.588 1.084-2.381 1.629l-.457.315c-.36.25-.723.504-1.094.764l-.971.684-1.499 1.055 1.443 7.106 3.553 17.505 8.563-1.525 8.562-1.524 2.455 12.192-19.913 4.56zM118.748 317.36c.404.25.797.514 1.171.797 2.43 1.839 4.934 2.732 7.651 2.732.365 0 .736-.022 1.11-.054 1.712-.148 3.541-.63 5.562-1.473 2-.835 4.041-1.955 5.41-4.47 1.043-1.92 2.103-3.847 3.164-5.77a3060.53 3060.53 0 0 1 4.225-7.627c2.171-3.908 4.416-7.95 6.596-11.94.755-1.381 1.366-2.51 1.847-3.48.16-.325.307-.631.438-.924.198-.438.364-.846.5-1.235.316-.908.467-1.712.474-2.568.014-1.712-.553-3.63-1.547-6.99l-.102-.347c-.632-2.141-1.706-3.474-3.588-4.457-2.302-1.202-4.576-2.56-6.774-3.874-.937-.56-1.873-1.12-2.82-1.672l-7.97-4.412c-.517-.26-1.04-.509-1.564-.758a71.474 71.474 0 0 1-1.736-.845 23.5 23.5 0 0 1-1.69-.94 14.247 14.247 0 0 0-.615-.359c-1.414-.779-2.7-1.145-4.006-1.145-.538 0-1.083.066-1.632.199a7.801 7.801 0 0 0-.55.154c-.35.134-.695.283-1.041.43-.728.313-1.48.635-2.241.804-2.637.585-4.58 1.855-6.112 4.042a14.569 14.569 0 0 0-.998 1.662l-.69 1.327c-3.516 6.756-8.072 15.282-13.134 23.595-3.013 4.95-3.605 8.866-1.976 13.089.392 2.265 1.383 4.093 2.998 5.524.912.808 2.02 1.49 3.337 2.051.239.102.458.278.69.464.115.093.23.185.372.285l9.01 5.073c.784.405 1.601.784 2.392 1.15 1.295.6 2.624 1.215 3.838 1.963zm-14.965-8.62c-.11-.079-.218-.165-.325-.251-.249-.2-.506-.408-.811-.537-3.484-1.483-5.457-3.843-6.033-7.213l-.014-.05c-1.379-3.558-1.11-6.901.94-10.902.292-.571.621-1.156.987-1.757 4.73-7.77 9.02-15.724 12.433-22.248.487-.933.957-1.835 1.407-2.705.399-.769.828-1.45 1.296-2.051l.058-.07c.175-.22.355-.428.541-.627 1.172-1.251 2.572-2.076 4.303-2.55.185-.05.373-.097.566-.14.542-.12 1.068-.31 1.582-.519.253-.102.504-.207.75-.313.34-.146.68-.291 1.01-.418a6.593 6.593 0 0 1 2.01-.324c1.218 0 2.429.347 3.768 1.086.191.106.385.22.582.341.556.344 1.135.658 1.72.956.584.299 1.176.58 1.757.856.52.248 1.04.495 1.544.748l7.956 4.404c.94.549 1.875 1.108 2.81 1.667 2.205 1.317 4.485 2.68 6.8 3.888 1.746.912 2.743 2.152 3.332 4.146l.103.346c.563 1.906.985 3.335 1.24 4.52.065.295.118.576.16.845.022.135.04.266.056.395.048.388.07.753.067 1.108a6.948 6.948 0 0 1-.012.352c-.12 1.98-1.098 3.77-3.183 7.585a1425.727 1425.727 0 0 1-4.146 7.527c-.82 1.48-1.64 2.956-2.447 4.41a2807.62 2807.62 0 0 0-4.559 8.231c-.95 1.724-1.898 3.45-2.833 5.17a8.128 8.128 0 0 1-2.761 3.005c-.722.476-1.518.87-2.394 1.235-2.399 1.001-4.516 1.488-6.473 1.488-.65 0-1.288-.054-1.916-.162-.035-.006-.07-.017-.105-.023a11.57 11.57 0 0 1-3.552-1.287c-.028-.015-.056-.035-.084-.05a14.091 14.091 0 0 1-1.683-1.106 16.593 16.593 0 0 0-1.83-1.19c-1.061-.601-2.18-1.119-3.274-1.626a61.833 61.833 0 0 1-2.365-1.135l-8.978-5.055zM898.543 321.419c1.459-3.707.905-7.137-1.853-11.469-3.302-5.187-6.364-10.653-9.325-15.938l-.152-.27-1.246-2.224c-1.14-2.028-1.294-3.969-.516-5.582.467-.968 1.268-1.819 2.393-2.5.832-.503 1.656-.828 2.461-.98.054-.01.11-.023.164-.032l.108-.013c.249-.034.496-.055.74-.055 1.927 0 3.617 1.083 4.888 3.13a200.763 200.763 0 0 1 5.79 9.986c.866 1.593 1.637 3.277 2.382 4.906l.511 1.116c.173.372.347.747.527 1.125l1.805 3.123c1.142 1.973 2.283 3.947 3.422 5.922 1.084 1.881 2.11 2.684 3.43 2.684.44 0 .92-.102 1.453-.288.383-.134.789-.306 1.243-.543.725-.379 1.422-.827 2.097-1.26.31-.2.621-.4.935-.593l.173-.107-.063-.193c-.07-.216-.13-.438-.19-.66-.1-.373-.202-.754-.357-1.112a3.383 3.383 0 0 0-.175-.349 19447.168 19447.168 0 0 0-17.706-30.572l-4.13-7.12-.097-.029c-.7-.208-1.4-.426-2.097-.644-1.64-.512-3.336-1.041-5.04-1.43-.288-.067-.58-.122-.874-.168-.88-.139-1.777-.202-2.652-.263a51.452 51.452 0 0 1-1.567-.125l-.082-.009-8.947 5.08-4.592 10.612.066.113c1.264 2.157 2.528 4.331 3.796 6.514 3.345 5.755 6.802 11.706 10.36 17.507.253.41.478.808.67 1.197.832 1.686 1.038 3.217.062 5.016-1.19 1.653-2.46 2.819-3.751 3.46a5.979 5.979 0 0 1-.777.323c-.26.086-.52.15-.78.194-.26.044-.52.065-.78.065-2.089 0-4.001-1.418-5.531-4.101a6105.09 6105.09 0 0 0-14.85-25.924c-.167-.288-.352-.567-.53-.849a62.723 62.723 0 0 0-1.406-2.124c-.329-.477-.665-.965-1.005-1.475l-.137-.208-6.5 4.02.108.21c.312.61.589 1.165.847 1.684l.37.742a39.5 39.5 0 0 0 1.071 2.016c1.957 3.394 3.925 6.781 5.892 10.169 4.23 7.284 8.604 14.816 12.797 22.284.916 1.632 2.035 2.855 3.576 3.842.925.592 2.001 1.1 3.277 1.56 2.154.776 4.046 1.153 5.785 1.153h.001c2.723 0 5.124-.926 7.339-2.832.095-.082.263-.124.441-.168.043-.01.087-.022.132-.035a2.38 2.38 0 0 0 .206-.066c1.53-.81 2.774-1.697 3.757-2.685 1.367-1.372 2.228-2.937 2.633-4.758zm-41.885-36.436c.293.438.585.86.87 1.275a104.81 104.81 0 0 1 1.056 1.56c.3.456.588.912.857 1.378a5081.552 5081.552 0 0 1 11.477 20.012l.34.595a7902.542 7902.542 0 0 1 3.032 5.315c1.526 2.675 3.439 4.168 5.555 4.344.14.012.283.018.425.018.563 0 1.125-.092 1.684-.274 1.676-.546 3.322-1.901 4.84-4.01.5-.92.719-1.78.724-2.614a5.257 5.257 0 0 0-.145-1.24 6.797 6.797 0 0 0-.25-.819 9.251 9.251 0 0 0-.356-.823 15.015 15.015 0 0 0-.701-1.261c-3.555-5.795-7.01-11.742-10.353-17.494-1.247-2.146-2.49-4.284-3.732-6.406l4.42-10.213 8.654-4.914c.499.049 1 .084 1.502.12.543.037 1.095.077 1.645.134.609.064 1.215.15 1.801.283 1.323.303 2.647.693 3.945 1.093l1.056.328c.668.208 1.336.417 2.006.617l4.026 6.942c5.908 10.187 11.816 20.374 17.706 30.572.057.098.107.2.153.306.136.318.23.666.327 1.03.044.165.089.33.137.493-.258.162-.516.327-.773.493-.435.28-.883.557-1.336.824-.239.142-.477.285-.721.413-.592.309-1.1.51-1.557.633a3.544 3.544 0 0 1-.9.139c-.28 0-.546-.044-.801-.137a2.464 2.464 0 0 1-.536-.287c-.555-.378-1.08-1.02-1.646-2.001-.845-1.466-1.692-2.93-2.538-4.394l-.884-1.53-1.796-3.104a174.51 174.51 0 0 1-1.025-2.215c-.75-1.637-1.523-3.33-2.397-4.938a212.036 212.036 0 0 0-2.888-5.145c-.97-1.673-1.945-3.3-2.918-4.868-1.37-2.206-3.212-3.372-5.326-3.372-1.215 0-2.474.388-3.74 1.154a8.09 8.09 0 0 0-.574.382 7.03 7.03 0 0 0-.978.855c-1.866 1.976-2.09 4.723-.508 7.539l1.398 2.493c2.965 5.292 6.03 10.764 9.34 15.963.499.783.923 1.535 1.274 2.263.818 1.7 1.237 3.272 1.272 4.815.03 1.322-.223 2.623-.749 3.963-.603 2.698-2.237 4.8-5.075 6.533-.328.201-.669.398-1.03.59-.081.028-.169.05-.256.07-.218.055-.465.116-.653.278-1.165 1.003-2.385 1.711-3.676 2.155-1.057.364-2.16.553-3.328.553-1.678 0-3.513-.367-5.61-1.123a19.05 19.05 0 0 1-1.703-.702c-2.268-1.075-3.74-2.443-4.875-4.466-4.194-7.472-8.569-15.004-12.8-22.29-1.967-3.387-3.935-6.775-5.891-10.17-.122-.21-.24-.421-.357-.638a69.776 69.776 0 0 1-1.07-2.092c-.229-.46-.473-.948-.742-1.476l5.672-3.507zM222.676 841.164c-3.517-3.065-6.84-5.96-10-9.065-2.5-2.455-5.242-3.407-8.948-3.2-4.18.233-6.05 3.332-7.092 5.643-1.24 2.75-.43 5.684 2.168 7.85 3.15 2.627 6.26 5.41 9.27 8.103 1.465 1.311 2.93 2.623 4.406 3.922.79.696 1.61 1.374 2.478 2.092.425.352.866.716 1.328 1.104l.193.161 10.969-12.42-.192-.17a602.46 602.46 0 0 0-4.58-4.02zm-6.251 15.893a304.36 304.36 0 0 0-1.139-.945 103.54 103.54 0 0 1-2.465-2.081 735.345 735.345 0 0 1-4.404-3.92c-3.012-2.695-6.126-5.482-9.283-8.115-2.409-2.009-3.167-4.716-2.028-7.242.062-.136.127-.276.195-.418 1.021-2.127 2.8-4.719 6.455-4.923.325-.018.643-.027.954-.027 3.09 0 5.435.95 7.604 3.08 3.173 3.116 6.5 6.016 10.023 9.087a618.79 618.79 0 0 1 4.384 3.845l-10.296 11.659z"></path><path d="M231.994 839.248a79.255 79.255 0 0 0-.875-.645l-.233-.171c-.53-.388-1.002-.74-1.43-1.123l-3.285-2.925-2.569-2.287c-4.322-3.85-8.723-7.784-13.024-11.716-.154-.14-.306-.275-.458-.403-2.273-1.924-4.355-2.504-6.977-2.008-.76.144-1.579.21-2.575.21-.846 0-1.72-.05-2.565-.098l-.09-.004a50.283 50.283 0 0 0-2.234-.093h-.015c-2.474.124-4.423 1.222-5.957 3.358-.158.22-.338.428-.524.633-.229.25-.47.491-.716.726l-.32.302-.302.285c-.159.151-.316.302-.463.452-3.044 2.755-4.173 6.347-3.456 10.95.164 4.643 2.912 7.528 5.579 9.738a212.587 212.587 0 0 1 4.115 3.514 512.917 512.917 0 0 1 5.887 5.232l.603.542a763.162 763.162 0 0 0 4.67 4.182c1.436 1.273 2.877 2.54 4.318 3.807l.544.48c2.884 2.535 5.846 5.145 8.724 7.761.8.728 1.768 1.472 2.875 1.472.26 0 .516-.04.775-.12.43-.136.866-.387 1.322-.764l4.248-4.695 2.073-2.29.016-.018 1.728-1.91 7.149-8.04 15.36-17.948-10.146-9.223-11.772 12.837zm21.2-3.57l-15.03 17.565-7.144 8.034-8.037 8.886c-.606.498-1.176.74-1.741.74-.741 0-1.498-.4-2.53-1.337a538.042 538.042 0 0 0-5.46-4.886c-1.28-1.132-2.558-2.257-3.816-3.363-1.44-1.267-2.879-2.533-4.314-3.804a775.535 775.535 0 0 1-4.67-4.181l-.478-.43c-2.357-2.122-4.767-4.284-7.216-6.394-.97-.835-1.944-1.664-2.924-2.476a27.66 27.66 0 0 1-.662-.565c-3.189-2.817-4.614-5.486-4.733-8.825-.691-4.449.385-7.89 3.3-10.53.123-.124.253-.244.38-.365.128-.122.252-.246.38-.366.572-.537 1.164-1.092 1.627-1.737.18-.25.365-.485.557-.704 1.34-1.537 2.982-2.337 4.996-2.44.277.004.557.016.837.027.489.019.978.043 1.457.07.853.049 1.734.1 2.595.1l.01-.001c1 0 1.83-.068 2.605-.21l.056-.01a9.16 9.16 0 0 1 .8-.115h.01c.261-.026.517-.04.765-.04 1.437 0 2.704.408 4.031 1.325l.03.02c.202.14.406.296.612.46l.123.1c.204.168.41.344.62.536 3.802 3.475 7.684 6.953 11.517 10.372l.202.18.198.177 3.675 3.273 3.29 2.93c.18.16.368.313.56.465.353.28.728.557 1.143.86l.21.154c.265.195.543.399.845.628l.187.142 11.743-12.805 9.395 8.54zM646.095 89.128c.064.159.093.36.123.57.022.149.043.298.077.438l6.337 13.223.042.061a9.57 9.57 0 0 1 1.134 1.508c1.3 2.176 1.132 4.375-.477 6.935-1.396 2.222-2.527 4.596-3.726 7.108-.538 1.127-1.094 2.293-1.688 3.475l-.117.23 11.875 5.978.128-.096c.207-.153.38-.266.523-.36.265-.172.456-.297.564-.498.394-.727.77-1.463 1.147-2.2.276-.539.556-1.087.845-1.633a46.92 46.92 0 0 1 .902-1.64 79.393 79.393 0 0 0 2.354-4.382l.169-.333c1.635-3.225 1.855-3.35 7.062-4.034l.538-.07.627-.083c.648-.085 1.361-.18 2.154-.29.74-.143 1.483-.276 2.226-.41 1.69-.303 3.438-.617 5.131-1.045 2.27-.575 4.554-1.252 6.761-1.906.974-.289 1.949-.578 2.925-.859l.108-.03 4.48-8.827 2.257-5.825-10.991-5.606-3.774 5.082-.03.054c-.29.686-.571 1.377-.852 2.068-.291.717-.59 1.444-.897 2.169a45.016 45.016 0 0 1-1.398 3.031c-.352.685-1.36 1.407-2.202 1.575a358.959 358.959 0 0 1-7.952 1.486c-1.26.223-2.53.447-3.827.673-1.314.23-2.641.462-3.987.701a464.237 464.237 0 0 0-2.114-4.18l-.07-.136c-1.767-3.464-3.438-6.737-4.91-10.136-.492-1.14-.378-2.182.02-3.17.286-.71.718-1.392 1.182-2.06.14-.201.282-.402.424-.6.269-.38.536-.755.802-1.172l3.42-8.118-3.43-2.659-8.268-3.033-4.254 7.62-.37.672c-.1.3-.183.61-.265.922-.177.668-.344 1.298-.684 1.809-1.864 2.805-1.908 5.376-.132 7.858.03.043.056.091.077.145zm.483-7.718c.387-.581.573-1.283.753-1.962.08-.3.16-.601.237-.847l4.39-7.864 4.477 1.635 3.27 1.195 3.086 2.391-3.244 7.714c-.13.198-.266.397-.405.596-.12.172-.242.344-.365.516-.32.45-.641.904-.933 1.367-.94 1.491-1.56 3.081-.744 4.967a110.79 110.79 0 0 0 1.949 4.222c.947 1.96 1.94 3.92 2.975 5.946.748 1.467 1.508 2.955 2.266 4.482l.07.139.016.034.19-.034.329-.058c1.271-.225 2.53-.445 3.772-.663l.08-.014c1.298-.226 2.567-.45 3.827-.673 2.692-.478 5.321-.958 7.96-1.487 1.007-.202 2.13-1.012 2.559-1.845a37.36 37.36 0 0 0 .757-1.573 92.02 92.02 0 0 0 1.557-3.669c.174-.43.352-.857.529-1.285.103-.25.203-.5.308-.748l3.495-4.708 10.188 5.197-2.079 5.367-4.367 8.603c-.942.272-1.882.55-2.822.829l-.951.281c-1.905.563-3.852 1.129-5.79 1.619-1.675.424-3.415.736-5.096 1.038-.745.134-1.49.268-2.218.409-1.042.144-1.957.264-2.764.369-6.07.794-6.187.809-8.162 4.716-.495.98-1.096 2.169-1.955 3.686-.123.217-.251.44-.385.67-.626 1.08-1.203 2.207-1.76 3.297-.374.733-.75 1.466-1.141 2.19a.459.459 0 0 1-.124.128 4.182 4.182 0 0 1-.269.184l-.194.127c-.07.047-.145.099-.226.157l-11.131-5.604c.554-1.108 1.074-2.198 1.578-3.254a172.21 172.21 0 0 1 1.485-3.051c.694-1.385 1.409-2.726 2.212-4.005 2.088-3.323 1.87-6.195-.686-9.035L646.79 89.99c-.026-.117-.044-.241-.061-.365a4.837 4.837 0 0 0-.079-.436c-.004-.018-.007-.037-.012-.055l-.005-.016a1.35 1.35 0 0 0-.196-.434c-1.348-1.885-1.571-3.764-.666-5.82.209-.474.478-.957.807-1.453zM793.879 824.95c-.502-.517-1.013-1.026-1.524-1.535-1.144-1.14-2.328-2.32-3.38-3.566-1.44-1.706-2.885-2.396-4.802-2.26-1.437.102-2.876.18-4.315.259l-.476.026c-2.51.137-5.089.286-7.62.566-1.017.112-2.17.743-3.524 1.928a2075.633 2075.633 0 0 0-8.46 7.435 4624.849 4624.849 0 0 0-14.52 12.886c-.873.778-1.673 1.597-2.598 2.544-.447.458-.916.939-1.425 1.446l-.176.175 5.31 5.749.183-.12c.37-.245.705-.452 1.012-.64.584-.361 1.089-.672 1.524-1.056l.483-.427c5.414-4.778 11.012-9.719 16.465-14.638 4.808-4.336 9.315-4.353 13.236-.013.406.45.805.945 1.198 1.487 2.3 2.56 4.602 5.116 6.903 7.672l8.82 9.908 4.744 4.596 11.532-10.482-4.315-5.818-14.275-16.122zm7.07 31.715l-4.385-4.245-7.954-8.949-.786-.872c-2.324-2.581-4.648-5.163-6.953-7.726-2.374-3.279-5.019-4.941-7.861-4.941-2.35 0-4.813 1.146-7.32 3.407a1518.846 1518.846 0 0 1-10.61 9.465 5520.923 5520.923 0 0 1-5.85 5.169l-.484.427a6.66 6.66 0 0 1-.75.56c-.216.141-.446.285-.703.443-.259.16-.538.332-.842.529l-4.677-5.064c.444-.444.858-.868 1.255-1.275.919-.94 1.712-1.752 2.573-2.52 8.512-7.58 15.677-13.935 22.975-20.317.796-.696 1.509-1.187 2.153-1.482a3.568 3.568 0 0 1 1.09-.321c2.676-.297 5.417-.446 8.068-.59 1.44-.08 2.883-.158 4.322-.259a5.61 5.61 0 0 1 .628-.01c1.426.06 2.582.713 3.743 2.087.267.316.541.627.82.934.84.92 1.725 1.803 2.589 2.664.51.508 1.019 1.016 1.51 1.522l14.254 16.096 4.024 5.426-10.83 9.842z"></path></g><path fill="#B0D3E4" id="spinner-bottom" d="M673.289 439.527c-21.044-26.041-46.436-57.827-112.698-68.167-66.262-10.34-121.394 26.616-121.394 26.616s-9.74-13.213 1.478-34.18 45.74-38.488 59.393-43.945c13.652-5.457 37.914-11.585 66.349-11.202 28.435.383 50.523 5.84 61.566 8.425 11.044 2.585 25.74 7.66 25.74 7.66s-31.077-19.34-82.149-23.744-92.84 12.67-117.072 26.201c-24.233 13.532-51.596 38.424-68.176 63.7-16.58 25.276-23.189 48.253-23.537 77.359-.347 29.105 9.856 58.593 26.32 83.741s36.754 42.126 56.233 53.36c19.479 11.233 40.204 15.558 43.247 16.132 3.044.575 5.348.718 5.348.718s-7.087 9.064-23.493 16.595c-16.406 7.532-34.726 9.51-50.552 6.702s-56.87-15.637-93.393-59.423-44.06-71.742-48.117-100.337c-4.058-28.594-1.971-61.912 3.826-87.188 5.797-25.276 13.565-43.275 13.565-43.275s-20.986 37.275-23.536 86.55c-2.551 49.275 8.116 83.87 18.087 108.89 9.971 25.02 26.783 54.125 56.929 81.06 30.145 26.936 69.45 44.807 116.988 46.85 47.537 2.042 89.393-18.127 120.93-46.85 31.537-28.722 47.769-65.997 55.537-94.081 7.768-28.084 8.232-60.828 8.232-60.828s29.914 27.957 34.639 63.028 2.58 68.52-23.682 117.349c-28.1 52.246-80.871 82.146-80.871 82.146s47.131-23.553 76.175-57.254c29.044-33.7 46.088-76.018 51.653-120.825 5.566-44.807-12.521-95.741-33.565-121.783z"></path><radialGradient id="a" cx="441.702" cy="519.921" r="154.847" gradientUnits="userSpaceOnUse"><stop offset="0" stop-color="#0f91d0"></stop><stop offset="1" stop-color="#1a54a0"></stop></radialGradient><path fill="url(#a)" id="spinner-top" d="M622.51 461.99c-15.597-17.53-34.417-38.928-83.53-45.89s-89.975 17.918-89.975 17.918-7.219-8.894 1.096-23.01c8.314-14.114 33.902-25.909 44.02-29.583s28.102-7.798 49.178-7.54c21.076.257 37.446 3.931 45.632 5.671 8.185 1.74 19.078 5.156 19.078 5.156s-23.035-13.019-60.888-15.984c-37.853-2.964-68.812 8.53-86.772 17.639-17.961 9.109-38.242 25.867-50.53 42.882-12.29 17.015-17.188 32.484-17.446 52.077s7.305 39.445 19.508 56.375c12.203 16.929 27.241 28.358 41.679 35.92 14.437 7.563 29.798 10.474 32.054 10.861s3.964.483 3.964.483-5.253 6.102-17.413 11.172-25.738 6.402-37.468 4.512c-11.73-1.89-42.152-10.527-69.222-40.003-27.07-29.477-32.656-48.297-35.664-67.546-3.007-19.25-1.46-41.68 2.836-58.695 4.297-17.015 10.055-29.132 10.055-29.132s-15.555 25.093-17.445 58.265c-1.89 33.171 6.015 56.46 13.406 73.303 7.39 16.844 19.851 36.437 42.195 54.57s51.475 30.163 86.71 31.538c35.233 1.375 66.256-12.203 89.63-31.538 23.376-19.336 35.407-44.43 41.164-63.335 5.758-18.906 6.102-40.949 6.102-40.949s22.171 18.82 25.673 42.43c3.502 23.61 1.912 46.127-17.552 78.998-20.827 35.172-59.94 55.3-59.94 55.3s34.932-15.855 56.46-38.542 34.159-51.175 38.284-81.34-9.281-64.451-24.878-81.982z"></path></svg>
