<?xml version="1.0" encoding="UTF-8" standalone="no"?>
<svg
   xmlns:dc="http://purl.org/dc/elements/1.1/"
   xmlns:cc="http://creativecommons.org/ns#"
   xmlns:rdf="http://www.w3.org/1999/02/22-rdf-syntax-ns#"
   xmlns:svg="http://www.w3.org/2000/svg"
   xmlns="http://www.w3.org/2000/svg"
   xmlns:sodipodi="http://sodipodi.sourceforge.net/DTD/sodipodi-0.dtd"
   xmlns:inkscape="http://www.inkscape.org/namespaces/inkscape"
   width="24.090868"
   height="25.470627"
   viewBox="0 0 24.090868 25.470627"
   version="1.1"
   id="svg42"
   sodipodi:docname="rabbitmq.svg"
   inkscape:version="0.92.4 (5da689c313, 2019-01-14)">
  <metadata
     id="metadata46">
    <rdf:RDF>
      <cc:Work
         rdf:about="">
        <dc:format>image/svg+xml</dc:format>
        <dc:type
           rdf:resource="http://purl.org/dc/dcmitype/StillImage" />
      </cc:Work>
    </rdf:RDF>
  </metadata>
  <sodipodi:namedview
     pagecolor="#ffffff"
     bordercolor="#666666"
     borderopacity="1"
     objecttolerance="10"
     gridtolerance="10"
     guidetolerance="10"
     inkscape:pageopacity="0"
     inkscape:pageshadow="2"
     inkscape:window-width="1920"
     inkscape:window-height="986"
     id="namedview44"
     showgrid="false"
     inkscape:zoom="4.6585858"
     inkscape:cx="131.98488"
     inkscape:cy="11.163711"
     inkscape:window-x="-11"
     inkscape:window-y="-11"
     inkscape:window-maximized="1"
     inkscape:current-layer="Group-3" />
  <!-- Generator: Sketch 42 (36781) - http://www.bohemiancoding.com/sketch -->
  <title
     id="title2">Artboard Copy</title>
  <desc
     id="desc4">Created with Sketch.</desc>
  <defs
     id="defs6" />
  <g
     id="home"
     style="fill:none;fill-rule:evenodd;stroke:none;stroke-width:1"
     transform="translate(-0.04416291,-0.38650419)">
    <g
       id="Artboard-Copy">
      <g
         id="Group-3">
        <g
           id="RabbitMQ_logo"
           style="fill-rule:nonzero">
          <path
             d="M 22.91503,10.722731 H 15.390774 C 14.789055,10.650951 14.330865,10.120888 14.330865,9.4969602 V 1.6012317 c 0,-0.67362164 -0.546517,-1.21472751 -1.214481,-1.21472751 h -2.633213 c -0.6734845,0 -1.2144802,0.54662736 -1.2144802,1.21472751 V 9.5797825 C 9.2355687,10.181625 8.7387359,10.667516 8.1425366,10.722731 H 6.1717667 C 5.5921285,10.650951 5.1449791,10.16506 5.1063365,9.5797825 V 1.6012317 c 0,-0.67362164 -0.546516,-1.21472751 -1.21448,-1.21472751 H 1.2586429 c -0.67348434,0 -1.21447999,0.54662736 -1.21447999,1.21472751 V 11.937458 24.642403 c 0,0.673622 0.54651602,1.214727 1.21447999,1.214727 h 2.6332136 6.5913145 2.633213 9.804166 c 0.673485,0 1.214481,-0.546627 1.214481,-1.214727 V 11.937458 c -0.0055,-0.673621 -0.546516,-1.214727 -1.220001,-1.214727 z m -3.466788,8.712908 c 0,0.673622 -0.546516,1.214728 -1.21448,1.214728 h -2.633214 c -0.673484,0 -1.21448,-0.546628 -1.21448,-1.214728 V 16.95097 c 0,-0.673622 0.546516,-1.214728 1.21448,-1.214728 h 2.633214 c 0.673484,0 1.21448,0.546627 1.21448,1.214728 z"
             id="Shape"
             inkscape:connector-curvature="0"
             style="fill:#ff6600" />
        </g>
      </g>
    </g>
  </g>
</svg>
