<svg viewBox="0 0 345 304" xmlns="http://www.w3.org/2000/svg">
    <g fill-rule="nonzero" fill="none">
        <path d="M302.326 118.304l.005.007-.002-.003-.003-.004zM103.893 13.408c10.625 5.903 20.67 13.37 29.247 21.67 13.827-2.504 28.084-3.767 42.547-3.767 43.298 0 84.348 11.36 115.58 31.981 16.175 10.684 29.031 23.36 38.207 37.68 10.22 15.957 15.4 33.116 15.4 51.503 0 17.892-5.18 35.058-15.4 51.011-9.176 14.327-22.032 27-38.206 37.684-31.233 20.62-72.28 31.974-115.58 31.974-14.464 0-28.718-1.263-42.548-3.765-8.581 8.297-18.622 15.769-29.247 21.67-56.773 28.438-103.854.67-103.854.67s43.773-37.168 36.655-69.75c-19.586-20.077-30.197-44.291-30.197-69.982 0-25.207 10.615-49.42 30.197-69.5C43.811 49.913.054 12.752.039 12.74c.014-.009 47.09-27.768 103.854.668z" fill="#DB2323"/>
        <path d="M69.964 208.766c-19.484-15.38-31.18-35.061-31.18-56.512 0-49.223 61.582-89.126 137.547-89.126s137.547 39.903 137.547 89.126c0 49.223-61.582 89.126-137.547 89.126-18.722 0-36.57-2.424-52.839-6.814l-11.894 11.49c-6.462 6.242-14.037 11.892-21.932 16.343-10.466 5.148-20.8 7.957-31.024 8.814.576-1.05 1.107-2.114 1.678-3.166 11.917-21.989 15.132-41.75 9.644-59.281z" fill="#FFF"/>
        <path d="M110.528 172.151c-11.193 0-20.267-9.043-20.267-20.2 0-11.155 9.074-20.199 20.267-20.199s20.267 9.044 20.267 20.2c0 11.156-9.074 20.2-20.267 20.2v-.001zm65.25 0c-11.193 0-20.267-9.043-20.267-20.2 0-11.155 9.074-20.199 20.267-20.199s20.267 9.044 20.267 20.2c0 11.156-9.074 20.2-20.267 20.2v-.001zm65.25 0c-11.194 0-20.267-9.043-20.267-20.2 0-11.155 9.073-20.199 20.267-20.199 11.193 0 20.267 9.044 20.267 20.2 0 11.156-9.074 20.2-20.267 20.2v-.001z" fill="#DB2323"/>
    </g>
</svg>
