<?xml version="1.0" encoding="UTF-8" standalone="no"?>
<!DOCTYPE svg PUBLIC "-//W3C//DTD SVG 1.1//EN" "http://www.w3.org/Graphics/SVG/1.1/DTD/svg11.dtd">
<svg version="1.1" xmlns="http://www.w3.org/2000/svg" xmlns:xlink="http://www.w3.org/1999/xlink" preserveAspectRatio="xMidYMid meet" viewBox="173.4592592592592 173.4592592592592 295.08148148148155 295.08148148148155" width="291.08" height="291.08"><defs><path d="M205.04 388.98C188.21 388.98 174.46 375.23 174.46 358.4C174.46 341.57 188.21 327.82 205.04 327.82C207.08 327.82 217.27 327.82 235.61 327.82L235.61 358.4C226.45 378.79 216.26 388.98 205.04 388.98Z" id="k1ZdRwTaC"></path><path d="M281.6 327.82C298.43 327.82 312.18 341.57 312.18 358.4C312.18 366.06 312.18 427.31 312.18 434.96C312.18 451.79 298.43 465.54 281.6 465.54C264.77 465.54 251.02 451.79 251.02 434.96C251.02 429.86 251.02 404.34 251.02 358.4C260.19 338.01 270.38 327.82 281.6 327.82Z" id="d6e6MuGtS"></path><path d="M251.02 205.04C251.02 188.21 264.77 174.46 281.6 174.46C298.43 174.46 312.18 188.21 312.18 205.04C312.18 207.08 312.18 217.27 312.18 235.61L281.6 235.61C261.21 226.45 251.02 216.26 251.02 205.04Z" id="dfU6RdK8W"></path><path d="M312.18 281.6C312.18 298.43 298.43 312.18 281.6 312.18C273.94 312.18 212.69 312.18 205.04 312.18C188.21 312.18 174.46 298.43 174.46 281.6C174.46 264.77 188.21 251.02 205.04 251.02C210.14 251.02 235.66 251.02 281.6 251.02C301.99 260.19 312.18 270.38 312.18 281.6Z" id="bmqUAcHeN"></path><path d="M434.96 251.02C451.79 251.02 465.54 264.77 465.54 281.6C465.54 298.43 451.79 312.18 434.96 312.18C432.92 312.18 422.73 312.18 404.39 312.18L404.39 281.6C413.55 261.21 423.74 251.02 434.96 251.02Z" id="a7eDji2t8E"></path><path d="M358.4 312.18C341.57 312.18 327.82 298.43 327.82 281.6C327.82 273.94 327.82 212.69 327.82 205.04C327.82 188.21 341.57 174.46 358.4 174.46C375.23 174.46 388.98 188.21 388.98 205.04C388.98 210.14 388.98 235.66 388.98 281.6C379.81 301.99 369.62 312.18 358.4 312.18Z" id="bCZf6LP8i"></path><path d="M388.98 434.96C388.98 451.79 375.23 465.54 358.4 465.54C341.57 465.54 327.82 451.79 327.82 434.96C327.82 432.92 327.82 422.73 327.82 404.39L358.4 404.39C378.79 413.55 388.98 423.74 388.98 434.96Z" id="do5j4uhzn"></path><path d="M327.82 358.4C327.82 341.57 341.57 327.82 358.4 327.82C366.06 327.82 427.31 327.82 434.96 327.82C451.79 327.82 465.54 341.57 465.54 358.4C465.54 375.23 451.79 388.98 434.96 388.98C429.86 388.98 404.34 388.98 358.4 388.98C338.01 379.81 327.82 369.62 327.82 358.4Z" id="f1QoEINGdc"></path></defs><g><g><use xlink:href="#k1ZdRwTaC" opacity="1" fill="#e01e5a" fill-opacity="1"></use><g><use xlink:href="#k1ZdRwTaC" opacity="1" fill-opacity="0" stroke="#000000" stroke-width="1" stroke-opacity="0"></use></g></g><g><use xlink:href="#d6e6MuGtS" opacity="1" fill="#e01e5a" fill-opacity="1"></use><g><use xlink:href="#d6e6MuGtS" opacity="1" fill-opacity="0" stroke="#000000" stroke-width="1" stroke-opacity="0"></use></g></g><g><use xlink:href="#dfU6RdK8W" opacity="1" fill="#36c5f0" fill-opacity="1"></use><g><use xlink:href="#dfU6RdK8W" opacity="1" fill-opacity="0" stroke="#000000" stroke-width="1" stroke-opacity="0"></use></g></g><g><use xlink:href="#bmqUAcHeN" opacity="1" fill="#36c5f0" fill-opacity="1"></use><g><use xlink:href="#bmqUAcHeN" opacity="1" fill-opacity="0" stroke="#000000" stroke-width="1" stroke-opacity="0"></use></g></g><g><use xlink:href="#a7eDji2t8E" opacity="1" fill="#2eb67d" fill-opacity="1"></use><g><use xlink:href="#a7eDji2t8E" opacity="1" fill-opacity="0" stroke="#000000" stroke-width="1" stroke-opacity="0"></use></g></g><g><use xlink:href="#bCZf6LP8i" opacity="1" fill="#2eb67d" fill-opacity="1"></use><g><use xlink:href="#bCZf6LP8i" opacity="1" fill-opacity="0" stroke="#000000" stroke-width="1" stroke-opacity="0"></use></g></g><g><use xlink:href="#do5j4uhzn" opacity="1" fill="#ecb22e" fill-opacity="1"></use><g><use xlink:href="#do5j4uhzn" opacity="1" fill-opacity="0" stroke="#000000" stroke-width="1" stroke-opacity="0"></use></g></g><g><use xlink:href="#f1QoEINGdc" opacity="1" fill="#ecb22e" fill-opacity="1"></use><g><use xlink:href="#f1QoEINGdc" opacity="1" fill-opacity="0" stroke="#000000" stroke-width="1" stroke-opacity="0"></use></g></g></g></svg>