<!DOCTYPE svg PUBLIC "-//W3C//DTD SVG 20010904//EN" "http://www.w3.org/TR/2001/REC-SVG-20010904/DTD/svg10.dtd">
<svg version="1.0" xmlns="http://www.w3.org/2000/svg" width="517px" height="517px" viewBox="0 0 5170 5170" preserveAspectRatio="xMidYMid meet">
<g id="layer101" fill="#020403" stroke="none">
 <path d="M2290 5080 c-55 -7 -134 -20 -215 -35 -11 -2 -40 -9 -65 -15 -25 -7 -49 -13 -55 -14 -323 -77 -724 -284 -980 -508 -87 -75 -261 -254 -322 -329 -193 -237 -375 -580 -449 -844 -76 -272 -99 -438 -98 -725 0 -243 23 -445 68 -605 5 -20 23 -87 30 -115 3 -8 10 -28 16 -45 6 -16 13 -37 15 -45 12 -56 117 -288 182 -401 l44 -76 -54 -109 c-51 -104 -87 -193 -103 -259 -4 -16 -9 -37 -11 -45 -2 -8 -6 -35 -9 -60 -3 -25 -9 -61 -14 -80 -15 -55 -50 -680 -38 -680 2 0 46 41 98 91 161 155 334 294 412 332 80 38 226 90 301 107 49 10 49 10 115 -38 91 -65 156 -104 292 -175 103 -53 316 -141 395 -162 17 -4 35 -10 40 -11 28 -9 149 -37 213 -49 40 -8 76 -16 80 -19 4 -2 50 -7 102 -11 52 -4 122 -11 155 -16 79 -12 188 -11 294 1 47 6 124 15 171 20 128 14 296 49 410 86 30 9 60 18 65 20 31 6 213 83 295 124 103 51 253 140 340 201 l55 38 55 -13 c291 -74 398 -139 697 -430 74 -71 104 -95 108 -84 3 8 4 64 1 124 -10 222 -25 450 -31 484 -4 19 -13 73 -20 120 -23 150 -47 221 -138 408 l-40 84 37 66 c54 97 124 245 158 337 44 120 78 225 78 246 0 10 4 20 9 23 5 3 12 31 16 62 4 32 11 66 16 78 5 12 14 62 20 111 6 50 13 110 16 135 8 66 8 374 0 455 -11 118 -27 221 -48 310 -6 28 -11 58 -11 67 1 10 -3 20 -9 23 -5 4 -9 14 -9 24 0 48 -92 297 -167 449 -210 429 -528 775 -948 1033 -66 40 -298 159 -311 159 -3 0 -20 7 -37 14 -77 36 -216 80 -347 111 -30 7 -62 15 -70 19 -8 3 -51 10 -95 16 -44 6 -91 13 -105 16 -42 10 -531 12 -600 4z m500 -150 c220 -24 339 -50 540 -117 89 -30 107 -37 275 -118 502 -239 941 -716 1135 -1230 12 -33 26 -67 30 -75 4 -9 11 -31 15 -50 4 -19 11 -39 15 -45 12 -16 56 -206 71 -310 5 -38 14 -95 19 -126 13 -72 13 -417 0 -488 -5 -31 -14 -87 -20 -126 -14 -105 -57 -294 -70 -310 -5 -5 -11 -27 -15 -48 -4 -20 -11 -40 -16 -43 -5 -3 -9 -13 -9 -22 -1 -9 -9 -35 -20 -57 -11 -22 -19 -44 -20 -48 0 -16 -116 -242 -163 -317 l-46 -75 21 -34 c62 -99 145 -291 177 -406 16 -59 54 -405 45 -414 -2 -2 -51 32 -109 76 -159 120 -236 153 -552 239 l-62 17 -40 -32 c-124 -99 -352 -230 -536 -308 -337 -143 -782 -202 -1165 -152 -72 9 -224 35 -245 42 -5 2 -26 7 -45 11 -35 8 -196 60 -277 90 -144 53 -375 182 -517 288 -84 63 -84 63 -171 38 -310 -91 -407 -135 -544 -246 l-94 -77 6 84 c19 254 47 394 107 524 36 79 89 184 116 231 l18 31 -43 68 c-120 189 -230 454 -280 670 -38 162 -40 178 -57 350 -15 158 -15 259 2 429 38 404 178 773 428 1131 135 192 391 440 590 570 170 110 260 156 501 255 47 20 147 50 163 50 10 0 22 4 28 9 13 12 225 52 374 70 88 11 348 11 440 1z"/>
 <path d="M2598 3923 l-3 -518 -29 -3 c-15 -2 -39 -1 -52 2 l-24 6 0 425 0 425 -370 0 -370 0 -2 -427 -3 -428 -47 -3 c-34 -2 -48 1 -48 10 0 7 -2 110 -3 228 l-2 215 -370 0 -370 0 -3 -214 c-1 -138 -6 -219 -13 -228 -8 -9 -43 -13 -129 -13 -64 0 -119 -2 -121 -4 -2 -2 -3 -36 -1 -75 l4 -71 1909 0 1909 0 0 75 0 74 -127 3 -128 3 -5 140 -5 140 -365 0 -365 0 -3 -129 c-1 -78 -7 -135 -14 -143 -7 -9 -27 -13 -52 -11 l-41 3 -3 518 -2 517 -375 0 -375 0 -2 -517z m590 -75 l-3 -443 -212 -3 -213 -2 0 445 0 445 215 0 215 0 -2 -442z m-853 -93 l0 -350 -204 -3 c-142 -2 -208 1 -217 9 -19 16 -21 668 -2 687 9 9 66 12 218 10 l205 -3 0 -350z m-850 -205 l0 -145 -215 0 -215 0 -3 134 c-1 74 0 141 2 148 4 11 49 13 218 11 l213 -3 0 -145z m2563 -76 c2 -35 -2 -55 -11 -63 -10 -8 -73 -11 -218 -9 l-204 3 -3 63 -3 62 218 -2 218 -3 3 -51z"/>
 <path d="M1455 2910 c-147 -29 -267 -83 -391 -176 -151 -114 -274 -299 -321 -484 -104 -410 78 -831 448 -1029 301 -162 653 -142 944 52 125 83 276 269 316 388 7 19 15 39 19 44 4 6 15 42 26 80 15 56 19 103 19 235 0 163 -3 184 -42 300 -103 302 -383 539 -698 590 -63 11 -267 10 -320 0z m363 -169 c82 -22 176 -68 242 -116 99 -73 213 -215 245 -306 l14 -39 -36 -15 c-20 -9 -47 -18 -60 -21 -30 -8 -35 -17 -20 -38 11 -15 16 -15 70 2 l58 20 14 -28 c8 -15 17 -61 21 -103 l7 -76 -69 -3 c-61 -3 -69 -5 -69 -23 0 -18 8 -20 68 -23 l68 -3 -6 -47 c-11 -74 -35 -152 -48 -152 -7 0 -32 9 -56 20 -40 19 -71 25 -71 16 0 -2 -3 -11 -6 -20 -5 -12 9 -22 55 -42 34 -15 61 -32 61 -39 0 -7 -23 -47 -50 -90 -56 -85 -49 -84 -119 -18 -33 31 -36 32 -53 16 -18 -16 -17 -19 27 -63 25 -25 45 -50 45 -56 0 -17 -123 -114 -146 -114 -7 0 -25 22 -39 49 -29 59 -36 64 -60 47 -17 -12 -16 -16 13 -68 25 -43 29 -58 19 -66 -18 -16 -107 -48 -148 -55 l-36 -5 -9 61 c-8 57 -11 62 -34 62 -23 0 -25 -3 -22 -40 1 -22 5 -52 8 -67 l6 -28 -79 0 c-126 0 -125 0 -117 81 6 64 5 69 -13 69 -20 0 -32 -27 -48 -103 -5 -25 -9 -28 -31 -23 -37 10 -164 68 -164 75 0 4 15 30 34 59 31 46 33 53 20 67 -23 23 -29 19 -65 -40 -18 -30 -36 -55 -40 -55 -16 0 -149 118 -149 132 0 4 23 24 50 45 28 20 50 40 50 43 0 3 -6 15 -14 25 -13 17 -16 16 -66 -26 l-52 -44 -22 28 c-33 41 -79 136 -73 151 3 7 18 16 34 20 56 13 83 28 83 47 0 25 -14 31 -47 18 -29 -11 -58 -19 -82 -22 -18 -3 -43 95 -39 153 l3 45 65 1 c58 1 65 3 68 23 3 20 -1 21 -63 21 -50 0 -67 4 -72 15 -6 18 26 183 38 191 4 2 31 -5 59 -16 64 -25 80 -25 80 1 0 16 -14 27 -60 46 l-60 26 31 56 c114 203 315 344 544 381 77 13 233 3 313 -19z"/>
 <path d="M1535 2198 c-59 -32 -115 -116 -115 -173 0 -31 28 -95 53 -123 116 -127 331 -41 322 129 -3 72 -32 120 -95 158 -39 23 -130 28 -165 9z"/>
 <path d="M3370 2910 c-312 -52 -584 -282 -694 -588 -33 -93 -47 -183 -47 -302 0 -199 47 -356 154 -515 130 -191 344 -331 577 -377 84 -16 256 -16 344 1 300 57 573 286 670 564 12 34 24 67 28 72 29 47 40 308 19 420 -72 372 -357 654 -731 725 -54 11 -257 10 -320 0z m270 -150 c165 -24 318 -105 438 -231 51 -53 152 -212 152 -238 0 -11 -20 -22 -60 -35 -44 -14 -60 -24 -60 -37 0 -28 14 -30 73 -10 31 10 60 15 65 12 10 -7 19 -47 28 -138 l6 -62 -68 -3 c-63 -3 -69 -5 -72 -25 -3 -22 0 -23 68 -23 l71 0 -6 -35 c-3 -19 -7 -52 -10 -72 -8 -51 -25 -93 -39 -93 -6 0 -31 9 -55 20 -40 19 -71 25 -71 16 0 -2 -3 -11 -6 -20 -5 -12 9 -22 55 -42 34 -15 61 -31 61 -37 0 -14 -75 -141 -92 -155 -10 -8 -24 -2 -57 29 -48 42 -62 47 -80 26 -8 -11 -1 -23 34 -56 25 -23 45 -47 45 -54 0 -22 -120 -117 -146 -117 -8 0 -25 22 -39 49 -29 59 -36 64 -60 47 -17 -12 -16 -16 13 -68 36 -63 35 -67 -39 -94 -64 -24 -118 -33 -125 -22 -4 6 -9 33 -13 62 -5 46 -8 51 -31 51 -27 0 -26 3 -15 -82 3 -26 1 -45 -6 -49 -12 -7 -127 -6 -164 1 -11 2 -23 4 -26 4 -4 1 -2 22 3 49 16 77 15 87 -9 90 -17 3 -24 -3 -28 -25 -14 -67 -27 -103 -36 -103 -12 0 -147 56 -168 69 -12 8 -8 18 17 58 28 43 41 83 28 83 -2 0 -11 3 -19 6 -10 4 -25 -12 -47 -50 -17 -31 -35 -56 -39 -56 -12 0 -68 44 -111 89 l-41 42 23 21 c13 11 36 30 52 43 25 19 27 25 16 44 -13 25 -10 26 -84 -33 -29 -23 -39 -26 -51 -16 -20 16 -90 158 -82 166 3 4 30 14 59 24 34 11 54 23 56 35 7 32 -13 36 -72 14 -36 -14 -60 -19 -66 -13 -12 12 -33 171 -25 191 4 11 20 14 68 11 58 -3 62 -2 65 20 3 21 0 22 -62 22 -36 0 -67 3 -69 8 -13 20 27 202 44 202 3 0 32 -11 63 -25 l56 -25 11 21 c13 25 16 23 -54 54 -31 13 -57 29 -57 34 0 16 58 111 98 161 161 203 432 309 692 270z"/>
 <path d="M3475 2212 c-91 -30 -135 -91 -135 -187 0 -67 16 -102 70 -148 36 -30 49 -35 108 -39 43 -3 79 0 100 8 46 19 89 70 108 129 14 48 14 56 0 99 -30 88 -74 126 -166 143 -31 6 -57 5 -85 -5z"/>
 </g>
<g id="layer102" fill="#fd2424" stroke="none">
 <path d="M1570 1833 c0 -5 7 -84 15 -178 8 -93 15 -212 15 -262 0 -51 4 -93 8 -93 8 0 17 104 41 448 l6 92 -42 0 c-24 0 -43 -3 -43 -7z"/>
 <path d="M3487 1808 c4 -63 23 -404 24 -451 4 -81 16 -61 23 36 3 50 12 170 19 265 6 96 10 176 8 178 -2 2 -21 4 -40 4 -35 0 -36 -1 -34 -32z"/>
 </g>
<g id="layer103" fill="#ffd8d8" stroke="none">
 </g>
<g id="layer104" fill="#acdddd" stroke="none">
 <path d="M2350 4929 c-149 -18 -361 -58 -374 -70 -6 -5 -18 -9 -28 -9 -16 0 -116 -30 -163 -50 -241 -99 -331 -145 -501 -255 -199 -130 -455 -378 -590 -570 -229 -328 -362 -656 -414 -1021 -30 -204 -34 -351 -16 -539 17 -172 19 -188 57 -350 50 -216 160 -481 280 -670 l43 -68 -18 -31 c-27 -47 -80 -152 -116 -231 -60 -130 -88 -270 -107 -524 l-6 -84 94 77 c137 111 234 155 544 246 87 25 87 25 171 -38 142 -106 373 -235 517 -288 81 -30 242 -82 277 -90 19 -4 40 -9 45 -11 21 -7 173 -33 245 -42 383 -50 828 9 1165 152 184 78 412 209 536 308 l40 32 62 -17 c316 -86 393 -119 552 -239 58 -44 107 -78 109 -76 9 9 -29 355 -45 414 -32 115 -115 307 -177 406 l-21 34 46 75 c47 75 163 301 163 317 1 4 9 26 20 48 11 22 19 48 20 57 0 9 4 19 9 22 5 3 12 23 16 43 4 21 10 43 15 48 13 16 56 205 70 310 6 39 15 95 20 126 13 71 13 416 0 488 -5 31 -14 88 -19 126 -15 104 -59 294 -71 310 -4 6 -11 26 -15 45 -4 19 -11 41 -15 50 -4 8 -18 42 -30 75 -194 514 -633 991 -1135 1230 -218 105 -319 141 -525 190 -202 48 -535 68 -730 44z m1002 -1006 l3 -518 41 -3 c25 -2 45 2 52 11 7 8 13 65 14 143 l3 129 365 0 365 0 5 -140 5 -140 128 -3 127 -3 0 -74 0 -75 -1909 0 -1909 0 -4 71 c-2 39 -1 73 1 75 2 2 57 4 121 4 86 0 121 4 129 13 7 9 12 90 13 228 l3 214 370 0 370 0 2 -215 c1 -118 3 -221 3 -228 0 -9 14 -12 48 -10 l47 3 3 428 2 427 370 0 370 0 0 -425 0 -425 24 -6 c13 -3 37 -4 52 -2 l29 3 3 518 2 517 375 0 375 0 2 -517z m-1577 -1013 c315 -51 595 -288 698 -590 39 -116 42 -137 42 -300 0 -132 -4 -179 -19 -235 -11 -38 -22 -74 -26 -80 -4 -5 -12 -25 -19 -44 -40 -119 -191 -305 -316 -388 -291 -194 -643 -214 -944 -52 -226 122 -393 336 -451 579 -122 513 197 1009 715 1110 53 10 257 11 320 0z m1915 0 c278 -53 522 -232 643 -473 71 -141 99 -256 100 -412 1 -91 -16 -236 -31 -260 -4 -5 -16 -38 -28 -72 -97 -278 -370 -507 -670 -564 -88 -17 -260 -17 -344 -1 -368 72 -662 369 -721 730 -13 86 -13 238 0 324 58 360 368 668 731 728 63 10 266 11 320 0z"/>
 </g>
<g id="layer105" fill="#fcfcfc" stroke="none">
 <path d="M2760 3845 l0 -445 212 2 212 3 1 442 0 443 -212 0 -213 0 0 -445z"/>
 <path d="M1912 4098 c-19 -19 -17 -671 2 -687 9 -8 75 -11 217 -9 l204 3 0 350 0 350 -205 3 c-152 2 -209 -1 -218 -10z"/>
 <path d="M1054 3687 c-2 -7 -3 -74 -2 -148 l3 -134 215 0 215 0 0 145 0 145 -213 3 c-169 2 -214 0 -218 -11z"/>
 <path d="M3613 3468 l2 -63 204 -3 c145 -2 208 1 218 9 9 8 13 28 11 63 l-3 51 -217 3 -216 2 1 -62z"/>
 <path d="M1554 2759 c-3 -6 -17 -8 -31 -4 -14 3 -32 0 -41 -7 -13 -11 -14 -11 -7 1 6 11 4 13 -11 6 -10 -4 -29 -10 -41 -12 -13 -3 -23 -9 -23 -14 0 -5 -6 -6 -14 -3 -8 3 -47 -11 -87 -31 -89 -44 -111 -60 -101 -69 4 -4 2 -6 -4 -4 -15 5 -83 -44 -90 -65 -3 -10 -8 -16 -11 -13 -15 14 -139 -157 -127 -176 4 -6 3 -8 -3 -5 -6 4 -15 -4 -21 -17 -9 -20 -7 -25 14 -35 14 -6 33 -11 43 -11 10 0 25 -8 34 -18 18 -20 23 -52 8 -52 -5 0 -17 -3 -27 -7 -13 -5 -15 -3 -9 7 6 10 4 12 -8 7 -10 -3 -17 -2 -17 2 0 5 -13 14 -28 19 -26 9 -31 7 -44 -17 -19 -33 -42 -145 -35 -166 5 -11 22 -15 72 -15 63 0 66 -1 63 -22 -2 -16 -9 -22 -22 -20 -13 2 -16 -1 -10 -10 6 -11 5 -11 -8 0 -9 7 -34 12 -55 10 -36 -3 -38 -5 -41 -42 -2 -21 0 -46 3 -55 4 -9 9 -31 11 -49 3 -31 26 -67 36 -56 3 2 14 6 24 8 11 3 32 9 47 15 33 13 47 7 47 -18 0 -18 -37 -41 -66 -41 -8 0 -13 -4 -10 -8 3 -5 -5 -8 -17 -8 -13 1 -23 -6 -25 -18 -2 -10 0 -16 6 -12 6 3 9 -2 6 -11 -3 -19 63 -134 81 -140 6 -2 33 17 60 41 41 35 52 41 63 30 24 -26 9 -57 -43 -85 -22 -11 -29 -22 -27 -39 3 -28 29 -60 49 -60 8 0 12 -4 9 -8 -3 -5 7 -15 22 -23 15 -7 34 -19 44 -27 14 -12 17 -11 23 8 4 12 16 31 26 41 11 11 17 24 14 28 -2 5 2 12 11 15 21 8 20 8 38 -10 15 -14 14 -18 -4 -41 -11 -14 -20 -34 -20 -45 0 -11 -4 -17 -9 -14 -9 6 -25 -23 -18 -31 3 -2 15 -6 27 -8 13 -3 26 -9 29 -14 7 -10 105 -51 122 -51 6 0 8 7 5 16 -3 9 -2 12 5 9 6 -4 9 -1 7 6 -1 8 3 33 11 57 10 29 20 42 33 42 10 0 18 -7 18 -16 0 -9 5 -12 13 -8 8 5 8 3 -2 -9 -7 -9 -11 -26 -8 -37 3 -11 1 -18 -4 -14 -5 3 -9 -8 -9 -24 0 -36 15 -42 124 -42 l78 0 -7 28 c-4 15 -7 36 -7 47 1 10 -3 25 -9 31 -7 8 -6 14 1 19 6 3 8 10 5 15 -3 4 7 5 22 1 22 -6 30 -15 36 -47 4 -21 8 -49 8 -61 -1 -23 13 -31 24 -13 3 5 12 7 20 4 20 -8 115 27 108 39 -3 6 -1 7 6 3 6 -4 17 -1 25 6 12 12 12 18 0 39 -7 13 -14 20 -14 14 -1 -5 -7 8 -15 30 -13 36 -13 41 5 57 20 19 31 23 28 11 -4 -16 53 -113 66 -113 15 0 109 67 114 82 2 4 10 15 18 23 12 12 10 19 -17 49 -17 20 -37 36 -44 36 -19 0 -26 27 -9 34 9 3 13 10 10 15 -13 20 27 3 57 -25 69 -63 61 -64 117 21 27 43 50 83 50 90 0 7 -27 24 -60 38 -62 27 -66 32 -50 57 8 13 14 13 42 1 58 -23 98 -30 100 -17 3 23 5 32 17 61 7 17 10 48 8 69 -4 27 -3 35 4 25 7 -11 9 -9 9 8 0 20 -5 22 -67 25 -71 3 -69 1 -64 53 1 17 81 22 81 5 0 -5 11 -10 25 -10 21 0 25 5 25 30 0 17 -4 30 -10 30 -5 0 -10 5 -10 11 0 5 4 8 9 5 13 -8 1 73 -15 105 l-13 27 -58 -20 c-54 -17 -59 -17 -70 -2 -15 21 -10 30 20 38 13 3 39 12 59 20 36 15 36 16 26 50 -6 20 -15 33 -20 30 -5 -3 -8 0 -7 7 4 18 -29 79 -41 79 -6 0 -10 7 -10 15 0 19 -118 145 -137 145 -8 0 -12 4 -9 9 5 8 -17 23 -37 25 -5 1 -15 9 -22 19 -7 10 -20 20 -29 21 -8 1 -24 10 -35 20 -11 10 -25 15 -30 11 -6 -3 -11 -2 -11 3 0 13 -56 35 -69 27 -6 -3 -11 -2 -11 3 0 13 -94 34 -122 27 -15 -4 -29 -2 -32 4 -9 14 -123 14 -132 0z m142 -563 c8 -9 21 -13 27 -9 7 3 9 3 6 -1 -4 -4 4 -19 18 -34 22 -24 40 -56 47 -87 2 -5 6 -18 11 -28 4 -9 3 -23 -3 -30 -5 -6 -8 -22 -7 -34 1 -12 -1 -20 -5 -18 -4 2 -12 -11 -20 -29 -9 -24 -26 -40 -60 -57 -26 -13 -47 -28 -48 -34 -1 -5 -4 -61 -8 -123 -4 -62 -11 -115 -15 -118 -5 -3 -6 -31 -2 -64 3 -32 2 -67 -2 -77 -5 -10 -9 -51 -11 -91 -2 -68 -8 -92 -18 -81 -3 2 -6 47 -7 99 -1 52 -5 100 -8 105 -3 6 -7 48 -7 95 -4 237 -16 290 -62 273 -9 -4 -13 -2 -9 4 4 7 -5 17 -22 24 -17 8 -33 26 -40 46 -7 18 -16 33 -21 33 -5 0 -7 26 -5 58 5 70 9 101 12 98 2 -1 27 21 56 48 l53 51 67 -2 c46 -1 72 -6 83 -17z"/>
 <path d="M3465 2759 c-4 -6 -19 -7 -35 -4 -16 4 -31 2 -35 -5 -3 -5 -10 -8 -15 -5 -14 9 -103 -16 -128 -36 -13 -10 -30 -15 -39 -12 -12 5 -14 3 -8 -7 6 -10 4 -12 -8 -7 -9 3 -18 0 -21 -9 -3 -9 -10 -13 -16 -9 -5 3 -18 -3 -28 -13 -10 -10 -26 -21 -35 -25 -9 -3 -17 -11 -17 -17 0 -5 -6 -10 -14 -10 -24 0 -163 -149 -139 -150 4 0 1 -5 -9 -10 -23 -14 -70 -101 -63 -118 3 -8 12 -11 21 -8 8 3 12 2 9 -4 -3 -6 5 -10 18 -10 14 0 30 -7 37 -15 7 -8 19 -15 27 -15 23 0 -12 -43 -36 -45 -11 -1 -18 2 -15 7 3 4 -6 8 -19 8 -14 0 -30 7 -37 15 -7 8 -18 15 -24 15 -28 0 -59 -168 -35 -196 7 -9 31 -14 66 -14 51 0 54 -2 51 -22 -3 -21 -8 -23 -53 -20 -76 5 -88 -12 -75 -113 6 -44 14 -83 20 -89 6 -6 26 -2 57 9 71 27 92 28 85 1 -8 -34 -22 -46 -54 -46 -19 0 -27 -4 -22 -12 4 -6 3 -8 -4 -5 -14 9 -42 -2 -42 -17 0 -7 5 -17 12 -24 6 -6 13 -19 14 -27 3 -20 51 -102 65 -110 5 -4 26 6 46 22 72 58 70 57 83 32 11 -19 9 -25 -8 -38 -11 -9 -34 -27 -50 -41 l-30 -24 31 -34 c67 -70 91 -91 99 -86 4 3 8 0 8 -5 0 -26 21 -7 50 44 33 58 36 60 60 45 12 -8 13 -14 1 -47 -8 -21 -22 -46 -32 -56 -28 -27 -22 -44 14 -38 4 0 7 -3 7 -7 0 -12 50 -33 61 -27 5 4 9 2 9 -4 0 -5 16 -15 36 -21 40 -14 58 -2 50 32 -2 10 0 21 6 24 5 3 8 16 7 27 -3 43 0 49 24 41 12 -4 28 -7 35 -7 8 0 10 -6 6 -16 -4 -9 -8 -25 -9 -36 -1 -11 -5 -28 -9 -37 -13 -38 -14 -45 -3 -47 59 -9 161 -15 177 -9 21 8 21 4 6 114 -4 28 -2 31 17 26 35 -8 44 -20 40 -49 -3 -16 0 -41 6 -57 9 -22 14 -26 25 -17 7 6 16 8 19 4 9 -8 87 17 87 28 0 5 7 5 17 2 12 -5 14 -3 8 7 -5 9 -4 11 4 6 6 -4 18 -2 26 4 11 9 11 17 3 35 -6 14 -14 22 -18 20 -4 -3 -10 5 -13 18 -2 12 -7 29 -11 38 -5 11 1 21 19 33 14 9 24 13 23 9 -4 -15 53 -113 65 -113 17 0 104 62 107 75 0 6 10 13 21 17 35 13 27 33 -39 91 -32 28 -39 39 -27 43 8 4 15 12 15 20 0 8 5 14 11 14 5 0 7 -5 4 -10 -6 -9 8 -14 28 -11 4 0 7 -3 7 -8 0 -5 14 -23 32 -40 25 -24 34 -28 45 -19 23 19 95 146 89 157 -4 5 -20 12 -36 16 -17 4 -27 11 -24 17 4 6 1 9 -7 6 -20 -7 -51 26 -43 46 5 13 13 16 33 11 14 -3 34 -6 44 -6 10 0 15 -5 11 -11 -5 -7 -1 -9 9 -5 10 3 17 2 17 -3 0 -6 6 -10 14 -10 16 0 33 39 41 93 3 20 7 53 10 72 l6 35 -69 0 c-66 0 -70 1 -74 24 -3 14 0 30 5 35 14 14 87 14 87 1 0 -5 12 -10 26 -10 26 0 26 1 19 53 -3 28 -6 62 -6 75 1 13 -3 21 -8 18 -5 -4 -7 3 -4 14 7 27 -21 54 -39 38 -7 -7 -22 -13 -33 -14 -11 0 -30 -4 -43 -8 -19 -6 -24 -4 -29 13 -3 12 -10 21 -17 21 -6 0 -4 4 4 9 8 6 17 8 22 5 4 -3 24 3 45 12 21 9 44 16 51 15 14 -2 16 15 3 24 -6 3 -9 14 -8 24 1 23 -89 168 -114 181 -10 6 -19 17 -19 25 0 8 -7 15 -15 15 -8 0 -15 7 -15 15 0 8 -5 15 -11 15 -6 0 -24 14 -41 30 -16 17 -36 30 -44 30 -8 0 -14 4 -14 9 0 12 -87 61 -108 61 -8 0 -23 6 -31 14 -22 18 -97 39 -148 40 -23 1 -45 5 -49 9 -11 11 -132 8 -139 -4z m142 -545 c7 3 13 1 13 -4 0 -5 18 -19 39 -31 22 -12 39 -25 38 -28 0 -3 9 -26 21 -50 24 -48 28 -82 13 -110 -6 -10 -11 -29 -13 -42 -2 -14 -18 -39 -35 -56 -17 -17 -29 -34 -25 -38 4 -4 2 -6 -3 -5 -20 4 -36 0 -31 -9 4 -5 -4 -7 -16 -3 -14 3 -19 1 -14 -6 4 -7 2 -10 -6 -7 -11 4 -17 -24 -26 -132 -7 -76 -12 -161 -12 -190 0 -28 -5 -55 -10 -58 -6 -4 -8 -28 -4 -60 7 -59 -1 -109 -16 -100 -6 4 -10 18 -11 33 0 15 -1 59 -3 97 -2 39 -5 106 -6 150 -2 44 -6 85 -9 90 -3 6 -6 48 -6 95 0 68 -3 85 -15 85 -8 0 -25 10 -39 23 -13 12 -29 22 -35 22 -22 1 -50 75 -55 147 -4 39 -4 70 -1 68 3 -2 12 10 19 26 27 62 126 111 195 97 22 -5 45 -7 53 -4z"/>
 </g>

</svg>