<?xml version="1.0" encoding="UTF-8" ?>
<!DOCTYPE svg PUBLIC "-//W3C//DTD SVG 1.1//EN" "http://www.w3.org/Graphics/SVG/1.1/DTD/svg11.dtd">
<svg width="297pt" height="74pt" viewBox="0 0 297 74" version="1.1" xmlns="http://www.w3.org/2000/svg">
<path fill="#ffffff" d=" M 0.00 0.00 L 297.00 0.00 L 297.00 9.14 C 294.41 9.03 291.82 9.00 289.24 8.98 C 289.24 14.02 289.31 19.06 289.16 24.10 C 285.19 19.22 281.62 14.04 277.84 9.01 C 275.49 9.00 273.14 9.00 270.79 9.00 C 270.80 18.67 270.51 28.34 271.05 38.00 C 273.44 38.00 275.84 38.00 278.24 38.00 C 278.19 32.61 278.31 27.23 278.51 21.85 C 282.68 26.95 286.13 32.62 290.35 37.67 C 292.50 38.26 294.79 37.92 297.00 37.99 L 297.00 40.34 C 198.20 40.10 99.39 40.38 0.59 40.20 C 0.55 42.14 0.51 44.07 0.48 46.01 C 99.32 45.95 198.16 46.09 297.00 45.93 L 297.00 74.00 L 223.47 74.00 C 224.48 73.17 225.67 72.72 227.02 72.64 C 227.00 69.88 227.17 67.09 226.69 64.36 C 226.36 64.31 225.70 64.22 225.37 64.17 C 225.01 66.41 225.04 68.68 224.69 70.92 C 223.93 71.13 222.41 71.56 221.65 71.77 C 221.27 68.01 221.79 64.28 222.17 60.56 C 219.71 63.75 219.59 68.05 219.80 71.92 C 220.32 72.33 221.37 73.14 221.90 73.55 L 222.20 74.00 L 0.00 74.00 L 0.00 19.78 C 2.46 25.34 9.00 25.80 13.63 28.58 C 15.91 29.71 13.86 32.44 11.95 32.44 C 7.76 33.03 3.97 30.75 0.29 29.14 C 0.36 31.34 -0.04 33.63 0.64 35.77 C 6.02 38.58 12.96 39.46 18.41 36.39 C 22.79 34.00 23.49 27.34 20.06 23.86 C 16.36 19.98 10.14 20.21 6.67 15.98 C 10.09 13.50 14.27 14.44 18.03 15.35 C 18.01 13.33 17.98 11.30 17.94 9.27 C 11.70 7.90 3.56 7.69 0.00 14.10 L 0.00 0.00 Z" />
<path fill="#ea1d2c" d=" M 0.89 0.88 C 13.92 0.26 26.98 0.63 40.02 0.56 C 114.71 0.55 189.40 0.53 264.10 0.59 C 274.73 0.81 285.38 0.10 295.99 0.90 C 295.99 2.75 295.99 4.60 296.00 6.45 C 197.62 6.53 99.25 6.54 0.87 6.44 C 0.89 4.59 0.89 2.73 0.89 0.88 Z" />
<path fill="#231f20" d=" M 0.00 14.10 C 3.56 7.69 11.70 7.90 17.94 9.27 C 17.98 11.30 18.01 13.33 18.03 15.35 C 14.27 14.44 10.09 13.50 6.67 15.98 C 10.14 20.21 16.36 19.98 20.06 23.86 C 23.49 27.34 22.79 34.00 18.41 36.39 C 12.96 39.46 6.02 38.58 0.64 35.77 C -0.04 33.63 0.36 31.34 0.29 29.14 C 3.97 30.75 7.76 33.03 11.95 32.44 C 13.86 32.44 15.91 29.71 13.63 28.58 C 9.00 25.80 2.46 25.34 0.00 19.78 L 0.00 14.10 Z" />
<path fill="#231f20" d=" M 19.43 9.10 C 26.74 8.88 34.05 9.06 41.37 9.00 C 41.45 10.92 41.45 12.84 41.35 14.76 C 38.98 14.76 36.60 14.76 34.23 14.78 C 34.25 22.52 34.29 30.27 34.20 38.02 C 31.61 38.01 29.02 38.00 26.42 37.89 C 26.58 30.18 26.48 22.47 26.49 14.76 C 24.16 14.75 21.83 14.74 19.50 14.73 C 19.49 12.85 19.47 10.98 19.43 9.10 Z" />
<path fill="#231f20" d=" M 42.76 9.00 C 45.33 9.00 47.91 9.00 50.49 9.00 C 50.49 18.66 50.56 28.34 50.45 38.00 C 47.90 38.00 45.34 38.00 42.79 38.00 C 42.70 28.33 42.77 18.67 42.76 9.00 Z" />
<path fill="#231f20" d=" M 55.42 9.10 C 61.48 8.94 67.54 8.92 73.59 9.11 C 73.53 10.98 73.50 12.85 73.46 14.71 C 69.96 14.76 66.45 14.74 62.95 14.80 C 63.05 16.52 63.16 18.24 63.26 19.96 C 66.44 20.00 69.62 20.00 72.80 20.06 C 72.77 21.95 72.75 23.85 72.73 25.75 C 69.49 25.74 66.25 25.74 63.00 25.79 C 63.00 27.94 63.00 30.10 63.00 32.25 C 66.57 32.25 70.15 32.24 73.72 32.27 C 73.74 34.15 73.74 36.04 73.73 37.92 C 67.55 38.04 61.37 38.07 55.20 37.90 C 55.47 28.30 55.64 18.70 55.42 9.10 Z" />
<path fill="#231f20" d=" M 77.80 9.04 C 83.51 9.51 89.99 7.55 95.12 10.82 C 98.91 13.59 98.12 18.91 95.33 22.09 C 96.83 23.59 99.09 24.74 99.46 27.04 C 100.64 31.20 98.59 36.63 94.01 37.54 C 88.67 38.48 83.19 37.81 77.79 38.00 C 77.72 28.34 77.72 18.69 77.80 9.04 Z" />
<path fill="#231f20" d=" M 103.04 9.21 C 109.12 9.30 115.20 9.19 121.27 9.29 C 121.27 11.15 121.28 13.00 121.30 14.86 C 117.79 15.06 114.27 15.02 110.75 15.00 C 110.75 16.74 110.75 18.49 110.76 20.24 C 114.00 20.22 117.25 20.22 120.48 20.47 C 120.50 22.28 120.53 24.09 120.57 25.91 C 117.30 26.02 114.03 26.01 110.76 26.00 C 110.75 28.16 110.75 30.32 110.74 32.49 C 114.33 32.50 117.91 32.48 121.50 32.56 C 121.50 34.37 121.50 36.19 121.49 38.00 C 115.33 38.00 109.16 38.00 103.00 38.00 C 103.03 28.40 102.95 18.81 103.04 9.21 Z" />
<path fill="#231f20" d=" M 126.05 9.20 C 128.53 9.24 131.01 9.26 133.49 9.29 C 134.12 17.02 133.39 24.76 133.67 32.49 C 136.87 32.50 140.06 32.50 143.26 32.51 C 143.25 34.34 143.23 36.17 143.20 38.00 C 137.47 38.00 131.73 38.00 126.00 38.00 C 126.03 28.40 125.94 18.80 126.05 9.20 Z" />
<path fill="#231f20" d=" M 154.81 9.07 C 160.80 8.93 166.79 9.03 172.78 9.08 C 172.76 10.97 172.75 12.86 172.73 14.76 C 169.24 14.75 165.75 14.74 162.26 14.78 C 162.26 16.61 162.26 18.43 162.27 20.26 C 165.56 20.25 168.86 20.25 172.15 20.23 C 172.08 22.15 172.01 24.08 171.97 26.00 C 168.71 25.99 165.46 25.99 162.20 26.05 C 162.24 28.21 162.26 30.37 162.30 32.54 C 165.87 32.48 169.43 32.49 173.00 32.51 C 173.00 34.34 173.00 36.17 173.00 38.00 C 166.85 38.00 160.70 38.00 154.55 38.00 C 154.32 28.36 154.64 18.72 154.81 9.07 Z" />
<path fill="#231f20" d=" M 177.22 9.03 C 179.74 9.00 182.25 9.00 184.77 9.02 C 184.73 16.76 184.76 24.50 184.75 32.24 C 187.98 32.25 191.21 32.24 194.44 32.30 C 194.49 34.16 194.52 36.02 194.56 37.88 C 188.78 38.10 183.00 37.99 177.22 37.96 C 177.27 28.32 177.27 18.67 177.22 9.03 Z" />
<path fill="#231f20" d=" M 189.45 9.07 C 196.74 8.97 204.03 8.91 211.31 9.11 C 211.28 10.97 211.27 12.83 211.27 14.70 C 208.92 14.74 206.57 14.76 204.23 14.81 C 204.25 22.54 204.29 30.27 204.20 37.99 C 201.64 38.00 199.08 38.00 196.52 38.01 C 196.47 30.26 196.52 22.51 196.49 14.76 C 194.16 14.75 191.83 14.75 189.50 14.73 C 189.49 12.84 189.48 10.96 189.45 9.07 Z" />
<path fill="#231f20" d=" M 213.21 9.04 C 218.19 9.06 223.18 8.80 228.16 9.09 C 232.66 9.17 236.43 13.59 235.78 18.06 C 235.91 20.80 233.81 22.79 231.90 24.41 C 234.88 28.57 236.92 33.28 238.83 38.00 C 236.01 38.01 233.19 38.01 230.37 37.91 C 228.09 33.51 227.18 26.14 220.95 26.00 C 220.64 29.98 220.73 33.97 220.80 37.96 C 218.27 38.00 215.74 38.00 213.22 37.97 C 213.27 28.33 213.28 18.68 213.21 9.04 Z" />
<path fill="#231f20" d=" M 248.18 9.32 C 256.06 6.35 265.74 11.73 267.15 20.07 C 269.10 27.83 264.10 36.94 255.92 38.20 C 247.67 40.24 238.72 33.62 238.38 25.10 C 237.46 18.38 241.59 11.30 248.18 9.32 Z" />
<path fill="#231f20" d=" M 270.79 9.00 C 273.14 9.00 275.49 9.00 277.84 9.01 C 281.62 14.04 285.19 19.22 289.16 24.10 C 289.31 19.06 289.24 14.02 289.24 8.98 C 291.82 9.00 294.41 9.03 297.00 9.14 L 297.00 37.99 C 294.79 37.92 292.50 38.26 290.35 37.67 C 286.13 32.62 282.68 26.95 278.51 21.85 C 278.31 27.23 278.19 32.61 278.24 38.00 C 275.84 38.00 273.44 38.00 271.05 38.00 C 270.51 28.34 270.80 18.67 270.79 9.00 Z" />
<path fill="#ffffff" d=" M 85.00 14.40 C 86.80 14.73 88.86 14.54 90.42 15.66 C 90.77 16.81 91.04 18.17 90.22 19.20 C 88.89 20.61 86.74 20.07 85.02 20.38 C 85.00 18.38 85.00 16.39 85.00 14.40 Z" />
<path fill="#ffffff" d=" M 220.97 14.46 C 223.67 14.45 228.12 14.13 228.07 17.97 C 227.36 21.24 223.51 20.51 221.05 20.64 C 220.83 18.58 220.88 16.52 220.97 14.46 Z" />
<path fill="#ffffff" d=" M 250.47 15.53 C 253.97 14.23 258.32 16.13 259.17 19.89 C 260.83 24.61 259.04 32.09 253.06 32.29 C 244.72 32.28 243.60 18.61 250.47 15.53 Z" />
<path fill="#ffffff" d=" M 85.00 25.92 C 87.48 25.94 89.97 26.11 92.37 26.81 C 92.15 28.49 93.30 31.19 91.02 31.83 C 89.06 32.39 87.00 32.22 85.00 32.30 C 85.00 30.18 85.00 28.05 85.00 25.92 Z" />
<path fill="#ea1d2c" d=" M 0.59 40.20 C 99.39 40.38 198.20 40.10 297.00 40.34 L 297.00 45.93 C 198.16 46.09 99.32 45.95 0.48 46.01 C 0.51 44.07 0.55 42.14 0.59 40.20 Z" />
<path fill="#231f20" d=" M 24.86 60.48 C 28.94 60.13 33.05 60.14 37.13 60.47 C 36.24 62.58 33.82 61.87 32.00 62.09 C 32.00 65.74 32.00 69.38 32.00 73.02 C 31.50 73.01 30.50 73.00 30.00 72.99 C 30.00 69.36 30.00 65.73 30.00 62.10 C 28.18 61.86 25.76 62.57 24.86 60.48 Z" />
<path fill="#231f20" d=" M 60.16 60.45 C 60.58 60.29 61.42 59.97 61.84 59.81 C 61.93 61.48 61.98 63.15 62.01 64.82 C 63.74 64.38 66.25 63.79 67.07 65.98 C 67.43 68.49 67.24 71.04 67.15 73.56 C 64.00 72.33 66.10 68.20 65.13 65.67 C 60.85 65.63 62.13 70.19 61.98 73.00 C 61.48 73.02 60.50 73.05 60.00 73.07 C 60.08 68.86 59.78 64.64 60.16 60.45 Z" />
<path fill="#231f20" d=" M 156.91 59.70 C 160.52 60.89 160.36 65.53 162.29 68.29 C 163.39 65.65 164.45 63.00 165.47 60.33 C 166.01 60.31 167.09 60.27 167.63 60.24 C 168.61 62.75 169.53 65.28 170.66 67.73 C 172.80 66.30 172.96 62.59 174.28 60.28 C 174.86 60.27 176.01 60.25 176.59 60.24 C 174.66 64.35 173.18 68.65 171.34 72.80 C 171.13 72.79 170.70 72.77 170.49 72.76 C 169.09 69.68 168.04 66.44 166.41 63.47 C 165.06 66.80 163.76 70.15 162.30 73.42 C 160.05 69.06 158.00 64.50 156.91 59.70 Z" />
<path fill="#231f20" d=" M 192.16 60.47 C 192.58 60.30 193.41 59.96 193.83 59.79 C 193.92 61.46 193.98 63.13 194.01 64.81 C 195.72 64.38 198.36 63.78 199.08 66.02 C 199.43 68.51 199.24 71.04 199.15 73.55 C 196.04 72.30 198.07 68.22 197.17 65.69 C 192.84 65.55 194.15 70.22 193.97 73.03 C 193.48 73.02 192.49 73.00 192.00 72.99 C 192.08 68.82 191.79 64.63 192.16 60.47 Z" />
<path fill="#231f20" d=" M 204.70 60.34 C 205.16 60.32 206.07 60.27 206.53 60.25 C 206.49 64.48 206.47 68.72 206.55 72.95 C 206.08 72.92 205.14 72.84 204.67 72.81 C 204.79 68.65 204.77 64.50 204.70 60.34 Z" />
<path fill="#231f20" d=" M 211.07 65.46 C 212.01 63.12 212.62 59.15 216.13 60.05 C 218.23 61.53 214.64 61.89 214.02 62.98 C 214.30 64.15 215.42 65.37 214.47 66.57 C 213.66 68.61 214.07 70.86 213.97 73.00 C 213.49 73.01 212.51 73.03 212.02 73.04 C 211.88 70.51 212.52 67.72 211.07 65.46 Z" />
<path fill="#231f20" d=" M 232.40 60.61 C 232.74 60.36 233.42 59.87 233.76 59.62 C 233.90 61.37 233.98 63.13 234.01 64.90 C 235.57 64.56 237.49 63.73 238.71 65.26 C 240.18 67.74 239.28 70.85 239.42 73.58 C 235.90 72.65 238.11 68.28 237.21 65.72 C 232.61 65.55 234.29 70.65 233.90 73.55 C 233.51 73.31 232.72 72.84 232.32 72.60 C 232.19 68.61 232.10 64.59 232.40 60.61 Z" />
<path fill="#231f20" d=" M 244.71 60.34 C 245.21 60.30 246.22 60.22 246.73 60.18 C 246.76 64.47 246.74 68.77 246.77 73.06 C 246.24 72.99 245.20 72.85 244.67 72.77 C 244.79 68.63 244.77 64.48 244.71 60.34 Z" />
<path fill="#231f20" d=" M 85.22 61.28 C 86.83 60.71 87.39 61.25 86.91 62.90 C 85.30 63.47 84.74 62.93 85.22 61.28 Z" />
<path fill="#231f20" d=" M 92.24 60.29 L 94.25 60.22 C 94.26 62.87 94.24 65.52 94.17 68.17 C 95.92 66.56 97.46 64.39 100.04 64.13 C 99.09 65.77 97.62 67.13 96.97 68.93 C 98.18 70.42 99.56 71.75 100.83 73.19 C 97.83 73.60 96.19 71.00 94.37 69.17 C 93.96 70.78 95.09 73.60 92.32 73.58 C 92.19 69.15 92.27 64.72 92.24 60.29 Z" />
<path fill="#231f20" d=" M 219.80 71.92 C 219.59 68.05 219.71 63.75 222.17 60.56 C 221.79 64.28 221.27 68.01 221.65 71.77 C 222.41 71.56 223.93 71.13 224.69 70.92 C 225.04 68.68 225.01 66.41 225.37 64.17 C 225.70 64.22 226.36 64.31 226.69 64.36 C 227.17 67.09 227.00 69.88 227.02 72.64 C 225.67 72.72 224.48 73.17 223.47 74.00 L 222.20 74.00 L 221.90 73.55 C 221.37 73.14 220.32 72.33 219.80 71.92 Z" />
<path fill="#231f20" d=" M 224.24 61.34 C 225.85 60.81 226.40 61.35 225.87 62.97 C 224.21 63.50 223.67 62.96 224.24 61.34 Z" />
<path fill="#231f20" d=" M 36.93 70.89 C 35.36 68.04 37.57 63.72 41.04 64.31 C 43.63 64.28 44.09 67.25 44.53 69.19 C 42.36 69.24 40.20 69.27 38.04 69.38 C 39.59 71.90 42.33 71.43 44.76 70.71 C 43.74 74.32 38.21 74.20 36.93 70.89 Z" />
<path fill="#231f20" d=" M 49.78 72.31 C 46.99 70.13 48.29 64.65 51.92 64.32 C 53.68 63.89 55.16 64.76 55.92 66.37 C 54.24 66.66 51.58 65.39 50.62 67.42 C 49.71 68.67 50.44 71.07 52.11 71.12 C 53.24 71.46 56.65 70.83 55.02 73.10 C 53.27 73.31 51.24 73.49 49.78 72.31 Z" />
<path fill="#231f20" d=" M 85.31 64.33 C 85.64 64.31 86.31 64.28 86.64 64.26 C 87.30 67.14 86.93 70.13 86.99 73.06 C 86.50 73.05 85.50 73.03 85.01 73.02 C 85.04 70.12 84.74 67.19 85.31 64.33 Z" />
<path fill="#231f20" d=" M 127.76 64.68 C 128.24 64.58 129.20 64.39 129.68 64.29 C 129.75 67.15 129.75 70.02 129.82 72.89 C 127.66 72.75 125.34 73.36 123.28 72.59 C 121.83 70.20 122.74 67.17 122.49 64.52 L 124.21 64.48 C 124.24 66.60 124.15 68.72 124.41 70.83 C 125.44 71.81 126.51 71.83 127.63 70.89 C 127.83 68.83 127.75 66.75 127.76 64.68 Z" />
<path fill="#231f20" d=" M 135.00 64.59 C 137.27 64.56 139.60 64.26 141.79 65.04 C 143.57 64.28 146.07 63.74 147.05 65.96 C 147.42 68.22 147.24 70.53 147.34 72.81 C 146.88 72.84 145.95 72.91 145.49 72.94 C 145.52 70.56 145.44 68.17 145.12 65.81 C 140.59 65.59 142.31 70.68 141.91 73.51 C 138.02 72.71 142.53 65.66 137.99 65.99 C 135.01 67.61 138.72 72.55 135.08 73.58 C 134.97 70.59 135.00 67.59 135.00 64.59 Z" />
<path fill="#231f20" d=" M 181.41 64.47 C 184.21 63.53 187.85 65.86 187.29 69.02 C 187.59 73.52 180.76 74.68 178.71 71.21 C 177.47 68.74 178.32 64.96 181.41 64.47 Z" />
<path fill="#231f20" d=" M 251.64 70.04 C 250.49 66.85 253.67 63.18 256.97 64.51 C 259.04 65.04 259.11 67.50 259.47 69.20 C 257.32 69.24 255.17 69.27 253.02 69.38 C 254.63 71.81 257.29 71.48 259.75 70.70 C 258.68 74.61 252.25 73.85 251.64 70.04 Z" />
<path fill="#231f20" d=" M 263.99 64.58 C 266.27 64.94 269.75 63.27 271.06 65.95 C 271.45 68.47 271.23 71.03 271.15 73.56 C 267.99 72.44 270.32 68.47 268.98 66.12 C 264.73 65.03 266.23 70.67 265.98 73.10 C 265.48 73.08 264.50 73.03 264.00 73.00 C 264.00 70.19 264.00 67.39 263.99 64.58 Z" />
<path fill="#231f20" d=" M 72.49 64.60 C 74.85 64.79 79.43 63.19 79.68 66.83 C 79.42 69.04 81.05 72.67 78.11 73.52 C 78.01 71.03 77.96 68.53 77.74 66.05 C 77.10 66.11 75.81 66.23 75.17 66.29 C 73.23 68.36 76.35 73.06 72.56 73.55 C 72.48 70.57 72.50 67.58 72.49 64.60 Z" />
<path fill="#231f20" d=" M 110.74 64.52 C 113.22 64.50 115.69 64.49 118.16 64.51 C 116.82 66.75 115.41 68.93 114.01 71.13 C 115.67 71.23 117.33 71.38 118.98 71.57 C 117.01 74.22 113.26 72.73 110.48 73.01 C 111.88 70.73 113.33 68.48 114.81 66.25 C 113.46 66.25 112.11 66.24 110.76 66.23 L 110.74 64.52 Z" />
<path fill="#ffffff" d=" M 38.56 67.76 C 37.77 65.84 41.92 64.94 42.20 67.01 C 41.83 68.51 39.58 68.63 38.56 67.76 Z" />
<path fill="#ffffff" d=" M 181.34 66.43 C 184.42 64.32 187.26 70.05 183.84 71.25 C 180.88 72.93 178.45 67.86 181.34 66.43 Z" />
<path fill="#ffffff" d=" M 253.03 67.64 C 253.96 67.01 254.80 66.18 255.93 65.89 C 256.59 66.46 257.25 67.05 257.89 67.65 C 256.27 67.69 254.65 67.69 253.03 67.64 Z" />
</svg>
