<?xml version="1.0"?>
<svg xmlns="http://www.w3.org/2000/svg" viewBox="0 0 16 16">
    <path style="line-height:normal;text-indent:0;text-align:start;text-decoration-line:none;text-decoration-style:solid;text-decoration-color:#000;text-transform:none;block-progression:tb;isolation:auto;mix-blend-mode:normal" d="M 7.5117188 1 C 6.1389914 1 5.0117188 2.1272727 5.0117188 3.5 L 5.0117188 9.1210938 C 4.4128698 9.7455701 4 10.562418 4 11.5 C 4 13.427167 5.572833 15 7.5 15 C 9.427167 15 11 13.427167 11 11.5 C 11 10.575305 10.597503 9.7657458 10.011719 9.1425781 L 10.011719 3.5 C 10.011719 2.1272727 8.8844459 1 7.5117188 1 z M 7.5117188 2 C 8.3389914 2 9.0117187 2.6727273 9.0117188 3.5 L 9.0117188 9.2871094 A 0.50005 0.50005 0 0 0 9.1757812 9.6582031 C 9.6819005 10.118998 10 10.766999 10 11.5 C 10 12.886833 8.886833 14 7.5 14 C 6.113167 14 5 12.886833 5 11.5 C 5 10.757148 5.3263782 10.103677 5.84375 9.6425781 A 0.50005 0.50005 0 0 0 6.0117188 9.2695312 L 6.0117188 3.5 C 6.0117188 2.6727273 6.684446 2 7.5117188 2 z M 7 5 L 7 10.087891 A 1.5 1.5 0 0 0 6 11.5 A 1.5 1.5 0 0 0 7.5 13 A 1.5 1.5 0 0 0 9 11.5 A 1.5 1.5 0 0 0 8 10.087891 L 8 5 L 7 5 z" font-weight="400" font-family="sans-serif" white-space="normal" overflow="visible"/>
</svg>
