<?xml version="1.0" encoding="utf-8"?>
<!-- Generator: Adobe Illustrator 14.0.0, SVG Export Plug-In . SVG Version: 6.00 Build 43363)  -->
<!DOCTYPE svg PUBLIC "-//W3C//DTD SVG 1.1//EN" "http://www.w3.org/Graphics/SVG/1.1/DTD/svg11.dtd">
<svg version="1.1" xmlns="http://www.w3.org/2000/svg" xmlns:xlink="http://www.w3.org/1999/xlink" x="0px" y="0px" width="300px"
	 height="200px" viewBox="0 0 300 200" enable-background="new 0 0 300 200" xml:space="preserve">
<g id="Calque_3">
	<g id="XMLID_1_">
		<path fill="#D1A41A" d="M53.7299805,130c2.9599609,3.6503906,6.25,7.3496094,9.8701172,11.0693359
			c-10.5400391,3.1708984-17.4501953,9.0605469-21.7602539,14.2607422
			c-6.8198242,8.2304688-10.4296875,19.1005859-9.5996094,28.4296875H14.0898438
			C17.7299805,175.8603516,32.2597656,153.0400391,53.7299805,130z"/>
		<path fill="#D1A41A" d="M263.9902344,188.7099609h-22.0703125
			c-50.6298828-26.4199219-95.0800781-45.0498047-142.2998047-49.1201172
			c0.1000977-6.5703125,1.2700195-14.0097656,3.5200195-22.2998047l-4.3500977-1.1699219
			c-2.3100586,8.5195313-3.5200195,16.2294922-3.6601563,23.1298828c-4.9199219-0.3300781-9.8701172-0.4902344-14.8701172-0.4902344
			c-4.2299805,0-8.0898438,0.390625-11.6098633,1.0703125c-4.5898438-4.5800781-8.5-8.9599609-11.8198242-13.109375
			c21.7797852-22.6806641,57.6499023-43.2011719,88.8701172-50.9208984
			c8.7900391,29.2197266,27.6601563,49.2402344,50.5595703,62.7099609c1.6796875-0.9599609,3.3300781-1.9599609,4.9501953-3.0195313
			L241.1601563,178.5l1.75-0.1503906c10.9091797-0.9394531,17.109375,4.9804688,18.75,6.8203125
			C262.8701172,186.5097656,263.5898438,187.7402344,263.9902344,188.7099609z"/>
		<path fill="#FFDC76" d="M244.5,44.8496094c0.8105469,39.6904297-19.4394531,71.2802734-47.7900391,87.4804688
			c-48.1201172-23.9697266-57.1801758-84.7099609-48.9799805-117.2900391
			C150.0097656,27.5,154.1601563,35.3105469,163.1201172,39.140625c19.5400391-5.5908203,46.4296875-6.03125,66.2402344-0.5703125
			c8.25-6,11.4501953-15.1699219,13.2001953-23.1796875C244.7402344,24.7099609,244.4902344,44.8496094,244.5,44.8496094z"/>
	</g>
</g>
<g id="Layer_1">
	<polygon points="123.4584961,82.4277344 130.8007813,104.1835938 108.5014648,89.2265625 	"/>
	<polygon points="101.9750977,91.9462891 109.8613281,105.5429688 93.2729492,97.1132813 	"/>
	<polygon points="84.0268555,102.5517578 87.8339844,116.1494141 76.4125977,108.2626953 	"/>
	<polygon points="205.5849609,138.9921875 198.5146484,149.8701172 211.0234375,144.1591797 	"/>
	<polygon points="216.734375,151.5019531 205.3134766,160.2041016 221.0859375,156.125 	"/>
	<polygon points="188.9960938,33.4785156 197.4267578,51.9707031 202.8652344,33.2070313 	"/>
	<polygon points="146.3017578,60.4003906 159.6269531,67.4707031 147.6611328,68.2871094 	"/>
	<polygon points="149.5649414,74.8144531 157.7231445,78.0771484 150.9248047,79.9804688 	"/>
	<polygon points="244.7451172,65.5683594 233.8671875,70.1914063 242.8408203,71.5507813 	"/>
	<polygon points="240.3935547,78.8925781 231.9638672,81.3408203 238.7617188,83.7880859 	"/>
</g>
<g id="Calque_4">
	<rect x="141.9233398" y="99.3027344" width="26.2446289" height="3.2392578"/>
	<rect x="141.9233398" y="91.5253906" width="26.2446289" height="3.2402344"/>
	<rect x="222.0634766" y="99.3027344" width="26.2441406" height="3.2392578"/>
	<rect x="222.0634766" y="91.5253906" width="26.2441406" height="3.2402344"/>
	<g>
		<path d="M212.8134766,72.3164063h-27.1875h-3.0205078h-12.5605469v-2.9160156h13.3095703
			c1.6386719-7.0175781,1.9628906-13.7246094-0.0136719-17.125c-0.84375-1.4453125-2.0097656-2.1210938-3.6738281-2.1210938
			c-7.609375,0-10.7529297,8.046875-10.8837891,8.3886719l0.0019531-0.0019531l-2.7304688-1.0244141
			c0.15625-0.4199219,3.9648438-10.2783203,13.6123047-10.2783203c2.6923828,0,4.8339844,1.2363281,6.1914063,3.5703125
			c2.4101563,4.140625,2.1269531,11.3046875,0.4941406,18.5917969h23.3544922
			c3.1025391-9.1152344,9.5810547-13.4130859,20.4052734-13.4130859v2.9150391
			c-11.7324219,0-15.0185547,4.9736328-17.3662109,10.4980469h12.7431641l-0.0292969,2.9013672L212.8134766,72.3164063z"/>
		<path d="M214.7304688,86.7177734l0.0185547-0.0029297c-3.4589844-5.1005859-4.5546875-9.4550781-3.1083984-14.4130859
			l-2.9707031,0.0146484c-1.0351563,3.3007813-0.6201172,8.2734375,1.9287109,12.5400391h-29.6748047
			c1.8056641-3.6162109,3.4794922-8.0253906,4.7021484-12.5400391h-3.0205078
			c-1.3476563,4.7871094-3.2412109,9.5244141-5.3720703,13.2773438l-0.6894531,1.2128906l16.6523438,10.4824219l-9.375,6.1777344
			l1.6054688,2.4355469l10.4785156-6.9082031l11.3115234,7.3818359l1.5537109-2.4677734l-10.4882813-6.4882813
			c0,0,15.6816406-10.1865234,16.4609375-10.6835938C214.7382813,86.7294922,214.7353516,86.7236328,214.7304688,86.7177734z
			 M195.8701172,95.5263672l-12.3173828-7.7548828l24.0712891,0.0058594L195.8701172,95.5263672z"/>
	</g>
</g>
<g id="Calque_2">
	<path d="M249.394043,41.3330078c-0.0185547-5.0703125-1.5976563-26.5-4.5-32.4003906
		c-7.8691406,2.9902344-22.1894531,12.6796875-25.4306641,22.5878906
		c-15.5322266-2.3193359-33.0419922-2.0449219-48.3808594,0.609375c-2.5625-10.6601563-15.4243164-18.8183594-25.1274414-23.4140625
		c-4.0927734,6.90625-5.90625,22.9199219-5.4448242,34.2792969c-0.0175781,0.0117188-0.0366211,0.0234375-0.0541992,0.0361328
		c1.7998047,47.7001953,25.199707,77.3994141,55.7993164,95.3994141
		c31.4814453-17.9882813,53.9716797-53.0566406,53.1005859-97.1191406
		C249.3686523,41.3193359,249.3823242,41.3251953,249.394043,41.3330078z M223.1977539,32.1367188
		c0.1142578,0.0205078,0.2285156,0.0419922,0.34375,0.0634766
		C223.4272461,32.1787109,223.3129883,32.1572266,223.1977539,32.1367188z M221.2397461,31.7988281
		c0.2753906,0.0439453,0.5537109,0.09375,0.8300781,0.140625C221.793457,31.8925781,221.5170898,31.8447266,221.2397461,31.7988281z
		 M244.496582,44.7744141c0.8095703,39.6904297-19.4404297,71.2792969-47.7900391,87.4804688
		c-48.1181641-23.9765625-57.1826172-84.7109375-48.9770508-117.2890625
		c2.2827148,12.4550781,6.4243164,20.2666016,15.3935547,24.0986328c19.5327148-5.5908203,46.4233398-6.0322266,66.230957-0.5693359
		c8.2548828-6.0019531,11.4560547-15.1699219,13.2041016-23.1796875
		C244.7416992,24.6367188,244.4897461,44.7705078,244.496582,44.7744141z"/>
	<path d="M265.0170898,182.0908203c-4.9414063-5.5283203-14.6230469-8.1445313-22.7070313-7.9511719
		c-5.7382813-6.8300781-39.0039063-41.8613281-39.0039063-41.8613281l-2.3056641,2.9033203l40.1621094,43.2382813
		l1.7431641-0.1494141c10.9121094-0.9345703,17.1152344,4.9833984,18.7568359,6.8193359
		c1.2041016,1.3466797,1.9306641,2.5751953,2.3261719,3.5390625h-22.0751953
		c-50.6240234-26.4160156-95.078125-45.0439453-142.2973633-49.1123047
		c0.1035156-6.5712891,1.2734375-14.0097656,3.5180664-22.2988281l-4.3432617-1.1767578
		c-2.3076172,8.5205078-3.5234375,16.2363281-3.6606445,23.1328125c-4.9199219-0.3261719-9.8720703-0.4951172-14.8676758-0.4951172
		c-4.2368164,0-8.0952148,0.3935547-11.6142578,1.0771484c-4.5898438-4.5869141-8.5-8.9589844-11.8227539-13.1083984
		c21.9360352-22.8496094,58.1499023-43.4980469,89.5332031-51.0917969l-1.0151367-4.3964844
		c-33.7919922,8.1484375-70.7797852,30.3349609-91.390625,51.7617188
		c-9.5649414-12.9101563-13.3598633-23.5039063-14.4868164-31.5322266
		c-1.4238281-10.1396484,0.996582-19.4414063,6.9990234-26.8994141c9.3969727-11.6738281,22.7490234-12.4960938,36.4770508-10.1875
		c-0.2680664,2.1679688,0.0170898,4.2402344,0.8852539,5.5224609c3.6308594,5.3623047,23.1435547,7.2460938,34.7910156,2.0498047
		c-8.5952148-12.0449219-26.0058594-17.9257813-30.8300781-15.5693359
		c-1.5981445,0.7802734-2.8037109,2.2138672-3.6298828,3.8857422c-4.7451172-0.8486328-9.4580078-1.4804688-12.902832-1.4550781
		c-12.1074219,0.0888672-21.3632813,4.3193359-28.2958984,12.9326172
		c-6.8017578,8.4501953-9.5507813,18.9443359-7.9501953,30.3466797
		c1.5161133,10.7998047,6.8632813,22.2861328,15.8251953,34.1982422c-1.4887695,1.5966797-2.9277344,3.1738281-4.3125,4.7226563
		c-21.8432617,24.4414063-37.8100586,50.6503906-37.8100586,54.9931641v2.25h28.815918l-0.5048828-2.6679688
		c-1.6274414-8.6005859,1.6225586-19.3505859,8.2792969-27.3847656
		c4.1791992-5.0439453,11.0996094-10.8007813,21.9677734-13.4570313
		c9.6630859,9.4306641,21.9746094,19.4462891,35.6787109,29.109375h21.4135742v-2.25
		c0-2.5390625-1.2587891-4.7617188-3.5449219-6.2568359c-3.3828125-2.2119141-8.6049805-2.5166016-13.4018555-0.8808594
		c-4.5732422-5.0927734-7.137207-11.8964844-7.690918-20.3466797
		c46.4741211,4.1152344,90.9267578,22.8828125,141.0849609,49.0849609h27.5976563l0.3613281-1.8085938
		C269.284668,188.7451172,267.8813477,185.2949219,265.0170898,182.0908203z M41.8378906,155.2548828
		c-6.815918,8.2265625-10.4287109,19.09375-9.6010742,28.4238281h-18.152832
		c3.6474609-7.8935547,18.1762695-30.7119141,39.6435547-53.7597656c2.9580078,3.65625,6.2529297,7.3496094,9.8720703,11.0732422
		C53.0595703,144.1601563,46.1494141,150.0517578,41.8378906,155.2548828z"/>
</g>
</svg>
