<?xml version="1.0" encoding="UTF-8" standalone="no"?>
<svg
   xmlns:dc="http://purl.org/dc/elements/1.1/"
   xmlns:cc="http://creativecommons.org/ns#"
   xmlns:rdf="http://www.w3.org/1999/02/22-rdf-syntax-ns#"
   xmlns:svg="http://www.w3.org/2000/svg"
   xmlns="http://www.w3.org/2000/svg"
   xmlns:sodipodi="http://sodipodi.sourceforge.net/DTD/sodipodi-0.dtd"
   xmlns:inkscape="http://www.inkscape.org/namespaces/inkscape"
   width="114.20003"
   height="152.74699"
   version="1.1"
   xml:space="preserve"
   style="clip-rule:evenodd;fill-rule:evenodd;stroke-linejoin:round;stroke-miterlimit:1.41420996"
   id="svg59"
   sodipodi:docname="unbound.svg"
   inkscape:version="0.92.4 (5da689c313, 2019-01-14)"><metadata
     id="metadata63"><rdf:RDF><cc:Work
         rdf:about=""><dc:format>image/svg+xml</dc:format><dc:type
           rdf:resource="http://purl.org/dc/dcmitype/StillImage" /></cc:Work></rdf:RDF></metadata><sodipodi:namedview
     pagecolor="#ffffff"
     bordercolor="#666666"
     borderopacity="1"
     objecttolerance="10"
     gridtolerance="10"
     guidetolerance="10"
     inkscape:pageopacity="0"
     inkscape:pageshadow="2"
     inkscape:window-width="1920"
     inkscape:window-height="986"
     id="namedview61"
     showgrid="false"
     inkscape:zoom="0.58594918"
     inkscape:cx="334.50001"
     inkscape:cy="76.2465"
     inkscape:window-x="-11"
     inkscape:window-y="-11"
     inkscape:window-maximized="1"
     inkscape:current-layer="g28" /><g
     id="g28"
     transform="translate(1.23648e-5,5e-4)"><g
       id="g10"><path
         d="m 87.5,6.548 v 86.4 l -29.5,17 c -0.597,0.299 -1.303,0.299 -1.9,0 l -29.5,-17 v -86.4 l -20.9,12.1 c -3.528,2.042 -5.706,5.824 -5.7,9.9 v 86.4 c 0.021,4.07 2.191,7.839 5.7,9.9 l 45.7,26.4 c 3.533,1.998 7.867,1.998 11.4,0 l 45.7,-26.4 c 3.528,-2.042 5.706,-5.824 5.7,-9.9 v -86.4 c -0.021,-4.07 -2.191,-7.839 -5.7,-9.9 z"
         style="fill:#2d2e83;fill-rule:nonzero"
         id="path2"
         inkscape:connector-curvature="0" /><path
         d="m 87.5,6.548 v 86.4 l -29.5,17 c -0.597,0.299 -1.303,0.299 -1.9,0 l -29.5,-17 v -86.4 l -20.9,12.1 c -3.528,2.042 -5.706,5.824 -5.7,9.9 v 86.4 c 0.021,4.07 2.191,7.839 5.7,9.9 l 45.7,26.4 c 3.533,1.998 7.867,1.998 11.4,0 l 45.7,-26.4 c 3.528,-2.042 5.706,-5.824 5.7,-9.9 v -86.4 c -0.021,-4.07 -2.191,-7.839 -5.7,-9.9 z"
         style="fill:url(#_Linear1);fill-rule:nonzero"
         id="path4"
         inkscape:connector-curvature="0" /><path
         d="m 114.2,28.548 c -0.021,-4.07 -2.191,-7.839 -5.7,-9.9 L 78.1,1.048 c -2.337,-1.398 -5.263,-1.398 -7.6,0 -2.354,1.359 -3.807,3.882 -3.8,6.6 v 66.6 c 0.021,4.07 2.191,7.839 5.7,9.9 l 36.1,20.9 c 3.528,2.042 5.706,5.824 5.7,9.9 z"
         style="fill:#1fc2d7;fill-rule:nonzero"
         id="path6"
         inkscape:connector-curvature="0" /><path
         d="m 0,28.548 c 0.021,-4.07 2.191,-7.839 5.7,-9.9 l 30.5,-17.6 c 2.337,-1.398 5.263,-1.398 7.6,0 2.354,1.359 3.807,3.882 3.8,6.6 v 66.6 c -0.021,4.07 -2.191,7.839 -5.7,9.9 l -36.1,20.9 c -3.528,2.042 -5.706,5.824 -5.7,9.9 z"
         style="fill:#1fc2d7;fill-rule:nonzero"
         id="path8"
         inkscape:connector-curvature="0" /></g></g><defs
     id="defs57"><linearGradient
       id="_Linear1"
       x1="0"
       y1="0"
       x2="1"
       y2="0"
       gradientUnits="userSpaceOnUse"
       gradientTransform="matrix(114.2,0,0,114.2,1.23648e-5,79.6485)"><stop
         offset="0"
         style="stop-color:#0d0d27;stop-opacity:1"
         id="stop30" /><stop
         offset="0.02"
         style="stop-color:#10102f;stop-opacity:1"
         id="stop32" /><stop
         offset="0.1"
         style="stop-color:#1a1b4d;stop-opacity:1"
         id="stop34" /><stop
         offset="0.19"
         style="stop-color:#232365;stop-opacity:1"
         id="stop36" /><stop
         offset="0.28"
         style="stop-color:#282976;stop-opacity:1"
         id="stop38" /><stop
         offset="0.38"
         style="stop-color:#2c2d80;stop-opacity:1"
         id="stop40" /><stop
         offset="0.5"
         style="stop-color:#2d2e83;stop-opacity:1"
         id="stop42" /><stop
         offset="0.62"
         style="stop-color:#2c2d80;stop-opacity:1"
         id="stop44" /><stop
         offset="0.72"
         style="stop-color:#282976;stop-opacity:1"
         id="stop46" /><stop
         offset="0.81"
         style="stop-color:#232365;stop-opacity:1"
         id="stop48" /><stop
         offset="0.9"
         style="stop-color:#1a1b4d;stop-opacity:1"
         id="stop50" /><stop
         offset="0.98"
         style="stop-color:#10102f;stop-opacity:1"
         id="stop52" /><stop
         offset="1"
         style="stop-color:#0d0d27;stop-opacity:1"
         id="stop54" /></linearGradient></defs></svg>