<svg id="Layer_1" xmlns="http://www.w3.org/2000/svg" xmlns:xlink="http://www.w3.org/1999/xlink" viewBox="0 0 6403.5 5680.2" width="6403.5" height="5680.2"><style>.st0{fill:#fff}.st1{clip-path:url(#SVGID_2_);fill:url(#SVGID_3_)}.st2{clip-path:url(#SVGID_5_);fill:url(#SVGID_6_)}.st3{clip-path:url(#SVGID_8_)}.st4{fill:#c0202e}.st5{clip-path:url(#SVGID_10_)}.st6{fill:#811719}.st7{clip-path:url(#SVGID_12_)}.st8{clip-path:url(#SVGID_14_);fill:#a62026}.st10,.st11,.st9{clip-path:url(#SVGID_16_);fill:#a62026}.st10,.st11{clip-path:url(#SVGID_18_)}.st11{clip-path:url(#SVGID_20_)}.st12{clip-path:url(#SVGID_22_);fill:url(#SVGID_23_)}.st13{clip-path:url(#SVGID_25_);fill:url(#SVGID_26_)}.st14{clip-path:url(#SVGID_28_);fill:url(#SVGID_29_)}.st15{clip-path:url(#SVGID_31_);fill:url(#SVGID_32_)}.st16{clip-path:url(#SVGID_34_);fill:url(#SVGID_35_)}.st17{clip-path:url(#SVGID_37_);fill:#811719}.st18{clip-path:url(#SVGID_39_)}.st19{fill:url(#SVGID_40_)}.st20{clip-path:url(#SVGID_42_)}.st21{fill:url(#SVGID_43_)}.st22{clip-path:url(#SVGID_45_)}.st23{fill:url(#SVGID_46_)}.st24{clip-path:url(#SVGID_48_)}.st25{fill:url(#SVGID_49_)}.st26{clip-path:url(#SVGID_51_)}.st27{fill:#587a9a}.st28{clip-path:url(#SVGID_53_)}.st29{clip-path:url(#SVGID_55_)}.st30{clip-path:url(#SVGID_57_)}.st31{clip-path:url(#SVGID_59_)}.st32{fill:url(#SVGID_60_)}.st33{clip-path:url(#SVGID_62_)}.st34,.st35,.st36{clip-path:url(#SVGID_64_);fill:#1e76bc}.st35,.st36{clip-path:url(#SVGID_66_)}.st36{clip-path:url(#SVGID_68_)}.st37{clip-path:url(#SVGID_70_)}.st38{clip-path:url(#SVGID_72_)}.st39{clip-path:url(#SVGID_74_)}.st40{clip-path:url(#SVGID_76_)}.st41{clip-path:url(#SVGID_78_)}.st42{clip-path:url(#SVGID_80_)}.st43{clip-path:url(#SVGID_82_)}.st44{clip-path:url(#SVGID_84_)}.st45{clip-path:url(#SVGID_86_)}.st46{clip-path:url(#SVGID_88_)}.st47{clip-path:url(#SVGID_90_)}.st48{fill:url(#SVGID_91_)}.st49{fill:url(#SVGID_92_)}.st50{fill:url(#SVGID_93_)}.st51{fill:url(#SVGID_94_)}.st52{fill:url(#SVGID_95_)}.st53{fill:url(#SVGID_96_)}.st54{fill:url(#SVGID_97_)}.st55{fill:#3f3166}.st56{fill:#7b75aa}.st57{fill:url(#SVGID_98_)}.st58{fill:url(#SVGID_99_)}.st59{fill:#eb5b99}.st60{fill:#f197bf}</style><path class="st0" d="M4256.4 298.9C2791.9-22.8 1343.9 903.6 1022.2 2368.1s604.7 2912.5 2069.2 3234.2c1464.5 321.7 2912.5-604.7 3234.2-2069.2 321.7-1464.4-604.7-2912.4-2069.2-3234.2zM3220.3 5015.4c-1140.3-250.5-1861.7-1378-1611.1-2518.3S2987.2 635.5 4127.5 886s1861.7 1378 1611.1 2518.3c-250.5 1140.2-1378 1861.6-2518.3 1611.1z"/><path class="st0" d="M3679.3 5680.2c-196.5 0-394.4-21.4-590.9-64.5-711.9-156.4-1320.2-580.6-1713-1194.6-392.8-614-523-1344.1-366.6-2056 156.4-711.9 580.6-1320.2 1194.6-1713 614-392.8 1344.2-523 2056-366.6 711.9 156.4 1320.3 580.6 1713 1194.6 392.8 613.9 523 1344.1 366.6 2055.9-156.4 711.9-580.6 1320.3-1194.6 1713-444.4 284.5-949.8 431.2-1465.1 431.2zm-10.7-5431.8c-510.1 0-1010.4 145.2-1450.4 426.8-607.8 388.9-1027.8 991.1-1182.6 1695.8-154.8 704.7-25.9 1427.5 362.9 2035.4 388.9 607.8 991.1 1027.8 1695.8 1182.6 704.8 154.7 1427.5 25.9 2035.4-362.9 607.8-388.8 1027.8-991.1 1182.6-1695.8 154.8-704.7 25.9-1427.5-362.9-2035.3-388.9-607.9-991.2-1027.9-1695.9-1182.7-194.5-42.7-390.5-63.9-584.9-63.9zm9.5 4830.6c-153.2 0-307.5-16.6-460.7-50.3-555.1-121.9-1029.4-452.7-1335.7-931.4s-407.8-1048-285.9-1603.1C1847.6 1348.3 2984.7 621 4130.4 872.6 5276.3 1124.4 6003.7 2261.3 5752 3407.2c-121.9 555.1-452.7 1029.5-931.4 1335.7C4474 4964.6 4079.9 5079 3678.1 5079zm-4.5-4228.8c-964.6 0-1835.7 669.9-2051 1649.9-120.4 547.9-20.2 1110 282.2 1582.5 302.3 472.6 770.6 799.1 1318.5 919.5 548 120.3 1110 20.1 1582.5-282.2 472.6-302.3 799.1-770.6 919.4-1318.5 248.5-1131.1-469.6-2253.5-1600.7-2502-151.1-33.3-302.2-49.2-450.9-49.2z"/><defs><circle id="SVGID_1_" cx="3673.9" cy="2950.7" r="2113.9"/></defs><clipPath id="SVGID_2_"><use xlink:href="#SVGID_1_" overflow="visible"/></clipPath><linearGradient id="SVGID_3_" gradientUnits="userSpaceOnUse" x1="8171.711" y1="8170.977" x2="8171.711" y2="-3050.182" gradientTransform="matrix(1 0 0 -1 0 5679.157)"><stop offset=".049" stop-color="#a780a0"/><stop offset=".245" stop-color="#b490ac"/><stop offset=".627" stop-color="#d4bacd"/><stop offset=".661" stop-color="#d8bed1"/><stop offset=".935" stop-color="#eed5b9"/></linearGradient><path class="st1" d="M-124.8 543.9h16593.1v14274.8H-124.8z"/><defs><circle id="SVGID_4_" cx="3673.9" cy="2950.7" r="2113.9"/></defs><clipPath id="SVGID_5_"><use xlink:href="#SVGID_4_" overflow="visible"/></clipPath><linearGradient id="SVGID_6_" gradientUnits="userSpaceOnUse" x1="4815.445" y1="7866.379" x2="2846.498" y2="-1073.576" gradientTransform="matrix(1 0 0 -1 0 5679.157)"><stop offset=".294" stop-color="#fff"/><stop offset=".864" stop-color="#fff" stop-opacity="0"/></linearGradient><path class="st2" d="M6491.8 4846.8c-717.5 129.9-1396.1 251.3-2038.7 366.5-694 124.2-1348.6 241.1-1966.8 351.9-560.1 100.4-1092.5 196.1-1598.6 287.7-377.4 68.4-741 134.6-1091.5 200.7-110.8 20.8-220.1 41.8-328.1 63.3-45.2 9.2-302.5 75.5-238.7-123 24-74.9 93.1-51.1 126.1-37.2 2.7-114.4 59.1-108.8 98-114.5-21.5-32.1-73.8-10.2-80.9-73.7-9.6-82.3 59.1-151.2 87.1-174.7 68.2-57.5 218.3-72.6 226-280.3-35.8 36-101.6 37-86.4-85.6 12.3-99.8 66-69.8 98.1-56.9-44-123.7-104.8-192.6-80.1-385.2 10.2-79.9 47.8-213.6 91.5-252.4 25.4-22.6 47.4 11.4 67.2.6 29.8-16 34.6-49.7 55.3-87.1 42.4-77.2 63.5-98.4 74.6-202.7 13.2-124 5.2-207.8 76.4-286.4 53.8-59.8 147.9-89.1 207.3-94.8 59.4-5.8 86.7 71.6 139.8 75.8 110.5 8.9 89.7-333.6 215.3-251.4-21.6-54.1-33.6-137.9 8.8-193.8 37.9-50.2 97.1 4 142.2-16.8-34.9-208 69.5-220.6 158.4-259.8 35.4-143.5 136.8-71.4 177-10.3-57.6-114.9-54.1-330.1-6.8-487.2 72.1-238 243.6-346.9 371.4-368.7 150.2-25.8 281.9 36.7 364.2 249.3 39.4 101.7 136 400.2 66.9 541.9 56.3-198 186-240.9 281.8-181 116.3 72.6 167.3 234.1 121.4 454 64.2-30 149.7 75 134.7 196 114.6-238.5 236.8-127 360.9-42.4 3-290.1 309.7-299.7 303.3-22.4 84.1-61.5 157.4-110.7 247.8-104.7 63 4.1 135.1 102.2 199.2 79.2 100-35.9 50.6-181.2 63.2-304.2 8.7-81.8 26.2-162.6 58.3-233.1 85.1-187.3 220.4-206.3 346.6-205 138.2 1.5 273.4 34.5 370.9 188.4 65.1 102.5 146.8 308.9 85.9 478.1 48.2-156.6 203.9 16.2 153.6 161.9 77.9-36.8 312.2 76.9 200.4 235.5 82.7 59.3 159-75.4 239.2-133.3 111.9-81 213.6-106.3 329.5-126.8 196.4-35 378 34.5 436.1 331 34.8-69.3 115.3-108.6 168.6-97.8 73.5 14.6 78.2 111 143.2 82.2 58.9-26.2 112.3-132.4 183.9-155.8 72.6-23.5 121.1 1.4 127.3 139.7 6.5 144.9-150.4 427 49.2 270.3 72.5-57.3 82.7-95.5 171.4-87.8 80 6.5 140.7 25.6 202.7 78.6 59.6-279 310.4-302.8 468.1-308.5"/><defs><circle id="SVGID_7_" cx="3673.9" cy="2950.7" r="2113.9"/></defs><clipPath id="SVGID_8_"><use xlink:href="#SVGID_7_" overflow="visible"/></clipPath><path class="st3 st4" d="M4567.8 5357.1c400-163.5 250.1-231.1 250.1-231.1l193.4-130.9c945.2-633.2-45-1136.7-45-1136.7C3834.8 3367.2 2224 4070.8 2224 4070.8 995 4693.6 2495.7 5162 2495.7 5162c619.4 179.4 498.1 178.8 498.1 178.8m579.8 517.4c282.4-180.7 371.7-74.4 371.7-74.4m-816.8-1109.6l-214.4-35.8s-114.1-111.8-263.4 54.8l-226.9-32.5c13.7-23 461.1-323.4 695.3-324 0 0 79.7-86.5 39.1 216.6l-29.7 120.9zm1518.3-71.2l-22.6-213c.1.1 476 121.9 22.6 213z"/><defs><circle id="SVGID_9_" cx="3673.9" cy="2950.7" r="2113.9"/></defs><clipPath id="SVGID_10_"><use xlink:href="#SVGID_9_" overflow="visible"/></clipPath><path class="st5 st6" d="M2920.5 5273.9c-249-65.6-486.5-173.6-712.2-296.3-124.5-67.6-246.9-147.5-330.3-264.3-93.5-130.7-1.7-252.4 93.4-347 291.8-290.3 794.2-423.8 1193.6-445.9 126.4-7 127.5-203.2 0-197.3-509.7 23.4-1172.2 226-1453.7 685.4-135.6 221.3 36.3 433.4 209 560.7 275.9 203.5 658.4 284.2 987.7 350.5 29.6 5.9 42.4-38 12.5-45.8z"/><defs><circle id="SVGID_11_" cx="3673.9" cy="2950.7" r="2113.9"/></defs><clipPath id="SVGID_12_"><use xlink:href="#SVGID_11_" overflow="visible"/></clipPath><path class="st7 st6" d="M4991 5006c177.6-39.3 295.2-168.6 397.2-312.1 137.9-194 139.1-358.4 25.4-565.1-191.6-348-692.8-518.8-1068-502.4-89.5 3.9-119.2 150.1-22.2 163.9 295.3 42.2 593.3 99 829.5 295 178.5 148.1 254.2 334.9 130.3 547.1-84 144-186.9 240.9-301.7 356.9-7.4 7.4 0 18.8 9.5 16.7z"/><defs><circle id="SVGID_13_" cx="3673.9" cy="2950.7" r="2113.9"/></defs><clipPath id="SVGID_14_"><use xlink:href="#SVGID_13_" overflow="visible"/></clipPath><path class="st8" d="M2013.9 4228.9s-805.7 444.8 453 936.8c0 0 87.4-5.4 117-140.5 0 0-1416.7-305-53.1-935.1 0-.1 4.2-159.3-516.9 138.8z"/><defs><circle id="SVGID_15_" cx="3673.9" cy="2950.7" r="2113.9"/></defs><clipPath id="SVGID_16_"><use xlink:href="#SVGID_15_" overflow="visible"/></clipPath><path class="st9" d="M4520 4136.7c-16.1-16.8 938.4 221.2 382.8 521.1l-112-107.5s304-46.2-191.9-155.2c0-.1 13.2-162.9-78.9-258.4z"/><defs><circle id="SVGID_17_" cx="3673.9" cy="2950.7" r="2113.9"/></defs><clipPath id="SVGID_18_"><use xlink:href="#SVGID_17_" overflow="visible"/></clipPath><path class="st10" d="M3035.7 5852.3s348.8-352.8 357.4-735.1c0 0 135.1-580.6-228.6-811.1"/><defs><circle id="SVGID_19_" cx="3673.9" cy="2950.7" r="2113.9"/></defs><clipPath id="SVGID_20_"><use xlink:href="#SVGID_19_" overflow="visible"/></clipPath><path class="st11" d="M3945.3 5783.8s-202.1-100.1-449 132c0 0 392.1-584.4 645.8-265"/><defs><circle id="SVGID_21_" cx="3673.9" cy="2950.7" r="2113.9"/></defs><clipPath id="SVGID_22_"><use xlink:href="#SVGID_21_" overflow="visible"/></clipPath><linearGradient id="SVGID_23_" gradientUnits="userSpaceOnUse" x1="3773.099" y1="1195.589" x2="2152.333" y2="2209.876" gradientTransform="scale(1 -1) rotate(-12.392 -23548.752 1526.115)"><stop offset=".129" stop-color="#e83e5c"/><stop offset=".405" stop-color="#c0202e"/></linearGradient><path class="st12" d="M2329.1 4586s288.8-474.8 792.3-456.5c0 0 306.5 75.1-32.2 146.7 0 0-379.5 47.4-760.1 309.8z"/><defs><circle id="SVGID_24_" cx="3673.9" cy="2950.7" r="2113.9"/></defs><clipPath id="SVGID_25_"><use xlink:href="#SVGID_24_" overflow="visible"/></clipPath><linearGradient id="SVGID_26_" gradientUnits="userSpaceOnUse" x1="5485.594" y1="1874.737" x2="-380.477" y2="818.627" gradientTransform="scale(1 -1) rotate(-12.392 -23548.752 1526.115)"><stop offset=".129" stop-color="#e83e5c"/><stop offset=".405" stop-color="#c0202e"/></linearGradient><path class="st13" d="M4681.9 3957.1c-22.1-8.7 1123.1 208.3 421.5 777 0 0-63.4 78.4-131.2 1.9.1 0 587.2-432.4-290.3-778.9z"/><defs><circle id="SVGID_27_" cx="3673.9" cy="2950.7" r="2113.9"/></defs><clipPath id="SVGID_28_"><use xlink:href="#SVGID_27_" overflow="visible"/></clipPath><linearGradient id="SVGID_29_" gradientUnits="userSpaceOnUse" x1="5122.577" y1="1178.333" x2="3616.899" y2="-735.136" gradientTransform="scale(1 -1) rotate(-12.392 -23548.752 1526.115)"><stop offset="0" stop-color="#e83e5c"/><stop offset=".405" stop-color="#c0202e"/></linearGradient><path class="st14" d="M4541.1 4549.2s-16.1 691.7-195.6 1035.9c0 0-360.5-287-713.8-60.9 0 0 309.9-355.5 94.2-610.6 0 0 312.7 468.2 504.6 358.6 0-.2 204.4-203 310.6-723z"/><g><defs><circle id="SVGID_30_" cx="3673.9" cy="2950.7" r="2113.9"/></defs><clipPath id="SVGID_31_"><use xlink:href="#SVGID_30_" overflow="visible"/></clipPath><linearGradient id="SVGID_32_" gradientUnits="userSpaceOnUse" x1="4347.567" y1="153.089" x2="4347.567" y2="153.089" gradientTransform="scale(1 -1) rotate(-12.392 -23548.752 1526.115)"><stop offset=".129" stop-color="#e83e5c"/><stop offset=".405" stop-color="#c0202e"/></linearGradient></g><g><defs><circle id="SVGID_33_" cx="3673.9" cy="2950.7" r="2113.9"/></defs><clipPath id="SVGID_34_"><use xlink:href="#SVGID_33_" overflow="visible"/></clipPath><linearGradient id="SVGID_35_" gradientUnits="userSpaceOnUse" x1="5299.757" y1="488.782" x2="5299.757" y2="488.782" gradientTransform="scale(1 -1) rotate(-12.392 -23548.752 1526.115)"><stop offset=".129" stop-color="#e83e5c"/><stop offset=".405" stop-color="#c0202e"/></linearGradient></g><g><defs><circle id="SVGID_36_" cx="3673.9" cy="2950.7" r="2113.9"/></defs><clipPath id="SVGID_37_"><use xlink:href="#SVGID_36_" overflow="visible"/></clipPath><path class="st17" d="M1868.8 4315.6s460.6-305.3 1188.7-242.1c0 0 1946.4 214.7 1478.9-359l-242-14.4-670 201.2c0-.1-756.1-346.8-1755.6 414.3z"/></g><g><defs><circle id="SVGID_38_" cx="3673.9" cy="2950.7" r="2113.9"/></defs><clipPath id="SVGID_39_"><use xlink:href="#SVGID_38_" overflow="visible"/></clipPath><g class="st18"><linearGradient id="SVGID_40_" gradientUnits="userSpaceOnUse" x1="3326.211" y1="832.562" x2="4028.001" y2="832.562" gradientTransform="scale(1 -1) rotate(-12.392 -23548.752 1526.115)"><stop offset="0" stop-color="#d9eef6"/><stop offset="1" stop-color="#799acd"/></linearGradient><path class="st19" d="M2664.6 4692.8s93.3-134.4 207.9-54.6c0 0 383.2-2.4 383.8 243.8 0 0 2.3 529-306.7 483.9 0 0-85 13.3-111.2-74.5L2495 5175c-.1-.1 248.9-200.6 169.6-482.2z"/></g></g><g><defs><circle id="SVGID_41_" cx="3673.9" cy="2950.7" r="2113.9"/></defs><clipPath id="SVGID_42_"><use xlink:href="#SVGID_41_" overflow="visible"/></clipPath><g class="st20"><linearGradient id="SVGID_43_" gradientUnits="userSpaceOnUse" x1="5298.887" y1="1257.834" x2="5715.705" y2="1257.834" gradientTransform="scale(1 -1) rotate(-12.392 -23548.752 1526.115)"><stop offset="0" stop-color="#d9eef6"/><stop offset="1" stop-color="#799acd"/></linearGradient><path class="st21" d="M4764.3 4570.9s-140 42.1-146.1 138l-38.4 618.8s335.2-94.9 233.1-190.3l166.7-136.5c.1 0 78.5-315.4-215.3-430z"/></g></g><g><defs><circle id="SVGID_44_" cx="3673.9" cy="2950.7" r="2113.9"/></defs><clipPath id="SVGID_45_"><use xlink:href="#SVGID_44_" overflow="visible"/></clipPath><g class="st22"><radialGradient id="SVGID_46_" cx="4058.736" cy="1272.42" r="2515.742" gradientTransform="matrix(.9716 .2134 .2134 -.9716 -857.841 5003.555)" gradientUnits="userSpaceOnUse"><stop offset=".003" stop-color="#fffffb"/><stop offset=".17" stop-color="#d9eef6"/><stop offset=".201" stop-color="#d2e8f3"/><stop offset=".413" stop-color="#a3bddf"/><stop offset=".574" stop-color="#85a3d2"/><stop offset=".663" stop-color="#799acd"/></radialGradient><path class="st23" d="M2855.8 4732.9s309.5-81.6 312.4 143.4c0 0 31.5 244.5-56.2 324.1-87.7 79.6-415.2 77.9-262.2-245.6.1.1 102-170.7 6-221.9z"/></g></g><g><defs><circle id="SVGID_47_" cx="3673.9" cy="2950.7" r="2113.9"/></defs><clipPath id="SVGID_48_"><use xlink:href="#SVGID_47_" overflow="visible"/></clipPath><g class="st24"><radialGradient id="SVGID_49_" cx="5564.637" cy="830.568" r="5282.562" gradientTransform="matrix(.9716 .2134 .2134 -.9716 -857.841 5003.555)" gradientUnits="userSpaceOnUse"><stop offset=".003" stop-color="#fffffb"/><stop offset=".17" stop-color="#d9eef6"/><stop offset=".201" stop-color="#d2e8f3"/><stop offset=".413" stop-color="#a3bddf"/><stop offset=".574" stop-color="#85a3d2"/><stop offset=".663" stop-color="#799acd"/></radialGradient><path class="st25" d="M4816.3 4692.6s208.6 105.6 72.7 247.7c0 0-173.1 141.5-199.1 225.5 0 0-119.7-340.4 126.4-473.2z"/></g></g><g><defs><circle id="SVGID_50_" cx="3673.9" cy="2950.7" r="2113.9"/></defs><clipPath id="SVGID_51_"><use xlink:href="#SVGID_50_" overflow="visible"/></clipPath><path class="st26 st27" d="M3772.3 3903.5c-88.3-54.2-162.5-94.3-265.6-112-94.2-16.1-192.5.2-287.6-10.4-45.8-5.1-53.6 67.9-10.7 78.9 182.5 46.9 373.6 38.6 559.5 59.6 9 1 11.1-12 4.4-16.1z"/></g><g><defs><circle id="SVGID_52_" cx="3673.9" cy="2950.7" r="2113.9"/></defs><clipPath id="SVGID_53_"><use xlink:href="#SVGID_52_" overflow="visible"/></clipPath><path class="st28 st27" d="M4562.1 5345.2c74.8 24.5 168.9-22.8 229.7-63 46.6-30.9 138.5-103 92.3-168.3-38.3-54-114.4 4.5-71.8 55.4-15.3-18.3-.9-28.4-8.8-12.9-5.1 9.9-12.6 18-20 26.2-17.9 19.7-39.1 36.4-60.7 51.8-38.9 27.7-96.6 73.3-148.1 65.4-29.6-4.3-42 35.8-12.6 45.4z"/></g><g><defs><circle id="SVGID_54_" cx="3673.9" cy="2950.7" r="2113.9"/></defs><clipPath id="SVGID_55_"><use xlink:href="#SVGID_54_" overflow="visible"/></clipPath><path class="st29 st6" d="M4619 4435.9c60.4 5.4 127.9 26.4 175.3 66.1 9.4 7.9 33.7 35 33.2 34.3-11.8-15.4 42.2-64.5 16.2-54.6-16.9 6.5-36.1 8.4-53.8 10.9-74.2 10.7-56.9 139 17.7 131.1 48.3-5.1 109.7-12.3 137.6-58.6 24.6-40.9 10.4-80.6-16.7-115-28.6-36.3-89.4-49-130.7-66-56.3-23.1-118.4-31.5-178.9-28.6-52.2 2.5-51 75.9.1 80.4z"/></g><g><defs><circle id="SVGID_56_" cx="3673.9" cy="2950.7" r="2113.9"/></defs><clipPath id="SVGID_57_"><use xlink:href="#SVGID_56_" overflow="visible"/></clipPath><path class="st30 st27" d="M4815 4525.9c-37.2 5.2-74 12.3-110.1 23.1-10.6 3.2-20.9 8-31.4 11.8-5.5 2-32.1 6.9-19.7 6-81.4 6-63.8 127.7 14.8 109.3 61.7-14.5 115.2-63.8 171.1-91.5 35.8-17.6 8.2-63.2-24.7-58.7z"/></g><g><defs><circle id="SVGID_58_" cx="3673.9" cy="2950.7" r="2113.9"/></defs><clipPath id="SVGID_59_"><use xlink:href="#SVGID_58_" overflow="visible"/></clipPath><g class="st31"><linearGradient id="SVGID_60_" gradientUnits="userSpaceOnUse" x1="5143.067" y1="1947.815" x2="2960.686" y2="137.106" gradientTransform="scale(1 -1) rotate(-12.392 -23548.752 1526.115)"><stop offset=".129" stop-color="#e83e5c"/><stop offset=".405" stop-color="#c0202e"/></linearGradient><path class="st32" d="M3363.7 4288.3c-10.1-24.5 610.4-287.8 1139-53.1 0 0 47.2 445.5-439.4 800.1 0 0-531.6-340.9-699.6-747z"/></g></g><g><defs><circle id="SVGID_61_" cx="3673.9" cy="2950.7" r="2113.9"/></defs><clipPath id="SVGID_62_"><use xlink:href="#SVGID_61_" overflow="visible"/></clipPath><path class="st33 st0" d="M3502.6 4331.9c-8.3-20 497.1-234.4 927.5-43.2 0 0 38.5 362.8-357.9 651.5 0 0-432.9-277.6-569.6-608.3z"/></g><g><defs><ellipse id="SVGID_63_" transform="rotate(-77.608 4000.416 2877.466)" cx="4000.4" cy="2877.5" rx="2113.9" ry="2113.9"/></defs><clipPath id="SVGID_64_"><use xlink:href="#SVGID_63_" overflow="visible"/></clipPath><ellipse transform="rotate(-77.608 4174.824 4419.109)" class="st34" cx="4174.8" cy="4419.1" rx="121.3" ry="118.5"/></g><g><defs><circle id="SVGID_65_" cx="3673.9" cy="2950.7" r="2113.9"/></defs><clipPath id="SVGID_66_"><use xlink:href="#SVGID_65_" overflow="visible"/></clipPath><circle class="st35" cx="3989.3" cy="4694.2" r="77.2"/></g><g><defs><circle id="SVGID_67_" cx="3673.9" cy="2950.7" r="2113.9"/></defs><clipPath id="SVGID_68_"><use xlink:href="#SVGID_67_" overflow="visible"/></clipPath><circle class="st36" cx="3802.1" cy="4416" r="55.1"/></g><g><defs><circle id="SVGID_69_" cx="3673.9" cy="2950.7" r="2113.9"/></defs><clipPath id="SVGID_70_"><use xlink:href="#SVGID_69_" overflow="visible"/></clipPath><path class="st37 st6" d="M3981 5839.9c10.6-6.5 7-4.9-11 5-15.3 2.2-30.5 4.5-45.8 6.7.4.1.9.2 1.3.3-20.4-16.1-40.8-32.3-61.1-48.4l.9-32.5c-4.5 21.4-6.4 40.9 6.4 60.2 11.8 17.9 31.9 27.7 52.8 29.7 43.9 4.1 102.4-27.6 112.1-73.8 4-19 7-31.2 2.9-50.4-6.5-30.9-33.9-42.4-61.1-48.4-28.2-6.2-58.4 10.1-81.2 24.6-36.3 23-63.9 75.5-37.4 115.8 27.2 41 84.9 34.2 121.2 11.2z"/></g><g><defs><circle id="SVGID_71_" cx="3673.9" cy="2950.7" r="2113.9"/></defs><clipPath id="SVGID_72_"><use xlink:href="#SVGID_71_" overflow="visible"/></clipPath><path class="st38 st6" d="M3589.7 5951.7c67.8-100.7 232.8-135.5 342.6-104.9 89.3 24.9 120.5-104 37.5-135.9-164.1-63-400.6 27.1-492.8 174.9-45 72.1 66.1 135.1 112.7 65.9z"/></g><g><defs><circle id="SVGID_73_" cx="3673.9" cy="2950.7" r="2113.9"/></defs><clipPath id="SVGID_74_"><use xlink:href="#SVGID_73_" overflow="visible"/></clipPath><path class="st39 st6" d="M3564.6 5913.2c67.9 0 67.9-105.3 0-105.3s-67.9 105.3 0 105.3z"/></g><g><defs><circle id="SVGID_75_" cx="3673.9" cy="2950.7" r="2113.9"/></defs><clipPath id="SVGID_76_"><use xlink:href="#SVGID_75_" overflow="visible"/></clipPath><path class="st40 st6" d="M3093.9 4335.1c11.7 108.6-30.6 214-20.6 323.5 5 54.6 78.7 84.3 109.2 29.6 59.6-107.1 65.4-252.3 28-368.8-19.5-60.9-124-53.6-116.6 15.7z"/></g><g><defs><circle id="SVGID_77_" cx="3673.9" cy="2950.7" r="2113.9"/></defs><clipPath id="SVGID_78_"><use xlink:href="#SVGID_77_" overflow="visible"/></clipPath><path class="st41 st27" d="M4785.3 5134.7c61.3 16.3 127.8-9.2 174.4-50.2 60.5-53.2 84.1-119.2 54.6-196.3-6.8-17.8-33.8-21-39.4 0-12.1 46.1-24.7 99-57.5 135.2-35.9 39.6-80 91.1-132.1 107.8-1.7.5-1.8 3 0 3.5z"/></g><g><defs><circle id="SVGID_79_" cx="3673.9" cy="2950.7" r="2113.9"/></defs><clipPath id="SVGID_80_"><use xlink:href="#SVGID_79_" overflow="visible"/></clipPath><path class="st42 st6" d="M3013.3 5402.9c131.7 0 22.8-48.1-46.4-48.1-131.7 0-22.8 48.1 46.4 48.1z"/></g><g><defs><circle id="SVGID_81_" cx="3673.9" cy="2950.7" r="2113.9"/></defs><clipPath id="SVGID_82_"><use xlink:href="#SVGID_81_" overflow="visible"/></clipPath><path class="st43 st6" d="M2668.4 4687.5c-78.4-24.7-161.3-50.5-231.1-95.1 5.4 41.4 10.7 82.8 16 124.3 219.3-169.6 470.8-227.4 724-322 67.1-25.1 62.8-136.7-17.9-132.3-289.9 15.7-591.8 167.6-818 342.4-71.4 55.2 10.4 141.4 77 132.3 79.5-10.9 163.9-1 244.2-7 24.2-1.9 29.8-35.1 5.8-42.6z"/></g><g><defs><circle id="SVGID_83_" cx="3673.9" cy="2950.7" r="2113.9"/></defs><clipPath id="SVGID_84_"><use xlink:href="#SVGID_83_" overflow="visible"/></clipPath><path class="st44 st27" d="M2635.5 4710c35 185.2-68.3 288.5-171.9 422.9-25.7 33.4 21.8 66.4 52 52 178.1-84.5 235.8-315.9 186-493.2-12.1-43-74.3-24.6-66.1 18.3z"/></g><g><defs><circle id="SVGID_85_" cx="3673.9" cy="2950.7" r="2113.9"/></defs><clipPath id="SVGID_86_"><use xlink:href="#SVGID_85_" overflow="visible"/></clipPath><path class="st45 st27" d="M4773.5 4580.6c134.2 65.8 231 240.8 186.6 389.1-14.3 47.8 57.8 66.5 73.9 20.4 62.4-178.8-78.4-383.5-247.2-441.1-18.5-6.3-30.9 23-13.3 31.6z"/></g><g><defs><circle id="SVGID_87_" cx="3673.9" cy="2950.7" r="2113.9"/></defs><clipPath id="SVGID_88_"><use xlink:href="#SVGID_87_" overflow="visible"/></clipPath><path class="st46 st27" d="M2654.4 4717c34.8-21.2 69.4-53.8 108.7-65.7-12.9-5.9-12.1-5.7 2.3.5 9.7 2.6 18.5.3 28.1 2.1 26.5 4.9 53.1 18.2 79.8 24.8 37.4 9.2 60.2-34.4 36.1-62-32.8-37.6-103-82.3-155.3-51.7-48.8 28.6-85.7 79.1-126.6 117.1-18.7 17.3 5.4 48 26.9 34.9z"/></g><g><defs><circle id="SVGID_89_" cx="3673.9" cy="2950.7" r="2113.9"/></defs><clipPath id="SVGID_90_"><use xlink:href="#SVGID_89_" overflow="visible"/></clipPath><path class="st47 st27" d="M2809.4 5287.6c7.4 99.2 103 121.2 189.2 118.7 149-4.3 255.1-117.3 285-256.6 27.3-127 60.2-333-29.8-443.5-91.4-112.3-269.7-132.9-404.1-106.9-69.4 13.4-47.4 112.1 15.8 116.6 73.5 5.2 144.4 1.9 216.8 19.6 120.1 29.2 112.3 162.3 107.3 258.5-5.2 97.8-10.6 193-81.9 267.2-36.7 38.2-220.3 112.6-253 20.4-8.3-23.2-47.3-21.4-45.3 6z"/></g><g><linearGradient id="SVGID_91_" gradientUnits="userSpaceOnUse" x1="3606.007" y1="6186.733" x2="3003.516" y2="4197.368" gradientTransform="scale(1 -1) rotate(-12.392 -23548.752 1526.115)"><stop offset="0" stop-color="#d9eef6"/><stop offset="1" stop-color="#799acd"/></linearGradient><path class="st48" d="M2933.4 62.5s-879.3-76.8-454.2 319.2c0 0-7.1 138.1 856.8 444.3 0 0 760.4 353.3 709.9 900.9l164.1 47.7s150.4-525.6-281.2-1051.1c0 0-387.4-620.5-995.4-661z"/><linearGradient id="SVGID_92_" gradientUnits="userSpaceOnUse" x1="3635.454" y1="5806.806" x2="2521.438" y2="3362.789" gradientTransform="scale(1 -1) rotate(-12.392 -23548.752 1526.115)"><stop offset=".049" stop-color="#fffffb"/><stop offset=".282" stop-color="#d9eef6"/><stop offset="1" stop-color="#799acd"/></linearGradient><path class="st49" d="M3340.7 221.8c-29.7-16.7-465.5-265.2-756.1-107.9 0 0-432.5 114.5 720 484.1 0 0 513.2 101.1 808.5 875.9l123.5 73.7s88.1-772-895.9-1325.8z"/><path class="st27" d="M4064.2 1681.5c40.5-415.5-321.4-689.1-642.4-882.7-173.2-104.5-375.9-158.4-563.6-230.2-91-34.8-598.9-304.2-350.7-402.3 318.7-126 709.9 21.1 971.6 196.8C3704.9 514.7 3879.6 738 4015.7 970c80.7 137.4 142.2 281.5 155 441.7 10.2 127.8-21.8 255.7-14.3 383.9 3 52.3 73.3 61.8 90.1 12.2 186.5-550.5-141.3-1073.6-542.8-1435.7-317.3-286.2-716.6-420-1138-356.8-103.2 15.5-255.2 70.8-261.9 196.1-9.2 174.9 174.7 306.8 306.7 386 232.6 139.6 511 180 750.4 305.5 293 153.5 646.9 421.5 675.4 778.6 1.5 18.1 26.2 17.8 27.9 0z"/></g><g><linearGradient id="SVGID_93_" gradientUnits="userSpaceOnUse" x1="5137.228" y1="5583.794" x2="3875.238" y2="2780.527" gradientTransform="scale(1 -1) rotate(-12.392 -23548.752 1526.115)"><stop offset="0" stop-color="#d9eef6"/><stop offset="1" stop-color="#799acd"/></linearGradient><path class="st50" d="M3533.3 1120.7s-1359.4 643.9-1309.6 2201.1c0 0 232.1 389.9 1310.6 542.1 0 0 570.7 294.8 962.3-138.1 0 0 895.6-364.5 848.3-872.7 0 0-647.6-1487.3-1820.4-1596.7.2.1-32.6-91.9 8.8-135.7z"/></g><radialGradient id="SVGID_94_" cx="4624.298" cy="4025.894" r="4830.787" gradientTransform="matrix(.9716 .2134 .2134 -.9716 -857.841 5003.555)" gradientUnits="userSpaceOnUse"><stop offset=".003" stop-color="#fffffb"/><stop offset=".17" stop-color="#d9eef6"/><stop offset=".201" stop-color="#d2e8f3"/><stop offset=".413" stop-color="#a3bddf"/><stop offset=".574" stop-color="#85a3d2"/><stop offset=".663" stop-color="#799acd"/></radialGradient><path class="st51" d="M3359 1431.9s-2282.2 2011.5 401.6 2269.9c0 0 1127.6 25.3 1571.3-692.7 84.5-136.6-134.8-527-470-897.6 0 0-1033.3-1225.9-1502.9-679.6z"/><g><path class="st27" d="M4202.6 3900.6c278.2-174.6 628.6-238.1 848.7-499.4 21-24.9-5-61.7-35.2-45.6-285 152.4-604.4 286.9-829.3 524.7-9.9 10.4 3 28.4 15.8 20.3z"/></g><g><path class="st27" d="M3533.9 1056c-627.4 301.9-1135.9 911.2-1315.2 1580.1-32.6 121.5-49.8 246.6-61.6 371.6-8.2 86.6-41.4 276.5 2.6 353.4 28.7 50.3 80 89.9 124.7 124.9 384.8 300.8 963.5 367.2 1429.1 415.9 55.9 5.8 172.3-67.3 69.7-78.1-452.7-47.4-971-112.4-1353.2-384.3-45.2-32.1-90.5-70.8-120.7-118.1-39.3-61.6-.5-262.4 4.6-335.8 10.5-151.5 43.1-300.6 85.7-446.1 174.6-595.6 660.5-1157.3 1222.8-1427.8 93.3-44.7-36.7-80.6-88.5-55.7z"/></g><linearGradient id="SVGID_95_" gradientUnits="userSpaceOnUse" x1="1297.079" y1="1417.527" x2="1215.965" y2="6811.741" gradientTransform="matrix(.7553 .1659 .2146 -.9767 -278.84 5149.379)"><stop offset="0" stop-color="#d9eef6"/><stop offset="1" stop-color="#799acd"/></linearGradient><path class="st52" d="M2891 1906.9s9.3-1041.7-1408.9-1161c0 0-810.4-49.9-1273.8 480.1 0 0-230.3 242.4-115.3 395.9 0 0 69.6 70.2 567.3-3.6 0 0 1698.4-350.2 2103.6 416.4-.1-.1 119.6 35.3 127.1-127.8z"/><linearGradient id="SVGID_96_" gradientUnits="userSpaceOnUse" x1="1398.795" y1="4773.832" x2="1242.691" y2="1623.423" gradientTransform="matrix(.7553 .1659 .2146 -.9767 -278.84 5149.379)"><stop offset=".049" stop-color="#fffffb"/><stop offset=".282" stop-color="#d9eef6"/><stop offset="1" stop-color="#799acd"/></linearGradient><path class="st53" d="M500.9 1157.6s-261.1 356.9 457.7 251.8c0 0 1095.9-307.7 1747.9 279.2 48 43.2 68.6-18.2 39.1-96.1C2354.6 559.1 861 606 500.9 1157.6z"/><g><path class="st27" d="M2807 2044.4c-166.7-449.2-702.4-542.8-1124.8-568.5-299.1-18.2-600.8 25.8-896.4 65.6-130.6 17.6-261.5 38-392.6 51.6-45.8 4.7-91.4 5.2-137.4 4.7-143.2-1.6-124.7-121.5-71.9-210 275.9-462.1 926.8-597.2 1420.5-556.2 301.3 25 604.9 144.7 843.6 329.5 254.8 197.3 342.4 464.9 388.7 770.9 11.7 77.4 138.9 58.4 135.5-18.3-57.3-1297.8-1955.2-1554-2748-776.1C99 1260.5-68 1458 29.1 1640.3c82.8 155.5 407.6 79.6 537.9 60.4 739.8-109 1654.9-264.7 2206.8 363.1 12.8 14.6 40.2-.7 33.2-19.4z"/></g><g><path class="st27" d="M3559.8 1052.8c-57.6 50.1-123 134.2-114 215.6 11 98.5 153.6 86.9 221.5 96.6 214.2 30.5 417.4 150.6 591.1 272.3 186.3 130.5 349.1 293.2 496.1 465.9 91.3 107.2 173.2 222 251.9 338.5 51.1 75.6 98 153.9 144.4 232.4 36.2 61.2 132.8 180.3 139.1 250.1 29.8 329.6-526.2 588.6-764.2 694.1-52 23.1-121.6 194-50.7 162.6 355.3-157.5 766.5-386.8 907.8-776.5 22.1-60.9 39.4-127.2 35.1-192.7-6.5-101.1-131.6-252-183-339-86.8-146.8-184.7-286.7-288.8-421.7-242.5-314.4-547.6-597.4-912.1-762.5-83.4-37.7-413.6-153.3-460.5-112.6 50.5-43.7 79.9-204.4-13.7-123.1z"/></g><g><linearGradient id="SVGID_97_" gradientUnits="userSpaceOnUse" x1="5351.015" y1="2047.163" x2="5189.135" y2="3463.74" gradientTransform="matrix(.881 -.0844 -.0019 -.8835 -79.704 5446.212)"><stop offset="0" stop-color="#d9eef6"/><stop offset="1" stop-color="#799acd"/></linearGradient><path class="st54" d="M4716.1 2690.6c17.7 151.8-30.1 294.2-103.8 323.6-71.3 28.5-145.3-58.1-168.2-198.2-24-146.9 15.7-302.9 92.1-343.4 79.2-41.9 161.3 58.4 179.9 218z"/></g><g><path class="st55" d="M4702.8 2796.8c9.5 131.5-40.2 240.8-109.1 248.2-67.5 7.2-131.5-85.8-144.9-211.4-13.8-129.9 31.2-249.3 102.5-262.6 73-13.6 141.7 89.5 151.5 225.8z"/></g><g><path class="st56" d="M4659.1 2678.7c16.5 65.6-5.5 133.7-48.2 152.5-41.9 18.5-89.1-17.3-106.1-80.4-17.2-63.9 2.5-133.2 45-154.2 43.1-21.5 92.5 15.6 109.3 82.1z"/></g><g><path class="st56" d="M4622.6 2973.3c-2.8 21-19.1 37.5-36.5 36.9-17.2-.6-29-18-26.5-38.8 2.6-21 18.8-37.8 36.3-37.4 17.6.4 29.6 18.1 26.7 39.3z"/></g><g><linearGradient id="SVGID_98_" gradientUnits="userSpaceOnUse" x1="3762.151" y1="2729.954" x2="3632.984" y2="3860.271" gradientTransform="matrix(1.1537 .2139 .2319 -1.0365 -1371.498 5281.045)"><stop offset="0" stop-color="#d9eef6"/><stop offset="1" stop-color="#799acd"/></linearGradient><path class="st57" d="M3862.2 2776c12.7 179.1-57 320.3-152.4 323.1-92.3 2.8-262.6-169.4-282.7-337.4 8.6-199.2 60.2-228.1 209.9-200.2 102.3 37.6 211.8 26.1 225.2 214.5z"/></g><g><path class="st55" d="M3801.1 2872.3c5.4 141.7-50.8 245.2-123.7 236.6-71.5-8.4-136.5-121.9-147.1-258.4-11-142.2 40.5-259.5 117.2-256.4 78.4 3.1 148 130.3 153.6 278.2z"/></g><g><path class="st56" d="M3758.8 2735.8c15.3 74.1-10.4 141.2-56.3 151-45.1 9.6-94.1-39.8-110.3-111.2-16.5-72.6 6.7-142.2 52.7-154.5 46.8-12.5 98.3 39.3 113.9 114.7z"/></g><g><path class="st56" d="M3710.3 3040.1c-3.7 21.6-21.5 35.1-39.7 30.3-18.2-4.7-30.2-25.8-26.8-47.2 3.4-21.6 21.1-35.6 39.6-31 18.5 4.7 30.6 26.2 26.9 47.9z"/></g><g><linearGradient id="SVGID_99_" gradientUnits="userSpaceOnUse" x1="4479.267" y1="2552.533" x2="4602.015" y2="2958.125" gradientTransform="scale(1 -1) rotate(-12.392 -23548.752 1526.115)"><stop offset="0" stop-color="#d9eef6"/><stop offset="1" stop-color="#799acd"/></linearGradient><path class="st58" d="M4075.4 3095.6s-115.4 154 106.9 195.3c65.8 12.1 290.6-77.9 202.7-150.3-.1 0-173.3-119.7-309.6-45z"/><path class="st59" d="M4425.9 3147.1c-7.1 44.4-130.5 118.7-230.6 105.4-97.4-12.9-142.4-105-138.3-147.5 4.2-43.1 88.2-70.3 190.1-59.8 104.7 10.8 186 56.8 178.8 101.9z"/><path class="st60" d="M4381.8 3123.8c-4.1 19.8-64.8 26.2-134.4 14.8-68.4-11.2-120.4-35.8-117.3-55 3.1-19.4 61-26.7 130.3-15.9 70.6 10.9 125.5 36.2 121.4 56.1z"/></g><g><path class="st27" d="M4203.6 3259.4l-26.2 285.4s89.5-112 26.2-285.4z"/></g><g><path class="st55" d="M3431.6 2606c6.9-7.2 353 47.3 353 47.3s77.8-41.5 63-125.8c0 0-48.8 70.2-68.8 63 0 0 34.4-31.5 29.7-54.9l-58.8 17.8s-277.2-52.9-285.2-51.9c-8.1 1-104.8 155.6-104.8 155.6s-14.6 38.8 71.9-51.1z"/></g></svg>