<?xml version="1.0" encoding="UTF-8" standalone="no"?>
<!-- Created with Inkscape (http://www.inkscape.org/) -->

<svg
   xmlns:dc="http://purl.org/dc/elements/1.1/"
   xmlns:cc="http://creativecommons.org/ns#"
   xmlns:rdf="http://www.w3.org/1999/02/22-rdf-syntax-ns#"
   xmlns:svg="http://www.w3.org/2000/svg"
   xmlns="http://www.w3.org/2000/svg"
   xmlns:sodipodi="http://sodipodi.sourceforge.net/DTD/sodipodi-0.dtd"
   xmlns:inkscape="http://www.inkscape.org/namespaces/inkscape"
   width="114.82869"
   height="23.33676"
   viewBox="0 0 30.381757 6.1745178"
   version="1.1"
   id="svg11265"
   inkscape:version="0.92.0 r15299"
   sodipodi:docname="veritas.svg">
  <defs
     id="defs11259">
    <clipPath
       id="clipPath10845"
       clipPathUnits="userSpaceOnUse">
      <path
         inkscape:connector-curvature="0"
         id="path10843"
         d="M 0,0 H 792 V 612 H 0 Z" />
    </clipPath>
    <clipPath
       id="clipPath10821"
       clipPathUnits="userSpaceOnUse">
      <path
         inkscape:connector-curvature="0"
         id="path10819"
         d="M 0,0 H 792 V 612 H 0 Z" />
    </clipPath>
    <clipPath
       id="clipPath10807"
       clipPathUnits="userSpaceOnUse">
      <path
         inkscape:connector-curvature="0"
         id="path10805"
         d="M 0,0 H 792 V 612 H 0 Z" />
    </clipPath>
  </defs>
  <sodipodi:namedview
     id="base"
     pagecolor="#ffffff"
     bordercolor="#666666"
     borderopacity="1.0"
     inkscape:pageopacity="0.0"
     inkscape:pageshadow="2"
     inkscape:zoom="4.0369128"
     inkscape:cx="63.51871"
     inkscape:cy="25.365876"
     inkscape:document-units="mm"
     inkscape:current-layer="layer1"
     showgrid="false"
     fit-margin-top="0"
     fit-margin-left="0"
     fit-margin-right="0"
     fit-margin-bottom="0"
     units="px"
     inkscape:window-width="1280"
     inkscape:window-height="744"
     inkscape:window-x="-4"
     inkscape:window-y="-4"
     inkscape:window-maximized="1" />
  <metadata
     id="metadata11262">
    <rdf:RDF>
      <cc:Work
         rdf:about="">
        <dc:format>image/svg+xml</dc:format>
        <dc:type
           rdf:resource="http://purl.org/dc/dcmitype/StillImage" />
        <dc:title></dc:title>
      </cc:Work>
    </rdf:RDF>
  </metadata>
  <g
     inkscape:label="Layer 1"
     inkscape:groupmode="layer"
     id="layer1"
     transform="translate(-72.906948,-158.76928)">
    <g
       id="g11359"
       transform="translate(0.13229175,-14.223604)"
       style="fill:#b1181e;fill-opacity:1">
      <g
         style="fill:#b1181e;fill-opacity:1"
         transform="matrix(0.35277777,0,0,-0.35277777,-143.29506,370.41264)"
         id="g10801">
        <g
           style="fill:#b1181e;fill-opacity:1"
           clip-path="url(#clipPath10807)"
           id="g10803">
          <g
             style="fill:#b1181e;fill-opacity:1"
             transform="translate(643.1752,554.6865)"
             id="g10809">
            <path
               inkscape:connector-curvature="0"
               id="path10811"
               style="fill:#b1181e;fill-opacity:1;fill-rule:nonzero;stroke:none"
               d="M 0,0 C 0,0.633 0.513,1.145 1.146,1.145 H 6.109 C 6.877,1.145 7.6,0.68 7.892,-0.079 8.27,-1.064 7.778,-2.168 6.794,-2.546 L 2.948,-3.963 C 1.552,-4.445 0.811,-5.965 1.291,-7.361 c 0.251,-0.73 0.787,-1.281 1.44,-1.572 l 7.196,-3.266 v 2.506 L 3.632,-6.909 C 3.52,-6.86 3.428,-6.765 3.385,-6.64 c -0.082,0.239 0.045,0.5 0.284,0.582 l 3.945,1.373 C 9.779,-3.854 10.86,-1.425 10.03,0.74 9.388,2.41 7.797,3.436 6.109,3.436 H 1.146 C -0.752,3.436 -2.291,1.898 -2.291,0 V -11.836 H 0 Z" />
          </g>
        </g>
      </g>
      <path
         inkscape:connector-curvature="0"
         id="path10813"
         style="fill:#b1181e;fill-opacity:1;fill-rule:nonzero;stroke:none;stroke-width:0.35277778"
         d="m 88.055553,178.90724 h 0.80821 v -5.38798 h -0.80821 z" />
      <g
         style="fill:#b1181e;fill-opacity:1"
         transform="matrix(0.35277777,0,0,-0.35277777,-143.29506,370.41264)"
         id="g10815">
        <g
           style="fill:#b1181e;fill-opacity:1"
           clip-path="url(#clipPath10821)"
           id="g10817">
          <g
             style="fill:#b1181e;fill-opacity:1"
             transform="translate(624.1921,558.1227)"
             id="g10823">
            <path
               inkscape:connector-curvature="0"
               id="path10825"
               style="fill:#b1181e;fill-opacity:1;fill-rule:nonzero;stroke:none"
               d="m 0,0 -4.101,-12.717 c -0.052,-0.162 -0.201,-0.264 -0.363,-0.264 -0.162,0 -0.303,0.097 -0.363,0.264 L -8.928,0 h -2.408 l 4.33,-13.425 c 0.365,-1.125 1.407,-1.848 2.542,-1.848 1.136,0 2.175,0.718 2.542,1.848 L 2.409,0 Z" />
          </g>
          <g
             style="fill:#b1181e;fill-opacity:1"
             transform="translate(671.856,542.85)"
             id="g10827">
            <path
               inkscape:connector-curvature="0"
               id="path10829"
               style="fill:#b1181e;fill-opacity:1;fill-rule:nonzero;stroke:none"
               d="m 0,0 4.101,12.717 c 0.052,0.162 0.2,0.264 0.363,0.264 0.162,0 0.303,-0.097 0.363,-0.263 L 8.928,0 h 2.409 L 7.006,13.426 c -0.365,1.124 -1.407,1.847 -2.542,1.847 -1.136,0 -2.175,-0.718 -2.542,-1.848 L -2.409,0 Z" />
          </g>
          <g
             style="fill:#b1181e;fill-opacity:1"
             transform="translate(631.2818,555.8317)"
             id="g10831">
            <path
               inkscape:connector-curvature="0"
               id="path10833"
               style="fill:#b1181e;fill-opacity:1;fill-rule:nonzero;stroke:none"
               d="M 0,0 H 7.254 V 2.291 H 0 c -2.109,0 -3.818,-1.71 -3.818,-3.818 v -7.637 c 0,-2.108 1.709,-3.818 3.818,-3.818 h 7.254 v 2.291 H 0 c -0.843,0 -1.527,0.684 -1.527,1.527 v 2.692 h 7.254 v 2.253 h -7.254 v 2.692 C -1.527,-0.684 -0.843,0 0,0" />
          </g>
        </g>
      </g>
      <g
         style="fill:#b1181e;fill-opacity:1"
         transform="matrix(0.35277777,0,0,-0.35277777,93.470473,173.51937)"
         id="g10835">
        <path
           inkscape:connector-curvature="0"
           id="path10837"
           style="fill:#b1181e;fill-opacity:1;fill-rule:nonzero;stroke:none"
           d="m 0,0 h -11.149 v -2.291 h 4.429 v -12.982 h 2.291 V -2.291 H 0 Z" />
      </g>
      <g
         style="fill:#b1181e;fill-opacity:1"
         transform="matrix(0.35277777,0,0,-0.35277777,-143.29506,370.41264)"
         id="g10839">
        <g
           style="fill:#b1181e;fill-opacity:1"
           clip-path="url(#clipPath10845)"
           id="g10841">
          <g
             style="fill:#b1181e;fill-opacity:1"
             transform="translate(691.7008,542.85)"
             id="g10847">
            <path
               inkscape:connector-curvature="0"
               id="path10849"
               style="fill:#b1181e;fill-opacity:1;fill-rule:nonzero;stroke:none"
               d="M 0,0 C 2.425,0 4.391,1.966 4.391,4.391 4.391,6.816 2.425,8.782 0,8.782 h -3.818 c -1.16,0 -2.101,0.94 -2.101,2.1 0,1.16 0.941,2.1 2.101,2.1 h 7.445 v 2.291 h -7.445 c -2.425,0 -4.391,-1.966 -4.391,-4.391 0,-2.425 1.966,-4.391 4.391,-4.391 L 0,6.49 c 1.16,0 2.1,-0.94 2.1,-2.099 0,-1.16 -0.94,-2.1 -2.1,-2.1 H -7.446 V 0 Z" />
          </g>
        </g>
      </g>
      <g
         style="fill:#b1181e;fill-opacity:1"
         transform="matrix(0.35277777,0,0,-0.35277777,102.82833,173.42292)"
         id="g10851">
        <path
           inkscape:connector-curvature="0"
           id="path10853"
           style="fill:#b1181e;fill-opacity:1;fill-rule:nonzero;stroke:none"
           d="M 0,0 0.07,0.198 0.323,0.844 H 0.555 V -0.273 H 0.364 V 0.273 L 0.368,0.464 0.306,0.306 0.083,-0.273 h -0.166 l -0.223,0.579 -0.062,0.158 0.004,-0.191 v -0.546 h -0.191 v 1.117 h 0.232 L -0.071,0.198 Z M -1.051,-0.273 H -1.25 v 0.931 h -0.331 v 0.186 h 0.865 V 0.658 h -0.335 z" />
      </g>
    </g>
  </g>
</svg>
