<?xml version="1.0" standalone="no"?>
<!DOCTYPE svg PUBLIC "-//W3C//DTD SVG 20010904//EN"
 "http://www.w3.org/TR/2001/REC-SVG-20010904/DTD/svg10.dtd">
<svg version="1.0" xmlns="http://www.w3.org/2000/svg"
 width="2000.000000pt" height="832.000000pt" viewBox="0 0 2000.000000 832.000000"
 preserveAspectRatio="xMidYMid meet">
<metadata>
Created by potrace 1.12, written by Peter Selinger 2001-2015
</metadata>
<g transform="translate(0.000000,832.000000) scale(0.100000,-0.100000)"
fill="#000000" stroke="none">
<path d="M3975 8133 c-767 -66 -1434 -334 -2040 -817 -133 -107 -430 -405
-534 -537 -176 -224 -329 -463 -439 -684 -189 -383 -323 -858 -361 -1282 -26
-290 -9 -707 40 -983 53 -301 170 -670 297 -933 l37 -77 300 230 c484 371 458
349 449 368 -30 65 -127 378 -148 477 -75 360 -75 773 -1 1143 58 283 216 667
375 911 39 60 58 97 52 105 -197 257 -422 556 -422 560 0 3 220 6 489 6 l488
0 68 52 c186 140 504 310 727 387 149 51 369 105 523 128 170 25 601 25 770 0
446 -66 861 -234 1222 -494 l102 -73 636 2 636 3 -107 135 c-133 167 -408 443
-575 576 -376 301 -817 531 -1262 658 -374 108 -658 147 -1052 144 -126 -1
-248 -3 -270 -5z"/>
<path d="M1881 6373 c62 -82 136 -177 164 -213 28 -36 298 -389 600 -785 302
-396 577 -757 612 -801 l63 -81 -338 -259 c-185 -142 -490 -376 -677 -519
-187 -143 -443 -339 -570 -435 -126 -96 -338 -257 -470 -359 -132 -102 -415
-320 -630 -484 -214 -165 -391 -303 -393 -308 -2 -5 517 -9 1227 -9 l1231 0
93 73 c231 184 1422 1090 1433 1091 7 0 191 -233 409 -519 219 -286 419 -548
446 -583 l49 -62 985 0 c542 0 985 3 985 7 0 8 -153 210 -715 943 -501 653
-888 1166 -889 1178 -1 13 658 526 1264 984 130 99 498 380 1244 953 194 149
370 284 392 302 l39 32 -1233 1 -1233 0 -696 -532 c-382 -293 -698 -533 -702
-532 -7 0 -61 70 -511 662 l-305 401 -993 1 -993 0 112 -147z"/>
<path d="M7290 5514 c-212 -162 -384 -298 -384 -302 1 -4 14 -59 29 -123 l27
-116 85 84 c180 178 425 340 673 444 30 12 57 24 59 25 5 5 -91 284 -98 284
-3 0 -179 -133 -391 -296z"/>
<path d="M8690 5619 c-281 -23 -587 -85 -805 -163 -225 -82 -479 -226 -646
-369 -292 -249 -509 -615 -574 -966 -48 -263 20 -490 210 -689 290 -306 845
-462 1640 -462 426 0 865 45 1148 116 485 122 791 339 862 609 8 33 15 70 15
82 l0 23 -777 0 -778 0 -30 -57 c-47 -91 -144 -187 -233 -231 -76 -37 -77 -37
-201 -37 -147 0 -235 22 -311 78 -56 41 -103 127 -121 215 -12 63 -8 268 7
305 6 16 87 17 1259 17 l1253 0 20 78 c40 151 46 198 46 352 1 158 -8 220 -46
340 -129 403 -512 656 -1118 739 -219 30 -580 39 -820 20z m350 -575 c78 -26
162 -111 184 -184 19 -62 21 -167 5 -240 l-11 -50 -464 0 -464 0 0 28 c0 45
27 137 59 201 63 124 175 214 311 251 97 26 294 23 380 -6z"/>
<path d="M13640 5600 c-348 -59 -693 -213 -1007 -450 -27 -19 -43 -27 -43 -18
0 7 14 87 30 176 17 90 30 171 30 180 0 16 -57 17 -742 14 l-743 -2 -68 -318
c-38 -174 -99 -459 -137 -632 -38 -173 -103 -475 -145 -670 -114 -531 -164
-762 -170 -787 l-5 -23 780 0 c429 0 780 1 780 3 0 15 260 1389 266 1410 9 29
183 205 249 252 144 103 287 146 420 127 177 -24 245 -107 245 -296 0 -120
-13 -204 -114 -761 -47 -259 -92 -513 -101 -565 -9 -52 -18 -103 -21 -112 -5
-17 36 -18 755 -18 l761 0 5 23 c2 12 36 189 75 392 39 204 91 471 115 595 61
315 79 478 72 670 -9 228 -43 359 -129 492 -118 183 -322 291 -618 327 -132
17 -418 12 -540 -9z"/>
<path d="M6736 3285 c-26 -56 -74 -146 -106 -200 l-58 -98 100 -131 c55 -72
187 -244 292 -383 105 -139 194 -252 198 -253 12 0 154 202 236 338 68 111
212 380 212 395 0 2 -33 12 -72 22 -246 59 -511 195 -686 351 l-68 62 -48
-103z"/>
<path d="M15055 2908 c-10 -44 -65 -321 -65 -330 0 -4 113 -7 252 -6 l252 3
32 169 c18 93 31 173 28 178 -3 4 -115 8 -249 8 l-245 0 -5 -22z"/>
<path d="M10587 2763 c-33 -168 -156 -800 -236 -1213 -44 -228 -83 -430 -87
-447 l-6 -33 246 0 c135 0 246 1 246 3 0 2 23 115 50 252 28 137 50 250 50
252 0 2 75 3 168 3 227 0 365 23 512 85 216 90 384 282 438 500 87 344 -35
568 -357 658 -71 20 -104 21 -541 25 l-466 3 -17 -88z m807 -353 c67 -34 89
-67 94 -139 6 -84 -19 -153 -78 -211 -72 -73 -131 -91 -322 -97 -147 -6 -158
-5 -158 12 0 18 78 429 86 454 3 10 37 12 167 10 150 -4 166 -6 211 -29z"/>
<path d="M18836 2631 c-16 -88 -32 -164 -35 -170 -4 -6 -42 -11 -86 -13 l-80
-3 -36 -190 -35 -190 78 -3 c55 -2 78 -7 78 -16 0 -7 -27 -151 -61 -322 -51
-261 -60 -322 -57 -389 7 -145 69 -223 212 -268 136 -42 369 -22 494 42 l36
18 33 169 c18 93 33 176 33 185 0 14 -6 14 -57 -4 -73 -24 -172 -27 -206 -5
-41 28 -40 62 8 311 25 128 47 242 50 255 5 22 8 22 165 22 88 0 160 1 160 3
0 1 16 82 35 181 19 98 35 185 35 192 0 11 -30 14 -155 14 -123 0 -155 3 -155
13 0 8 14 81 30 162 17 81 30 152 30 157 0 4 -109 8 -243 8 l-242 0 -29 -159z"/>
<path d="M13892 2469 c-139 -17 -313 -88 -437 -179 -75 -56 -171 -156 -225
-237 -82 -123 -140 -305 -140 -442 0 -77 32 -198 72 -274 70 -135 229 -248
398 -283 103 -22 297 -14 399 16 395 114 682 464 681 832 0 157 -52 280 -165
394 -76 76 -172 132 -275 158 -75 19 -220 26 -308 15z m155 -439 c36 -21 61
-44 80 -77 25 -43 28 -57 28 -138 -1 -76 -5 -99 -27 -147 -56 -121 -170 -206
-291 -215 -74 -6 -118 6 -176 47 -64 47 -86 98 -86 200 1 104 28 172 102 251
69 75 146 109 243 109 65 0 82 -4 127 -30z"/>
<path d="M16267 2469 c-88 -12 -174 -41 -267 -91 -288 -154 -470 -455 -473
-778 -1 -164 42 -280 145 -387 108 -112 272 -173 467 -173 232 0 404 65 599
229 l53 44 -112 113 -113 113 -35 -28 c-152 -118 -345 -147 -462 -68 -42 28
-77 89 -81 142 l-3 40 460 5 460 5 13 60 c23 106 27 292 8 378 -44 197 -174
333 -361 380 -80 20 -214 28 -298 16z m129 -368 c65 -29 104 -101 104 -187 l0
-44 -240 0 -240 0 15 36 c29 70 99 155 150 181 71 37 149 42 211 14z"/>
<path d="M13000 2459 c-109 -21 -251 -125 -325 -238 -16 -23 -29 -40 -30 -39
-2 2 8 57 21 123 12 66 23 126 24 133 0 9 -54 12 -240 12 l-240 0 -5 -22 c-3
-13 -61 -313 -130 -668 -69 -355 -127 -655 -130 -667 l-5 -23 243 0 243 0 51
263 c56 282 73 336 139 437 78 118 176 173 339 188 l78 7 49 245 c26 135 48
248 48 253 0 9 -72 7 -130 -4z"/>
<path d="M17780 2456 c-249 -56 -468 -215 -596 -432 -88 -151 -118 -269 -112
-437 9 -230 105 -384 299 -481 110 -56 194 -71 349 -63 134 7 207 25 309 75
81 39 231 150 275 203 27 32 28 34 9 49 -10 8 -71 59 -135 113 -63 53 -119 97
-122 97 -4 0 -30 -18 -58 -41 -100 -79 -195 -108 -287 -88 -197 42 -227 325
-54 510 66 71 140 104 228 103 88 -1 144 -27 187 -89 18 -25 35 -45 39 -45 6
0 356 224 367 235 11 11 -59 113 -114 165 -71 68 -155 112 -249 129 -76 14
-265 12 -335 -3z"/>
<path d="M14977 2443 c-3 -5 -46 -219 -96 -478 -154 -790 -170 -867 -189 -899
-24 -42 -93 -76 -157 -76 l-51 0 -30 -155 c-19 -97 -27 -158 -21 -162 5 -3 71
-8 146 -10 294 -10 458 71 560 277 38 78 47 113 111 435 165 836 207 1060 203
1068 -2 4 -109 7 -238 7 -129 0 -236 -3 -238 -7z"/>
<path d="M2795 2073 l-48 -38 -616 -5 -616 -5 110 -114 c336 -347 758 -637
1205 -826 839 -356 1784 -385 2658 -80 385 134 792 365 1116 634 102 84 396
369 396 383 0 5 -332 8 -739 8 l-738 0 -94 -44 c-603 -281 -1275 -335 -1929
-155 -156 44 -403 146 -559 232 -46 26 -87 47 -91 47 -4 0 -28 -17 -55 -37z"/>
</g>
</svg>
