<svg width="38" height="38" viewBox="0 0 38 38" fill="none" xmlns="http://www.w3.org/2000/svg">
<path d="M19 0C8.53882 0 0 8.53882 0 19C0 29.4612 8.53882 38 19 38C29.4612 38 38 29.4612 38 19C38 8.53882 29.4612 0 19 0ZM27.9859 33.1271L27.0918 31.5624C26.9576 31.3388 26.6894 31.2941 26.4659 31.3835C26.2424 31.5176 26.1976 31.7859 26.2871 32.0094L27.1812 33.5741C24.9459 34.8259 22.3976 35.5859 19.6706 35.72V33.8871C19.6706 33.6188 19.4918 33.44 19.2235 33.44C18.9553 33.44 18.7765 33.6188 18.7765 33.8871V35.7647C16.0494 35.72 13.4565 35.0494 11.2212 33.8424L12.1153 32.2776C12.2494 32.0541 12.16 31.7859 11.9365 31.6518C11.7129 31.5176 11.4447 31.6071 11.3106 31.8306L10.4165 33.3953C8.13647 32.0541 6.21412 30.1765 4.82824 27.9859L6.39294 27.0918C6.61647 26.9576 6.66118 26.6894 6.57176 26.4659C6.43765 26.2424 6.16941 26.1976 5.94588 26.2871L4.38118 27.1812C3.12941 24.9906 2.36941 22.4424 2.23529 19.7153H4.06824C4.33647 19.7153 4.51529 19.5365 4.51529 19.2682C4.51529 19 4.33647 18.8212 4.06824 18.8212H2.23529C2.28 16.0941 2.95059 13.5012 4.15765 11.2659L5.72235 12.16C5.81176 12.2047 5.85647 12.2047 5.94588 12.2047C6.08 12.2047 6.25882 12.1153 6.34824 11.9812C6.48235 11.7576 6.39294 11.4894 6.16941 11.3553L4.60471 10.4612C5.94588 8.18118 7.82353 6.25882 10.0588 4.87294L10.9529 6.43765C11.0424 6.57176 11.1765 6.66118 11.3553 6.66118C11.4447 6.66118 11.4894 6.66118 11.5788 6.61647C11.8024 6.48235 11.8471 6.21412 11.7576 5.99059L10.8635 4.42588C13.1882 3.04 16.0047 2.23529 19 2.23529C28.2541 2.23529 35.7647 9.74588 35.7647 19C35.7647 21.8165 35.0941 24.4541 33.8424 26.7341L32.2776 25.84C32.0541 25.7059 31.7859 25.7953 31.6518 26.0188C31.5176 26.2424 31.6071 26.5106 31.8306 26.6447L33.3953 27.5388C32.0541 29.8188 30.2212 31.7412 27.9859 33.1271Z" fill="url(#paint0_linear)"/>
<path d="M32.7247 11.087C31.3388 8.76231 29.2377 6.66113 26.9129 5.27525C24.6329 3.97878 21.9059 3.17407 19.0894 3.17407V15.6023C19.6259 15.6023 20.2518 15.8258 20.6988 16.0494C21.1459 16.3176 21.6824 16.8541 21.9506 17.3011C22.2188 17.7482 22.3977 18.3741 22.3977 18.9105H34.8706C34.8706 16.0941 34.0659 13.367 32.7247 11.087Z" fill="url(#paint1_linear)"/>
<path d="M19 16.5413C17.6588 16.5413 16.5412 17.6589 16.5412 19.0001C16.5412 20.3413 17.6588 21.4589 19 21.4589C20.3412 21.4589 21.4588 20.3413 21.4588 19.0001C21.4588 17.6589 20.3412 16.5413 19 16.5413ZM19 19.8942C18.5083 19.8942 18.1059 19.4918 18.1059 19.0001C18.1059 18.5083 18.5083 18.106 19 18.106C19.4918 18.106 19.8941 18.5083 19.8941 19.0001C19.8941 19.4918 19.4918 19.8942 19 19.8942Z" fill="url(#paint2_linear)"/>
<defs>
<linearGradient id="paint0_linear" x1="19.0008" y1="0" x2="19.0008" y2="38.0057" gradientUnits="userSpaceOnUse">
<stop stop-color="#17CE8A"/>
<stop offset="1" stop-color="#047870"/>
</linearGradient>
<linearGradient id="paint1_linear" x1="26.9804" y1="3.17407" x2="26.9804" y2="18.9129" gradientUnits="userSpaceOnUse">
<stop stop-color="#17CE8A"/>
<stop offset="1" stop-color="#047870"/>
</linearGradient>
<linearGradient id="paint2_linear" x1="19.0001" y1="16.5413" x2="19.0001" y2="21.4596" gradientUnits="userSpaceOnUse">
<stop stop-color="#17CE8A"/>
<stop offset="1" stop-color="#047870"/>
</linearGradient>
</defs>
</svg>
