<svg width="686" height="501" viewBox="0 0 686 501" fill="none" xmlns="http://www.w3.org/2000/svg">
<g opacity="0.4">
<path fill-rule="evenodd" clip-rule="evenodd" d="M139.065 300.558L139.054 294.666C139.054 294.666 217.336 255.617 217.921 255.951L295.818 295.425V300.739C295.818 300.739 295.818 301.498 295.058 301.877L218.548 346.001C217.963 346.335 217.044 346.335 216.459 346.001L139.525 301.686C138.94 301.352 139.065 300.558 139.065 300.558Z" fill="#BDBDBD"/>
<path fill-rule="evenodd" clip-rule="evenodd" d="M139.433 293.906L216.539 250.127C217.124 249.792 218.043 249.792 218.628 250.127L295.428 294.666C296.012 295 296.012 295.543 295.428 295.877L219.296 339.633C218.711 339.967 217.792 339.967 217.208 339.633L139.475 295.118C138.89 294.783 138.849 294.241 139.433 293.906Z" fill="#F3F3F3"/>
<g opacity="0.2">
<path d="M201.265 278.059L218.492 268.215L234.734 277.074L217.999 287.41L201.265 278.059Z" fill="url(#paint0_linear)"/>
<path d="M230.872 296.278L247.606 286.434L264.341 295.786L247.606 305.63L230.872 296.278Z" fill="url(#paint1_linear)"/>
<path d="M170.899 297.037L188.126 287.194L204.368 296.053L187.634 306.389L170.899 297.037Z" fill="url(#paint2_linear)"/>
<path d="M200.506 314.498L217.733 304.654L233.975 313.513L217.24 323.849L200.506 314.498Z" fill="url(#paint3_linear)"/>
</g>
<path d="M201.265 247.693L218.492 237.849L234.734 246.709L218 257.045L201.265 247.693Z" fill="url(#paint4_linear)"/>
<path d="M201.265 247.693V267.381L218 277.225V257.045L201.265 247.693Z" fill="url(#paint5_linear)"/>
<path d="M218 257.045L234.734 246.709V266.987L218 277.225V257.045Z" fill="url(#paint6_linear)"/>
<path d="M230.583 265.958L247.317 256.114L264.052 265.466L247.317 275.309L230.583 265.958Z" fill="url(#paint7_linear)"/>
<path d="M230.583 265.958V285.646L247.317 295.489V275.309L230.583 265.958Z" fill="url(#paint8_linear)"/>
<path d="M247.317 275.309L264.051 265.466V285.252L247.317 295.489V275.309Z" fill="url(#paint9_linear)"/>
<path d="M170.899 266.672L188.126 256.828L204.368 265.687L187.634 276.023L170.899 266.672Z" fill="url(#paint10_linear)"/>
<path d="M170.899 266.672V286.359L187.634 296.203V276.023L170.899 266.672Z" fill="url(#paint11_linear)"/>
<path d="M187.634 276.023L204.368 265.687V285.966L187.634 296.203V276.023Z" fill="url(#paint12_linear)"/>
<path d="M200.506 284.132L217.733 274.288L233.975 283.148L217.24 293.484L200.506 284.132Z" fill="url(#paint13_linear)"/>
<path d="M200.506 284.132V303.82L217.24 313.664V293.484L200.506 284.132Z" fill="url(#paint14_linear)"/>
<path d="M217.24 293.484L233.975 283.148V303.426L217.24 313.664V293.484Z" fill="url(#paint15_linear)"/>
<path d="M201.265 218.845L218.492 209.002L234.734 217.861L218 228.197L201.265 218.845Z" fill="url(#paint16_linear)"/>
<path d="M201.265 218.845V238.533L218 248.377V228.197L201.265 218.845Z" fill="url(#paint17_linear)"/>
<path d="M218 228.197L234.734 217.861V238.139L218 248.377V228.197Z" fill="url(#paint18_linear)"/>
<path d="M230.872 235.547L248.098 225.703L264.341 234.562L247.606 244.898L230.872 235.547Z" fill="url(#paint19_linear)"/>
<path d="M230.872 235.547V255.234L247.606 265.078V244.898L230.872 235.547Z" fill="url(#paint20_linear)"/>
<path d="M247.606 244.898L264.341 234.562V254.841L247.606 265.078V244.898Z" fill="url(#paint21_linear)"/>
<path d="M170.899 237.824L188.126 227.98L204.368 236.84L187.634 247.176L170.899 237.824Z" fill="url(#paint22_linear)"/>
<path d="M170.899 237.824V257.512L187.634 267.356V247.176L170.899 237.824Z" fill="url(#paint23_linear)"/>
<path d="M187.634 247.176L204.368 236.84V257.118L187.634 267.356V247.176Z" fill="url(#paint24_linear)"/>
<path d="M201.265 256.044L218 246.2L234.734 255.551L218 265.395L201.265 256.044Z" fill="url(#paint25_linear)"/>
<path d="M201.265 256.044V275.731L218 285.575V265.395L201.265 256.044Z" fill="url(#paint26_linear)"/>
<path d="M218 265.395L234.734 255.551V275.338L218 285.575V265.395Z" fill="url(#paint27_linear)"/>
<path d="M233.975 189.239L216.748 179.395L200.506 188.254L217.24 198.59L233.975 189.239Z" fill="url(#paint28_linear)"/>
<path d="M233.975 189.239V208.926L217.24 218.77V198.59L233.975 189.239Z" fill="url(#paint29_linear)"/>
<path d="M217.24 198.59L200.506 188.254V208.533L217.24 218.77V198.59Z" fill="url(#paint30_linear)"/>
<path d="M204.368 207.458L187.634 197.614L170.899 206.966L187.634 216.81L204.368 207.458Z" fill="url(#paint31_linear)"/>
<path d="M204.368 207.458V227.146L187.634 236.99V216.81L204.368 207.458Z" fill="url(#paint32_linear)"/>
<path d="M187.634 216.81L170.899 206.966V226.752L187.634 236.99V216.81Z" fill="url(#paint33_linear)"/>
<path d="M264.341 208.217L247.114 198.373L230.872 207.233L247.606 217.569L264.341 208.217Z" fill="url(#paint34_linear)"/>
<path d="M264.341 208.217V227.905L247.606 237.749V217.569L264.341 208.217Z" fill="url(#paint35_linear)"/>
<path d="M247.606 217.569L230.872 207.233V227.511L247.606 237.749V217.569Z" fill="url(#paint36_linear)"/>
<path d="M234.734 225.678L217.507 215.834L201.265 224.693L218 235.029L234.734 225.678Z" fill="url(#paint37_linear)"/>
<path d="M234.734 225.678V245.365L218 255.209V235.029L234.734 225.678Z" fill="url(#paint38_linear)"/>
<path d="M218 235.029L201.265 224.693V244.972L218 255.209V235.029Z" fill="url(#paint39_linear)"/>
<path d="M233.975 160.391L216.748 150.547L200.506 159.407L217.24 169.743L233.975 160.391Z" fill="url(#paint40_linear)"/>
<path d="M233.975 160.391V180.079L217.24 189.923V169.743L233.975 160.391Z" fill="url(#paint41_linear)"/>
<path d="M217.24 169.743L200.506 159.407V179.685L217.24 189.923V169.743Z" fill="url(#paint42_linear)"/>
<path d="M204.368 177.092L187.141 167.249L170.899 176.108L187.634 186.444L204.368 177.092Z" fill="url(#paint43_linear)"/>
<path d="M204.368 177.092V196.78L187.634 206.624V186.444L204.368 177.092Z" fill="url(#paint44_linear)"/>
<path d="M187.634 186.444L170.899 176.108V196.386L187.634 206.624V186.444Z" fill="url(#paint45_linear)"/>
<path d="M264.341 179.37L247.114 169.526L230.872 178.385L247.606 188.721L264.341 179.37Z" fill="url(#paint46_linear)"/>
<path d="M264.341 179.37V199.058L247.606 208.901V188.722L264.341 179.37Z" fill="url(#paint47_linear)"/>
<path d="M247.606 188.721L230.872 178.385V198.664L247.606 208.901V188.721Z" fill="url(#paint48_linear)"/>
<path d="M233.975 197.589L217.24 187.745L200.506 197.097L217.24 206.941L233.975 197.589Z" fill="url(#paint49_linear)"/>
<path d="M233.975 197.589V217.277L217.24 227.121V206.941L233.975 197.589Z" fill="url(#paint50_linear)"/>
<path d="M217.24 206.941L200.506 197.097V216.883L217.24 227.121V206.941Z" fill="url(#paint51_linear)"/>
<path fill-rule="evenodd" clip-rule="evenodd" d="M139.065 151.885L139.054 145.992C139.054 145.992 217.336 106.944 217.921 107.278L295.818 146.752V152.066C295.818 152.066 295.818 152.825 295.058 153.204L218.548 197.328C217.963 197.662 217.044 197.662 216.459 197.328L139.525 153.013C138.94 152.679 139.065 151.885 139.065 151.885Z" fill="#BDBDBD"/>
<path fill-rule="evenodd" clip-rule="evenodd" d="M139.433 145.233L216.539 101.453C217.124 101.119 218.043 101.119 218.628 101.453L295.428 145.992C296.012 146.327 296.012 146.87 295.428 147.204L219.296 190.96C218.711 191.294 217.792 191.294 217.208 190.96L139.475 146.444C138.89 146.11 138.849 145.567 139.433 145.233Z" fill="#F3F3F3"/>
</g>
<path fill-rule="evenodd" clip-rule="evenodd" d="M282.378 382.2L282.359 372.259C282.359 372.259 414.422 306.384 415.408 306.947L546.82 373.539V382.504C546.82 382.504 546.82 383.785 545.54 384.425L416.465 458.862C415.479 459.425 413.929 459.425 412.942 458.862L283.153 384.102C282.166 383.539 282.378 382.2 282.378 382.2Z" fill="#DBDDDE"/>
<path fill-rule="evenodd" clip-rule="evenodd" d="M282.999 370.978L413.077 297.121C414.064 296.557 415.614 296.557 416.6 297.121L546.163 372.259C547.149 372.822 547.149 373.738 546.163 374.302L417.728 448.119C416.741 448.683 415.191 448.683 414.205 448.119L283.069 373.021C282.083 372.458 282.012 371.542 282.999 370.978Z" fill="#F3F3F3"/>
<path d="M387.115 340.179L416.122 323.603L443.472 338.522L415.293 355.926L387.115 340.179Z" fill="#1D1D1D" fill-opacity="0.05"/>
<path d="M436.968 370.859L465.147 354.283L493.326 370.03L465.147 386.606L436.968 370.859Z" fill="#1D1D1D" fill-opacity="0.05"/>
<path d="M335.982 372.137L364.99 355.561L392.34 370.479L364.161 387.884L335.982 372.137Z" fill="#1D1D1D" fill-opacity="0.05"/>
<path d="M385.836 401.538L414.844 384.962L442.194 399.88L414.015 417.285L385.836 401.538Z" fill="#1D1D1D" fill-opacity="0.05"/>
<path d="M387.115 289.047L416.122 272.471L443.472 287.389L415.293 304.794L387.115 289.047Z" fill="#F67C7C"/>
<path d="M387.115 289.047V322.199L415.293 338.775V304.794L387.115 289.047Z" fill="#DE2424"/>
<path d="M415.293 304.794L443.472 287.389V321.536L415.293 338.775V304.794Z" fill="#F32626"/>
<path d="M436.968 319.726L465.147 303.151L493.326 318.898L465.147 335.473L436.968 319.726Z" fill="#06AFFF"/>
<path d="M436.968 319.726V352.878L465.147 369.454V335.473L436.968 319.726Z" fill="#2F80ED"/>
<path d="M465.147 335.473L493.326 318.898V352.215L465.147 369.454V335.473Z" fill="#3C8AFE"/>
<path d="M335.982 321.005L364.99 304.429L392.34 319.347L364.161 336.752L335.982 321.005Z" fill="#42E7AA"/>
<path d="M335.982 321.005V354.156L364.161 370.732V336.752L335.982 321.005Z" fill="#16A568"/>
<path d="M364.161 336.752L392.34 319.347V353.493L364.161 370.732V336.752Z" fill="#17CE8A"/>
<path d="M385.836 350.406L414.844 333.83L442.194 348.748L414.015 366.153L385.836 350.406Z" fill="#FFEE50"/>
<path d="M385.836 350.406V383.557L414.015 400.133V366.153L385.836 350.406Z" fill="#CCBA11"/>
<path d="M414.015 366.153L442.194 348.748V382.894L414.015 400.133V366.153Z" fill="#FFD215"/>
<path d="M387.115 240.471L416.122 223.896L443.472 238.814L415.293 256.218L387.115 240.471Z" fill="#42E7AA"/>
<path d="M387.115 240.471V273.623L415.293 290.199V256.218L387.115 240.471Z" fill="#16A568"/>
<path d="M415.293 256.218L443.472 238.814V272.96L415.293 290.199V256.218Z" fill="#17CE8A"/>
<path d="M436.968 268.594L465.976 252.018L493.326 266.937L465.147 284.341L436.968 268.594Z" fill="#FFEE50"/>
<path d="M436.968 268.594V301.746L465.147 318.322V284.341L436.968 268.594Z" fill="#CCBA11"/>
<path d="M465.147 284.341L493.326 266.937V301.083L465.147 318.322V284.341Z" fill="#FFD215"/>
<path d="M283.572 309.5L312.579 292.924L339.929 307.842L311.751 325.247L283.572 309.5Z" fill="#F67C7C"/>
<path d="M283.572 309.5V342.652L311.751 359.227V325.247L283.572 309.5Z" fill="#DE2424"/>
<path d="M311.751 325.247L339.93 307.842V341.989L311.751 359.227V325.247Z" fill="#F32626"/>
<path d="M387.115 303.108L415.293 286.533L443.472 302.28L415.293 318.855L387.115 303.108Z" fill="#06AFFF"/>
<path d="M387.115 303.108V336.26L415.293 352.836V318.855L387.115 303.108Z" fill="#2F80ED"/>
<path d="M415.293 318.855L443.472 302.28V335.597L415.293 352.836V318.855Z" fill="#3C8AFE"/>
<path d="M442.194 190.618L413.186 174.042L385.836 188.96L414.015 206.365L442.194 190.618Z" fill="#F67C7C"/>
<path d="M442.194 190.618V223.769L414.015 240.345V206.365L442.194 190.618Z" fill="#DE2424"/>
<path d="M414.015 206.365L385.836 188.96V223.106L414.015 240.345V206.365Z" fill="#F32626"/>
<path d="M392.34 221.297L364.161 204.721L335.982 220.468L364.161 237.044L392.34 221.297Z" fill="#06AFFF"/>
<path d="M392.34 221.297V254.449L364.161 271.024V237.044L392.34 221.297Z" fill="#2F80ED"/>
<path d="M364.161 237.044L335.982 220.468V253.785L364.161 271.024V237.044Z" fill="#3C8AFE"/>
<path d="M547.015 197.009L518.008 180.433L490.657 195.351L518.836 212.756L547.015 197.009Z" fill="#42E7AA"/>
<path d="M547.015 197.009V230.161L518.836 246.737V212.756L547.015 197.009Z" fill="#16A568"/>
<path d="M518.836 212.756L490.657 195.351V229.498L518.836 246.737V212.756Z" fill="#17CE8A"/>
<path d="M504.831 294.16L475.823 277.584L448.473 292.503L476.652 309.907L504.831 294.16Z" fill="#FFEE50"/>
<path d="M504.831 294.16V327.312L476.652 343.888V309.907L504.831 294.16Z" fill="#CCBA11"/>
<path d="M476.652 309.907L448.473 292.503V326.649L476.652 343.888V309.907Z" fill="#FFD215"/>
<path d="M442.194 142.042L413.186 125.466L385.836 140.384L414.015 157.789L442.194 142.042Z" fill="#42E7AA"/>
<path d="M442.194 142.042V175.194L414.015 191.769V157.789L442.194 142.042Z" fill="#16A568"/>
<path d="M414.015 157.789L385.836 140.384V174.53L414.015 191.769V157.789Z" fill="#17CE8A"/>
<path d="M392.34 170.165L363.332 153.589L335.982 168.507L364.161 185.912L392.34 170.165Z" fill="#FFEE50"/>
<path d="M392.34 170.165V203.316L364.161 219.892V185.912L392.34 170.165Z" fill="#CCBA11"/>
<path d="M364.161 185.912L335.982 168.507V202.653L364.161 219.892V185.912Z" fill="#FFD215"/>
<path d="M493.326 174L464.318 157.424L436.968 172.342L465.147 189.747L493.326 174Z" fill="#F67C7C"/>
<path d="M493.326 174V207.151L465.147 223.727V189.747L493.326 174Z" fill="#DE2424"/>
<path d="M465.147 189.747L436.968 172.342V206.488L465.147 223.727V189.747Z" fill="#F32626"/>
<path d="M442.194 204.679L414.015 188.103L385.836 203.85L414.015 220.426L442.194 204.679Z" fill="#06AFFF"/>
<path d="M442.194 204.679V237.831L414.015 254.406V220.426L442.194 204.679Z" fill="#2F80ED"/>
<path d="M414.015 220.426L385.836 203.85V237.168L414.015 254.406V220.426Z" fill="#3C8AFE"/>
<path fill-rule="evenodd" clip-rule="evenodd" d="M282.378 127.878L282.359 117.937C282.359 117.937 414.422 52.0616 415.408 52.6253L546.82 119.217V128.182C546.82 128.182 546.82 129.463 545.54 130.103L416.465 204.54C415.479 205.103 413.929 205.103 412.942 204.54L283.153 129.78C282.166 129.217 282.378 127.878 282.378 127.878Z" fill="#DBDDDE"/>
<path fill-rule="evenodd" clip-rule="evenodd" d="M282.999 116.656L413.077 42.7989C414.064 42.2352 415.614 42.2352 416.6 42.7989L546.163 117.937C547.149 118.5 547.149 119.416 546.163 119.98L417.728 193.797C416.741 194.361 415.191 194.361 414.205 193.797L283.069 118.699C282.083 118.136 282.012 117.22 282.999 116.656Z" fill="#F3F3F3"/>
<defs>
<linearGradient id="paint0_linear" x1="218" y1="268.215" x2="218" y2="287.413" gradientUnits="userSpaceOnUse">
<stop stop-color="#E8E8E8"/>
<stop offset="1" stop-color="#727272"/>
</linearGradient>
<linearGradient id="paint1_linear" x1="247.607" y1="286.434" x2="247.607" y2="305.633" gradientUnits="userSpaceOnUse">
<stop stop-color="#E8E8E8"/>
<stop offset="1" stop-color="#727272"/>
</linearGradient>
<linearGradient id="paint2_linear" x1="187.634" y1="287.194" x2="187.634" y2="306.392" gradientUnits="userSpaceOnUse">
<stop stop-color="#E8E8E8"/>
<stop offset="1" stop-color="#727272"/>
</linearGradient>
<linearGradient id="paint3_linear" x1="217.241" y1="304.654" x2="217.241" y2="323.852" gradientUnits="userSpaceOnUse">
<stop stop-color="#E8E8E8"/>
<stop offset="1" stop-color="#727272"/>
</linearGradient>
<linearGradient id="paint4_linear" x1="218" y1="237.849" x2="218" y2="257.047" gradientUnits="userSpaceOnUse">
<stop stop-color="#E8E8E8"/>
<stop offset="1" stop-color="#727272"/>
</linearGradient>
<linearGradient id="paint5_linear" x1="209.633" y1="247.693" x2="209.633" y2="277.229" gradientUnits="userSpaceOnUse">
<stop stop-color="#E8E8E8"/>
<stop offset="1" stop-color="#727272"/>
</linearGradient>
<linearGradient id="paint6_linear" x1="226.367" y1="246.709" x2="226.367" y2="277.229" gradientUnits="userSpaceOnUse">
<stop stop-color="#E8E8E8"/>
<stop offset="1" stop-color="#727272"/>
</linearGradient>
<linearGradient id="paint7_linear" x1="247.318" y1="256.114" x2="247.318" y2="275.312" gradientUnits="userSpaceOnUse">
<stop stop-color="#E8E8E8"/>
<stop offset="1" stop-color="#727272"/>
</linearGradient>
<linearGradient id="paint8_linear" x1="238.95" y1="265.958" x2="238.95" y2="295.494" gradientUnits="userSpaceOnUse">
<stop stop-color="#E8E8E8"/>
<stop offset="1" stop-color="#727272"/>
</linearGradient>
<linearGradient id="paint9_linear" x1="255.685" y1="265.466" x2="255.685" y2="295.494" gradientUnits="userSpaceOnUse">
<stop stop-color="#E8E8E8"/>
<stop offset="1" stop-color="#727272"/>
</linearGradient>
<linearGradient id="paint10_linear" x1="187.634" y1="256.828" x2="187.634" y2="276.026" gradientUnits="userSpaceOnUse">
<stop stop-color="#E8E8E8"/>
<stop offset="1" stop-color="#727272"/>
</linearGradient>
<linearGradient id="paint11_linear" x1="179.267" y1="266.672" x2="179.267" y2="296.208" gradientUnits="userSpaceOnUse">
<stop stop-color="#E8E8E8"/>
<stop offset="1" stop-color="#727272"/>
</linearGradient>
<linearGradient id="paint12_linear" x1="196.001" y1="265.687" x2="196.001" y2="296.208" gradientUnits="userSpaceOnUse">
<stop stop-color="#E8E8E8"/>
<stop offset="1" stop-color="#727272"/>
</linearGradient>
<linearGradient id="paint13_linear" x1="217.241" y1="274.288" x2="217.241" y2="293.486" gradientUnits="userSpaceOnUse">
<stop stop-color="#E8E8E8"/>
<stop offset="1" stop-color="#727272"/>
</linearGradient>
<linearGradient id="paint14_linear" x1="208.874" y1="284.132" x2="208.874" y2="313.668" gradientUnits="userSpaceOnUse">
<stop stop-color="#E8E8E8"/>
<stop offset="1" stop-color="#727272"/>
</linearGradient>
<linearGradient id="paint15_linear" x1="225.608" y1="283.148" x2="225.608" y2="313.668" gradientUnits="userSpaceOnUse">
<stop stop-color="#E8E8E8"/>
<stop offset="1" stop-color="#727272"/>
</linearGradient>
<linearGradient id="paint16_linear" x1="218" y1="209.002" x2="218" y2="228.2" gradientUnits="userSpaceOnUse">
<stop stop-color="#E8E8E8"/>
<stop offset="1" stop-color="#727272"/>
</linearGradient>
<linearGradient id="paint17_linear" x1="209.633" y1="218.845" x2="209.633" y2="248.381" gradientUnits="userSpaceOnUse">
<stop stop-color="#E8E8E8"/>
<stop offset="1" stop-color="#727272"/>
</linearGradient>
<linearGradient id="paint18_linear" x1="226.367" y1="217.861" x2="226.367" y2="248.382" gradientUnits="userSpaceOnUse">
<stop stop-color="#E8E8E8"/>
<stop offset="1" stop-color="#727272"/>
</linearGradient>
<linearGradient id="paint19_linear" x1="247.607" y1="225.703" x2="247.607" y2="244.901" gradientUnits="userSpaceOnUse">
<stop stop-color="#E8E8E8"/>
<stop offset="1" stop-color="#727272"/>
</linearGradient>
<linearGradient id="paint20_linear" x1="239.239" y1="235.547" x2="239.239" y2="265.083" gradientUnits="userSpaceOnUse">
<stop stop-color="#E8E8E8"/>
<stop offset="1" stop-color="#727272"/>
</linearGradient>
<linearGradient id="paint21_linear" x1="255.974" y1="234.562" x2="255.974" y2="265.083" gradientUnits="userSpaceOnUse">
<stop stop-color="#E8E8E8"/>
<stop offset="1" stop-color="#727272"/>
</linearGradient>
<linearGradient id="paint22_linear" x1="187.634" y1="227.98" x2="187.634" y2="247.179" gradientUnits="userSpaceOnUse">
<stop stop-color="#E8E8E8"/>
<stop offset="1" stop-color="#727272"/>
</linearGradient>
<linearGradient id="paint23_linear" x1="179.267" y1="237.824" x2="179.267" y2="267.36" gradientUnits="userSpaceOnUse">
<stop stop-color="#E8E8E8"/>
<stop offset="1" stop-color="#727272"/>
</linearGradient>
<linearGradient id="paint24_linear" x1="196.001" y1="236.84" x2="196.001" y2="267.36" gradientUnits="userSpaceOnUse">
<stop stop-color="#E8E8E8"/>
<stop offset="1" stop-color="#727272"/>
</linearGradient>
<linearGradient id="paint25_linear" x1="218" y1="246.2" x2="218" y2="265.398" gradientUnits="userSpaceOnUse">
<stop stop-color="#E8E8E8"/>
<stop offset="1" stop-color="#727272"/>
</linearGradient>
<linearGradient id="paint26_linear" x1="209.633" y1="256.044" x2="209.633" y2="285.58" gradientUnits="userSpaceOnUse">
<stop stop-color="#E8E8E8"/>
<stop offset="1" stop-color="#727272"/>
</linearGradient>
<linearGradient id="paint27_linear" x1="226.367" y1="255.551" x2="226.367" y2="285.58" gradientUnits="userSpaceOnUse">
<stop stop-color="#E8E8E8"/>
<stop offset="1" stop-color="#727272"/>
</linearGradient>
<linearGradient id="paint28_linear" x1="217.24" y1="179.395" x2="217.24" y2="198.593" gradientUnits="userSpaceOnUse">
<stop stop-color="#E8E8E8"/>
<stop offset="1" stop-color="#727272"/>
</linearGradient>
<linearGradient id="paint29_linear" x1="225.607" y1="189.239" x2="225.607" y2="218.775" gradientUnits="userSpaceOnUse">
<stop stop-color="#E8E8E8"/>
<stop offset="1" stop-color="#727272"/>
</linearGradient>
<linearGradient id="paint30_linear" x1="208.873" y1="188.254" x2="208.873" y2="218.775" gradientUnits="userSpaceOnUse">
<stop stop-color="#E8E8E8"/>
<stop offset="1" stop-color="#727272"/>
</linearGradient>
<linearGradient id="paint31_linear" x1="187.633" y1="197.614" x2="187.633" y2="216.813" gradientUnits="userSpaceOnUse">
<stop stop-color="#E8E8E8"/>
<stop offset="1" stop-color="#727272"/>
</linearGradient>
<linearGradient id="paint32_linear" x1="196.001" y1="207.458" x2="196.001" y2="236.994" gradientUnits="userSpaceOnUse">
<stop stop-color="#E8E8E8"/>
<stop offset="1" stop-color="#727272"/>
</linearGradient>
<linearGradient id="paint33_linear" x1="179.266" y1="206.966" x2="179.266" y2="236.994" gradientUnits="userSpaceOnUse">
<stop stop-color="#E8E8E8"/>
<stop offset="1" stop-color="#727272"/>
</linearGradient>
<linearGradient id="paint34_linear" x1="247.605" y1="198.373" x2="247.605" y2="217.572" gradientUnits="userSpaceOnUse">
<stop stop-color="#E8E8E8"/>
<stop offset="1" stop-color="#727272"/>
</linearGradient>
<linearGradient id="paint35_linear" x1="255.973" y1="208.217" x2="255.973" y2="237.753" gradientUnits="userSpaceOnUse">
<stop stop-color="#E8E8E8"/>
<stop offset="1" stop-color="#727272"/>
</linearGradient>
<linearGradient id="paint36_linear" x1="239.239" y1="207.233" x2="239.239" y2="237.754" gradientUnits="userSpaceOnUse">
<stop stop-color="#E8E8E8"/>
<stop offset="1" stop-color="#727272"/>
</linearGradient>
<linearGradient id="paint37_linear" x1="217.999" y1="215.834" x2="217.999" y2="235.032" gradientUnits="userSpaceOnUse">
<stop stop-color="#E8E8E8"/>
<stop offset="1" stop-color="#727272"/>
</linearGradient>
<linearGradient id="paint38_linear" x1="226.367" y1="225.678" x2="226.367" y2="255.214" gradientUnits="userSpaceOnUse">
<stop stop-color="#E8E8E8"/>
<stop offset="1" stop-color="#727272"/>
</linearGradient>
<linearGradient id="paint39_linear" x1="209.632" y1="224.693" x2="209.632" y2="255.214" gradientUnits="userSpaceOnUse">
<stop stop-color="#E8E8E8"/>
<stop offset="1" stop-color="#727272"/>
</linearGradient>
<linearGradient id="paint40_linear" x1="217.24" y1="150.547" x2="217.24" y2="169.746" gradientUnits="userSpaceOnUse">
<stop stop-color="#E8E8E8"/>
<stop offset="1" stop-color="#727272"/>
</linearGradient>
<linearGradient id="paint41_linear" x1="225.607" y1="160.391" x2="225.607" y2="189.927" gradientUnits="userSpaceOnUse">
<stop stop-color="#E8E8E8"/>
<stop offset="1" stop-color="#727272"/>
</linearGradient>
<linearGradient id="paint42_linear" x1="208.873" y1="159.407" x2="208.873" y2="189.927" gradientUnits="userSpaceOnUse">
<stop stop-color="#E8E8E8"/>
<stop offset="1" stop-color="#727272"/>
</linearGradient>
<linearGradient id="paint43_linear" x1="187.633" y1="167.249" x2="187.633" y2="186.447" gradientUnits="userSpaceOnUse">
<stop stop-color="#E8E8E8"/>
<stop offset="1" stop-color="#727272"/>
</linearGradient>
<linearGradient id="paint44_linear" x1="196.001" y1="177.092" x2="196.001" y2="206.628" gradientUnits="userSpaceOnUse">
<stop stop-color="#E8E8E8"/>
<stop offset="1" stop-color="#727272"/>
</linearGradient>
<linearGradient id="paint45_linear" x1="179.266" y1="176.108" x2="179.266" y2="206.629" gradientUnits="userSpaceOnUse">
<stop stop-color="#E8E8E8"/>
<stop offset="1" stop-color="#727272"/>
</linearGradient>
<linearGradient id="paint46_linear" x1="247.605" y1="169.526" x2="247.605" y2="188.724" gradientUnits="userSpaceOnUse">
<stop stop-color="#E8E8E8"/>
<stop offset="1" stop-color="#727272"/>
</linearGradient>
<linearGradient id="paint47_linear" x1="255.973" y1="179.37" x2="255.973" y2="208.906" gradientUnits="userSpaceOnUse">
<stop stop-color="#E8E8E8"/>
<stop offset="1" stop-color="#727272"/>
</linearGradient>
<linearGradient id="paint48_linear" x1="239.239" y1="178.385" x2="239.239" y2="208.906" gradientUnits="userSpaceOnUse">
<stop stop-color="#E8E8E8"/>
<stop offset="1" stop-color="#727272"/>
</linearGradient>
<linearGradient id="paint49_linear" x1="217.24" y1="187.745" x2="217.24" y2="206.944" gradientUnits="userSpaceOnUse">
<stop stop-color="#E8E8E8"/>
<stop offset="1" stop-color="#727272"/>
</linearGradient>
<linearGradient id="paint50_linear" x1="225.607" y1="197.589" x2="225.607" y2="227.125" gradientUnits="userSpaceOnUse">
<stop stop-color="#E8E8E8"/>
<stop offset="1" stop-color="#727272"/>
</linearGradient>
<linearGradient id="paint51_linear" x1="208.873" y1="197.097" x2="208.873" y2="227.125" gradientUnits="userSpaceOnUse">
<stop stop-color="#E8E8E8"/>
<stop offset="1" stop-color="#727272"/>
</linearGradient>
</defs>
</svg>
