<svg width="687" height="501" viewBox="0 0 687 501" fill="none" xmlns="http://www.w3.org/2000/svg">
<g opacity="0.6">
<path d="M318.888 441.168L344.176 426.717L368.02 439.723L343.454 454.896L318.888 441.168Z" fill="url(#paint0_linear)"/>
<path d="M318.888 441.168V470.069L343.454 484.519V454.896L318.888 441.168Z" fill="url(#paint1_linear)"/>
<path d="M343.454 454.896L368.019 439.723V469.49L343.454 484.519V454.896Z" fill="url(#paint2_linear)"/>
</g>
<g opacity="0.8">
<path d="M318.888 398.79L344.176 384.339L368.02 397.344L343.454 412.517L318.888 398.79Z" fill="url(#paint3_linear)"/>
<path d="M318.888 398.79V427.69L343.454 442.141V412.517L318.888 398.79Z" fill="url(#paint4_linear)"/>
<path d="M343.454 412.517L368.019 397.344V427.112L343.454 442.141V412.517Z" fill="url(#paint5_linear)"/>
</g>
<path fill-rule="evenodd" clip-rule="evenodd" d="M151.919 307.554L151.919 287.475C151.919 287.475 343.027 201.689 344.454 202.504L534.647 289.406V307.995C534.647 307.995 534.647 309.848 532.794 310.775L345.984 418.507C344.556 419.323 342.313 419.323 340.885 418.507L153.04 310.308C151.613 309.492 151.919 307.554 151.919 307.554Z" fill="#DBDDDE"/>
<path fill-rule="evenodd" clip-rule="evenodd" d="M152.818 286.162L341.081 179.268C342.509 178.452 344.752 178.452 346.18 179.268L533.696 288.015C535.124 288.831 535.124 290.157 533.696 290.973L347.811 397.809C346.384 398.624 344.14 398.624 342.713 397.809L152.92 289.119C151.492 288.303 151.39 286.978 152.818 286.162Z" fill="#F3F3F3"/>
<path fill-rule="evenodd" clip-rule="evenodd" d="M255.198 285.424L341.623 235.701C342.267 235.313 343.297 235.313 344.07 235.701L431.01 285.812C431.654 286.199 431.654 286.845 431.01 287.233L344.714 336.827C344.07 337.215 343.04 337.215 342.267 336.827L255.198 286.716C254.554 286.329 254.554 285.812 255.198 285.424Z" fill="#DBDDDE"/>
<path fill-rule="evenodd" clip-rule="evenodd" d="M272.098 295.477L341.91 256.21C342.486 255.922 343.493 255.922 344.069 256.21L415.32 295.189C415.896 295.477 415.896 296.052 415.32 296.484L344.789 336.902C344.213 337.19 343.206 337.19 342.63 336.902L272.098 296.772C271.523 296.34 271.523 295.765 272.098 295.477Z" fill="#F9F9FE"/>
<path d="M392.958 185.24L421.673 168.831L448.747 183.599L420.852 200.828L392.958 185.24Z" fill="white"/>
<path d="M392.958 185.24V241.028L420.852 257.437V200.828L392.958 185.24Z" fill="#F7F7F7"/>
<path d="M420.852 200.828L448.746 183.599V240.372L420.852 257.437V200.828Z" fill="#E9E9EB"/>
<path fill-rule="evenodd" clip-rule="evenodd" d="M405.779 200.399C407.741 199.81 410.194 201.38 411.274 204.03C412.353 206.679 411.568 209.231 409.606 209.917C407.643 210.506 405.19 208.936 404.11 206.287C403.031 203.637 403.816 201.086 405.779 200.399Z" fill="#17CE8A"/>
<path fill-rule="evenodd" clip-rule="evenodd" d="M406.765 200.398C408.138 200.398 411.569 204.006 411.569 207.261C411.569 207.726 409.51 210.006 409.51 210.006L363.342 254.148C363.342 254.148 345.273 255.078 334.198 235.548C325.222 219.738 331.983 204.857 336.53 205.322L404.706 201.085C404.706 201.085 405.393 200.398 406.765 200.398Z" fill="url(#paint6_linear)"/>
<g opacity="0.9">
<path d="M318.888 304.347L344.176 289.896L368.02 302.902L343.454 318.075L318.888 304.347Z" fill="url(#paint7_linear)"/>
<path d="M318.888 304.347V323.561L343.454 338.012V318.075L318.888 304.347Z" fill="url(#paint8_linear)"/>
<path d="M343.454 318.075L368.019 302.902V322.983L343.454 338.012V318.075Z" fill="url(#paint9_linear)"/>
</g>
<path d="M318.888 261.969L344.176 247.518L368.02 260.524L343.454 275.696L318.888 261.969Z" fill="url(#paint10_linear)"/>
<path d="M318.888 261.969V290.869L343.454 305.32V275.697L318.888 261.969Z" fill="url(#paint11_linear)"/>
<path d="M343.454 275.696L368.019 260.524V290.291L343.454 305.32V275.696Z" fill="url(#paint12_linear)"/>
<path d="M318.907 215.958L344.195 201.508L368.039 214.513L343.473 229.686L318.907 215.958Z" fill="#F67C7C"/>
<path d="M318.907 215.958V244.859L343.473 259.309V229.686L318.907 215.958Z" fill="#DE2424"/>
<path d="M343.473 229.686L368.039 214.513V244.281L343.473 259.309V229.686Z" fill="#F32626"/>
<path d="M318.888 171.158L344.176 156.708L368.02 169.713L343.454 184.886L318.888 171.158Z" fill="#42E7AA"/>
<path d="M318.888 171.158V200.059L343.454 214.509V184.886L318.888 171.158Z" fill="#16A568"/>
<path d="M343.454 184.886L368.019 169.713V199.481L343.454 214.509V184.886Z" fill="#17CE8A"/>
<path d="M318.888 122.726L344.176 108.276L368.02 121.281L343.454 136.454L318.888 122.726Z" fill="#FFEE50"/>
<path d="M318.888 122.726V151.627L343.454 166.077V136.454L318.888 122.726Z" fill="#CCBA11"/>
<path d="M343.454 136.454L368.019 121.281V151.049L343.454 166.077V136.454Z" fill="#FFD215"/>
<path d="M318.888 73.0831L344.176 58.6327L368.02 71.6381L343.454 86.811L318.888 73.0831Z" fill="#06AFFF"/>
<path d="M318.888 73.0831V101.984L343.454 116.434V86.8109L318.888 73.0831Z" fill="#2F80ED"/>
<path d="M343.454 86.811L368.019 71.6381V101.406L343.454 116.434V86.811Z" fill="#3C8AFE"/>
<defs>
<linearGradient id="paint0_linear" x1="343.455" y1="426.717" x2="343.455" y2="454.9" gradientUnits="userSpaceOnUse">
<stop stop-color="#E8E8E8"/>
<stop offset="1" stop-color="#727272"/>
</linearGradient>
<linearGradient id="paint1_linear" x1="331.172" y1="441.168" x2="331.172" y2="484.525" gradientUnits="userSpaceOnUse">
<stop stop-color="#E8E8E8"/>
<stop offset="1" stop-color="#727272"/>
</linearGradient>
<linearGradient id="paint2_linear" x1="355.737" y1="439.723" x2="355.737" y2="484.526" gradientUnits="userSpaceOnUse">
<stop stop-color="#E8E8E8"/>
<stop offset="1" stop-color="#727272"/>
</linearGradient>
<linearGradient id="paint3_linear" x1="343.455" y1="384.339" x2="343.455" y2="412.522" gradientUnits="userSpaceOnUse">
<stop stop-color="#E8E8E8"/>
<stop offset="1" stop-color="#727272"/>
</linearGradient>
<linearGradient id="paint4_linear" x1="331.172" y1="398.79" x2="331.172" y2="442.147" gradientUnits="userSpaceOnUse">
<stop stop-color="#E8E8E8"/>
<stop offset="1" stop-color="#727272"/>
</linearGradient>
<linearGradient id="paint5_linear" x1="355.737" y1="397.344" x2="355.737" y2="442.147" gradientUnits="userSpaceOnUse">
<stop stop-color="#E8E8E8"/>
<stop offset="1" stop-color="#727272"/>
</linearGradient>
<linearGradient id="paint6_linear" x1="412.077" y1="200.007" x2="344.542" y2="234.452" gradientUnits="userSpaceOnUse">
<stop stop-color="#17CE8A" stop-opacity="0.46"/>
<stop offset="1" stop-color="#17CE8A" stop-opacity="0"/>
</linearGradient>
<linearGradient id="paint7_linear" x1="343.455" y1="289.896" x2="343.455" y2="318.079" gradientUnits="userSpaceOnUse">
<stop stop-color="#E8E8E8"/>
<stop offset="1" stop-color="#727272"/>
</linearGradient>
<linearGradient id="paint8_linear" x1="331.172" y1="304.347" x2="331.172" y2="338.017" gradientUnits="userSpaceOnUse">
<stop stop-color="#E8E8E8"/>
<stop offset="1" stop-color="#727272"/>
</linearGradient>
<linearGradient id="paint9_linear" x1="355.737" y1="302.902" x2="355.737" y2="338.017" gradientUnits="userSpaceOnUse">
<stop stop-color="#E8E8E8"/>
<stop offset="1" stop-color="#727272"/>
</linearGradient>
<linearGradient id="paint10_linear" x1="343.455" y1="247.518" x2="343.455" y2="275.701" gradientUnits="userSpaceOnUse">
<stop stop-color="#E8E8E8"/>
<stop offset="1" stop-color="#727272"/>
</linearGradient>
<linearGradient id="paint11_linear" x1="331.172" y1="261.969" x2="331.172" y2="305.326" gradientUnits="userSpaceOnUse">
<stop stop-color="#E8E8E8"/>
<stop offset="1" stop-color="#727272"/>
</linearGradient>
<linearGradient id="paint12_linear" x1="355.737" y1="260.524" x2="355.737" y2="305.327" gradientUnits="userSpaceOnUse">
<stop stop-color="#E8E8E8"/>
<stop offset="1" stop-color="#727272"/>
</linearGradient>
</defs>
</svg>
