<svg width="41" height="49" viewBox="0 0 41 49" fill="none" xmlns="http://www.w3.org/2000/svg">
<path d="M39.7181 11.998C39.1542 11.152 38.0265 10.87 37.0868 11.434L19.9831 22.62C16.1301 22.338 13.2169 19.33 13.2169 15.382C13.2169 11.34 16.4121 8.144 20.453 8.144C23.3663 8.144 25.9036 9.836 27.1253 12.562C27.4072 13.314 28.159 13.69 28.8169 13.69C29.0988 13.69 29.2868 13.596 29.5687 13.502C30.5084 13.126 30.9783 11.998 30.5084 11.058C29.0988 7.58 25.9036 5.23 22.3325 4.572V2.88C22.3325 1.846 21.4868 1 20.453 1C19.4193 1 18.5735 1.846 18.5735 2.88V4.572C13.4048 5.512 9.45784 9.93 9.45784 15.382C9.45784 19.8 12.0892 23.56 15.7542 25.346L1.84579 34.37C1.00001 34.934 0.718082 36.062 1.28194 37.002C1.65784 37.566 2.2217 37.848 2.87953 37.848C3.25543 37.848 3.63134 37.754 3.91326 37.566L21.0169 26.38C24.7759 26.662 27.6892 29.764 27.6892 33.618C27.6892 37.66 24.494 40.856 20.453 40.856C17.5398 40.856 15.0024 39.164 13.7807 36.438C13.4048 35.498 12.2771 35.028 11.3374 35.498C10.3976 35.874 9.92772 37.002 10.3036 37.942C11.8072 41.42 14.9084 43.864 18.4795 44.428V46.12C18.4795 47.154 19.3253 48 20.359 48C21.3928 48 22.2386 47.154 22.2386 46.12V44.428C27.4072 43.488 31.3542 39.07 31.3542 33.618C31.4482 29.2 28.9109 25.44 25.1518 23.654L39.1542 14.536C40 14.066 40.2819 12.844 39.7181 11.998Z" fill="url(#paint0_linear)" stroke="url(#paint1_linear)" stroke-width="0.5"/>
<defs>
<linearGradient id="paint0_linear" x1="20.5009" y1="1" x2="20.5009" y2="48.0071" gradientUnits="userSpaceOnUse">
<stop stop-color="#E8E8E8"/>
<stop offset="1" stop-color="#727272"/>
</linearGradient>
<linearGradient id="paint1_linear" x1="20.5009" y1="1" x2="20.5009" y2="48.0071" gradientUnits="userSpaceOnUse">
<stop stop-color="#E8E8E8"/>
<stop offset="1" stop-color="#727272"/>
</linearGradient>
</defs>
</svg>
