<?xml version="1.0" encoding="iso-8859-1"?>
<!-- Generator: Adobe Illustrator 20.0.0, SVG Export Plug-In . SVG Version: 6.00 Build 0)  -->
<svg xmlns="http://www.w3.org/2000/svg" xmlns:xlink="http://www.w3.org/1999/xlink" version="1.1" x="0px" y="0px" viewBox="0 0 24 24" style="enable-background:new 0 0 24 24;" xml:space="preserve" width="18px" height="18px">
<path d="M20.155,8.343C20.44,7.487,20.763,5.871,19.963,4c-2.388,0-4.378,1.84-4.449,1.906c-1.114-0.245-2.3-0.362-3.511-0.362  c-1.237,0-2.448,0.152-3.583,0.434C6.822,4.388,4.89,4,4.067,4c0,0-0.529,0.933-0.529,2.509c0,1.047,0.237,1.599,0.409,1.882  c-1.204,1.254-1.948,2.956-1.948,5.139c0,5.592,3.532,7.455,10.004,7.455c6.472,0,10.004-1.863,10.004-7.455  C22.007,11.27,21.304,9.574,20.155,8.343z M11.883,20c-3.807,0-6.899-0.712-6.899-4.497c0-1.444,0.738-2.26,1.269-2.769  c1.167-1.119,3.014-0.568,5.631-0.568c1.189,0,2.335-0.155,3.338-0.166c0.602-0.006,1.158,0.047,1.647,0.213  c1.304,0.442,2.137,1.717,2.137,3.148C19.004,19.325,17.005,20,11.883,20z"/>
<ellipse cx="15.999" cy="15.5" rx="1" ry="1.5"/>
<ellipse cx="7.999" cy="15.5" rx="1" ry="1.5"/>
</svg>
