<svg width="39" height="39" viewBox="0 0 39 39" fill="none" xmlns="http://www.w3.org/2000/svg">
<path d="M20.585 9.09859L19.3911 16.3034L24.4962 16.5092H24.6609C25.0726 16.5915 25.4431 16.8386 25.649 17.2091C25.8548 17.5796 25.8548 18.0325 25.649 18.403L19.2676 30.6717C19.0206 31.1658 18.4442 31.3304 17.9502 31.1246C17.5385 30.8776 17.3326 30.4659 17.4149 30.0542L18.6089 22.8082L13.5038 22.5612H13.3391C12.9274 22.4789 12.5569 22.2318 12.3922 21.8613C12.1863 21.4908 12.1863 21.0379 12.3922 20.6674L18.7736 8.48104C19.0206 7.987 19.6381 7.82232 20.1322 8.06934C20.4615 8.27519 20.6674 8.68689 20.585 9.09859ZM19.0206 0C17.9502 0 17.0444 0.864572 17.0444 1.97616C17.0444 3.08776 17.909 3.95233 19.0206 3.95233C27.3369 3.95233 34.0888 10.7042 34.0888 19.0206C34.0888 20.091 34.9534 20.9967 36.065 20.9967C37.1766 20.9967 38.0412 20.1322 38.0412 19.0206C38 8.52221 29.4778 0 19.0206 0ZM17.0032 36.065C17.0032 37.1354 17.8678 38.0412 18.9382 38.0412C20.0087 38.0412 20.9144 37.1766 20.9144 36.065C20.9144 34.9534 20.0498 34.0888 18.9382 34.0888C17.909 34.0888 17.0032 34.9534 17.0032 36.065ZM1.97616 20.9556C3.04659 20.9556 3.95233 20.091 3.95233 18.9794C3.95233 17.8678 3.08776 17.0032 1.97616 17.0032C0.864572 17.0032 0 17.909 0 18.9794C0 20.091 0.864572 20.9556 1.97616 20.9556ZM9.46912 35.4474C10.416 35.9827 11.61 35.6533 12.1452 34.7476C12.6804 33.8418 12.351 32.6067 11.4453 32.0715C10.4984 31.5363 9.30444 31.8657 8.76923 32.7714C8.23402 33.7183 8.56338 34.9122 9.46912 35.4474ZM8.8104 5.2286C9.34561 6.17551 10.5395 6.4637 11.4865 5.92849C12.4334 5.39328 12.7216 4.19935 12.1863 3.25244C11.6511 2.30553 10.4572 2.01733 9.51029 2.55255C8.56338 3.08776 8.23402 4.28169 8.8104 5.2286C8.76923 5.2286 8.76923 5.2286 8.8104 5.2286ZM3.25244 25.8136C2.30553 26.3489 1.97616 27.5428 2.51138 28.4897C3.04659 29.4366 4.24052 29.766 5.18743 29.2308C6.13434 28.6956 6.4637 27.5016 5.92849 26.5547C5.39328 25.6078 4.19935 25.2784 3.25244 25.8136ZM33.7595 29.519C34.8299 29.519 35.7356 28.6544 35.7356 27.584C35.7356 26.5135 34.8711 25.6078 33.8006 25.6078C32.7302 25.6078 31.8245 26.4724 31.8245 27.5428C31.8245 28.2427 32.195 28.9014 32.8126 29.2308C33.0596 29.4366 33.3889 29.519 33.7595 29.519ZM5.2286 8.76923C4.28169 8.23402 3.08776 8.56338 2.55255 9.46912C2.01733 10.3749 2.3467 11.61 3.25244 12.1452C4.19935 12.6804 5.39328 12.351 5.92849 11.4453C6.50487 10.5395 6.17551 9.30444 5.2286 8.76923ZM25.8136 34.7476C26.143 35.3651 26.8017 35.7356 27.5016 35.7356C27.831 35.7356 28.1603 35.6533 28.4485 35.4474C29.3954 34.9122 29.7248 33.7183 29.1896 32.7714C28.6544 31.8245 27.4605 31.4951 26.5135 32.0303C25.5666 32.5655 25.2373 33.8006 25.8136 34.7476Z" fill="url(#paint0_linear)"/>
<defs>
<linearGradient id="paint0_linear" x1="19" y1="0.00674788" x2="19" y2="38.0445" gradientUnits="userSpaceOnUse">
<stop stop-color="#FFCB6A"/>
<stop offset="1" stop-color="#957437"/>
</linearGradient>
</defs>
</svg>
