<svg width="16" height="16" viewBox="0 0 16 16" fill="none" xmlns="http://www.w3.org/2000/svg">
<path d="M10.5 13.5C10.5 13.2 10.3 13 10 13C10.3 13 10.5 12.8 10.5 12.5C10.5 12.2 10.3 12 10 12H6C5.7 12 5.5 12.2 5.5 12.5C5.5 12.8 5.7 13 6 13C5.7 13 5.5 13.2 5.5 13.5C5.5 13.8 5.7 14 6 14C5.7 14 5.5 14.2 5.5 14.5C5.5 14.8 5.7 15 6 15H6.6C6.8 15.6 7.35 16 8 16C8.65 16 9.2 15.6 9.4 15H10C10.3 15 10.5 14.8 10.5 14.5C10.5 14.2 10.3 14 10 14C10.3 14 10.5 13.8 10.5 13.5Z" fill="#DBDDDE"/>
<path d="M8 0C4.95 0 2.5 2.5 2.5 5.5C2.5 7.5 4 9.5 5.5 11.5C6.5 11.5 9.5 11.5 10.5 11.5C12 9.5 13.5 7.5 13.5 5.5C13.5 2.5 11.05 0 8 0Z" fill="#FFCA6A"/>
<g opacity="0.1">
<path opacity="0.1" d="M6 13H10C10.3 13 10.5 12.8 10.5 12.5H5.5C5.5 12.8 5.7 13 6 13Z" fill="black"/>
<path opacity="0.1" d="M6 14H10C10.3 14 10.5 13.8 10.5 13.5H5.5C5.5 13.8 5.7 14 6 14Z" fill="black"/>
<path opacity="0.1" d="M6 15H10C10.3 15 10.5 14.8 10.5 14.5H5.5C5.5 14.8 5.7 15 6 15Z" fill="black"/>
</g>
<path d="M1.5 5H0.5C0.2 5 0 5.2 0 5.5C0 5.8 0.2 6 0.5 6H1.5C1.8 6 2 5.8 2 5.5C2 5.2 1.8 5 1.5 5Z" fill="#FFCA6A"/>
<path d="M2.84998 9.50012L2.09998 10.1501C1.89998 10.3501 1.89998 10.6501 2.04998 10.8501C2.24998 11.0501 2.54998 11.0501 2.74998 10.9001L3.49998 10.2501C3.69998 10.0501 3.69998 9.75012 3.54998 9.55012C3.34998 9.35012 3.04998 9.30012 2.84998 9.50012Z" fill="#FFCA6A"/>
<path d="M15.5 5H14.5C14.2 5 14 5.2 14 5.5C14 5.8 14.2 6 14.5 6H15.5C15.8 6 16 5.8 16 5.5C16 5.2 15.8 5 15.5 5Z" fill="#FFCA6A"/>
<path d="M13.15 9.50012C12.95 9.30012 12.65 9.35012 12.45 9.55012C12.25 9.75012 12.3 10.0501 12.5 10.2501L13.25 10.9001C13.45 11.1001 13.75 11.0501 13.95 10.8501C14.15 10.6501 14.1 10.3501 13.9 10.1501L13.15 9.50012Z" fill="#FFCA6A"/>
<path d="M13.1501 1.55013L13.9001 0.900135C14.1001 0.700135 14.1001 0.400135 13.9501 0.200135C13.7501 0.000134826 13.4501 0.000134826 13.2501 0.150135L12.5001 0.800135C12.3001 1.00013 12.3001 1.30013 12.4501 1.50013C12.6501 1.70013 12.9501 1.75013 13.1501 1.55013Z" fill="#FFCA6A"/>
<path d="M2.84996 1.55002C3.04996 1.75002 3.34996 1.70002 3.54996 1.50002C3.74996 1.30002 3.69996 1.00002 3.49996 0.800025L2.74996 0.150025C2.54996 -0.049975 2.24996 2.49594e-05 2.04996 0.200025C1.84996 0.400025 1.89996 0.700025 2.09996 0.900025L2.84996 1.55002Z" fill="#FFCA6A"/>
</svg>
