<svg width="123" height="24" viewBox="0 0 123 24" fill="none" xmlns="http://www.w3.org/2000/svg">
<path fill-rule="evenodd" clip-rule="evenodd" d="M32 6H33.8359L39.6328 15.2969V6H41.1094V17.4766H39.3672L33.4844 8.1875V17.4766H32V6ZM46.9031 6H55.2703V7.40625H48.4188V10.8906H54.7547V12.2188H48.4188V16.1094H55.3875V17.4766H46.9031V6ZM68.9781 7.36719V6H59.6656V7.36719H63.5328V17.4766H65.111V7.36719H68.9781ZM78.0062 16.1484C78.5323 16.1484 78.9646 16.0938 79.3031 15.9844C79.9073 15.7812 80.4021 15.3906 80.7875 14.8125C81.0948 14.349 81.3161 13.7552 81.4515 13.0312C81.5297 12.599 81.5687 12.1979 81.5687 11.8281C81.5687 10.4062 81.2862 9.30209 80.7211 8.51562C80.156 7.72916 79.2458 7.33594 77.9906 7.33594H75.2328V16.1484H78.0062ZM73.6703 6H78.3187C79.8969 6 81.1208 6.55989 81.9906 7.67969C82.7666 8.69011 83.1547 9.98437 83.1547 11.5625C83.1547 12.7813 82.9255 13.8828 82.4672 14.8672C81.6599 16.6068 80.2719 17.4766 78.3031 17.4766H73.6703V6ZM92.5031 7.70312L94.2453 12.7734H90.6515L92.5031 7.70312ZM93.4484 6H91.6906L87.3703 17.4766H88.964L90.2062 14.0391H94.7453L95.9094 17.4766H97.6125L93.4484 6ZM109.398 6V7.36719H105.531V17.4766H103.953V7.36719H100.086V6H109.398ZM116.989 7.70312L118.731 12.7734H115.138L116.989 7.70312ZM117.934 6H116.177L111.856 17.4766H113.45L114.692 14.0391H119.231L120.395 17.4766H122.098L117.934 6Z" fill="#42B861"/>
<path fill-rule="evenodd" clip-rule="evenodd" d="M14.7631 22H9.9217L0 3H14.0836C19.5599 3.00998 23.9971 7.41293 24 12.8446C23.9912 17.9064 19.86 22 14.7631 22Z" fill="#42B861"/>
</svg>
