<svg width="272" height="51" viewBox="0 0 272 51" fill="none" xmlns="http://www.w3.org/2000/svg">
<path fill-rule="evenodd" clip-rule="evenodd" d="M31.3716 46.75H21.0836L0 6.375H29.9276C41.5648 6.39622 50.9938 15.7525 51 27.2947C50.9813 38.051 42.2025 46.75 31.3716 46.75Z" fill="white"/>
<path d="M78.625 12.75H82.5264L94.8447 32.5059V12.75H97.9824V37.1377H94.2803L81.7793 17.3984V37.1377H78.625V12.75Z" fill="white"/>
<path d="M110.295 12.75H128.075V15.7383H113.516V23.1426H126.979V25.9648H113.516V34.2324H128.324V37.1377H110.295V12.75Z" fill="white"/>
<path d="M157.203 12.75V15.6553H148.985V37.1377H145.632V15.6553H137.414V12.75H157.203Z" fill="white"/>
<path fill-rule="evenodd" clip-rule="evenodd" d="M177.052 12.75H167.174V37.1377H177.019C181.202 37.1377 184.152 35.2894 185.867 31.5928C186.841 29.501 187.328 27.1602 187.328 24.5703C187.328 21.2168 186.504 18.4665 184.854 16.3193C183.006 13.9398 180.405 12.75 177.052 12.75ZM179.144 33.9668C178.424 34.1992 177.506 34.3154 176.388 34.3154H170.494V15.5889H176.354C179.022 15.5889 180.956 16.4245 182.157 18.0957C183.358 19.7669 183.958 22.1133 183.958 25.1348C183.958 25.9206 183.875 26.7728 183.709 27.6914C183.421 29.2298 182.951 30.4915 182.298 31.4766C181.479 32.7051 180.427 33.5352 179.144 33.9668Z" fill="white"/>
<path fill-rule="evenodd" clip-rule="evenodd" d="M209.203 12.75H205.468L196.287 37.1377H199.674L202.313 29.833H211.959L214.433 37.1377H218.052L209.203 12.75ZM207.194 16.3691L210.896 27.1436H203.26L207.194 16.3691Z" fill="white"/>
<path d="M243.098 12.75V15.6553H234.88V37.1377H231.526V15.6553H223.309V12.75H243.098Z" fill="white"/>
<path fill-rule="evenodd" clip-rule="evenodd" d="M261.236 12.75H257.501L248.32 37.1377H251.707L254.347 29.833H263.992L266.466 37.1377H270.085L261.236 12.75ZM259.228 16.3691L262.93 27.1436H255.293L259.228 16.3691Z" fill="white"/>
</svg>