<svg width="338" height="338" viewBox="0 0 338 338" fill="none" xmlns="http://www.w3.org/2000/svg">
<path d="M169 338C262.336 338 338 262.336 338 169C338 75.6639 262.336 0 169 0C75.6639 0 0 75.6639 0 169C0 262.336 75.6639 338 169 338Z" fill="#BFD3DE" fill-opacity="0.3"/>
<path d="M169 319C251.843 319 319 251.843 319 169C319 86.1573 251.843 19 169 19C86.1573 19 19 86.1573 19 169C19 251.843 86.1573 319 169 319Z" fill="#BFD3DE"/>
<path d="M319 169C319.009 202.127 308.053 234.324 287.839 260.569C267.626 286.814 239.294 305.63 207.263 314.08C175.232 322.53 141.305 320.139 110.776 307.281C80.2471 294.423 54.8331 271.82 38.5 243C36.9 240.2 35.4 237.4 34 234.5C24.1272 214.076 18.9991 191.685 18.9991 169C18.9991 146.315 24.1272 123.924 34 103.5C41.7738 87.6585 52.2277 73.2801 64.9 61C86.091 40.5736 112.823 26.8328 141.767 21.4891C170.711 16.1455 200.587 19.435 227.675 30.9481C254.762 42.4612 277.864 61.689 294.103 86.2367C310.342 110.784 319.001 139.567 319 169Z" fill="#BFD3DE"/>
<path opacity="0.2" d="M319 169C319.039 194.942 312.319 220.446 299.5 243H34V61H273.1C287.635 74.9788 299.194 91.752 307.082 110.312C314.969 128.871 319.023 148.834 319 169Z" fill="#2E6699"/>
<path d="M319 169C319.026 190.388 314.456 211.532 305.6 231C305.2 232 304.7 233 304.2 234H16V52H262.9L266.5 55C283.123 69.2146 296.435 86.8948 305.5 106.8L306 107.7C307.6 111.4 309.1 115.2 310.5 119L310.8 119.9C313.068 126.466 314.872 133.182 316.2 140C316.6 142 316.9 144 317.2 146C318.407 153.607 319.009 161.298 319 169Z" fill="#F2F5F7"/>
<path d="M169 55H19V140H169V55Z" fill="white"/>
<path d="M163 134V61L25 61V134H163Z" fill="white"/>
<path d="M72.5 68C74.433 68 76 66.433 76 64.5C76 62.567 74.433 61 72.5 61H28.5C26.567 61 25 62.567 25 64.5C25 66.433 26.567 68 28.5 68H72.5Z" fill="#F1F2F3"/>
<path d="M229.5 68C231.433 68 233 66.433 233 64.5C233 62.567 231.433 61 229.5 61H185.5C183.567 61 182 62.567 182 64.5C182 66.433 183.567 68 185.5 68H229.5Z" fill="#F1F2F3"/>
<path d="M117 146H19V231H117V146Z" fill="white"/>
<path d="M111 225V152H25V225H111Z" fill="white"/>
<path d="M30 225V215H25V225H30Z" fill="#42B0A8"/>
<path d="M35 225V216H30V225H35Z" fill="#52D9CF"/>
<path d="M49 225V187H44V225H49Z" fill="#42B0A8"/>
<path d="M54 225V191H49V225H54Z" fill="#52D9CF"/>
<path d="M68 225V165H63V225H68Z" fill="#42B0A8"/>
<path d="M73 225V178H68V225H73Z" fill="#52D9CF"/>
<path d="M87 225V176H82V225H87Z" fill="#42B0A8"/>
<path d="M92 225V205H87V225H92Z" fill="#52D9CF"/>
<path d="M106 225V210H101V225H106Z" fill="#42B0A8"/>
<path d="M111 225V211H106V225H111Z" fill="#52D9CF"/>
<path d="M221 146H123V231H221V146Z" fill="white"/>
<path d="M215 225V152H129V225H215Z" fill="white"/>
<path d="M168.5 159C170.433 159 172 157.433 172 155.5C172 153.567 170.433 152 168.5 152H132.5C130.567 152 129 153.567 129 155.5C129 157.433 130.567 159 132.5 159H168.5Z" fill="#F1F2F3"/>
<path d="M64.5 159C66.433 159 68 157.433 68 155.5C68 153.567 66.433 152 64.5 152H28.5C26.567 152 25 153.567 25 155.5C25 157.433 26.567 159 28.5 159H64.5Z" fill="#F1F2F3"/>
<path d="M316.2 140H175V55H266.5C283.123 69.2146 296.435 86.8948 305.5 106.8L306 107.7C307.6 111.4 309.1 115.2 310.5 119L310.8 119.9C313.068 126.466 314.872 133.182 316.2 140Z" fill="white"/>
<path d="M319 169C319.026 190.388 314.456 211.532 305.6 231H227V146H317.2C318.407 153.607 319.009 161.298 319 169Z" fill="white"/>
<path d="M162 71L158 69L155 70C154.569 71.6456 154.235 73.3151 154 75C154 76 151 80 151 80C151 80 148 86 148 88C147.95 88.6291 147.74 89.235 147.39 89.7601C147.04 90.2852 146.562 90.712 146 91L137 96L129 100L124 103H119L115 99L110 95L98 91H94L91 96L85 100L81 103L75 105L65 101L60 100L57 103H52L50 109L46 114L40 122L33 127L27 122L25 124.5V134H163V71.3L162 71Z" fill="#FFC300"/>
<path d="M162 72L158 70L155 71C154.569 72.6456 154.235 74.3151 154 76C154 77 151 81 151 81C151 81 148 87 148 89C147.95 89.6291 147.74 90.235 147.39 90.7601C147.04 91.2852 146.562 91.712 146 92L137 97L129 101L124 104H119L115 100L110 96L98 92H94L91 97L85 101L81 104L75 106L65 102L60 101L57 104H52L50 110L46 115L40 123L33 128L27 123L25 125.5V134H163V72.3L162 72Z" fill="#FFF3CC"/>
<path d="M213 184L210 186L207 184L205 183L202 178L200 182L198 184L196 183L194 186C193.546 187.3 193.211 188.639 193 190C192.765 191.685 192.431 193.354 192 195L190 198L185 199H182L178 203L176 204H173L168 203H165L162 205L158 209H155L153 208L147 214L145 217L141 218H138L135 221L133 222L131 220L129 218.7V224H215V176L213 184Z" fill="#DCDDDE"/>
<path d="M213 185L210 187L207 185L205 184L202 179L200 183L198 185L196 184L194 187C193.546 188.3 193.211 189.639 193 191C192.765 192.685 192.431 194.354 192 196L190 199L185 200H182L178 204L176 205H173L168 204H165L162 206L158 210H155L153 209L147 215L145 218L141 219H138L135 222L133 223L131 221L129 219.7V225H215V177L213 185Z" fill="#F1F2F3"/>
<path d="M276 222C291.464 222 304 209.464 304 194C304 178.536 291.464 166 276 166C260.536 166 248 178.536 248 194C248 209.464 260.536 222 276 222Z" fill="#526573"/>
<path d="M276 194V166C270.462 166 265.049 167.642 260.444 170.719C255.839 173.796 252.251 178.169 250.131 183.285C248.012 188.401 247.458 194.031 248.538 199.463C249.618 204.894 252.285 209.883 256.201 213.799C260.117 217.715 265.106 220.382 270.537 221.462C275.969 222.542 281.599 221.988 286.715 219.869C291.831 217.749 296.204 214.161 299.281 209.556C302.358 204.951 304 199.538 304 194V192.4L276 194Z" fill="#52D9CF"/>
<path d="M276 194V166C271.186 166.004 266.455 167.248 262.263 169.614C258.07 171.979 254.558 175.386 252.066 179.504C249.574 183.622 248.186 188.314 248.035 193.125C247.885 197.936 248.977 202.705 251.207 206.971C253.437 211.237 256.73 214.856 260.766 217.479C264.802 220.102 269.447 221.639 274.251 221.944C279.055 222.248 283.856 221.309 288.191 219.217C292.527 217.125 296.249 213.95 299 210L276 194Z" fill="#F26565"/>
<path d="M276 194V166C269.764 166.019 263.713 168.12 258.807 171.969C253.9 175.817 250.418 181.194 248.914 187.245C247.41 193.297 247.969 199.678 250.502 205.376C253.036 211.074 257.399 215.763 262.9 218.7L276 194Z" fill="#FAE26B"/>
<path d="M276 194V166C268.582 166.026 261.475 168.985 256.23 174.23C250.985 179.475 248.026 186.582 248 194C247.977 197.714 248.726 201.391 250.2 204.8L276 194Z" fill="#F1F2F3"/>
<path d="M276 213C286.493 213 295 204.493 295 194C295 183.507 286.493 175 276 175C265.507 175 257 183.507 257 194C257 204.493 265.507 213 276 213Z" fill="white"/>
<path d="M284.5 159C286.433 159 288 157.433 288 155.5C288 153.567 286.433 152 284.5 152H236.5C234.567 152 233 153.567 233 155.5C233 157.433 234.567 159 236.5 159H284.5Z" fill="#F1F2F3"/>
<path d="M306 107.7L304.1 109.5L295.7 107.4L289.8 97.6L287 98.5L285.8 98.9L280.8 100.6L278.2 96.5L277.6 95.5L275.6 92.3L269 86.6L260.3 92.4L253.4 101.3L247.2 108.5L238.8 109.5L232.6 102.3L232.1 101.9L230.9 100.9L226.9 97.6L221.4 100.4L219.9 101.1L219.2 101.5L213 105.6L208.1 101.4L206.5 100.1L205.7 99.4L200 93.7L195.3 97.2L193.6 98.5L192.1 99.5L183.1 97.5L181 99.4V98.1L182.9 96.5L191.9 98.5L194.5 96.5L196.2 95.2L200 92.3L205.7 98L206.4 98.6L207.4 99.5L213 104.4L218.7 100.6L220.6 99.6L222.1 98.9L227.1 96.4L230.5 99.3L231.8 100.3L233.3 101.6L239.2 108.5L246.8 107.5L252.6 100.7L259.7 91.6L269 85.4L276.4 91.7L278.8 95.5L279.4 96.5L281.2 99.4L284.7 98.3L285.9 97.8L290.2 96.4L296.3 106.6L303.9 108.5L305.5 106.8L306 107.7Z" fill="#526573"/>
<path d="M310.8 119.9L304.9 121.5L296.6 115.3L289.6 101.4L285.8 98.9L284.7 98.3L281.9 96.5H275.9L269 92.6L263.4 97.3L257.4 116.3L248.1 126.7L239.6 120.3L232.5 108.1L230.9 100.9L230.5 99.3L227.8 87.5L212.9 117.3L206.5 100.1L205.7 98L201 85.3L196.2 95.2L195.3 97.2L191.2 105.7L183.2 100.7L181 104.5V102.5L182.8 99.3L190.8 104.3L193.6 98.5L194.5 96.5L201 82.7L207.4 99.5L208.1 101.4L213.1 114.8L219.9 101.1L220.6 99.6L228.2 84.5L231.8 100.3L232.1 101.9L233.5 107.8L240.4 119.7L247.9 125.3L256.6 115.8L262.6 96.7L269 91.4L276.1 95.5H282.1L285.9 97.8L287 98.5L290.4 100.6L297.4 114.7L305.1 120.5L310.5 119L310.8 119.9Z" fill="#52D9CF"/>
<path d="M229.5 68C231.433 68 233 66.433 233 64.5C233 62.567 231.433 61 229.5 61H185.5C183.567 61 182 62.567 182 64.5C182 66.433 183.567 68 185.5 68H229.5Z" fill="#F1F2F3"/>
<path opacity="0.05" d="M317.2 146C316.9 144 316.6 142 316.2 140C314.872 133.182 313.068 126.466 310.8 119.9L310.5 119C309.1 115.2 307.6 111.4 306 107.7L305.5 106.8C296.435 86.8948 283.123 69.2146 266.5 55L262.9 52H207C221.19 56.5688 234.412 63.7224 246 73.1L248.9 75.5C262.568 87.1589 273.524 101.664 281 118L281.3 118.8C282.7 121.8 283.9 124.9 285 128L285.3 128.8C287.129 134.163 288.599 139.642 289.7 145.2L290.6 150.1C291.521 156.358 291.989 162.675 292 169C292.038 186.528 288.285 203.857 281 219.8C280.694 220.659 280.326 221.494 279.9 222.3C277.93 226.306 275.761 230.211 273.4 234H304.2C304.7 233 305.2 232 305.6 231C314.456 211.532 319.026 190.388 319 169C319.009 161.298 318.407 153.607 317.2 146Z" fill="#304659"/>
<path opacity="0.02" d="M317.2 146C316.9 144 316.6 142 316.2 140C314.872 133.182 313.068 126.466 310.8 119.9L310.5 119C309.1 115.2 307.6 111.4 306 107.7L305.5 106.8C296.435 86.8948 283.123 69.2146 266.5 55L262.9 52H172V234H304.2C304.7 233 305.2 232 305.6 231C314.456 211.532 319.026 190.388 319 169C319.009 161.298 318.407 153.607 317.2 146Z" fill="#304659"/>
<path d="M233 184C217.144 184.006 201.558 188.109 187.756 195.913C173.953 203.716 162.401 214.955 154.221 228.538C146.041 242.121 141.51 257.588 141.068 273.437C140.627 289.287 144.289 304.982 151.7 319H314.3C321.711 304.982 325.373 289.287 324.932 273.437C324.49 257.588 319.959 242.121 311.779 228.538C303.599 214.955 292.047 203.716 278.245 195.913C264.442 188.109 248.856 184.006 233 184Z" fill="#697784"/>
<path opacity="0.5" d="M233 184V319H314.3C321.711 304.982 325.373 289.287 324.932 273.437C324.49 257.588 319.959 242.121 311.779 228.538C303.599 214.955 292.047 203.716 278.245 195.913C264.442 188.109 248.856 184.006 233 184Z" fill="#304659"/>
<path d="M233 193C219.146 193.003 205.513 196.473 193.344 203.096C181.174 209.718 170.857 219.281 163.331 230.913C155.805 242.544 151.31 255.875 150.257 269.689C149.203 283.503 151.625 297.362 157.3 310H308.7C314.375 297.362 316.797 283.503 315.743 269.689C314.69 255.875 310.195 242.544 302.669 230.913C295.143 219.281 284.826 209.718 272.656 203.096C260.487 196.473 246.854 193.003 233 193Z" fill="white"/>
<path d="M233 207C215.39 206.996 198.444 213.725 185.635 225.81C172.825 237.894 165.121 254.419 164.1 272H164.2L185 274.7C185 261.97 190.057 249.761 199.059 240.759C208.061 231.757 220.27 226.7 233 226.7C245.73 226.7 257.939 231.757 266.941 240.759C275.943 249.761 281 261.97 281 274.7L301.8 272H301.9C300.879 254.419 293.175 237.894 280.365 225.81C267.556 213.725 250.61 206.996 233 207Z" fill="#F1F2F3"/>
<path d="M167.2 255.3C165.497 260.721 164.457 266.329 164.1 272H164.2L185 274.7C185.092 271.121 185.595 267.564 186.5 264.1L167.2 255.3Z" fill="#00AB44"/>
<path d="M229.9 291.8L161.6 253.9C161.479 253.837 161.372 253.751 161.285 253.645C161.199 253.54 161.135 253.418 161.098 253.286C161.06 253.155 161.05 253.018 161.068 252.883C161.085 252.747 161.13 252.617 161.2 252.5C161.323 252.305 161.51 252.159 161.729 252.086C161.947 252.013 162.185 252.018 162.4 252.1L236.1 278.2C237.835 278.961 239.217 280.351 239.97 282.09C240.722 283.829 240.788 285.789 240.155 287.574C239.521 289.36 238.236 290.84 236.556 291.717C234.876 292.593 232.927 292.802 231.1 292.3L229.9 291.8Z" fill="#708899"/>
<path opacity="0.05" d="M233 193V310H308.7C314.375 297.362 316.797 283.503 315.743 269.689C314.69 255.875 310.195 242.544 302.669 230.913C295.143 219.281 284.826 209.718 272.656 203.096C260.487 196.473 246.854 193.003 233 193Z" fill="#304659"/>
</svg>
