<svg width="338" height="338" viewBox="0 0 338 338" fill="none" xmlns="http://www.w3.org/2000/svg">
<path d="M169 338C262.336 338 338 262.336 338 169C338 75.6639 262.336 0 169 0C75.6639 0 0 75.6639 0 169C0 262.336 75.6639 338 169 338Z" fill="#BFD3DE" fill-opacity="0.3"/>
<path d="M319 169V172.3C318.9 173.3 318.9 174.3 318.9 175.3C318.91 175.57 318.876 175.841 318.8 176.1C318.7 178.1 318.6 180 318.4 182C318.416 182.502 318.383 183.005 318.3 183.5C318.3 184 318.2 184.5 318.2 185C318.2 185.5 318.1 185.8 318 186.2C317.988 186.838 317.921 187.474 317.8 188.1C317.7 188.6 317.7 189.2 317.6 189.7C317.515 190.474 317.382 191.243 317.2 192C317.216 192.238 317.182 192.476 317.1 192.7C317.082 193.238 317.015 193.774 316.9 194.3C316.8 195 316.6 195.8 316.5 196.5C316.4 197.2 316.2 198 316 198.8C315.8 199.6 315.7 200.3 315.6 201C315.1 203.4 314.5 205.7 313.9 208L313 211C310.739 218.907 307.795 226.603 304.2 234L302.7 237C301.2 240.1 299.5 243.1 297.8 246C283.951 269.152 264.118 288.143 240.388 300.976C216.658 313.809 189.908 320.009 162.952 318.924C135.996 317.839 109.831 309.51 87.2087 294.812C64.5866 280.113 46.344 259.59 34.4 235.4C34 234.4 33.5 233.5 33.1 232.5C23.83 212.635 19.0177 190.983 19.0004 169.061C18.9832 147.14 23.7614 125.48 33 105.6C37.8706 95.2142 43.9096 85.4176 51 76.4C55.2605 70.9421 59.9056 65.7956 64.9 61C68.2 57.9 71.6 54.8 75.1 52C101.736 30.6414 134.858 19.0017 169 19.0017C203.142 19.0017 236.264 30.6414 262.9 52L266.5 55L268.2 56.5L270.5 58.5L272.4 60.3C272.4 60.3266 272.411 60.352 272.429 60.3708C272.448 60.3895 272.473 60.4 272.5 60.4L273.1 61L274.3 62.2L276.3 64.2C277.6 65.5 278.9 66.9 280.1 68.3L281.2 69.5L282.6 71C284.5 73.3 286.4 75.6 288.2 78L290.5 81L293.4 85.2L294.4 86.6L295.3 88C296.6 90.1 297.9 92.2001 299.1 94.3L299.7 95.3L300.6 97L301.5 98.7C301.871 99.2782 302.205 99.8794 302.5 100.5L303.4 102.2C303.625 102.818 303.892 103.419 304.2 104L305.4 106.5L305.6 107L306.5 109.1C306.774 109.58 307.008 110.082 307.2 110.6C307.476 111.148 307.71 111.717 307.9 112.3C308.1 112.9 308.4 113.4 308.6 114C308.8 114.6 309.8 117 310.3 118.5L311.2 121.2C311.5 122.1 311.9 123.1 312.2 124.1C312.5 125.1 313.4 128 313.9 130C313.9 130.2 314 130.4 314 130.6C314.247 131.388 314.447 132.189 314.6 133C315.267 135.667 315.867 138.367 316.4 141.1C316.4 141.3 316.5 141.4 316.5 141.6C316.5 141.8 316.8 143.1 316.9 143.9C317 144.7 317.2 145.8 317.4 146.8C317.417 147.305 317.484 147.808 317.6 148.3C317.7 148.8 317.7 149.4 317.8 149.9C317.921 150.526 317.988 151.162 318 151.8C318.121 152.426 318.188 153.062 318.2 153.7C318.316 154.462 318.383 155.23 318.4 156C318.48 156.189 318.515 156.395 318.5 156.6C318.5 157.2 318.6 157.9 318.6 158.6V159C318.6 159.8 318.7 160.5 318.7 161.3C318.7 162.1 318.8 162.8 318.8 163.5V164.8C318.883 165.396 318.916 165.998 318.9 166.6L319 169Z" fill="#BFD3DE"/>
<path opacity="0.2" d="M319 169V172.3C318.9 173.3 318.9 174.3 318.9 175.3C318.91 175.57 318.876 175.841 318.8 176.1C318.7 178.1 318.6 180 318.4 182C318.416 182.502 318.383 183.005 318.3 183.5C318.3 184 318.2 184.5 318.2 185C318.2 185.5 318.1 185.8 318 186.2C317.988 186.838 317.921 187.474 317.8 188.1C317.7 188.6 317.7 189.2 317.6 189.7C317.515 190.474 317.382 191.243 317.2 192C317.216 192.238 317.182 192.476 317.1 192.7C317.082 193.238 317.015 193.774 316.9 194.3C316.8 195 316.6 195.8 316.5 196.5C316.4 197.2 316.2 198 316 198.8C315.8 199.6 315.7 200.3 315.6 201C315.1 203.4 314.5 205.7 313.9 208L313 211C310.739 218.907 307.795 226.603 304.2 234L302.7 237C301.2 240.1 299.5 243.1 297.8 246H56.2C55.4918 246.001 54.7907 245.859 54.138 245.585C53.4854 245.31 52.8944 244.907 52.4 244.4C51.6689 243.596 51.2134 242.58 51.1 241.5C51.018 241.276 50.9839 241.038 51 240.8V66.2C51.0256 64.8289 51.5817 63.5211 52.5514 62.5514C53.5211 61.5817 54.8289 61.0256 56.2 61H273.1L274.3 62.2L276.3 64.2C277.6 65.5 278.9 66.9 280.1 68.3L281.2 69.5L282.6 71C284.5 73.3 286.4 75.6 288.2 78L290.5 81L293.4 85.2L294.4 86.6L295.3 88C296.6 90.1 297.9 92.2 299.1 94.3L299.7 95.3L300.6 97L301.5 98.7C301.871 99.2782 302.205 99.8794 302.5 100.5L303.4 102.2C303.625 102.818 303.892 103.419 304.2 104L305.4 106.5L305.6 107L306.5 109.1C306.774 109.58 307.008 110.082 307.2 110.6C307.476 111.148 307.71 111.717 307.9 112.3C308.1 112.9 308.4 113.4 308.6 114C308.8 114.6 309.8 117 310.3 118.5L311.2 121.2C311.5 122.1 311.9 123.1 312.2 124.1C312.5 125.1 313.4 128 313.9 130C313.9 130.2 314 130.4 314 130.6C314.247 131.388 314.447 132.189 314.6 133C315.267 135.667 315.867 138.367 316.4 141.1C316.4 141.3 316.5 141.4 316.5 141.6C316.5 141.8 316.8 143.1 316.9 143.9C317 144.7 317.2 145.8 317.4 146.8C317.417 147.305 317.484 147.808 317.6 148.3C317.7 148.8 317.7 149.4 317.8 149.9C317.921 150.526 317.988 151.162 318 151.8C318.121 152.426 318.188 153.062 318.2 153.7C318.316 154.462 318.383 155.23 318.4 156C318.48 156.189 318.515 156.395 318.5 156.6C318.5 157.2 318.6 157.9 318.6 158.6V159C318.6 159.8 318.7 160.5 318.7 161.3C318.7 162.1 318.8 162.8 318.8 163.5V164.8C318.883 165.396 318.916 165.998 318.9 166.6L319 169Z" fill="#2E6699"/>
<path d="M319 169V172.3C318.9 173.3 318.9 174.3 318.9 175.3C318.91 175.57 318.876 175.841 318.8 176.1C318.7 178.1 318.6 180 318.4 182C318.416 182.502 318.383 183.005 318.3 183.5C318.3 184 318.2 184.5 318.2 185C318.2 185.5 318.1 185.8 318 186.2C317.988 186.838 317.921 187.474 317.8 188.1C317.7 188.6 317.7 189.2 317.6 189.7C317.515 190.474 317.382 191.243 317.2 192C317.216 192.238 317.182 192.476 317.1 192.7C317.082 193.238 317.015 193.774 316.9 194.3C316.8 195 316.6 195.8 316.5 196.5C316.4 197.2 316.2 198 316 198.8C315.8 199.6 315.7 200.3 315.6 201C315.1 203.4 314.5 205.7 313.9 208L313 211C310.739 218.907 307.795 226.603 304.2 234L302.7 237H38.2C37.4918 237.001 36.7907 236.859 36.138 236.585C35.4854 236.31 34.8944 235.907 34.4 235.4C33.6689 234.596 33.2134 233.58 33.1 232.5C33.018 232.276 32.9839 232.038 33 231.8V57.2C33.0256 55.8289 33.5817 54.5211 34.5514 53.5514C35.5211 52.5817 36.8289 52.0256 38.2 52H262.9L266.5 55L268.2 56.5L270.5 58.5L272.4 60.3C272.4 60.3265 272.411 60.352 272.429 60.3707C272.448 60.3895 272.473 60.4 272.5 60.4L274.3 62.2L276.3 64.2C277.6 65.5 278.9 66.9 280.1 68.3L281.2 69.5L282.6 71C284.5 73.3 286.4 75.6 288.2 78L290.5 81L293.4 85.2L294.4 86.6L295.3 88C296.6 90.1 297.9 92.2 299.1 94.3L299.7 95.3L300.6 97L301.5 98.7C301.871 99.2782 302.205 99.8794 302.5 100.5L303.4 102.2C303.625 102.818 303.892 103.419 304.2 104L305.4 106.5L305.6 107L306.5 109.1C306.774 109.58 307.008 110.082 307.2 110.6C307.476 111.148 307.71 111.717 307.9 112.3C308.1 112.9 308.4 113.4 308.6 114C308.8 114.6 309.8 117 310.3 118.5L311.2 121.2C311.5 122.1 311.9 123.1 312.2 124.1C312.5 125.1 313.4 128 313.9 130C313.9 130.2 314 130.4 314 130.6C314.247 131.388 314.447 132.189 314.6 133C315.267 135.667 315.867 138.367 316.4 141.1C316.4 141.3 316.5 141.4 316.5 141.6C316.5 141.8 316.8 143.1 316.9 143.9C317 144.7 317.2 145.8 317.4 146.8C317.417 147.305 317.484 147.808 317.6 148.3C317.7 148.8 317.7 149.4 317.8 149.9C317.921 150.526 317.988 151.162 318 151.8C318.121 152.426 318.188 153.062 318.2 153.7C318.316 154.462 318.383 155.23 318.4 156C318.48 156.189 318.515 156.395 318.5 156.6C318.5 157.2 318.6 157.9 318.6 158.6V159C318.6 159.8 318.7 160.5 318.7 161.3C318.7 162.1 318.8 162.8 318.8 163.5V164.8C318.883 165.396 318.916 165.998 318.9 166.6L319 169Z" fill="#F2F5F7"/>
<path d="M282.6 71C284.5 73.3 286.4 75.6 288.2 78H38.9C38.1309 78 37.3932 77.6945 36.8494 77.1506C36.3055 76.6068 36 75.8691 36 75.1V57.9C36 57.1309 36.3055 56.3932 36.8494 55.8494C37.3932 55.3055 38.1309 55 38.9 55H266.5C269.167 57.2667 271.767 59.6667 274.3 62.2C277.2 65 279.9 67.9 282.6 71Z" fill="white"/>
<path d="M56.1 55H38.9C37.2984 55 36 56.2984 36 57.9V75.1C36 76.7016 37.2984 78 38.9 78H56.1C57.7016 78 59 76.7016 59 75.1V57.9C59 56.2984 57.7016 55 56.1 55Z" fill="#FF4136"/>
<path d="M53.4 67.5C53.1875 68.6382 52.5788 69.6643 51.6819 70.3965C50.7849 71.1287 49.6577 71.5197 48.5 71.5C47.9846 71.5056 47.4736 71.4034 47 71.2L45.9 73C46.7302 73.3195 47.6105 73.4888 48.5 73.5H49.7C49.7067 73.1766 49.8113 72.8628 50 72.6C50.2115 72.2913 50.4951 72.0389 50.8261 71.8647C51.1572 71.6904 51.5258 71.5996 51.9 71.6C52.2778 71.5708 52.6567 71.6397 53 71.8H53.1C54.3573 70.6887 55.1735 69.1627 55.4 67.5H53.4ZM52.6 72.4C52.4382 72.2934 52.256 72.2215 52.065 72.189C51.8739 72.1564 51.6782 72.1639 51.4902 72.2109C51.3022 72.2579 51.126 72.3434 50.9728 72.462C50.8195 72.5806 50.6926 72.7298 50.6 72.9C50.4061 73.2493 50.35 73.6584 50.4425 74.047C50.535 74.4356 50.7695 74.7756 51.1 75C51.3806 75.1321 51.6972 75.1673 52 75.1C52.2416 75.0887 52.477 75.0192 52.6859 74.8973C52.8949 74.7754 53.0712 74.6048 53.2 74.4C53.3595 74.1284 53.4295 73.8136 53.4 73.5C53.3627 73.2666 53.2709 73.0453 53.1318 72.8541C52.9928 72.663 52.8106 72.5074 52.6 72.4ZM53.9 62L53 62.2C52.4165 62.2 51.8569 61.9682 51.4444 61.5556C51.0318 61.1431 50.8 60.5835 50.8 60C50.0676 59.7148 49.2857 59.5788 48.5 59.6C47.8222 59.6012 47.1483 59.7023 46.5 59.9L45.9 60.1V60.4L46.8 61.9C47.3079 61.6941 47.852 61.5921 48.4 61.6C49.5526 61.5998 50.67 61.9978 51.5629 62.7267C52.4558 63.4556 53.0695 64.4706 53.3 65.6H55.3C55.165 64.2961 54.6814 63.0525 53.9 62ZM53 58.5C52.7033 58.5 52.4133 58.588 52.1666 58.7528C51.92 58.9176 51.7277 59.1519 51.6142 59.426C51.5006 59.7001 51.4709 60.0017 51.5288 60.2926C51.5867 60.5836 51.7296 60.8509 51.9393 61.0607C52.1491 61.2704 52.4164 61.4133 52.7074 61.4712C52.9983 61.5291 53.2999 61.4993 53.574 61.3858C53.8481 61.2723 54.0824 61.08 54.2472 60.8334C54.412 60.5867 54.5 60.2967 54.5 60C54.5 59.6022 54.342 59.2206 54.0607 58.9393C53.7794 58.658 53.3978 58.5 53 58.5ZM41.9 65.1C41.7099 64.7598 41.3948 64.5069 41.0215 64.3949C40.6482 64.2829 40.246 64.3206 39.9 64.5C39.7183 64.5939 39.5577 64.724 39.4281 64.8823C39.2985 65.0406 39.2027 65.2237 39.1465 65.4204C39.0903 65.6171 39.0749 65.8232 39.1013 66.0261C39.1277 66.2289 39.1953 66.4242 39.3 66.6C39.403 66.7846 39.5465 66.9435 39.7197 67.0647C39.8929 67.186 40.0913 67.2664 40.3 67.3C40.4858 67.3584 40.6831 67.3708 40.8747 67.3359C41.0664 67.3011 41.2466 67.2201 41.4 67.1C41.5702 67.0074 41.7194 66.8804 41.838 66.7272C41.9566 66.574 42.0421 66.3978 42.0891 66.2098C42.1361 66.0218 42.1436 65.8261 42.111 65.635C42.0785 65.444 42.0066 65.2618 41.9 65.1ZM43.5 66.5C43.4878 65.7953 43.6342 65.0968 43.9285 64.4563C44.2228 63.8159 44.6573 63.2498 45.2 62.8L44.6 61.9L44.1 61C43.1191 61.8332 42.3627 62.899 41.9 64.1L42.4 64.6V64.8C42.6917 65.2789 42.7984 65.8479 42.7 66.4C42.5095 66.9816 42.12 67.4773 41.6 67.8H41.5C41.8862 69.4705 42.8406 70.9551 44.2 72L45.2 70.2C44.6729 69.737 44.2492 69.1683 43.9563 68.5309C43.6634 67.8934 43.5079 67.2015 43.5 66.5Z" fill="white"/>
<path d="M124 66.5C124 67.6935 123.526 68.8381 122.682 69.682C121.838 70.5259 120.693 71 119.5 71H69.5C68.3065 71 67.1619 70.5259 66.318 69.682C65.4741 68.8381 65 67.6935 65 66.5C65 65.3065 65.4741 64.1619 66.318 63.318C67.1619 62.4741 68.3065 62 69.5 62H119.5C120.693 62 121.838 62.4741 122.682 63.318C123.526 64.1619 124 65.3065 124 66.5Z" fill="#F1F2F3"/>
<path d="M152 58H151V75H152V58Z" fill="#F1F2F3"/>
<path d="M304.2 104H38.9C38.1309 104 37.3932 103.694 36.8494 103.151C36.3055 102.607 36 101.869 36 101.1V83.9C36 83.1309 36.3055 82.3932 36.8494 81.8494C37.3932 81.3055 38.1309 81 38.9 81H290.5L295.3 88C297.1 90.9 298.9 93.9 300.6 97C302.3 100.1 303.1 101.6 304.2 104Z" fill="white"/>
<path d="M56.1 81H38.9C37.2984 81 36 82.2984 36 83.9V101.1C36 102.702 37.2984 104 38.9 104H56.1C57.7016 104 59 102.702 59 101.1V83.9C59 82.2984 57.7016 81 56.1 81Z" fill="#FF4136"/>
<path d="M53.4 93.5C53.1875 94.6382 52.5788 95.6643 51.6819 96.3965C50.7849 97.1287 49.6577 97.5197 48.5 97.5C47.9846 97.5056 47.4736 97.4034 47 97.2L45.9 99C46.7302 99.3195 47.6105 99.4888 48.5 99.5H49.7C49.7067 99.1766 49.8113 98.8628 50 98.6C50.2115 98.2913 50.4951 98.0389 50.8261 97.8647C51.1572 97.6904 51.5258 97.5996 51.9 97.6C52.2778 97.5708 52.6567 97.6397 53 97.8H53.1C54.3573 96.6887 55.1735 95.1627 55.4 93.5H53.4ZM52.6 98.4C52.4382 98.2934 52.256 98.2215 52.065 98.189C51.8739 98.1564 51.6782 98.1639 51.4902 98.2109C51.3022 98.2579 51.126 98.3434 50.9728 98.462C50.8195 98.5806 50.6926 98.7298 50.6 98.9C50.4061 99.2493 50.35 99.6584 50.4425 100.047C50.535 100.436 50.7695 100.776 51.1 101C51.4609 101.185 51.8785 101.225 52.2683 101.114C52.6581 101.003 52.9911 100.747 53.2 100.4C53.3031 100.232 53.3695 100.044 53.3949 99.8486C53.4203 99.6532 53.4042 99.4545 53.3476 99.2657C53.2909 99.0769 53.195 98.9022 53.0662 98.753C52.9374 98.6038 52.7785 98.4835 52.6 98.4ZM53.9 88L53 88.2C52.7111 88.2 52.425 88.1431 52.1581 88.0325C51.8912 87.922 51.6487 87.7599 51.4444 87.5556C51.2401 87.3513 51.078 87.1088 50.9675 86.8419C50.8569 86.575 50.8 86.2889 50.8 86C50.0676 85.7148 49.2857 85.5788 48.5 85.6C47.6105 85.6112 46.7302 85.7805 45.9 86.1L46.9 87.9C47.4079 87.6941 47.952 87.5921 48.5 87.6C49.6526 87.5998 50.77 87.9978 51.6629 88.7267C52.5558 89.4556 53.1695 90.4706 53.4 91.6H55.4C55.2357 90.2862 54.7172 89.0418 53.9 88ZM53 84.5C52.7033 84.5 52.4133 84.588 52.1666 84.7528C51.92 84.9176 51.7277 85.1519 51.6142 85.426C51.5006 85.7001 51.4709 86.0017 51.5288 86.2926C51.5867 86.5836 51.7296 86.8509 51.9393 87.0607C52.1491 87.2704 52.4164 87.4133 52.7074 87.4712C52.9983 87.5291 53.2999 87.4993 53.574 87.3858C53.8481 87.2723 54.0824 87.08 54.2472 86.8334C54.412 86.5867 54.5 86.2967 54.5 86C54.5 85.6022 54.342 85.2206 54.0607 84.9393C53.7794 84.658 53.3978 84.5 53 84.5ZM41.9 91.1C41.7478 90.8212 41.4988 90.6078 41.2 90.5C40.9972 90.4025 40.775 90.3519 40.55 90.3519C40.325 90.3519 40.1028 90.4025 39.9 90.5C39.7183 90.5939 39.5577 90.724 39.4281 90.8823C39.2985 91.0406 39.2027 91.2237 39.1465 91.4204C39.0903 91.6171 39.0749 91.8232 39.1013 92.0261C39.1277 92.2289 39.1953 92.4242 39.3 92.6C39.3802 92.7776 39.5224 92.9198 39.7 93C39.9239 93.2184 40.2191 93.3487 40.5313 93.3671C40.8436 93.3855 41.152 93.2906 41.4 93.1C41.7232 92.8937 41.955 92.5715 42.048 92.1995C42.141 91.8276 42.088 91.4341 41.9 91.1ZM43.5 92.5C43.4878 91.7953 43.6342 91.0968 43.9285 90.4563C44.2228 89.8159 44.6573 89.2498 45.2 88.8L44.1 87C43.1191 87.8332 42.3627 88.899 41.9 90.1C42.1788 90.2522 42.3922 90.5012 42.5 90.8C42.7917 91.2789 42.8984 91.8479 42.8 92.4C42.6095 92.9816 42.22 93.4773 41.7 93.8H41.6C41.96 95.4565 42.8779 96.9391 44.2 98L45.2 96.2C44.6729 95.737 44.2492 95.1683 43.9563 94.5309C43.6634 93.8934 43.5079 93.2015 43.5 92.5Z" fill="white"/>
<path d="M137 92.5C137 93.6935 136.526 94.8381 135.682 95.682C134.838 96.5259 133.693 97 132.5 97H69.5C68.3065 97 67.1619 96.5259 66.318 95.682C65.4741 94.8381 65 93.6935 65 92.5C65 91.3065 65.4741 90.1619 66.318 89.318C67.1619 88.4741 68.3065 88 69.5 88H132.5C133.693 88 134.838 88.4741 135.682 89.318C136.526 90.1619 137 91.3065 137 92.5Z" fill="#F1F2F3"/>
<path d="M152 84H151V101H152V84Z" fill="#F1F2F3"/>
<path d="M313.9 130H38.9C38.1309 130 37.3932 129.694 36.8494 129.151C36.3055 128.607 36 127.869 36 127.1V109.9C36 109.131 36.3055 108.393 36.8494 107.849C37.3932 107.306 38.1309 107 38.9 107H305.6C309.032 114.41 311.809 122.106 313.9 130Z" fill="white"/>
<path d="M56.1 107H38.9C37.2984 107 36 108.298 36 109.9V127.1C36 128.702 37.2984 130 38.9 130H56.1C57.7016 130 59 128.702 59 127.1V109.9C59 108.298 57.7016 107 56.1 107Z" fill="#FF4136"/>
<path d="M53.4 119.5C53.1875 120.638 52.5788 121.664 51.6819 122.397C50.7849 123.129 49.6577 123.52 48.5 123.5C47.9846 123.506 47.4736 123.403 47 123.2L45.9 125C46.7302 125.32 47.6105 125.489 48.5 125.5H49.7C49.7067 125.177 49.8113 124.863 50 124.6C50.2115 124.291 50.4951 124.039 50.8261 123.865C51.1572 123.69 51.5258 123.6 51.9 123.6C52.2778 123.571 52.6567 123.64 53 123.8H53.1C54.3573 122.689 55.1735 121.163 55.4 119.5H53.4ZM52.6 124.4C52.4382 124.293 52.256 124.222 52.065 124.189C51.8739 124.156 51.6782 124.164 51.4902 124.211C51.3022 124.258 51.126 124.343 50.9728 124.462C50.8195 124.581 50.6926 124.73 50.6 124.9C50.4061 125.249 50.35 125.658 50.4425 126.047C50.535 126.436 50.7695 126.776 51.1 127C51.4609 127.185 51.8785 127.225 52.2683 127.114C52.6581 127.003 52.9911 126.747 53.2 126.4C53.3031 126.232 53.3695 126.044 53.3949 125.849C53.4203 125.653 53.4042 125.455 53.3476 125.266C53.2909 125.077 53.195 124.902 53.0662 124.753C52.9374 124.604 52.7785 124.484 52.6 124.4ZM53.9 114L53 114.2C52.4165 114.2 51.8569 113.968 51.4444 113.556C51.0318 113.143 50.8 112.583 50.8 112C50.0676 111.715 49.2857 111.579 48.5 111.6C47.6105 111.611 46.7302 111.78 45.9 112.1L46.9 113.9C47.4079 113.694 47.952 113.592 48.5 113.6C49.6526 113.6 50.77 113.998 51.6629 114.727C52.5558 115.456 53.1695 116.471 53.4 117.6H55.4C55.2357 116.286 54.7172 115.042 53.9 114ZM53 110.5C52.7033 110.5 52.4133 110.588 52.1666 110.753C51.92 110.918 51.7277 111.152 51.6142 111.426C51.5006 111.7 51.4709 112.002 51.5288 112.293C51.5867 112.584 51.7296 112.851 51.9393 113.061C52.1491 113.27 52.4164 113.413 52.7074 113.471C52.9983 113.529 53.2999 113.499 53.574 113.386C53.8481 113.272 54.0824 113.08 54.2472 112.833C54.412 112.587 54.5 112.297 54.5 112C54.5 111.602 54.342 111.221 54.0607 110.939C53.7794 110.658 53.3978 110.5 53 110.5ZM41.9 117.1C41.7099 116.76 41.3948 116.507 41.0215 116.395C40.6482 116.283 40.246 116.321 39.9 116.5C39.7183 116.594 39.5577 116.724 39.4281 116.882C39.2985 117.041 39.2027 117.224 39.1465 117.42C39.0903 117.617 39.0749 117.823 39.1013 118.026C39.1277 118.229 39.1953 118.424 39.3 118.6C39.4989 118.945 39.8266 119.196 40.2111 119.3C40.5955 119.403 41.0052 119.349 41.35 119.15C41.6948 118.951 41.9464 118.623 42.0496 118.239C42.1527 117.854 42.0989 117.445 41.9 117.1ZM43.5 118.5C43.4878 117.795 43.6342 117.097 43.9285 116.456C44.2228 115.816 44.6573 115.25 45.2 114.8L44.1 113C43.1191 113.833 42.3627 114.899 41.9 116.1C42.1788 116.252 42.3922 116.501 42.5 116.8C42.7917 117.279 42.8984 117.848 42.8 118.4C42.6095 118.982 42.22 119.477 41.7 119.8H41.6C41.96 121.456 42.8779 122.939 44.2 124L45.2 122.2C44.6729 121.737 44.2492 121.168 43.9563 120.531C43.6634 119.893 43.5079 119.201 43.5 118.5Z" fill="white"/>
<path d="M114 118.5C114 119.693 113.526 120.838 112.682 121.682C111.838 122.526 110.693 123 109.5 123H69.5C68.3065 123 67.1619 122.526 66.318 121.682C65.4741 120.838 65 119.693 65 118.5C65 117.307 65.4741 116.162 66.318 115.318C67.1619 114.474 68.3065 114 69.5 114H109.5C110.693 114 111.838 114.474 112.682 115.318C113.526 116.162 114 117.307 114 118.5Z" fill="#F1F2F3"/>
<path d="M187.5 62H165.5C163.015 62 161 64.0147 161 66.5C161 68.9853 163.015 71 165.5 71H187.5C189.985 71 192 68.9853 192 66.5C192 64.0147 189.985 62 187.5 62Z" fill="#F1F2F3"/>
<path d="M203 92.5C203 93.6935 202.526 94.8381 201.682 95.682C200.838 96.5259 199.693 97 198.5 97H165.5C164.307 97 163.162 96.5259 162.318 95.682C161.474 94.8381 161 93.6935 161 92.5C161 91.3065 161.474 90.1619 162.318 89.318C163.162 88.4741 164.307 88 165.5 88H198.5C199.693 88 200.838 88.4741 201.682 89.318C202.526 90.1619 203 91.3065 203 92.5Z" fill="#F1F2F3"/>
<path d="M196 118.5C196 119.693 195.526 120.838 194.682 121.682C193.838 122.526 192.693 123 191.5 123H165.5C164.307 123 163.162 122.526 162.318 121.682C161.474 120.838 161 119.693 161 118.5C161 117.307 161.474 116.162 162.318 115.318C163.162 114.474 164.307 114 165.5 114H191.5C192.693 114 193.838 114.474 194.682 115.318C195.526 116.162 196 117.307 196 118.5Z" fill="#F1F2F3"/>
<path d="M252 66.5C252 67.6935 251.526 68.8381 250.682 69.682C249.838 70.5259 248.693 71 247.5 71H232.5C231.307 71 230.162 70.5259 229.318 69.682C228.474 68.8381 228 67.6935 228 66.5C228 65.3065 228.474 64.1619 229.318 63.318C230.162 62.4741 231.307 62 232.5 62H247.5C248.693 62 249.838 62.4741 250.682 63.318C251.526 64.1619 252 65.3065 252 66.5Z" fill="#F1F2F3"/>
<path d="M252 92.5C252 93.6935 251.526 94.8381 250.682 95.682C249.838 96.5259 248.693 97 247.5 97H232.5C231.307 97 230.162 96.5259 229.318 95.682C228.474 94.8381 228 93.6935 228 92.5C228 91.3065 228.474 90.1619 229.318 89.318C230.162 88.4741 231.307 88 232.5 88H247.5C248.693 88 249.838 88.4741 250.682 89.318C251.526 90.1619 252 91.3065 252 92.5Z" fill="#F1F2F3"/>
<path d="M252 118.5C252 119.693 251.526 120.838 250.682 121.682C249.838 122.526 248.693 123 247.5 123H232.5C231.307 123 230.162 122.526 229.318 121.682C228.474 120.838 228 119.693 228 118.5C228 117.307 228.474 116.162 229.318 115.318C230.162 114.474 231.307 114 232.5 114H247.5C248.693 114 249.838 114.474 250.682 115.318C251.526 116.162 252 117.307 252 118.5Z" fill="#F1F2F3"/>
<path d="M152 110H151V127H152V110Z" fill="#F1F2F3"/>
<path d="M219 58H218V75H219V58Z" fill="#F1F2F3"/>
<path d="M219 84H218V101H219V84Z" fill="#F1F2F3"/>
<path d="M219 110H218V127H219V110Z" fill="#F1F2F3"/>
<path d="M262 58H261V75H262V58Z" fill="#F1F2F3"/>
<path d="M262 84H261V101H262V84Z" fill="#F1F2F3"/>
<path d="M318.4 156H38.9C38.1309 156 37.3932 155.694 36.8494 155.151C36.3055 154.607 36 153.869 36 153.1V135.9C36 135.131 36.3055 134.393 36.8494 133.849C37.3932 133.306 38.1309 133 38.9 133H314.6C315.267 135.667 315.867 138.367 316.4 141.1C316.8 143 317.1 144.9 317.4 146.8C317.7 148.7 318.2 152.9 318.4 156Z" fill="white"/>
<path d="M56.1 133H38.9C37.2984 133 36 134.298 36 135.9V153.1C36 154.702 37.2984 156 38.9 156H56.1C57.7016 156 59 154.702 59 153.1V135.9C59 134.298 57.7016 133 56.1 133Z" fill="#FFC300"/>
<path d="M53.4 145.5C53.1875 146.638 52.5788 147.664 51.6819 148.397C50.7849 149.129 49.6577 149.52 48.5 149.5C47.9846 149.506 47.4736 149.403 47 149.2L45.9 151C46.7302 151.32 47.6105 151.489 48.5 151.5H49.7C49.7067 151.177 49.8113 150.863 50 150.6C50.2115 150.291 50.4951 150.039 50.8261 149.865C51.1572 149.69 51.5258 149.6 51.9 149.6C52.2778 149.571 52.6567 149.64 53 149.8C53 149.9 53 149.9 53.1 149.9C54.3573 148.789 55.1735 147.263 55.4 145.6L53.4 145.5ZM52.6 150.4C52.4382 150.293 52.256 150.222 52.065 150.189C51.8739 150.156 51.6782 150.164 51.4902 150.211C51.3022 150.258 51.126 150.343 50.9728 150.462C50.8195 150.581 50.6926 150.73 50.6 150.9C50.4061 151.249 50.35 151.658 50.4425 152.047C50.535 152.436 50.7695 152.776 51.1 153C51.4609 153.185 51.8785 153.225 52.2683 153.114C52.6581 153.003 52.9911 152.747 53.2 152.4C53.3031 152.232 53.3695 152.044 53.3949 151.849C53.4203 151.653 53.4042 151.455 53.3476 151.266C53.2909 151.077 53.195 150.902 53.0662 150.753C52.9374 150.604 52.7785 150.484 52.6 150.4ZM53.9 140L53 140.2C52.4165 140.2 51.8569 139.968 51.4444 139.556C51.0318 139.143 50.8 138.583 50.8 138C50.0676 137.715 49.2857 137.579 48.5 137.6C47.6105 137.611 46.7302 137.78 45.9 138.1L46.9 139.9C47.4079 139.694 47.952 139.592 48.5 139.6C49.6526 139.6 50.77 139.998 51.6629 140.727C52.5558 141.456 53.1695 142.471 53.4 143.6H55.4C55.2357 142.286 54.7172 141.042 53.9 140ZM53 136.5C52.7033 136.5 52.4133 136.588 52.1666 136.753C51.92 136.918 51.7277 137.152 51.6142 137.426C51.5006 137.7 51.4709 138.002 51.5288 138.293C51.5867 138.584 51.7296 138.851 51.9393 139.061C52.1491 139.27 52.4164 139.413 52.7074 139.471C52.9983 139.529 53.2999 139.499 53.574 139.386C53.8481 139.272 54.0824 139.08 54.2472 138.833C54.412 138.587 54.5 138.297 54.5 138C54.5 137.602 54.342 137.221 54.0607 136.939C53.7794 136.658 53.3978 136.5 53 136.5ZM41.9 143.1C41.7099 142.76 41.3948 142.507 41.0215 142.395C40.6482 142.283 40.246 142.321 39.9 142.5C39.7183 142.594 39.5577 142.724 39.4281 142.882C39.2985 143.041 39.2027 143.224 39.1465 143.42C39.0903 143.617 39.0749 143.823 39.1013 144.026C39.1277 144.229 39.1953 144.424 39.3 144.6C39.4989 144.945 39.8266 145.196 40.2111 145.3C40.5955 145.403 41.0052 145.349 41.35 145.15C41.6948 144.951 41.9464 144.623 42.0496 144.239C42.1527 143.854 42.0989 143.445 41.9 143.1ZM43.5 144.5C43.4878 143.795 43.6342 143.097 43.9285 142.456C44.2228 141.816 44.6573 141.25 45.2 140.8L44.1 139C43.1191 139.833 42.3627 140.899 41.9 142.1C42.1788 142.252 42.3922 142.501 42.5 142.8C42.7917 143.279 42.8984 143.848 42.8 144.4C42.6095 144.982 42.22 145.477 41.7 145.8H41.6C41.96 147.456 42.8779 148.939 44.2 150L45.2 148.2C44.6729 147.737 44.2492 147.168 43.9563 146.531C43.6634 145.893 43.5079 145.201 43.5 144.5Z" fill="white"/>
<path d="M137 144.5C137 145.693 136.526 146.838 135.682 147.682C134.838 148.526 133.693 149 132.5 149H69.5C68.3065 149 67.1619 148.526 66.318 147.682C65.4741 146.838 65 145.693 65 144.5C65 143.307 65.4741 142.162 66.318 141.318C67.1619 140.474 68.3065 140 69.5 140H132.5C133.693 140 134.838 140.474 135.682 141.318C136.526 142.162 137 143.307 137 144.5Z" fill="#F1F2F3"/>
<path d="M152 136H151V153H152V136Z" fill="#F1F2F3"/>
<path d="M203 144.5C203 145.693 202.526 146.838 201.682 147.682C200.838 148.526 199.693 149 198.5 149H165.5C164.307 149 163.162 148.526 162.318 147.682C161.474 146.838 161 145.693 161 144.5C161 143.307 161.474 142.162 162.318 141.318C163.162 140.474 164.307 140 165.5 140H198.5C199.693 140 200.838 140.474 201.682 141.318C202.526 142.162 203 143.307 203 144.5Z" fill="#F1F2F3"/>
<path d="M252 144.5C252 145.693 251.526 146.838 250.682 147.682C249.838 148.526 248.693 149 247.5 149H232.5C231.307 149 230.162 148.526 229.318 147.682C228.474 146.838 228 145.693 228 144.5C228 143.307 228.474 142.162 229.318 141.318C230.162 140.474 231.307 140 232.5 140H247.5C248.693 140 249.838 140.474 250.682 141.318C251.526 142.162 252 143.307 252 144.5Z" fill="#F1F2F3"/>
<path d="M219 136H218V153H219V136Z" fill="#F1F2F3"/>
<path d="M262 136H261V153H262V136Z" fill="#F1F2F3"/>
<path d="M262 110H261V127H262V110Z" fill="#F1F2F3"/>
<path d="M319 169C319 173.4 318.8 177.7 318.4 182H38.9C38.1309 182 37.3932 181.694 36.8494 181.151C36.3055 180.607 36 179.869 36 179.1V161.9C36 161.131 36.3055 160.393 36.8494 159.849C37.3932 159.306 38.1309 159 38.9 159H318.7C318.9 162.3 319 165.6 319 169Z" fill="white"/>
<path d="M56.1 159H38.9C37.2984 159 36 160.298 36 161.9V179.1C36 180.702 37.2984 182 38.9 182H56.1C57.7016 182 59 180.702 59 179.1V161.9C59 160.298 57.7016 159 56.1 159Z" fill="#FFC300"/>
<path d="M53.4 171.5C53.1875 172.638 52.5788 173.664 51.6819 174.397C50.7849 175.129 49.6577 175.52 48.5 175.5C47.9846 175.506 47.4736 175.403 47 175.2L45.9 177C46.7302 177.32 47.6105 177.489 48.5 177.5H49.7C49.7067 177.177 49.8113 176.863 50 176.6C50.2115 176.291 50.4951 176.039 50.8261 175.865C51.1572 175.69 51.5258 175.6 51.9 175.6C52.2778 175.571 52.6567 175.64 53 175.8C53 175.9 53 175.9 53.1 175.9C54.3573 174.789 55.1735 173.263 55.4 171.6L53.4 171.5ZM52.6 176.4C52.4382 176.293 52.256 176.222 52.065 176.189C51.8739 176.156 51.6782 176.164 51.4902 176.211C51.3022 176.258 51.126 176.343 50.9728 176.462C50.8195 176.581 50.6926 176.73 50.6 176.9C50.4061 177.249 50.35 177.658 50.4425 178.047C50.535 178.436 50.7695 178.776 51.1 179C51.4609 179.185 51.8785 179.225 52.2683 179.114C52.6581 179.003 52.9911 178.747 53.2 178.4C53.3031 178.232 53.3695 178.044 53.3949 177.849C53.4203 177.653 53.4042 177.455 53.3476 177.266C53.2909 177.077 53.195 176.902 53.0662 176.753C52.9374 176.604 52.7785 176.484 52.6 176.4ZM53.9 166L53 166.2C52.4165 166.2 51.8569 165.968 51.4444 165.556C51.0318 165.143 50.8 164.583 50.8 164C50.0676 163.715 49.2857 163.579 48.5 163.6C47.6105 163.611 46.7302 163.78 45.9 164.1L46.9 165.9C47.4079 165.694 47.952 165.592 48.5 165.6C49.6526 165.6 50.77 165.998 51.6629 166.727C52.5558 167.456 53.1695 168.471 53.4 169.6H55.4C55.2357 168.286 54.7172 167.042 53.9 166ZM53 162.5C52.7033 162.5 52.4133 162.588 52.1666 162.753C51.92 162.918 51.7277 163.152 51.6142 163.426C51.5006 163.7 51.4709 164.002 51.5288 164.293C51.5867 164.584 51.7296 164.851 51.9393 165.061C52.1491 165.27 52.4164 165.413 52.7074 165.471C52.9983 165.529 53.2999 165.499 53.574 165.386C53.8481 165.272 54.0824 165.08 54.2472 164.833C54.412 164.587 54.5 164.297 54.5 164C54.5 163.602 54.342 163.221 54.0607 162.939C53.7794 162.658 53.3978 162.5 53 162.5ZM41.9 169.1C41.7099 168.76 41.3948 168.507 41.0215 168.395C40.6482 168.283 40.246 168.321 39.9 168.5C39.7183 168.594 39.5577 168.724 39.4281 168.882C39.2985 169.041 39.2027 169.224 39.1465 169.42C39.0903 169.617 39.0749 169.823 39.1013 170.026C39.1277 170.229 39.1953 170.424 39.3 170.6C39.4989 170.945 39.8266 171.196 40.2111 171.3C40.5955 171.403 41.0052 171.349 41.35 171.15C41.6948 170.951 41.9464 170.623 42.0496 170.239C42.1527 169.854 42.0989 169.445 41.9 169.1ZM43.5 170.5C43.4878 169.795 43.6342 169.097 43.9285 168.456C44.2228 167.816 44.6573 167.25 45.2 166.8L44.1 165C43.1191 165.833 42.3627 166.899 41.9 168.1C42.1788 168.252 42.3922 168.501 42.5 168.8C42.7917 169.279 42.8984 169.848 42.8 170.4C42.6095 170.982 42.22 171.477 41.7 171.8H41.6C41.96 173.456 42.8779 174.939 44.2 176L45.2 174.2C44.6729 173.737 44.2492 173.168 43.9563 172.531C43.6634 171.893 43.5079 171.201 43.5 170.5Z" fill="white"/>
<path d="M114 170.5C114 171.693 113.526 172.838 112.682 173.682C111.838 174.526 110.693 175 109.5 175H69.5C68.3065 175 67.1619 174.526 66.318 173.682C65.4741 172.838 65 171.693 65 170.5C65 169.307 65.4741 168.162 66.318 167.318C67.1619 166.474 68.3065 166 69.5 166H109.5C110.693 166 111.838 166.474 112.682 167.318C113.526 168.162 114 169.307 114 170.5Z" fill="#F1F2F3"/>
<path d="M196 170.5C196 171.693 195.526 172.838 194.682 173.682C193.838 174.526 192.693 175 191.5 175H165.5C164.307 175 163.162 174.526 162.318 173.682C161.474 172.838 161 171.693 161 170.5C161 169.307 161.474 168.162 162.318 167.318C163.162 166.474 164.307 166 165.5 166H191.5C192.693 166 193.838 166.474 194.682 167.318C195.526 168.162 196 169.307 196 170.5Z" fill="#F1F2F3"/>
<path d="M252 170.5C252 171.693 251.526 172.838 250.682 173.682C249.838 174.526 248.693 175 247.5 175H232.5C231.307 175 230.162 174.526 229.318 173.682C228.474 172.838 228 171.693 228 170.5C228 169.307 228.474 168.162 229.318 167.318C230.162 166.474 231.307 166 232.5 166H247.5C248.693 166 249.838 166.474 250.682 167.318C251.526 168.162 252 169.307 252 170.5Z" fill="#F1F2F3"/>
<path d="M152 162H151V179H152V162Z" fill="#F1F2F3"/>
<path d="M219 162H218V179H219V162Z" fill="#F1F2F3"/>
<path d="M262 162H261V179H262V162Z" fill="#F1F2F3"/>
<path d="M318.2 185C317.9 187.4 317.6 189.7 317.2 192C316.8 194.3 316.2 198 315.6 201C315 204 314.5 205.7 313.9 208H38.9C38.1309 208 37.3932 207.694 36.8494 207.151C36.3055 206.607 36 205.869 36 205.1V187.9C36 187.131 36.3055 186.393 36.8494 185.849C37.3932 185.306 38.1309 185 38.9 185H318.2Z" fill="white"/>
<path d="M56.1 185H38.9C37.2984 185 36 186.298 36 187.9V205.1C36 206.702 37.2984 208 38.9 208H56.1C57.7016 208 59 206.702 59 205.1V187.9C59 186.298 57.7016 185 56.1 185Z" fill="#3A5367"/>
<path d="M53.4 197.5C53.1875 198.638 52.5788 199.664 51.6819 200.397C50.7849 201.129 49.6577 201.52 48.5 201.5C47.9846 201.506 47.4736 201.403 47 201.2L45.9 203C46.7302 203.32 47.6105 203.489 48.5 203.5H49.7C49.7067 203.177 49.8113 202.863 50 202.6C50.2115 202.291 50.4951 202.039 50.8261 201.865C51.1572 201.69 51.5258 201.6 51.9 201.6C52.2778 201.571 52.6567 201.64 53 201.8C53 201.9 53 201.9 53.1 201.9C54.3573 200.789 55.1735 199.263 55.4 197.6L53.4 197.5ZM52.6 202.4C52.4382 202.293 52.256 202.222 52.065 202.189C51.8739 202.156 51.6782 202.164 51.4902 202.211C51.3022 202.258 51.126 202.343 50.9728 202.462C50.8195 202.581 50.6926 202.73 50.6 202.9C50.4061 203.249 50.35 203.658 50.4425 204.047C50.535 204.436 50.7695 204.776 51.1 205C51.4609 205.185 51.8785 205.225 52.2683 205.114C52.6581 205.003 52.9911 204.747 53.2 204.4C53.3031 204.232 53.3695 204.044 53.3949 203.849C53.4203 203.653 53.4042 203.455 53.3476 203.266C53.2909 203.077 53.195 202.902 53.0662 202.753C52.9374 202.604 52.7785 202.484 52.6 202.4ZM53.9 192L53 192.2C52.4165 192.2 51.8569 191.968 51.4444 191.556C51.0318 191.143 50.8 190.583 50.8 190C50.0676 189.715 49.2857 189.579 48.5 189.6C47.6105 189.611 46.7302 189.78 45.9 190.1L46.9 191.9C47.4079 191.694 47.952 191.592 48.5 191.6C49.6526 191.6 50.77 191.998 51.6629 192.727C52.5558 193.456 53.1695 194.471 53.4 195.6H55.4C55.2357 194.286 54.7172 193.042 53.9 192ZM53 188.5C52.7033 188.5 52.4133 188.588 52.1666 188.753C51.92 188.918 51.7277 189.152 51.6142 189.426C51.5006 189.7 51.4709 190.002 51.5288 190.293C51.5867 190.584 51.7296 190.851 51.9393 191.061C52.1491 191.27 52.4164 191.413 52.7074 191.471C52.9983 191.529 53.2999 191.499 53.574 191.386C53.8481 191.272 54.0824 191.08 54.2472 190.833C54.412 190.587 54.5 190.297 54.5 190C54.5 189.602 54.342 189.221 54.0607 188.939C53.7794 188.658 53.3978 188.5 53 188.5ZM41.9 195.1C41.7099 194.76 41.3948 194.507 41.0215 194.395C40.6482 194.283 40.246 194.321 39.9 194.5C39.7183 194.594 39.5577 194.724 39.4281 194.882C39.2985 195.041 39.2027 195.224 39.1465 195.42C39.0903 195.617 39.0749 195.823 39.1013 196.026C39.1277 196.229 39.1953 196.424 39.3 196.6C39.4989 196.945 39.8266 197.196 40.2111 197.3C40.5955 197.403 41.0052 197.349 41.35 197.15C41.6948 196.951 41.9464 196.623 42.0496 196.239C42.1527 195.854 42.0989 195.445 41.9 195.1ZM43.5 196.5C43.4878 195.795 43.6342 195.097 43.9285 194.456C44.2228 193.816 44.6573 193.25 45.2 192.8L44.1 191C43.1191 191.833 42.3627 192.899 41.9 194.1C42.1788 194.252 42.3922 194.501 42.5 194.8C42.7917 195.279 42.8984 195.848 42.8 196.4C42.6095 196.982 42.22 197.477 41.7 197.8H41.6C41.96 199.456 42.8779 200.939 44.2 202L45.2 200.2C44.6729 199.737 44.2492 199.168 43.9563 198.531C43.6634 197.893 43.5079 197.201 43.5 196.5Z" fill="white"/>
<path d="M127 196.5C127 197.693 126.526 198.838 125.682 199.682C124.838 200.526 123.693 201 122.5 201H69.5C68.3065 201 67.1619 200.526 66.318 199.682C65.4741 198.838 65 197.693 65 196.5C65 195.307 65.4741 194.162 66.318 193.318C67.1619 192.474 68.3065 192 69.5 192H122.5C123.693 192 124.838 192.474 125.682 193.318C126.526 194.162 127 195.307 127 196.5Z" fill="#F1F2F3"/>
<path d="M182 196.5C182 197.693 181.526 198.838 180.682 199.682C179.838 200.526 178.693 201 177.5 201H165.5C164.307 201 163.162 200.526 162.318 199.682C161.474 198.838 161 197.693 161 196.5C161 195.307 161.474 194.162 162.318 193.318C163.162 192.474 164.307 192 165.5 192H177.5C178.693 192 179.838 192.474 180.682 193.318C181.526 194.162 182 195.307 182 196.5Z" fill="#F1F2F3"/>
<path d="M252 196.5C252 197.693 251.526 198.838 250.682 199.682C249.838 200.526 248.693 201 247.5 201H232.5C231.307 201 230.162 200.526 229.318 199.682C228.474 198.838 228 197.693 228 196.5C228 195.307 228.474 194.162 229.318 193.318C230.162 192.474 231.307 192 232.5 192H247.5C248.693 192 249.838 192.474 250.682 193.318C251.526 194.162 252 195.307 252 196.5Z" fill="#F1F2F3"/>
<path d="M274.3 62.2C273.349 62.4455 272.507 63.0022 271.909 63.7815C271.311 64.5607 270.991 65.5177 271 66.5C271 67.6934 271.474 68.838 272.318 69.6819C273.162 70.5258 274.307 71 275.5 71H282.6C279.9 67.9 277.2 65 274.3 62.2Z" fill="#F1F2F3"/>
<path d="M296.5 114H275.5C274.307 114 273.162 114.474 272.318 115.318C271.474 116.162 271 117.307 271 118.5C271 119.693 271.474 120.838 272.318 121.682C273.162 122.526 274.307 123 275.5 123H296.5C297.693 123 298.838 122.526 299.682 121.682C300.526 120.838 301 119.693 301 118.5C301 117.307 300.526 116.162 299.682 115.318C298.838 114.474 297.693 114 296.5 114Z" fill="#F1F2F3"/>
<path d="M295.3 88H275.5C274.307 88 273.162 88.4741 272.318 89.318C271.474 90.1619 271 91.3065 271 92.5C271 93.6935 271.474 94.8381 272.318 95.682C273.162 96.5259 274.307 97 275.5 97H300.6C298.9 93.9 297.1 90.9 295.3 88Z" fill="#F1F2F3"/>
<path d="M316.4 141.1C315.599 140.393 314.568 140.003 313.5 140H275.5C274.307 140 273.162 140.474 272.318 141.318C271.474 142.162 271 143.307 271 144.5C271 145.693 271.474 146.838 272.318 147.682C273.162 148.526 274.307 149 275.5 149H313.5C314.282 148.987 315.048 148.778 315.729 148.394C316.41 148.01 316.984 147.462 317.4 146.8C317.1 144.9 316.8 143 316.4 141.1Z" fill="#F1F2F3"/>
<path d="M275.5 192C274.307 192 273.162 192.474 272.318 193.318C271.474 194.162 271 195.307 271 196.5C271 197.693 271.474 198.838 272.318 199.682C273.162 200.526 274.307 201 275.5 201H315.6C316.2 198 316.8 195 317.2 192H275.5Z" fill="#F1F2F3"/>
<path d="M287.5 166H275.5C274.307 166 273.162 166.474 272.318 167.318C271.474 168.162 271 169.307 271 170.5C271 171.693 271.474 172.838 272.318 173.682C273.162 174.526 274.307 175 275.5 175H287.5C288.693 175 289.838 174.526 290.682 173.682C291.526 172.838 292 171.693 292 170.5C292 169.307 291.526 168.162 290.682 167.318C289.838 166.474 288.693 166 287.5 166Z" fill="#F1F2F3"/>
<path d="M313 211C310.739 218.907 307.795 226.603 304.2 234H38.9C38.1309 234 37.3932 233.694 36.8494 233.151C36.3055 232.607 36 231.869 36 231.1V213.9C36 213.131 36.3055 212.393 36.8494 211.849C37.3932 211.306 38.1309 211 38.9 211H313Z" fill="white"/>
<path d="M56.1 211H38.9C37.2984 211 36 212.298 36 213.9V231.1C36 232.702 37.2984 234 38.9 234H56.1C57.7016 234 59 232.702 59 231.1V213.9C59 212.298 57.7016 211 56.1 211Z" fill="#AEB3B7"/>
<path d="M53.4 223.5C53.1875 224.638 52.5788 225.664 51.6819 226.397C50.7849 227.129 49.6577 227.52 48.5 227.5C47.9846 227.506 47.4736 227.403 47 227.2L45.9 229C46.7302 229.32 47.6105 229.489 48.5 229.5H49.7C49.7067 229.177 49.8113 228.863 50 228.6C50.2115 228.291 50.4951 228.039 50.8261 227.865C51.1572 227.69 51.5258 227.6 51.9 227.6C52.2778 227.571 52.6567 227.64 53 227.8C53 227.9 53 227.9 53.1 227.9C54.3573 226.789 55.1735 225.263 55.4 223.6L53.4 223.5ZM52.6 228.4C52.4382 228.293 52.256 228.222 52.065 228.189C51.8739 228.156 51.6782 228.164 51.4902 228.211C51.3022 228.258 51.126 228.343 50.9728 228.462C50.8195 228.581 50.6926 228.73 50.6 228.9C50.4061 229.249 50.35 229.658 50.4425 230.047C50.535 230.436 50.7695 230.776 51.1 231C51.4609 231.185 51.8785 231.225 52.2683 231.114C52.6581 231.003 52.9911 230.747 53.2 230.4C53.3031 230.232 53.3695 230.044 53.3949 229.849C53.4203 229.653 53.4042 229.455 53.3476 229.266C53.2909 229.077 53.195 228.902 53.0662 228.753C52.9374 228.604 52.7785 228.484 52.6 228.4ZM53.9 218L53 218.2C52.4165 218.2 51.8569 217.968 51.4444 217.556C51.0318 217.143 50.8 216.583 50.8 216C50.0676 215.715 49.2857 215.579 48.5 215.6C47.6105 215.611 46.7302 215.78 45.9 216.1L46.9 217.9C47.4079 217.694 47.952 217.592 48.5 217.6C49.6526 217.6 50.77 217.998 51.6629 218.727C52.5558 219.456 53.1695 220.471 53.4 221.6H55.4C55.2357 220.286 54.7172 219.042 53.9 218ZM53 214.5C52.7033 214.5 52.4133 214.588 52.1666 214.753C51.92 214.918 51.7277 215.152 51.6142 215.426C51.5006 215.7 51.4709 216.002 51.5288 216.293C51.5867 216.584 51.7296 216.851 51.9393 217.061C52.1491 217.27 52.4164 217.413 52.7074 217.471C52.9983 217.529 53.2999 217.499 53.574 217.386C53.8481 217.272 54.0824 217.08 54.2472 216.833C54.412 216.587 54.5 216.297 54.5 216C54.5 215.602 54.342 215.221 54.0607 214.939C53.7794 214.658 53.3978 214.5 53 214.5ZM41.9 221.1C41.7099 220.76 41.3948 220.507 41.0215 220.395C40.6482 220.283 40.246 220.321 39.9 220.5C39.7183 220.594 39.5577 220.724 39.4281 220.882C39.2985 221.041 39.2027 221.224 39.1465 221.42C39.0903 221.617 39.0749 221.823 39.1013 222.026C39.1277 222.229 39.1953 222.424 39.3 222.6C39.4989 222.945 39.8266 223.196 40.2111 223.3C40.5955 223.403 41.0052 223.349 41.35 223.15C41.6948 222.951 41.9464 222.623 42.0496 222.239C42.1527 221.854 42.0989 221.445 41.9 221.1ZM43.5 222.5C43.4878 221.795 43.6342 221.097 43.9285 220.456C44.2228 219.816 44.6573 219.25 45.2 218.8L44.1 217C43.1191 217.833 42.3627 218.899 41.9 220.1C42.1788 220.252 42.3922 220.501 42.5 220.8C42.7917 221.279 42.8984 221.848 42.8 222.4C42.6095 222.982 42.22 223.477 41.7 223.8H41.6C41.96 225.456 42.8779 226.939 44.2 228L45.2 226.2C44.6729 225.737 44.2492 225.168 43.9563 224.531C43.6634 223.893 43.5079 223.201 43.5 222.5Z" fill="white"/>
<path d="M119 222.5C119 223.693 118.526 224.838 117.682 225.682C116.838 226.526 115.693 227 114.5 227H69.5C68.3065 227 67.1619 226.526 66.318 225.682C65.4741 224.838 65 223.693 65 222.5C65 221.307 65.4741 220.162 66.318 219.318C67.1619 218.474 68.3065 218 69.5 218H114.5C115.693 218 116.838 218.474 117.682 219.318C118.526 220.162 119 221.307 119 222.5Z" fill="#F1F2F3"/>
<path d="M192 222.5C192 223.693 191.526 224.838 190.682 225.682C189.838 226.526 188.693 227 187.5 227H165.5C164.307 227 163.162 226.526 162.318 225.682C161.474 224.838 161 223.693 161 222.5C161 221.307 161.474 220.162 162.318 219.318C163.162 218.474 164.307 218 165.5 218H187.5C188.693 218 189.838 218.474 190.682 219.318C191.526 220.162 192 221.307 192 222.5Z" fill="#F1F2F3"/>
<path d="M252 222.5C252 223.693 251.526 224.838 250.682 225.682C249.838 226.526 248.693 227 247.5 227H232.5C231.307 227 230.162 226.526 229.318 225.682C228.474 224.838 228 223.693 228 222.5C228 221.307 228.474 220.162 229.318 219.318C230.162 218.474 231.307 218 232.5 218H247.5C248.693 218 249.838 218.474 250.682 219.318C251.526 220.162 252 221.307 252 222.5Z" fill="#F1F2F3"/>
<path d="M152 214H151V231H152V214Z" fill="#F1F2F3"/>
<path d="M219 214H218V231H219V214Z" fill="#F1F2F3"/>
<path d="M262 214H261V231H262V214Z" fill="#F1F2F3"/>
<path d="M301.5 218H275.5C274.307 218 273.162 218.474 272.318 219.318C271.474 220.162 271 221.307 271 222.5C271 223.693 271.474 224.838 272.318 225.682C273.162 226.526 274.307 227 275.5 227H301.5C302.693 227 303.838 226.526 304.682 225.682C305.526 224.838 306 223.693 306 222.5C306 221.307 305.526 220.162 304.682 219.318C303.838 218.474 302.693 218 301.5 218Z" fill="#F1F2F3"/>
<path d="M152 188H151V205H152V188Z" fill="#F1F2F3"/>
<path d="M219 188H218V205H219V188Z" fill="#F1F2F3"/>
<path d="M262 188H261V205H262V188Z" fill="#F1F2F3"/>
<path opacity="0.03" d="M318.4 175.6C318.2 171.9 317.8 168.3 317.4 164.7C317 161.1 316.8 160.1 316.4 157.9C316 155.7 315.3 151.4 314.6 148.3C314.4 147.1 314.1 145.9 313.9 144.7C311.83 135.403 309.055 126.276 305.6 117.4C305.2 116.2 304.7 115 304.2 113.8C303.1 111 301.9 108.2 300.6 105.5C299.3 102.8 297.1 98.3 295.3 94.8L290.5 86.5C289.8 85.3 289 84.1 288.2 82.9C286.4 80.1 284.5 77.3 282.6 74.6C280.7 71.9 277.2 67.4 274.3 64.1C271.4 60.8 269.2 58.3 266.5 55.6L262.9 52H170V237H302.7L304.2 234C307.795 226.603 310.739 218.907 313 211L313.9 208C314.5 205.7 315.1 203.4 315.6 201C315.7 200.3 315.9 199.5 316 198.8C316.1 198.1 316.3 197.3 316.5 196.5C316.7 195.7 316.8 195 316.9 194.3C317.015 193.774 317.082 193.238 317.1 192.7C317.182 192.476 317.216 192.238 317.2 192C317.382 191.243 317.515 190.474 317.6 189.7C317.7 189.2 317.7 188.6 317.8 188.1C317.921 187.474 317.988 186.838 318 186.2C318.1 185.8 318.1 185.4 318.2 185C318.3 184.6 318.3 184 318.3 183.5C318.383 183.005 318.416 182.502 318.4 182L318.7 179.1L318.4 175.6Z" fill="#304659"/>
<path opacity="0.05" d="M319 166.6C319.016 165.998 318.983 165.396 318.9 164.8V163.5C318.9 162.8 318.8 162 318.8 161.3C318.8 160.6 318.7 159.8 318.7 159V158.6C318.7 157.9 318.6 157.2 318.6 156.6C318.615 156.395 318.58 156.189 318.5 156C318.483 155.23 318.416 154.462 318.3 153.7C318.288 153.062 318.221 152.426 318.1 151.8C318.088 151.162 318.021 150.526 317.9 149.9C317.8 149.4 317.8 148.8 317.7 148.3C317.584 147.808 317.517 147.305 317.5 146.8C317.3 145.8 317.2 144.9 317 143.9C316.8 142.9 316.7 142.4 316.6 141.6C316.5 140.8 316.5 141.3 316.5 141.1C316.033 138.433 315.433 135.733 314.7 133C314.547 132.189 314.347 131.388 314.1 130.6C314.1 130.4 314 130.2 314 130C313.5 128 312.9 126 312.3 124.1C311.7 122.2 311.6 122.1 311.3 121.2L310.4 118.5C309.9 117 309.3 115.5 308.7 114C308.1 112.5 308.2 112.9 308 112.3C307.81 111.717 307.576 111.148 307.3 110.6C307.108 110.082 306.874 109.58 306.6 109.1L305.7 107L305.5 106.5L304.3 104C303.992 103.419 303.725 102.818 303.5 102.2L302.6 100.5C302.305 99.8794 301.971 99.2782 301.6 98.7L300.7 97L299.8 95.3L299.2 94.3C298 92.2 296.7 90.1 295.4 88L294.5 86.6L293.5 85.2L290.5 81L288.2 78C286.4 75.6 284.5 73.3 282.6 71L281.2 69.5L280.1 68.3C278.9 66.9 277.6 65.5 276.3 64.2L274.3 62.2L272.5 60.4C272.487 60.4 272.474 60.3974 272.462 60.3924C272.45 60.3874 272.439 60.38 272.429 60.3707C272.42 60.3614 272.413 60.3504 272.408 60.3383C272.403 60.3261 272.4 60.3131 272.4 60.3L270.5 58.5L268.2 56.5L266.5 55L262.9 52H213.1C225.421 56.6668 236.929 63.2476 247.2 71.5L250.2 74L251.6 75.2L253.6 77L255.1 78.4H255.2L256.7 79.9C257.315 80.4158 257.884 80.9846 258.4 81.6C259.5 82.7 260.6 83.8 261.6 85L262.5 85.9L263.6 87.2C265.3 89.1 266.9 91.1 268.4 93.1L270.2 95.6C271.1 96.7 271.9 97.9 272.7 99L273.5 100.3L274.2 101.4C275.3 103.1 276.4 104.9 277.4 106.7C277.602 106.943 277.77 107.212 277.9 107.5L278.7 108.9C278.907 109.399 279.175 109.869 279.5 110.3L280.2 111.8L281 113.3C281.2 113.7 281.5 114.2 281.7 114.7C281.9 115.2 282.4 116.1 282.7 116.9L282.9 117.2C283.1 117.8 283.4 118.4 283.6 118.9L284.2 120.3L284.8 121.7C285 122.1 285.1 122.6 285.3 123.1L286.8 126.8C287 127.6 287.3 128.3 287.5 129C287.7 129.7 288 130.7 288.3 131.5C288.6 132.3 289.3 134.7 289.7 136.4L289.9 136.9C290.019 137.578 290.186 138.246 290.4 138.9C290.9 141.1 291.4 143.4 291.8 145.6C291.881 145.754 291.916 145.927 291.9 146.1C292 146.7 292.2 147.4 292.3 148L292.6 150.4C292.723 150.823 292.79 151.26 292.8 151.7C292.9 152.1 292.9 152.5 293 153C293.1 153.5 293.1 154 293.2 154.6C293.217 155.105 293.284 155.608 293.4 156.1C293.4 156.8 293.5 157.4 293.5 158.1C293.5 158.8 293.6 158.4 293.6 158.5C293.6 158.6 293.7 159.7 293.7 160.2V160.6C293.786 161.229 293.819 161.865 293.8 162.5C293.883 163.096 293.916 163.698 293.9 164.3C293.884 164.67 293.917 165.04 294 165.4V171.6C294 172.5 293.9 173.3 293.9 174.1V174.8C293.8 176.4 293.7 178.1 293.5 179.7C293.516 180.103 293.483 180.506 293.4 180.9C293.4 181.4 293.3 181.8 293.3 182.2C293.3 182.6 293.2 182.9 293.2 183.2C293.2 183.5 293.1 184.3 293 184.8C292.9 185.3 292.9 185.7 292.8 186.2L292.5 188.1V188.7L292.2 190L291.9 191.8C291.825 192.444 291.691 193.08 291.5 193.7C291.405 194.341 291.271 194.975 291.1 195.6C290.7 197.5 290.2 199.5 289.7 201.4C289.526 202.249 289.293 203.084 289 203.9C287.074 210.481 284.633 216.901 281.7 223.1L280.5 225.6C278.494 229.477 276.291 233.248 273.9 236.9H302.7L304.2 233.9C307.795 226.503 310.739 218.807 313 210.9L313.9 207.9C314.5 205.6 315.1 203.3 315.6 200.9C315.7 200.2 315.9 199.4 316 198.7C316.1 198 316.3 197.2 316.5 196.4C316.7 195.6 316.8 194.9 316.9 194.2C317.015 193.674 317.082 193.138 317.1 192.6C317.182 192.376 317.216 192.138 317.2 191.9C317.382 191.143 317.515 190.374 317.6 189.6C317.7 189.1 317.7 188.5 317.8 188C317.921 187.374 317.988 186.738 318 186.1C318.1 185.7 318.1 185.3 318.2 184.9C318.3 184.5 318.3 183.9 318.3 183.4C318.383 182.905 318.416 182.402 318.4 181.9C318.6 179.9 318.7 178 318.8 176C318.876 175.741 318.91 175.47 318.9 175.2C318.9 174.2 318.9 173.2 319 172.2V166.5V166.6Z" fill="#304659"/>
<path opacity="0.9" d="M287 226.5V300H170V226.5C169.996 211.207 175.981 196.521 186.672 185.587C197.363 174.653 211.911 168.34 227.2 168H229.8C245.089 168.34 259.637 174.653 270.328 185.587C281.019 196.521 287.004 211.207 287 226.5Z" fill="#FF4136"/>
<path d="M298 308.7V319H158V308.7C158 306.393 158.917 304.18 160.548 302.548C162.18 300.917 164.393 300 166.7 300H289.3C291.607 300 293.82 300.917 295.452 302.548C297.083 304.18 298 306.393 298 308.7Z" fill="#F2F2F2"/>
<path d="M298 313H158V319H298V313Z" fill="#E6E6E6"/>
<path d="M229 273C246.673 273 261 258.673 261 241C261 223.327 246.673 209 229 209C211.327 209 197 223.327 197 241C197 258.673 211.327 273 229 273Z" fill="#FF655C"/>
<path d="M229 263C241.15 263 251 253.15 251 241C251 228.85 241.15 219 229 219C216.85 219 207 228.85 207 241C207 253.15 216.85 263 229 263Z" fill="#FF9A94"/>
<path d="M229 252C235.075 252 240 247.075 240 241C240 234.925 235.075 230 229 230C222.925 230 218 234.925 218 241C218 247.075 222.925 252 229 252Z" fill="#FFCFCD"/>
<path opacity="0.9" d="M179 226.5V300H204V226.5C204 194.2 215 168 228.5 168C201.2 168 179 194.2 179 226.5Z" fill="#FFABA7"/>
<path opacity="0.9" d="M278 226.5V300H253V226.5C253 224.2 252.9 221.9 252.8 219.6C251.4 191 241.3 168.6 229 168H229.8C256.5 168.8 278 194.7 278 226.5Z" fill="#FF7068"/>
<path opacity="0.1" d="M298 308.7V319H229V168H229.8C245.089 168.34 259.637 174.653 270.328 185.587C281.019 196.521 287.004 211.207 287 226.5V300H289.3C291.607 300 293.82 300.917 295.452 302.548C297.083 304.18 298 306.393 298 308.7Z" fill="#233646"/>
</svg>
