<svg width="136" height="136" viewBox="0 0 136 136" fill="none" xmlns="http://www.w3.org/2000/svg">
<path d="M68 136C105.555 136 136 105.555 136 68C136 30.4446 105.555 0 68 0C30.4446 0 0 30.4446 0 68C0 105.555 30.4446 136 68 136Z" fill="#BFD3DE" fill-opacity="0.3"/>
<path d="M67.9999 124.836C99.3894 124.836 124.836 99.3894 124.836 67.9999C124.836 36.6103 99.3894 11.1641 67.9999 11.1641C36.6103 11.1641 11.1641 36.6103 11.1641 67.9999C11.1641 99.3894 36.6103 124.836 67.9999 124.836Z" fill="#BFD3DE"/>
<path d="M103.523 19.2837V97.4329H102.508L102.102 97.6359H101.493L101.087 97.9404C100.906 98.0218 100.762 98.1661 100.681 98.3464H100.478L100.275 98.6508C100.081 98.8491 99.9412 99.0937 99.8688 99.3613H99.7673V99.5643L99.5643 100.072C99.1741 100.945 98.9011 101.867 98.7524 102.812C98.7524 103.015 98.6509 103.32 98.6509 103.522C98.6509 103.725 98.5494 104.537 98.5494 105.045H26.3882V30.4479C26.3882 27.4869 27.5644 24.6473 29.6581 22.5536C31.7518 20.4599 34.5914 19.2837 37.5524 19.2837H103.523Z" fill="#506C80"/>
<path d="M103.522 94.3882V97.4329H102.508L102.102 97.6359H101.493L101.087 97.9404C100.906 98.0218 100.762 98.1661 100.681 98.3464H100.478L100.275 98.6509C100.081 98.8491 99.9412 99.0937 99.8688 99.3613H99.7673V99.5643L99.5643 100.072C99.1741 100.945 98.9011 101.867 98.7523 102.812C98.7523 103.015 98.6508 103.32 98.6508 103.522C98.6508 103.725 98.5494 104.537 98.5494 105.045C98.5614 106.213 98.7321 107.374 99.0568 108.496C99.0568 108.699 99.1583 108.902 99.1583 109.105C99.3521 109.664 99.5897 110.207 99.8688 110.728L100.173 111.134C100.43 111.573 100.776 111.953 101.188 112.251L101.391 112.454L101.899 112.758H102.305L101.899 112.961C100.475 114.068 98.9834 115.085 97.4329 116.006H37.5523C34.8083 115.998 32.1635 114.979 30.123 113.144C28.0824 111.309 26.789 108.787 26.4897 106.06C26.447 105.893 26.4132 105.723 26.3882 105.552C26.3746 104.082 26.6541 102.625 27.2104 101.264C27.7666 99.9034 28.5885 98.6673 29.6279 97.6279C30.6673 96.5885 31.9034 95.7666 33.264 95.2104C34.6246 94.6541 36.0825 94.3746 37.5523 94.3882H103.522Z" fill="#405361"/>
<path d="M103.522 97.4331H102.507L102.102 97.6361H101.493L101.087 97.9406C100.906 98.0219 100.762 98.1663 100.681 98.3465H100.478L100.275 98.651C100.081 98.8493 99.9411 99.0939 99.8687 99.3615H99.7672V99.5644L99.5642 100.072C99.174 100.946 98.901 101.867 98.7523 102.812C98.7523 103.015 98.6508 103.32 98.6508 103.523C98.6508 103.726 98.5493 104.538 98.5493 105.045C98.5613 106.213 98.732 107.374 99.0567 108.496C99.0567 108.699 99.1582 108.902 99.1582 109.105C99.352 109.664 99.5896 110.207 99.8687 110.729L100.173 111.135C100.43 111.573 100.776 111.954 101.188 112.251L101.391 112.454L101.899 112.758H102.305L101.899 112.961H37.5523C35.3989 112.961 33.3337 112.106 31.811 110.583C30.2883 109.061 29.4329 106.995 29.4329 104.842C29.4329 102.689 30.2883 100.623 31.811 99.1008C33.3337 97.5781 35.3989 96.7227 37.5523 96.7227L103.522 97.4331Z" fill="#F2F2F2"/>
<path opacity="0.2" d="M103.522 19.2837V97.4329H102.508L102.102 97.6359H101.493L101.087 97.9404C100.906 98.0218 100.762 98.1661 100.681 98.3464H100.478L100.275 98.6508C100.081 98.8491 99.9412 99.0937 99.8688 99.3613H99.7673V99.5643L99.5643 100.072C99.1741 100.945 98.9011 101.867 98.7523 102.812C98.7523 103.015 98.6508 103.32 98.6508 103.522C98.6508 103.725 98.5494 104.537 98.5494 105.045C98.5614 106.213 98.7321 107.374 99.0568 108.496C99.0568 108.699 99.1583 108.902 99.1583 109.105C99.3521 109.664 99.5897 110.207 99.8688 110.728L100.173 111.134C100.43 111.573 100.776 111.953 101.188 112.251L101.391 112.454L101.899 112.758H102.305L101.899 112.961C100.475 114.068 98.9834 115.085 97.4329 116.006H64.9553V19.2837H103.522Z" fill="#233646"/>
<path d="M94.3882 19.2837V50.3404L83.224 44.7583L72.0598 50.3404V19.2837H94.3882Z" fill="#00CB51"/>
<path d="M93.3732 48.7165L83.224 43.6419L73.0747 48.7165V19.2837H93.3732V48.7165Z" fill="#00AB44"/>
<path d="M84.5435 27.2002H77.1345L80.5853 36.7405H84.5435C85.8086 36.7405 87.0219 36.2379 87.9165 35.3434C88.8111 34.4488 89.3136 33.2355 89.3136 31.9703C89.3136 30.7052 88.8111 29.4919 87.9165 28.5973C87.0219 27.7028 85.8086 27.2002 84.5435 27.2002Z" fill="white"/>
<path opacity="0.2" d="M94.3881 19.2837V50.3404L83.2239 44.7583V19.2837H94.3881Z" fill="#233646"/>
</svg>
