<svg width="686" height="501" viewBox="0 0 686 501" fill="none" xmlns="http://www.w3.org/2000/svg">
<path d="M306.34 357.544L340.18 337.638L374.021 356.549L340.18 376.455L306.34 357.544Z" fill="#06AFFF"/>
<path d="M312.312 357.952L340.181 341.619L368.049 357.136L340.181 373.469L312.312 357.952Z" fill="#0551CA"/>
<path d="M340.18 357.544V341.619L368.049 357.136L340.18 373.469V357.544Z" fill="#052DAC"/>
<path d="M306.34 357.544V397.356L340.18 417.263V376.455L306.34 357.544Z" fill="#2F80ED"/>
<path d="M340.18 376.455L374.021 356.549V396.56L340.18 417.263V376.455Z" fill="#3C8AFE"/>
<path d="M252.907 385.505L286.748 365.598L320.589 384.509L286.748 404.416L252.907 385.505Z" fill="#FF6677"/>
<path d="M258.879 385.913L286.748 369.58L314.617 385.096L286.748 401.43L258.879 385.913Z" fill="#C13647"/>
<path d="M286.748 385.505V369.58L314.617 385.096L286.748 401.43V385.505Z" fill="#A81525"/>
<path d="M252.907 385.505V425.317L286.748 445.224V404.416L252.907 385.505Z" fill="#DE2424"/>
<path d="M286.748 404.416L320.589 384.509V424.521L286.748 445.224V404.416Z" fill="#F32626"/>
<path d="M360.024 385.505L393.865 365.598L427.706 384.509L393.865 404.416L360.024 385.505Z" fill="#FFEE50"/>
<path d="M365.996 385.913L393.865 369.58L421.734 385.096L393.865 401.43L365.996 385.913Z" fill="#FED354"/>
<path d="M393.865 385.505V369.58L421.734 385.096L393.865 401.43V385.505Z" fill="#EEBD43"/>
<path d="M360.024 385.505V425.317L393.865 445.224V404.416L360.024 385.505Z" fill="#DCB616"/>
<path d="M393.865 404.416L427.706 384.509V424.521L393.865 445.224V404.416Z" fill="#FFD215"/>
<path d="M306.34 416.821L340.18 396.914L374.021 415.825L340.18 435.732L306.34 416.821Z" fill="#42E7AA"/>
<path d="M312.312 417.229L340.181 400.896L368.049 416.412L340.181 432.746L312.312 417.229Z" fill="#139565"/>
<path d="M340.18 416.821V400.896L368.049 416.412L340.18 432.746V416.821Z" fill="#117E56"/>
<path d="M306.34 416.821V456.633L340.18 476.54V435.732L306.34 416.821Z" fill="#16A568"/>
<path d="M340.18 435.732L374.021 415.826V455.837L340.18 476.54V435.732Z" fill="#17CE8A"/>
<path fill-rule="evenodd" clip-rule="evenodd" d="M339.738 432.704L259.366 386.289L184.431 24.4767H500.947L421.538 385.171L339.738 432.704Z" fill="url(#paint0_linear)" fill-opacity="0.8"/>
<path d="M533.661 179.347V149.894C532.73 139.827 527.146 130.258 517.84 121.522V150.976C527.146 159.712 532.73 169.28 533.661 179.347ZM513.071 146.815V117.362C509.814 114.7 506.091 112.12 502.136 109.708V139.161C506.091 141.574 509.697 144.153 513.071 146.815ZM495.389 135.167V105.714C491.085 103.384 486.432 101.055 481.43 98.9747V128.428C486.432 130.591 491.085 132.838 495.389 135.167ZM472.124 133.337V86.4113C510.046 100.805 533.777 121.439 533.777 144.236V191.162C533.777 168.365 510.163 147.731 472.124 133.337Z" fill="#646D82"/>
<path d="M402.678 110.872V102.386C399.769 101.97 396.861 101.637 393.837 101.304V109.791C396.861 110.04 399.769 110.456 402.678 110.872ZM386.857 100.472V92.9841C383.833 92.6513 380.808 92.4017 377.784 92.1521V99.6402C380.808 99.973 383.833 100.223 386.857 100.472ZM417.916 104.716V94.565C415.125 94.0657 412.333 93.5665 409.425 93.1505V103.384C412.333 103.8 415.125 104.3 417.916 104.716ZM370.572 99.2242V84.0816C367.431 83.9152 364.406 83.7488 361.266 83.5824V98.6418C364.29 98.8914 367.431 98.9746 370.572 99.2242ZM336.605 98.3922V83.2496C333.464 83.2496 330.207 83.3328 327.066 83.416V98.4754C330.207 98.4754 333.464 98.3922 336.605 98.3922ZM319.737 98.8082V79.8383C316.597 80.0047 313.572 80.1711 310.431 80.3375V99.3074C313.572 99.141 316.597 98.9746 319.737 98.8082ZM353.704 98.4754V76.7599C350.913 76.6767 348.005 76.6767 345.096 76.5935C344.747 76.5935 344.398 76.5935 344.049 76.5935V98.309C344.398 98.309 344.747 98.309 345.096 98.309C348.005 98.3922 350.913 98.3922 353.704 98.4754ZM303.335 99.8898V72.7662C300.311 73.0158 297.286 73.2654 294.378 73.5982V100.722C297.286 100.472 300.311 100.139 303.335 99.8898ZM274.952 70.4365C296.821 67.1085 320.435 65.3613 345.096 65.5277C378.017 65.7773 408.959 69.3549 435.714 75.595V122.521C408.843 116.364 378.017 112.703 345.096 112.453C320.435 112.287 296.705 114.034 274.952 117.362V70.4365V70.4365Z" fill="#646D82"/>
<path d="M154.089 145.795V156.195C157.646 149.233 160.255 147.459 163.396 143.144C167.685 138.849 169.793 136.654 174.912 133.326C180.03 129.998 203.761 116.602 223.303 110.362V101.21C219.814 102.292 216.44 103.457 213.183 104.705C211.554 105.287 209.926 105.953 208.297 106.535C192.244 112.276 175.959 123.425 175.959 123.425C175.959 123.425 156.765 136.227 154.089 145.795ZM151.53 133.742C158.975 110.861 190.383 91.1427 234.82 78.8289V125.755C190.383 138.068 158.975 157.787 151.53 180.667V133.742Z" fill="#646D82"/>
<path d="M154.271 145.734V156.134C157.828 149.172 160.437 147.398 163.578 143.082C167.867 138.787 169.975 136.593 175.094 133.265C180.212 129.937 203.943 116.541 223.485 110.301V101.149C219.996 102.231 216.622 103.395 213.365 104.643C211.736 105.226 210.108 105.891 208.479 106.474C192.426 112.215 176.141 123.364 176.141 123.364C176.141 123.364 156.947 136.166 154.271 145.734Z" fill="#42E7AA"/>
<path opacity="0.7529" d="M518.68 121.399C527.986 130.136 533.57 139.704 534.5 149.771V179.224C533.57 169.157 527.986 159.589 518.68 150.853V121.399Z" fill="#42E7AA"/>
<path d="M502.976 109.502C506.931 111.998 510.653 114.577 513.91 117.156V146.61C510.653 143.947 506.931 141.368 502.976 138.955V109.502Z" fill="#42E7AA"/>
<path opacity="0.7529" d="M482.27 98.8524C487.156 101.016 491.809 103.262 496.229 105.592V135.045C491.925 132.715 487.272 130.386 482.27 128.306V98.8524Z" fill="#42E7AA"/>
<path d="M409.424 93.5948C412.216 94.0108 415.124 94.51 417.916 95.0092V105.243C415.124 104.744 412.332 104.245 409.424 103.829V93.5948Z" fill="#42E7AA"/>
<path opacity="0.7529" d="M393.954 101.665C396.862 101.998 399.886 102.414 402.794 102.747V111.233C399.886 110.817 396.978 110.485 393.954 110.152V101.665Z" fill="#42E7AA"/>
<path d="M377.785 92.6794C380.809 92.929 383.834 93.1786 386.858 93.5114V101C383.834 100.667 380.809 100.417 377.785 100.168V92.6794Z" fill="#42E7AA"/>
<path opacity="0.7529" d="M361.149 83.725C364.29 83.8914 367.431 83.9746 370.455 84.2242V99.2836C367.315 99.1172 364.29 98.9508 361.149 98.7844V83.725Z" fill="#42E7AA"/>
<path opacity="0.7529" d="M344.166 76.6531C344.515 76.6531 344.864 76.6531 345.213 76.6531C348.121 76.6531 350.913 76.7363 353.821 76.8195V98.5351C351.029 98.4519 348.121 98.4519 345.213 98.3687C344.864 98.3687 344.515 98.3687 344.166 98.3687V76.6531Z" fill="#42E7AA"/>
<path d="M327.066 83.5588C330.207 83.4756 333.348 83.3924 336.605 83.3924V98.4518C333.464 98.4518 330.207 98.5351 327.066 98.6183V83.5588Z" fill="#42E7AA"/>
<path opacity="0.7529" d="M310.548 80.4803C313.572 80.3139 316.713 80.0643 319.854 79.9811V98.8679C316.713 99.0343 313.689 99.2007 310.548 99.3671V80.4803Z" fill="#42E7AA"/>
<path d="M294.262 73.6579C297.287 73.3251 300.195 73.0755 303.219 72.8259V99.9496C300.195 100.199 297.17 100.449 294.262 100.782V87.2198V73.6579Z" fill="#42E7AA"/>
<path d="M211.205 263.859V255.955C213.416 256.787 215.742 257.619 218.069 258.451V266.355C215.742 265.523 213.532 264.691 211.205 263.859ZM189.452 253.958V239.315C191.314 240.313 193.175 241.312 195.152 242.227V256.87C193.175 255.872 191.314 254.874 189.452 253.958ZM199.805 259.034V241.811C201.899 242.726 203.993 243.641 206.087 244.557V261.779C203.993 260.864 201.899 259.949 199.805 259.034ZM171.887 242.643V223.507C173.283 224.588 174.795 225.753 176.308 226.835V245.971C174.795 244.806 173.4 243.725 171.887 242.643ZM180.146 248.467V227.75C181.775 228.832 183.52 229.83 185.265 230.828V251.545C183.404 250.547 181.775 249.465 180.146 248.467ZM159.208 230.08V207.615C160.138 208.863 161.185 210.028 162.232 211.193V233.657C161.185 232.492 160.255 231.328 159.208 230.08ZM164.908 236.486V207.282C166.071 208.447 167.351 209.612 168.63 210.777V239.981C167.351 238.816 166.187 237.651 164.908 236.486ZM154.904 223.507V190.476C155.602 191.724 156.3 192.972 157.23 194.22V227.167C156.3 226.003 155.602 224.755 154.904 223.507ZM232.028 230.828C188.173 218.182 157.928 198.213 151.53 175.333V222.259C157.928 245.139 188.173 265.107 232.028 277.754V230.828Z" fill="#3F4658"/>
<path d="M360.684 283.079V272.512C368.245 272.179 375.69 271.763 382.902 271.098V281.664C375.69 282.33 368.245 282.746 360.684 283.079ZM325.204 283.162V263.859C329.741 264.026 334.278 264.109 338.931 264.192C342.072 264.192 345.212 264.192 348.353 264.192V283.495C345.212 283.495 342.072 283.578 338.931 283.495C334.278 283.412 329.741 283.328 325.204 283.162ZM291.005 280.583V251.129C298.1 251.961 305.429 252.544 312.99 253.043V282.496C305.545 282.08 298.217 281.415 291.005 280.583ZM394.651 280.499V249.299C401.747 248.467 408.726 247.468 415.473 246.387V277.504C408.726 278.669 401.747 279.667 394.651 280.499ZM432.922 235.904C405.004 242.06 372.898 245.472 338.931 245.222C315.2 245.056 292.633 243.142 271.811 239.731V286.656C292.633 289.984 315.2 291.981 338.931 292.148C372.898 292.397 405.004 288.986 432.922 282.829V235.904V235.904Z" fill="#3F4658"/>
<path d="M480.035 249.299V240.23C510.629 227.334 530.521 210.111 533.778 190.892V199.961C530.521 219.18 510.629 236.403 480.035 249.299ZM534.243 214.771V167.845C533.312 190.809 508.419 211.276 469.682 225.42V272.346C508.535 258.202 533.312 237.651 534.243 214.771Z" fill="#3F4658"/>
<path d="M533.777 190.892C530.52 210.028 510.628 227.334 480.035 240.23V249.299C510.628 236.403 530.52 219.18 533.777 199.961V190.892Z" fill="#F3F3F3"/>
<path d="M312.991 253.043C305.546 252.544 298.217 251.961 291.005 251.129V280.582C298.101 281.414 305.43 281.997 312.991 282.496V253.043Z" fill="#F3F3F3"/>
<path d="M382.902 271.098C375.574 271.763 368.245 272.179 360.684 272.512V283.079C368.245 282.746 375.69 282.33 382.902 281.664V271.098Z" fill="#F3F3F3"/>
<path d="M415.473 246.054C408.726 247.219 401.746 248.217 394.65 248.966V280.083C401.746 279.251 408.726 278.253 415.473 277.171V246.054Z" fill="#F3F3F3"/>
<path opacity="0.7529" d="M348.354 264.108C345.213 264.108 342.072 264.192 338.932 264.108C334.278 264.108 329.742 263.942 325.205 263.776V283.078C329.742 283.245 334.278 283.328 338.932 283.411C342.072 283.411 345.213 283.411 348.354 283.411V264.108Z" fill="#F3F3F3"/>
<path d="M157.23 194.386C156.416 193.138 155.602 191.89 154.904 190.642V223.59C155.602 224.838 156.3 226.086 157.23 227.334V194.386Z" fill="#F3F3F3"/>
<path d="M162.232 211.442C161.185 210.278 160.138 209.03 159.208 207.865V230.329C160.138 231.577 161.185 232.742 162.232 233.907V211.442Z" fill="#F3F3F3"/>
<path opacity="0.7529" d="M168.747 210.943C167.467 209.778 166.188 208.613 165.024 207.449V236.652C166.188 237.817 167.467 238.982 168.747 240.147V210.943Z" fill="#F3F3F3"/>
<path d="M176.424 226.918C174.912 225.836 173.399 224.754 172.003 223.59V242.726C173.399 243.808 174.912 244.972 176.424 246.054V226.918Z" fill="#F3F3F3"/>
<path d="M185.148 230.995C183.403 229.996 181.659 228.915 180.03 227.916V248.633C181.659 249.715 183.403 250.713 185.148 251.712V230.995Z" fill="#F3F3F3"/>
<path opacity="0.7529" d="M195.152 242.393C193.175 241.478 191.314 240.48 189.452 239.481V254.125C191.314 255.123 193.175 256.121 195.152 257.037V242.393Z" fill="#F3F3F3"/>
<path d="M206.087 244.723C203.993 243.808 201.899 242.893 199.805 241.977V259.2C201.899 260.115 203.993 261.03 206.087 261.946V244.723Z" fill="#F3F3F3"/>
<path opacity="0.7529" d="M218.069 258.535C215.742 257.703 213.532 256.871 211.205 256.039V263.943C213.416 264.775 215.742 265.607 218.069 266.439V258.535Z" fill="#F3F3F3"/>
<defs>
<linearGradient id="paint0_linear" x1="331.157" y1="138.557" x2="331.157" y2="434.394" gradientUnits="userSpaceOnUse">
<stop stop-color="white" stop-opacity="0"/>
<stop offset="0.862563" stop-color="#C4C4C4" stop-opacity="0.43"/>
<stop offset="1" stop-color="#C4C4C4" stop-opacity="0"/>
</linearGradient>
</defs>
</svg>
