<svg width="682" height="432" viewBox="0 0 682 432" fill="none" xmlns="http://www.w3.org/2000/svg">
<path d="M3.86608 371.807C3.86608 372.874 3.00094 373.74 1.93335 373.74C0.865752 373.74 1.03239e-08 372.874 2.30549e-08 371.807C3.5786e-08 370.739 0.865746 369.874 1.93335 369.874C3.00095 369.874 3.86608 370.739 3.86608 371.807Z" fill="white"/>
<path d="M18.4248 371.807C18.4248 372.874 17.5595 373.74 16.4919 373.74C15.4243 373.74 14.5586 372.874 14.5586 371.807C14.5586 370.739 15.4243 369.874 16.4919 369.874C17.5595 369.874 18.4248 370.739 18.4248 371.807Z" fill="white"/>
<path d="M32.9834 371.807C32.9834 372.874 32.1183 373.74 31.0507 373.74C29.9831 373.74 29.1172 372.874 29.1172 371.807C29.1172 370.739 29.9831 369.874 31.0507 369.874C32.1183 369.874 32.9834 370.739 32.9834 371.807Z" fill="white"/>
<path d="M47.5419 371.807C47.5419 372.874 46.6767 373.74 45.6091 373.74C44.5415 373.74 43.6758 372.874 43.6758 371.807C43.6758 370.739 44.5415 369.874 45.6091 369.874C46.6767 369.874 47.5419 370.739 47.5419 371.807Z" fill="white"/>
<path d="M62.1005 371.807C62.1005 372.874 61.2353 373.74 60.1677 373.74C59.1001 373.74 58.2344 372.874 58.2344 371.807C58.2344 370.739 59.1001 369.874 60.1677 369.874C61.2353 369.874 62.1005 370.739 62.1005 371.807Z" fill="white"/>
<path d="M76.6592 371.807C76.6592 372.874 75.7939 373.74 74.7263 373.74C73.6587 373.74 72.793 372.874 72.793 371.807C72.793 370.739 73.6587 369.874 74.7263 369.874C75.7939 369.874 76.6592 370.739 76.6592 371.807Z" fill="white"/>
<path d="M3.86608 393.604C3.86608 394.671 3.00094 395.537 1.93335 395.537C0.865752 395.537 1.03239e-08 394.671 2.30549e-08 393.604C3.5786e-08 392.536 0.865746 391.67 1.93335 391.67C3.00095 391.67 3.86608 392.536 3.86608 393.604Z" fill="white"/>
<path d="M18.4248 393.604C18.4248 394.671 17.5595 395.537 16.4919 395.537C15.4243 395.537 14.5586 394.671 14.5586 393.604C14.5586 392.536 15.4243 391.67 16.4919 391.67C17.5595 391.67 18.4248 392.536 18.4248 393.604Z" fill="white"/>
<path d="M32.9834 393.604C32.9834 394.671 32.1183 395.537 31.0507 395.537C29.9831 395.537 29.1172 394.671 29.1172 393.604C29.1172 392.536 29.9831 391.67 31.0507 391.67C32.1183 391.67 32.9834 392.536 32.9834 393.604Z" fill="white"/>
<path d="M47.5419 393.604C47.5419 394.671 46.6767 395.537 45.6091 395.537C44.5415 395.537 43.6758 394.671 43.6758 393.604C43.6758 392.536 44.5415 391.67 45.6091 391.67C46.6767 391.67 47.5419 392.536 47.5419 393.604Z" fill="white"/>
<path d="M62.1005 393.604C62.1005 394.671 61.2353 395.537 60.1677 395.537C59.1001 395.537 58.2344 394.671 58.2344 393.604C58.2344 392.536 59.1001 391.67 60.1677 391.67C61.2353 391.67 62.1005 392.536 62.1005 393.604Z" fill="white"/>
<path d="M76.6592 393.604C76.6592 394.671 75.7939 395.537 74.7263 395.537C73.6587 395.537 72.793 394.671 72.793 393.604C72.793 392.536 73.6587 391.67 74.7263 391.67C75.7939 391.67 76.6592 392.536 76.6592 393.604Z" fill="white"/>
<path d="M3.86608 415.401C3.86608 416.468 3.00094 417.334 1.93335 417.334C0.865752 417.334 1.03239e-08 416.468 2.30549e-08 415.401C3.5786e-08 414.333 0.865746 413.467 1.93335 413.467C3.00095 413.467 3.86608 414.333 3.86608 415.401Z" fill="white"/>
<path d="M18.4248 415.401C18.4248 416.468 17.5595 417.334 16.4919 417.334C15.4243 417.334 14.5586 416.468 14.5586 415.401C14.5586 414.333 15.4243 413.467 16.4919 413.467C17.5595 413.467 18.4248 414.333 18.4248 415.401Z" fill="white"/>
<path d="M32.9834 415.401C32.9834 416.468 32.1183 417.334 31.0507 417.334C29.9831 417.334 29.1172 416.468 29.1172 415.401C29.1172 414.333 29.9831 413.467 31.0507 413.467C32.1183 413.467 32.9834 414.333 32.9834 415.401Z" fill="white"/>
<path d="M47.5419 415.401C47.5419 416.468 46.6767 417.334 45.6091 417.334C44.5415 417.334 43.6758 416.468 43.6758 415.401C43.6758 414.333 44.5415 413.467 45.6091 413.467C46.6767 413.467 47.5419 414.333 47.5419 415.401Z" fill="white"/>
<path d="M62.1005 415.401C62.1005 416.468 61.2353 417.334 60.1677 417.334C59.1001 417.334 58.2344 416.468 58.2344 415.401C58.2344 414.333 59.1001 413.467 60.1677 413.467C61.2353 413.467 62.1005 414.333 62.1005 415.401Z" fill="white"/>
<path d="M76.6592 415.401C76.6592 416.468 75.7939 417.334 74.7263 417.334C73.6587 417.334 72.793 416.468 72.793 415.401C72.793 414.333 73.6587 413.467 74.7263 413.467C75.7939 413.467 76.6592 414.333 76.6592 415.401Z" fill="white"/>
<path d="M91.7626 371.807C91.7626 372.874 90.8974 373.74 89.8298 373.74C88.7622 373.74 87.8965 372.874 87.8965 371.807C87.8965 370.739 88.7622 369.874 89.8298 369.874C90.8974 369.874 91.7626 370.739 91.7626 371.807Z" fill="white"/>
<path d="M106.321 371.807C106.321 372.874 105.456 373.74 104.388 373.74C103.321 373.74 102.455 372.874 102.455 371.807C102.455 370.739 103.321 369.874 104.388 369.874C105.456 369.874 106.321 370.739 106.321 371.807Z" fill="white"/>
<path d="M120.88 371.807C120.88 372.874 120.015 373.74 118.947 373.74C117.88 373.74 117.014 372.874 117.014 371.807C117.014 370.739 117.88 369.874 118.947 369.874C120.015 369.874 120.88 370.739 120.88 371.807Z" fill="white"/>
<path d="M135.438 371.807C135.438 372.874 134.573 373.74 133.506 373.74C132.438 373.74 131.572 372.874 131.572 371.807C131.572 370.739 132.438 369.874 133.506 369.874C134.573 369.874 135.438 370.739 135.438 371.807Z" fill="white"/>
<path d="M149.997 371.807C149.997 372.874 149.132 373.74 148.064 373.74C146.997 373.74 146.131 372.874 146.131 371.807C146.131 370.739 146.997 369.874 148.064 369.874C149.132 369.874 149.997 370.739 149.997 371.807Z" fill="white"/>
<path d="M164.556 371.807C164.556 372.874 163.69 373.74 162.623 373.74C161.555 373.74 160.689 372.874 160.689 371.807C160.689 370.739 161.555 369.874 162.623 369.874C163.69 369.874 164.556 370.739 164.556 371.807Z" fill="white"/>
<path d="M91.7626 393.604C91.7626 394.671 90.8974 395.537 89.8298 395.537C88.7622 395.537 87.8965 394.671 87.8965 393.604C87.8965 392.536 88.7622 391.67 89.8298 391.67C90.8974 391.67 91.7626 392.536 91.7626 393.604Z" fill="white"/>
<path d="M106.321 393.604C106.321 394.671 105.456 395.537 104.388 395.537C103.321 395.537 102.455 394.671 102.455 393.604C102.455 392.536 103.321 391.67 104.388 391.67C105.456 391.67 106.321 392.536 106.321 393.604Z" fill="white"/>
<path d="M120.88 393.604C120.88 394.671 120.015 395.537 118.947 395.537C117.88 395.537 117.014 394.671 117.014 393.604C117.014 392.536 117.88 391.67 118.947 391.67C120.015 391.67 120.88 392.536 120.88 393.604Z" fill="white"/>
<path d="M135.438 393.604C135.438 394.671 134.573 395.537 133.506 395.537C132.438 395.537 131.572 394.671 131.572 393.604C131.572 392.536 132.438 391.67 133.506 391.67C134.573 391.67 135.438 392.536 135.438 393.604Z" fill="white"/>
<path d="M149.997 393.604C149.997 394.671 149.132 395.537 148.064 395.537C146.997 395.537 146.131 394.671 146.131 393.604C146.131 392.536 146.997 391.67 148.064 391.67C149.132 391.67 149.997 392.536 149.997 393.604Z" fill="white"/>
<path d="M164.556 393.604C164.556 394.671 163.69 395.537 162.623 395.537C161.555 395.537 160.689 394.671 160.689 393.604C160.689 392.536 161.555 391.67 162.623 391.67C163.69 391.67 164.556 392.536 164.556 393.604Z" fill="white"/>
<path d="M91.7626 415.401C91.7626 416.468 90.8974 417.334 89.8298 417.334C88.7622 417.334 87.8965 416.468 87.8965 415.401C87.8965 414.333 88.7622 413.467 89.8298 413.467C90.8974 413.467 91.7626 414.333 91.7626 415.401Z" fill="white"/>
<path d="M106.321 415.401C106.321 416.468 105.456 417.334 104.388 417.334C103.321 417.334 102.455 416.468 102.455 415.401C102.455 414.333 103.321 413.467 104.388 413.467C105.456 413.467 106.321 414.333 106.321 415.401Z" fill="white"/>
<path d="M120.88 415.401C120.88 416.468 120.015 417.334 118.947 417.334C117.88 417.334 117.014 416.468 117.014 415.401C117.014 414.333 117.88 413.467 118.947 413.467C120.015 413.467 120.88 414.333 120.88 415.401Z" fill="white"/>
<path d="M135.438 415.401C135.438 416.468 134.573 417.334 133.506 417.334C132.438 417.334 131.572 416.468 131.572 415.401C131.572 414.333 132.438 413.467 133.506 413.467C134.573 413.467 135.438 414.333 135.438 415.401Z" fill="white"/>
<path d="M149.997 415.401C149.997 416.468 149.132 417.334 148.064 417.334C146.997 417.334 146.131 416.468 146.131 415.401C146.131 414.333 146.997 413.467 148.064 413.467C149.132 413.467 149.997 414.333 149.997 415.401Z" fill="white"/>
<path d="M164.556 415.401C164.556 416.468 163.69 417.334 162.623 417.334C161.555 417.334 160.689 416.468 160.689 415.401C160.689 414.333 161.555 413.467 162.623 413.467C163.69 413.467 164.556 414.333 164.556 415.401Z" fill="white"/>
<path d="M1.93384 310.562C3.00144 310.562 3.86719 311.427 3.86719 312.494C3.86719 313.562 3.00144 314.428 1.93384 314.428C0.866237 314.428 0.000491115 313.562 0.000491081 312.494C0.000491047 311.427 0.866243 310.562 1.93384 310.562Z" fill="white"/>
<path d="M1.93384 296.003C3.00144 296.003 3.86719 296.868 3.86719 297.936C3.86719 299.003 3.00144 299.869 1.93384 299.869C0.866237 299.869 0.000491115 299.003 0.000491081 297.936C0.000491047 296.868 0.866243 296.003 1.93384 296.003Z" fill="white"/>
<path d="M1.93384 281.444C3.00144 281.444 3.86719 282.309 3.86719 283.377C3.86719 284.445 3.00144 285.311 1.93384 285.311C0.866237 285.311 0.000491115 284.445 0.000491081 283.377C0.000491047 282.309 0.866243 281.444 1.93384 281.444Z" fill="white"/>
<path d="M1.93384 266.886C3.00144 266.886 3.86719 267.751 3.86719 268.819C3.86719 269.886 3.00144 270.752 1.93384 270.752C0.866237 270.752 0.000491115 269.886 0.000491081 268.819C0.000491047 267.751 0.866243 266.886 1.93384 266.886Z" fill="white"/>
<path d="M1.93384 252.327C3.00144 252.327 3.86719 253.192 3.86719 254.26C3.86719 255.328 3.00144 256.193 1.93384 256.193C0.866237 256.193 0.000491115 255.328 0.000491081 254.26C0.000491047 253.192 0.866243 252.327 1.93384 252.327Z" fill="white"/>
<path d="M1.93384 237.769C3.00144 237.769 3.86719 238.634 3.86719 239.701C3.86719 240.769 3.00144 241.635 1.93384 241.635C0.866237 241.635 0.000491115 240.769 0.000491081 239.701C0.000491047 238.634 0.866243 237.769 1.93384 237.769Z" fill="white"/>
<path d="M23.7307 310.562C24.7983 310.562 25.6641 311.427 25.6641 312.494C25.6641 313.562 24.7983 314.428 23.7307 314.428C22.6631 314.428 21.7974 313.562 21.7974 312.494C21.7974 311.427 22.6631 310.562 23.7307 310.562Z" fill="white"/>
<path d="M23.7307 296.003C24.7983 296.003 25.6641 296.868 25.6641 297.936C25.6641 299.003 24.7983 299.869 23.7307 299.869C22.6631 299.869 21.7974 299.003 21.7974 297.936C21.7974 296.868 22.6631 296.003 23.7307 296.003Z" fill="white"/>
<path d="M23.7307 281.444C24.7983 281.444 25.6641 282.309 25.6641 283.377C25.6641 284.445 24.7983 285.311 23.7307 285.311C22.6631 285.311 21.7974 284.445 21.7974 283.377C21.7974 282.309 22.6631 281.444 23.7307 281.444Z" fill="white"/>
<path d="M23.7307 266.886C24.7983 266.886 25.6641 267.751 25.6641 268.819C25.6641 269.886 24.7983 270.752 23.7307 270.752C22.6631 270.752 21.7974 269.886 21.7974 268.819C21.7974 267.751 22.6631 266.886 23.7307 266.886Z" fill="white"/>
<path d="M23.7307 252.327C24.7983 252.327 25.6641 253.192 25.6641 254.26C25.6641 255.328 24.7983 256.193 23.7307 256.193C22.6631 256.193 21.7974 255.328 21.7974 254.26C21.7974 253.192 22.6631 252.327 23.7307 252.327Z" fill="white"/>
<path d="M23.7307 237.769C24.7983 237.769 25.6641 238.634 25.6641 239.701C25.6641 240.769 24.7983 241.635 23.7307 241.635C22.6631 241.635 21.7974 240.769 21.7974 239.701C21.7974 238.634 22.6631 237.769 23.7307 237.769Z" fill="white"/>
<path d="M45.5276 310.562C46.5952 310.562 47.4609 311.427 47.4609 312.494C47.4609 313.562 46.5952 314.428 45.5276 314.428C44.46 314.428 43.5942 313.562 43.5942 312.494C43.5942 311.427 44.46 310.562 45.5276 310.562Z" fill="white"/>
<path d="M45.5276 296.003C46.5952 296.003 47.4609 296.868 47.4609 297.936C47.4609 299.003 46.5952 299.869 45.5276 299.869C44.46 299.869 43.5942 299.003 43.5942 297.936C43.5942 296.868 44.46 296.003 45.5276 296.003Z" fill="white"/>
<path d="M45.5276 281.444C46.5952 281.444 47.4609 282.309 47.4609 283.377C47.4609 284.445 46.5952 285.311 45.5276 285.311C44.46 285.311 43.5942 284.445 43.5942 283.377C43.5942 282.309 44.46 281.444 45.5276 281.444Z" fill="white"/>
<path d="M45.5276 266.886C46.5952 266.886 47.4609 267.751 47.4609 268.819C47.4609 269.886 46.5952 270.752 45.5276 270.752C44.46 270.752 43.5942 269.886 43.5942 268.819C43.5942 267.751 44.46 266.886 45.5276 266.886Z" fill="white"/>
<path d="M45.5276 252.327C46.5952 252.327 47.4609 253.192 47.4609 254.26C47.4609 255.328 46.5952 256.193 45.5276 256.193C44.46 256.193 43.5942 255.328 43.5942 254.26C43.5942 253.192 44.46 252.327 45.5276 252.327Z" fill="white"/>
<path d="M45.5276 237.769C46.5952 237.769 47.4609 238.634 47.4609 239.701C47.4609 240.769 46.5952 241.635 45.5276 241.635C44.46 241.635 43.5942 240.769 43.5942 239.701C43.5942 238.634 44.46 237.769 45.5276 237.769Z" fill="white"/>
<path d="M1.93384 222.665C3.00144 222.665 3.86719 223.53 3.86719 224.598C3.86719 225.665 3.00144 226.531 1.93384 226.531C0.866237 226.531 0.000491115 225.666 0.000491081 224.598C0.000491047 223.53 0.866243 222.665 1.93384 222.665Z" fill="white"/>
<path d="M1.93384 208.106C3.00144 208.106 3.86719 208.972 3.86719 210.039C3.86719 211.107 3.00144 211.973 1.93384 211.973C0.866237 211.973 0.000491115 211.107 0.000491081 210.039C0.000491047 208.972 0.866243 208.106 1.93384 208.106Z" fill="white"/>
<path d="M1.93384 193.548C3.00144 193.548 3.86719 194.413 3.86719 195.481C3.86719 196.548 3.00144 197.414 1.93384 197.414C0.866237 197.414 0.000491115 196.548 0.000491081 195.481C0.000491047 194.413 0.866243 193.548 1.93384 193.548Z" fill="white"/>
<path d="M1.93384 178.989C3.00144 178.989 3.86719 179.855 3.86719 180.922C3.86719 181.99 3.00144 182.855 1.93384 182.855C0.866237 182.855 0.000491115 181.99 0.000491081 180.922C0.000491047 179.855 0.866243 178.989 1.93384 178.989Z" fill="white"/>
<path d="M1.93384 164.431C3.00144 164.431 3.86719 165.296 3.86719 166.364C3.86719 167.431 3.00144 168.297 1.93384 168.297C0.866237 168.297 0.000491115 167.431 0.000491081 166.364C0.000491047 165.296 0.866243 164.431 1.93384 164.431Z" fill="white"/>
<path d="M1.93384 149.872C3.00144 149.872 3.86719 150.737 3.86719 151.805C3.86719 152.873 3.00144 153.738 1.93384 153.738C0.866237 153.738 0.000491115 152.873 0.000491081 151.805C0.000491047 150.737 0.866243 149.872 1.93384 149.872Z" fill="white"/>
<path d="M23.7307 222.665C24.7983 222.665 25.6641 223.53 25.6641 224.598C25.6641 225.665 24.7983 226.531 23.7307 226.531C22.6631 226.531 21.7974 225.666 21.7974 224.598C21.7974 223.53 22.6631 222.665 23.7307 222.665Z" fill="white"/>
<path d="M23.7307 208.106C24.7983 208.106 25.6641 208.972 25.6641 210.039C25.6641 211.107 24.7983 211.973 23.7307 211.973C22.6631 211.973 21.7974 211.107 21.7974 210.039C21.7974 208.972 22.6631 208.106 23.7307 208.106Z" fill="white"/>
<path d="M23.7307 193.548C24.7983 193.548 25.6641 194.413 25.6641 195.481C25.6641 196.548 24.7983 197.414 23.7307 197.414C22.6631 197.414 21.7974 196.548 21.7974 195.481C21.7974 194.413 22.6631 193.548 23.7307 193.548Z" fill="white"/>
<path d="M23.7307 178.989C24.7983 178.989 25.6641 179.855 25.6641 180.922C25.6641 181.99 24.7983 182.855 23.7307 182.855C22.6631 182.855 21.7974 181.99 21.7974 180.922C21.7974 179.855 22.6631 178.989 23.7307 178.989Z" fill="white"/>
<path d="M23.7307 164.431C24.7983 164.431 25.6641 165.296 25.6641 166.364C25.6641 167.431 24.7983 168.297 23.7307 168.297C22.6631 168.297 21.7974 167.431 21.7974 166.364C21.7974 165.296 22.6631 164.431 23.7307 164.431Z" fill="white"/>
<path d="M23.7307 149.872C24.7983 149.872 25.6641 150.737 25.6641 151.805C25.6641 152.873 24.7983 153.738 23.7307 153.738C22.6631 153.738 21.7974 152.873 21.7974 151.805C21.7974 150.737 22.6631 149.872 23.7307 149.872Z" fill="white"/>
<path d="M45.5276 222.665C46.5952 222.665 47.4609 223.53 47.4609 224.598C47.4609 225.665 46.5952 226.531 45.5276 226.531C44.46 226.531 43.5942 225.666 43.5942 224.598C43.5942 223.53 44.46 222.665 45.5276 222.665Z" fill="white"/>
<path d="M45.5276 208.106C46.5952 208.106 47.4609 208.972 47.4609 210.039C47.4609 211.107 46.5952 211.973 45.5276 211.973C44.46 211.973 43.5942 211.107 43.5942 210.039C43.5942 208.972 44.46 208.106 45.5276 208.106Z" fill="white"/>
<path d="M45.5276 193.548C46.5952 193.548 47.4609 194.413 47.4609 195.481C47.4609 196.548 46.5952 197.414 45.5276 197.414C44.46 197.414 43.5942 196.548 43.5942 195.481C43.5942 194.413 44.46 193.548 45.5276 193.548Z" fill="white"/>
<path d="M45.5276 178.989C46.5952 178.989 47.4609 179.855 47.4609 180.922C47.4609 181.99 46.5952 182.855 45.5276 182.855C44.46 182.855 43.5942 181.99 43.5942 180.922C43.5942 179.855 44.46 178.989 45.5276 178.989Z" fill="white"/>
<path d="M45.5276 164.431C46.5952 164.431 47.4609 165.296 47.4609 166.364C47.4609 167.431 46.5952 168.297 45.5276 168.297C44.46 168.297 43.5942 167.431 43.5942 166.364C43.5942 165.296 44.46 164.431 45.5276 164.431Z" fill="white"/>
<path d="M45.5276 149.872C46.5952 149.872 47.4609 150.737 47.4609 151.805C47.4609 152.873 46.5952 153.738 45.5276 153.738C44.46 153.738 43.5942 152.873 43.5942 151.805C43.5942 150.737 44.46 149.872 45.5276 149.872Z" fill="white"/>
<path d="M102 3.99999C102 2.34314 103.343 1 105 1H538.04C539.697 1 541.04 2.34315 541.04 4V292.232C541.04 293.889 539.697 295.232 538.04 295.232H105C103.343 295.232 102 293.889 102 292.232V3.99999Z" fill="#1A1A1A" stroke="white" stroke-width="2"/>
<path d="M101.5 4C101.5 2.067 103.067 0.5 105 0.5H538.04C539.973 0.5 541.54 2.067 541.54 4V17.1416H101.5V4Z" fill="white" stroke="white"/>
<circle cx="109.085" cy="8.08537" r="1.47013" fill="#00AB4E"/>
<circle cx="114.966" cy="8.08537" r="1.47013" fill="#00AB4E"/>
<circle cx="120.847" cy="8.08537" r="1.47013" fill="#00AB4E"/>
<path d="M102 14.1035H145.862V295.136H105C103.343 295.136 102 293.793 102 292.136V14.1035Z" stroke="white" stroke-width="2"/>
<path d="M109.556 47.062C109.556 48.141 108.685 49.0108 107.616 49.0108C106.547 49.0108 105.676 48.141 105.676 47.062C105.676 45.983 106.547 45.1133 107.616 45.1133C108.685 45.1133 109.556 45.983 109.556 47.062Z" stroke="white" stroke-width="2"/>
<rect x="114.233" y="46.3251" width="15.4322" height="1.47438" stroke="white" stroke-width="1.47438"/>
<path d="M109.556 58.857C109.556 59.936 108.685 60.8057 107.616 60.8057C106.547 60.8057 105.676 59.936 105.676 58.857C105.676 57.778 106.547 56.9082 107.616 56.9082C108.685 56.9082 109.556 57.778 109.556 58.857Z" stroke="white" stroke-width="2"/>
<rect x="114.233" y="58.12" width="22.7828" height="1.47438" stroke="white" stroke-width="1.47438"/>
<path d="M109.556 70.6519C109.556 71.7309 108.685 72.6006 107.616 72.6006C106.547 72.6006 105.676 71.7309 105.676 70.6519C105.676 69.5729 106.547 68.7031 107.616 68.7031C108.685 68.7031 109.556 69.5729 109.556 70.6519Z" stroke="white" stroke-width="2"/>
<rect x="114.233" y="69.9149" width="19.1075" height="1.47438" stroke="white" stroke-width="1.47438"/>
<path d="M109.556 82.4468C109.556 83.5258 108.685 84.3956 107.616 84.3956C106.547 84.3956 105.676 83.5258 105.676 82.4468C105.676 81.3678 106.547 80.498 107.616 80.498C108.685 80.498 109.556 81.3678 109.556 82.4468Z" stroke="white" stroke-width="2"/>
<rect x="114.233" y="81.7098" width="11.7568" height="1.47438" stroke="white" stroke-width="1.47438"/>
<path d="M109.556 94.2417C109.556 95.3207 108.685 96.1905 107.616 96.1905C106.547 96.1905 105.676 95.3207 105.676 94.2417C105.676 93.1627 106.547 92.293 107.616 92.293C108.685 92.293 109.556 93.1627 109.556 94.2417Z" stroke="white" stroke-width="2"/>
<rect x="114.233" y="93.5048" width="21.3127" height="1.47438" stroke="white" stroke-width="1.47438"/>
<rect x="108.553" y="277.48" width="29.4481" height="11.1034" stroke="white" stroke-width="2"/>
<rect x="500.877" y="20.9648" width="35.2832" height="11.7611" fill="white"/>
<rect x="153.414" y="20.9648" width="35.3791" height="6.55168" fill="white"/>
<rect x="106.24" y="20.9648" width="35.3791" height="6.55168" fill="white"/>
<rect x="156.033" y="51.1035" width="11.793" height="2.62067" fill="white"/>
<rect x="205.826" y="51.1035" width="11.793" height="2.62067" fill="white"/>
<rect x="270.033" y="51.1035" width="11.793" height="2.62067" fill="white"/>
<rect x="336.861" y="51.1035" width="11.793" height="2.62067" fill="white"/>
<rect x="398.447" y="51.1035" width="11.793" height="2.62067" fill="white"/>
<rect x="465.273" y="52.4141" width="11.793" height="2.62067" fill="white"/>
<rect x="154.414" y="63.8965" width="370.135" height="24.2067" stroke="white" stroke-width="2"/>
<path d="M204.873 78.2006L203.51 78.5215V88.3326H260.14L260.761 77.2378H259.398H258.035L256.672 78.2006L255.309 76.9628L253.946 76L252.583 76.7335L251.219 77.7421L249.856 78.2006L248.493 77.3525L247.13 76L245.767 76.4585L244.404 79.5531L243.041 79.8281H241.677L240.314 76.7335H238.951L237.588 76L236.225 76.2751L234.862 79.6677L233.499 79.3926L232.136 76.2751L230.772 76.4585L229.409 76.2751L228.046 76.7335L226.683 76.2751L225.32 76.7335L223.957 79.0717L222.594 78.8425L221.23 78.3381H219.867L218.504 79.3009L217.141 79.6218L216.528 80.0803L215.778 78.5215L214.415 78.2006L213.052 78.98L211.97 78.7278L210.325 77.2378L208.962 78.5215L207.599 78.384L206.236 77.6275L204.873 78.2006Z" stroke="white" stroke-width="2"/>
<path d="M271.292 81.0809L270.064 80.3346V88.3326H327.316V79.3173L326.513 78.9661L325.475 79.3173L323.562 78.9661L321.067 78.4393L319.763 79.3173L317.422 78.9661L314.793 82.0885L313.008 81.0347L311.204 82.0885L309.055 78.4393L307.098 77.3856L305.947 76.6152L304.414 79.6663L304.154 80.72L303.261 81.0273L302.109 76L301.303 76.922L299.845 77.4927L298.655 76.6147L297.365 77.4927L296.024 77.1415L294.741 76.2161L292.556 78.8954L291.133 79.4223L289.368 79.7735L286.912 79.4223L285.299 77.8879L282.099 76.922L279.201 77.4927L276.866 80.6858L274.92 81.0809L271.292 78.4393V81.0809Z" stroke="white" stroke-width="2"/>
<path d="M390.546 81.6577L393.871 81.1174V88.3326H336.62V81.9438H337.613H338.798L339.639 81.6577H340.289L341.473 81.4034L342.391 81.6577L345.524 81.4034L346.48 78.9242L347.894 79.3374H349.346L351.831 78.7017L354.047 77.5257L355.003 78.7017L357.296 76.7311L359.36 76.4132L360.048 76L361.003 79.4646L361.232 80.2274L361.844 80.8631L363.373 80.6088L363.908 80.8631L365.398 78.5746H365.971L367.233 77.8117L368.341 79.6553L369.87 79.2739H370.863L372.01 79.4963L373.386 79.6553L376.099 82.9609L377.819 83.247L380.724 84.0098L383.285 84.423L385.348 81.3717L387.068 81.6577L389.285 81.3717L390.546 81.6577Z" stroke="white" stroke-width="2"/>
<path d="M400.244 78.2006L398.881 78.5215V88.3326H455.511L456.132 77.2378H454.769H453.406L452.043 78.2006L450.68 76.9628L449.317 76L447.954 76.7335L446.591 77.7421L445.227 78.2006L443.864 77.3525L442.501 76L441.138 76.4585L439.775 79.5531L438.412 79.8281H437.049L435.685 76.7335H434.322L432.959 76L431.596 76.2751L430.233 79.6677L428.87 79.3926L427.507 76.2751L426.144 76.4585L424.78 76.2751L423.417 76.7335L422.054 76.2751L420.691 76.7335L419.328 79.0717L417.965 78.8425L416.602 78.3381H415.238L413.875 79.3009L412.512 79.6218L411.899 80.0803L411.149 78.5215L409.786 78.2006L408.423 78.98L407.341 78.7278L405.697 77.2378L404.333 78.5215L402.97 78.384L401.607 77.6275L400.244 78.2006Z" stroke="white" stroke-width="2"/>
<path d="M466.663 81.0809L465.436 80.3346V88.3326H522.687V79.3173L521.884 78.9661L520.846 79.3173L518.933 78.9661L516.439 78.4393L515.134 79.3173L512.793 78.9661L510.164 82.0885L508.379 81.0347L506.575 82.0885L504.427 78.4393L502.469 77.3856L501.318 76.6152L499.785 79.6663L499.526 80.72L498.632 81.0273L497.48 76L496.674 76.922L495.216 77.4927L494.026 76.6147L492.736 77.4927L491.395 77.1415L490.112 76.2161L487.927 78.8954L486.505 79.4223L484.739 79.7735L482.283 79.4223L480.67 77.8879L477.47 76.922L474.573 77.4927L472.237 80.6858L470.291 81.0809L466.663 78.4393V81.0809Z" stroke="white" stroke-width="2"/>
<rect x="156.992" y="72.916" width="4.29387" height="4.62471" fill="#00AB4E"/>
<rect x="162.717" y="72.916" width="25.7632" height="3.08314" fill="#00AB4E"/>
<rect x="162.717" y="77.541" width="11.4503" height="1.54157" fill="#808080"/>
<path d="M532.028 74.7616V77.3095H533.484V74.7616H536.032V73.3057H533.484V70.7578H532.028V73.3057H529.48V74.7616H532.028Z" fill="black"/>
<rect x="154.414" y="95.3438" width="370.135" height="24.2067" stroke="white" stroke-width="2"/>
<path d="M204.873 109.648L203.51 109.969V119.78H260.14L260.761 108.685H259.398H258.035L256.672 109.648L255.309 108.41L253.946 107.447L252.583 108.181L251.219 109.189L249.856 109.648L248.493 108.8L247.13 107.447L245.767 107.906L244.404 111L243.041 111.275H241.677L240.314 108.181H238.951L237.588 107.447L236.225 107.722L234.862 111.115L233.499 110.84L232.136 107.722L230.772 107.906L229.409 107.722L228.046 108.181L226.683 107.722L225.32 108.181L223.957 110.519L222.594 110.29L221.23 109.785H219.867L218.504 110.748L217.141 111.069L216.528 111.528L215.778 109.969L214.415 109.648L213.052 110.427L211.97 110.175L210.325 108.685L208.962 109.969L207.599 109.831L206.236 109.075L204.873 109.648Z" stroke="white" stroke-width="2"/>
<path d="M271.292 112.528L270.064 111.782V119.78H327.316V110.765L326.513 110.413L325.475 110.765L323.562 110.413L321.067 109.887L319.763 110.765L317.422 110.413L314.793 113.536L313.008 112.482L311.204 113.536L309.055 109.887L307.098 108.833L305.947 108.062L304.414 111.114L304.154 112.167L303.261 112.475L302.109 107.447L301.303 108.369L299.845 108.94L298.655 108.062L297.365 108.94L296.024 108.589L294.741 107.663L292.556 110.343L291.133 110.87L289.368 111.221L286.912 110.87L285.299 109.335L282.099 108.369L279.201 108.94L276.866 112.133L274.92 112.528L271.292 109.887V112.528Z" stroke="white" stroke-width="2"/>
<path d="M390.546 113.105L393.871 112.565V119.78H336.62V113.391H337.613H338.798L339.639 113.105H340.289L341.473 112.851L342.391 113.105L345.524 112.851L346.48 110.371L347.894 110.785H349.346L351.831 110.149L354.047 108.973L355.003 110.149L357.296 108.178L359.36 107.86L360.048 107.447L361.003 110.912L361.232 111.675L361.844 112.31L363.373 112.056L363.908 112.31L365.398 110.022H365.971L367.233 109.259L368.341 111.103L369.87 110.721H370.863L372.01 110.944L373.386 111.103L376.099 114.408L377.819 114.694L380.724 115.457L383.285 115.87L385.348 112.819L387.068 113.105L389.285 112.819L390.546 113.105Z" stroke="white" stroke-width="2"/>
<path d="M400.244 109.648L398.881 109.969V119.78H455.511L456.132 108.685H454.769H453.406L452.043 109.648L450.68 108.41L449.317 107.447L447.954 108.181L446.591 109.189L445.227 109.648L443.864 108.8L442.501 107.447L441.138 107.906L439.775 111L438.412 111.275H437.049L435.685 108.181H434.322L432.959 107.447L431.596 107.722L430.233 111.115L428.87 110.84L427.507 107.722L426.144 107.906L424.78 107.722L423.417 108.181L422.054 107.722L420.691 108.181L419.328 110.519L417.965 110.29L416.602 109.785H415.238L413.875 110.748L412.512 111.069L411.899 111.528L411.149 109.969L409.786 109.648L408.423 110.427L407.341 110.175L405.697 108.685L404.333 109.969L402.97 109.831L401.607 109.075L400.244 109.648Z" stroke="white" stroke-width="2"/>
<path d="M466.663 112.528L465.436 111.782V119.78H522.687V110.765L521.884 110.413L520.846 110.765L518.933 110.413L516.439 109.887L515.134 110.765L512.793 110.413L510.164 113.536L508.379 112.482L506.575 113.536L504.427 109.887L502.469 108.833L501.318 108.062L499.785 111.114L499.526 112.167L498.632 112.475L497.48 107.447L496.674 108.369L495.216 108.94L494.026 108.062L492.736 108.94L491.395 108.589L490.112 107.663L487.927 110.343L486.505 110.87L484.739 111.221L482.283 110.87L480.67 109.335L477.47 108.369L474.573 108.94L472.237 112.133L470.291 112.528L466.663 109.887V112.528Z" stroke="white" stroke-width="2"/>
<rect x="156.992" y="104.363" width="4.29387" height="4.62471" fill="#00AB4E"/>
<rect x="162.717" y="104.363" width="25.7632" height="3.08314" fill="#00AB4E"/>
<rect x="162.717" y="108.988" width="11.4503" height="1.54157" fill="#808080"/>
<path d="M532.028 106.209V108.757H533.484V106.209H536.032V104.753H533.484V102.205H532.028V104.753H529.48V106.209H532.028Z" fill="black"/>
<rect x="154.414" y="126.793" width="370.135" height="24.2067" stroke="white" stroke-width="2"/>
<path d="M204.873 141.097L203.51 141.418V151.229H260.14L260.761 140.134H259.398H258.035L256.672 141.097L255.309 139.859L253.946 138.896L252.583 139.63L251.219 140.639L249.856 141.097L248.493 140.249L247.13 138.896L245.767 139.355L244.404 142.45L243.041 142.725H241.677L240.314 139.63H238.951L237.588 138.896L236.225 139.172L234.862 142.564L233.499 142.289L232.136 139.172L230.772 139.355L229.409 139.172L228.046 139.63L226.683 139.172L225.32 139.63L223.957 141.968L222.594 141.739L221.23 141.235H219.867L218.504 142.197L217.141 142.518L216.528 142.977L215.778 141.418L214.415 141.097L213.052 141.876L211.97 141.624L210.325 140.134L208.962 141.418L207.599 141.28L206.236 140.524L204.873 141.097Z" stroke="white" stroke-width="2"/>
<path d="M271.292 143.977L270.064 143.231V151.229H327.316V142.214L326.513 141.863L325.475 142.214L323.562 141.863L321.067 141.336L319.763 142.214L317.422 141.863L314.793 144.985L313.008 143.931L311.204 144.985L309.055 141.336L307.098 140.282L305.947 139.512L304.414 142.563L304.154 143.616L303.261 143.924L302.109 138.896L301.303 139.818L299.845 140.389L298.655 139.511L297.365 140.389L296.024 140.038L294.741 139.113L292.556 141.792L291.133 142.319L289.368 142.67L286.912 142.319L285.299 140.784L282.099 139.818L279.201 140.389L276.866 143.582L274.92 143.977L271.292 141.336V143.977Z" stroke="white" stroke-width="2"/>
<path d="M390.546 144.554L393.871 144.014V151.229H336.62V144.84H337.613H338.798L339.639 144.554H340.289L341.473 144.3L342.391 144.554L345.524 144.3L346.48 141.821L347.894 142.234H349.346L351.831 141.598L354.047 140.422L355.003 141.598L357.296 139.628L359.36 139.31L360.048 138.896L361.003 142.361L361.232 143.124L361.844 143.76L363.373 143.505L363.908 143.76L365.398 141.471H365.971L367.233 140.708L368.341 142.552L369.87 142.17H370.863L372.01 142.393L373.386 142.552L376.099 145.857L377.819 146.143L380.724 146.906L383.285 147.319L385.348 144.268L387.068 144.554L389.285 144.268L390.546 144.554Z" stroke="white" stroke-width="2"/>
<path d="M400.244 141.097L398.881 141.418V151.229H455.511L456.132 140.134H454.769H453.406L452.043 141.097L450.68 139.859L449.317 138.896L447.954 139.63L446.591 140.639L445.227 141.097L443.864 140.249L442.501 138.896L441.138 139.355L439.775 142.45L438.412 142.725H437.049L435.685 139.63H434.322L432.959 138.896L431.596 139.172L430.233 142.564L428.87 142.289L427.507 139.172L426.144 139.355L424.78 139.172L423.417 139.63L422.054 139.172L420.691 139.63L419.328 141.968L417.965 141.739L416.602 141.235H415.238L413.875 142.197L412.512 142.518L411.899 142.977L411.149 141.418L409.786 141.097L408.423 141.876L407.341 141.624L405.697 140.134L404.333 141.418L402.97 141.28L401.607 140.524L400.244 141.097Z" stroke="white" stroke-width="2"/>
<path d="M466.663 143.977L465.436 143.231V151.229H522.687V142.214L521.884 141.863L520.846 142.214L518.933 141.863L516.439 141.336L515.134 142.214L512.793 141.863L510.164 144.985L508.379 143.931L506.575 144.985L504.427 141.336L502.469 140.282L501.318 139.512L499.785 142.563L499.526 143.616L498.632 143.924L497.48 138.896L496.674 139.818L495.216 140.389L494.026 139.511L492.736 140.389L491.395 140.038L490.112 139.113L487.927 141.792L486.505 142.319L484.739 142.67L482.283 142.319L480.67 140.784L477.47 139.818L474.573 140.389L472.237 143.582L470.291 143.977L466.663 141.336V143.977Z" stroke="white" stroke-width="2"/>
<rect x="156.992" y="135.812" width="4.29387" height="4.62471" fill="#00AB4E"/>
<rect x="162.717" y="135.812" width="25.7632" height="3.08314" fill="#00AB4E"/>
<rect x="162.717" y="140.438" width="11.4503" height="1.54157" fill="#808080"/>
<path d="M532.028 137.658V140.206H533.484V137.658H536.032V136.202H533.484V133.654H532.028V136.202H529.48V137.658H532.028Z" fill="black"/>
<rect x="154.414" y="158.24" width="370.135" height="24.2067" stroke="white" stroke-width="2"/>
<path d="M204.873 172.544L203.51 172.865V182.676H260.14L260.761 171.582H259.398H258.035L256.672 172.544L255.309 171.307L253.946 170.344L252.583 171.077L251.219 172.086L249.856 172.544L248.493 171.696L247.13 170.344L245.767 170.802L244.404 173.897L243.041 174.172H241.677L240.314 171.077H238.951L237.588 170.344L236.225 170.619L234.862 174.011L233.499 173.736L232.136 170.619L230.772 170.802L229.409 170.619L228.046 171.077L226.683 170.619L225.32 171.077L223.957 173.415L222.594 173.186L221.23 172.682H219.867L218.504 173.645L217.141 173.966L216.528 174.424L215.778 172.865L214.415 172.544L213.052 173.324L211.97 173.072L210.325 171.582L208.962 172.865L207.599 172.728L206.236 171.971L204.873 172.544Z" stroke="white" stroke-width="2"/>
<path d="M271.292 175.425L270.064 174.678V182.676H327.316V173.661L326.513 173.31L325.475 173.661L323.562 173.31L321.067 172.783L319.763 173.661L317.422 173.31L314.793 176.432L313.008 175.378L311.204 176.432L309.055 172.783L307.098 171.729L305.947 170.959L304.414 174.01L304.154 175.064L303.261 175.371L302.109 170.344L301.303 171.266L299.845 171.836L298.655 170.958L297.365 171.836L296.024 171.485L294.741 170.56L292.556 173.239L291.133 173.766L289.368 174.117L286.912 173.766L285.299 172.232L282.099 171.266L279.201 171.836L276.866 175.03L274.92 175.425L271.292 172.783V175.425Z" stroke="white" stroke-width="2"/>
<path d="M390.546 176.001L393.871 175.461V182.676H336.62V176.288H337.613H338.798L339.639 176.001H340.289L341.473 175.747L342.391 176.001L345.524 175.747L346.48 173.268L347.894 173.681H349.346L351.831 173.045L354.047 171.869L355.003 173.045L357.296 171.075L359.36 170.757L360.048 170.344L361.003 173.808L361.232 174.571L361.844 175.207L363.373 174.953L363.908 175.207L365.398 172.918H365.971L367.233 172.155L368.341 173.999L369.87 173.618H370.863L372.01 173.84L373.386 173.999L376.099 177.305L377.819 177.591L380.724 178.354L383.285 178.767L385.348 175.715L387.068 176.001L389.285 175.715L390.546 176.001Z" stroke="white" stroke-width="2"/>
<path d="M400.244 172.544L398.881 172.865V182.676H455.511L456.132 171.582H454.769H453.406L452.043 172.544L450.68 171.307L449.317 170.344L447.954 171.077L446.591 172.086L445.227 172.544L443.864 171.696L442.501 170.344L441.138 170.802L439.775 173.897L438.412 174.172H437.049L435.685 171.077H434.322L432.959 170.344L431.596 170.619L430.233 174.011L428.87 173.736L427.507 170.619L426.144 170.802L424.78 170.619L423.417 171.077L422.054 170.619L420.691 171.077L419.328 173.415L417.965 173.186L416.602 172.682H415.238L413.875 173.645L412.512 173.966L411.899 174.424L411.149 172.865L409.786 172.544L408.423 173.324L407.341 173.072L405.697 171.582L404.333 172.865L402.97 172.728L401.607 171.971L400.244 172.544Z" stroke="white" stroke-width="2"/>
<path d="M466.663 175.425L465.436 174.678V182.676H522.687V173.661L521.884 173.31L520.846 173.661L518.933 173.31L516.439 172.783L515.134 173.661L512.793 173.31L510.164 176.432L508.379 175.378L506.575 176.432L504.427 172.783L502.469 171.729L501.318 170.959L499.785 174.01L499.526 175.064L498.632 175.371L497.48 170.344L496.674 171.266L495.216 171.836L494.026 170.958L492.736 171.836L491.395 171.485L490.112 170.56L487.927 173.239L486.505 173.766L484.739 174.117L482.283 173.766L480.67 172.232L477.47 171.266L474.573 171.836L472.237 175.03L470.291 175.425L466.663 172.783V175.425Z" stroke="white" stroke-width="2"/>
<rect x="156.992" y="167.26" width="4.29387" height="4.62471" fill="#00AB4E"/>
<rect x="162.717" y="167.26" width="25.7632" height="3.08314" fill="#00AB4E"/>
<rect x="162.717" y="171.885" width="11.4503" height="1.54157" fill="#808080"/>
<path d="M532.028 169.105V171.653H533.484V169.105H536.032V167.649H533.484V165.102H532.028V167.649H529.48V169.105H532.028Z" fill="black"/>
<rect x="154.414" y="189.688" width="370.135" height="24.2067" stroke="white" stroke-width="2"/>
<path d="M204.873 203.992L203.51 204.313V214.124H260.14L260.761 203.029H259.398H258.035L256.672 203.992L255.309 202.754L253.946 201.791L252.583 202.525L251.219 203.533L249.856 203.992L248.493 203.143L247.13 201.791L245.767 202.249L244.404 205.344L243.041 205.619H241.677L240.314 202.525H238.951L237.588 201.791L236.225 202.066L234.862 205.459L233.499 205.184L232.136 202.066L230.772 202.249L229.409 202.066L228.046 202.525L226.683 202.066L225.32 202.525L223.957 204.863L222.594 204.633L221.23 204.129H219.867L218.504 205.092L217.141 205.413L216.528 205.871L215.778 204.313L214.415 203.992L213.052 204.771L211.97 204.519L210.325 203.029L208.962 204.313L207.599 204.175L206.236 203.419L204.873 203.992Z" stroke="white" stroke-width="2"/>
<path d="M271.292 206.872L270.064 206.126V214.124H327.316V205.108L326.513 204.757L325.475 205.108L323.562 204.757L321.067 204.23L319.763 205.108L317.422 204.757L314.793 207.879L313.008 206.826L311.204 207.879L309.055 204.23L307.098 203.177L305.947 202.406L304.414 205.457L304.154 206.511L303.261 206.818L302.109 201.791L301.303 202.713L299.845 203.284L298.655 202.406L297.365 203.284L296.024 202.933L294.741 202.007L292.556 204.686L291.133 205.213L289.368 205.565L286.912 205.213L285.299 203.679L282.099 202.713L279.201 203.284L276.866 206.477L274.92 206.872L271.292 204.23V206.872Z" stroke="white" stroke-width="2"/>
<path d="M390.546 207.449L393.871 206.908V214.124H336.62V207.735H337.613H338.798L339.639 207.449H340.289L341.473 207.194L342.391 207.449L345.524 207.194L346.48 204.715L347.894 205.128H349.346L351.831 204.493L354.047 203.317L355.003 204.493L357.296 202.522L359.36 202.204L360.048 201.791L361.003 205.256L361.232 206.018L361.844 206.654L363.373 206.4L363.908 206.654L365.398 204.366H365.971L367.233 203.603L368.341 205.446L369.87 205.065H370.863L372.01 205.287L373.386 205.446L376.099 208.752L377.819 209.038L380.724 209.801L383.285 210.214L385.348 207.163L387.068 207.449L389.285 207.163L390.546 207.449Z" stroke="white" stroke-width="2"/>
<path d="M400.244 203.992L398.881 204.313V214.124H455.511L456.132 203.029H454.769H453.406L452.043 203.992L450.68 202.754L449.317 201.791L447.954 202.525L446.591 203.533L445.227 203.992L443.864 203.143L442.501 201.791L441.138 202.249L439.775 205.344L438.412 205.619H437.049L435.685 202.525H434.322L432.959 201.791L431.596 202.066L430.233 205.459L428.87 205.184L427.507 202.066L426.144 202.249L424.78 202.066L423.417 202.525L422.054 202.066L420.691 202.525L419.328 204.863L417.965 204.633L416.602 204.129H415.238L413.875 205.092L412.512 205.413L411.899 205.871L411.149 204.313L409.786 203.992L408.423 204.771L407.341 204.519L405.697 203.029L404.333 204.313L402.97 204.175L401.607 203.419L400.244 203.992Z" stroke="white" stroke-width="2"/>
<path d="M466.663 206.872L465.436 206.126V214.124H522.687V205.108L521.884 204.757L520.846 205.108L518.933 204.757L516.439 204.23L515.134 205.108L512.793 204.757L510.164 207.879L508.379 206.826L506.575 207.879L504.427 204.23L502.469 203.177L501.318 202.406L499.785 205.457L499.526 206.511L498.632 206.818L497.48 201.791L496.674 202.713L495.216 203.284L494.026 202.406L492.736 203.284L491.395 202.933L490.112 202.007L487.927 204.686L486.505 205.213L484.739 205.565L482.283 205.213L480.67 203.679L477.47 202.713L474.573 203.284L472.237 206.477L470.291 206.872L466.663 204.23V206.872Z" stroke="white" stroke-width="2"/>
<rect x="156.992" y="198.707" width="4.29387" height="4.62471" fill="#00AB4E"/>
<rect x="162.717" y="198.707" width="25.7632" height="3.08314" fill="#00AB4E"/>
<rect x="162.717" y="203.332" width="11.4503" height="1.54157" fill="#808080"/>
<path d="M532.028 200.553V203.101H533.484V200.553H536.032V199.097H533.484V196.549H532.028V199.097H529.48V200.553H532.028Z" fill="black"/>
<rect x="154.414" y="221.137" width="370.135" height="24.2067" stroke="white" stroke-width="2"/>
<path d="M204.873 235.441L203.51 235.762V245.573H260.14L260.761 234.478H259.398H258.035L256.672 235.441L255.309 234.203L253.946 233.24L252.583 233.974L251.219 234.982L249.856 235.441L248.493 234.593L247.13 233.24L245.767 233.699L244.404 236.793L243.041 237.068H241.677L240.314 233.974H238.951L237.588 233.24L236.225 233.515L234.862 236.908L233.499 236.633L232.136 233.515L230.772 233.699L229.409 233.515L228.046 233.974L226.683 233.515L225.32 233.974L223.957 236.312L222.594 236.083L221.23 235.578H219.867L218.504 236.541L217.141 236.862L216.528 237.321L215.778 235.762L214.415 235.441L213.052 236.22L211.97 235.968L210.325 234.478L208.962 235.762L207.599 235.624L206.236 234.868L204.873 235.441Z" stroke="white" stroke-width="2"/>
<path d="M271.292 238.321L270.064 237.575V245.573H327.316V236.558L326.513 236.206L325.475 236.558L323.562 236.206L321.067 235.679L319.763 236.558L317.422 236.206L314.793 239.329L313.008 238.275L311.204 239.329L309.055 235.679L307.098 234.626L305.947 233.855L304.414 236.907L304.154 237.96L303.261 238.268L302.109 233.24L301.303 234.162L299.845 234.733L298.655 233.855L297.365 234.733L296.024 234.382L294.741 233.456L292.556 236.136L291.133 236.662L289.368 237.014L286.912 236.662L285.299 235.128L282.099 234.162L279.201 234.733L276.866 237.926L274.92 238.321L271.292 235.679V238.321Z" stroke="white" stroke-width="2"/>
<path d="M390.546 238.898L393.871 238.358V245.573H336.62V239.184H337.613H338.798L339.639 238.898H340.289L341.473 238.644L342.391 238.898L345.524 238.644L346.48 236.164L347.894 236.578H349.346L351.831 235.942L354.047 234.766L355.003 235.942L357.296 233.971L359.36 233.653L360.048 233.24L361.003 236.705L361.232 237.468L361.844 238.103L363.373 237.849L363.908 238.103L365.398 235.815H365.971L367.233 235.052L368.341 236.896L369.87 236.514H370.863L372.01 236.737L373.386 236.896L376.099 240.201L377.819 240.487L380.724 241.25L383.285 241.663L385.348 238.612L387.068 238.898L389.285 238.612L390.546 238.898Z" stroke="white" stroke-width="2"/>
<path d="M400.244 235.441L398.881 235.762V245.573H455.511L456.132 234.478H454.769H453.406L452.043 235.441L450.68 234.203L449.317 233.24L447.954 233.974L446.591 234.982L445.227 235.441L443.864 234.593L442.501 233.24L441.138 233.699L439.775 236.793L438.412 237.068H437.049L435.685 233.974H434.322L432.959 233.24L431.596 233.515L430.233 236.908L428.87 236.633L427.507 233.515L426.144 233.699L424.78 233.515L423.417 233.974L422.054 233.515L420.691 233.974L419.328 236.312L417.965 236.083L416.602 235.578H415.238L413.875 236.541L412.512 236.862L411.899 237.321L411.149 235.762L409.786 235.441L408.423 236.22L407.341 235.968L405.697 234.478L404.333 235.762L402.97 235.624L401.607 234.868L400.244 235.441Z" stroke="white" stroke-width="2"/>
<path d="M466.663 238.321L465.436 237.575V245.573H522.687V236.558L521.884 236.206L520.846 236.558L518.933 236.206L516.439 235.679L515.134 236.558L512.793 236.206L510.164 239.329L508.379 238.275L506.575 239.329L504.427 235.679L502.469 234.626L501.318 233.855L499.785 236.907L499.526 237.96L498.632 238.268L497.48 233.24L496.674 234.162L495.216 234.733L494.026 233.855L492.736 234.733L491.395 234.382L490.112 233.456L487.927 236.136L486.505 236.662L484.739 237.014L482.283 236.662L480.67 235.128L477.47 234.162L474.573 234.733L472.237 237.926L470.291 238.321L466.663 235.679V238.321Z" stroke="white" stroke-width="2"/>
<rect x="156.992" y="230.156" width="4.29387" height="4.62471" fill="#00AB4E"/>
<rect x="162.717" y="230.156" width="25.7632" height="3.08314" fill="#00AB4E"/>
<rect x="162.717" y="234.781" width="11.4503" height="1.54157" fill="#808080"/>
<path d="M532.028 232.002V234.55H533.484V232.002H536.032V230.546H533.484V227.998H532.028V230.546H529.48V232.002H532.028Z" fill="black"/>
<rect x="154.414" y="252.584" width="370.135" height="24.2067" stroke="white" stroke-width="2"/>
<path d="M204.873 266.888L203.51 267.209V277.02H260.14L260.761 265.925H259.398H258.035L256.672 266.888L255.309 265.65L253.946 264.688L252.583 265.421L251.219 266.43L249.856 266.888L248.493 266.04L247.13 264.688L245.767 265.146L244.404 268.241L243.041 268.516H241.677L240.314 265.421H238.951L237.588 264.688L236.225 264.963L234.862 268.355L233.499 268.08L232.136 264.963L230.772 265.146L229.409 264.963L228.046 265.421L226.683 264.963L225.32 265.421L223.957 267.759L222.594 267.53L221.23 267.026H219.867L218.504 267.988L217.141 268.309L216.528 268.768L215.778 267.209L214.415 266.888L213.052 267.667L211.97 267.415L210.325 265.925L208.962 267.209L207.599 267.071L206.236 266.315L204.873 266.888Z" stroke="white" stroke-width="2"/>
<path d="M271.292 269.768L270.064 269.022V277.02H327.316V268.005L326.513 267.654L325.475 268.005L323.562 267.654L321.067 267.127L319.763 268.005L317.422 267.654L314.793 270.776L313.008 269.722L311.204 270.776L309.055 267.127L307.098 266.073L305.947 265.303L304.414 268.354L304.154 269.408L303.261 269.715L302.109 264.688L301.303 265.609L299.845 266.18L298.655 265.302L297.365 266.18L296.024 265.829L294.741 264.904L292.556 267.583L291.133 268.11L289.368 268.461L286.912 268.11L285.299 266.575L282.099 265.609L279.201 266.18L276.866 269.373L274.92 269.768L271.292 267.127V269.768Z" stroke="white" stroke-width="2"/>
<path d="M390.546 270.345L393.871 269.805V277.02H336.62V270.631H337.613H338.798L339.639 270.345H340.289L341.473 270.091L342.391 270.345L345.524 270.091L346.48 267.612L347.894 268.025H349.346L351.831 267.389L354.047 266.213L355.003 267.389L357.296 265.419L359.36 265.101L360.048 264.688L361.003 268.152L361.232 268.915L361.844 269.551L363.373 269.296L363.908 269.551L365.398 267.262H365.971L367.233 266.499L368.341 268.343L369.87 267.961H370.863L372.01 268.184L373.386 268.343L376.099 271.648L377.819 271.934L380.724 272.697L383.285 273.111L385.348 270.059L387.068 270.345L389.285 270.059L390.546 270.345Z" stroke="white" stroke-width="2"/>
<path d="M400.244 266.888L398.881 267.209V277.02H455.511L456.132 265.925H454.769H453.406L452.043 266.888L450.68 265.65L449.317 264.688L447.954 265.421L446.591 266.43L445.227 266.888L443.864 266.04L442.501 264.688L441.138 265.146L439.775 268.241L438.412 268.516H437.049L435.685 265.421H434.322L432.959 264.688L431.596 264.963L430.233 268.355L428.87 268.08L427.507 264.963L426.144 265.146L424.78 264.963L423.417 265.421L422.054 264.963L420.691 265.421L419.328 267.759L417.965 267.53L416.602 267.026H415.238L413.875 267.988L412.512 268.309L411.899 268.768L411.149 267.209L409.786 266.888L408.423 267.667L407.341 267.415L405.697 265.925L404.333 267.209L402.97 267.071L401.607 266.315L400.244 266.888Z" stroke="white" stroke-width="2"/>
<path d="M466.663 269.768L465.436 269.022V277.02H522.687V268.005L521.884 267.654L520.846 268.005L518.933 267.654L516.439 267.127L515.134 268.005L512.793 267.654L510.164 270.776L508.379 269.722L506.575 270.776L504.427 267.127L502.469 266.073L501.318 265.303L499.785 268.354L499.526 269.408L498.632 269.715L497.48 264.688L496.674 265.609L495.216 266.18L494.026 265.302L492.736 266.18L491.395 265.829L490.112 264.904L487.927 267.583L486.505 268.11L484.739 268.461L482.283 268.11L480.67 266.575L477.47 265.609L474.573 266.18L472.237 269.373L470.291 269.768L466.663 267.127V269.768Z" stroke="white" stroke-width="2"/>
<rect x="156.992" y="261.605" width="4.29387" height="4.62471" fill="#00AB4E"/>
<rect x="162.717" y="261.605" width="25.7632" height="3.08314" fill="#00AB4E"/>
<rect x="162.717" y="266.23" width="11.4503" height="1.54157" fill="#808080"/>
<path d="M532.028 263.449V265.997H533.484V263.449H536.032V261.993H533.484V259.445H532.028V261.993H529.48V263.449H532.028Z" fill="black"/>
<path d="M353.692 370.59L407.989 424.887C422.983 409.894 422.983 385.584 407.989 370.59C392.996 385.583 368.686 385.584 353.692 370.59Z" fill="white"/>
<path d="M380.842 382.305C390.798 382.305 400.756 378.515 408.336 370.935L408.682 370.589L408.336 370.243C393.176 355.083 368.507 355.083 353.347 370.243L353 370.589L353.347 370.935C360.927 378.515 370.884 382.305 380.842 382.305ZM407.293 370.589C392.605 384.908 369.077 384.906 354.389 370.589C369.077 356.272 392.605 356.272 407.293 370.589Z" fill="white"/>
<path d="M681.939 310.074L606.856 431.507C606.856 431.507 565.62 381.767 592.269 338.667C612.44 306.043 652.086 306.676 681.843 310.23" fill="white"/>
<path d="M523.354 318.212L511.513 308.883L499.669 318.212L487.825 308.883L475.982 318.212L464.149 308.892L453.512 318.01L453 317.412L464.128 307.873L475.982 317.209L487.825 307.881L499.669 317.209L511.513 307.881L523.354 317.209L535.198 307.881L547.041 317.209L558.886 307.881L570.729 317.209L582.575 307.881L594.664 317.401L594.176 318.02L582.575 308.883L570.729 318.212L558.886 308.883L547.041 318.212L535.198 308.883L523.354 318.212Z" fill="white"/>
<path d="M469.814 363.873L463.001 350.426L448.331 353.901L441.516 340.453L426.846 343.927L420.037 330.492L406.55 334.283L406.337 333.525L420.447 329.558L427.268 343.017L441.938 339.543L448.753 352.99L463.423 349.516L470.237 362.963L484.907 359.489L491.722 372.937L506.393 369.463L513.208 382.91L527.88 379.437L534.837 393.163L534.134 393.518L527.457 380.346L512.785 383.82L505.971 370.372L491.3 373.847L484.485 360.399L469.814 363.873Z" fill="white"/>
<path d="M245.999 349.604H258.574V362.178H245.999V349.604Z" fill="white"/>
<path d="M278.909 342.873H297.143V361.107H278.909V342.873Z" fill="white"/>
<path d="M290.876 382.514H309.109V400.747H290.876V382.514Z" fill="white"/>
</svg>
