<svg width="687" height="501" viewBox="0 0 687 501" fill="none" xmlns="http://www.w3.org/2000/svg">
<path fill-rule="evenodd" clip-rule="evenodd" d="M392.433 141.795V98.1149C392.433 98.1149 464.327 62.1976 464.897 62.5081L536.014 98.4772V142.106C536.014 142.106 536.17 142.83 535.599 143.141L465.468 183.457C464.949 183.768 464.068 183.768 463.55 183.457L392.796 142.779C392.277 142.468 392.433 141.795 392.433 141.795Z" fill="#EDEDED"/>
<path fill-rule="evenodd" clip-rule="evenodd" d="M392.796 97.3904L462.928 57.074C463.446 56.7634 464.327 56.7634 464.845 57.074L535.548 97.7527C536.066 98.0632 536.066 98.5807 535.548 98.8912L465.467 139.156C464.949 139.466 464.068 139.466 463.55 139.156L392.796 98.529C392.277 98.2184 392.277 97.7009 392.796 97.3904Z" fill="#F3F3F3"/>
<path fill-rule="evenodd" clip-rule="evenodd" d="M465.283 139.349L464.258 183.697C463.947 183.697 463.573 183.754 463.314 183.65L392.612 142.971C392.093 142.661 392.197 141.936 392.197 141.936V98.3076L465.283 139.349Z" fill="#E3E3E3"/>
<path fill-rule="evenodd" clip-rule="evenodd" d="M480.99 145.743L524.968 121.142V149.243L480.99 174.535V145.743Z" fill="#C4C4C4" fill-opacity="0.6"/>
<path fill-rule="evenodd" clip-rule="evenodd" d="M524.968 149.051L500.442 134.949L524.968 121.142V149.051Z" fill="#797B84" fill-opacity="0.5"/>
<path d="M492.49 149.427L506.868 140.969L521.245 149.004L506.868 157.461L492.49 149.427Z" fill="#06AFFF"/>
<path d="M492.49 149.427V166.341L506.867 174.798V157.461L492.49 149.427Z" fill="#2F80ED"/>
<path d="M506.867 157.461L521.245 149.004V166.003L506.867 174.799V157.461Z" fill="#3C8AFE"/>
<path d="M512.983 162.37L527.784 153.912L541.738 161.524L527.361 170.404L512.983 162.37Z" fill="#42E7AA"/>
<path d="M512.983 162.369V179.284L527.36 187.741V170.404L512.983 162.369Z" fill="#16A568"/>
<path d="M527.36 170.404L541.737 161.524V178.946L527.36 187.741V170.404Z" fill="#17CE8A"/>
<path d="M534.554 174.234L549.355 165.776L563.309 173.388L548.932 182.268L534.554 174.234Z" fill="#FFEE50"/>
<path d="M534.554 174.234V191.148L548.932 199.606V182.268L534.554 174.234Z" fill="#CCBA11"/>
<path d="M548.932 182.268L563.309 173.388V190.81L548.932 199.606V182.268Z" fill="#FFD215"/>
<path d="M555.048 186.098L569.848 177.641L583.803 185.252L569.425 194.132L555.048 186.098Z" fill="#F67C7C"/>
<path d="M555.047 186.098V203.013L569.425 211.47V194.132L555.047 186.098Z" fill="#DE2424"/>
<path d="M569.424 194.132L583.802 185.252V202.674L569.424 211.47V194.132Z" fill="#F32626"/>
<path opacity="0.4" d="M336.098 179.457L392.314 142.706L464.259 183.697L408.043 219.242L336.098 179.457Z" fill="url(#paint0_linear)"/>
<g opacity="0.1">
<path d="M658.591 245.21L673.024 236.962L686.633 244.385L672.612 253.045L658.591 245.21Z" fill="url(#paint1_linear)"/>
<path d="M658.591 245.21V261.706L672.612 269.954V253.045L658.591 245.21Z" fill="url(#paint2_linear)"/>
<path d="M672.612 253.045L686.633 244.385V261.376L672.612 269.954V253.045Z" fill="url(#paint3_linear)"/>
</g>
<g opacity="0.8">
<path d="M576.619 197.753L591.053 189.505L604.662 196.928L590.641 205.588L576.619 197.753Z" fill="url(#paint4_linear)"/>
<path d="M576.619 197.753V214.249L590.641 222.497V205.588L576.619 197.753Z" fill="url(#paint5_linear)"/>
<path d="M590.64 205.588L604.662 196.928V213.919L590.64 222.497V205.588Z" fill="url(#paint6_linear)"/>
</g>
<g opacity="0.6">
<path d="M597.112 209.617L611.546 201.369L625.155 208.792L611.134 217.453L597.112 209.617Z" fill="url(#paint7_linear)"/>
<path d="M597.112 209.617V226.113L611.133 234.361V217.453L597.112 209.617Z" fill="url(#paint8_linear)"/>
<path d="M611.133 217.453L625.154 208.792V225.783L611.133 234.361V217.453Z" fill="url(#paint9_linear)"/>
</g>
<g opacity="0.4">
<path d="M617.605 221.481L632.039 213.234L645.648 220.657L631.627 229.317L617.605 221.481Z" fill="url(#paint10_linear)"/>
<path d="M617.605 221.481V237.977L631.626 246.225V229.317L617.605 221.481Z" fill="url(#paint11_linear)"/>
<path d="M631.626 229.317L645.648 220.657V237.647L631.626 246.225V229.317Z" fill="url(#paint12_linear)"/>
</g>
<g opacity="0.2">
<path d="M638.098 233.346L652.531 225.098L666.14 232.521L652.119 241.181L638.098 233.346Z" fill="url(#paint13_linear)"/>
<path d="M638.097 233.346V249.841L652.119 258.089V241.181L638.097 233.346Z" fill="url(#paint14_linear)"/>
<path d="M652.119 241.181L666.14 232.521V249.511L652.119 258.089V241.181Z" fill="url(#paint15_linear)"/>
</g>
<path fill-rule="evenodd" clip-rule="evenodd" d="M165.01 213.509V141.274C165.01 141.274 283.902 81.8777 284.845 82.3913L402.451 141.873V214.022C402.451 214.022 402.708 215.22 401.765 215.734L285.788 282.405C284.931 282.919 283.473 282.919 282.616 282.405L165.61 215.135C164.753 214.621 165.01 213.509 165.01 213.509Z" fill="#EDEDED"/>
<path fill-rule="evenodd" clip-rule="evenodd" d="M165.611 140.076L281.588 73.4048C282.445 72.8913 283.902 72.8913 284.76 73.4048L401.68 140.675C402.537 141.189 402.537 142.045 401.68 142.558L285.788 209.144C284.931 209.657 283.474 209.657 282.617 209.144L165.611 141.959C164.753 141.446 164.753 140.59 165.611 140.076Z" fill="#F3F3F3"/>
<path fill-rule="evenodd" clip-rule="evenodd" d="M285.483 209.463L283.788 282.801C283.274 282.801 282.655 282.895 282.226 282.724L165.306 215.454C164.449 214.94 164.62 213.742 164.62 213.742V141.593L285.483 209.463Z" fill="#E3E3E3"/>
<path fill-rule="evenodd" clip-rule="evenodd" d="M311.458 220.038L384.184 179.355V225.825L311.458 267.651V220.038Z" fill="#C4C4C4" fill-opacity="0.6"/>
<path fill-rule="evenodd" clip-rule="evenodd" d="M384.184 225.508L343.625 202.186L384.184 179.355V225.508Z" fill="#797B84" fill-opacity="0.5"/>
<path d="M331.038 224.067L355.513 210.081L378.589 222.668L354.814 237.353L331.038 224.067Z" fill="#42E7AA"/>
<path d="M331.038 224.067V252.038L354.814 266.024V237.353L331.038 224.067Z" fill="#16A568"/>
<path d="M354.814 237.353L378.59 222.668V251.479L354.814 266.024V237.353Z" fill="#17CE8A"/>
<path d="M364.604 245.045L389.079 231.06L412.156 243.647L388.38 258.332L364.604 245.045Z" fill="#FFEE50"/>
<path d="M364.604 245.045V273.017L388.38 287.003V258.332L364.604 245.045Z" fill="#CCBA11"/>
<path d="M388.38 258.332L412.156 243.647V272.458L388.38 287.003V258.332Z" fill="#FFD215"/>
<path d="M399.568 264.625L424.044 250.64L447.12 263.227L423.344 277.912L399.568 264.625Z" fill="#F67C7C"/>
<path d="M399.568 264.626V292.597L423.344 306.583V277.912L399.568 264.626Z" fill="#DE2424"/>
<path d="M423.344 277.912L447.12 263.227V292.038L423.344 306.583V277.912Z" fill="#F32626"/>
<path d="M434.533 285.604L458.309 271.619L482.085 284.905L458.309 298.891L434.533 285.604Z" fill="#06AFFF"/>
<path d="M434.533 285.604V313.576L458.309 327.562V298.891L434.533 285.604Z" fill="#2F80ED"/>
<path d="M458.309 298.891L482.085 284.905V313.017L458.309 327.562V298.891Z" fill="#3C8AFE"/>
<g opacity="0.8">
<path d="M469.842 307.711L493.615 294.126L516.03 306.353L492.936 320.617L469.842 307.711Z" fill="url(#paint16_linear)"/>
<path d="M469.841 307.711V334.88L492.935 348.465V320.616L469.841 307.711Z" fill="url(#paint17_linear)"/>
<path d="M492.935 320.616L516.029 306.352V334.337L492.935 348.465V320.616Z" fill="url(#paint18_linear)"/>
</g>
<g opacity="0.6">
<path d="M503.594 327.252L527.367 313.667L549.782 325.894L526.688 340.158L503.594 327.252Z" fill="url(#paint19_linear)"/>
<path d="M503.594 327.252V354.422L526.688 368.006V340.158L503.594 327.252Z" fill="url(#paint20_linear)"/>
<path d="M526.688 340.158L549.782 325.894V353.878L526.688 368.006V340.158Z" fill="url(#paint21_linear)"/>
</g>
<g opacity="0.4">
<path d="M537.347 346.793L561.12 333.209L583.535 345.435L560.441 359.699L537.347 346.793Z" fill="url(#paint22_linear)"/>
<path d="M537.347 346.793V373.963L560.441 387.547V359.699L537.347 346.793Z" fill="url(#paint23_linear)"/>
<path d="M560.441 359.699L583.535 345.435V373.419L560.441 387.547V359.699Z" fill="url(#paint24_linear)"/>
</g>
<g opacity="0.2">
<path d="M571.1 366.334L594.873 352.75L617.288 364.976L594.194 379.24L571.1 366.334Z" fill="url(#paint25_linear)"/>
<path d="M571.1 366.334V393.504L594.194 407.089V379.24L571.1 366.334Z" fill="url(#paint26_linear)"/>
<path d="M594.194 379.24L617.288 364.976V392.96L594.194 407.089V379.24Z" fill="url(#paint27_linear)"/>
</g>
<g opacity="0.1">
<path d="M604.853 385.875L628.626 372.291L651.041 384.517L627.947 398.781L604.853 385.875Z" fill="url(#paint28_linear)"/>
<path d="M604.852 385.875V413.045L627.946 426.63V398.781L604.852 385.875Z" fill="url(#paint29_linear)"/>
<path d="M627.947 398.781L651.041 384.517V412.502L627.947 426.63V398.781Z" fill="url(#paint30_linear)"/>
</g>
<path opacity="0.4" d="M71.8491 275.791L164.813 215.016L283.788 282.801L190.824 341.583L71.8491 275.791Z" fill="url(#paint31_linear)"/>
<path fill-rule="evenodd" clip-rule="evenodd" d="M56.9984 315.445V271.764C56.9984 271.764 128.893 235.847 129.463 236.158L200.58 272.127V315.755C200.58 315.755 200.735 316.48 200.165 316.791L130.033 357.107C129.515 357.417 128.634 357.417 128.115 357.107L57.3613 316.428C56.8429 316.118 56.9984 315.445 56.9984 315.445Z" fill="#EDEDED"/>
<path fill-rule="evenodd" clip-rule="evenodd" d="M57.3609 271.04L127.493 230.724C128.011 230.413 128.892 230.413 129.411 230.724L200.113 271.402C200.631 271.713 200.631 272.23 200.113 272.541L130.033 312.806C129.514 313.116 128.633 313.116 128.115 312.806L57.3609 272.179C56.8426 271.868 56.8426 271.351 57.3609 271.04Z" fill="#F3F3F3"/>
<path fill-rule="evenodd" clip-rule="evenodd" d="M129.849 312.998L128.824 357.346C128.513 357.346 128.139 357.403 127.879 357.3L57.1773 316.621C56.6589 316.311 56.7626 315.586 56.7626 315.586V271.957L129.849 312.998Z" fill="#E3E3E3"/>
<path fill-rule="evenodd" clip-rule="evenodd" d="M145.555 319.393L189.533 294.792V322.893L145.555 348.185V319.393Z" fill="#C4C4C4" fill-opacity="0.6"/>
<path fill-rule="evenodd" clip-rule="evenodd" d="M189.533 322.701L165.007 308.598L189.533 294.792V322.701Z" fill="#797B84" fill-opacity="0.5"/>
<path d="M157.056 323.076L171.856 314.619L185.81 322.231L171.433 331.111L157.056 323.076Z" fill="#F67C7C"/>
<path d="M157.056 323.076V339.991L171.433 348.448V331.111L157.056 323.076Z" fill="#DE2424"/>
<path d="M171.433 331.111L185.811 322.231V339.653L171.433 348.448V331.111Z" fill="#F32626"/>
<path d="M178.627 334.941L193.005 326.483L207.382 334.518L193.005 342.975L178.627 334.941Z" fill="#06AFFF"/>
<path d="M178.627 334.941V351.855L193.005 360.312V342.975L178.627 334.941Z" fill="#2F80ED"/>
<path d="M193.004 342.975L207.382 334.518V351.517L193.004 360.312V342.975Z" fill="#3C8AFE"/>
<path d="M199.121 346.805L213.921 338.347L227.876 345.959L213.498 354.839L199.121 346.805Z" fill="#42E7AA"/>
<path d="M199.12 346.805V363.719L213.498 372.177V354.839L199.12 346.805Z" fill="#16A568"/>
<path d="M213.498 354.839L227.875 345.959V363.381L213.498 372.177V354.839Z" fill="#17CE8A"/>
<path d="M219.613 358.669L234.413 350.212L248.368 357.823L233.99 366.704L219.613 358.669Z" fill="#FFEE50"/>
<path d="M219.613 358.669V375.584L233.99 384.041V366.703L219.613 358.669Z" fill="#CCBA11"/>
<path d="M233.99 366.703L248.367 357.823V375.245L233.99 384.041V366.703Z" fill="#FFD215"/>
<path opacity="0.4" d="M0.663574 353.107L56.8794 316.356L128.824 357.346L72.6079 392.892L0.663574 353.107Z" fill="url(#paint32_linear)"/>
<g opacity="0.8">
<path d="M241.184 371.403L255.618 363.155L269.227 370.578L255.206 379.238L241.184 371.403Z" fill="url(#paint33_linear)"/>
<path d="M241.184 371.403V387.898L255.206 396.146V379.238L241.184 371.403Z" fill="url(#paint34_linear)"/>
<path d="M255.206 379.238L269.227 370.578V387.568L255.206 396.146V379.238Z" fill="url(#paint35_linear)"/>
</g>
<g opacity="0.6">
<path d="M261.678 383.267L276.112 375.019L289.721 382.442L275.699 391.102L261.678 383.267Z" fill="url(#paint36_linear)"/>
<path d="M261.677 383.267V399.762L275.698 408.01V391.102L261.677 383.267Z" fill="url(#paint37_linear)"/>
<path d="M275.698 391.102L289.719 382.442V399.433L275.698 408.01V391.102Z" fill="url(#paint38_linear)"/>
</g>
<g opacity="0.4">
<path d="M282.17 395.131L296.604 386.883L310.213 394.306L296.192 402.966L282.17 395.131Z" fill="url(#paint39_linear)"/>
<path d="M282.17 395.131V411.627L296.192 419.875V402.966L282.17 395.131Z" fill="url(#paint40_linear)"/>
<path d="M296.191 402.967L310.213 394.306V411.297L296.191 419.875V402.967Z" fill="url(#paint41_linear)"/>
</g>
<g opacity="0.2">
<path d="M302.663 406.995L317.096 398.747L330.705 406.17L316.684 414.831L302.663 406.995Z" fill="url(#paint42_linear)"/>
<path d="M302.663 406.995V423.491L316.684 431.739V414.831L302.663 406.995Z" fill="url(#paint43_linear)"/>
<path d="M316.684 414.831L330.705 406.17V423.161L316.684 431.739V414.831Z" fill="url(#paint44_linear)"/>
</g>
<g opacity="0.1">
<path d="M323.156 418.86L337.59 410.612L351.199 418.035L337.177 426.695L323.156 418.86Z" fill="url(#paint45_linear)"/>
<path d="M323.156 418.86V435.355L337.177 443.603V426.695L323.156 418.86Z" fill="url(#paint46_linear)"/>
<path d="M337.177 426.695L351.199 418.035V435.025L337.177 443.603V426.695Z" fill="url(#paint47_linear)"/>
</g>
<defs>
<linearGradient id="paint0_linear" x1="415.067" y1="192.929" x2="433.151" y2="163.819" gradientUnits="userSpaceOnUse">
<stop offset="0.132597" stop-color="#C4C4C4" stop-opacity="0"/>
<stop offset="1" stop-color="#484848"/>
</linearGradient>
<linearGradient id="paint1_linear" x1="672.613" y1="236.962" x2="672.613" y2="253.048" gradientUnits="userSpaceOnUse">
<stop stop-color="#E8E8E8"/>
<stop offset="1" stop-color="#727272"/>
</linearGradient>
<linearGradient id="paint2_linear" x1="665.602" y1="245.21" x2="665.602" y2="269.957" gradientUnits="userSpaceOnUse">
<stop stop-color="#E8E8E8"/>
<stop offset="1" stop-color="#727272"/>
</linearGradient>
<linearGradient id="paint3_linear" x1="679.623" y1="244.385" x2="679.623" y2="269.957" gradientUnits="userSpaceOnUse">
<stop stop-color="#E8E8E8"/>
<stop offset="1" stop-color="#727272"/>
</linearGradient>
<linearGradient id="paint4_linear" x1="590.641" y1="189.505" x2="590.641" y2="205.591" gradientUnits="userSpaceOnUse">
<stop stop-color="#E8E8E8"/>
<stop offset="1" stop-color="#727272"/>
</linearGradient>
<linearGradient id="paint5_linear" x1="583.63" y1="197.753" x2="583.63" y2="222.5" gradientUnits="userSpaceOnUse">
<stop stop-color="#E8E8E8"/>
<stop offset="1" stop-color="#727272"/>
</linearGradient>
<linearGradient id="paint6_linear" x1="597.651" y1="196.928" x2="597.651" y2="222.5" gradientUnits="userSpaceOnUse">
<stop stop-color="#E8E8E8"/>
<stop offset="1" stop-color="#727272"/>
</linearGradient>
<linearGradient id="paint7_linear" x1="611.134" y1="201.369" x2="611.134" y2="217.455" gradientUnits="userSpaceOnUse">
<stop stop-color="#E8E8E8"/>
<stop offset="1" stop-color="#727272"/>
</linearGradient>
<linearGradient id="paint8_linear" x1="604.123" y1="209.617" x2="604.123" y2="234.364" gradientUnits="userSpaceOnUse">
<stop stop-color="#E8E8E8"/>
<stop offset="1" stop-color="#727272"/>
</linearGradient>
<linearGradient id="paint9_linear" x1="618.144" y1="208.792" x2="618.144" y2="234.365" gradientUnits="userSpaceOnUse">
<stop stop-color="#E8E8E8"/>
<stop offset="1" stop-color="#727272"/>
</linearGradient>
<linearGradient id="paint10_linear" x1="631.627" y1="213.234" x2="631.627" y2="229.319" gradientUnits="userSpaceOnUse">
<stop stop-color="#E8E8E8"/>
<stop offset="1" stop-color="#727272"/>
</linearGradient>
<linearGradient id="paint11_linear" x1="624.616" y1="221.481" x2="624.616" y2="246.229" gradientUnits="userSpaceOnUse">
<stop stop-color="#E8E8E8"/>
<stop offset="1" stop-color="#727272"/>
</linearGradient>
<linearGradient id="paint12_linear" x1="638.637" y1="220.657" x2="638.637" y2="246.229" gradientUnits="userSpaceOnUse">
<stop stop-color="#E8E8E8"/>
<stop offset="1" stop-color="#727272"/>
</linearGradient>
<linearGradient id="paint13_linear" x1="652.12" y1="225.098" x2="652.12" y2="241.184" gradientUnits="userSpaceOnUse">
<stop stop-color="#E8E8E8"/>
<stop offset="1" stop-color="#727272"/>
</linearGradient>
<linearGradient id="paint14_linear" x1="645.108" y1="233.346" x2="645.108" y2="258.093" gradientUnits="userSpaceOnUse">
<stop stop-color="#E8E8E8"/>
<stop offset="1" stop-color="#727272"/>
</linearGradient>
<linearGradient id="paint15_linear" x1="659.13" y1="232.521" x2="659.13" y2="258.093" gradientUnits="userSpaceOnUse">
<stop stop-color="#E8E8E8"/>
<stop offset="1" stop-color="#727272"/>
</linearGradient>
<linearGradient id="paint16_linear" x1="492.937" y1="294.126" x2="492.937" y2="320.621" gradientUnits="userSpaceOnUse">
<stop stop-color="#E8E8E8"/>
<stop offset="1" stop-color="#727272"/>
</linearGradient>
<linearGradient id="paint17_linear" x1="481.389" y1="307.711" x2="481.389" y2="348.471" gradientUnits="userSpaceOnUse">
<stop stop-color="#E8E8E8"/>
<stop offset="1" stop-color="#727272"/>
</linearGradient>
<linearGradient id="paint18_linear" x1="504.483" y1="306.352" x2="504.483" y2="348.471" gradientUnits="userSpaceOnUse">
<stop stop-color="#E8E8E8"/>
<stop offset="1" stop-color="#727272"/>
</linearGradient>
<linearGradient id="paint19_linear" x1="526.689" y1="313.667" x2="526.689" y2="340.162" gradientUnits="userSpaceOnUse">
<stop stop-color="#E8E8E8"/>
<stop offset="1" stop-color="#727272"/>
</linearGradient>
<linearGradient id="paint20_linear" x1="515.142" y1="327.252" x2="515.142" y2="368.012" gradientUnits="userSpaceOnUse">
<stop stop-color="#E8E8E8"/>
<stop offset="1" stop-color="#727272"/>
</linearGradient>
<linearGradient id="paint21_linear" x1="538.236" y1="325.894" x2="538.236" y2="368.013" gradientUnits="userSpaceOnUse">
<stop stop-color="#E8E8E8"/>
<stop offset="1" stop-color="#727272"/>
</linearGradient>
<linearGradient id="paint22_linear" x1="560.442" y1="333.209" x2="560.442" y2="359.703" gradientUnits="userSpaceOnUse">
<stop stop-color="#E8E8E8"/>
<stop offset="1" stop-color="#727272"/>
</linearGradient>
<linearGradient id="paint23_linear" x1="548.895" y1="346.793" x2="548.895" y2="387.554" gradientUnits="userSpaceOnUse">
<stop stop-color="#E8E8E8"/>
<stop offset="1" stop-color="#727272"/>
</linearGradient>
<linearGradient id="paint24_linear" x1="571.989" y1="345.435" x2="571.989" y2="387.554" gradientUnits="userSpaceOnUse">
<stop stop-color="#E8E8E8"/>
<stop offset="1" stop-color="#727272"/>
</linearGradient>
<linearGradient id="paint25_linear" x1="594.195" y1="352.75" x2="594.195" y2="379.244" gradientUnits="userSpaceOnUse">
<stop stop-color="#E8E8E8"/>
<stop offset="1" stop-color="#727272"/>
</linearGradient>
<linearGradient id="paint26_linear" x1="582.647" y1="366.334" x2="582.647" y2="407.095" gradientUnits="userSpaceOnUse">
<stop stop-color="#E8E8E8"/>
<stop offset="1" stop-color="#727272"/>
</linearGradient>
<linearGradient id="paint27_linear" x1="605.741" y1="364.976" x2="605.741" y2="407.095" gradientUnits="userSpaceOnUse">
<stop stop-color="#E8E8E8"/>
<stop offset="1" stop-color="#727272"/>
</linearGradient>
<linearGradient id="paint28_linear" x1="627.948" y1="372.291" x2="627.948" y2="398.785" gradientUnits="userSpaceOnUse">
<stop stop-color="#E8E8E8"/>
<stop offset="1" stop-color="#727272"/>
</linearGradient>
<linearGradient id="paint29_linear" x1="616.4" y1="385.875" x2="616.4" y2="426.636" gradientUnits="userSpaceOnUse">
<stop stop-color="#E8E8E8"/>
<stop offset="1" stop-color="#727272"/>
</linearGradient>
<linearGradient id="paint30_linear" x1="639.494" y1="384.517" x2="639.494" y2="426.636" gradientUnits="userSpaceOnUse">
<stop stop-color="#E8E8E8"/>
<stop offset="1" stop-color="#727272"/>
</linearGradient>
<linearGradient id="paint31_linear" x1="202.439" y1="298.069" x2="232.346" y2="249.929" gradientUnits="userSpaceOnUse">
<stop offset="0.132597" stop-color="#C4C4C4" stop-opacity="0"/>
<stop offset="1" stop-color="#484848"/>
</linearGradient>
<linearGradient id="paint32_linear" x1="79.6317" y1="366.579" x2="97.7166" y2="337.468" gradientUnits="userSpaceOnUse">
<stop offset="0.132597" stop-color="#C4C4C4" stop-opacity="0"/>
<stop offset="1" stop-color="#484848"/>
</linearGradient>
<linearGradient id="paint33_linear" x1="255.206" y1="363.155" x2="255.206" y2="379.241" gradientUnits="userSpaceOnUse">
<stop stop-color="#E8E8E8"/>
<stop offset="1" stop-color="#727272"/>
</linearGradient>
<linearGradient id="paint34_linear" x1="248.195" y1="371.403" x2="248.195" y2="396.15" gradientUnits="userSpaceOnUse">
<stop stop-color="#E8E8E8"/>
<stop offset="1" stop-color="#727272"/>
</linearGradient>
<linearGradient id="paint35_linear" x1="262.217" y1="370.578" x2="262.217" y2="396.15" gradientUnits="userSpaceOnUse">
<stop stop-color="#E8E8E8"/>
<stop offset="1" stop-color="#727272"/>
</linearGradient>
<linearGradient id="paint36_linear" x1="275.7" y1="375.019" x2="275.7" y2="391.105" gradientUnits="userSpaceOnUse">
<stop stop-color="#E8E8E8"/>
<stop offset="1" stop-color="#727272"/>
</linearGradient>
<linearGradient id="paint37_linear" x1="268.688" y1="383.267" x2="268.688" y2="408.014" gradientUnits="userSpaceOnUse">
<stop stop-color="#E8E8E8"/>
<stop offset="1" stop-color="#727272"/>
</linearGradient>
<linearGradient id="paint38_linear" x1="282.709" y1="382.442" x2="282.709" y2="408.014" gradientUnits="userSpaceOnUse">
<stop stop-color="#E8E8E8"/>
<stop offset="1" stop-color="#727272"/>
</linearGradient>
<linearGradient id="paint39_linear" x1="296.192" y1="386.883" x2="296.192" y2="402.969" gradientUnits="userSpaceOnUse">
<stop stop-color="#E8E8E8"/>
<stop offset="1" stop-color="#727272"/>
</linearGradient>
<linearGradient id="paint40_linear" x1="289.181" y1="395.131" x2="289.181" y2="419.878" gradientUnits="userSpaceOnUse">
<stop stop-color="#E8E8E8"/>
<stop offset="1" stop-color="#727272"/>
</linearGradient>
<linearGradient id="paint41_linear" x1="303.202" y1="394.306" x2="303.202" y2="419.879" gradientUnits="userSpaceOnUse">
<stop stop-color="#E8E8E8"/>
<stop offset="1" stop-color="#727272"/>
</linearGradient>
<linearGradient id="paint42_linear" x1="316.685" y1="398.747" x2="316.685" y2="414.833" gradientUnits="userSpaceOnUse">
<stop stop-color="#E8E8E8"/>
<stop offset="1" stop-color="#727272"/>
</linearGradient>
<linearGradient id="paint43_linear" x1="309.674" y1="406.995" x2="309.674" y2="431.743" gradientUnits="userSpaceOnUse">
<stop stop-color="#E8E8E8"/>
<stop offset="1" stop-color="#727272"/>
</linearGradient>
<linearGradient id="paint44_linear" x1="323.695" y1="406.17" x2="323.695" y2="431.743" gradientUnits="userSpaceOnUse">
<stop stop-color="#E8E8E8"/>
<stop offset="1" stop-color="#727272"/>
</linearGradient>
<linearGradient id="paint45_linear" x1="337.178" y1="410.612" x2="337.178" y2="426.697" gradientUnits="userSpaceOnUse">
<stop stop-color="#E8E8E8"/>
<stop offset="1" stop-color="#727272"/>
</linearGradient>
<linearGradient id="paint46_linear" x1="330.167" y1="418.86" x2="330.167" y2="443.607" gradientUnits="userSpaceOnUse">
<stop stop-color="#E8E8E8"/>
<stop offset="1" stop-color="#727272"/>
</linearGradient>
<linearGradient id="paint47_linear" x1="344.188" y1="418.035" x2="344.188" y2="443.607" gradientUnits="userSpaceOnUse">
<stop stop-color="#E8E8E8"/>
<stop offset="1" stop-color="#727272"/>
</linearGradient>
</defs>
</svg>
