<svg width="686" height="501" viewBox="0 0 686 501" fill="none" xmlns="http://www.w3.org/2000/svg">
<path fill-rule="evenodd" clip-rule="evenodd" d="M360.746 387.197V478.899H353.31V387.197H360.746Z" fill="#FFD215"/>
<path fill-rule="evenodd" clip-rule="evenodd" d="M357.028 476.155C359.135 476.155 360.746 477.229 360.746 478.457C360.746 479.684 359.135 480.758 357.028 480.758C354.921 480.758 353.31 479.684 353.31 478.457C353.31 477.229 354.921 476.155 357.028 476.155Z" fill="#FFD215"/>
<path fill-rule="evenodd" clip-rule="evenodd" d="M342.157 388.436V459.072H334.722V388.436H342.157Z" fill="#3C8AFE"/>
<path fill-rule="evenodd" clip-rule="evenodd" d="M338.439 456.593C340.546 456.593 342.157 457.667 342.157 458.895C342.157 460.122 340.546 461.196 338.439 461.196C336.333 461.196 334.722 460.122 334.722 458.895C334.722 457.667 336.333 456.593 338.439 456.593Z" fill="#3C8AFE"/>
<path fill-rule="evenodd" clip-rule="evenodd" d="M338.439 387.197C340.546 387.197 342.157 387.775 342.157 388.436C342.157 389.097 340.546 389.675 338.439 389.675C336.333 389.675 334.722 389.097 334.722 388.436C334.722 387.775 336.333 387.197 338.439 387.197Z" fill="#06AFFF"/>
<path fill-rule="evenodd" clip-rule="evenodd" d="M379.334 366.13V408.263H371.899V366.13H379.334Z" fill="#17CE8A"/>
<path fill-rule="evenodd" clip-rule="evenodd" d="M375.616 405.785C377.723 405.785 379.334 406.859 379.334 408.086C379.334 409.314 377.723 410.388 375.616 410.388C373.51 410.388 371.899 409.314 371.899 408.086C371.899 406.859 373.51 405.785 375.616 405.785Z" fill="#17CE8A"/>
<path fill-rule="evenodd" clip-rule="evenodd" d="M139.145 295.262L139.145 273.87C139.145 273.87 342.743 182.477 344.264 183.346L546.888 275.928V295.731C546.888 295.731 546.888 297.706 544.913 298.693L345.894 413.466C344.373 414.336 341.983 414.336 340.462 413.466L140.34 298.195C138.819 297.326 139.145 295.262 139.145 295.262Z" fill="#DBDDDE"/>
<path fill-rule="evenodd" clip-rule="evenodd" d="M140.103 272.471L340.67 158.591C342.191 157.722 344.581 157.722 346.103 158.591L545.874 274.446C547.395 275.315 547.395 276.727 545.874 277.597L347.841 391.415C346.32 392.284 343.93 392.284 342.409 391.415L140.212 275.622C138.691 274.753 138.582 273.34 140.103 272.471Z" fill="#F3F3F3"/>
<path fill-rule="evenodd" clip-rule="evenodd" d="M260.819 271.781L341.396 225.131C341.996 224.767 342.957 224.767 343.678 225.131L424.735 272.144C425.336 272.508 425.336 273.113 424.735 273.477L344.278 320.006C343.678 320.369 342.717 320.369 341.996 320.006L260.819 272.992C260.218 272.629 260.218 272.144 260.819 271.781Z" fill="#DBDDDE"/>
<path fill-rule="evenodd" clip-rule="evenodd" d="M275.644 280.439C275.644 280.439 340.378 243.095 340.918 242.827C341.458 242.559 342.402 242.559 342.942 242.827C343.482 243.095 410.315 280.623 410.315 280.623C410.854 280.891 410.854 281.427 410.315 281.829L344.016 320.278C343.476 320.546 342.304 320.546 341.765 320.278L275.644 281.645C275.104 281.243 275.104 280.707 275.644 280.439Z" fill="#F9F9FE"/>
<path fill-rule="evenodd" clip-rule="evenodd" d="M323.569 438.005V492.632H316.133V438.005H323.569Z" fill="#F32626"/>
<path fill-rule="evenodd" clip-rule="evenodd" d="M319.851 491.494C321.958 491.494 323.569 492.025 323.569 492.632C323.569 493.239 321.958 493.77 319.851 493.77C317.744 493.77 316.133 493.239 316.133 492.632C316.133 492.025 317.744 491.494 319.851 491.494Z" fill="#F32626"/>
<path fill-rule="evenodd" clip-rule="evenodd" d="M319.851 436.766C321.958 436.766 323.569 437.344 323.569 438.005C323.569 438.666 321.958 439.244 319.851 439.244C317.744 439.244 316.133 438.666 316.133 438.005C316.133 437.344 317.744 436.766 319.851 436.766Z" fill="#F67C7C"/>
<path fill-rule="evenodd" clip-rule="evenodd" d="M360.838 81.7271V266.992H353.402V81.7271H360.838Z" fill="#FFD215"/>
<path fill-rule="evenodd" clip-rule="evenodd" d="M357.028 264.867C359.135 264.867 360.746 265.941 360.746 267.169C360.746 268.396 359.135 269.47 357.028 269.47C354.921 269.47 353.31 268.396 353.31 267.169C353.31 265.941 354.921 264.867 357.028 264.867Z" fill="#FFD215"/>
<path fill-rule="evenodd" clip-rule="evenodd" d="M379.425 226.097V241.764H371.99V226.097H379.425Z" fill="#FFD215"/>
<path fill-rule="evenodd" clip-rule="evenodd" d="M375.708 239.729C377.814 239.729 379.425 240.803 379.425 242.03C379.425 243.257 377.814 244.331 375.708 244.331C373.601 244.331 371.99 243.257 371.99 242.03C371.99 240.803 373.601 239.729 375.708 239.729Z" fill="#FFD215"/>
<path fill-rule="evenodd" clip-rule="evenodd" d="M375.708 224.858C377.814 224.858 379.425 225.436 379.425 226.097C379.425 226.758 377.814 227.336 375.708 227.336C373.601 227.336 371.99 226.758 371.99 226.097C371.99 225.436 373.601 224.858 375.708 224.858Z" fill="#FFEE50"/>
<path fill-rule="evenodd" clip-rule="evenodd" d="M323.66 7.99313V23.6605H316.225V7.99313H323.66Z" fill="#FFD215"/>
<path fill-rule="evenodd" clip-rule="evenodd" d="M319.942 21.6246C322.049 21.6246 323.66 22.6986 323.66 23.926C323.66 25.1534 322.049 26.2274 319.942 26.2274C317.836 26.2274 316.225 25.1534 316.225 23.926C316.225 22.6986 317.836 21.6246 319.942 21.6246Z" fill="#FFD215"/>
<path fill-rule="evenodd" clip-rule="evenodd" d="M319.942 6.75385C322.049 6.75385 323.66 7.33215 323.66 7.99307C323.66 8.65399 322.049 9.2323 319.942 9.2323C317.836 9.2323 316.225 8.65399 316.225 7.99307C316.225 7.33215 317.836 6.75385 319.942 6.75385Z" fill="#FFEE50"/>
<path fill-rule="evenodd" clip-rule="evenodd" d="M323.66 422.692V407.024H316.225V422.692H316.25C316.233 422.779 316.225 422.868 316.225 422.957C316.225 424.185 317.836 425.259 319.942 425.259C322.049 425.259 323.66 424.185 323.66 422.957C323.66 422.868 323.651 422.779 323.635 422.692H323.66Z" fill="#17CE8A"/>
<path fill-rule="evenodd" clip-rule="evenodd" d="M379.425 146.787V201.414H371.99V146.787H379.425Z" fill="#F32626"/>
<path fill-rule="evenodd" clip-rule="evenodd" d="M375.708 145.547C377.814 145.547 379.425 146.126 379.425 146.787C379.425 147.447 377.814 148.026 375.708 148.026C373.601 148.026 371.99 147.447 371.99 146.787C371.99 146.126 373.601 145.547 375.708 145.547Z" fill="#F67C7C"/>
<path fill-rule="evenodd" clip-rule="evenodd" d="M319.942 405.785C322.049 405.785 323.66 406.363 323.66 407.024C323.66 407.685 322.049 408.263 319.942 408.263C317.836 408.263 316.225 407.685 316.225 407.024C316.225 406.363 317.836 405.785 319.942 405.785Z" fill="#42E7AA"/>
<path fill-rule="evenodd" clip-rule="evenodd" d="M379.425 425.613V441.28H371.99V425.613H379.425Z" fill="#2F80ED"/>
<path fill-rule="evenodd" clip-rule="evenodd" d="M375.708 439.244C377.814 439.244 379.425 440.318 379.425 441.546C379.425 442.773 377.814 443.847 375.708 443.847C373.601 443.847 371.99 442.773 371.99 441.546C371.99 440.318 373.601 439.244 375.708 439.244Z" fill="#2F80ED"/>
<path fill-rule="evenodd" clip-rule="evenodd" d="M375.708 424.373C377.814 424.373 379.425 424.952 379.425 425.613C379.425 426.274 377.814 426.852 375.708 426.852C373.601 426.852 371.99 426.274 371.99 425.613C371.99 424.952 373.601 424.373 375.708 424.373Z" fill="#47D2FF"/>
<path fill-rule="evenodd" clip-rule="evenodd" d="M379.425 57.5621V73.2295H371.99V57.5621H379.425Z" fill="#2F80ED"/>
<path fill-rule="evenodd" clip-rule="evenodd" d="M375.708 71.1937C377.814 71.1937 379.425 72.2677 379.425 73.4951C379.425 74.7226 377.814 75.7966 375.708 75.7966C373.601 75.7966 371.99 74.7226 371.99 73.4951C371.99 72.2677 373.601 71.1937 375.708 71.1937Z" fill="#2F80ED"/>
<path fill-rule="evenodd" clip-rule="evenodd" d="M375.708 56.3229C377.814 56.3229 379.425 56.9012 379.425 57.5622C379.425 58.2231 377.814 58.8014 375.708 58.8014C373.601 58.8014 371.99 58.2231 371.99 57.5622C371.99 56.9012 373.601 56.3229 375.708 56.3229Z" fill="#47D2FF"/>
<path fill-rule="evenodd" clip-rule="evenodd" d="M379.425 457.833V485.892C376.522 485.892 374.894 485.892 371.99 485.892V457.833H379.425Z" fill="#FF5256"/>
<path fill-rule="evenodd" clip-rule="evenodd" d="M375.708 483.856C377.814 483.856 379.425 484.93 379.425 486.158C379.425 487.385 377.814 488.459 375.708 488.459C373.601 488.459 371.99 487.385 371.99 486.158C371.99 484.93 373.601 483.856 375.708 483.856Z" fill="#FF5256"/>
<path fill-rule="evenodd" clip-rule="evenodd" d="M375.708 456.593C377.814 456.593 379.425 457.172 379.425 457.833C379.425 458.494 377.814 459.072 375.708 459.072C373.601 459.072 371.99 458.494 371.99 457.833C371.99 457.172 373.601 456.593 375.708 456.593Z" fill="#F67C7C"/>
<path fill-rule="evenodd" clip-rule="evenodd" d="M360.837 41.4523V50.9235C357.933 50.9235 356.305 50.9235 353.401 50.9235V41.4523H360.837Z" fill="#FF5256"/>
<path fill-rule="evenodd" clip-rule="evenodd" d="M357.119 48.8876C359.226 48.8876 360.837 49.9616 360.837 51.189C360.837 52.4164 359.226 53.4904 357.119 53.4904C355.012 53.4904 353.401 52.4164 353.401 51.189C353.401 49.9616 355.012 48.8876 357.119 48.8876Z" fill="#FF5256"/>
<path fill-rule="evenodd" clip-rule="evenodd" d="M357.119 40.213C359.226 40.213 360.837 40.7913 360.837 41.4522C360.837 42.1132 359.226 42.6915 357.119 42.6915C355.012 42.6915 353.401 42.1132 353.401 41.4522C353.401 40.7913 355.012 40.213 357.119 40.213Z" fill="#F67C7C"/>
<path fill-rule="evenodd" clip-rule="evenodd" d="M360.837 283.102V298.769H353.401V283.102H360.837Z" fill="#2F80ED"/>
<path fill-rule="evenodd" clip-rule="evenodd" d="M357.119 296.733C359.226 296.733 360.837 297.807 360.837 299.034C360.837 300.262 359.226 301.336 357.119 301.336C355.012 301.336 353.401 300.262 353.401 299.034C353.401 297.807 355.012 296.733 357.119 296.733Z" fill="#2F80ED"/>
<path fill-rule="evenodd" clip-rule="evenodd" d="M357.119 281.862C359.226 281.862 360.837 282.441 360.837 283.102C360.837 283.762 359.226 284.341 357.119 284.341C355.012 284.341 353.401 283.762 353.401 283.102C353.401 282.441 355.012 281.862 357.119 281.862Z" fill="#47D2FF"/>
<path fill-rule="evenodd" clip-rule="evenodd" d="M357.119 80.4879C359.226 80.4879 360.837 81.0662 360.837 81.7271C360.837 82.3881 359.226 82.9664 357.119 82.9664C355.012 82.9664 353.401 82.3881 353.401 81.7271C353.401 81.0662 355.012 80.4879 357.119 80.4879Z" fill="#FFEE50"/>
<path fill-rule="evenodd" clip-rule="evenodd" d="M342.157 17.9069V166.614H334.722V17.9069H342.157Z" fill="#3C8AFE"/>
<path fill-rule="evenodd" clip-rule="evenodd" d="M338.439 164.49C340.546 164.49 342.157 165.564 342.157 166.791C342.157 168.019 340.546 169.093 338.439 169.093C336.333 169.093 334.722 168.019 334.722 166.791C334.722 165.564 336.333 164.49 338.439 164.49Z" fill="#3C8AFE"/>
<path fill-rule="evenodd" clip-rule="evenodd" d="M338.439 16.6677C340.546 16.6677 342.157 17.246 342.157 17.9069C342.157 18.5678 340.546 19.1461 338.439 19.1461C336.333 19.1461 334.722 18.5678 334.722 17.9069C334.722 17.246 336.333 16.6677 338.439 16.6677Z" fill="#06AFFF"/>
<path fill-rule="evenodd" clip-rule="evenodd" d="M323.569 223.619V294.255H316.133V223.619H323.569Z" fill="#3C8AFE"/>
<path fill-rule="evenodd" clip-rule="evenodd" d="M319.851 291.776C321.958 291.776 323.569 292.85 323.569 294.077C323.569 295.305 321.958 296.379 319.851 296.379C317.744 296.379 316.133 295.305 316.133 294.077C316.133 292.85 317.744 291.776 319.851 291.776Z" fill="#3C8AFE"/>
<path fill-rule="evenodd" clip-rule="evenodd" d="M319.851 222.379C321.958 222.379 323.569 222.958 323.569 223.619C323.569 224.279 321.958 224.858 319.851 224.858C317.744 224.858 316.133 224.279 316.133 223.619C316.133 222.958 317.744 222.379 319.851 222.379Z" fill="#06AFFF"/>
<path fill-rule="evenodd" clip-rule="evenodd" d="M342.157 193.877V236.011H334.722V193.877H342.157Z" fill="#17CE8A"/>
<path fill-rule="evenodd" clip-rule="evenodd" d="M338.439 233.532C340.546 233.532 342.157 234.606 342.157 235.834C342.157 237.061 340.546 238.135 338.439 238.135C336.333 238.135 334.722 237.061 334.722 235.834C334.722 234.606 336.333 233.532 338.439 233.532Z" fill="#17CE8A"/>
<path fill-rule="evenodd" clip-rule="evenodd" d="M338.439 192.638C340.546 192.638 342.157 193.216 342.157 193.877C342.157 194.538 340.546 195.116 338.439 195.116C336.333 195.116 334.722 194.538 334.722 193.877C334.722 193.216 336.333 192.638 338.439 192.638Z" fill="#42E7AA"/>
<path fill-rule="evenodd" clip-rule="evenodd" d="M379.334 95.9782V129.437H371.899V95.9782H379.334Z" fill="#17CE8A"/>
<path fill-rule="evenodd" clip-rule="evenodd" d="M375.616 126.959C377.723 126.959 379.334 128.033 379.334 129.26C379.334 130.488 377.723 131.562 375.616 131.562C373.51 131.562 371.899 130.488 371.899 129.26C371.899 128.033 373.51 126.959 375.616 126.959Z" fill="#17CE8A"/>
<path fill-rule="evenodd" clip-rule="evenodd" d="M375.616 94.739C377.723 94.739 379.334 95.3173 379.334 95.9782C379.334 96.6392 377.723 97.2175 375.616 97.2175C373.51 97.2175 371.899 96.6392 371.899 95.9782C371.899 95.3173 373.51 94.739 375.616 94.739Z" fill="#42E7AA"/>
<path fill-rule="evenodd" clip-rule="evenodd" d="M379.334 260.795V299.831L371.899 304.168V260.795H379.334Z" fill="#17CE8A"/>
<path fill-rule="evenodd" clip-rule="evenodd" d="M375.616 259.556C377.723 259.556 379.334 260.135 379.334 260.795C379.334 261.456 377.723 262.035 375.616 262.035C373.51 262.035 371.899 261.456 371.899 260.795C371.899 260.135 373.51 259.556 375.616 259.556Z" fill="#42E7AA"/>
<path fill-rule="evenodd" clip-rule="evenodd" d="M342.157 271.948V320.449L334.722 316.107V271.948H342.157Z" fill="#F32626"/>
<path fill-rule="evenodd" clip-rule="evenodd" d="M338.439 270.709C340.546 270.709 342.157 271.288 342.157 271.949C342.157 272.609 340.546 273.188 338.439 273.188C336.333 273.188 334.722 272.609 334.722 271.949C334.722 271.288 336.333 270.709 338.439 270.709Z" fill="#F67C7C"/>
<path fill-rule="evenodd" clip-rule="evenodd" d="M323.569 56.3229V181.485H316.133V56.3229H323.569Z" fill="#F32626"/>
<path fill-rule="evenodd" clip-rule="evenodd" d="M319.851 180.448C321.958 180.448 323.569 180.979 323.569 181.586C323.569 182.193 321.958 182.724 319.851 182.724C317.744 182.724 316.133 182.193 316.133 181.586C316.133 180.979 317.744 180.448 319.851 180.448Z" fill="#F32626"/>
<path fill-rule="evenodd" clip-rule="evenodd" d="M319.851 55.0837C321.958 55.0837 323.569 55.662 323.569 56.3229C323.569 56.9838 321.958 57.5621 319.851 57.5621C317.744 57.5621 316.133 56.9838 316.133 56.3229C316.133 55.662 317.744 55.0837 319.851 55.0837Z" fill="#F67C7C"/>
</svg>
