<svg width="47" height="20" viewBox="0 0 47 20" fill="none" xmlns="http://www.w3.org/2000/svg">
<path d="M37.2344 0.0515464C34.8322 0.0515464 32.2211 0.927835 29.4533 2.73196L23.5 7.1134L17.7033 2.78351L17.5467 2.68041C14.7789 0.876289 12.1678 0 9.76556 0C4.02111 0.0515464 0 5.05155 0 10C0 14.9485 4.02111 19.9485 9.76556 19.9485C12.1678 19.9485 14.7789 19.0722 17.5467 17.268L23.5 12.8866L29.2967 17.2165L29.4533 17.3196C32.2211 19.1237 34.8322 20 37.2344 20C42.9789 20 47 15 47 10.0515C47 5.05155 42.9789 0.0515464 37.2344 0.0515464ZM14.9356 13.4536C12.9511 14.6907 11.1756 15.3608 9.71333 15.3608C6.47556 15.3608 4.59556 12.0103 4.59556 10C4.59556 7.98969 6.47556 4.63918 9.71333 4.63918C11.1756 4.63918 12.9511 5.30928 14.9356 6.54639L19.5833 10L14.9356 13.4536ZM37.2344 15.3608C35.7722 15.3608 33.9967 14.6907 32.0122 13.4536L27.3644 10L32.0122 6.54639C33.9967 5.30928 35.7722 4.63918 37.2344 4.63918C40.4722 4.63918 42.3522 7.98969 42.3522 10C42.3522 12.0103 40.4722 15.3608 37.2344 15.3608Z" fill="url(#paint0_linear)"/>
<defs>
<linearGradient id="paint0_linear" x1="23.4745" y1="0.00354767" x2="23.4745" y2="20.0018" gradientUnits="userSpaceOnUse">
<stop stop-color="#2F80ED"/>
<stop offset="0.99" stop-color="#1B447A"/>
</linearGradient>
</defs>
</svg>
