<svg width="188" height="188" viewBox="0 0 188 188" fill="none" xmlns="http://www.w3.org/2000/svg">
<path d="M94 188C145.915 188 188 145.915 188 94C188 42.0852 145.915 0 94 0C42.0852 0 0 42.0852 0 94C0 145.915 42.0852 188 94 188Z" fill="#BFD3DE" fill-opacity="0.3"/>
<path d="M173 94C173.002 106.615 169.983 119.047 164.195 130.256C158.407 141.465 150.02 151.125 139.734 158.428C129.447 165.73 117.562 170.464 105.072 172.232C92.5811 174 79.8489 172.751 67.9401 168.589C56.0313 164.428 45.2921 157.475 36.6211 148.313C27.9501 139.151 21.5993 128.045 18.1001 115.925C14.6009 103.805 14.055 91.0234 16.508 78.6492C18.9611 66.2751 24.3418 54.6684 32.2 44.8L34.9 41.5C45.5398 29.505 59.5776 21.0316 75.1482 17.2054C90.7189 13.3792 107.085 14.3815 122.073 20.0791C137.06 25.7767 149.959 35.8998 159.055 49.1035C168.152 62.3071 173.016 77.9661 173 94Z" fill="#BFD3DE"/>
<path d="M173 94C173.02 107.969 169.327 121.692 162.298 133.764C155.27 145.836 145.158 155.822 133 162.7C130.102 164.366 127.095 165.836 124 167.1L120 168.6C117.294 169.597 114.52 170.399 111.7 171C105.894 172.328 99.9563 172.999 94 173C90.6576 173.002 87.3181 172.802 84 172.4L80 171.8L78 171.4L74 170.4L72 169.9L68 168.6L64 167.1C60.9052 165.836 57.8984 164.366 55 162.7C45.0763 157.065 36.4912 149.347 29.8354 140.077C23.1797 130.808 18.6112 120.206 16.4445 109.001C14.2778 97.7972 14.5642 86.2565 17.284 75.1735C20.0039 64.0905 25.0926 53.7283 32.2 44.8L34.9 41.5C45.5398 29.505 59.5776 21.0316 75.1482 17.2054C90.7189 13.3792 107.085 14.3815 122.073 20.0791C137.06 25.7767 149.959 35.8998 159.055 49.1035C168.152 62.3071 173.016 77.9661 173 94Z" fill="#BFD3DE"/>
<path d="M133 54V162.7C130.102 164.366 127.095 165.836 124 167.1L120 168.6C117.294 169.597 114.52 170.399 111.7 171C105.894 172.328 99.9563 172.999 94 173C90.6576 173.003 87.3181 172.802 84 172.4L80 171.8L78 171.4L74 170.4L72 169.9L68 168.6L64 167.1C60.9052 165.836 57.8984 164.366 55 162.7V54H133Z" fill="#708899"/>
<path d="M124 63V167.1L120 168.6C117.294 169.597 114.52 170.399 111.7 171C105.894 172.328 99.9563 172.999 94 173C90.6576 173.003 87.3181 172.802 84 172.4L80 171.8L78 171.4L74 170.4L72 169.9L68 168.6L64 167.1V63H124Z" fill="#4B5C69"/>
<path d="M130 48H58V54H130V48Z" fill="#708899"/>
<path opacity="0.1" d="M130 52H58V54H130V52Z" fill="black"/>
<path d="M60 91H58V141H60V91Z" fill="#E1EBF2"/>
<path opacity="0.2" d="M62 93H60V143H62V93Z" fill="black"/>
<path d="M124 87H64V89H124V87Z" fill="#404F59"/>
<path d="M124 109H64V111H124V109Z" fill="#404F59"/>
<path d="M124 133H64V135H124V133Z" fill="#404F59"/>
<path d="M68 85H92V76H68V85Z" fill="#404F59"/>
<path d="M96 85H120V76H96V85Z" fill="#404F59"/>
<path d="M68 74H92V65H68V74Z" fill="#404F59"/>
<path d="M96 74H120V65H96V74Z" fill="#404F59"/>
<path d="M72 83C72.5523 83 73 82.5523 73 82C73 81.4477 72.5523 81 72 81C71.4477 81 71 81.4477 71 82C71 82.5523 71.4477 83 72 83Z" fill="#00AB44"/>
<path d="M75 83C75.5523 83 76 82.5523 76 82C76 81.4477 75.5523 81 75 81C74.4477 81 74 81.4477 74 82C74 82.5523 74.4477 83 75 83Z" fill="#00AB44"/>
<path d="M78 83C78.5523 83 79 82.5523 79 82C79 81.4477 78.5523 81 78 81C77.4477 81 77 81.4477 77 82C77 82.5523 77.4477 83 78 83Z" fill="#00AB44"/>
<path d="M81 83C81.5523 83 82 82.5523 82 82C82 81.4477 81.5523 81 81 81C80.4477 81 80 81.4477 80 82C80 82.5523 80.4477 83 81 83Z" fill="#00AB44"/>
<path d="M100 83C100.552 83 101 82.5523 101 82C101 81.4477 100.552 81 100 81C99.4477 81 99 81.4477 99 82C99 82.5523 99.4477 83 100 83Z" fill="#00AB44"/>
<path d="M103 83C103.552 83 104 82.5523 104 82C104 81.4477 103.552 81 103 81C102.448 81 102 81.4477 102 82C102 82.5523 102.448 83 103 83Z" fill="#00AB44"/>
<path d="M106 83C106.552 83 107 82.5523 107 82C107 81.4477 106.552 81 106 81C105.448 81 105 81.4477 105 82C105 82.5523 105.448 83 106 83Z" fill="#FF4136"/>
<path d="M109 83C109.552 83 110 82.5523 110 82C110 81.4477 109.552 81 109 81C108.448 81 108 81.4477 108 82C108 82.5523 108.448 83 109 83Z" fill="#00AB44"/>
<path d="M72 72C72.5523 72 73 71.5523 73 71C73 70.4477 72.5523 70 72 70C71.4477 70 71 70.4477 71 71C71 71.5523 71.4477 72 72 72Z" fill="#00AB44"/>
<path d="M75 72C75.5523 72 76 71.5523 76 71C76 70.4477 75.5523 70 75 70C74.4477 70 74 70.4477 74 71C74 71.5523 74.4477 72 75 72Z" fill="#00AB44"/>
<path d="M78 72C78.5523 72 79 71.5523 79 71C79 70.4477 78.5523 70 78 70C77.4477 70 77 70.4477 77 71C77 71.5523 77.4477 72 78 72Z" fill="#FF4136"/>
<path d="M81 72C81.5523 72 82 71.5523 82 71C82 70.4477 81.5523 70 81 70C80.4477 70 80 70.4477 80 71C80 71.5523 80.4477 72 81 72Z" fill="#FF4136"/>
<path d="M100 72C100.552 72 101 71.5523 101 71C101 70.4477 100.552 70 100 70C99.4477 70 99 70.4477 99 71C99 71.5523 99.4477 72 100 72Z" fill="#00AB44"/>
<path d="M103 72C103.552 72 104 71.5523 104 71C104 70.4477 103.552 70 103 70C102.448 70 102 70.4477 102 71C102 71.5523 102.448 72 103 72Z" fill="#00AB44"/>
<path d="M106 72C106.552 72 107 71.5523 107 71C107 70.4477 106.552 70 106 70C105.448 70 105 70.4477 105 71C105 71.5523 105.448 72 106 72Z" fill="#00AB44"/>
<path d="M109 72C109.552 72 110 71.5523 110 71C110 70.4477 109.552 70 109 70C108.448 70 108 70.4477 108 71C108 71.5523 108.448 72 109 72Z" fill="#00AB44"/>
<path d="M68 132H92V123H68V132Z" fill="#404F59"/>
<path d="M96 132H120V123H96V132Z" fill="#404F59"/>
<path d="M68 121H92V112H68V121Z" fill="#404F59"/>
<path d="M96 121H120V112H96V121Z" fill="#404F59"/>
<path d="M68 141H92V136H68V141Z" fill="#404F59"/>
<path d="M96 141H120V136H96V141Z" fill="#404F59"/>
<path d="M68 148H92V143H68V148Z" fill="#404F59"/>
<path d="M96 148H120V143H96V148Z" fill="#404F59"/>
<path d="M72 130C72.5523 130 73 129.552 73 129C73 128.448 72.5523 128 72 128C71.4477 128 71 128.448 71 129C71 129.552 71.4477 130 72 130Z" fill="#00AB44"/>
<path d="M75 130C75.5523 130 76 129.552 76 129C76 128.448 75.5523 128 75 128C74.4477 128 74 128.448 74 129C74 129.552 74.4477 130 75 130Z" fill="#00AB44"/>
<path d="M78 130C78.5523 130 79 129.552 79 129C79 128.448 78.5523 128 78 128C77.4477 128 77 128.448 77 129C77 129.552 77.4477 130 78 130Z" fill="#00AB44"/>
<path d="M81 130C81.5523 130 82 129.552 82 129C82 128.448 81.5523 128 81 128C80.4477 128 80 128.448 80 129C80 129.552 80.4477 130 81 130Z" fill="#00AB44"/>
<path d="M100 130C100.552 130 101 129.552 101 129C101 128.448 100.552 128 100 128C99.4477 128 99 128.448 99 129C99 129.552 99.4477 130 100 130Z" fill="#00AB44"/>
<path d="M103 130C103.552 130 104 129.552 104 129C104 128.448 103.552 128 103 128C102.448 128 102 128.448 102 129C102 129.552 102.448 130 103 130Z" fill="#00AB44"/>
<path d="M106 130C106.552 130 107 129.552 107 129C107 128.448 106.552 128 106 128C105.448 128 105 128.448 105 129C105 129.552 105.448 130 106 130Z" fill="#00AB44"/>
<path d="M109 130C109.552 130 110 129.552 110 129C110 128.448 109.552 128 109 128C108.448 128 108 128.448 108 129C108 129.552 108.448 130 109 130Z" fill="#FF4136"/>
<path d="M72 119C72.5523 119 73 118.552 73 118C73 117.448 72.5523 117 72 117C71.4477 117 71 117.448 71 118C71 118.552 71.4477 119 72 119Z" fill="#FF4136"/>
<path d="M75 119C75.5523 119 76 118.552 76 118C76 117.448 75.5523 117 75 117C74.4477 117 74 117.448 74 118C74 118.552 74.4477 119 75 119Z" fill="#00AB44"/>
<path d="M78 119C78.5523 119 79 118.552 79 118C79 117.448 78.5523 117 78 117C77.4477 117 77 117.448 77 118C77 118.552 77.4477 119 78 119Z" fill="#00AB44"/>
<path d="M81 119C81.5523 119 82 118.552 82 118C82 117.448 81.5523 117 81 117C80.4477 117 80 117.448 80 118C80 118.552 80.4477 119 81 119Z" fill="#00AB44"/>
<path d="M100 119C100.552 119 101 118.552 101 118C101 117.448 100.552 117 100 117C99.4477 117 99 117.448 99 118C99 118.552 99.4477 119 100 119Z" fill="#00AB44"/>
<path d="M103 119C103.552 119 104 118.552 104 118C104 117.448 103.552 117 103 117C102.448 117 102 117.448 102 118C102 118.552 102.448 119 103 119Z" fill="#FF4136"/>
<path d="M106 119C106.552 119 107 118.552 107 118C107 117.448 106.552 117 106 117C105.448 117 105 117.448 105 118C105 118.552 105.448 119 106 119Z" fill="#FF4136"/>
<path d="M109 119C109.552 119 110 118.552 110 118C110 117.448 109.552 117 109 117C108.448 117 108 117.448 108 118C108 118.552 108.448 119 109 119Z" fill="#00AB44"/>
<path d="M72 91H68V107H72V91Z" fill="#404F59"/>
<path d="M78 91H74V107H78V91Z" fill="#404F59"/>
<path d="M84 91H80V107H84V91Z" fill="#404F59"/>
<path d="M120 91H87V95H120V91Z" fill="#404F59"/>
<path d="M120 97H87V101H120V97Z" fill="#404F59"/>
<path d="M70 94C70.5523 94 71 93.5523 71 93C71 92.4477 70.5523 92 70 92C69.4477 92 69 92.4477 69 93C69 93.5523 69.4477 94 70 94Z" fill="#00AB44"/>
<path d="M76 94C76.5523 94 77 93.5523 77 93C77 92.4477 76.5523 92 76 92C75.4477 92 75 92.4477 75 93C75 93.5523 75.4477 94 76 94Z" fill="#00AB44"/>
<path d="M82 94C82.5523 94 83 93.5523 83 93C83 92.4477 82.5523 92 82 92C81.4477 92 81 92.4477 81 93C81 93.5523 81.4477 94 82 94Z" fill="#00AB44"/>
<path d="M124 157H64V159H124V157Z" fill="#404F59"/>
<path d="M72 161V169.9L68 168.6V161H72Z" fill="#404F59"/>
<path d="M78 161V171.4L74 170.4V161H78Z" fill="#404F59"/>
<path d="M84 161V172.4L80 171.8V161H84Z" fill="#404F59"/>
<path d="M120 161H87V165H120V161Z" fill="#404F59"/>
<path d="M120 167V168.6C117.294 169.597 114.52 170.399 111.7 171H87V167H120Z" fill="#404F59"/>
<path d="M70 164C70.5523 164 71 163.552 71 163C71 162.448 70.5523 162 70 162C69.4477 162 69 162.448 69 163C69 163.552 69.4477 164 70 164Z" fill="#00AB44"/>
<path d="M76 164C76.5523 164 77 163.552 77 163C77 162.448 76.5523 162 76 162C75.4477 162 75 162.448 75 163C75 163.552 75.4477 164 76 164Z" fill="#00AB44"/>
<path d="M82 164C82.5523 164 83 163.552 83 163C83 162.448 82.5523 162 82 162C81.4477 162 81 162.448 81 163C81 163.552 81.4477 164 82 164Z" fill="#00AB44"/>
<path d="M70.5 139C70.7761 139 71 138.776 71 138.5C71 138.224 70.7761 138 70.5 138C70.2239 138 70 138.224 70 138.5C70 138.776 70.2239 139 70.5 139Z" fill="#00AB44"/>
<path d="M70.5 146C70.7761 146 71 145.776 71 145.5C71 145.224 70.7761 145 70.5 145C70.2239 145 70 145.224 70 145.5C70 145.776 70.2239 146 70.5 146Z" fill="#00AB44"/>
<path d="M99.5 139C99.7761 139 100 138.776 100 138.5C100 138.224 99.7761 138 99.5 138C99.2239 138 99 138.224 99 138.5C99 138.776 99.2239 139 99.5 139Z" fill="#00AB44"/>
<path d="M99.5 146C99.7761 146 100 145.776 100 145.5C100 145.224 99.7761 145 99.5 145C99.2239 145 99 145.224 99 145.5C99 145.776 99.2239 146 99.5 146Z" fill="#FF4136"/>
<path d="M68 155H92V150H68V155Z" fill="#404F59"/>
<path d="M96 155H120V150H96V155Z" fill="#404F59"/>
<path d="M70.5 153C70.7761 153 71 152.776 71 152.5C71 152.224 70.7761 152 70.5 152C70.2239 152 70 152.224 70 152.5C70 152.776 70.2239 153 70.5 153Z" fill="#00AB44"/>
<path d="M99.5 153C99.7761 153 100 152.776 100 152.5C100 152.224 99.7761 152 99.5 152C99.2239 152 99 152.224 99 152.5C99 152.776 99.2239 153 99.5 153Z" fill="#00AB44"/>
<path opacity="0.2" d="M133 54V162.7C130.102 164.366 127.095 165.836 124 167.1L120 168.6C117.294 169.597 114.52 170.399 111.7 171C105.894 172.328 99.9563 172.999 94 173V48H130V54H133Z" fill="black"/>
<path d="M167 39.5C167 52.4 154.1 62.8 138 63H137.5C131.087 63.0522 124.786 61.3211 119.3 58C116.107 59.8591 113.56 62.6508 112 66C111.5 60.2 111.8 55.8 112.9 52.5C109.781 48.8823 108.045 44.2764 108 39.5C108 26.5 121.2 16 137.5 16H138C154.1 16.2 167 26.6 167 39.5Z" fill="#00AB44"/>
<path d="M139.5 31.5H127.1L132.8 47.5H139.5C141.622 47.5 143.657 46.6571 145.157 45.1569C146.657 43.6566 147.5 41.6217 147.5 39.5C147.5 37.3783 146.657 35.3434 145.157 33.8431C143.657 32.3429 141.622 31.5 139.5 31.5Z" fill="white"/>
<path opacity="0.2" d="M167 39.5C167 52.4 154.1 62.8 138 63V16C154.1 16.2 167 26.6 167 39.5Z" fill="#233646"/>
</svg>
