<?xml version="1.0" standalone="no"?>
<!-- SPDX-License-Identifier: CC0-1.0 -->
<!DOCTYPE svg PUBLIC "-//W3C//DTD SVG 20010904//EN"  "http://www.w3.org/TR/2001/REC-SVG-20010904/DTD/svg10.dtd">
<svg version="1.0" xmlns="http://www.w3.org/2000/svg"
 width="16.000000pt" height="16.000000pt" viewBox="0 0 16.000000 16.000000"
 preserveAspectRatio="xMidYMid meet">
 <metadata>
  Created by potrace 1.15, written by Peter Selinger 2001-2017
 </metadata>
 <g transform="translate(0.000000,16.000000) scale(0.003125,-0.003125)" fill="#000000" stroke="none">
  <path d="M3643 5008 c-235 -199 -1100 -956 -1108 -968 -4 -6 103 -10 293 -10 165 0 314 -3 331 -6 41 -8 40 -23 -4 -194 -95 -361 -208 -619 -396 -899 -425 -633 -1052 -1047 -1776 -1172 -159 -27 -444 -36 -647 -19 -185 15 -206 11 -206 -30 0 -24 7 -33 39 -50 80 -40 389 -115 646 -155 139 -22 612 -32 781 -16 910 85 1765 550 2281 1239 227 303 365 582 479 971 26 88 74 299 74 327 0 2 127 4 283 4 l282 0 -45 43 c-25 23 -167 148 -315 277 -149 129 -355 309 -460 400 -298 261 -404 350 -414 350 -5 0 -58 -42 -118 -92z"/>
  <path d="M4542 3770 c-74 -276 -162 -509 -266 -705 -73 -137 -190 -325 -270 -430 l-66 -88 0 -1269 0 -1268 320 0 320 0 -1 1773 c-1 974 -4 1840 -8 1922 l-6 150 -23 -85z"/>
  <path d="M3555 2148 c-96 -82 -310 -238 -442 -323 l-123 -78 0 -868 0 -869 320 0 320 0 0 1095 c0 602 -3 1095 -7 1095 -5 0 -35 -23 -68 -52z"/>
  <path d="M2599 1566 c-85 -36 -270 -95 -419 -136 l-135 -37 -3 -692 -2 -691 310 0 310 0 0 790 c0 435 -1 790 -2 790 -2 -1 -28 -11 -59 -24z"/>
  <path d="M127 1403 c-4 -54 -7 -389 -7 -745 l0 -648 320 0 320 0 0 669 0 669 -117 21 c-127 24 -342 78 -437 111 -33 11 -62 20 -66 20 -4 0 -10 -44 -13 -97z"/>
  <path d="M1635 1330 c-27 -5 -122 -9 -211 -9 -88 -1 -202 -4 -252 -7 l-92 -7 0 -648 0 -649 315 0 315 0 0 619 c0 577 -4 713 -19 710 -3 -1 -28 -5 -56 -9z"/>
 </g>
</svg>
