<?xml version="1.0" encoding="UTF-8" standalone="no"?>
<svg xmlns="http://www.w3.org/2000/svg" width="2500" height="2500" viewBox="0 0 256 256" preserveAspectRatio="xMidYMid"><path d="M256 128.004C256 57.31 198.691 0 127.998 0 57.336 0 .05 57.262 0 127.914v99.054c.038 16.042 13.049 29.029 29.101 29.029h98.949C198.72 255.969 256 198.679 256 128.004" fill="#294172"/><path d="M165.58 30.307c-33.109 0-60.045 26.935-60.045 60.045v31.87H73.797c-33.109 0-60.045 26.937-60.045 60.046 0 33.108 26.936 60.045 60.045 60.045s60.045-26.937 60.045-60.045v-31.871h31.738c33.109 0 60.046-26.936 60.046-60.045 0-33.11-26.937-60.045-60.046-60.045zm-59.823 151.961c0 17.622-14.337 31.959-31.96 31.959s-31.96-14.337-31.96-31.959c0-17.623 14.337-31.96 31.96-31.96h31.738v.089h.222v31.871zm59.823-59.956h-31.738v-.09h-.221v-31.87c0-17.623 14.337-31.96 31.959-31.96s31.96 14.337 31.96 31.96-14.338 31.96-31.96 31.96z" fill="#3C6EB4"/><path d="M178.851 32.128c-4.66-1.218-8.238-1.786-13.271-1.786-33.177 0-60.075 26.899-60.075 60.074v31.842h-25.16c-7.845 0-14.185 6.165-14.18 13.996 0 7.782 6.27 13.973 14.032 13.973l20.831.004c2.473 0 4.479 2 4.479 4.469v27.553c-.031 17.491-14.219 31.659-31.71 31.659-5.925 0-7.392-.776-11.437-.776-8.497 0-14.182 5.696-14.182 13.528.002 6.479 5.554 12.049 12.348 13.827 4.66 1.218 8.238 1.787 13.271 1.787 33.177 0 60.075-26.899 60.075-60.075v-31.841h25.16c7.845 0 14.185-6.165 14.18-13.996 0-7.783-6.27-13.973-14.032-13.973l-20.831-.004a4.475 4.475 0 0 1-4.479-4.47V90.366c.031-17.491 14.219-31.659 31.71-31.659 5.925 0 7.392.777 11.437.777 8.497 0 14.182-5.697 14.182-13.528-.002-6.48-5.554-12.05-12.348-13.828" fill="#FFF"/>
	<metadata>
		<rdf:RDF xmlns:rdf="http://www.w3.org/1999/02/22-rdf-syntax-ns#" xmlns:rdfs="http://www.w3.org/2000/01/rdf-schema#" xmlns:dc="http://purl.org/dc/elements/1.1/">
			<rdf:Description about="https://admin.iconscout.com/legal#licenses" dc:title="fedora-1" dc:description="fedora-1" dc:publisher="Iconscout" dc:date="2017-06-10" dc:format="image/svg+xml" dc:language="en">
				<dc:creator>
					<rdf:Bag>
						<rdf:li>Icon Mafia</rdf:li>
					</rdf:Bag>
				</dc:creator>
			</rdf:Description>
		</rdf:RDF>
    </metadata></svg>
