<?xml version="1.0" encoding="UTF-8"?><svg xmlns="http://www.w3.org/2000/svg" xmlns:xlink="http://www.w3.org/1999/xlink" viewBox="0 0 48 48" version="1.1"><g id="surface1"><path d="M20.102 16.2l.097 2.3-1.597 3-2.5 4.898-.5 4.102 1.796 5.8 4.102 2.302h6.2l5.8-4.403 2.602-6.898-6-7.301-1.704-4.102z" fill="#ECEFF1"/><path d="M34.3 21.898c-1.6-2.296-2.902-3.699-3.6-6.597-.7-2.903.198-2.102-.4-4.602C30 9.4 29.5 8.5 29 7.801c-.602-.7-1.3-1.102-1.7-1.2-.902-.5-3-1.3-5.6.098-2.7 1.403-2.4 4.403-1.9 10.5 0 .403-.1.903-.3 1.301-.398.898-1.102 1.7-1.7 2.398-.698 1-1.402 2-1.902 3.102-1.199 2.3-2.296 5.2-2 6.3.5-.1 6.801 9.5 6.801 9.7.403-.102 2.102-.102 3.602-.102 2.097-.097 3.3-.199 5 .204 0-.301-.102-.602-.102-.903 0-.597.102-1.097.2-1.8.101-.5.203-1 .3-1.598-1 .898-2.8 1.898-4.5 2.199-1.5.3-4-.2-5.199-1.7.102 0 .3 0 .398-.1.301-.098.602-.2.704-.4.296-.5.097-1-.102-1.3-.2-.3-1.7-1.398-2.398-2-.704-.602-1.102-.898-1.5-1.3 0 0-.602-.598-.801-.802-.2-.199-.301-.398-.403-.5-.199-.5-.296-1.097-.199-1.898.102-1.102.5-2 1-3 .2-.398.7-1.2.7-1.2s-1.7 4.2-.797 5.5c0 0 .097-1.3.5-2.6.296-.9.796-2.2 1.398-2.9.602-.698 2.102-3.3 2.2-4.902 0-.699.1-1.398.1-1.898-.402-.398 6.598-1.398 7-.3.098.402 1.5 4 2.302 5.902C30.5 23.5 31 24.3 31.3 25.3c.3 1.097.5 2.597.5 4.097 0 .301 0 .801-.102 1.301.2 0 4.102-4.199-.5-7.699 0 0 2.801 1.3 2.903 3.898.097 2.102-.801 3.801-1 4.102.097 0 2.097.898 2.199.898.398 0 1.199-.296 1.199-.296.102-.301.398-1.102.398-1.403.704-2.3-1-6-2.597-8.3z" fill="#263238"/><path d="M22.898 13.3c0-1.105-.582-2-1.296-2-.72 0-1.301.895-1.301 2 0 1.106.582 2 1.3 2 .715 0 1.297-.894 1.297-2z" fill="#ECEFF1"/><path d="M27.8 13.2c0-1.27-.76-2.302-1.698-2.302-.942 0-1.704 1.032-1.704 2.301 0 1.27.762 2.301 1.704 2.301.937 0 1.699-1.031 1.699-2.3z" fill="#ECEFF1"/><path d="M21.48 12.336c-.382.047-.625.617-.543 1.277.083.657.461 1.149.844 1.102.383-.047.63-.621.547-1.277-.086-.657-.465-1.153-.848-1.102z" fill="#212121"/><path d="M27 13.602c0-.72-.45-1.301-1-1.301s-1 .582-1 1.3c0 .715.45 1.297 1 1.297s1-.582 1-1.296z" fill="#212121"/><path d="M39.3 35.602c-.402-.204-1.1-.5-1.698-1.403-.301-.5-.204-1.898-.704-2.5-.296-.398-.699-.199-.796-.199-.903.2-3 1.602-4.403 0-.199-.2-.5-.5-1-.5s-.699.2-.898.602c-.2.398-.2.699-.2 1.699 0 .8 0 1.699-.101 2.398-.2 1.7-.5 2.7-.5 3.7 0 1.101.3 1.8.7 2.101.3.3.8.5 1.902.5 1.097 0 1.796-.398 2.5-1.102.5-.5.898-.699 2.296-1.699C37.5 38.5 39.2 37.602 39.5 37.301c.2-.2.5-.301.5-.903 0-.5-.398-.699-.7-.796z" fill="#FFC107"/><path d="M19.2 35.898C18.2 34.301 18.101 34 17.397 33c-.597-1-1.898-2.898-2.699-2.898-.597 0-.898.296-1.3.699-.399.398-.797 1.3-1.5 1.8-.598.5-2.297.399-2.7 1-.398.598.403 1.5.403 3 0 .598-.5 1-.602 1.399-.102.5-.2.8 0 1.2.398.6.898.8 4.3 1.5 1.802.402 3.5 1.402 4.598 1.5 1.102.1 3 0 3-2.7.102-1.602-.796-2-1.699-3.602z" fill="#FFC107"/><path d="M21.102 17.8C20.5 17.399 20 17 20 16.399c0-.597.398-.796 1-1.296C21.102 15 22.2 14 23.3 14c1.098 0 2.4.7 2.9.898.902.204 1.8.403 1.698 1.102-.097 1-.199 1.2-1.199 1.7-.699.198-2 1.3-2.898 1.3-.403 0-1 0-1.403-.102-.296-.097-.796-.597-1.296-1.097z" fill="#FFC107"/><path d="M20.898 17c.204.2.5.398.801.5.2.102.5.2.5.2h.903c.5 0 1.199-.2 1.898-.598.7-.301.8-.5 1.3-.704.5-.296 1-.597.802-.699-.204-.097-.403 0-1.102.403-.602.398-1.102.597-1.7.898-.3.102-.698.3-1 .3h-.902c-.296 0-.5-.1-.796-.198-.204-.102-.301-.204-.403-.204-.199-.097-.597-.5-.8-.597 0 0-.2 0-.098.097.3.301.398.403.597.602z" fill="#634703"/><path d="M23.898 14.8c.102.2.301.2.403.302.097.097.199.097.199.097.102-.097 0-.3-.102-.3 0-.2-.5-.2-.5-.098z" fill="#634703"/><path d="M22.3 15c0 .102.2.2.2.102.102-.102.2-.204.3-.204.2-.097.098-.199-.198-.199-.204.102-.204.2-.301.301z" fill="#634703"/><path d="M32 32.7v.3c.2.398.7.5 1.102.5.597 0 1.199-.398 1.5-.8 0-.098.097-.2.199-.302.199-.296.3-.5.398-.597 0 0-.097-.102-.097-.2-.102-.203-.403-.402-.801-.5-.301-.101-.801-.203-1-.203-.903-.097-1.403.204-1.7.5 0 0 .098 0 .098.102.2.2.301.398.301.7.102.198 0 .3 0 .5z" fill="#455A64"/></g><metadata><rdf:RDF xmlns:rdf="http://www.w3.org/1999/02/22-rdf-syntax-ns#" xmlns:rdfs="http://www.w3.org/2000/01/rdf-schema#" xmlns:dc="http://purl.org/dc/elements/1.1/"><rdf:Description about="https://iconscout.com/legal#licenses" dc:title="linux" dc:description="linux" dc:publisher="Iconscout" dc:date="2017-12-15" dc:format="image/svg+xml" dc:language="en"><dc:creator><rdf:Bag><rdf:li>Icons8</rdf:li></rdf:Bag></dc:creator></rdf:Description></rdf:RDF></metadata></svg>