<?xml version="1.0" encoding="UTF-8" standalone="no"?>
<!-- Created with Inkscape (http://www.inkscape.org/) -->

<svg
   xmlns:dc="http://purl.org/dc/elements/1.1/"
   xmlns:cc="http://creativecommons.org/ns#"
   xmlns:rdf="http://www.w3.org/1999/02/22-rdf-syntax-ns#"
   xmlns:svg="http://www.w3.org/2000/svg"
   xmlns="http://www.w3.org/2000/svg"
   xmlns:sodipodi="http://sodipodi.sourceforge.net/DTD/sodipodi-0.dtd"
   xmlns:inkscape="http://www.inkscape.org/namespaces/inkscape"
   id="svg2"
   version="1.1"
   inkscape:version="0.91 r13725"
   xml:space="preserve"
   width="400"
   height="250.37875"
   viewBox="0 0 400 250.37875"
   sodipodi:docname="openSUSElogo_rgb green.svg"><metadata
     id="metadata8"><rdf:RDF><cc:Work
         rdf:about=""><dc:format>image/svg+xml</dc:format><dc:type
           rdf:resource="http://purl.org/dc/dcmitype/StillImage" /><dc:title></dc:title></cc:Work></rdf:RDF></metadata><defs
     id="defs6"><clipPath
       clipPathUnits="userSpaceOnUse"
       id="clipPath16"><path
         d="m 0,200.303 320,0 L 320,0 0,0 0,200.303 Z"
         id="path18"
         inkscape:connector-curvature="0" /></clipPath></defs><sodipodi:namedview
     pagecolor="#ffffff"
     bordercolor="#666666"
     borderopacity="1"
     objecttolerance="10"
     gridtolerance="10"
     guidetolerance="10"
     inkscape:pageopacity="0"
     inkscape:pageshadow="2"
     inkscape:window-width="707"
     inkscape:window-height="480"
     id="namedview4"
     showgrid="false"
     inkscape:zoom="0.94257199"
     inkscape:cx="200"
     inkscape:cy="123.06752"
     inkscape:window-x="103"
     inkscape:window-y="66"
     inkscape:window-maximized="0"
     inkscape:current-layer="g10" /><g
     id="g10"
     inkscape:groupmode="layer"
     inkscape:label="openSUSElogo_rgb green"
     transform="matrix(1.25,0,0,-1.25,0,250.37875)"><g
       id="g12"><g
         id="g14"
         clip-path="url(#clipPath16)"><g
           id="g20"
           transform="translate(262.6839,162.7228)"><path
             d="m 0,0 c 0.175,4.73 2.156,9.12 5.614,12.34 3.46,3.231 7.975,4.9 12.708,4.75 9.761,-0.349 17.43,-8.589 17.095,-18.339 -0.184,-4.73 -2.164,-9.12 -5.614,-12.329 -3.46,-3.25 -7.964,-4.92 -12.719,-4.76 C 7.335,-17.979 -0.326,-9.758 0,0 Z m 47.347,-17.439 c 0.805,0.532 1.396,0.972 1.645,1.07 l 0.269,0.419 c -0.681,4.28 -7.06,25.03 -11.885,30.019 -1.329,1.36 -2.394,2.7 -4.549,3.961 -17.455,10.17 -58.863,16.309 -60.803,16.589 l -0.33,-0.091 -0.124,-0.3 c 0,0 -0.16,-8.58 -0.184,-9.539 -4.229,1.421 -34.972,11.351 -63.791,12.351 -24.44,0.859 -60.033,4.02 -107.196,-24.981 l -1.395,-0.868 c -22.189,-13.841 -37.509,-30.91 -45.517,-50.739 -2.512,-6.24 -5.89,-20.32 -2.542,-33.569 1.442,-5.791 4.131,-11.61 7.756,-16.819 8.194,-11.77 21.944,-19.58 36.748,-20.899 20.905,-1.87 36.733,7.519 42.363,25.1 3.871,12.129 0,29.927 -14.839,39.007 -12.07,7.391 -25.049,5.711 -32.578,0.73 -6.532,-4.331 -10.231,-11.06 -10.166,-18.451 0.151,-13.11 11.444,-20.078 19.565,-20.099 2.359,0 4.728,0.41 7.399,1.28 0.951,0.29 1.845,0.649 2.831,1.259 l 0.309,0.181 0.194,0.13 -0.065,-0.039 c 1.851,1.261 2.964,3.312 2.964,5.511 0,0.6 -0.084,1.208 -0.256,1.82 -0.959,3.32 -4.239,5.329 -7.638,4.71 l -0.459,-0.109 -0.621,-0.19 -0.901,-0.31 c -1.87,-0.46 -3.27,-0.5 -3.569,-0.51 -0.951,0.061 -5.625,1.461 -5.625,6.58 l 0,0.07 c 0,1.88 0.754,3.199 1.17,3.92 1.454,2.28 5.435,4.518 10.814,4.05 7.059,-0.611 12.149,-4.231 15.52,-11.06 3.129,-6.349 2.31,-14.159 -2.11,-19.88 -4.39,-5.669 -12.205,-8.078 -22.598,-6.959 -10.481,1.159 -19.34,7.19 -24.304,16.579 -4.856,9.178 -5.121,20.059 -0.685,28.418 10.609,20.029 30.648,19.82 41.636,17.921 16.26,-2.821 34.758,-17.82 41.319,-35.139 1.06,-2.761 1.6,-4.949 2.072,-6.951 l 0.708,-2.99 18.37,-8.969 0.24,-0.181 0.446,0.041 0.081,0.529 c -0.114,0.411 -0.381,0.789 -0.805,5.93 -0.349,4.562 -1.06,17.051 5.228,23.24 2.441,2.419 6.161,4.578 9.099,5.269 12.04,2.941 26.159,0.912 39.507,-14.539 6.911,-7.981 10.28,-11.62 11.97,-13.249 l 0.59,-0.532 0.694,-0.519 c 0.554,-0.301 22.955,-10.621 22.955,-10.621 l 0.461,0.11 0.009,0.479 c -0.149,0.17 -14.199,18.328 -11.698,33.28 1.969,11.908 11.447,10.83 24.557,9.35 4.28,-0.5 9.152,-1.06 14.196,-1.172 14.083,-0.089 29.254,2.511 38.604,6.601 6.049,2.63 9.909,4.38 12.328,6.579 0.87,0.721 1.32,1.891 1.791,3.15 l 0.329,0.831 c 0.391,1.021 0.967,3.171 1.219,4.35 0.102,0.519 0.162,1.068 -0.209,1.359 l -1.294,-0.24 c -4.106,-2.471 -14.369,-7.15 -23.965,-7.35 -11.914,-0.241 -35.898,11.98 -38.398,13.28 l -0.241,0.279 c -0.589,1.44 -4.19,9.949 -4.96,11.749 17.27,-11.379 31.594,-17.669 42.559,-18.639 12.207,-1.087 21.722,5.574 25.786,8.422 l -10e-4,0 z M 20.194,-1.64 c -3.031,0 -5.479,1.64 -5.479,3.65 0,2.029 2.448,3.66 5.479,3.66 3.031,0 5.486,-1.631 5.486,-3.66 C 25.678,0 23.223,-1.64 20.194,-1.64 M 18.173,11.872 C 14.862,11.991 11.723,10.821 9.323,8.571 6.924,6.321 5.509,3.273 5.409,-0.028 c -0.23,-6.821 5.111,-12.559 11.916,-12.81 3.309,-0.1 6.464,1.07 8.878,3.32 2.409,2.261 3.795,5.311 3.9,8.599 0.23,6.819 -5.109,12.549 -11.93,12.791 z"
             style="fill:#73ba25;fill-opacity:1;fill-rule:nonzero;stroke:none"
             id="path22"
             inkscape:connector-curvature="0" /></g><g
           id="g24"
           transform="translate(133.9789,60.2888)"><path
             d="m 0,0 c -7.784,0 -12.065,-6.58 -12.065,-11.13 l 0,-5.84 c 0,-6.7 5.474,-10.851 10.55,-10.851 l 17.819,0 c 2.245,0 2.715,-1.47 2.715,-2.71 l 0,-3.769 c 0,-0.4 -0.081,-4.02 -2.715,-4.02 l -24.303,0 c -2.415,0 -4.161,-1.68 -4.161,-3.98 l 0,-1.041 c 0,-2.291 1.746,-3.961 4.161,-3.961 l 25.623,0 c 6.698,0 11.02,4.66 11.02,11.879 l 0,6.302 c 0,6.779 -4.87,9.809 -9.706,9.809 l -17.533,0 c -2.64,0 -3.836,1.98 -3.836,3.38 l 0,3.48 c 0,2.19 1.465,3.46 4.025,3.46 l 19.408,0 c 2.38,0 4.171,1.71 4.171,3.971 l 0,1.04 C 25.173,-1.712 23.352,0 20.922,0 L 0,0 Z"
             style="fill:#73ba25;fill-opacity:1;fill-rule:nonzero;stroke:none"
             id="path26"
             inkscape:connector-curvature="0" /></g><g
           id="g28"
           transform="translate(206.8412,60.2888)"><path
             d="m 0,0 c -2.301,0 -4.155,-1.87 -4.155,-4.171 l 0,-29.838 c 0,-2.391 -1.95,-4.311 -4.311,-4.311 l -13.545,0 c -2.369,0 -4.309,1.92 -4.309,4.311 l 0,29.838 C -26.32,-1.87 -28.19,0 -30.489,0 l -1.31,0 c -2.335,0 -4.171,-1.842 -4.171,-4.171 l 0,-30.968 c 0,-7.21 5.674,-12.44 13.489,-12.44 l 14.485,0 c 7.805,0 13.475,5.229 13.475,12.44 l 0,30.968 C 5.479,-1.842 3.65,0 1.319,0 L 0,0 Z"
             style="fill:#73ba25;fill-opacity:1;fill-rule:nonzero;stroke:none"
             id="path30"
             inkscape:connector-curvature="0" /></g><g
           id="g32"
           transform="translate(232.7736,60.2888)"><path
             d="m 0,0 c -7.78,0 -12.074,-6.58 -12.074,-11.13 l 0,-5.84 c 0,-6.7 5.485,-10.851 10.564,-10.851 l 17.814,0 c 2.248,0 2.72,-1.47 2.72,-2.71 l 0,-3.769 c 0,-0.4 -0.081,-4.02 -2.72,-4.02 l -24.314,0 c -2.404,0 -4.16,-1.68 -4.16,-3.98 l 0,-1.041 c 0,-2.291 1.756,-3.961 4.16,-3.961 l 25.633,0 c 6.7,0 11.04,4.66 11.04,11.879 l 0,6.302 c 0,6.779 -4.884,9.809 -9.72,9.809 l -17.533,0 c -2.646,0 -3.839,1.98 -3.839,3.38 l 0,3.48 c 0,2.19 1.464,3.46 4.025,3.46 l 19.419,0 c 2.374,0 4.158,1.71 4.158,3.971 l 0,1.04 C 25.173,-1.712 23.354,0 20.913,0 L 0,0 Z"
             style="fill:#73ba25;fill-opacity:1;fill-rule:nonzero;stroke:none"
             id="path34"
             inkscape:connector-curvature="0" /></g><g
           id="g36"
           transform="translate(273.7386,60.2888)"><path
             d="m 0,0 c -2.31,0 -4.055,-1.712 -4.055,-3.981 l 0,-39.359 c 0,-2.259 1.705,-3.96 3.964,-3.96 l 31.364,0 c 2.415,0 4.16,1.67 4.16,3.96 l 0,1.042 c 0,2.3 -1.745,3.98 -4.16,3.98 l -25.687,0 0,10.02 18.822,0 c 2.41,0 4.161,1.69 4.161,3.981 l 0,1.04 c 0,2.301 -1.751,3.971 -4.161,3.971 l -18.822,0 0,10.319 24.382,0 c 2.406,0 4.16,1.659 4.16,3.971 l 0,1.04 c 0,2.301 -1.754,3.981 -4.16,3.981 L 0,0.005 0,0 Z"
             style="fill:#73ba25;fill-opacity:1;fill-rule:nonzero;stroke:none"
             id="path38"
             inkscape:connector-curvature="0" /></g><g
           id="g40"
           transform="translate(5.0529,20.4885)"><path
             d="m 0,0 0,13.55 c 0,1.589 1.305,2.889 2.901,2.889 l 7.478,0 c 1.561,0 2.891,-1.329 2.891,-2.889 L 13.27,0 c 0,-1.6 -1.295,-2.899 -2.891,-2.899 l -7.534,0 C 1.245,-2.899 0,-1.628 0,0 m 2.077,21.08 c -3.931,0 -7.13,-3.059 -7.13,-6.83 l 0,-14.839 c 0,-3.831 3.096,-6.951 6.891,-6.951 l 9.599,0 c 3.795,0 6.891,3.12 6.891,6.951 l 0,14.839 c 0,3.769 -3.201,6.83 -7.13,6.83 l -9.122,0 10e-4,0 z"
             style="fill:#73ba25;fill-opacity:1;fill-rule:nonzero;stroke:none"
             id="path42"
             inkscape:connector-curvature="0" /></g><g
           id="g44"
           transform="translate(35.5085,20.7779)"><path
             d="m 0,0 0,12.961 c 0,1.791 1.4,3.189 3.188,3.189 l 7.011,0 c 1.79,0 3.188,-1.4 3.188,-3.189 L 13.387,0 c 0,-1.759 -1.435,-3.188 -3.188,-3.188 l -7.011,0 C 1.433,-3.188 0,-1.759 0,0 Z m 9.602,20.962 c -2.767,0 -4.854,-0.989 -6.529,-1.799 -1.021,-0.49 -1.905,-0.912 -2.591,-0.912 -0.31,0 -0.575,0.14 -0.715,0.37 l -0.639,1.22 c -0.159,0.321 -0.799,0.949 -1.59,0.949 l -0.949,0 c -0.912,0 -1.642,-0.819 -1.642,-1.818 l 0,-37.64 c 0,-1.18 0.931,-2.11 2.11,-2.11 l 0.821,0 c 1.17,0 2.12,0.94 2.12,2.11 l 0,12.489 c 0,0.37 0.241,0.77 0.484,0.77 0.686,0 1.57,-0.402 2.591,-0.87 1.675,-0.77 3.762,-1.719 6.529,-1.719 l 0.886,0 c 4.9,0 7.949,2.801 7.949,7.3 l 0,14.368 c 0,4.43 -3.114,7.29 -7.949,7.29 l -0.886,0 0,0.002 z"
             style="fill:#73ba25;fill-opacity:1;fill-rule:nonzero;stroke:none"
             id="path46"
             inkscape:connector-curvature="0" /></g><g
           id="g48"
           transform="translate(66.0714,34.088)"><path
             d="m 0,0 c 0,1.591 1.251,2.839 2.843,2.839 l 7.71,0 c 1.589,0 2.829,-1.248 2.829,-2.839 l 0,-4.599 -13.384,0 C 0,-3.999 0,0 0,0 Z m 2.075,7.48 c -3.931,0 -7.121,-3.058 -7.121,-6.829 l 0,-14.729 c 0,-3.82 3.101,-7.059 6.76,-7.059 l 9.903,0 c 1.225,0 2.11,0.848 2.11,2.001 l 0,0.649 c 0,1.159 -0.885,1.99 -2.11,1.99 l -8.136,0 c -2.28,0 -3.483,1.121 -3.483,3.252 l 0,4.309 14.678,0 c 2.361,0 3.757,1.44 3.757,3.88 l 0,5.71 c 0,3.769 -3.196,6.83 -7.11,6.83 l -9.248,0 0,-0.004 z"
             style="fill:#73ba25;fill-opacity:1;fill-rule:nonzero;stroke:none"
             id="path50"
             inkscape:connector-curvature="0" /></g><g
           id="g52"
           transform="translate(104.8947,41.74)"><path
             d="m 0,0 c -2.759,0 -4.841,-0.989 -6.521,-1.791 -1.045,-0.491 -1.938,-0.92 -2.667,-0.92 -0.321,0 -0.451,0.04 -0.7,0.471 l -0.581,1.06 c -0.333,0.67 -0.899,1.008 -1.664,1.008 l -0.816,0 c -0.985,0 -1.704,-0.768 -1.704,-1.819 l 0,-24.689 c 0,-1.169 0.924,-2.109 2.115,-2.109 l 0.815,0 c 1.17,0 2.124,0.95 2.124,2.109 l 0,18.679 c 0,1.75 1.43,3.188 3.18,3.188 l 7.014,0 c 1.755,0 3.185,-1.438 3.185,-3.188 l 0,-18.679 c 0,-1.169 0.929,-2.109 2.11,-2.109 l 0.824,0 c 1.17,0 2.12,0.95 2.12,2.109 l 0,19.389 C 8.834,-2.86 5.719,0 0.88,0 L 0,0 Z"
             style="fill:#73ba25;fill-opacity:1;fill-rule:nonzero;stroke:none"
             id="path54"
             inkscape:connector-curvature="0" /></g><g
           id="g56"
           transform="translate(315.4154,18.754)"><path
             d="m 0,0 0.503,0 c 0.574,0 1.06,0.207 1.06,0.747 0,0.382 -0.277,0.765 -1.06,0.765 C 0.277,1.512 0.121,1.494 0,1.475 L 0,0 Z m 0,-2.415 -0.695,0 0,4.358 C -0.33,1.996 0.018,2.048 0.538,2.048 1.2,2.048 1.633,1.91 1.892,1.719 2.154,1.529 2.294,1.235 2.294,0.815 2.294,0.244 1.912,-0.104 1.443,-0.244 l 0,-0.037 C 1.826,-0.349 2.085,-0.696 2.173,-1.34 2.278,-2.019 2.38,-2.278 2.45,-2.417 l -0.729,0 C 1.615,-2.278 1.512,-1.878 1.426,-1.305 1.321,-0.751 1.043,-0.54 0.488,-0.54 l -0.486,0 0,-1.875 -0.002,0 z M 0.73,3.16 c -1.719,0 -3.126,-1.476 -3.126,-3.3 0,-1.859 1.407,-3.317 3.143,-3.317 1.736,-0.019 3.126,1.458 3.126,3.299 0,1.842 -1.39,3.318 -3.126,3.318 l -0.017,0 z m 0.017,0.607 c 2.136,0 3.838,-1.736 3.838,-3.909 0,-2.205 -1.703,-3.923 -3.855,-3.923 -2.137,0 -3.873,1.718 -3.873,3.923 0,2.171 1.736,3.909 3.873,3.909 l 0.017,0 z"
             style="fill:#73ba25;fill-opacity:1;fill-rule:nonzero;stroke:none"
             id="path58"
             inkscape:connector-curvature="0" /></g></g></g></g></svg>