<?xml version="1.0" encoding="UTF-8"?>
<!DOCTYPE svg PUBLIC "-//W3C//DTD SVG 1.1//EN" "http://www.w3.org/Graphics/SVG/1.1/DTD/svg11.dtd">
<svg xmlns="http://www.w3.org/2000/svg" version="1.1" width="400" height="92" viewBox="0 0 40000 9200">
  <path fill="#A6A6A6" d="M33817 8423c0,63 8,153 50,204 30,35 64,53 110,53 46,0 81,-16 110,-51 42,-50 49,-148 49,-210 0,-62 -7,-148 -50,-198 -29,-34 -61,-51 -106,-51 -47,0 -83,17 -113,53 -42,50 -50,137 -50,200l0 0 0 0zm-1567 -7c0,-55 -7,-130 -44,-174 -27,-31 -57,-45 -98,-45 -34,0 -57,14 -78,40 -35,43 -40,138 -40,190 0,53 6,137 42,180 22,27 47,42 82,42 39,0 68,-15 93,-44 37,-44 43,-135 43,-189l0 0zm-1774 -201c-8,-22 -19,-43 -33,-57 -29,-29 -66,-37 -106,-37 -52,0 -90,19 -122,61 -7,10 -13,21 -19,34l280 0 0 -1 0 0zm-1824 0c-8,-22 -19,-43 -33,-57 -29,-29 -66,-37 -106,-37 -52,0 -90,19 -122,61 -7,10 -13,21 -19,34l280 0 0 -1 0 0zm-8950 0c-8,-22 -19,-43 -33,-57 -29,-29 -66,-37 -106,-37 -52,0 -90,19 -122,61 -7,10 -13,21 -19,34l280 0 0 -1 0 0zm-2795 0c-8,-22 -19,-43 -33,-57 -29,-29 -66,-37 -106,-37 -52,0 -90,19 -122,61 -7,10 -13,21 -19,34l280 0 0 -1 0 0zm18765 -469c24,-17 50,-32 76,-45 91,-44 192,-60 292,-60 102,0 210,16 298,69 46,28 85,62 118,102 50,-46 106,-88 165,-116 88,-41 186,-55 282,-55 151,0 292,43 398,154 114,121 144,296 144,456l0 919 -690 0 0 -843c0,-19 -2,-61 -15,-77l-2 -4c-14,-19 -29,-32 -53,-32 -31,0 -55,9 -75,33 -29,34 -33,108 -33,150l0 773 -690 0 0 -816c0,-21 0,-70 -6,-90 -5,-15 -13,-27 -25,-36 -11,-9 -24,-12 -39,-12 -31,0 -55,10 -75,34 -30,35 -35,114 -35,158l0 763 -690 0 0 -1498 655 0 0 73 0 0zm-2545 678c0,-218 73,-410 232,-563 168,-161 385,-220 615,-220 253,0 497,66 669,260 129,146 186,322 186,515 0,218 -71,411 -230,564 -169,163 -393,220 -623,220 -208,0 -411,-48 -574,-182 -185,-153 -275,-355 -275,-594l0 0zm-843 677c-16,12 -33,22 -49,31 -89,47 -187,68 -287,68 -203,0 -372,-77 -488,-244 -114,-163 -159,-353 -159,-549 0,-201 42,-409 181,-562 124,-137 283,-204 468,-204 86,0 170,14 250,46 16,7 31,14 47,22l0 -537 695 0 0 1998 -657 0 0 -69 -1 0 0 0zm-2086 -465c6,12 12,23 20,32 34,38 73,54 124,54 35,0 68,-8 98,-25 22,-12 47,-40 62,-60l1 -1 -305 0 0 0zm738 0l288 26 -71 122c-76,131 -177,247 -313,319 -149,79 -343,97 -509,97 -150,0 -319,-17 -455,-83 -122,-60 -217,-153 -288,-268 -80,-129 -113,-275 -113,-426 0,-218 68,-413 227,-565 167,-160 386,-216 613,-216 163,0 345,20 491,96 126,66 223,161 290,286 75,141 97,308 97,466l0 147 -257 0 0 -1 0 0zm-2562 0c6,12 12,23 20,32 33,38 73,54 124,54 35,0 68,-8 98,-25 22,-12 47,-40 62,-60l1 -1 -305 0 0 0zm738 0l288 26 -71 122c-76,131 -177,247 -313,319 -149,79 -343,97 -509,97 -150,0 -319,-17 -455,-83 -122,-60 -217,-153 -288,-268 -80,-129 -112,-275 -112,-426 0,-218 68,-413 227,-565 167,-160 386,-216 613,-216 163,0 345,20 491,96 126,66 223,161 290,286 75,141 97,308 97,466l0 147 -258 0 0 -1zm-2028 -927c68,-49 148,-68 232,-68 101,0 200,34 289,80l74 39 -227 516 -82 -34c-28,-12 -77,-30 -108,-30 -36,0 -60,13 -80,42 -57,85 -63,284 -63,382l0 533 -692 0 0 -1498 657 0 0 38 0 0zm-1615 33l0 138 711 0 0 548 -710 0 0 742 -750 0 0 -1999 1579 0 0 571 -830 0 0 0zm-2412 388c-4,-7 -9,-14 -16,-19 -27,-18 -61,-24 -94,-24 -14,0 -53,2 -67,10 40,17 136,29 177,33zm67 579c-2,-2 -6,-4 -8,-5 -37,-18 -150,-36 -192,-43 -19,-3 -38,-6 -58,-10 10,26 26,55 48,70 27,18 67,23 99,23 32,0 76,-4 102,-24l3 -2c1,-2 4,-5 6,-9l0 0zm-519 -116c-23,-7 -44,-14 -65,-22 -87,-33 -158,-89 -213,-162 -60,-79 -88,-169 -88,-267 0,-104 30,-199 96,-281 65,-81 152,-136 251,-170 120,-42 261,-52 388,-52 117,0 265,4 377,40 85,27 162,71 225,134 66,66 112,150 145,236l43 110 -356 34c19,6 37,13 55,20 92,38 172,95 229,177 54,77 82,164 82,258 0,98 -31,189 -84,271 -62,96 -155,161 -258,206 -134,57 -297,71 -442,71 -178,0 -415,-17 -568,-119 -125,-83 -202,-202 -235,-347l-23 -100 441 -37 0 0zm-1229 -463c-4,-7 -10,-14 -16,-19 -27,-18 -61,-24 -94,-24 -14,0 -53,2 -67,10 40,17 137,29 177,33zm67 579c-2,-2 -6,-4 -8,-5 -37,-18 -150,-36 -192,-43 -19,-3 -38,-6 -58,-10 10,26 26,55 48,70 27,18 67,23 99,23 32,0 76,-4 102,-24l3 -2c2,-2 5,-5 6,-9l0 0zm-519 -116c-23,-7 -44,-14 -65,-22 -87,-33 -158,-89 -213,-162 -60,-79 -89,-169 -89,-267 0,-104 30,-199 96,-281 65,-81 152,-136 250,-170 120,-42 261,-52 388,-52 117,0 265,4 377,40 85,27 162,71 225,134 66,66 112,150 145,236l42 110 -356 34c19,6 38,13 55,20 92,38 172,95 229,177 54,77 82,164 82,258 0,98 -31,189 -83,271 -62,96 -155,161 -258,206 -134,57 -298,71 -442,71 -178,0 -416,-17 -568,-119 -125,-83 -202,-202 -235,-347l-23 -100 443 -37 0 0zm-1500 43c6,12 12,23 20,32 33,38 73,54 124,54 35,0 68,-8 99,-25 22,-12 47,-40 62,-60l1 -1 -306 0 0 0zm738 0l288 26 -71 122c-76,131 -177,247 -313,319 -149,79 -342,97 -509,97 -150,0 -318,-17 -455,-83 -122,-60 -217,-153 -288,-268 -80,-129 -112,-275 -112,-426 0,-218 68,-413 227,-565 167,-160 386,-216 613,-216 163,0 345,20 491,96 126,66 223,161 290,286 75,141 96,308 96,466l0 147 -257 0 0 -1zm-2349 -1465l690 0 0 1998 -690 0 0 -1998zm-1184 1465c6,12 12,23 20,32 34,38 73,54 124,54 35,0 68,-8 99,-25 22,-12 47,-40 62,-60l1 -1 -306 0 0 0zm738 0l288 26 -71 122c-76,131 -177,247 -313,319 -149,79 -342,97 -509,97 -150,0 -319,-17 -455,-83 -122,-60 -217,-153 -288,-268 -80,-129 -113,-275 -113,-426 0,-218 68,-413 227,-565 167,-160 386,-216 613,-216 163,0 345,20 491,96 126,66 223,161 290,286 75,141 96,308 96,466l0 147 -256 0 0 -1zm-2028 -927c69,-49 148,-68 232,-68 101,0 200,34 289,80l75 39 -227 516 -82 -34c-28,-12 -77,-30 -108,-30 -36,0 -60,13 -80,42 -57,85 -63,284 -63,382l0 533 -692 0 0 -1498 657 0 0 38 -1 0 0 0zm-3710 170l197 -708 670 0 200 712 136 -711 722 0 -443 1998 -696 0 -252 -899 -250 899 -695 0 -447 -1998 725 0 133 707 0 0zm2784 -208l0 1498 -690 0 0 -1998 690 0 0 500z"/>
  <path fill="black" d="M35108 7761l474 0 0 192c68,-80 137,-138 207,-171 69,-34 153,-51 252,-51 106,0 189,19 251,56 62,37 112,93 151,166 80,-86 152,-145 218,-176 66,-31 147,-47 243,-47 142,0 253,42 332,126 80,84 120,215 120,394l0 828 -508 0 0 -753c0,-60 -12,-105 -35,-133 -34,-46 -76,-68 -126,-68 -60,0 -108,22 -144,65 -36,43 -55,113 -55,208l0 682 -509 0 0 -726c0,-58 -3,-97 -10,-118 -11,-33 -29,-60 -56,-80 -26,-20 -58,-30 -94,-30 -58,0 -106,22 -144,66 -38,44 -56,116 -56,216l0 673 -509 0 0 -1319 -2 0 0 0zm-1382 662c0,118 24,206 72,262 48,56 107,85 180,85 73,0 133,-28 179,-83 47,-56 70,-145 70,-268 0,-115 -23,-200 -71,-256 -47,-56 -106,-84 -176,-84 -74,0 -135,28 -183,85 -47,57 -71,143 -71,259l0 0zm-508 1c0,-202 68,-367 205,-498 136,-130 320,-196 552,-196 265,0 466,77 601,230 109,124 163,276 163,456 0,203 -67,369 -202,499 -135,129 -322,194 -561,194 -212,0 -385,-54 -516,-162 -162,-132 -242,-307 -242,-523l0 0zm-878 -9c0,-104 -22,-181 -66,-232 -44,-51 -100,-77 -167,-77 -59,0 -108,24 -148,74 -40,49 -60,131 -60,246 0,108 21,187 62,237 41,50 92,75 153,75 65,0 119,-25 162,-76 43,-49 64,-132 64,-247l0 0zm510 -1154l0 1818 -476 0 0 -195c-66,83 -127,139 -182,169 -73,38 -155,57 -244,57 -180,0 -318,-68 -414,-205 -95,-137 -143,-303 -143,-498 0,-219 53,-386 158,-502 105,-116 239,-174 401,-174 79,0 151,13 215,39 65,27 122,66 172,119l0 -628 513 0zm-2263 1044c-10,-98 -37,-169 -80,-211 -43,-42 -99,-64 -169,-64 -81,0 -146,32 -194,96 -31,40 -50,99 -59,178l502 0 0 1zm516 241l-1020 0c9,81 31,141 67,181 49,57 113,85 193,85 50,0 98,-12 143,-37 28,-16 57,-43 89,-82l501 46c-77,132 -169,227 -277,285 -108,57 -264,86 -466,86 -176,0 -314,-24 -415,-74 -100,-49 -184,-127 -250,-235 -66,-107 -99,-234 -99,-378 0,-206 66,-373 199,-501 133,-127 316,-191 550,-191 190,0 340,29 449,86 109,57 194,140 251,248 57,109 86,250 86,424l0 57 -1 0 0 0zm-2340 -241c-10,-98 -37,-169 -80,-211 -43,-42 -99,-64 -169,-64 -81,0 -146,32 -194,96 -31,40 -50,99 -59,178l502 0 0 1zm516 241l-1020 0c9,81 31,141 66,181 49,57 113,85 193,85 50,0 98,-12 143,-37 28,-16 57,-43 89,-82l501 46c-77,132 -169,227 -277,285 -108,57 -264,86 -466,86 -176,0 -314,-24 -415,-74 -101,-49 -184,-127 -250,-235 -66,-107 -99,-234 -99,-378 0,-206 67,-373 199,-501 133,-127 316,-191 550,-191 190,0 340,29 449,86 110,57 194,140 251,248 57,109 86,250 86,424l0 57 0 0zm-2762 -785l476 0 0 215c46,-94 93,-158 142,-193 49,-35 109,-52 181,-52 75,0 158,23 247,70l-158 359c-60,-25 -108,-37 -143,-37 -67,0 -118,27 -155,82 -52,77 -79,221 -79,433l0 443 -511 0 0 -1320 0 0zm-1706 -500l1398 0 0 391 -831 0 0 317 711 0 0 368 -711 0 0 742 -567 0 0 -1818zm-2539 1453l504 -46c21,59 50,102 87,127 38,25 87,38 150,38 68,0 121,-14 159,-44 29,-21 44,-48 44,-80 0,-36 -19,-65 -57,-85 -27,-14 -100,-31 -218,-52 -176,-30 -299,-59 -368,-85 -69,-26 -126,-70 -173,-132 -47,-62 -70,-133 -70,-212 0,-87 25,-162 76,-224 51,-63 121,-110 210,-141 89,-31 208,-47 358,-47 158,0 274,12 349,36 75,24 138,61 188,112 50,51 92,119 125,205l-480 46c-12,-42 -33,-73 -62,-93 -40,-26 -88,-39 -144,-39 -57,0 -99,10 -125,31 -26,21 -39,45 -39,74 0,33 17,57 49,73 33,17 105,32 216,45 169,19 294,46 377,80 82,34 145,82 189,145 44,63 66,132 66,207 0,76 -23,150 -69,222 -46,72 -119,129 -218,172 -99,43 -235,64 -406,64 -242,0 -414,-34 -517,-103 -106,-70 -172,-168 -201,-294l0 0zm-1681 0l504 -46c21,59 50,102 87,127 38,25 87,38 150,38 68,0 121,-14 158,-44 29,-21 44,-48 44,-80 0,-36 -19,-65 -57,-85 -27,-14 -100,-31 -218,-52 -176,-30 -298,-59 -368,-85 -69,-26 -126,-70 -173,-132 -47,-62 -70,-133 -70,-212 0,-87 25,-162 76,-224 51,-63 121,-110 210,-141 89,-31 208,-47 358,-47 158,0 274,12 349,36 75,24 138,61 188,112 50,51 92,119 125,205l-481 46c-12,-42 -33,-73 -62,-93 -40,-26 -88,-39 -144,-39 -57,0 -99,10 -125,31 -26,20 -39,45 -39,74 0,33 17,57 49,73 33,17 105,32 216,45 169,19 294,46 377,80 82,34 145,82 189,145 44,63 66,132 66,207 0,76 -23,150 -69,222 -46,72 -119,129 -218,172 -99,43 -235,64 -406,64 -242,0 -415,-34 -517,-103 -104,-70 -170,-168 -199,-294l0 0zm-779 -409c-10,-98 -37,-169 -80,-211 -43,-42 -99,-64 -169,-64 -81,0 -146,32 -194,96 -31,40 -50,99 -59,178l502 0 0 1zm517 241l-1020 0c9,81 31,141 67,181 49,57 113,85 193,85 50,0 98,-12 143,-37 28,-16 57,-43 89,-82l501 46c-77,132 -169,227 -277,285 -108,57 -264,86 -466,86 -176,0 -314,-24 -415,-74 -100,-49 -184,-127 -250,-235 -66,-107 -99,-234 -99,-378 0,-206 66,-373 199,-501 133,-127 316,-191 550,-191 190,0 340,29 449,86 110,57 194,140 252,248 57,109 86,250 86,424l0 57 -2 0 0 0zm-2425 -1285l509 0 0 1818 -509 0 0 -1818zm-886 1044c-10,-98 -37,-169 -80,-211 -43,-42 -99,-64 -170,-64 -81,0 -146,32 -194,96 -31,40 -50,99 -59,178l503 0 0 1zm516 241l-1020 0c9,81 31,141 67,181 49,57 113,85 193,85 50,0 98,-12 143,-37 28,-16 57,-43 89,-82l501 46c-77,132 -169,227 -277,285 -108,57 -264,86 -466,86 -176,0 -314,-24 -415,-74 -100,-49 -184,-127 -250,-235 -66,-107 -99,-234 -99,-378 0,-206 67,-373 199,-501 133,-127 316,-191 550,-191 190,0 340,29 449,86 110,57 194,140 251,248 57,109 86,250 86,424l0 57 -1 0 0 0zm-2762 -785l476 0 0 215c46,-94 93,-158 142,-193 49,-35 109,-52 181,-52 75,0 158,23 247,70l-158 359c-60,-25 -108,-37 -143,-37 -66,0 -118,27 -155,82 -52,77 -79,221 -79,433l0 443 -511 0 0 -1320 0 0zm-958 0l509 0 0 1318 -509 0 0 -1318zm0 -500l509 0 0 343 -509 0 0 -343zm-2931 0l537 0 193 1015 283 -1015 533 0 285 1016 194 -1016 534 0 -403 1818 -555 0 -321 -1145 -319 1145 -554 0 -407 -1818z"/>
  <path fill="black" d="M15550 3666c-63,-42 -137,-53 -216,-53 -81,0 -144,17 -200,53l416 0 0 0zm-5978 810c0,140 16,373 113,486 62,73 127,102 223,102 70,0 111,-28 155,-82 87,-106 100,-414 100,-541 0,-136 -14,-392 -107,-504 -48,-58 -92,-92 -168,-92 -90,0 -147,31 -204,99 -97,113 -112,393 -112,532zm-6887 -820c0,294 31,778 234,1015 156,182 357,244 594,244 231,0 444,-54 597,-234 201,-237 226,-815 226,-1106 0,-287 -34,-715 -235,-943 -160,-182 -365,-243 -605,-243 -233,0 -422,68 -576,245 -204,237 -235,727 -235,1022zm-2685 -5c0,-951 245,-1867 937,-2553 691,-686 1607,-930 2564,-930 955,0 1895,229 2591,914 687,676 930,1581 930,2522 0,644 -94,1320 -400,1897 -273,516 -672,920 -1184,1205 -567,316 -1221,423 -1864,423 -627,0 -1284,-85 -1854,-361 -536,-259 -948,-666 -1250,-1174 -349,-588 -470,-1269 -470,-1943zm15182 1640c50,20 105,29 168,29 61,0 119,-9 174,-29l-342 0zm2980 -1504l0 -1891 2388 0 0 177c26,-15 52,-30 79,-43 326,-170 691,-233 1056,-233 526,0 1013,153 1380,537 394,412 503,996 503,1545l0 3149 -2510 0 0 -2781c0,-61 -7,-243 -43,-293 -23,-26 -73,-27 -104,-27 -69,0 -113,18 -156,71 -79,97 -91,432 -91,548l0 2482 -2502 0 0 -1422 -60 104c-260,447 -607,841 -1070,1087 -505,268 -1153,331 -1717,331 -510,0 -1075,-58 -1538,-284 -419,-205 -746,-526 -989,-921 -96,-156 -172,-318 -231,-486 -94,363 -256,704 -518,990 -429,469 -979,701 -1617,701 -287,0 -570,-46 -837,-152l0 1682 -2518 0 0 -6762 2396 0 0 124c301,-152 629,-223 967,-223 695,0 1277,270 1683,835 203,282 342,590 430,913 124,-374 332,-714 637,-1007 567,-544 1312,-741 2085,-741 554,0 1162,69 1660,328 433,225 769,556 997,986 111,211 188,440 240,676l0 0zm17717 -1809l0 -82 608 0 0 -624 2502 -1272 0 1896 907 0 0 2047 -907 0 0 1099c0,19 0,45 1,72 101,-15 219,-52 299,-77l494 -157 217 2024 -369 81c-405,89 -821,144 -1237,144 -361,0 -790,-34 -1112,-208 -283,-152 -491,-387 -619,-680 -153,-348 -175,-831 -175,-1207l0 -1091 -608 0 0 -448 -292 663 -384 -160c-71,-30 -223,-89 -302,-89 -75,0 -113,20 -154,82 -166,246 -185,890 -185,1175l0 1861 -2510 0 0 -4773 -1059 4774 -2467 0 -724 -2579 -719 2580 -2464 0 -1510 -6762 2625 0 356 1872 522 -1872 2377 0 529 1887 361 -1887 2615 0 -361 1629 2317 0 0 30c195,-90 408,-129 627,-129 277,0 548,71 801,181l0 0z"/>
  <path fill="white" d="M38566 687l0 1629 907 0 0 1207 -907 0 0 1519c0,182 18,303 53,363 54,91 150,137 286,137 122,0 293,-35 513,-105l122 1137c-409,90 -791,134 -1146,134 -412,0 -716,-52 -911,-157 -194,-105 -338,-265 -433,-478 -93,-214 -140,-561 -140,-1039l0 -1511 -608 0 0 -1207 608 0 0 -787 1656 -842 0 0 0 0zm-6090 1629l1551 0 0 700c150,-305 304,-514 462,-629 160,-114 355,-171 588,-171 246,0 513,76 803,227l-513 1167c-195,-81 -351,-121 -465,-121 -216,0 -386,90 -505,267 -171,251 -257,721 -257,1409l0 1442 -1665 0 0 -4291 1 0 0 0zm-8840 -1629l1748 0 628 3304 921 -3304 1734 0 928 3310 633 -3310 1740 0 -1314 5922 -1806 0 -1046 -3728 -1039 3728 -1803 0 -1324 -5922 0 0zm-5052 1629l1543 0 0 699c230,-287 462,-491 698,-613 236,-123 522,-185 860,-185 458,0 815,135 1074,407 258,270 387,689 387,1256l0 2729 -1665 0 0 -2362c0,-270 -50,-460 -150,-572 -100,-112 -240,-168 -420,-168 -198,0 -361,76 -484,226 -123,152 -186,422 -186,813l0 2062 -1656 0 0 -4292 -1 0 0 0zm-2439 1770c-32,-320 -119,-548 -259,-686 -140,-138 -323,-207 -552,-207 -264,0 -474,105 -633,313 -100,130 -164,323 -191,580l1635 0 0 0zm1682 786l-3321 0c31,263 101,460 217,590 159,186 369,279 627,279 164,0 319,-40 465,-120 90,-51 187,-141 290,-269l1631 149c-250,430 -551,740 -903,926 -352,188 -859,281 -1517,281 -573,0 -1022,-80 -1351,-241 -327,-160 -599,-415 -816,-764 -215,-350 -323,-761 -323,-1232 0,-671 216,-1216 649,-1630 431,-415 1029,-623 1791,-623 619,0 1106,94 1464,280 358,186 631,455 819,809 187,353 280,813 280,1380l0 185 -2 0 0 0zm-8677 -396c0,342 72,594 215,759 143,165 325,248 544,248 192,0 352,-78 483,-237 129,-158 194,-427 194,-806 0,-350 -68,-606 -202,-771 -136,-164 -300,-245 -495,-245 -211,0 -386,83 -527,248 -142,166 -212,433 -212,804l0 0zm-1661 3761l0 -5921 1551 0 0 633c214,-267 411,-448 590,-542 240,-127 508,-190 800,-190 577,0 1022,219 1339,659 315,440 473,984 473,1631 0,715 -172,1261 -516,1637 -344,377 -778,564 -1304,564 -255,0 -487,-43 -696,-128 -211,-87 -398,-214 -563,-383l0 2041 -1674 0 0 -1zm-5227 -4581c0,597 112,1027 336,1287 225,260 530,392 916,392 395,0 703,-128 920,-383 218,-256 326,-714 326,-1377 0,-557 -114,-963 -340,-1220 -227,-258 -534,-386 -922,-386 -372,0 -671,131 -896,392 -227,260 -340,692 -340,1295l0 0zm-1839 -4c0,-966 271,-1719 813,-2256 542,-539 1297,-808 2265,-808 992,0 1756,265 2293,793 537,529 805,1271 805,2223 0,692 -116,1259 -351,1701 -234,442 -574,787 -1017,1034 -444,247 -996,369 -1658,369 -671,0 -1228,-106 -1669,-318 -440,-214 -798,-550 -1071,-1010 -273,-460 -410,-1036 -410,-1728z"/>
</svg>
