<?xml version="1.0" encoding="UTF-8"?>
<svg xmlns="http://www.w3.org/2000/svg" xmlns:xlink="http://www.w3.org/1999/xlink" role="img" width="150pt" height="150pt" aria-labelledby="pfsense-logo-svg" x="0px" y="0px" viewBox="0 0 88.2 84.2">
<title id="pfsense-logo-svg">pfSense Logo</title>
<path fill="#000" class="pf0" d="M27.8,57.7c2.9,0,5.4-0.9,7.5-2.6c2.1-1.7,3.6-4,4.4-6.8c0.8-2.8,0.6-5.1-0.5-6.8c-1.1-1.7-3.2-2.6-6.1-2.6 c-2.9,0-5.4,0.9-7.5,2.6c-2.1,1.7-3.5,4-4.3,6.8c-0.8,2.8-0.7,5.1,0.5,6.8C22.8,56.9,24.8,57.7,27.8,57.7"></path>
<path fill="#000" class="pf1" d="M52.6,38.9l2.6-9.2h4.6l1.8-6.6c0.6-2,1.3-4,2.2-5.8c0.8-1.8,2-3.4,3.4-4.8c1.4-1.4,3.2-2.5,5.3-3.3 c2.1-0.8,4.8-1.2,7.9-1.2c0.8,0,1.5,0,2.3,0.1c-0.7-2.9-3.3-5-6.3-5.1H11.9c-3.6,0-6.5,3-6.5,6.6V67l10.5-37.3h10.6l-1.4,4.9h0.2 c0.6-0.7,1.4-1.3,2.4-2c1-0.7,2-1.3,3.1-1.9c1.1-0.6,2.3-1,3.6-1.4c1.3-0.4,2.6-0.5,3.9-0.5c2.8,0,5.1,0.5,7.1,1.4 c2,0.9,3.5,2.3,4.7,4c1,1.5,1.6,3.3,1.9,5.4l0.8-0.6H52.6z"></path>
<path fill="#000" class="pf2" d="M82.1,17.9c-0.5-0.1-1.1-0.2-1.8-0.2c-1.8,0-3.3,0.4-4.5,1.2c-1.1,0.8-2.1,2.4-2.8,4.9l-1.7,5.9h6.5l1.6,5.1 l-4.2,4.1h-6.5l-7.9,28H49.4l7.9-28h-4.4L52,39.5c0,0.2,0.1,0.5,0.1,0.7c0.2,2.3-0.1,4.9-0.9,7.7c-0.7,2.6-1.8,5.1-3.3,7.5 c-1.5,2.4-3.2,4.5-5.1,6.3c-2,1.8-4.2,3.3-6.6,4.4c-2.4,1.1-4.9,1.6-7.6,1.6c-2.4,0-4.5-0.4-6.4-1.1c-1.9-0.7-3.2-2-4-3.8h-0.2 l-5,17.7h63.3c3.6,0,6.6-2.9,6.6-6.6V18.2C82.6,18.1,82.3,18,82.1,17.9"></path>
</svg>
