<svg width="18" height="18" viewBox="0 0 18 18" xmlns="http://www.w3.org/2000/svg">
  <path d="M6.75 6C5.78 6 5 6.78 5 7.75V10.25C5 11.22 5.78 12 6.75 12C7.72 12 8.5 11.22 8.5 10.25V7.75C8.5 6.78 7.72 6 6.75 6ZM7 10.25C7 10.39 6.89 10.5 6.75 10.5C6.61 10.5 6.5 10.39 6.5 10.25V7.75C6.5 7.61 6.61 7.5 6.75 7.5C6.89 7.5 7 7.61 7 7.75V10.25ZM11.25 6C10.29 6 9.5 6.79 9.5 7.75V7.78C9.5 8.35 9.78 8.89 10.25 9.21L11.4 10.01C11.47 10.06 11.51 10.13 11.51 10.22V10.25C11.51 10.39 11.4 10.5 11.26 10.5C11.12 10.5 11.01 10.39 11.01 10.25V9.9H9.5V10.25C9.5 11.21 10.29 12 11.25 12C12.21 12 13 11.21 13 10.25V10.22C13 9.65 12.72 9.11 12.25 8.79L11.1 7.99C11.03 7.94 10.99 7.87 10.99 7.78V7.75C10.99 7.61 11.1 7.5 11.24 7.5C11.38 7.5 11.49 7.61 11.49 7.75V8.1H12.99V7.75C13 6.79 12.21 6 11.25 6ZM11.77 2H6.23C3.89 2 2 3.89 2 6.23V11.77C2 14.1 3.89 16 6.23 16H11.77C14.11 16 16 14.11 16 11.77V6.23C16 3.89 14.11 2 11.77 2ZM14.5 11.77C14.5 13.27 13.28 14.5 11.77 14.5H6.23C4.73 14.5 3.5 13.28 3.5 11.77V6.23C3.5 4.72 4.72 3.5 6.23 3.5H11.77C13.27 3.5 14.5 4.72 14.5 6.23V11.77Z" />
</svg>
