<svg width="108" height="34" viewBox="0 0 108 34" fill="none" xmlns="http://www.w3.org/2000/svg">
<g opacity="0.4" clip-path="url(#clip0)">
<path d="M66.3962 26.1561C60.1857 30.8337 51.1839 33.3293 43.4336 33.3293C32.5663 33.3293 22.783 29.2222 15.3815 22.3913C14.8 21.8541 15.3211 21.1221 16.0189 21.5404C24.0065 26.2892 33.8828 29.1462 44.0849 29.1462C50.9653 29.1462 58.5342 27.6916 65.4937 24.673C66.5451 24.2167 67.4243 25.3766 66.3962 26.1561Z" fill="white"/>
<path d="M68.9781 23.1375C68.1873 22.1013 63.7306 22.6479 61.7302 22.8904C61.1207 22.9664 61.0277 22.4245 61.5766 22.0347C65.1262 19.482 70.9506 20.2188 71.6298 21.0745C72.309 21.9349 71.453 27.9007 68.1175 30.7481C67.6057 31.1854 67.1173 30.9525 67.3452 30.3725C68.0942 28.4616 69.7736 24.1786 68.9781 23.1375" fill="white"/>
<path d="M61.8697 4.01382V1.53244C61.8697 1.15691 62.1488 0.904968 62.4838 0.904968H73.3557C73.7046 0.904968 73.9837 1.16166 73.9837 1.53244V3.6573C73.9791 4.01382 73.686 4.47968 73.1649 5.21648L67.5313 13.4355C69.6247 13.3832 71.8345 13.7017 73.7325 14.795C74.1605 15.0422 74.2768 15.4035 74.3094 15.76V18.4077C74.3094 18.769 73.9186 19.1921 73.5092 18.9734C70.1644 17.1813 65.7216 16.9864 62.0232 18.9924C61.6464 19.2016 61.251 18.7833 61.251 18.422V15.9073C61.251 15.5033 61.2556 14.814 61.6511 14.2008L68.1779 4.63655H62.4977C62.1488 4.63655 61.8697 4.38461 61.8697 4.01382" fill="white"/>
<path d="M22.2109 19.4963H18.9033C18.587 19.4725 18.3358 19.2301 18.3125 18.9211V1.57524C18.3125 1.22823 18.5963 0.952515 18.9498 0.952515H22.0342C22.3552 0.966766 22.611 1.21872 22.6343 1.53245V3.79992H22.6948C23.4996 1.60851 25.0115 0.586487 27.0491 0.586487C29.1193 0.586487 30.4126 1.60851 31.343 3.79992C32.1431 1.60851 33.9621 0.586487 35.9113 0.586487C37.2976 0.586487 38.8142 1.17118 39.74 2.48317C40.7867 3.94253 40.5727 6.06264 40.5727 7.9213L40.568 18.8688C40.568 19.2159 40.2843 19.4963 39.9307 19.4963H36.6277C36.2974 19.4725 36.0323 19.2016 36.0323 18.8688V9.67537C36.0323 8.94332 36.0974 7.11794 35.9392 6.42391C35.6927 5.25928 34.953 4.93128 33.9947 4.93128C33.1945 4.93128 32.3571 5.47794 32.0175 6.35261C31.6779 7.22727 31.7105 8.69138 31.7105 9.67537V18.8688C31.7105 19.2159 31.4267 19.4963 31.0731 19.4963H27.7702C27.4352 19.4725 27.1747 19.2016 27.1747 18.8688L27.1701 9.67537C27.1701 7.74066 27.4817 4.89325 25.1324 4.89325C22.7552 4.89325 22.8483 7.66935 22.8483 9.67537V18.8688C22.8483 19.2159 22.5645 19.4963 22.2109 19.4963Z" fill="white"/>
<path d="M83.3437 0.586487C88.2517 0.586487 90.908 4.89325 90.908 10.3694C90.908 15.6602 87.9726 19.8576 83.3437 19.8576C78.5242 19.8576 75.9004 15.5508 75.9004 10.184C75.9004 4.78392 78.5567 0.586487 83.3437 0.586487V0.586487ZM83.3716 4.12792C80.934 4.12792 80.7804 7.52199 80.7804 9.63735C80.7804 11.7575 80.7479 16.2829 83.3437 16.2829C85.907 16.2829 86.028 12.6321 86.028 10.4074C86.028 8.94332 85.9675 7.194 85.5349 5.80594C85.1627 4.59853 84.423 4.12792 83.3716 4.12792" fill="white"/>
<path d="M97.2722 19.4963H93.9785C93.6482 19.4725 93.3831 19.2016 93.3831 18.8688L93.3784 1.51819C93.4063 1.1997 93.6808 0.952515 94.0157 0.952515H97.0815C97.3699 0.966766 97.6071 1.16643 97.6723 1.43738V4.08989H97.7328C98.6585 1.71784 99.9564 0.586487 102.241 0.586487C103.725 0.586487 105.171 1.13315 106.102 2.63054C106.967 4.01859 106.967 6.35261 106.967 8.03063V18.9497C106.93 19.2539 106.655 19.4963 106.33 19.4963H103.013C102.71 19.4725 102.459 19.2444 102.427 18.9497V9.52801C102.427 7.63133 102.641 4.85522 100.357 4.85522C99.5517 4.85522 98.812 5.40664 98.4445 6.24327C97.9793 7.30333 97.9188 8.35863 97.9188 9.52801V18.8688C97.9142 19.2159 97.6258 19.4963 97.2722 19.4963" fill="white"/>
<path d="M9.84107 11.2108V10.4787C7.4499 10.4787 4.92383 11.0016 4.92383 13.8823C4.92383 15.3417 5.6635 16.3304 6.93352 16.3304C7.86394 16.3304 8.69666 15.7457 9.22234 14.795C9.87363 13.6256 9.84107 12.5275 9.84107 11.2108V11.2108ZM13.1766 19.4488C12.958 19.6484 12.6416 19.6627 12.3951 19.5296C11.2972 18.5979 11.1018 18.1653 10.497 17.2764C8.6827 19.1683 7.39873 19.734 5.04478 19.734C2.26284 19.734 0.0949707 17.9799 0.0949707 14.467C0.0949707 11.7242 1.55107 9.85601 3.62124 8.94332C5.41694 8.1352 7.92441 7.9926 9.84107 7.76918V7.33184C9.84107 6.52848 9.90155 5.57776 9.44099 4.88374C9.03626 4.26102 8.26402 4.00432 7.58481 4.00432C6.3241 4.00432 5.1983 4.66507 4.92383 6.03411C4.868 6.33834 4.64935 6.63782 4.35162 6.65208L1.14169 6.30031C0.871867 6.23852 0.574134 6.01509 0.648567 5.59203C1.38825 1.61802 4.90056 0.420105 8.04537 0.420105C9.65499 0.420105 11.7577 0.857436 13.0277 2.10288C14.6374 3.63829 14.4838 5.6871 14.4838 7.91654V13.1835C14.4838 14.7665 15.1258 15.4605 15.7306 16.3162C15.9446 16.6204 15.9911 16.9864 15.7213 17.2146C15.0467 17.7898 13.8465 18.8593 13.1859 19.4583L13.1766 19.4488" fill="white"/>
<path d="M52.9519 11.2108V10.4788C50.5607 10.4788 48.0347 11.0017 48.0347 13.8824C48.0347 15.3417 48.7743 16.3305 50.0444 16.3305C50.9748 16.3305 51.8075 15.7458 52.3332 14.7951C52.9845 13.6257 52.9519 12.5276 52.9519 11.2108V11.2108ZM56.2874 19.4488C56.0688 19.6485 55.7525 19.6628 55.5059 19.5297C54.408 18.5979 54.2126 18.1654 53.6079 17.2764C51.7935 19.1684 50.5096 19.7341 48.1556 19.7341C45.3737 19.7341 43.2058 17.98 43.2058 14.4671C43.2058 11.7242 44.6619 9.85607 46.7321 8.94338C48.5278 8.13526 51.0353 7.99266 52.9519 7.76924V7.33191C52.9519 6.52854 53.0124 5.57782 52.5518 4.8838C52.1471 4.26108 51.3749 4.00438 50.6957 4.00438C49.4349 4.00438 48.3091 4.66513 48.0347 6.03417C47.9788 6.3384 47.7602 6.63788 47.4625 6.65214L44.2525 6.30037C43.9827 6.23858 43.685 6.01516 43.7594 5.59209C44.4991 1.61808 48.0114 0.420166 51.1562 0.420166C52.7658 0.420166 54.8686 0.857497 56.1386 2.10294C57.7482 3.63835 57.5947 5.68716 57.5947 7.9166V13.1836C57.5947 14.7665 58.2367 15.4606 58.8414 16.3162C59.0554 16.6204 59.102 16.9865 58.8321 17.2146C58.1576 17.7898 56.9573 18.8594 56.2968 19.4583L56.2874 19.4488" fill="white"/>
</g>
<defs>
<clipPath id="clip0">
<rect width="107" height="33" fill="white" transform="translate(0.0302734 0.375488)"/>
</clipPath>
</defs>
</svg>
