<svg width="150" height="52" viewBox="0 0 150 52" fill="none" xmlns="http://www.w3.org/2000/svg">
<g opacity="0.4">
<path d="M58.6181 27.7084C63.6213 26.6335 62.9383 20.6478 62.7918 19.3398C62.5451 17.3224 60.174 13.7996 56.9564 14.081C52.9055 14.4419 52.3142 20.2934 52.3142 20.2934C51.7654 23.0028 53.6234 28.7858 58.6181 27.7084ZM67.9092 17.6743C70.6709 17.6743 72.9033 14.4916 72.9033 10.5601C72.9033 6.62793 70.6709 3.45044 67.9092 3.45044C65.1461 3.45044 62.908 6.62793 62.908 10.5601C62.908 14.4916 65.1455 17.6743 67.9092 17.6743ZM79.8161 18.1423C83.5132 18.6265 85.8818 14.6827 86.3557 11.6944C86.8399 8.70989 84.4513 5.23867 81.8399 4.64281C79.217 4.03984 75.9426 8.23863 75.6476 10.9778C75.288 14.3283 76.1228 17.6691 79.8161 18.1423ZM94.4569 23.1629C94.4569 21.7336 93.2736 17.4251 88.8669 17.4251C84.4513 17.4251 83.8677 21.4909 83.8677 24.3637C83.8677 27.1054 84.0962 30.9298 89.5797 30.811C95.0573 30.6896 94.4569 24.6019 94.4569 23.1629ZM88.8669 35.7102C88.8669 35.7102 83.1517 31.2893 79.8161 26.5095C75.2867 19.4619 68.8607 22.3321 66.7123 25.9111C64.5703 29.4992 61.2404 31.7651 60.764 32.3668C60.2831 32.9562 53.8616 36.4261 55.2864 42.7624C56.7144 49.0935 61.722 48.9734 61.722 48.9734C61.722 48.9734 65.4128 49.3343 69.6929 48.3769C73.9821 47.4221 77.6721 48.6113 77.6721 48.6113C77.6721 48.6113 87.6772 51.9663 90.4111 45.5106C93.1484 39.0601 88.8669 35.7102 88.8669 35.7102Z" fill="white"/>
<path d="M68.7969 29.5469V33.7999H65.3314C65.3314 33.7999 61.868 34.0872 60.6556 38.0129C60.2327 40.6339 61.0287 42.1774 61.1675 42.5073C61.3076 42.8366 62.427 44.7539 65.2378 45.3168H71.7407V29.5934L68.7969 29.5469ZM68.7446 42.7359H66.1248C66.1248 42.7359 64.2998 42.641 63.744 40.5396C63.4573 39.6087 63.7866 38.5332 63.9312 38.1104C64.0635 37.6869 64.6762 36.7082 65.9396 36.3312H68.7439L68.7446 42.7359Z" fill="black"/>
<path d="M73.3345 34.1814V42.4602C73.3345 42.4602 73.4701 44.5202 76.3752 45.271H83.8586V34.1801H80.6288V42.506H77.5469C77.5469 42.506 76.5617 42.3627 76.3765 41.5712V34.1323L73.3345 34.1814Z" fill="black"/>
<path d="M119.514 28.7458V25.2559H96.5241L96.4944 28.7975H106.378L105.451 30.9156H97.0457V48.4292H117.013C119.1 48.4292 118.914 46.3208 118.914 46.3208V30.9162H110.497L111.237 28.7477H119.513V28.7458H119.514ZM115.049 44.6901C115.049 44.6901 114.807 45.2717 114.465 45.2717H101.216V41.1866H115.051L115.049 44.6901ZM115.027 37.8128H101.214V33.982H115.027V37.8128V37.8128Z" fill="white"/>
<path d="M145.784 25.3494H136.764V23.5825H132.533V25.2623H122.186V48.3937H125.909V28.2461H145.784V25.3494ZM143.351 30.137V28.7981H139.715V30.137H132.233V28.8458H128.788V30.137H126.461L126.507 32.7574H128.788V37.6785H141.372C143.118 37.6785 143.349 35.8361 143.349 35.8361V32.7561H146.012V30.1351H143.35L143.351 30.137ZM139.715 34.5462C139.715 34.5462 139.39 35.1427 138.975 35.1427H132.193V32.7057H139.713V34.5475H139.715V34.5462ZM126.969 41.2647L132.762 44.6242C132.303 45.1284 130.325 45.7688 130.325 45.7688H126.463V48.3511H131.706C133.271 48.0309 136.167 46.559 136.167 46.559C137.365 47.6597 139.669 48.118 139.669 48.118H145.646V45.5422H141.141C139.926 45.3608 138.836 44.6681 138.836 44.6681L145.647 40.7573V38.6398H126.971V41.2634L126.969 41.2647ZM139.022 41.2214L135.709 42.969L132.672 41.2214H139.022Z" fill="white"/>
<path d="M45.3704 29.0324H50.3884V24.6116H45.3704V29.0324ZM45.3704 48.2995H50.3884V30.9582H45.3704V48.2995Z" fill="white"/>
<path d="M37.211 30.9731L26.5049 30.9453V34.5908H35.8928C35.8928 34.5908 38.1271 35.1422 38.1271 36.5598V37.8439H29.6321C29.6321 37.8439 26.2912 38.1525 25.2183 42.1427C25.0337 44.0123 25.2796 44.9303 25.4055 45.2712C25.5262 45.6088 26.5049 47.8134 29.4184 48.3641H42.945V35.9414C42.945 35.942 42.3007 31.6787 37.211 30.9731ZM38.1271 44.9322H31.2905C30.3719 44.5617 30.0659 43.9503 30.0013 43.7954C29.9381 43.645 29.725 43.0956 29.9729 42.5404C30.5262 41.47 31.4429 41.2228 31.4429 41.2228H38.1271V44.9322Z" fill="white"/>
<path d="M24.115 42.2176C24.2629 37.9949 20.4747 36.5346 20.4747 36.5346C23.6812 34.8575 23.2739 30.6303 23.2739 30.6303C22.9265 24.161 15.0222 24.4631 15.0222 24.4631H2.80865V48.5732H16.5993C24.698 48.5409 24.115 42.2176 24.115 42.2176ZM16.3224 44.0917V44.1027H8.06101V38.9007H16.2817L16.5599 38.9568C16.5599 38.9568 18.1241 39.2428 18.691 40.6495C18.691 40.6495 19.0189 41.9716 18.3107 42.9535C18.3107 42.9535 17.7897 43.8612 16.3224 44.0917ZM18.0738 32.913C18.0738 32.913 17.5186 33.933 16.0454 34.1538H8.06101V29.1642H16.0112C16.0112 29.1642 17.7387 29.0848 18.3107 30.4566C18.3107 30.4573 18.6542 31.915 18.0738 32.913Z" fill="white"/>
</g>
</svg>
