<svg width="58" height="59" viewBox="0 0 58 59" fill="none" xmlns="http://www.w3.org/2000/svg">
<g clip-path="url(#clip0)">
<path d="M28.9121 37.1808V31.5774C34.7986 31.5774 39.3679 25.6955 37.1076 19.4531C36.2783 17.1593 34.4408 15.3079 32.148 14.4723C25.9526 12.2113 20.1149 16.7989 20.1149 22.7299H14.5699C14.5699 13.2763 23.6435 5.90339 33.4814 9C37.7743 10.3599 41.2054 13.8006 42.5388 18.126C45.6121 28.0384 38.2947 37.1808 28.9121 37.1808Z" fill="white" fill-opacity="0.4"/>
<path fill-rule="evenodd" clip-rule="evenodd" d="M28.9284 31.6102H23.3834V26.0232H28.9284V31.6102Z" fill="white" fill-opacity="0.4"/>
<path fill-rule="evenodd" clip-rule="evenodd" d="M23.3833 35.8864H19.1392V31.6101H23.3833V35.8864Z" fill="white" fill-opacity="0.4"/>
<path fill-rule="evenodd" clip-rule="evenodd" d="M19.1392 31.6103H15.5781V28.0222H19.1392V31.6103Z" fill="white" fill-opacity="0.4"/>
<path d="M5.20353 42.8496C4.48805 42.3417 3.57744 42.0959 2.53673 42.0959H0.260193V49.3869H2.55299C3.5937 49.3869 4.50431 49.1248 5.2198 48.5841C5.61006 48.3056 5.91902 47.9123 6.14667 47.4208C6.35806 46.9293 6.47189 46.3395 6.47189 45.7005C6.47189 45.0615 6.35806 44.488 6.14667 43.9965C5.91902 43.505 5.61006 43.1118 5.20353 42.8496ZM1.59359 43.3248H2.30908C3.10587 43.3248 3.75631 43.4886 4.2604 43.7999C4.81327 44.144 5.08971 44.783 5.08971 45.7005C5.08971 46.6508 4.81327 47.3225 4.2604 47.683C3.78883 47.9943 3.13839 48.1581 2.32534 48.1581H1.59359V43.3248Z" fill="white" fill-opacity="0.4"/>
<path d="M8.04923 41.9976C7.82158 41.9976 7.64271 42.0795 7.4801 42.2269C7.33375 42.3744 7.25244 42.5546 7.25244 42.784C7.25244 43.0134 7.33375 43.1936 7.4801 43.3574C7.62644 43.5049 7.82158 43.5868 8.04923 43.5868C8.26062 43.5868 8.45576 43.5049 8.61837 43.3574C8.76472 43.21 8.84602 43.0134 8.84602 42.784C8.84602 42.5546 8.76472 42.3744 8.61837 42.2269C8.45576 42.0795 8.26062 41.9976 8.04923 41.9976Z" fill="white" fill-opacity="0.4"/>
<path d="M8.68336 44.2422H7.39874V49.3868H8.68336V44.2422Z" fill="white" fill-opacity="0.4"/>
<path d="M13.3503 44.6682C12.9601 44.3241 12.5373 44.1111 12.0657 44.1111C11.3502 44.1111 10.7648 44.3568 10.3095 44.8484C9.85421 45.3235 9.61029 45.9461 9.61029 46.6998C9.61029 47.4207 9.83794 48.0433 10.2933 48.5348C10.7486 49.01 11.3502 49.2557 12.0494 49.2557C12.5373 49.2557 12.9763 49.1247 13.3178 48.8461V48.9608C13.3178 49.3868 13.204 49.7145 12.9763 49.9439C12.7487 50.1732 12.4397 50.2879 12.0494 50.2879C11.464 50.2879 11.09 50.0585 10.6347 49.4359L9.75664 50.2879L9.7729 50.3207C9.96803 50.5828 10.2445 50.845 10.6347 51.0908C11.0087 51.3365 11.4966 51.4676 12.0657 51.4676C12.83 51.4676 13.4479 51.2382 13.9032 50.7631C14.3585 50.2879 14.5862 49.6653 14.5862 48.8953V44.2258H13.3178V44.6682H13.3503ZM13.0088 47.7156C12.7812 47.9778 12.4885 48.0924 12.1307 48.0924C11.7567 48.0924 11.4803 47.9614 11.2527 47.7156C11.025 47.4535 10.9274 47.1258 10.9274 46.7162C10.9274 46.2902 11.0413 45.9625 11.2527 45.7004C11.464 45.4382 11.773 45.3235 12.1307 45.3235C12.5047 45.3235 12.7812 45.4546 13.0088 45.7004C13.2365 45.9625 13.3503 46.3066 13.3503 46.7162C13.3503 47.1258 13.2365 47.4535 13.0088 47.7156Z" fill="white" fill-opacity="0.4"/>
<path d="M16.9927 44.2422H15.7081V49.3868H16.9927V44.2422Z" fill="white" fill-opacity="0.4"/>
<path d="M16.3586 41.9976C16.1309 41.9976 15.952 42.0795 15.7894 42.2269C15.6431 42.3744 15.5618 42.5546 15.5618 42.784C15.5618 43.0134 15.6431 43.1936 15.7894 43.3574C15.9358 43.5049 16.1309 43.5868 16.3586 43.5868C16.57 43.5868 16.7651 43.5049 16.9277 43.3574C17.074 43.21 17.1553 43.0134 17.1553 42.784C17.1553 42.5546 17.074 42.3744 16.9277 42.2269C16.7651 42.0795 16.5862 41.9976 16.3586 41.9976Z" fill="white" fill-opacity="0.4"/>
<path d="M19.8059 42.8496H18.5376V44.2423H17.8058V45.4219H18.5376V47.5519C18.5376 48.2236 18.6677 48.6988 18.9279 48.9773C19.188 49.2558 19.6596 49.3869 20.31 49.3869C20.5214 49.3869 20.7328 49.3869 20.928 49.3705H20.993V48.1909L20.554 48.2072C20.245 48.2072 20.0499 48.1581 19.9523 48.0434C19.8547 47.9287 19.8059 47.6993 19.8059 47.3553V45.4055H21.0093V44.2259H19.8059V42.8496Z" fill="white" fill-opacity="0.4"/>
<path d="M28.3104 42.0796H27.0258V49.3869H28.3104V42.0796Z" fill="white" fill-opacity="0.4"/>
<path d="M41.2866 47.552C41.059 47.8141 40.8151 48.0435 40.6362 48.1582C40.4573 48.2729 40.2297 48.3384 39.9695 48.3384C39.5955 48.3384 39.2865 48.2073 39.0426 47.9124C38.7987 47.6339 38.6686 47.257 38.6686 46.8311C38.6686 46.3887 38.7987 46.0282 39.0426 45.7497C39.2865 45.4712 39.5955 45.3237 39.9695 45.3237C40.376 45.3237 40.8151 45.5859 41.1891 46.0282L42.0346 45.209C41.4818 44.4881 40.7825 44.144 39.937 44.144C39.2377 44.144 38.6198 44.4062 38.1157 44.9141C37.6117 45.422 37.3677 46.061 37.3677 46.8311C37.3677 47.6011 37.6279 48.2401 38.1157 48.748C38.6198 49.2559 39.2215 49.5181 39.937 49.5181C40.8638 49.5181 41.6119 49.1085 42.1322 48.3712L41.2866 47.552Z" fill="white" fill-opacity="0.4"/>
<path d="M46.5715 44.963C46.3927 44.7009 46.1487 44.5043 45.8398 44.3568C45.5308 44.2094 45.1731 44.1274 44.7828 44.1274C44.0673 44.1274 43.4819 44.3896 43.0429 44.9139C42.6201 45.4382 42.3925 46.0772 42.3925 46.8472C42.3925 47.6337 42.6364 48.2726 43.0917 48.7642C43.5633 49.2557 44.1812 49.5015 44.9454 49.5015C45.8073 49.5015 46.5228 49.141 47.0594 48.4529L47.0919 48.4201L46.2463 47.6009C46.165 47.6992 46.0512 47.7975 45.9536 47.8958C45.8235 48.0105 45.7097 48.1088 45.5796 48.1743C45.3845 48.2726 45.1731 48.3218 44.9292 48.3218C44.5714 48.3218 44.2787 48.2235 44.0511 48.0105C43.8397 47.8139 43.7096 47.5517 43.6771 47.224H47.0756L47.0919 46.7489C47.0919 46.4212 47.0431 46.0935 46.9618 45.7986C46.8805 45.5037 46.7504 45.2252 46.5715 44.963ZM43.7584 46.1755C43.8234 45.9297 43.9373 45.7167 44.0999 45.5693C44.2787 45.389 44.5064 45.3071 44.7666 45.3071C45.0755 45.3071 45.3194 45.389 45.482 45.5693C45.6284 45.7331 45.726 45.9297 45.7422 46.1755H43.7584Z" fill="white" fill-opacity="0.4"/>
<path d="M51.4986 44.6354C51.1083 44.3077 50.5717 44.1274 49.905 44.1274C49.4822 44.1274 49.0757 44.2257 48.7179 44.406C48.3765 44.5698 48.0512 44.8647 47.8398 45.2252L47.8561 45.2416L48.6854 46.028C49.0269 45.4873 49.4009 45.2907 49.905 45.2907C50.1814 45.2907 50.3928 45.3563 50.5717 45.5037C50.7343 45.6512 50.8319 45.8314 50.8319 46.0608V46.3065C50.5067 46.2082 50.1977 46.1591 49.8887 46.1591C49.2546 46.1591 48.7342 46.3065 48.3439 46.6015C47.9537 46.8964 47.7585 47.3387 47.7585 47.8958C47.7585 48.3873 47.9212 48.7642 48.2626 49.0591C48.6041 49.3376 49.0106 49.4851 49.4985 49.4851C49.9863 49.4851 50.4416 49.2885 50.8644 48.9444V49.3704H52.1328V46.0608C52.084 45.4546 51.8888 44.963 51.4986 44.6354ZM49.222 47.4207C49.3684 47.3224 49.5798 47.2732 49.84 47.2732C50.1489 47.2732 50.4741 47.3387 50.8156 47.4534V47.9613C50.5392 48.2235 50.1652 48.3546 49.7099 48.3546C49.4822 48.3546 49.3196 48.3054 49.1895 48.2071C49.0757 48.1088 49.0106 47.9941 49.0106 47.8303C49.0106 47.65 49.0757 47.519 49.222 47.4207Z" fill="white" fill-opacity="0.4"/>
<path d="M57.0273 44.7337C56.6695 44.3241 56.1655 44.1274 55.5313 44.1274C55.0272 44.1274 54.6044 44.2749 54.2954 44.5698V44.2585H53.0433V49.3868H54.328V46.5523C54.328 46.1591 54.4255 45.8478 54.6044 45.6348C54.7833 45.4218 55.0272 45.3071 55.3687 45.3071C55.6614 45.3071 55.8727 45.4054 56.0354 45.602C56.198 45.7986 56.2793 46.0772 56.2793 46.4048V49.3868H57.5639V46.4048C57.5639 45.7003 57.385 45.1269 57.0273 44.7337Z" fill="white" fill-opacity="0.4"/>
<path d="M25.4159 44.6354C25.0257 44.3077 24.4891 44.1274 23.8224 44.1274C23.3996 44.1274 22.993 44.2257 22.6353 44.406C22.2938 44.5698 21.9686 44.8647 21.7572 45.2252L21.7735 45.2416L22.6028 46.028C22.9443 45.4873 23.3183 45.2907 23.8224 45.2907C24.0988 45.2907 24.3102 45.3563 24.4891 45.5037C24.6517 45.6512 24.7492 45.8314 24.7492 46.0608V46.3065C24.424 46.2082 24.1151 46.1591 23.8061 46.1591C23.1719 46.1591 22.6516 46.3065 22.2613 46.6015C21.871 46.8964 21.6759 47.3387 21.6759 47.8958C21.6759 48.3873 21.8385 48.7642 22.18 49.0591C22.5215 49.3376 22.928 49.4851 23.4158 49.4851C23.9037 49.4851 24.359 49.2885 24.7818 48.9444V49.3704H26.0501V46.0608C26.0013 45.4546 25.8062 44.963 25.4159 44.6354ZM23.1394 47.4207C23.2857 47.3224 23.4971 47.2732 23.7573 47.2732C24.0663 47.2732 24.3915 47.3387 24.733 47.4534V47.9613C24.4565 48.2235 24.0825 48.3546 23.6272 48.3546C23.3996 48.3546 23.237 48.3054 23.1069 48.2071C22.993 48.1088 22.928 47.9941 22.928 47.8303C22.928 47.65 22.993 47.519 23.1394 47.4207Z" fill="white" fill-opacity="0.4"/>
<path d="M32.9773 49.5016C30.9121 49.5016 29.2372 47.814 29.2372 45.7332C29.2372 43.6524 30.9121 41.9648 32.9773 41.9648C35.0424 41.9648 36.7173 43.6524 36.7173 45.7332C36.7173 47.814 35.0424 49.5016 32.9773 49.5016ZM32.9773 43.292C31.6439 43.292 30.5544 44.3897 30.5544 45.7332C30.5544 47.0767 31.6439 48.1744 32.9773 48.1744C34.3107 48.1744 35.4002 47.0767 35.4002 45.7332C35.4002 44.3897 34.3107 43.292 32.9773 43.292Z" fill="white" fill-opacity="0.4"/>
</g>
<defs>
<clipPath id="clip0">
<rect width="57.5639" height="58" fill="white" transform="translate(0 0.875488)"/>
</clipPath>
</defs>
</svg>
