<svg width="147" height="44" viewBox="0 0 147 44" fill="none" xmlns="http://www.w3.org/2000/svg">
<g opacity="0.4">
<path d="M43.6792 32.8181C42.7439 32.6044 41.7511 32.468 40.7484 32.468C39.0307 32.468 37.4691 32.7672 36.3169 33.2455C36.1886 33.3096 36.0999 33.4427 36.0999 33.5923C36.0999 33.6482 36.1114 33.7041 36.1344 33.7501C36.2692 34.1446 36.0456 34.5704 34.9312 34.8186C33.2776 35.1802 32.2338 36.888 31.6371 37.4518C30.9352 38.1175 28.9562 38.5268 29.2537 38.1274C29.4871 37.82 30.378 36.8519 30.9188 35.8064C31.4054 34.8728 31.8377 34.6065 32.4311 33.714C32.6069 33.4526 33.2825 32.5338 33.4798 31.8072C33.7 31.0971 33.6261 30.2062 33.7115 29.8397C33.8332 29.3104 34.3312 28.1647 34.369 27.5138C34.3904 27.1505 32.8387 28.0398 32.1023 28.0398C31.3659 28.0398 30.6476 27.5976 29.9901 27.568C29.1764 27.5286 28.6521 28.1943 27.9141 28.0759C27.4949 28.0102 27.1382 27.6403 26.4051 27.614C25.358 27.5746 24.0776 28.1943 21.6761 28.1187C19.3123 28.0414 17.1295 25.1303 16.8319 24.6685C16.4818 24.1277 16.0545 24.1277 15.5909 24.555C15.1257 24.9775 14.5504 24.6438 14.3893 24.3594C14.0787 23.817 13.2502 22.2341 11.9665 21.9004C10.1912 21.4401 9.2921 22.8833 9.4088 24.029C9.52715 25.1945 10.2816 25.5216 10.6317 26.1412C10.9786 26.7593 11.1577 27.1604 11.812 27.4349C12.2788 27.6288 12.4514 27.9148 12.3133 28.2962C12.1917 28.6282 11.7084 28.7055 11.3879 28.7203C10.7123 28.7532 10.2389 28.5691 9.89206 28.3488C9.49099 28.0907 9.16224 27.7357 8.81377 27.1324C8.40612 26.4651 7.76671 26.1758 7.02209 26.1758C6.66704 26.1758 6.33336 26.2695 6.03913 26.419C4.87208 27.0289 3.48147 27.3872 1.98567 27.3872L0.295898 27.3888C3.53243 36.9834 12.6108 43.8904 23.3034 43.8904C31.8426 43.8904 39.3529 39.4851 43.6792 32.8181" fill="white"/>
<path d="M21.4133 6.92728C18.6107 7.12946 18.3181 7.43191 17.7938 7.98914C17.0541 8.77978 16.0777 6.96838 16.0777 6.96838C15.4909 6.8451 14.7825 5.90159 15.1654 5.02219C15.5435 4.151 16.2405 4.41071 16.4574 4.68193C16.7221 5.01232 17.2892 5.55312 18.0256 5.53339C18.762 5.51367 19.6101 5.35915 20.7953 5.35915C21.9952 5.35915 22.8006 5.80625 22.845 6.19253C22.8861 6.51964 22.748 6.82866 21.4133 6.92728V6.92728ZM24.3589 2.29686H24.3457C24.303 2.29686 24.2685 2.26399 24.2685 2.22454C24.2685 2.19495 24.2866 2.16865 24.3129 2.15714C24.857 1.87113 25.6673 1.64101 26.5944 1.54896C26.8722 1.51937 27.145 1.50294 27.4064 1.50294H27.5461C29.1027 1.5391 30.347 2.15714 30.329 2.88368C30.3092 3.61021 29.0353 4.17073 27.4771 4.13785C26.9757 4.1247 26.5023 4.05238 26.0963 3.93403C26.0454 3.92252 26.0125 3.88143 26.0125 3.83212C26.0125 3.78445 26.0454 3.74336 26.098 3.73021C27.0661 3.50666 27.722 3.13846 27.676 2.79163C27.6135 2.33303 26.3462 2.08318 24.8405 2.2344C24.6745 2.25084 24.5151 2.27221 24.3589 2.29686V2.29686ZM36.9993 13.1801C36.7593 13.9855 36.419 15.0161 34.9002 15.7953C34.6783 15.9087 34.5961 15.7229 34.6964 15.5487C35.2717 14.5723 35.372 14.3291 35.5396 13.9461C35.7714 13.3823 35.8963 12.5818 35.4311 10.915C34.5189 7.63245 32.6121 3.24201 31.2297 1.82018C29.8934 0.446009 27.4738 0.0580863 25.2843 0.620246C24.4789 0.825714 22.9025 1.6443 19.98 0.986801C14.9222 -0.152313 14.1726 2.37905 13.8833 3.482C13.5907 4.58495 12.8938 7.71957 12.8938 7.71957C12.662 8.9984 12.3579 11.2175 20.2134 12.7149C23.8724 13.4102 24.0564 14.357 24.2208 15.0359C24.5118 16.2539 24.9753 16.9508 25.498 17.2993C26.0207 17.6478 25.498 17.9371 24.9178 17.9946C23.3611 18.1573 17.5998 16.5054 14.1907 14.5707C11.4029 12.8678 11.3569 11.3358 11.9947 10.034C7.7834 9.57864 4.62249 10.4285 4.05047 12.4223C3.06586 15.8413 11.5722 21.6832 21.2588 24.6156C31.4237 27.691 41.8779 25.5427 43.04 19.1567C43.5677 16.2555 41.1234 14.1088 36.9993 13.1801" fill="white"/>
<path d="M59.948 21.164C59.948 18.9384 59.9003 17.3029 59.8115 15.8235H63.4508L63.6086 18.9811H63.7269C64.5455 16.6404 66.4851 15.4471 68.2784 15.4471C68.6877 15.4471 68.9277 15.4619 69.2663 15.5391V19.4973C68.8718 19.4184 68.5036 19.3773 67.9974 19.3773C65.9953 19.3773 64.6047 20.6512 64.2283 22.5563C64.1592 22.9261 64.1198 23.3716 64.1198 23.8236V32.4417H59.9134L59.948 21.164Z" fill="white"/>
<path d="M74.3421 25.2634C74.4522 28.2748 76.7847 29.5931 79.4772 29.5931C81.4102 29.5931 82.7959 29.289 84.0648 28.8238L84.6878 31.7151C83.266 32.3184 81.2918 32.7671 78.8788 32.7671C73.4791 32.7671 70.3149 29.4353 70.3149 24.3429C70.3149 19.7553 73.0978 15.4174 78.4465 15.4174C83.8544 15.4174 85.6132 19.8605 85.6132 23.4981C85.6132 24.2805 85.5442 24.9051 85.4653 25.2963L74.3421 25.2634V25.2634ZM81.6535 22.3359C81.6732 20.7957 81.0026 18.2857 78.1868 18.2857C75.5979 18.2857 74.5213 20.6347 74.3322 22.3359H81.6535Z" fill="white"/>
<path d="M99.5277 25.2368C99.5277 25.6773 99.4949 26.0883 99.3995 26.4631C98.9771 28.2827 97.4879 29.453 95.7685 29.453C93.1221 29.453 91.6065 27.2225 91.6065 24.17C91.6065 21.0864 93.1073 18.698 95.8145 18.698C97.7065 18.698 99.0609 20.0327 99.4308 21.6502C99.5031 21.9904 99.5277 22.4112 99.5277 22.7466V25.2368ZM103.729 9.42238L99.5277 8.23724V17.6131H99.4587C98.7141 16.3853 97.0736 15.4483 94.797 15.4483C90.7978 15.4483 87.3164 18.7555 87.3427 24.3229C87.3427 29.4317 90.4872 32.8161 94.4584 32.8161C96.8567 32.8161 98.8653 31.6737 99.8581 29.8114H99.9321L100.121 32.443H103.869C103.792 31.3121 103.729 29.4843 103.729 27.783V9.42238V9.42238Z" fill="white"/>
<path d="M114.848 15.429C113.581 15.429 112.445 15.7939 111.493 16.3823C110.504 16.9609 109.7 17.8568 109.22 18.7805H109.152V11.004L107.507 10.5175V32.4433H109.152V22.2719C109.152 21.5963 109.203 21.1278 109.378 20.633C110.088 18.5619 112.039 16.8656 114.398 16.8656C117.803 16.8656 118.984 19.5958 118.984 22.5907V32.4433H120.629V22.4116C120.629 16.2163 116.424 15.429 114.848 15.429" fill="white"/>
<path d="M135.4 28.4923C135.4 29.8089 135.452 31.1683 135.643 32.4422H134.128L133.884 30.0604H133.807C133 31.3425 131.146 32.8219 128.501 32.8219C125.153 32.8219 123.593 30.4664 123.593 28.2506C123.593 24.4125 126.985 22.0981 133.756 22.1704V21.7266C133.756 20.0796 133.435 16.7987 129.497 16.8233C128.041 16.8233 126.524 17.2129 125.319 18.0627L124.796 16.8677C126.318 15.8371 128.174 15.4294 129.68 15.4294C134.481 15.4294 135.4 19.0325 135.4 22.0044V28.4923V28.4923ZM133.756 23.5528C130.13 23.4493 125.345 23.9983 125.345 27.9909C125.345 30.3809 126.923 31.4559 128.657 31.4559C131.43 31.4559 133.008 29.7399 133.583 28.1208C133.702 27.7674 133.756 27.409 133.756 27.123V23.5528Z" fill="white"/>
<path d="M141.954 12.1443V15.8082H146.699V17.143H141.954V27.9539C141.954 30.0694 142.61 31.3942 144.4 31.3942C145.256 31.3942 145.864 31.2824 146.29 31.1329L146.489 32.4068C145.951 32.6336 145.197 32.8062 144.193 32.8062C142.978 32.8062 141.97 32.4248 141.319 31.6293C140.567 30.7548 140.308 29.3593 140.308 27.6613V17.143H137.501V15.8082H140.308V12.7509L141.954 12.1443V12.1443Z" fill="white"/>
</g>
</svg>
