<svg id="Layer_1" data-name="Layer 1" xmlns="http://www.w3.org/2000/svg" viewBox="0 0 398 398"><defs><style>.cls-1{fill:#fff;}</style></defs><title>logo_white_text_white</title><g id="mask-2"><path class="cls-1" d="M70.27,244H47.51L.88,154H67.06a46.65,46.65,0,0,1,46.6,46.6A43.44,43.44,0,0,1,70.27,244Z"/></g><g id="mask-2-2" data-name="mask-2"><path class="cls-1" d="M278,214h-8l-.06-30h7a15.53,15.53,0,0,1,15.52,15.52A14.51,14.51,0,0,1,278,214Zm-6.32-1.66H278a12.85,12.85,0,0,0,12.84-12.84A13.89,13.89,0,0,0,277,185.58H271.6Z"/></g><path class="cls-1" d="M157.22,183.91h2.33l19,27.67h.08V183.91h1.86v30.17h-2.19l-19.18-27.89h-.09v27.89h-1.86Z"/><path class="cls-1" d="M198.54,183.91h20.28v1.61H200.4V197.6h17.32v1.6H200.4v13.27H219v1.61H198.54Z"/><path class="cls-1" d="M231.62,185.52v-1.61h23.11v1.61H244.08v28.56h-1.86V185.52Z"/><path class="cls-1" d="M317.44,183.91h2l11.91,30.17h-2l-3.81-9.68H311.15l-3.85,9.68h-2ZM325,202.8l-6.46-17.07h-.08l-6.72,17.07Z"/><path class="cls-1" d="M339.66,185.52v-1.61h23.11v1.61H352.13v28.56h-1.86V185.52Z"/><path class="cls-1" d="M383.18,183.91h2l11.91,30.17h-2l-3.8-9.68H376.88L373,214.08h-2Zm7.56,18.89-6.46-17.07h-.09l-6.72,17.07Z"/></svg>