<?xml version="1.0" encoding="utf-8"?>
<!-- Svg Vector Icons : http://www.onlinewebfonts.com/icon -->
<!DOCTYPE svg PUBLIC "-//W3C//DTD SVG 1.1//EN" "http://www.w3.org/Graphics/SVG/1.1/DTD/svg11.dtd">
<svg version="1.1" xmlns="http://www.w3.org/2000/svg" xmlns:xlink="http://www.w3.org/1999/xlink" x="0px" y="0px" viewBox="0 0 1000 1000" enable-background="new 0 0 1000 1000" xml:space="preserve">
<metadata> Svg Vector Icons : http://www.onlinewebfonts.com/icon </metadata>
<g><g transform="translate(0.000000,98.000000) scale(0.100000,-0.100000)"><path d="M1393.9-720.1C620.6-1539.4,100-2856.2,100-4020c0-1171.4,513-2480.6,1301.6-3299.9c467-497.7,719.7-574.2,995.3-298.6c268,268,199.1,558.9-252.6,1056.5c-781,880.5-1133.1,1990.6-980,3062.5c107.2,742.7,490,1546.6,1003,2105.5c421.1,467,482.3,719.7,229.7,972.4C2121.2-145.9,1868.6-222.5,1393.9-720.1z"/><path d="M7603.1-421.6c-252.6-252.6-191.4-505.3,229.7-972.4c513-558.9,895.8-1362.8,1002.9-2105.5c153.1-1071.9-199-2182.1-980-3062.5c-451.7-497.7-520.6-788.6-252.6-1056.5c275.6-275.6,528.3-199,995.3,298.6C9387-6500.6,9900-5191.4,9900-4020c0,1163.8-520.6,2480.6-1293.9,3299.8C8131.4-222.5,7878.7-145.9,7603.1-421.6z"/><path d="M3200.8-1570c-268-99.5-735-681.4-987.6-1217.3c-214.4-459.4-237.4-574.2-237.4-1240.3c0-681.4,15.3-758,283.3-1301.6c505.3-1018.3,1163.7-1447.1,1531.3-995.3c206.7,268,168.4,421.1-206.7,849.8c-459.4,520.6-597.2,849.9-597.2,1454.7c0,604.8,137.8,934.1,597.2,1454.7c375.1,421.1,413.4,589.5,214.4,826.9C3629.5-1547,3407.5-1485.8,3200.8-1570z"/><path d="M6401.1-1570c-176.1-68.9-329.2-298.6-329.2-490c0-61.3,153.1-291,344.5-505.3c459.4-520.6,597.2-849.9,597.2-1454.7c0-604.8-137.8-934.1-597.2-1454.7c-375.2-428.7-413.5-581.9-206.7-849.8c367.5-451.7,1026-22.9,1531.2,995.3c268,543.6,283.3,612.5,283.3,1309.2c0,696.7-15.3,765.6-283.3,1309.2c-283.3,574.2-735,1087.2-1018.3,1163.7C6638.5-1524,6493-1531.7,6401.1-1570z"/><path d="M4479.4-2925.2c-773.3-375.1-934.1-1339.9-329.2-1944.7c497.7-497.7,1202-497.7,1699.7,0C6814.6-3912.8,5696.7-2320.3,4479.4-2925.2z"/></g></g>
</svg>