<svg width="2490" height="2500" viewBox="0 0 256 257" xmlns="http://www.w3.org/2000/svg" preserveAspectRatio="xMidYMid"><path d="M98.875 232.033l-26.433-7.408-25.001-28.508 31.272-.863 20.162 36.779M37.75 213.233l-14.875-4.166-14.058-16.034 17.082-2.809 11.851 23.009" fill="#995B80"/><path d="M0 191.017l15.204 3.091 2.207-3.882V58.503l-2.207-2.561L0 64.6v126.417" fill="#7B3F65"/><path d="M73.933 69.708L15.208 55.942v138.166l8.798-.818 13.744 19.943 10.6-22.205 25.583-2.378V69.708" fill="#C17B9D"/><path d="M33.958 198.133l26.063 5.25 1.716-4.045V37.44l-1.716-3.665-26.063 13.208v151.15" fill="#7B3F65"/><path d="M208.734 81.516L60.021 33.775v169.612l17.221-2.216 21.633 30.862 17.126-35.85 92.733-11.933V81.516" fill="#C17B9D"/><path d="M181.833 256.492l-37.566-10.525-35.509-40.5 46.033-.468 27.042 51.493" fill="#995B80"/><path d="M89.591 208.95l38.33 7.417 2.977-2.566V4.117L127.921 0l-38.33 19.158V208.95" fill="#7B3F65"/><path d="M256 64.033L127.925 0v216.367l22.597-4.528 31.311 44.653 26.901-56.309-.017-.002L256 190.708V64.033" fill="#C17B9D"/></svg>