<svg height="512pt" viewBox="0 -40 512.00019 512" width="512pt" xmlns="http://www.w3.org/2000/svg"><path d="m193.667969 313.707031h-90c-8.285157 0-15 6.714844-15 15 0 8.28125 6.714843 14.996094 15 14.996094h90c8.28125 0 15-6.714844 15-14.996094 0-8.285156-6.714844-15-15-15zm0 0"/><path d="m328.136719 313.707031h-44.472657c-8.28125 0-15 6.714844-15 15 0 8.28125 6.71875 14.996094 15 14.996094h44.472657c8.285156 0 15-6.714844 15-14.996094 0-8.285156-6.714844-15-15-15zm0 0"/><path d="m407.664062 402.851562h-52c-8.285156 0-15 6.714844-15 15 0 8.28125 6.714844 14.996094 15 14.996094h52c8.28125 0 15-6.714844 15-14.996094 0-8.285156-6.714843-15-15-15zm0 0"/><path d="m256.710938 373.703125h-11.046876c-8.28125 0-14.996093 6.71875-14.996093 15 0 8.285156 6.714843 15 14.996093 15h11.046876c8.285156 0 15-6.714844 15-15s-6.714844-15-15-15zm0 0"/><path d="m496.957031 343.703125h-89.292969c-8.285156 0-15 6.71875-15 15 0 8.285156 6.714844 15 15 15h89.292969c8.285157 0 15-6.714844 15-15 0-8.28125-6.714843-15-15-15zm0 0"/><path d="m497 283.707031c8.285156 0 15-6.71875 15-15 0-8.285156-6.714844-15-15-15h-38.945312l50.640624-63.660156c3.585938-4.507813 4.273438-10.667969 1.769532-15.855469-2.5-5.1875-7.75-8.484375-13.507813-8.484375h-29.539062v-67.851562c0-8.285157-6.714844-15-15-15h-26.425781v-67.855469c0-8.285156-6.71875-15-15-15h-248.5625c-8.285157 0-15 6.714844-15 15v67.855469h-26.429688c-8.28125 0-15 6.714843-15 14.996093v37.855469h-91c-4.628906 0-9 2.140625-11.84375 5.792969-2.839844 3.65625-3.835938 8.421875-2.691406 12.910156l14.699218 57.734375c4.070313 15.992188 12.058594 30.144531 22.765626 41.5625h-22.886719c-8.285157 0-15.0000002 6.714844-15.0000002 15 0 8.28125 6.7148432 15 15.0000002 15zm-59.582031-118h-52.855469v-52.851562h52.855469zm-135.707031 0v-52.851562h52.851562v52.851562zm-82.855469 0v-52.851562h52.855469v52.851562zm177.136719-82.851562h-52.855469v-52.855469h52.855469zm-82.855469 0h-52.851563v-52.855469h52.851563zm-135.707031-52.855469h52.855468v52.855469h-52.855468zm-41.429688 82.851562h52.855469v51.570313c-7.820313-2.605469-14.070313-8.988281-16.28125-17.269531l-.078125-.308594c-1.753906-6.566406-7.699219-11.136719-14.496094-11.136719h-22zm-91.765625 91.894532-9.9375-39.039063h113.445313c9.25 18.105469 28.046874 30 48.992187 30h269.125l-46.136719 58h-312.496094c-29.75 0-55.652343-20.132812-62.992187-48.960937zm0 0"/></svg>