<?xml version="1.0" encoding="utf-8"?>
<!-- Svg Vector Icons : http://www.onlinewebfonts.com/icon -->
<!DOCTYPE svg PUBLIC "-//W3C//DTD SVG 1.1//EN" "http://www.w3.org/Graphics/SVG/1.1/DTD/svg11.dtd">
<svg version="1.1" xmlns="http://www.w3.org/2000/svg" xmlns:xlink="http://www.w3.org/1999/xlink" x="0px" y="0px" viewBox="0 0 1000 1000" enable-background="new 0 0 1000 1000" xml:space="preserve">
<metadata> Svg Vector Icons : http://www.onlinewebfonts.com/icon </metadata>
<g><path d="M241.9,383.3h1.4v-0.7l0.5-0.2l-0.5-1V150H150v163.4l-140,70L56.1,476L241.9,383.3z M756.7,383.3h1.4L943.9,476l46.1-92.7l-140-70V150h-93.3v231.4l-0.5,1l0.5,0.2V383.3z M497.7,216l0.6-0.4l0.5,0.3l0.6-0.9L699.8,99.4l-46.7-80.8l-141.5,81.7L381,14l-57.2,86.2L497,214.8L497.7,216z M243.3,616.7h-1.4L56.1,524L10,616.7l140,70V850h93.3V618.6l0.5-1l-0.5-0.2V616.7z M756.6,499.9c0-141.8-114.9-256.7-256.7-256.7c-141.8,0-256.7,114.9-256.7,256.7c0,141.7,114.9,256.7,256.7,256.7C641.7,756.6,756.6,641.7,756.6,499.9z M359.8,499.9c0-77.4,62.7-140.1,140.1-140.1c77.4,0,140.1,62.7,140.1,140.1c0,77.4-62.7,140.1-140.1,140.1C422.6,640.1,359.8,577.3,359.8,499.9z M758.1,616.7h-1.4v0.7l-0.5,0.2l0.5,1V850H850V686.6l140-70L943.9,524L758.1,616.7z M498.8,784l-0.5,0.3l-0.6-0.4l-0.7,1.2L323.8,899.8L381,986l130.6-86.3l141.5,81.7l46.7-80.8L499.4,784.9L498.8,784z"/></g>
</svg>