<?xml version="1.0"?>
<svg xmlns="http://www.w3.org/2000/svg" viewBox="0 0 50 50">
    <path style="line-height:normal;text-indent:0;text-align:start;text-decoration-line:none;text-decoration-style:solid;text-decoration-color:#000;text-transform:none;block-progression:tb;isolation:auto;mix-blend-mode:normal" d="M 25 2 C 12.309295 2 2 12.309295 2 25 C 2 37.690705 12.309295 48 25 48 C 37.690705 48 48 37.690705 48 25 C 48 12.309295 37.690705 2 25 2 z M 24 4.0996094 L 24 13.970703 C 21.174451 13.901558 18.493366 13.554783 16.070312 12.972656 C 17.89604 8.0919861 20.765711 4.6883047 24 4.0996094 z M 26 4.0996094 C 29.234289 4.6883047 32.10396 8.0919861 33.929688 12.972656 C 31.507019 13.554771 28.825541 13.901542 26 13.970703 L 26 4.0996094 z M 18.466797 5.0390625 C 16.680825 6.8431345 15.176704 9.3720919 14.068359 12.421875 C 12.45308 11.919861 10.994965 11.311514 9.7128906 10.623047 C 12.094037 8.0917888 15.083898 6.1434215 18.466797 5.0390625 z M 31.533203 5.0390625 C 34.916102 6.1434215 37.905963 8.0917888 40.287109 10.623047 C 39.005197 11.311666 37.546962 11.919764 35.931641 12.421875 C 34.823296 9.3720919 33.319175 6.8431345 31.533203 5.0390625 z M 8.390625 12.171875 C 9.8850837 13.016081 11.575724 13.745922 13.443359 14.330078 C 13.105033 15.497432 12.815292 16.720467 12.591797 18 L 14.667969 18 C 14.875688 16.919992 15.133158 15.88145 15.427734 14.886719 C 18.057631 15.531879 20.953967 15.901341 24 15.970703 L 24 18 L 26 18 L 26 15.970703 C 29.046404 15.901354 31.944464 15.533798 34.574219 14.888672 C 34.868495 15.882687 35.124477 16.920851 35.332031 18 L 37.408203 18 C 37.184824 16.721129 36.894736 15.498844 36.556641 14.332031 C 38.424903 13.747773 40.114647 13.016516 41.609375 12.171875 C 44.162644 15.474557 45.766524 19.548386 45.974609 24 L 41 24 L 41 26 L 45.974609 26 C 45.766524 30.451614 44.162644 34.525443 41.609375 37.828125 C 40.114916 36.983919 38.424276 36.254078 36.556641 35.669922 C 36.894967 34.502568 37.184708 33.279533 37.408203 32 L 35.332031 32 C 35.124312 33.080008 34.866842 34.11855 34.572266 35.113281 C 31.942369 34.468121 29.046033 34.098659 26 34.029297 L 26 32 L 24 32 L 24 34.029297 C 20.953596 34.098646 18.055536 34.466202 15.425781 35.111328 C 15.131505 34.117313 14.875523 33.079149 14.667969 32 L 12.591797 32 C 12.815176 33.278871 13.105264 34.501156 13.443359 35.667969 C 11.575097 36.252227 9.885353 36.983484 8.390625 37.828125 C 5.8373555 34.525443 4.2334755 30.451614 4.0253906 26 L 9 26 L 9 24 L 4.0253906 24 C 4.2334755 19.548386 5.8373555 15.474557 8.390625 12.171875 z M 35.265625 20 C 34.709625 20 34.201188 20.065266 33.742188 20.197266 C 33.282187 20.328266 32.884828 20.512047 32.548828 20.748047 C 32.213828 20.984047 31.954531 21.270422 31.769531 21.607422 C 31.584531 21.943422 31.490234 22.316703 31.490234 22.720703 C 31.490234 23.144703 31.580672 23.514031 31.763672 23.832031 C 31.944672 24.151031 32.190047 24.432781 32.498047 24.675781 C 32.806047 24.917781 33.164313 25.128641 33.570312 25.306641 C 33.975313 25.484641 34.403609 25.64325 34.849609 25.78125 C 35.225609 25.90625 35.524953 26.023766 35.751953 26.134766 C 35.977953 26.245766 36.153391 26.360516 36.275391 26.478516 C 36.398391 26.597516 36.477625 26.724422 36.515625 26.857422 C 36.553625 26.990422 36.572266 27.140547 36.572266 27.310547 C 36.572266 27.466547 36.548812 27.612094 36.507812 27.746094 C 36.463813 27.880094 36.391016 27.995797 36.291016 28.091797 C 36.189016 28.186797 36.059438 28.261359 35.898438 28.318359 C 35.737437 28.374359 35.543453 28.402344 35.314453 28.402344 C 35.031453 28.402344 34.782313 28.374359 34.570312 28.318359 C 34.358312 28.261359 34.177203 28.172922 34.033203 28.044922 C 33.889203 27.917922 33.780938 27.750875 33.710938 27.546875 C 33.640938 27.342875 33.605469 27.092828 33.605469 26.798828 L 31.193359 26.798828 C 31.193359 27.350828 31.311828 27.827516 31.548828 28.228516 C 31.785828 28.629516 32.097375 28.961609 32.484375 29.224609 C 32.871375 29.487609 33.311687 29.681594 33.804688 29.808594 C 34.297688 29.936594 34.8005 30 35.3125 30 C 35.8785 30 36.390797 29.939406 36.841797 29.816406 C 37.294797 29.693406 37.679047 29.517109 37.998047 29.287109 C 38.316047 29.058109 38.560422 28.776406 38.732422 28.441406 C 38.903422 28.108406 38.990234 27.728781 38.990234 27.300781 C 38.990234 26.899781 38.921156 26.538703 38.785156 26.220703 C 38.648156 25.901703 38.442062 25.615328 38.164062 25.361328 C 37.886063 25.107328 37.540953 24.880688 37.126953 24.679688 C 36.712953 24.479687 36.227875 24.297812 35.671875 24.132812 C 35.404875 24.039813 35.159453 23.944703 34.939453 23.845703 C 34.718453 23.747703 34.531 23.64225 34.375 23.53125 C 34.221 23.41925 34.099625 23.299922 34.015625 23.169922 C 33.931625 23.040922 33.890625 22.897328 33.890625 22.736328 C 33.890625 22.580328 33.915703 22.433922 33.970703 22.294922 C 34.025703 22.156922 34.107797 22.035547 34.216797 21.935547 C 34.325797 21.835547 34.464859 21.756219 34.630859 21.699219 C 34.797859 21.640219 34.993656 21.611328 35.222656 21.611328 C 35.467656 21.611328 35.677563 21.645844 35.851562 21.714844 C 36.025563 21.782844 36.16825 21.879953 36.28125 22.001953 C 36.39325 22.124953 36.475344 22.269406 36.527344 22.441406 C 36.578344 22.613406 36.605469 22.802813 36.605469 23.007812 L 39 23.007812 C 39 22.567813 38.912281 22.160922 38.738281 21.794922 C 38.564281 21.426922 38.315234 21.110703 37.990234 20.845703 C 37.666234 20.580703 37.275453 20.374609 36.814453 20.224609 C 36.353453 20.075609 35.838625 20 35.265625 20 z M 11 20.134766 L 11 29.863281 L 14.123047 29.863281 C 14.820047 29.863281 15.452531 29.770891 16.019531 29.587891 C 16.586531 29.406891 17.071609 29.139063 17.474609 28.789062 C 17.877609 28.440062 18.18825 28.012906 18.40625 27.503906 C 18.62425 26.994906 18.732422 26.414766 18.732422 25.759766 L 18.732422 24.25 C 18.732422 23.595 18.622344 23.013906 18.402344 22.503906 C 18.181344 21.992906 17.870703 21.562891 17.470703 21.212891 C 17.069703 20.863891 16.588438 20.595156 16.023438 20.410156 C 15.460437 20.226156 14.832484 20.134766 14.146484 20.134766 L 11 20.134766 z M 21 20.134766 L 21 29.863281 L 23.310547 29.863281 L 23.310547 23.482422 L 26.689453 29.863281 L 28.998047 29.863281 L 29 29.863281 L 29 20.134766 L 26.697266 20.134766 L 26.697266 26.523438 L 23.310547 20.134766 L 21 20.134766 z M 13.404297 21.771484 L 14.148438 21.771484 C 14.563437 21.771484 14.911406 21.817203 15.191406 21.908203 C 15.471406 22.001203 15.696234 22.143844 15.865234 22.339844 C 16.033234 22.535844 16.154609 22.789562 16.224609 23.101562 C 16.294609 23.413563 16.330078 23.793281 16.330078 24.238281 L 16.330078 25.761719 C 16.330078 26.202719 16.294609 26.579625 16.224609 26.890625 C 16.154609 27.203625 16.034234 27.460156 15.865234 27.660156 C 15.696234 27.860156 15.468547 28.006656 15.185547 28.097656 C 14.902547 28.188656 14.548047 28.234375 14.123047 28.234375 L 13.404297 28.234375 L 13.404297 21.771484 z M 24 36.029297 L 24 45.900391 C 20.765711 45.311695 17.89604 41.908014 16.070312 37.027344 C 18.492981 36.445229 21.174459 36.098458 24 36.029297 z M 26 36.029297 C 28.825549 36.098442 31.506634 36.445217 33.929688 37.027344 C 32.10396 41.908014 29.234289 45.311695 26 45.900391 L 26 36.029297 z M 14.068359 37.578125 C 15.176704 40.627908 16.680825 43.156865 18.466797 44.960938 C 15.083898 43.856578 12.094037 41.908211 9.7128906 39.376953 C 10.994803 38.688334 12.453038 38.080236 14.068359 37.578125 z M 35.931641 37.578125 C 37.54692 38.080139 39.005035 38.688486 40.287109 39.376953 C 37.905963 41.908211 34.916102 43.856578 31.533203 44.960938 C 33.319175 43.156865 34.823296 40.627908 35.931641 37.578125 z" font-weight="400" font-family="sans-serif" white-space="normal" overflow="visible"/>
</svg>
