<svg xmlns="http://www.w3.org/2000/svg" viewBox="0 0 169.3 17.61"><g aria-label="GNU FreeIPMI" style="line-height:1.25;-inkscape-font-specification:'Times New Roman, Bold'" stroke-width=".26" font-family="Times New Roman" font-size="25.4" font-weight="700" letter-spacing="0" word-spacing="0"><path d="M16.5.01v5.93h-.46q-.83-2.43-2.5-3.7Q11.88.98 9.91.98q-1.89 0-3.14 1.07Q5.52 3.1 5 5q-.52 1.9-.52 3.9 0 2.41.57 4.23.57 1.83 1.83 2.68 1.28.86 3.03.86.6 0 1.24-.13t1.31-.38v-3.5q0-.99-.13-1.27-.14-.3-.57-.54-.42-.23-1.03-.23h-.44v-.46h8.18v.46q-.93.06-1.3.26-.36.18-.56.63-.11.24-.11 1.15v3.5q-1.62.72-3.37 1.08-1.73.37-3.6.37-2.4 0-3.99-.64-1.57-.66-2.79-1.72-1.2-1.06-1.88-2.39Q0 11.15 0 9.03q0-3.8 2.67-6.41Q5.33 0 9.37 0q1.26 0 2.26.2.55.1 1.76.57 1.23.46 1.46.46.34 0 .64-.25.3-.26.55-.97zM25.04.4l8.3 10.43V3.6q0-1.52-.44-2.05-.6-.72-2-.7V.4h5.56v.46q-1.06.13-1.44.36-.36.2-.57.7-.2.49-.2 1.68v14h-.42l-11.37-14v10.69q0 1.45.66 1.96.67.5 1.52.5h.4v.46h-5.97v-.45q1.4-.02 1.94-.57.55-.56.55-1.9V2.42l-.36-.45q-.54-.67-.95-.88-.4-.2-1.18-.23V.4zM37.67.4h8.68v.46h-.44q-.98 0-1.35.2-.36.2-.52.56-.15.36-.15 1.8v8.24q0 2.26.34 2.99.34.73 1.13 1.21.78.49 1.97.49 1.36 0 2.32-.61.96-.62 1.44-1.7t.48-3.76V3.42q0-1.13-.24-1.6-.23-.5-.6-.68-.55-.28-1.57-.28V.4h5.82v.46h-.35q-.7 0-1.18.28-.47.29-.68.86-.16.4-.16 1.42v6.39q0 2.96-.4 4.28-.38 1.31-1.9 2.42-1.5 1.1-4.12 1.1-2.19 0-3.38-.58-1.62-.8-2.3-2.04-.66-1.24-.66-3.33V3.42q0-1.45-.16-1.8-.16-.35-.56-.57-.4-.2-1.46-.2zM68.76 1.36v6.91h.48q1.12 0 1.83-.33.7-.34 1.19-1.13.5-.8.64-2.15h.44v8.45h-.44q-.23-2.4-1.29-3.15-1.04-.77-2.37-.77h-.48v5.15q0 1.29.14 1.6.14.33.55.58.42.24 1.13.24h.56v.45h-8.8v-.45h.56q.74 0 1.18-.26.33-.18.5-.6.14-.3.14-1.56V3.27q0-1.29-.14-1.6-.14-.33-.56-.57-.4-.24-1.12-.24h-.55V.4h14.18v4.82h-.5q-.18-1.7-.9-2.52-.7-.81-2.06-1.15-.74-.19-2.75-.19zM82.97 5.62v2.63q1.16-1.8 2.02-2.38.87-.6 1.68-.6.7 0 1.1.44.42.42.42 1.2 0 .83-.4 1.29-.4.46-.97.46-.66 0-1.14-.42-.49-.43-.58-.48-.12-.07-.28-.07-.36 0-.68.27-.51.42-.77 1.2-.4 1.2-.4 2.66v2.67l.01.69q0 .7.1.9.14.34.42.5.3.15 1 .19v.44h-6.27v-.44q.76-.06 1.02-.41.27-.36.27-1.87V8.07q0-.99-.1-1.26-.12-.35-.36-.51-.23-.16-.83-.22v-.46zM98.8 11h-6.37q.12 2.3 1.23 3.65.86 1.03 2.06 1.03.75 0 1.35-.41.61-.42 1.3-1.5l.43.27q-.95 1.92-2.09 2.73-1.14.8-2.64.8-2.58 0-3.9-2-1.07-1.6-1.07-3.96 0-2.9 1.56-4.62 1.58-1.72 3.68-1.72 1.77 0 3.06 1.45 1.3 1.44 1.4 4.28zm-3.05-.83q0-2-.23-2.74-.2-.75-.67-1.13-.26-.22-.7-.22-.64 0-1.05.63-.73 1.1-.73 3.03v.43zM110.06 11h-6.36q.1 2.3 1.22 3.65.86 1.03 2.06 1.03.75 0 1.35-.41.61-.42 1.3-1.5l.43.27q-.94 1.92-2.09 2.73-1.14.8-2.64.8-2.58 0-3.9-2-1.07-1.6-1.07-3.96 0-2.9 1.56-4.62 1.58-1.72 3.69-1.72 1.76 0 3.05 1.45 1.3 1.44 1.4 4.28zm-3.05-.83q0-2-.23-2.74-.2-.75-.67-1.13-.26-.22-.69-.22-.65 0-1.05.63-.74 1.1-.74 3.03v.43zM119.94 16.76v.45h-8.79v-.45h.56q.73 0 1.18-.26.32-.18.5-.6.13-.3.13-1.56V3.27q0-1.29-.14-1.6-.13-.33-.56-.57-.4-.24-1.11-.24h-.56V.4h8.8v.46h-.57q-.73 0-1.17.26-.33.17-.51.6-.14.29-.14 1.55v11.07q0 1.29.14 1.6.15.33.56.58.42.24 1.12.24zM127.37 9.6v4.66q0 1.37.16 1.73.18.34.6.55.43.22 1.57.22v.45h-8.54v-.45q1.16 0 1.57-.22.43-.22.59-.57.17-.34.17-1.7V3.34q0-1.37-.17-1.71-.16-.36-.59-.57-.42-.21-1.57-.21V.4h7.33q3.62 0 5.2 1.29 1.57 1.29 1.57 3.22 0 1.64-1.02 2.8-1.01 1.17-2.8 1.6-1.2.29-4.07.29zm0-8.24v7.27q.41.03.62.03 1.52 0 2.33-.9.82-.9.82-2.79 0-1.87-.82-2.74-.81-.87-2.44-.87zM148.15 11.48L152.7.4h6.85v.46H159q-.74 0-1.19.26-.31.17-.5.58-.13.3-.13 1.55v11.09q0 1.29.13 1.6.14.33.56.58.42.24 1.13.24h.55v.45h-8.78v-.45h.54q.75 0 1.2-.26.3-.18.49-.6.13-.3.13-1.56V1.87l-6.45 15.34h-.3l-6.54-15.23v11.85q0 1.24.06 1.52.16.62.7 1.02.54.39 1.7.39v.45h-5.76v-.45h.17q.56 0 1.05-.18.48-.2.73-.52.24-.32.38-.9.03-.14.03-1.27V3.25q0-1.28-.14-1.59-.14-.32-.56-.56-.42-.24-1.13-.24h-.53V.4h6.87zM169.3 16.76v.45h-8.79v-.45h.56q.73 0 1.18-.26.32-.18.5-.6.13-.3.13-1.56V3.27q0-1.29-.14-1.6-.13-.33-.55-.57-.41-.24-1.12-.24h-.56V.4h8.8v.46h-.56q-.74 0-1.18.26-.32.17-.51.6-.14.29-.14 1.55v11.07q0 1.29.14 1.6.15.33.56.58.42.24 1.13.24z" style="-inkscape-font-specification:'Times New Roman, Bold'"/></g></svg>