<svg id="Layer_1" data-name="Layer 1" xmlns="http://www.w3.org/2000/svg" xmlns:xlink="http://www.w3.org/1999/xlink" width="107.235" height="75.449" viewBox="0 0 107.235 75.449"><defs><style>.cls-1{fill:url(#linear-gradient);}.cls-2{fill:url(#linear-gradient-2);}.cls-3{fill:url(#linear-gradient-3);}.cls-4{fill:url(#linear-gradient-4);}.cls-5{fill:url(#linear-gradient-5);}.cls-6{fill:url(#linear-gradient-6);}.cls-7{fill:url(#linear-gradient-7);}.cls-8{fill:url(#linear-gradient-8);}.cls-9{fill:url(#linear-gradient-9);}.cls-10{fill:url(#linear-gradient-10);}.cls-11{fill:url(#linear-gradient-11);}.cls-12{fill:url(#linear-gradient-12);}</style><linearGradient id="linear-gradient" x1="18.684" y1="4.767" x2="88.321" y2="4.767" gradientUnits="userSpaceOnUse"><stop offset="0" stop-color="#7bccbf"/><stop offset="1" stop-color="#43a3db"/></linearGradient><linearGradient id="linear-gradient-2" x1="18.684" y1="6.144" x2="88.321" y2="6.144" xlink:href="#linear-gradient"/><linearGradient id="linear-gradient-3" x1="18.684" y1="7.623" x2="88.321" y2="7.623" xlink:href="#linear-gradient"/><linearGradient id="linear-gradient-4" x1="18.684" y1="9.99" x2="88.321" y2="9.99" xlink:href="#linear-gradient"/><linearGradient id="linear-gradient-5" x1="18.684" y1="11.697" x2="88.321" y2="11.697" xlink:href="#linear-gradient"/><linearGradient id="linear-gradient-6" x1="18.684" y1="15.393" x2="88.321" y2="15.393" xlink:href="#linear-gradient"/><linearGradient id="linear-gradient-7" x1="18.684" y1="20.709" x2="88.321" y2="20.709" xlink:href="#linear-gradient"/><linearGradient id="linear-gradient-8" x1="18.684" y1="23.107" x2="88.321" y2="23.107" xlink:href="#linear-gradient"/><linearGradient id="linear-gradient-9" x1="18.684" y1="32.939" x2="88.321" y2="32.939" xlink:href="#linear-gradient"/><linearGradient id="linear-gradient-10" x1="18.684" y1="39.895" x2="88.321" y2="39.895" xlink:href="#linear-gradient"/><linearGradient id="linear-gradient-11" x1="18.684" y1="50.454" x2="88.321" y2="50.454" xlink:href="#linear-gradient"/><linearGradient id="linear-gradient-12" x1="18.684" y1="55.437" x2="88.321" y2="55.437" xlink:href="#linear-gradient"/></defs><title>graphite-logo_color-small</title><path class="cls-1" d="M84.304 2.024a.953.953 0 0 0 .27.3 2.293 2.293 0 0 0 .463.266 4.18 4.18 0 0 0 .63.215 5.937 5.937 0 0 0 .763.145l.1.012.1.01.088.002.1.007 1.48 1.557a2.28 2.28 0 0 0-.285.114 1.464 1.464 0 0 0-.23.138.893.893 0 0 0-.17.16.577.577 0 0 0-.1.18.472.472 0 0 0-.022.193.56.56 0 0 0 .058.195.874.874 0 0 0 .13.19 1.442 1.442 0 0 0 .2.185l-2.513 1.192-.1-.02-.1-.017-.1-.016-.1-.016a6.454 6.454 0 0 0-.856-.06 5.6 5.6 0 0 0-.79.054 3.99 3.99 0 0 0-.682.154 2.234 2.234 0 0 0-.528.245l-4.02-.55a.946.946 0 0 0-.253-.35 2.054 2.054 0 0 0-.46-.306 3.693 3.693 0 0 0-.63-.242 5.38 5.38 0 0 0-.776-.16l-.1-.014-.1-.01-.1-.01-.1-.008-1.14-1.632a2.95 2.95 0 0 0 .314-.112 1.99 1.99 0 0 0 .264-.134 1.24 1.24 0 0 0 .204-.154.752.752 0 0 0 .138-.173.5.5 0 0 0 .063-.18.443.443 0 0 0-.013-.177.583.583 0 0 0-.082-.174.93.93 0 0 0-.147-.166l2.512-1.013.088.017.09.015.092.014.094.012a6.292 6.292 0 0 0 .775.048 5.68 5.68 0 0 0 .725-.045 4.065 4.065 0 0 0 .626-.127 2.187 2.187 0 0 0 .484-.2z"/><path class="cls-2" d="M70.276 3.267a.652.652 0 0 0 .183.317 1.572 1.572 0 0 0 .4.286 3.2 3.2 0 0 0 .59.232 5.077 5.077 0 0 0 .75.155l.1.012.1.01.1.008.1.007 1.07 1.62a3 3 0 0 0-.323.12 2.1 2.1 0 0 0-.274.143 1.37 1.37 0 0 0-.217.167.882.882 0 0 0-.152.19.667.667 0 0 0-.04.082.585.585 0 0 0-.046.083.54.54 0 0 0-.014.083.53.53 0 0 0 0 .083.55.55 0 0 0 .014.125.64.64 0 0 0 .044.125.81.81 0 0 0 .072.122 1.064 1.064 0 0 0 .1.118l-2.88 1.24-.09-.02-.095-.017-.1-.016-.1-.015a6.093 6.093 0 0 0-.852-.062 5.93 5.93 0 0 0-.823.055 4.783 4.783 0 0 0-.74.16 3.087 3.087 0 0 0-.613.258l-3.978-.582a.715.715 0 0 0-.163-.366 1.436 1.436 0 0 0-.383-.32 2.8 2.8 0 0 0-.578-.256 4.557 4.557 0 0 0-.748-.17l-.1-.012-.1-.012-.1-.01-.1-.008-.7-1.723c.124-.036.243-.075.353-.12a2.785 2.785 0 0 0 .306-.136 1.866 1.866 0 0 0 .254-.162 1.176 1.176 0 0 0 .19-.18.722.722 0 0 0 .116-.19.5.5 0 0 0 .038-.19.49.49 0 0 0-.036-.18.663.663 0 0 0-.1-.175l2.877-1.07.084.018.087.015.086.014.092.01a5.978 5.978 0 0 0 .777.05 5.98 5.98 0 0 0 .75-.045 4.792 4.792 0 0 0 .676-.134 2.95 2.95 0 0 0 .552-.208z"/><path class="cls-3" d="M55.574 4.608a.538.538 0 0 0 .11.325 1.13 1.13 0 0 0 .334.29 2.45 2.45 0 0 0 .533.238 4.31 4.31 0 0 0 .714.16l.095.013.1.01.1.01.1.008.64 1.736c-.13.038-.253.08-.37.127a2.986 2.986 0 0 0-.326.153 2.092 2.092 0 0 0-.274.178 1.394 1.394 0 0 0-.213.2.9.9 0 0 0-.136.213.638.638 0 0 0-.054.214.59.59 0 0 0 .023.212.73.73 0 0 0 .1.2l-3.376 1.332-.092-.02-.095-.02-.1-.02-.1-.015a5.732 5.732 0 0 0-.867-.066 6.272 6.272 0 0 0-.864.06 5.692 5.692 0 0 0-.81.17 4.164 4.164 0 0 0-.7.272l-3.913-.615a.617.617 0 0 0-.058-.387.982.982 0 0 0-.3-.34 2.04 2.04 0 0 0-.52-.27 3.772 3.772 0 0 0-.718-.18l-.1-.013-.1-.012-.1-.01-.1-.01-.21-1.8c.142-.036.278-.077.407-.123a3.89 3.89 0 0 0 .365-.15 2.788 2.788 0 0 0 .318-.174 1.85 1.85 0 0 0 .253-.192 1.13 1.13 0 0 0 .18-.2.682.682 0 0 0 .092-.2.5.5 0 0 0 .013-.2.525.525 0 0 0-.06-.184l3.24-1.117.083.017.084.016.087.015.088.01a5.645 5.645 0 0 0 .782.052 6.3 6.3 0 0 0 .784-.05 5.623 5.623 0 0 0 .73-.14 3.9 3.9 0 0 0 .627-.218z"/><path class="cls-4" d="M96.777 6.736a1.584 1.584 0 0 0 .376.35 3.346 3.346 0 0 0 .578.314 5.375 5.375 0 0 0 .744.255 6.857 6.857 0 0 0 .868.17l.108.014.107.01.106.01.1.01 2.04 1.854a1.93 1.93 0 0 0-.3.138 1.2 1.2 0 0 0-.23.17.75.75 0 0 0-.15.2.576.576 0 0 0-.063.224.63.63 0 0 0 .032.24.933.933 0 0 0 .125.243 1.54 1.54 0 0 0 .21.237 2.453 2.453 0 0 0 .288.23l-2.41 1.426-.115-.023-.116-.022-.117-.02-.118-.018a6.8 6.8 0 0 0-.96-.07 5.344 5.344 0 0 0-.857.064 3.458 3.458 0 0 0-.71.187 1.8 1.8 0 0 0-.516.3l-4.58-.67a1.56 1.56 0 0 0-.37-.423 3.038 3.038 0 0 0-.585-.37 4.8 4.8 0 0 0-.758-.296 6.25 6.25 0 0 0-.894-.194l-.112-.015-.11-.012-.11-.01-.11-.01-1.65-1.953a2.4 2.4 0 0 0 .308-.134 1.58 1.58 0 0 0 .248-.16 1 1 0 0 0 .18-.182.675.675 0 0 0 .106-.2.575.575 0 0 0 .02-.09.556.556 0 0 0 .005-.088.575.575 0 0 0-.01-.088.63.63 0 0 0-.02-.088.7.7 0 0 0-.05-.128.9.9 0 0 0-.076-.126 1.176 1.176 0 0 0-.1-.123 1.543 1.543 0 0 0-.127-.12l2.488-1.21.1.02.1.018.1.016.1.016a6.582 6.582 0 0 0 .872.058 5.41 5.41 0 0 0 .788-.056 3.5 3.5 0 0 0 .668-.16 1.7 1.7 0 0 0 .472-.246z"/><path class="cls-5" d="M81.747 8.29a1.114 1.114 0 0 0 .288.37 2.4 2.4 0 0 0 .507.333 4.188 4.188 0 0 0 .694.27 5.868 5.868 0 0 0 .846.183l.117.015.118.014.116.01.113.01 1.57 1.95a2.537 2.537 0 0 0-.33.146 1.727 1.727 0 0 0-.272.176 1.143 1.143 0 0 0-.2.205.81.81 0 0 0-.123.234.687.687 0 0 0-.034.247.77.77 0 0 0 .055.25 1.084 1.084 0 0 0 .14.244 1.643 1.643 0 0 0 .216.236l-2.9 1.528-.116-.026-.117-.024-.12-.022-.12-.02a6.4 6.4 0 0 0-.967-.076 5.68 5.68 0 0 0-.9.068 4.23 4.23 0 0 0-.782.2 2.573 2.573 0 0 0-.616.316l-4.532-.712a1.14 1.14 0 0 0-.263-.448 2.147 2.147 0 0 0-.5-.393 3.65 3.65 0 0 0-.7-.31 5.256 5.256 0 0 0-.864-.207l-.106-.015-.104-.014-.106-.012-.106-.01-1.145-2.078a3.313 3.313 0 0 0 .366-.142 2.354 2.354 0 0 0 .31-.17 1.57 1.57 0 0 0 .245-.2 1.033 1.033 0 0 0 .17-.22.723.723 0 0 0 .086-.233.627.627 0 0 0 0-.23.742.742 0 0 0-.082-.222 1.065 1.065 0 0 0-.158-.21l2.85-1.254.106.022.108.02.114.02.108.018a6.22 6.22 0 0 0 .862.06 5.765 5.765 0 0 0 .812-.06 4.307 4.307 0 0 0 .71-.16 2.5 2.5 0 0 0 .555-.24z"/><path class="cls-6" d="M49.133 11.565a.7.7 0 0 0 .08.416 1.15 1.15 0 0 0 .333.375 2.31 2.31 0 0 0 .57.3 4.085 4.085 0 0 0 .79.2l.105.016.108.022.107.012.108.01.5 2.22a4.56 4.56 0 0 0-.43.163 3.627 3.627 0 0 0-.387.2 2.726 2.726 0 0 0-.33.228 1.97 1.97 0 0 0-.267.258 1.38 1.38 0 0 0-.187.28 1 1 0 0 0-.09.28.858.858 0 0 0 0 .278.925.925 0 0 0 .088.27l-4.02 1.73-.106-.03-.11-.026-.11-.025-.116-.023a5.594 5.594 0 0 0-.99-.086 6.458 6.458 0 0 0-1.006.08 6.26 6.26 0 0 0-.96.23 4.976 4.976 0 0 0-.852.364l-4.362-.8a.894.894 0 0 0 .006-.513 1.037 1.037 0 0 0-.283-.448 1.88 1.88 0 0 0-.548-.357 3.49 3.49 0 0 0-.8-.235l-.107-.026-.113-.016-.114-.014-.12-.01.068-2.322c.17-.048.336-.1.494-.16a4.842 4.842 0 0 0 .45-.2 3.68 3.68 0 0 0 .394-.227 2.61 2.61 0 0 0 .33-.25 1.706 1.706 0 0 0 .235-.263 1.082 1.082 0 0 0 .138-.26.76.76 0 0 0 .047-.25.676.676 0 0 0-.04-.238l3.8-1.414.093.024.09.022.1.02.1.016a5.507 5.507 0 0 0 .876.068 6.462 6.462 0 0 0 .894-.062 6.117 6.117 0 0 0 .847-.178 4.568 4.568 0 0 0 .738-.28z"/><path class="cls-7" d="M78.46 16.26a1.337 1.337 0 0 0 .3.484 2.542 2.542 0 0 0 .556.435 4.208 4.208 0 0 0 .776.353 5.8 5.8 0 0 0 .958.238l.13.02.127.018.13.016.128.012 1.726 2.613a2.85 2.85 0 0 0-.383.19 2.09 2.09 0 0 0-.317.233 1.523 1.523 0 0 0-.24.27 1.19 1.19 0 0 0-.153.306 1.057 1.057 0 0 0-.053.324 1.13 1.13 0 0 0 .05.327 1.435 1.435 0 0 0 .143.324 1.968 1.968 0 0 0 .234.313l-3.442 2.037-.136-.036-.138-.033-.136-.03-.143-.03a6.34 6.34 0 0 0-1.124-.1 5.767 5.767 0 0 0-1.05.095 4.526 4.526 0 0 0-.926.27 3.028 3.028 0 0 0-.737.432l-5.166-.952a1.46 1.46 0 0 0-.257-.606 2.31 2.31 0 0 0-.54-.53 3.626 3.626 0 0 0-.78-.42 5.116 5.116 0 0 0-.984-.278l-.126-.02-.125-.02-.126-.015-.125-.012-1.118-2.746a3.857 3.857 0 0 0 .44-.188 2.914 2.914 0 0 0 .38-.226 2.1 2.1 0 0 0 .3-.26 1.5 1.5 0 0 0 .218-.292 1.11 1.11 0 0 0 .12-.3.942.942 0 0 0 .02-.3 1 1 0 0 0-.07-.287 1.252 1.252 0 0 0-.157-.274l3.406-1.656.1.024.105.023.108.02.11.02a6.152 6.152 0 0 0 .98.08 5.856 5.856 0 0 0 .93-.073 4.578 4.578 0 0 0 .82-.207 2.865 2.865 0 0 0 .652-.324z"/><path class="cls-8" d="M60.256 18.368a1.073 1.073 0 0 0 .183.508 1.8 1.8 0 0 0 .45.457 3.12 3.12 0 0 0 .7.37 4.777 4.777 0 0 0 .912.25l.113.02.114.017.108.014.114.012 1.027 2.778a4.027 4.027 0 0 0-.46.205 3.178 3.178 0 0 0-.4.25 2.422 2.422 0 0 0-.332.29 1.848 1.848 0 0 0-.25.33 1.44 1.44 0 0 0-.15.358 1.237 1.237 0 0 0-.042.36 1.27 1.27 0 0 0 .063.353 1.514 1.514 0 0 0 .163.343l-4.168 2.194-.118-.034-.12-.032-.125-.028-.124-.026a5.87 5.87 0 0 0-1.124-.11 6.218 6.218 0 0 0-1.11.1 5.713 5.713 0 0 0-1.03.286 4.458 4.458 0 0 0-.89.454l-5.1-1.028a1.308 1.308 0 0 0-.1-.643 1.648 1.648 0 0 0-.4-.562 2.6 2.6 0 0 0-.68-.445 4.1 4.1 0 0 0-.93-.294l-.136-.027-.126-.02-.127-.017-.128-.014-.345-2.97a5.225 5.225 0 0 0 .5-.2 4.25 4.25 0 0 0 .45-.24 3.256 3.256 0 0 0 .386-.277 2.392 2.392 0 0 0 .31-.31 1.7 1.7 0 0 0 .217-.316 1.223 1.223 0 0 0 .11-.314 1 1 0 0 0-.066-.595l4.058-1.79.1.025.1.024.107.023.11.02a5.74 5.74 0 0 0 .976.085 6.248 6.248 0 0 0 .973-.073 5.62 5.62 0 0 0 .9-.215 4.082 4.082 0 0 0 .764-.337z"/><path class="cls-9" d="M74.126 26.882a1.776 1.776 0 0 0 .322.647 2.862 2.862 0 0 0 .616.582 4.325 4.325 0 0 0 .874.475 5.748 5.748 0 0 0 1.092.32l.144.026.144.023.143.02.144.015 1.853 3.6a3.416 3.416 0 0 0-.473.267 2.725 2.725 0 0 0-.4.323 2.2 2.2 0 0 0-.306.377 1.886 1.886 0 0 0-.2.43 1.752 1.752 0 0 0-.085.455 1.81 1.81 0 0 0 .036.46 2.1 2.1 0 0 0 .15.453 2.605 2.605 0 0 0 .26.44l-4.25 2.876-.152-.047-.155-.045-.158-.04-.16-.038a6.26 6.26 0 0 0-1.312-.143 5.924 5.924 0 0 0-1.245.127 5.07 5.07 0 0 0-1.115.372 3.9 3.9 0 0 0-.916.594l-6.085-1.354a2.14 2.14 0 0 0-.252-.84 2.733 2.733 0 0 0-.583-.732 3.73 3.73 0 0 0-.87-.58 4.978 4.978 0 0 0-1.123-.38l-.135-.04-.14-.025-.138-.022-.134-.014-1-3.822a4.61 4.61 0 0 0 .53-.258 3.75 3.75 0 0 0 .463-.31 2.947 2.947 0 0 0 .378-.35 2.306 2.306 0 0 0 .286-.4 1.824 1.824 0 0 0 .174-.415 1.537 1.537 0 0 0 .056-.41 1.49 1.49 0 0 0-.054-.4 1.65 1.65 0 0 0-.156-.375l4.2-2.272.114.03.11.036.12.026.12.025a6.082 6.082 0 0 0 2.2.014 5.025 5.025 0 0 0 .97-.273 3.5 3.5 0 0 0 .784-.428z"/><path class="cls-10" d="M29.47 32.802a1.642 1.642 0 0 0-.08.763 1.523 1.523 0 0 0 .287.69 2.12 2.12 0 0 0 .643.563 3.522 3.522 0 0 0 .985.38l.14.03.14.025.143.022.145.018-.277 4.174a7.05 7.05 0 0 0-.67.31 6.46 6.46 0 0 0-.624.378 5.685 5.685 0 0 0-.564.44 4.86 4.86 0 0 0-.488.5 3.944 3.944 0 0 0-.383.535 3.1 3.1 0 0 0-.255.54 2.51 2.51 0 0 0-.128.535 2.15 2.15 0 0 0 0 .52l-6.488 3.413q-.064-.03-.13-.056t-.138-.052q-.07-.025-.142-.047l-.147-.043a5.15 5.15 0 0 0-1.345-.17 7.086 7.086 0 0 0-1.448.153 8.528 8.528 0 0 0-1.466.448 8.712 8.712 0 0 0-1.393.718l-5.725-1.608a2.747 2.747 0 0 0 .29-1 1.732 1.732 0 0 0-.71-1.566 2.83 2.83 0 0 0-.97-.455l-.14-.036-.145-.03-.147-.027-.15-.022 1.443-4.51c.252-.09.5-.19.74-.3s.476-.23.7-.36a7.44 7.44 0 0 0 .645-.42 6.165 6.165 0 0 0 .566-.462 4.73 4.73 0 0 0 .455-.48 3.386 3.386 0 0 0 .326-.47 2.393 2.393 0 0 0 .2-.458 1.734 1.734 0 0 0 .08-.433l5.952-2.628.112.04.117.04.122.034.126.032a5.1 5.1 0 0 0 1.152.125 7 7 0 0 0 1.24-.114 7.87 7.87 0 0 0 1.23-.326 7.143 7.143 0 0 0 1.13-.51z"/><path class="cls-11" d="M68.07 41.624a2.567 2.567 0 0 0 .312.938 3.414 3.414 0 0 0 .68.85 4.554 4.554 0 0 0 1.012.695 5.708 5.708 0 0 0 1.3.47l.178.038.178.034.178.027.178.023 1.912 5.17a4.327 4.327 0 0 0-.593.39 3.842 3.842 0 0 0-.505.474 3.472 3.472 0 0 0-.4.555 3.284 3.284 0 0 0-.284.63 3.2 3.2 0 0 0-.143.682 3.247 3.247 0 0 0 .006.687 3.5 3.5 0 0 0 .148.68 3.907 3.907 0 0 0 .285.66l-5.466 4.317q-.092-.04-.186-.075t-.19-.07q-.1-.032-.193-.063t-.2-.06a6.15 6.15 0 0 0-3.16-.02 5.91 5.91 0 0 0-1.42.57 5.4 5.4 0 0 0-1.2.915l-7.3-2.05a3.585 3.585 0 0 0-.8-2.384 4.026 4.026 0 0 0-.988-.873 4.848 4.848 0 0 0-1.323-.575l-.17-.038-.168-.038-.17-.032-.172-.03-.654-5.633a5.96 5.96 0 0 0 .684-.376 5.29 5.29 0 0 0 .606-.452 4.557 4.557 0 0 0 .512-.518 3.89 3.89 0 0 0 .4-.577 3.272 3.272 0 0 0 .267-.6 2.775 2.775 0 0 0 .125-.59 2.517 2.517 0 0 0-.008-.57 2.46 2.46 0 0 0-.133-.538l5.26-3.216.14.047.142.045.145.04.15.04a5.917 5.917 0 0 0 1.34.152 6.182 6.182 0 0 0 1.314-.14 5.636 5.636 0 0 0 1.2-.4 4.43 4.43 0 0 0 .985-.625z"/><path class="cls-12" d="M41.993 45.73a2.51 2.51 0 0 0 .055 1.016 2.588 2.588 0 0 0 .46.92 3.208 3.208 0 0 0 .846.754 4.368 4.368 0 0 0 1.206.51l.158.037.16.034.16.03.163.025.45 5.7a6.56 6.56 0 0 0-.746.43 6.183 6.183 0 0 0-.68.525 5.71 5.71 0 0 0-.6.615 5.248 5.248 0 0 0-.493.7 4.71 4.71 0 0 0-.357.756 4.17 4.17 0 0 0-.2.765 3.812 3.812 0 0 0-.048.757 3.616 3.616 0 0 0 .1.735l-7 4.737q-.082-.042-.168-.08t-.173-.074q-.088-.036-.18-.068t-.184-.062a5.486 5.486 0 0 0-1.635-.24 6.858 6.858 0 0 0-1.707.222 8.074 8.074 0 0 0-1.682.644 8.52 8.52 0 0 0-1.554 1.03l-7.024-2.275a4.23 4.23 0 0 0 .215-1.426 3.1 3.1 0 0 0-.29-1.24 2.84 2.84 0 0 0-.764-.974 3.557 3.557 0 0 0-1.216-.64q-.088-.027-.177-.05t-.18-.045q-.092-.02-.185-.037t-.185-.034l1.08-6.2a8.78 8.78 0 0 0 .825-.413 8.3 8.3 0 0 0 .767-.492 7.477 7.477 0 0 0 .69-.565 6.48 6.48 0 0 0 .6-.628 5.272 5.272 0 0 0 .463-.653 4.1 4.1 0 0 0 .314-.642 3.216 3.216 0 0 0 .17-.62 2.6 2.6 0 0 0 .03-.588l6.565-3.555.13.057.14.05.143.046.15.042a5.35 5.35 0 0 0 1.342.167 6.766 6.766 0 0 0 1.407-.15 7.35 7.35 0 0 0 1.363-.43 6.694 6.694 0 0 0 1.216-.67z"/><path d="M107.202 11.52l-.01.024-.01.025a.57.57 0 0 0 .054-.265.9.9 0 0 0-.262-.555 2.606 2.606 0 0 0-.672-.508 5.267 5.267 0 0 0-.975-.41 7.16 7.16 0 0 0-1.18-.26l-.1-.012-.1-.01-.1-.01-.1-.01-1.988-1.752c.042-.02.083-.04.12-.063a1.252 1.252 0 0 0 .114-.073.957.957 0 0 0 .1-.08l.035-.035.03-.037.03-.038.024-.04.017-.03.015-.03.013-.028.01-.032v-.024l.037-.167v.024l-.01.032-.012.032-.014.03a.484.484 0 0 0 .052-.2.685.685 0 0 0-.2-.478 2.134 2.134 0 0 0-.587-.44 4.677 4.677 0 0 0-.876-.353 6.944 6.944 0 0 0-1.93-.28 5.306 5.306 0 0 0-.757.05 3.324 3.324 0 0 0-.624.147 1.6 1.6 0 0 0-.452.234l-4.048-.52a1.322 1.322 0 0 0-.336-.333 2.854 2.854 0 0 0-.527-.29 4.725 4.725 0 0 0-.68-.233 6.275 6.275 0 0 0-.8-.153l-.11-.014-.107-.01-.108-.01-.107-.008-1.39-1.404h.01q.068-.026.13-.055t.117-.062q.055-.03.1-.065l.04-.03.036-.032.034-.03.03-.034.023-.026.02-.026.018-.027.016-.027.01-.02.008-.02.008-.02.01-.026v-.06l.023-.156v.064l-.008.02-.008.022-.01.02-.01.02-.015.027-.02.028-.02.026a.5.5 0 0 0 .088-.162.448.448 0 0 0-.082-.4 1.358 1.358 0 0 0-.443-.37 3.492 3.492 0 0 0-.727-.3 5.768 5.768 0 0 0-.94-.188 6.5 6.5 0 0 0-.764-.047 5.558 5.558 0 0 0-.7.042 3.853 3.853 0 0 0-.6.12 2.036 2.036 0 0 0-.462.193l-3.622-.44a.846.846 0 0 0-.246-.274 2.032 2.032 0 0 0-.425-.244 3.766 3.766 0 0 0-.576-.194 5.484 5.484 0 0 0-.7-.128 6.256 6.256 0 0 0-.96-.04 5.09 5.09 0 0 0-.862.1 2.766 2.766 0 0 0-.674.22.934.934 0 0 0-.394.33.425.425 0 0 0-.057.163.385.385 0 0 0 .014.153L76.09.956a.385.385 0 0 1-.01-.116l-.01.153a.387.387 0 0 0 .01.117.475.475 0 0 0 .046.115.675.675 0 0 0 .08.113l-2.346.926-.09-.01-.093-.016-.1-.015-.1-.013a6.17 6.17 0 0 0-.77-.05 5.84 5.84 0 0 0-.732.045 4.49 4.49 0 0 0-.65.13c-.06.016-.1.04-.16.06l-.017.007h-.018c-.008 0-.013.007-.02.01-.06.02-.117.04-.17.062l-.05.024s-.066.022-.093.036l-.05.028-.05.03.048-.03.05-.028-3.573-.46a.6.6 0 0 0-.17-.292 1.42 1.42 0 0 0-.366-.256 2.914 2.914 0 0 0-.536-.2 4.746 4.746 0 0 0-.682-.135 6.043 6.043 0 0 0-.973-.042 5.594 5.594 0 0 0-.91.105 3.528 3.528 0 0 0-.753.235 1.418 1.418 0 0 0-.5.347.615.615 0 0 0-.1.17.43.43 0 0 0-.03.17v.155a.423.423 0 0 0 .01.086.472.472 0 0 0 .027.085c.005.014.013.027.02.04L59.482 3.55l-.085-.017-.087-.01-.092-.02-.09-.013a5.86 5.86 0 0 0-.777-.05 6.126 6.126 0 0 0-.76.046 5.264 5.264 0 0 0-.7.135 3.564 3.564 0 0 0-.6.215l-3.525-.483v-.062.06a.474.474 0 0 0-.09-.305.976.976 0 0 0-.3-.27 2.2 2.2 0 0 0-.49-.213 4.017 4.017 0 0 0-.667-.14 5.816 5.816 0 0 0-.984-.046 6.16 6.16 0 0 0-.962.11 4.487 4.487 0 0 0-.84.246 2.123 2.123 0 0 0-.61.364.965.965 0 0 0-.158.18.586.586 0 0 0-.082.18.444.444 0 0 0-.01.172v-.02l.016.16a.425.425 0 0 0 .008.048l-3.208 1.085-.07-.015-.077-.015-.078-.014-.08-.01a5.714 5.714 0 0 0-1.026-.05 6.47 6.47 0 0 0-1.024.12 5.078 5.078 0 0 0-.916.27 2.638 2.638 0 0 0-.694.4.913.913 0 0 0-.325.463.5.5 0 0 0 0 .21c0-.007-.006-.013-.007-.02l.024.165a.534.534 0 0 0 .07.2.784.784 0 0 0 .153.182 1.29 1.29 0 0 0 .23.163 2.086 2.086 0 0 0 .308.14l.066.023.07.022.07.02.075.02.06.016.057.01.064.014.066.013.037.008.037.006.04.007.04.007h.096l.06.008.06.007.062.006.06.005h.007l.13 1.653c-.145.04-.285.084-.42.134s-.263.1-.383.162a3.125 3.125 0 0 0-.337.19 2.2 2.2 0 0 0-.28.212 1.432 1.432 0 0 0-.205.227.91.91 0 0 0-.12.23.657.657 0 0 0-.038.223.614.614 0 0 0 .042.217l-.012-.034-.01-.034-.008-.034-.006-.034.02.14-3.788 1.39-.083-.02-.087-.015-.088-.02-.09-.015a5.588 5.588 0 0 0-1.15-.063 6.857 6.857 0 0 0-1.178.155 5.92 5.92 0 0 0-1.082.345 3.513 3.513 0 0 0-.855.512 1.433 1.433 0 0 0-.45.593.7.7 0 0 0 .016.516.712.712 0 0 1-.047-.127l.037.18a.72.72 0 0 0 .08.21.926.926 0 0 0 .148.194 1.33 1.33 0 0 0 .217.176 1.95 1.95 0 0 0 .284.153l.07.024.074.03.077.026.08.026.068.018.07.02.07.017.07.018.042.01.038.01.042.008.048.008h.107l.062.01.063.007.064.01h.017l-.145 2.2c-.17.05-.338.11-.5.173s-.315.134-.462.21a4.148 4.148 0 0 0-.414.245 3.146 3.146 0 0 0-.357.277 1.7 1.7 0 0 0-.495.7.89.89 0 0 0 .013.61.9.9 0 0 1-.045-.124l.04.19a.9.9 0 0 0 .09.238 1.1 1.1 0 0 0 .16.222 1.48 1.48 0 0 0 .23.2 2.062 2.062 0 0 0 .3.175l.083.052.08.034.084.033.087.03.07.02.078.026.076.02.08.02.044.01.046.01.046.01.047.01.03.004.028.005.03.004h.028l.073.012.074.01.075.01.075.007.075.007.073.013.076.005H33.834l.1-.007.1-.007.1-.01.1-.01.13-.018.128-.02.126-.02.127-.024c.146-.028.29-.06.43-.1s.28-.078.416-.124.268-.1.395-.15.25-.11.367-.17l4.42.835a.98.98 0 0 0 .025.253c-.006-.024-.02-.047-.023-.07l.03.19a1.033 1.033 0 0 0 .1.306 1.28 1.28 0 0 0 .2.284 1.757 1.757 0 0 0 .293.256 2.477 2.477 0 0 0 .386.22l.084.037.08.037.092.03.093.032.078.025.08.024.083.022.084.02.047.012.048.01.05.01.048.01.03.007.03.006.03.006.032.005.078.014.077.01.078.01.078.01h.035l.222 2.81a5.535 5.535 0 0 0-.534.22 4.7 4.7 0 0 0-.487.268 3.805 3.805 0 0 0-.428.31 2.986 2.986 0 0 0-.355.354 1.847 1.847 0 0 0-.438.888 1.322 1.322 0 0 0 0 .428v-.008l.03.2a1.344 1.344 0 0 0 .114.364 1.58 1.58 0 0 0 .22.34 2.026 2.026 0 0 0 .32.3 2.685 2.685 0 0 0 .42.26l.093.046.1.043.1.04.1.04.086.03.083.037.09.027.092.026.053.013.054.012.054.012.055.01.033.007.033.008.033.007.034.006.085.016.086.013.086.01.086.012.086.01.087.012.087.007.087.006h.658l.093-.012h.11l.112-.01.11-.012.112-.014.143-.02.142-.025.14-.027.14-.03q.244-.056.48-.13c.155-.05.308-.1.455-.164s.29-.125.426-.2.266-.145.39-.225l5.16 1.07.017.2a1.542 1.542 0 0 0 .12.477 1.86 1.86 0 0 0 .272.447 2.455 2.455 0 0 0 .42.4 3.294 3.294 0 0 0 .556.34l.1.048.106.046.108.044.113.04.095.033.1.03.1.03.1.027.053.014.054.014.057.013.057.013.03.008.037.007.036.007.036.007.092.014.09.014.092.016.09.01h.05l.818 3.658a4.955 4.955 0 0 0-.547.272 4.246 4.246 0 0 0-.512.35 3.54 3.54 0 0 0-.435.412 2.955 2.955 0 0 0-.342.468 2.47 2.47 0 0 0-.223.5 2.142 2.142 0 0 0-.1.5 2.042 2.042 0 0 0 .025.49v-.02q-.014-.085-.02-.172l.016.215q.007.087.02.173t.036.17c.013.053.028.1.045.154l-5.167 3.06-.14-.05-.142-.047-.152-.043-.15-.04a5.7 5.7 0 0 0-1.336-.155 6.463 6.463 0 0 0-1.347.14 6.565 6.565 0 0 0-1.282.414 5.834 5.834 0 0 0-1.138.66l-5.838-1.45c0-.024.006-.046.008-.07l.007-.086v-.086-.106s0-.07-.006-.105-.007-.068-.01-.1-.01-.068-.017-.1v-.028l-.042-.206v.018q.01.05.016.1t.01.1q0 .052.007.105v.063a2.014 2.014 0 0 0-.43-1.25 2.588 2.588 0 0 0-.733-.636 3.826 3.826 0 0 0-1.06-.42l-.15-.033-.15-.03L35.02 39l-.1-.013.114-3.92q.16-.063.315-.132t.3-.145q.15-.076.29-.158t.274-.17l.114-.08.11-.08.108-.082.1-.085.077-.067.075-.068.072-.07.07-.07.05-.05.048-.054.047-.054.045-.054.01-.01.008-.012.01-.01.008-.012.048-.06.045-.062.042-.06.04-.062.038-.06.035-.06.033-.06.03-.06.03-.06.027-.062.025-.06q.012-.03.022-.062t.02-.064q.01-.032.02-.064t.016-.063q.007-.032.014-.063t.012-.072l.01-.07c0-.025 0-.048.005-.072s0-.047 0-.07v-.078-.077s0-.05-.01-.076-.006-.05-.01-.075l-.04-.2q.008.037.013.075v.02a1.48 1.48 0 0 0-.13-.452 1.883 1.883 0 0 0-.667-.75 3.42 3.42 0 0 0-1.183-.478 5.4 5.4 0 0 0-1.135-.123 6.7 6.7 0 0 0-1.177.1 7.143 7.143 0 0 0-1.152.3 6.392 6.392 0 0 0-1.06.487l-4.874-1.084.015-.062s.008-.043.01-.065l.012-.082s.005-.053.006-.08v-.08-.077s0-.037-.005-.057 0-.038-.008-.057-.007-.038-.01-.056-.008-.037-.013-.055l-.053-.2c0 .018.008.037.012.055l.01.056.008.058a1.25 1.25 0 0 0-.248-.6 1.79 1.79 0 0 0-.568-.477 3.184 3.184 0 0 0-.872-.315 5.436 5.436 0 0 0-1.434-.108 7.695 7.695 0 0 0-2.982.8 5.532 5.532 0 0 0-1.218.82 3.69 3.69 0 0 0-.386.4 2.644 2.644 0 0 0-.275.407 1.9 1.9 0 0 0-.164.4 1.44 1.44 0 0 0-.053.39l-5.88 2.533-.11-.043-.117-.04-.12-.035-.127-.033a5.253 5.253 0 0 0-1.52-.116 8.167 8.167 0 0 0-1.68.283 9.157 9.157 0 0 0-1.662.633 7.427 7.427 0 0 0-1.46.945 4.264 4.264 0 0 0-.962 1.1 1.947 1.947 0 0 0-.294 1.054 1.307 1.307 0 0 0 .11.47v-.008l.092.21a1.31 1.31 0 0 0 .084.162 1.39 1.39 0 0 0 .108.152 1.518 1.518 0 0 0 .132.142 1.726 1.726 0 0 0 .156.13l.08.058.085.054.09.05.1.05.073.048.083.035.087.033.09.03.052.018.052.016.054.015.055.015.028.01.037.012h.034l.033.008.087.018.088.02.082.015-1.562 4.37c-.272.1-.54.215-.806.34s-.526.264-.78.414-.5.31-.735.48a8.06 8.06 0 0 0-.675.55 5.558 5.558 0 0 0-1.135 1.384A2.766 2.766 0 0 0 0 47.852a1.7 1.7 0 0 0 .393 1.106c-.01-.014-.022-.025-.032-.034q-.052-.067-.1-.138a1.66 1.66 0 0 1-.08-.145l.11.22a1.66 1.66 0 0 0 .08.145q.046.07.1.138t.114.13q.06.065.13.124.04.037.086.072t.093.067q.048.033.1.065t.1.062l.088.047.093.046.1.042.1.04.055.017.058.02.06.02.06.02.038.01.038.01.036.01.038.01.1.024.1.02.1.02.1.016.1.015.1.014.1.01.106.01.11.006h.594l.125-.007.128-.01.146-.012.147-.016.15-.02.147-.023.193-.033.194-.038.195-.044.2-.048q.34-.088.682-.2t.675-.257c.222-.093.442-.2.657-.305s.425-.227.63-.352l5.684 1.652a3.06 3.06 0 0 0-.21.942 2.253 2.253 0 0 0 .182 1c-.005-.013-.013-.024-.018-.037l.09.22a2.124 2.124 0 0 0 .12.244 2.168 2.168 0 0 0 .153.23 2.273 2.273 0 0 0 .184.214 2.456 2.456 0 0 0 .215.2q.05.04.1.077t.106.074q.055.035.112.07t.117.065l.1.05.1.05.105.046.11.044.062.023.063.022.062.014.065.02.04.012.04.01.042.01.04.012.1.025.105.023.113.02.054.01-1.29 6.095a9.88 9.88 0 0 0-1.764 1.05 9.5 9.5 0 0 0-.805.673 8.87 8.87 0 0 0-.728.765A6.886 6.886 0 0 0 9.9 64.6a4.3 4.3 0 0 0-.3 1.884 3.014 3.014 0 0 0 .353 1.2l-.047-.084.106.224q.053.107.116.208t.134.2q.072.1.152.188t.17.177q.054.052.112.1t.12.1q.06.048.125.093t.133.088l.11.067.116.064.118.06.124.054.07.03.073.03.074.027.074.028.046.016.046.015.047.014.045.017.12.035.12.03.122.028.124.024.124.02.125.02.127.014.128.014.133.01.135.006H13.693l.148-.006.15-.01.15-.013.173-.018.175-.028.174-.028.175-.032q.114-.022.227-.048t.228-.055q.114-.028.228-.06t.228-.07q.392-.124.78-.287t.765-.36q.376-.2.736-.43t.7-.492l7.134 2.4a4.954 4.954 0 0 0-.11 1.415 4.086 4.086 0 0 0 .358 1.384c-.04-.087-.082-.172-.115-.26l.08.224a3.872 3.872 0 0 0 .185.422 3.783 3.783 0 0 0 .236.4 3.74 3.74 0 0 0 .285.367 3.788 3.788 0 0 0 .334.334q.065.057.132.112t.138.106q.07.052.145.1t.15.1l.128.074.132.07.135.067.14.058.08.033.078.032.08.03.083.03.05.017.05.017.05.016.05.014.13.037.13.035.133.03.134.027.133.023.134.02.136.017.137.012.14.01.142.007H30.525l.156-.006.158-.01.157-.015.178-.022.18-.026.178-.03.18-.037q.116-.025.232-.053t.23-.06q.117-.033.232-.07t.23-.076a8.148 8.148 0 0 0 .83-.342 8.478 8.478 0 0 0 2.23-1.55q.087-.083.17-.168t.163-.173q.08-.087.158-.177t.152-.182q.058-.07.115-.144t.11-.147q.056-.074.108-.15t.1-.15l.073-.11.07-.113.07-.114.065-.115.013-.022.014-.023.013-.023.013-.023q.036-.066.07-.13t.065-.13q.032-.066.062-.13t.06-.13q.027-.065.054-.13t.052-.126q.025-.064.048-.127t.045-.127q.022-.065.042-.13t.04-.126q.02-.064.037-.128t.032-.128q.016-.068.03-.135t.028-.135q.013-.067.023-.134t.02-.133q.01-.074.018-.148t.013-.147q.005-.073.01-.146t0-.146q0-.09 0-.18t-.01-.176q-.005-.088-.014-.174t-.02-.172v-.033l-.006-.033-.005-.032-.006-.032 7.1-5 .088.04.09.037.09.036.09.035.073.03.076.026.077.025.08.025.047.014.048.013.048.013.048.013.123.03.123.026.123.025.12.024.124.02.124.015.124.013.125.01.13.01.128.006h.398l.138-.007.14-.01.14-.01.157-.018.158-.02.157-.026.157-.03q.1-.02.2-.043t.2-.05q.1-.025.2-.055t.2-.062a6.737 6.737 0 0 0 .67-.26 6.633 6.633 0 0 0 .634-.33 6.383 6.383 0 0 0 .588-.392 6.045 6.045 0 0 0 .534-.45l7.482 2.176.005.11a4.42 4.42 0 0 0 .184 1.058 4.633 4.633 0 0 0 .436 1 4.935 4.935 0 0 0 .676.9 5.276 5.276 0 0 0 .9.758q.075.05.154.1t.16.1q.08.047.163.09t.168.087l.14.066.142.063.145.06.148.056.083.03.084.028.084.027.086.026.052.015.052.015.052.014.052.007.133.033.133.03.133.027.133.024.132.02.132.02.132.014.132.012.136.01.134.01H64.85l.145-.006.145-.01.144-.013.163-.02.162-.022.16-.028.16-.032q.1-.022.204-.048t.2-.054q.1-.028.2-.06t.2-.068a5.853 5.853 0 0 0 .694-.305 5.618 5.618 0 0 0 .638-.387 5.347 5.347 0 0 0 .572-.463 5.076 5.076 0 0 0 .5-.533q.06-.074.116-.15t.11-.155q.053-.08.1-.16t.1-.163q.037-.064.07-.13t.068-.13q.033-.066.063-.134t.06-.136q.02-.05.04-.1t.037-.1q.018-.05.035-.1t.033-.1l.006-.02.006-.022.006-.02.006-.022q.017-.058.032-.117t.03-.116q.012-.058.024-.116t.022-.116q.01-.057.02-.114t.015-.114q.007-.057.012-.114t.008-.113V63.81l.01-.224v.099q0 .057-.008.113l-.006.05a4.35 4.35 0 0 0 .012-.816 4.394 4.394 0 0 0-.137-.79 4.534 4.534 0 0 0-.215-.585l5.43-4.487.1.038.1.036.1.035.1.032.073.024.08.023.078.02.08.023.05.013.05.008.048.012.05.01.123.028.124.025.123.024.123.02.122.017.122.016.12.012.122.01.124.008.124.005h.377l.13-.004.13-.008.13-.01.147-.017.145-.018.142-.023.14-.027q.092-.018.182-.04t.178-.044q.088-.025.175-.05t.172-.057a4.947 4.947 0 0 0 .6-.25 4.493 4.493 0 0 0 .54-.32 4.045 4.045 0 0 0 .476-.383 3.674 3.674 0 0 0 .4-.44q.047-.06.09-.124t.082-.127q.04-.066.08-.132t.072-.134q.027-.053.052-.107t.048-.11q.023-.054.044-.11t.04-.11q.014-.042.027-.083t.026-.083q.012-.04.022-.083t.02-.085v-.067l.01-.046.007-.046.008-.046.007-.046.03-.22-.006.045-.008.046-.008.047-.01.046v.068q-.01.044-.02.086t-.02.084q-.013.042-.026.083t-.027.082q-.02.056-.04.112t-.044.11q-.022.055-.047.108t-.052.107v.008a3.23 3.23 0 0 0 .285-.78 3.3 3.3 0 0 0-.05-1.622 4.11 4.11 0 0 0-.78-1.467 5.3 5.3 0 0 0-1.35-1.168 6.24 6.24 0 0 0-1.79-.738l-.178-.04-.177-.035-.176-.03-.176-.026-2.02-4.97c.062-.035.126-.07.186-.108q.13-.084.252-.175t.23-.19q.11-.1.21-.206.043-.048.084-.1t.08-.1q.04-.05.075-.1t.07-.1q.026-.04.05-.082t.047-.084q.023-.042.044-.085t.04-.087l.027-.065.025-.064q.012-.033.024-.066t.022-.067v-.052q.01-.037.02-.074t.017-.075q.01-.037.016-.074t.012-.075v-.12l.02-.213v.12q-.006.038-.013.075t-.015.075q-.008.038-.017.075t-.02.075v.052l-.022.066-.023.066-.026.065-.026.064q-.02.045-.04.088t-.044.085q-.022.042-.046.083a2.476 2.476 0 0 0 .228-.517 2.278 2.278 0 0 0 .068-1.08 2.5 2.5 0 0 0-.152-.516 2.877 2.877 0 0 0-.184-.345l4.157-2.927.087.027.087.026.084.018.09.023.063.016.066.016.065.014.067.014.045.016h.04l.04.008.04.008.1.018.1.016.1.015.1.012.1.01.1.01.1.01.1.006.1.005h.516l.106-.005.105-.007.117-.01.117-.012.116-.015.114-.017.146-.026.148-.026.14-.033.14-.036a4.352 4.352 0 0 0 .48-.167 3.67 3.67 0 0 0 .43-.212 3.048 3.048 0 0 0 .373-.254 2.512 2.512 0 0 0 .315-.296q.036-.04.07-.083t.065-.084q.03-.043.06-.087t.055-.09q.02-.036.04-.072t.035-.073q.017-.037.033-.074t.03-.074q.01-.027.018-.055l.018-.055.016-.056.014-.058v-.116l.032-.21V35.654q-.006.03-.014.058l-.016.056q-.008.028-.017.056t-.02.055q-.013.038-.028.075t-.033.074q-.017.037-.036.072t-.04.07v.006a1.826 1.826 0 0 0 .207-.522 1.846 1.846 0 0 0-.1-1.09 2.843 2.843 0 0 0-.69-.99 4.564 4.564 0 0 0-1.153-.794 6.1 6.1 0 0 0-1.507-.5l-.147-.027-.146-.026-.146-.02-.145-.017-1.89-3.42.122-.06q.11-.06.208-.125t.19-.135q.088-.07.167-.146.034-.032.067-.066t.062-.07q.03-.034.058-.07t.054-.073l.038-.056.036-.058q.017-.03.033-.06t.03-.06l.02-.044.018-.045.017-.046.015-.045V27.57c0-.02.01-.036.014-.054l.01-.053.01-.053.006-.053.022-.2-.007.053-.008.053-.01.053-.015.053V27.405l-.015.045-.017.047-.018.045-.02.045q-.014.03-.03.06t-.033.06l-.036.057a1.485 1.485 0 0 0 .17-.364 1.33 1.33 0 0 0 .06-.376 1.37 1.37 0 0 0-.046-.37 1.63 1.63 0 0 0-.145-.36 2.08 2.08 0 0 0-.146-.213l3.338-2.044.08.02.078.02.08.02.08.017.056.01.055.012.056.01.056.01.033.007.034.006.034.006.038.01.087.013.086.012.087.01.086.004.085.008.085.007.084.005h.696l.087-.005.1-.007.1-.01.1-.01.1-.012.122-.018.12-.02.118-.025.115-.026a4.008 4.008 0 0 0 .4-.118 3.216 3.216 0 0 0 .357-.15 2.5 2.5 0 0 0 .308-.182 1.9 1.9 0 0 0 .253-.21q.03-.028.057-.058t.052-.06l.048-.063.044-.065.03-.05q.016-.027.03-.053t.024-.053l.023-.055.016-.04.013-.04.01-.04.01-.04v-.061l.03-.192v.066l-.01.04-.02.037-.013.04-.015.04q-.01.026-.023.053t-.022.057l-.028.052-.03.05a1.113 1.113 0 0 0 .044-1.154 2.208 2.208 0 0 0-.615-.714 4.193 4.193 0 0 0-1.008-.573 6.063 6.063 0 0 0-1.3-.364l-.133-.02-.134-.018-.132-.015-.13-.012-1.717-2.46.07-.03q.09-.043.17-.09t.154-.1q.074-.05.138-.106l.055-.05.05-.05.045-.05q.023-.025.043-.053l.032-.042.028-.043.026-.044.023-.045.015-.033.014-.034.012-.034.01-.034v-.027l.01-.03.005-.03.005-.03v-.03l.023-.184v.03l-.005.03-.006.03-.008.03v.028l-.01.034-.014.034-.014.034-.016.033-.023.044-.027.044-.028.043a.973.973 0 0 0 .132-.266.837.837 0 0 0 .037-.28.9.9 0 0 0-.056-.277 1.2 1.2 0 0 0-.14-.268 1.685 1.685 0 0 0-.12-.14l2.782-1.51.068.014.066.014.067.013.068.014.048.01.048.007.048.01.05.007h.12l.074.01.075.01.07.027h.076l.074.006.073.005H89.12l.086-.006.085-.008.085-.008.083-.01.105-.013.1-.015.1-.018.1-.02q.17-.036.326-.084a2.99 2.99 0 0 0 .29-.106 2.25 2.25 0 0 0 .255-.126 1.64 1.64 0 0 0 .212-.144l4.65.7a1.688 1.688 0 0 0 .29.344 2.88 2.88 0 0 0 .427.323 4.337 4.337 0 0 0 .546.288 5.746 5.746 0 0 0 .647.242l.1.03.1.03.11.03.11.026.088.02.093.016.09.018.092.017.05.008.052.01.05.007.053.008h.124l.078.01.078.01.078.007.078.007.077.006.075.005H99.854l.087-.006.087-.007.084-.008.084-.01.106-.015.1-.017.1-.02.1-.02a3.344 3.344 0 0 0 .336-.094 2.5 2.5 0 0 0 .293-.118 1.782 1.782 0 0 0 .244-.143 1.238 1.238 0 0 0 .192-.166l.04-.047q.02-.024.038-.048t.033-.05l.03-.05.018-.04.017-.042.014-.042.012-.042.04-.177-.01.042q-.008.02-.015.04t-.017.042l-.02.04a.7.7 0 0 0 .083-.295.765.765 0 0 0-.036-.266 1.058 1.058 0 0 0-.126-.26 1.63 1.63 0 0 0-.208-.256c-.05-.052-.116-.1-.177-.152l2.275-1.394.05.01.05.01.052.01.05.008.05.008.05.008.048.008.05.007h.12l.075.01.075.007.075.007.074.008.073.006H105.35l.082-.005.08-.007.08-.008.078-.01.1-.012.1-.015.094-.017.09-.018a3.09 3.09 0 0 0 .312-.084 2.225 2.225 0 0 0 .268-.107 1.527 1.527 0 0 0 .22-.127 1.018 1.018 0 0 0 .17-.148l.035-.042.03-.043s.02-.03.027-.044l.023-.045.01-.024.01-.025.01-.024.006-.026.045-.175-.006.026zm-7.9 1.31l-.114-.022-.116-.022-.117-.02-.118-.018a6.8 6.8 0 0 0-.96-.07 5.343 5.343 0 0 0-.856.064 3.46 3.46 0 0 0-.708.187 1.8 1.8 0 0 0-.517.3l-4.58-.672a1.56 1.56 0 0 0-.37-.423 3.038 3.038 0 0 0-.585-.37 4.8 4.8 0 0 0-.758-.296 6.24 6.24 0 0 0-.894-.196l-.112-.015-.11-.014-.11-.01-.11-.01-1.54-1.826.03-.013q.076-.033.144-.068t.13-.075q.06-.04.113-.08l.047-.04.043-.04.04-.04.036-.04.025-.034.023-.032.02-.034.02-.034.013-.026.008-.027.01-.026.01-.025V8.67l.022-.168a.555.555 0 0 0 .005-.088.578.578 0 0 0-.01-.09.628.628 0 0 0-.02-.087.7.7 0 0 0-.05-.128.9.9 0 0 0-.076-.127 1.167 1.167 0 0 0-.1-.122l.008-.01 2.355-1.148.06.01.057.012.06.01.06.01.042.007.043.007.044.007.042.006h.106l.066.007.062.02.066.006.066.005h.868l.075-.005.074-.006.073-.007.092-.01.086-.006.088-.014.086-.015c.1-.02.2-.042.3-.068a2.76 2.76 0 0 0 .264-.087 1.96 1.96 0 0 0 .227-.1 1.333 1.333 0 0 0 .185-.12l4.08.535a1.42 1.42 0 0 0 .26.265 2.612 2.612 0 0 0 .38.248 4.125 4.125 0 0 0 .482.222 5.6 5.6 0 0 0 .57.185l.09.024.088.018.1.02.1.02.07.016.08.015.08.013.08.013.045.007.045.008.045.007.045.007h.112l.068.022.07.008h.067l.068.006h.04l1.92 1.755c-.05.023-.106.043-.15.07a1.2 1.2 0 0 0-.23.168.75.75 0 0 0-.15.2.576.576 0 0 0-.063.225v-.082l-.038.173v.08a.633.633 0 0 0 .032.242.933.933 0 0 0 .124.242 1.544 1.544 0 0 0 .21.24c.052.048.117.1.18.142zm-8.11.544a.986.986 0 0 1-.092.115.987.987 0 0 0 .094-.116zm-24.15 45.574q-.093-.04-.186-.075t-.19-.07q-.1-.032-.194-.063t-.2-.058a6.152 6.152 0 0 0-3.16-.02 5.91 5.91 0 0 0-1.42.57 5.4 5.4 0 0 0-1.2.914l-7.274-2.044v-.076s0-.06-.005-.092 0-.06-.008-.09l-.026-.22q0 .045.007.09t.005.093v.291a3.585 3.585 0 0 0-.8-2.385 4.028 4.028 0 0 0-.987-.874 4.85 4.85 0 0 0-1.322-.574l-.165-.042-.17-.038-.17-.032-.168-.03-.628-5.414q.18-.085.35-.18t.335-.2q.162-.1.314-.217t.293-.236q.06-.052.117-.105t.113-.108q.055-.055.108-.11t.1-.115l.078-.09.074-.092.07-.093q.036-.047.068-.095l.047-.07.046-.07.044-.073.042-.073.007-.015.008-.016.008-.015.015-.016.043-.083q.022-.04.04-.082t.04-.082q.017-.04.034-.082t.032-.08q.015-.04.03-.082t.026-.08q.013-.04.024-.08t.022-.083q.01-.042.02-.083t.016-.082q.008-.04.014-.08t.012-.087q.005-.043.01-.086t.005-.085v-.085-.08-.077-.078s0-.052-.007-.077l-.022-.216c0 .026 0 .052.007.077s0 .053 0 .08v.241s0 .058-.006.086v.018a2.51 2.51 0 0 0-.008-.567 2.445 2.445 0 0 0-.085-.34l5.22-3.2.08.028.08.026.073.027.082.024.062.02.063.016.067.018.064.016.04.01.04.008.04.01.04.007.1.02.1.018.102.01.1.017.1.012.1.01.1.01.1.007.1.005h.524l.11-.006.112-.01.126-.01.126-.014.125-.016.125-.02.16-.027.157-.032.156-.035.154-.04c.18-.05.357-.107.527-.173a5.2 5.2 0 0 0 .49-.218 4.652 4.652 0 0 0 .45-.26 4.058 4.058 0 0 0 .4-.3l6.18 1.416a2.5 2.5 0 0 0 .2.71 3.048 3.048 0 0 0 .41.67 3.823 3.823 0 0 0 .61.6 4.7 4.7 0 0 0 .787.5l.13.065.133.06.136.06.14.054.116.04.118.04.12.04.144.044.068.02.066.015.07.017.07.017.042.01.043.01.045.01.043.01.108.02.107.02.107.016.107.015h.111l1.847 5a4.327 4.327 0 0 0-.515.34 3.843 3.843 0 0 0-.505.474 3.473 3.473 0 0 0-.4.554 3.285 3.285 0 0 0-.284.632 3.2 3.2 0 0 0-.143.68 3.246 3.246 0 0 0 .006.656c0-.015-.006-.03-.008-.046a3.253 3.253 0 0 1-.01-.472l-.013.22a3.264 3.264 0 0 0 .008.485 3.428 3.428 0 0 0 .08.48 3.668 3.668 0 0 0 .147.476c.04.1.093.206.143.308zm-6.845 1.53l-.01.01-.008.01.006-.01.012-.013zm-1 2.113zm-.06.443v.012-.013zm.55 2.5a4.658 4.658 0 0 1-.242-.517 4.664 4.664 0 0 0 .246.52zM43.312 61.39a3.665 3.665 0 0 1-.3-.452 3.665 3.665 0 0 0 .3.453zm.61.618a3.96 3.96 0 0 1-.445-.418 3.963 3.963 0 0 0 .447.418zm-.785-4.984a4.71 4.71 0 0 0-.358.756 4.168 4.168 0 0 0-.2.764 3.81 3.81 0 0 0-.05.757 3.616 3.616 0 0 0 .1.735 3.56 3.56 0 0 0 .264.7 3.558 3.558 0 0 1-.263-.7l-.012-.048-.01-.048-.01-.05-.01-.05.036.2-6.994 4.734q-.082-.042-.168-.08t-.173-.074q-.09-.036-.18-.068t-.185-.062a5.488 5.488 0 0 0-1.635-.24 6.857 6.857 0 0 0-1.707.222 8.075 8.075 0 0 0-1.682.644 8.52 8.52 0 0 0-1.553 1.03l-6.89-2.23c.01-.038.022-.075.03-.112l.033-.135.028-.135.023-.133.024-.164s.012-.108.016-.162.008-.105.008-.158v-.157q0-.148-.014-.292t-.038-.283q-.025-.14-.062-.273t-.086-.262l-.08-.226q.048.128.085.262c.007.027.012.056.02.083a2.94 2.94 0 0 0-.2-.568 2.84 2.84 0 0 0-.765-.975 3.556 3.556 0 0 0-1.215-.64q-.088-.028-.177-.05t-.18-.045q-.092-.02-.185-.037l-.063-.01 1.04-6q.21-.093.414-.195t.4-.215q.2-.113.39-.235t.37-.254q.08-.057.157-.116t.152-.12q.074-.06.147-.12t.144-.126l.11-.1.105-.1.1-.1.1-.1.072-.077.07-.078.068-.08.067-.08.013-.016.013-.016.013-.016.018-.02.07-.09.07-.09.064-.09.062-.09.058-.088.055-.088.053-.088.05-.088.048-.09.045-.09.043-.09q.02-.044.04-.088t.04-.094q.018-.047.035-.094t.034-.093q.016-.046.03-.092t.03-.1q.014-.052.026-.1t.022-.1q.01-.05.018-.1t.017-.125q.007-.062.01-.124t.007-.123V48.843l6.55-3.557.077.032.08.03.08.03.088.028.06.02.06.017.063.018.064.018.04.01.038.01.04.01.036.008.1.02.1.02.1.017.1.016.1.012.1.012.1.01.1.008.107.006H32.286l.118-.006.118-.008.136-.012.135-.015.136-.018.135-.022.188-.034.175-.035.174-.04.173-.044q.3-.08.593-.185t.57-.232q.28-.128.542-.277t.5-.318l6.005 1.54a2.494 2.494 0 0 0 .046.7c-.007-.032-.022-.062-.028-.094l.038.218a2.485 2.485 0 0 0 .158.538 2.63 2.63 0 0 0 .28.5 2.94 2.94 0 0 0 .4.452 3.41 3.41 0 0 0 .513.39q.057.037.116.07l.12.068.126.064.128.06.108.046.11.044.114.042.116.04.065.02.067.02.07.014.068.018.042.01.042.01.04.01.043.01.106.024.106.02.107.02.108.017H45.22l.433 5.48a6.57 6.57 0 0 0-.746.43 6.184 6.184 0 0 0-.68.525 5.714 5.714 0 0 0-.6.615 5.25 5.25 0 0 0-.487.71zm-17.09 12.34v.008-.016zm1.87-2.84l.007-.006zm-.382.392l-.01.01-.007.01.01-.012.01-.01zm-.37.437l-.01.01-.005.008.006-.007.01-.01zm-.922 1.5v-.007zm-4.713-6.32q0 .08 0 .158t-.01.16q-.005.08-.015.162c0 .04-.01.078-.016.117a3.862 3.862 0 0 0 .04-.665c.004.027.006.05.006.073zm-.05.642q-.01.066-.023.133t-.028.134q-.016.067-.033.135t-.037.136l-.01.038-.012.04-.012.037-.012.038a4.64 4.64 0 0 0 .17-.725zm-2.36 3.85c.075-.065.145-.134.217-.2-.067.07-.136.14-.21.206zm2.4-4.62a3.3 3.3 0 0 0-.074-.58c.01.044.022.087.03.132q.025.14.038.283c.013.06.014.116.016.17zm-11.17-17.46a1.915 1.915 0 0 0-.017-.4c0 .016.007.03.01.047a1.9 1.9 0 0 1 .014.232c0 .037-.004.08-.007.12zm-.006.116q-.006.056-.015.113t-.022.113q-.012.057-.027.115c-.004.02-.01.04-.016.06a2.4 2.4 0 0 0 .084-.458l-.004.06zm-.1.457q-.014.047-.03.094t-.036.096q-.018.048-.038.1t-.042.1l-.01.02-.01.022-.01.02-.01.022a3.15 3.15 0 0 0 .2-.507zm-3.877-2.64zm1.574 5.362c-.077.052-.16.1-.24.154.08-.05.162-.1.24-.155zm.412-.3q-.186.143-.383.277.2-.135.383-.28zm5.666 1.207v-.005zm-.252.342v-.007zm-.216.352v-.011zm2.235-2.253l-5.556-1.566v-.01q.02-.048.037-.1t.034-.095q.017-.048.032-.095t.033-.116q.015-.06.027-.116t.02-.113q.01-.055.016-.11a2.11 2.11 0 0 0 .013-.242 1.9 1.9 0 0 0-.014-.232 1.754 1.754 0 0 0-.043-.222 1.67 1.67 0 0 0-.07-.21l-.09-.217a1.68 1.68 0 0 1 .07.21c.012.042.018.085.025.128a1.688 1.688 0 0 0-.118-.39 1.79 1.79 0 0 0-.564-.69 2.832 2.832 0 0 0-.97-.456l-.135-.026-.143-.03-.144-.027 1.375-4.324q.187-.067.372-.142t.364-.157q.18-.083.353-.172t.34-.185l.144-.085.14-.087.138-.09.134-.09.1-.073.1-.074.1-.075.095-.075.068-.057.067-.057.066-.057.064-.06.013-.01.013-.013.013-.012.014-.012.07-.067.065-.068.063-.067.06-.066.055-.066.056-.065.053-.066.05-.065.05-.067.048-.066.045-.066.042-.065.042-.07.04-.07.036-.068.034-.07q.018-.037.035-.076t.03-.075q.016-.038.03-.076t.024-.076q.014-.047.026-.093t.02-.09q.01-.045.017-.09t.01-.086v-.064l5.942-2.626.064.025.067.023.07.023.07.02.05.015.05.015.053.013.052.013.033.01.033.006.034.007.033.007.086.014.085.015.086.012.086.012.087.01.087.01.088.006.09.006h.677l.1-.006.117-.01.12-.01.118-.013.12-.015.153-.023.154-.027.154-.03.154-.032c.182-.04.362-.087.54-.14s.355-.113.527-.178.34-.136.5-.212.322-.158.475-.245l4.948 1.134a1.6 1.6 0 0 0-.038.577 1.474 1.474 0 0 0 .073.265c-.014-.04-.035-.08-.045-.12l.05.206a1.5 1.5 0 0 0 .118.316 1.65 1.65 0 0 0 .19.294 1.95 1.95 0 0 0 .264.267 2.42 2.42 0 0 0 .334.235l.092.052.1.05.1.047.1.044.088.034.09.033.093.032.1.03.053.014.055.015.055.015.056.014.034.007.04.007.035.008.034.007.09.016.088.015.09.015.09.012h.008l-.263 3.973a7.05 7.05 0 0 0-.67.31 6.46 6.46 0 0 0-.624.378 5.678 5.678 0 0 0-.564.44 4.865 4.865 0 0 0-.49.5 3.94 3.94 0 0 0-.382.535 3.1 3.1 0 0 0-.255.54 2.52 2.52 0 0 0-.127.537 2.173 2.173 0 0 0 0 .52l-6.48 3.417h-.01q-.063-.03-.13-.056t-.137-.05q-.07-.026-.143-.048t-.147-.043a5.15 5.15 0 0 0-1.344-.172 7.086 7.086 0 0 0-1.448.154 8.53 8.53 0 0 0-1.466.448 8.713 8.713 0 0 0-1.396.71zm-4.82-9.917q-.168.1-.342.186t-.346.167c.24-.11.47-.23.694-.358zm.01-.006a7.472 7.472 0 0 0 .643-.412l-.1.07-.134.09-.137.09-.14.087zm2.27-2.7v.047q0 .044-.012.09t-.016.09q-.01.044-.02.09t-.027.092v.007a1.736 1.736 0 0 0 .08-.432v.017zm-.164.636l-.034.077-.034.07-.037.068-.013.022a2.393 2.393 0 0 0 .2-.453l-.022.065-.028.075s-.018.05-.03.077zm-.12.24l-.025.043-.042.07-.042.066-.044.066-.047.066-.05.066-.052.065-.022.027a3.388 3.388 0 0 0 .325-.467zm6.51-3.42l-.034-.01.107.032-.025-.01zm-.152-.05l.1.032-.02-.006-.068-.023zm1.514.226c.2 0 .4-.01.606-.03H21.4l-.118.01-.1.006h-.352zm5.217-2.465l.03-.067c-.013.022-.02.044-.033.067zm3.568 4.025c-.03-.045-.064-.088-.088-.135-.01-.018-.013-.038-.02-.056a1.6 1.6 0 0 0 .108.19zm.257.314a1.97 1.97 0 0 1-.154-.156c-.008-.01-.013-.024-.022-.035a1.906 1.906 0 0 0 .18.19zm.416.326a2.422 2.422 0 0 1-.306-.215l-.016-.017a2.388 2.388 0 0 0 .328.232zm.473.232l-.05-.02-.1-.045-.1-.047-.1-.05-.09-.046a3.084 3.084 0 0 0 .445.21zm.68.2l.123.023-.036-.006zm.15.027l.125.015h-.005l-.095-.015zm-8.117 13.387v.188l-.006.122q0 .062-.012.124t-.018.126a2.6 2.6 0 0 0 .03-.587 2.22 2.22 0 0 0-.1-.494 2.218 2.218 0 0 1 .1.492v.023zm-.1.866q-.014.052-.03.1t-.03.093l-.033.093-.01.025a3.22 3.22 0 0 0 .17-.617l-.018.1-.022.1s-.016.07-.026.105zm-.346.836l-.05.087-.02.034a4.09 4.09 0 0 0 .31-.635l-.024.062q-.02.047-.04.094t-.04.09l-.042.09-.046.09zm-.217.352l-.062.09-.064.09-.068.09-.07.09-.014.017-.013.015-.012.016-.013.017-.067.08-.07.08-.07.077-.07.077-.1.1-.1.1-.107.1-.006.007a6.51 6.51 0 0 0 .594-.626 5.274 5.274 0 0 0 .462-.65l-.03.05-.055.087zm-5.272 8.67zm3.66-7.048q-.183.13-.374.254t-.377.227a8.314 8.314 0 0 0 .758-.488zm2.15-4.32c-.007-.015-.02-.027-.024-.043.006.017.018.03.024.046s0 .017.005.025c-.004-.006-.004-.013-.006-.02zM22.603 47c-.01-.008-.02-.012-.03-.02.01.008.024.013.034.02s.026.03.042.043l-.01-.007c-.014-.012-.022-.023-.036-.034zm.453.46c0 .006.006.013.01.018v-.007zm8.884-2.036h-.26l-.107-.006-.1-.008-.1-.01-.1-.012a5.74 5.74 0 0 0 .668.036zm.7-.036h-.03l-.135.012-.118.008-.118.006h-.289a6.46 6.46 0 0 0 .693-.023zm.7-.11l-.15.03-.176.03-.136.02-.136.02-.1.01c.243-.023.476-.064.705-.108zm.56-.147c-.063.02-.124.042-.186.06l-.174.043-.175.04h-.016c.19-.034.373-.086.555-.14zm.648-.224c-.08.032-.158.068-.24.1-.05.018-.1.03-.152.047.138-.043.27-.092.398-.144zm-.336-9.8a7.1 7.1 0 0 1-.77.154 7.09 7.09 0 0 0 .77-.154zm-2.954 10.28l-.1-.014-.1-.016-.1-.017-.1-.02-.1-.02-.04-.01-.04-.01-.038-.01-.04-.01-.062-.016-.06-.02h-.018l.143.04a4.97 4.97 0 0 0 .655.12zm-.81-.17l-.03-.008-.06-.02-.035-.01zm-.148-.047l-.024-.01-.08-.028-.015-.008zm-.142-.053l-.04-.016-.077-.03zm-8.26 6.64l-.1.09q-.07.062-.143.124t-.148.123l-.152.12-.142.104a7.466 7.466 0 0 0 .686-.56zm-1.457 1.057q-.2.113-.4.215t-.422.194a8.793 8.793 0 0 0 .823-.41zM42.2 47.14c-.01-.022-.028-.043-.037-.066-.018-.046-.025-.1-.04-.143.023.072.047.143.078.21zm.278.475c-.01-.014-.025-.026-.036-.04-.032-.046-.05-.1-.08-.143.04.06.072.124.116.183zm.387.43c-.007-.007-.017-.012-.024-.018-.043-.04-.072-.085-.112-.126.046.05.09.1.135.145zm.49.372l-.018-.013.018.014zm.557.29l-.066-.03-.13-.06-.125-.063-.122-.067-.113-.063a4.007 4.007 0 0 0 .556.283zm.81.26l.14.03-.026-.006-.106-.022zm.18.037l.118.02-.08-.014zm2.118.02a6.433 6.433 0 0 1-.9.082 6.434 6.434 0 0 0 .9-.082zm4.323-3.58q-.004.042-.01.085t-.015.08q-.008.04-.017.08t-.02.083q-.01.04-.02.082t-.025.08l-.01.028a2.778 2.778 0 0 0 .125-.585c0 .023-.002.046-.004.065zm-.384 1.122a3.263 3.263 0 0 0 .266-.6l-.015.047q-.014.04-.03.08t-.03.082q-.018.04-.036.082t-.037.082l-.04.08-.044.083-.01.015-.007.015-.008.015-.008.015-.042.073-.044.072-.045.07-.048.07-.068.095-.072.093-.074.09-.01.012a3.887 3.887 0 0 0 .405-.572zm-.4.58l-.064.074q-.05.058-.1.114t-.108.11q-.055.056-.113.11t-.116.104a4.563 4.563 0 0 0 .5-.513zm-.513.517q-.138.12-.286.23t-.315.218a5.276 5.276 0 0 0 .6-.446zm3.075-19.016zm-.285.425zm.925-.988l-5.075-1.023v-.02-.057l-.02-.2v.271a1.308 1.308 0 0 0-.1-.643 1.646 1.646 0 0 0-.4-.56 2.6 2.6 0 0 0-.68-.446 4.1 4.1 0 0 0-.93-.294l-.135-.023-.126-.02-.127-.017-.127-.014-.32-2.78q.13-.044.257-.094t.246-.105q.12-.055.233-.115t.217-.125l.088-.056.085-.057.082-.06.08-.06.057-.048.056-.05.054-.05.052-.05.037-.038.036-.038.034-.04.033-.04.006-.007.005-.008.006-.008.007-.008.034-.045.033-.044.03-.043.035-.043.026-.044.024-.044.022-.043.02-.043.018-.044.016-.044.015-.044.012-.044.01-.047.01-.046.007-.045v-.096-.096-.048l-.022-.19v.241l-.007.046v.017a1.013 1.013 0 0 0 .014-.3 1 1 0 0 0-.03-.114l4.026-1.78.05.008.06.015.058.013.06.013.046.01.046.01.047.008.047.01.03.004h.086l.074.01.075.01.074.01.075.008.074.007.075.006H53.45l.095-.007.094-.008.093-.01.093-.01.12-.015.12-.018.117-.02.117-.022c.132-.027.262-.057.388-.092s.248-.074.366-.116.23-.09.34-.138.21-.1.307-.16l4.558.792a1.027 1.027 0 0 0 .11.384 1.45 1.45 0 0 0 .264.36 2.225 2.225 0 0 0 .407.322 3.3 3.3 0 0 0 .54.27l.093.052.094.033.1.032.1.03.082.022.083.022.085.02.087.02.05.01.048.01.05.01.05.008.03.005.032.005.03.005h.032l.078.01.078.01.078.01.08.008h.02l.958 2.63a4.043 4.043 0 0 0-.4.178 3.174 3.174 0 0 0-.4.25 2.418 2.418 0 0 0-.33.29 1.85 1.85 0 0 0-.25.332 1.438 1.438 0 0 0-.15.357 1.235 1.235 0 0 0-.042.353v-.018.2a1.234 1.234 0 0 0 .017.184 1.307 1.307 0 0 0 .044.182 1.425 1.425 0 0 0 .07.178l.01.02-4.085 2.15-.118-.033-.12-.032-.125-.03-.122-.03a5.87 5.87 0 0 0-1.124-.108 6.22 6.22 0 0 0-1.11.1 5.716 5.716 0 0 0-1.03.285 4.46 4.46 0 0 0-.89.452zm-12.22-8.51h.004zm-.188.15zm.61-.424l-4.3-.79v-.028-.048-.126l-.005-.04-.032-.187.01.044v.111a.86.86 0 0 0-.034-.25 1.036 1.036 0 0 0-.284-.448 1.877 1.877 0 0 0-.55-.357 3.488 3.488 0 0 0-.8-.235l-.1-.02-.114-.017-.114-.014-.076-.008.062-2.147q.13-.038.257-.08t.25-.087q.12-.046.235-.1t.223-.105l.086-.045.084-.046.08-.048.08-.05.058-.04.057-.038.055-.04.053-.04.04-.03.036-.032.036-.03.035-.032.007-.006.007-.006.008-.006.007-.006.036-.036.035-.036.033-.036.03-.036.03-.035.027-.035.025-.035.023-.035.022-.036.02-.035.02-.036.016-.035.017-.038.014-.037.013-.037.01-.037.01-.04.006-.04v-.082-.124l-.022-.124 3.787-1.412.053.013.053.014.048.01.06.01.04.008.04.008.04.007.042.007h.104l.065.01.065.007.066.008.067.006.066.005H43.05l.086-.006.086-.006.086-.007.085-.007.11-.013.11-.014.108-.016.11-.018q.188-.033.37-.077c.12-.03.24-.062.354-.1s.226-.074.332-.116.208-.087.3-.135l3.94.633.015.15a.725.725 0 0 0 .085.273 1.03 1.03 0 0 0 .2.256 1.645 1.645 0 0 0 .3.228 2.57 2.57 0 0 0 .4.193l.077.028.08.027.08.025.085.024.07.02.072.018.073.017.075.016.042.01.054.034.043.008.04.007h.108l.068.008.068.008.07.008.068.007h.046l.46 2.053c-.142.046-.28.1-.408.154a3.63 3.63 0 0 0-.386.2 2.73 2.73 0 0 0-.33.228 1.972 1.972 0 0 0-.267.258 1.376 1.376 0 0 0-.186.28.992.992 0 0 0-.092.282.86.86 0 0 0 0 .273c0-.02-.006-.038-.008-.058l.017.184a.85.85 0 0 0 .012.085q.007.04.02.08l-3.962 1.734h-.006l-.106-.03-.11-.026-.11-.025-.116-.022a5.6 5.6 0 0 0-.99-.085 6.452 6.452 0 0 0-1.006.08 6.258 6.258 0 0 0-.96.23 4.975 4.975 0 0 0-.854.358zm-4.32-1.052v.048s0 .032-.006.048 0 .032-.008.048-.008.032-.008.05V18.5a1.21 1.21 0 0 1-.06.158 1.174 1.174 0 0 0 .06-.16.95.95 0 0 0 .04-.26s-.02.01-.02.013zm.033-5.36v.063c0-.02-.008-.04-.01-.06zm0 .116v.04l-.007.042-.01.04-.01.038-.01.037a.76.76 0 0 0 .046-.248v.01zm-.074.27l-.018.036-.02.035-.02.035-.02.035-.024.035-.007.01a1.08 1.08 0 0 0 .14-.26l-.012.04zm-.183.282l-.03.035-.034.037-.034.036-.037.035-.007.006-.007.006-.008.014h-.007l-.035.03-.036.032-.037.03-.038.03-.054.042-.055.04-.056.04-.015.01a2.6 2.6 0 0 0 .325-.254 1.7 1.7 0 0 0 .233-.26l-.017.023-.026.035zm-.49.422l-.04.027-.078.05-.082.047-.084.046-.086.045-.015.007a3.68 3.68 0 0 0 .383-.22zm4.707-2.632l.078.015h-.018l-.04-.007zm3.64-5.04a1.133 1.133 0 0 0 .177-.2l-.013.018-.02.027-.02.028-.024.028-.025.028-.03.027-.028.03h-.02l-.027.023-.025.043-.03.024-.03.023-.04.032-.044.03-.046.03h-.007a1.848 1.848 0 0 0 .253-.187zm-.256.196l-.038.022-.062.04-.066.037-.07.037-.07.035a2.776 2.776 0 0 0 .306-.17zm-.288.335l.07-.035.07-.036.065-.037.063-.04.047-.03.046-.03.045-.03.042-.033.03-.023.03-.02.028-.024.027-.024h.02l.028-.052.026-.028.025-.028.028-.026.02-.027.02-.027.02-.027.016-.026.016-.028.008-.028.013-.028.014-.026.01-.03.008-.028.007-.03.004-.028v-.064-.062l-.016-.166v.126l-.005.03-.007.028-.008.03-.01.03-.01.026-.013.028-.014.028-.015.028-.017.027v.007a.683.683 0 0 0 .093-.2.5.5 0 0 0 .014-.2c0-.012-.01-.023-.012-.034l3.2-1.106.046.01.048.01.05.01.05.008.035.006.038.006.037.01H49.184l.06.02.058.006.06.006h.959l.076-.006.075-.007.1-.01.1-.01.096-.014.094-.015c.11-.017.216-.037.32-.06s.205-.048.3-.076.192-.06.282-.092.175-.068.256-.1l3.57.5V4.8a.526.526 0 0 0 .073.238.868.868 0 0 0 .193.222 1.59 1.59 0 0 0 .3.2 2.675 2.675 0 0 0 .405.166l.07.022.073.02.076.02.077.02.065.016.062.01.067.013.07.013.04.006.037.006.04.006.034.006h.096l.06.02.063.007.062.007.062.007h.037l.59 1.587c-.113.035-.222.07-.322.114a2.994 2.994 0 0 0-.327.153 2.1 2.1 0 0 0-.273.178 1.4 1.4 0 0 0-.213.2.9.9 0 0 0-.136.213.64.64 0 0 0-.055.214.587.587 0 0 0 .022.2c0-.015-.01-.03-.012-.044a.59.59 0 0 1-.01-.088l.005.174a.592.592 0 0 0 .01.088.636.636 0 0 0 .025.087l.01.024-3.29 1.3-.09-.02-.096-.02-.1-.02-.1-.015a5.732 5.732 0 0 0-.867-.066 6.273 6.273 0 0 0-.864.06 5.69 5.69 0 0 0-.81.17 4.17 4.17 0 0 0-.7.272l-3.888-.61v-.01l-.02-.172v.174a.618.618 0 0 0-.057-.39.983.983 0 0 0-.3-.34 2.04 2.04 0 0 0-.518-.27 3.774 3.774 0 0 0-.72-.178l-.1-.014-.1-.012-.1-.01-.1-.008-.186-1.632q.106-.028.21-.06t.2-.065q.1-.036.188-.074t.176-.08zm4.088-2.413l.074.014h-.015l-.045-.014zm.09.013l.08.013h-.02l-.037-.006zm6.757.46c0-.006-.013-.012-.017-.02s0-.02-.01-.03c.01.016.017.034.028.05zm.3.284c-.04-.026-.09-.05-.125-.08a.862.862 0 0 1-.1-.12 1.127 1.127 0 0 0 .225.2zm.582.282a2.694 2.694 0 0 1-.4-.165c-.028-.014-.046-.032-.072-.047a2.448 2.448 0 0 0 .472.21zm.815.172l.08.01h-.024zm.1.01l.08.01-.06-.007zm6.122-2.41l.05.01.05.01.052.008.052.01.037.005.037.006.038.005.038.005h.093l.06.007.058.006.062.018h1.007l.07-.006.092-.01.09-.01.09-.012.087-.013c.1-.016.2-.036.3-.057s.187-.046.275-.072.17-.055.25-.086.153-.064.22-.1l3.58.466a.59.59 0 0 0 .116.242 1.142 1.142 0 0 0 .243.227 2.134 2.134 0 0 0 .36.2 3.462 3.462 0 0 0 .464.168l.075.022.076.02.078.022.08.018.066.014.067.013.068.01.07.014.04.006.038.006.04.006.04.005h.096l.06.007.06.006.062.006h.1l.982 1.492c-.08.027-.158.054-.23.085a2.092 2.092 0 0 0-.273.144 1.367 1.367 0 0 0-.216.167.883.883 0 0 0-.152.19.675.675 0 0 0-.04.082.59.59 0 0 0-.024.104.542.542 0 0 0-.014.083.53.53 0 0 0 0 .062v-.01-.032l-.008.166v.063a.55.55 0 0 0 .016.125.645.645 0 0 0 .044.124.81.81 0 0 0 .07.12l-2.773 1.195-.092-.02-.093-.017-.1-.016-.1-.015a6.1 6.1 0 0 0-.85-.062 5.937 5.937 0 0 0-.822.055 4.782 4.782 0 0 0-.74.16 3.086 3.086 0 0 0-.613.258l-3.978-.582a.715.715 0 0 0-.163-.366 1.437 1.437 0 0 0-.383-.32 2.8 2.8 0 0 0-.578-.256 4.555 4.555 0 0 0-.748-.17l-.1-.012-.1-.01-.1-.01-.1-.01-.643-1.578c.04-.013.084-.025.125-.04q.088-.028.17-.06t.16-.067q.075-.035.145-.073l.06-.033.057-.033.05-.034.053-.036.038-.028.036-.03.034-.03.04-.03.023-.022.023-.023.02-.023.02-.023.02-.027.02-.026.016-.026.014-.025.013-.026.02-.046.01-.026.01-.026.008-.026.006-.026v-.095V4.49v.01a.49.49 0 0 0-.035-.182c-.006-.014-.018-.027-.025-.042zm.093-.14l.07.01h-.013l-.05-.01h-.006zm1.04.09a6.012 6.012 0 0 0 .75-.045l-.083.01-.09.008-.076.007-.072.005H64.72zM77.67 1.997l.048.01.053.01.057.008.054.008.038.006.038.005.038.005H78.13l.058.006.06.006.058.005H79.222l.067-.005.067-.006.087-.01.085-.01.088.01.082-.012q.144-.024.277-.055t.252-.07c.078-.026.153-.053.222-.083a1.746 1.746 0 0 0 .188-.1l3.647.45a.844.844 0 0 0 .182.226 1.7 1.7 0 0 0 .3.21 2.97 2.97 0 0 0 .4.19 4.422 4.422 0 0 0 .486.155l.078.02.08.02.08.017.084.017.068.012.07.012.07.012.07.01.04.007.04.006.04.004.04.005h.099l.055.024h.06l.062.005h.107l1.372 1.448c-.053.02-.11.04-.158.063a1.47 1.47 0 0 0-.23.138.893.893 0 0 0-.17.16.577.577 0 0 0-.1.18.463.463 0 0 0-.017.148.46.46 0 0 1 0-.062l-.022.163a.483.483 0 0 0 .01.172.625.625 0 0 0 .066.184.954.954 0 0 0 .127.17c.02.02.047.04.07.06l-2.382 1.128-.1-.02-.1-.017-.1-.016-.1-.016a6.457 6.457 0 0 0-.856-.06 5.61 5.61 0 0 0-.79.054 3.988 3.988 0 0 0-.682.154 2.232 2.232 0 0 0-.528.245l-4.02-.55a.945.945 0 0 0-.253-.35 2.054 2.054 0 0 0-.46-.306 3.69 3.69 0 0 0-.63-.242 5.39 5.39 0 0 0-.776-.16l-.1-.014-.1-.01-.1-.01-.1-.008L74.52 4.25l.064-.02q.078-.028.15-.06t.14-.063q.065-.033.123-.07l.05-.03.046-.033.045-.033.04-.033.03-.027.028-.028.025-.028.024-.03.016-.02.02-.02.014-.023.013-.02.012-.026.01-.025.01-.026.008-.025.006-.024v-.069l.01-.16v.024-.01a.444.444 0 0 0-.012-.178.582.582 0 0 0-.07-.173c-.012-.02-.032-.035-.046-.053zm.107-.138l.076.012h-.014l-.054-.01h-.01zm3.25-.79v.01-.01zm3.236.856a.415.415 0 0 1-.013-.07.414.414 0 0 0 .013.07zm.283.37c-.018-.014-.043-.028-.06-.042a.842.842 0 0 1-.182-.228.95.95 0 0 0 .242.265zm.1.074a2.294 2.294 0 0 0 .308.177c-.058-.028-.124-.053-.176-.083s-.083-.068-.128-.1zm.45.243a4.188 4.188 0 0 0 .557.192 4.46 4.46 0 0 1-.476-.153c-.026-.017-.048-.032-.078-.044zm1.43.35l.082.01h-.022zm.107.012l.085.002-.06-.005h-.02zm.735 5.607v.015l-.013.03-.01.025-.01.026-.017.023-.02.033-.02.034-.023.032a.675.675 0 0 0 .105-.2.56.56 0 0 0 .02-.09v.068zm-2.84.912h-.088l.107.002h-.02zm-12.923.686V10.196l-.016.028-.02.028-.018.027-.02.026-.03.036-.03.036-.033.035a1.036 1.036 0 0 0 .17-.22.722.722 0 0 0 .084-.23v.02l-.007.03-.01.032-.01.032-.012.032-.014.03-.015.033zm9.942 7.654h-.098l.114.01zm-1.45-.3a5.8 5.8 0 0 0 .957.238l.124.02h-.092l-.03-.006-.052-.01-.05-.008-.05-.01-.05-.01-.09-.017-.09-.02-.086-.02-.086-.023-.1-.028-.1-.03-.1-.032-.1-.033zm-1.68-1.43a.84.84 0 0 1-.006-.11.838.838 0 0 0 .008.11zm0 .022a.924.924 0 0 0 .035.138.925.925 0 0 1-.026-.138zm.276.542c-.01-.013-.03-.025-.04-.038s-.012-.027-.02-.04q.035.036.068.077zm-4.834-1.142a2.418 2.418 0 0 1-.26.155 3.15 3.15 0 0 1-.3.133c-.024.01-.05.016-.072.024a2.863 2.863 0 0 0 .63-.314zm4.958 20.693a3.316 3.316 0 0 1-.38-.426 2.665 2.665 0 0 1-.213-.345c-.007-.02-.007-.038-.02-.056a2.6 2.6 0 0 0 .236.4 3.312 3.312 0 0 0 .38.426zm-1.23-7.228h-.05l-.066-.01.134.016zm-.412-.056l.13.02-.04-.005-.09-.016zm-3.05-2.053a1.39 1.39 0 0 1-.035-.206 1.387 1.387 0 0 0 .036.208zm.255.544c-.01-.018-.03-.034-.042-.052s-.013-.036-.023-.054l.066.106zm.338.406v-.006zm-5.39-2.47a1.865 1.865 0 0 1-.14.18 1.857 1.857 0 0 0 .14-.18zm-.142.185a2.17 2.17 0 0 1-.165.168 2.16 2.16 0 0 0 .167-.17zm-.683.54l-.03.015a3.123 3.123 0 0 0 .342-.218 3.07 3.07 0 0 1-.31.202zm-8.1 3.45v.076l-.005.057q0 .028-.007.056t-.01.057l-.01.057-.014.056-.005.018a1.535 1.535 0 0 0 .057-.407c-.003.01-.003.02-.003.03zm12.565 15.2a5.912 5.912 0 0 0 .77-.077 5.922 5.922 0 0 1-.77.08zm0 0a6.175 6.175 0 0 1-.88-.038H71.975l-.057-.017.163.02a6.185 6.185 0 0 0 .882.04zm-2.887-.63a5.436 5.436 0 0 0 .61.265l-.072-.02-.14-.056-.137-.058-.132-.06-.13-.065zm-1.91-2.054a2.418 2.418 0 0 1-.1-.428 2.42 2.42 0 0 0 .097.433zm.148.36c-.012-.026-.034-.05-.045-.075-.023-.05-.037-.1-.056-.155.024.078.06.153.1.23zm.368.6zm-11.642-1.786a5.922 5.922 0 0 0 1.336.153h-.25l-.1-.005-.1-.007-.1-.01-.1-.01-.1-.012-.1-.014-.1-.017-.1-.018-.1-.02-.04-.008-.04-.01-.04-.008-.04-.01-.066-.016-.086-.023h-.015zm2 .118h-.04l-.126.01-.11.01-.112.005h-.268a6.222 6.222 0 0 0 .657-.026zm.654-.1l-.158.032-.16.028-.124.02-.125.015-.075.008a6.12 6.12 0 0 0 .644-.11zm-.654-9.85q-.125.07-.258.134t-.273.122a4.6 4.6 0 0 0 .532-.263zm.462-.31q-.106.084-.22.16c-.078.052-.158.1-.24.15a3.74 3.74 0 0 0 .46-.315zm.38-.358l-.05.054q-.036.04-.076.078l-.08.076-.086.074-.087.07a2.943 2.943 0 0 0 .38-.352zm.287-.4a1.822 1.822 0 0 0 .174-.414l-.01.035q-.008.028-.018.056t-.02.057l-.024.057-.025.057-.026.058-.03.057-.004.01-.006.01-.006.01-.006.01-.03.05-.024.05-.032.048-.034.048-.048.066-.05.064-.055.063-.012.01a2.317 2.317 0 0 0 .285-.4zm3.524-4.134a3.622 3.622 0 0 1-.357-.193 3.62 3.62 0 0 0 .358.194zm-.493-.284a2.73 2.73 0 0 1-.262-.208 2.723 2.723 0 0 0 .263.208zm-.365-.3a2 2 0 0 1-.267-.323 1.6 1.6 0 0 1-.1-.174 1.44 1.44 0 0 1-.063-.16 1.518 1.518 0 0 0 .16.332 1.993 1.993 0 0 0 .266.324zm1.55.85a4.6 4.6 0 0 1-.58-.208 4.6 4.6 0 0 0 .58.21l.107.028-.045-.012-.062-.017zm-16.73-6.02l-.012.046-.013.044-.017.044-.016.044-.018.044-.02.043-.008.024a1.22 1.22 0 0 0 .108-.312zm-.554-1.2c-.018-.014-.042-.024-.06-.036.018.013.044.023.062.037s.03.03.048.044c-.02-.017-.032-.033-.05-.047zm-.326-.19c-.027-.013-.047-.03-.074-.043-.01-.005-.026-.01-.038-.014l.042.014c.03.014.052.032.08.047zm.626.462c-.016-.02-.042-.035-.06-.054.02.02.045.035.06.055s.01.017.018.025c-.006-.01-.01-.02-.018-.03zm3.672-1.7a2.645 2.645 0 0 1-.272-.146 2.63 2.63 0 0 0 .273.147zm-.383-.22a1.814 1.814 0 0 1-.2-.165 1.807 1.807 0 0 0 .2.165zm-.5-.58q-.016-.04-.03-.083t-.02-.084v-.016a.932.932 0 0 0 .09.266q-.022-.04-.04-.082zm-3.545 4.616q-.105.065-.218.125t-.233.114q-.12.055-.247.105t-.258.094a5.217 5.217 0 0 0 .5-.2 4.25 4.25 0 0 0 .455-.24zm.385-.275l-.05.04-.08.062-.082.06-.085.057-.087.054a3.273 3.273 0 0 0 .385-.274zm.31-.31a1.7 1.7 0 0 0 .21-.316l-.012.022-.024.043-.027.043-.028.044-.03.044-.032.045-.034.044-.007.007-.006.008-.006.008-.005.008-.033.04-.034.04-.035.037-.037.038-.052.05-.054.05-.056.05h-.006a2.4 2.4 0 0 0 .307-.304zm3.944-8.13h-.05l.095.008h-.047zm-6.9-1.693c-.07.02-.14.04-.213.058-.12.03-.246.055-.372.077l-.108.018-.11.016a6.137 6.137 0 0 0 .805-.168zm4.746.52zm.085.257l-.002-.01zm.24.28c-.016-.012-.037-.023-.05-.036s-.013-.018-.022-.027c.024.024.05.045.073.066zm.292.21c-.012-.007-.028-.012-.04-.02s-.032-.026-.05-.038c.03.02.056.04.092.06zm7.226-3.673a.7.7 0 0 1-.035-.086l-.007-.026a.73.73 0 0 0 .094.2 1.106 1.106 0 0 0 .183.2 1.11 1.11 0 0 1-.183-.2.8.8 0 0 1-.05-.086zm8.924.93zm-.878 6.95l-.106-.027-.11-.025-.114-.023-.116-.02a6.078 6.078 0 0 0-1.94 0 5.13 5.13 0 0 0-.87.215 3.557 3.557 0 0 0-.727.343l-4.436-.753v-.06.058a.906.906 0 0 0-.132-.483 1.464 1.464 0 0 0-.4-.423 2.66 2.66 0 0 0-.63-.336 4.335 4.335 0 0 0-.84-.222l-.116-.018-.118-.016-.118-.013-.12-.01-.528-2.028.18-.06s.136-.052.2-.08.128-.056.19-.086.118-.06.174-.093l.07-.04.07-.045.066-.045.066-.047.046-.036.044-.037.043-.038.04-.038.03-.03.026-.028.026-.03.025-.03v-.023l.025-.034.024-.035.022-.034.02-.033.018-.033.016-.033.015-.032.013-.033.012-.034.01-.032.008-.033.007-.033.006-.035v-.07V11.502l-.01-.175v.095a.67.67 0 0 0-.02-.232.753.753 0 0 0-.03-.07l3.3-1.335.056.013.057.013.08.01.06.013.04.007.04.007.043.007.042.007h.104l.062.026.066.008.066.007.068.005.066.005h.84l.082-.006.08-.008.082-.008.1-.012.1-.014.1-.015.1-.017q.175-.03.34-.073t.32-.092c.1-.033.2-.07.292-.11a2.852 2.852 0 0 0 .26-.126l4.017.6a.762.762 0 0 0 .117.3 1.266 1.266 0 0 0 .255.28 2.168 2.168 0 0 0 .382.25 3.377 3.377 0 0 0 .5.21l.082.025.092.024.09.026.09.023.072.017.075.017.072.017.077.015.043.007.044.008.045.007.044.007h.107l.07.008.068.008.07.007.068.006h.038l1 1.943c-.106.038-.212.077-.308.123a2.56 2.56 0 0 0-.334.188 1.788 1.788 0 0 0-.27.22 1.245 1.245 0 0 0-.195.25.91.91 0 0 0-.106.264.784.784 0 0 0-.01.24.794.794 0 0 1-.008-.087v.18a.8.8 0 0 0 .012.162.88.88 0 0 0 .046.16 1.04 1.04 0 0 0 .077.157l.013.017zm-.2 3.21a5.634 5.634 0 0 1-.586.1 5.63 5.63 0 0 0 .587-.1zm-3.958-2.63zm-.158.132zm-5.6-5.95l-.006.036-.007.033-.01.034-.01.033-.01.033-.014.033-.004.012a.756.756 0 0 0 .064-.238zm-.063.216l-.01.02-.017.036-.018.033-.02.033-.022.033-.024.034-.025.033v.024l-.026.03-.026.03-.027.028-.052.022-.04.038-.044.038-.044.037a1.64 1.64 0 0 0 .238-.23 1.074 1.074 0 0 0 .15-.238zm-.393.475l-.042.033-.063.046-.066.045-.068.044-.066.04a2.394 2.394 0 0 0 .3-.206zm-.307.208q-.084.05-.176.094c-.06.03-.122.057-.185.084a3.4 3.4 0 0 0 .354-.177zm4.908-5.135zm-.5 2.48a5.88 5.88 0 0 0 .87.064h-.439l-.066-.022-.066-.006-.07-.008-.064-.006-.066-.008h-.104l-.042-.007-.042-.007h-.013zm.006-2.41h-.015zm-.126 2.392l-.016-.002-.04-.007-.028-.005zm-.187-.036l.086.02h-.014l-.06-.016zm7.61.554c-.01-.01-.022-.02-.03-.03s-.01-.023-.01-.034q.017.032.04.064zm-.148-.33v-.018.02zm2.846 5.534a2.6 2.6 0 0 0 .238.155 2.6 2.6 0 0 1-.237-.155zm-.346-.312a1.278 1.278 0 0 1-.107-.152c-.015-.025-.024-.05-.037-.075a1.193 1.193 0 0 0 .144.226 1.763 1.763 0 0 0 .25.242 1.76 1.76 0 0 1-.25-.242zm-.166-.272c-.005-.012-.013-.024-.018-.037a.878.878 0 0 1-.046-.16v-.03a.88.88 0 0 0 .065.227zm.15-3.673h-.027l-.07-.005-.067-.01h-.025l.095.01.106.008h-.01zm-.234-.023l-.07-.01h-.107l-.044-.006-.045-.006-.044-.007-.042-.008-.077-.016-.075-.016-.075-.017-.073-.016-.09-.038-.086-.024-.083-.028-.082-.026a4.952 4.952 0 0 0 .82.193l.105.016.1.012zm-1.494-.425c-.03-.016-.05-.035-.08-.05a3.164 3.164 0 0 0 .57.256 3.39 3.39 0 0 1-.49-.206zm-.382-.25zm.1-1.41h-.006.007zm-.142.107zm-4.617.253c-.093.04-.19.076-.293.11l-.068.02a3.36 3.36 0 0 0 .62-.257 2.88 2.88 0 0 1-.255.127zm-.612.2c-.11.028-.225.052-.342.073l-.1.017-.1.015a5.112 5.112 0 0 0 .74-.16c-.064.02-.126.04-.192.057zm-.646.12l-.1.01-.08.01-.082.006-.082.005h-.404a6.1 6.1 0 0 0 .852-.06zm-.6-2.528zm-1.334 2.453l-.03-.007-.058-.012zm-.96-.357a1.8 1.8 0 0 1-.185-.126 1.783 1.783 0 0 0 .185.126zm-3.5 3.252q-.1.04-.2.08t-.212.07a4.387 4.387 0 0 0 .413-.15zM52.08 18.12a5.74 5.74 0 0 0 .976.083h-.406l-.075-.006-.075-.007-.082-.023-.075-.01-.075-.01-.074-.01h-.088l-.028-.005-.047-.01-.046-.008h-.01zm-.116-.023h-.024l-.046-.01h-.02zm-.11-.024h-.02l-.06-.014h-.01zm2.172.057l-.09.013-.12.016-.093.01-.094.008-.095.008-.094.006h-.382a6.264 6.264 0 0 0 .968-.062zm.86-.2c-.07.022-.136.046-.207.066-.127.035-.257.066-.39.092l-.117.022-.118.02h-.023a5.62 5.62 0 0 0 .854-.206zm.807-.347q-.145.084-.308.16c-.108.05-.222.1-.34.137l-.09.028a4.082 4.082 0 0 0 .74-.33zm4.7 1.214c-.008-.014-.023-.027-.03-.04s-.003-.033-.01-.05q.02.043.043.085zm.235.32zm.468.35c-.02-.01-.043-.02-.06-.03s-.03-.026-.047-.037c.036.018.072.04.11.062zm1.4.492l.11.017h-.017l-.032-.005-.03-.005-.032-.005-.05-.01-.05-.008-.048-.02-.05-.01-.086-.02-.086-.02-.084-.022-.082-.023-.1-.03-.1-.033-.094-.033-.082-.03a4.77 4.77 0 0 0 .913.25zm-.913-.252h-.007l-.013-.007zm1.135.28h-.02l-.08-.014zm.234.027h-.02l-.078-.008h-.01zM62.826 20l-.05-.005-.04-.006zm1.91 6.544l-.04-.008-.053-.012h-.014zm-.128-.03l-.03-.006-.06-.015h-.008zm.253.056a6.052 6.052 0 0 0 1.12.107h-.296l-.085-.005-.082-.013-.086-.008-.086-.01-.086-.01-.09-.008-.086-.013-.086-.013-.034-.006-.034-.005-.034-.006-.034-.007-.055-.01-.055-.012h-.01zm2.2.013l-.1.018-.13.02-.1.014-.1.01-.1.01-.106.01-.092.004h-.349a6 6 0 0 0 1.077-.084zm-2.214-6.687a4.846 4.846 0 0 0 .543-.157 3.86 3.86 0 0 0 .436-.187c-.067.034-.136.066-.207.1s-.152.062-.23.09a4.834 4.834 0 0 1-.544.154zm1.354-.567c-.054.037-.11.075-.17.11s-.13.075-.2.11a2.926 2.926 0 0 0 .37-.22zm.308-.264l-.035.036-.06.057-.064.055-.068.054-.07.052a2.106 2.106 0 0 0 .296-.255zm.22-.293a1.107 1.107 0 0 0 .118-.3l-.005.022-.01.04-.013.042-.015.04-.017.042-.02.04-.02.04V18.77l-.02.035-.024.036-.023.037-.026.035-.036.047-.04.046-.04.046-.008.007a1.5 1.5 0 0 0 .202-.285zm3.41-2.79l-.033-.01-.058-.013zm.11.022h-.024l-.06-.013h-.005zm.11.02h-.026l-.047-.01h-.02zm.117.02a6.14 6.14 0 0 0 .978.078H71.042l-.074-.005-.074-.006-.076-.017-.075-.008-.075-.01-.075-.01h-.12l-.048-.007-.048-.008h-.01zm1.91.006l-.105.017-.112.015-.088.01-.09.01-.088.006-.09.006h-.356a5.87 5.87 0 0 0 .93-.058zm-1.514-5.273q-.084.04-.175.075t-.19.067a3.307 3.307 0 0 0 .366-.138zm.31-.17a1.573 1.573 0 0 0 .244-.2l-.03.03-.05.042-.052.04-.055.042-.058.04q-.07.046-.148.09t-.16.08a2.342 2.342 0 0 0 .31-.16zm-.904-7.34v-.028.027zm.514.557c-.05-.03-.11-.055-.153-.086a1.144 1.144 0 0 1-.11-.1 1.57 1.57 0 0 0 .263.186zm4.6-.364l-.01.025-.01.025-.012.025-.013.022-.014.022-.014.02-.016.02-.024.03-.026.028-.032.046a.748.748 0 0 0 .138-.172.5.5 0 0 0 .062-.18v.039l-.006.024zm-.385.42q-.06.036-.124.07t-.133.06a1.974 1.974 0 0 0 .26-.133zm-.264.134q-.07.03-.15.058t-.16.052a2.96 2.96 0 0 0 .313-.113zm-2.543.245l.092.01h-.093l-.04-.005-.038-.02-.04-.006-.038-.007-.068-.01-.068-.01-.067-.014-.066-.015-.08-.018-.077-.02-.078-.023-.075-.02h-.007a5.058 5.058 0 0 0 .746.152zm.18.02h-.02l-.06-.007zm.107.01l.1.007H72.482l-.064-.016h-.02zm1.163 1.626zm.74 2.152l-.033-.007-.063-.016zm.106.02h-.004l-.072-.017h-.022zm.116.02h-.014l-.042-.007-.036-.01zm.116.016a6.216 6.216 0 0 0 .86.06H75.09l-.066-.005-.066-.007-.063-.03-.066-.007h-.104l-.043-.006-.042-.006-.024-.018zm7.252.475c-.01-.01-.026-.02-.036-.03s-.012-.02-.024-.03l.06.06zm4.85.542h-.005q-.068.036-.144.068t-.162.065a2.4 2.4 0 0 0 .31-.133zm.248-.16l-.01.008q-.052.042-.113.08c-.037.023-.077.046-.118.068a1.588 1.588 0 0 0 .24-.155zm.182-.183l-.026.03-.036.042-.04.04-.043.04-.033.026a1 1 0 0 0 .178-.18zm2.324-2.247l-.027-.005-.06-.01zm.11.02h-.018l-.056-.014h-.01zm.105.016h-.02l-.043-.008h-.026zm.11.014a6.575 6.575 0 0 0 .87.058h-.499l-.066-.005-.066-.006-.067-.026-.068-.007h-.107l-.043-.006-.042-.018h-.015zm.87.058a5.386 5.386 0 0 0 .787-.056h-.02l-.09.012-.09.01-.074.008-.072.01-.075.004h-.364zm1.412-.207c-.058.02-.113.04-.174.057-.094.026-.193.05-.3.068l-.086.015-.066.01a3.5 3.5 0 0 0 .626-.15zm.5-.253a.925.925 0 0 0 .096-.078.945.945 0 0 1-.093.082 1.332 1.332 0 0 1-.186.12 1.98 1.98 0 0 1-.227.1l-.047.015a1.7 1.7 0 0 0 .46-.238zm.24-.318a.51.51 0 0 1-.017.05.51.51 0 0 0 .017-.05zm.024-.1v-.018zm-4.262-1.347zM87.88 5.89a1.49 1.49 0 0 1-.18-.166l-.01-.01a1.444 1.444 0 0 0 .19.176zm-.232-.233a.954.954 0 0 1-.074-.1c0-.008-.005-.015-.01-.023a.873.873 0 0 0 .083.123zm-.112-.193a.617.617 0 0 1-.03-.078V5.35a.555.555 0 0 0 .03.115zm-3.112 4.02H84.4l-.07-.007h-.012zm-.12-.012h-.042l-.06-.007zm-.1-.012h-.122l-.044-.02-.045-.008-.044-.008-.045-.007-.08-.013-.077-.015-.077-.017-.075-.017-.092-.02-.09-.024-.09-.024-.086-.024a4.413 4.413 0 0 1-.537-.2c-.033-.015-.057-.033-.09-.048a4.168 4.168 0 0 0 .626.244 5.868 5.868 0 0 0 .846.182zm-1.742-.524c-.064-.035-.137-.067-.193-.1a1.838 1.838 0 0 1-.152-.12 2.41 2.41 0 0 0 .34.22zm-4.797-1.212a2.05 2.05 0 0 1-.22.12c-.08.036-.164.07-.254.1l-.062.018a2.5 2.5 0 0 0 .537-.238zm-.59.257c-.057.018-.11.037-.17.052-.1.026-.2.05-.31.068l-.093.016-.095.008H76.4a4.3 4.3 0 0 0 .675-.147zm-.676.144l-.09.012-.1.01-.076.01-.077.006-.078.006h-.39a5.8 5.8 0 0 0 .81-.044zm-1.392-4.247a1.23 1.23 0 0 0 .203-.153l-.026.025-.04.033-.045.033-.048.032zm-3.59.213a3.49 3.49 0 0 1-.422-.153c-.03-.013-.05-.03-.078-.043a3.192 3.192 0 0 0 .5.196zm-1-.557c-.007-.01-.02-.016-.027-.025s-.006-.018-.012-.027l.04.053zm-9.57.97V4.6l-.017.024-.007.026-.005.027v.01a.5.5 0 0 0 .037-.187zm-.6.718q-.07.04-.147.073c-.05.023-.1.044-.154.065a2.755 2.755 0 0 0 .303-.134zm.254-.16l-.035.025-.05.04-.053.034-.057.033-.053.03a1.874 1.874 0 0 0 .25-.164zm0 0a1.177 1.177 0 0 0 .19-.18.72.72 0 0 0 .115-.19l-.006.014-.008.02-.013.026-.016.026-.017.026-.018.026-.02.026-.02.023-.036.047-.022.023-.023.022-.034.03-.033.024-.036.03zm-.562.3q-.082.03-.17.06t-.18.055c.128-.03.242-.07.353-.114zm-8.722 7.544l-.07-.007h-.02zm-.114-.013h-.025l-.062-.01h-.107l-.044-.008-.048-.025-.043-.008-.042-.01-.075-.015-.074-.017-.072-.018-.07-.018-.085-.024-.082-.025-.08-.027-.077-.028a4.1 4.1 0 0 0 .787.2l.106.016zm-5.936-1.96c-.1.047-.2.092-.305.133s-.218.08-.332.116l-.075.02a4.572 4.572 0 0 0 .716-.27zm-1.586.458l-.1.014-.11.013-.085.008-.086.007-.085.006-.086.005H42.692a6.457 6.457 0 0 0 .89-.052zm8.165 6.66l-.03-.008-.06-.016zm10.66 6.89v-.006a1.293 1.293 0 0 1-.043-.18 1.23 1.23 0 0 1-.014-.15 1.27 1.27 0 0 0 .058.336zm-5.67 16.2l-.03-.01-.08-.024h-.013zm.15.042l-.034-.01-.063-.017-.03-.01zm-.42-.13l.127.043-.048-.016zm3.233.183c.166-.036.326-.084.484-.133-.06.018-.115.04-.174.057l-.154.04zm.718-.21c.116-.04.227-.086.338-.134-.072.03-.14.065-.213.093-.046.02-.09.03-.125.04zm.54-.224c.116-.057.226-.12.333-.183-.084.05-.166.1-.255.148-.03.017-.056.027-.08.04zm.493-.275a4.1 4.1 0 0 0 .436-.32 4.057 4.057 0 0 1-.4.3zm7.768 3.013q.076.063.155.123c-.026-.02-.06-.033-.086-.054s-.04-.047-.07-.068zm1.476.84a5.986 5.986 0 0 0 .674.2l.175.037-.043-.01-.043-.008-.043-.01-.043-.01-.07-.017-.068-.017-.07-.02-.068-.018-.122-.036-.12-.04-.118-.04zm.862.24l.153.03-.063-.012zm.178.033l.158.026h-.03l-.107-.017zm.772 9.982a3.984 3.984 0 0 1-.214-.462c-.016-.042-.025-.084-.04-.126a3.918 3.918 0 0 0 .255.588zm-.3-.753c-.018-.063-.043-.123-.057-.185-.026-.1-.038-.21-.053-.316a3.5 3.5 0 0 0 .105.5zm2.027 2.53a5.607 5.607 0 0 1-.515-.367 5.613 5.613 0 0 0 .515.368zm-.04-17.744l-.153-.048-.155-.045-.158-.04-.16-.038a6.26 6.26 0 0 0-1.313-.143 5.92 5.92 0 0 0-1.245.127 5.072 5.072 0 0 0-1.116.37 3.9 3.9 0 0 0-.915.595l-6.086-1.354a2.14 2.14 0 0 0-.252-.84 2.734 2.734 0 0 0-.583-.73 3.73 3.73 0 0 0-.872-.58 4.977 4.977 0 0 0-1.122-.382l-.137-.034-.14-.025-.138-.022-.134-.014-.95-3.635c.08-.034.157-.07.233-.1s.175-.09.258-.136.163-.1.24-.148.15-.1.22-.16l.09-.072.084-.074.08-.076.077-.078.055-.062.054-.063.05-.063.044-.073.034-.048.032-.05.03-.048.03-.05.006-.01.006-.01.005-.01.005-.01.03-.057.026-.056.025-.057.023-.057.02-.056.018-.056.016-.056.013-.056.012-.057.01-.058.006-.056.006-.056v-.074-.076l-.006-.2v.044a1.492 1.492 0 0 0-.054-.4 1.64 1.64 0 0 0-.087-.21l4.125-2.24.062.017.07.02.065.017.062.017.054.012.054.012.055.01.055.012.034.006.034.006.034.006.034.006.086.014.086.016.086.01.086.01.086.01.09.003.085.006.085.005h.627l.092-.005.1-.008.1-.01.1-.012.1-.013.132-.02.13-.023.13-.025.14-.028q.217-.05.42-.118c.135-.044.265-.094.39-.148a3.738 3.738 0 0 0 .352-.176 3.08 3.08 0 0 0 .312-.2l5.3 1a1.682 1.682 0 0 0 .21.49 2.388 2.388 0 0 0 .382.458 3.372 3.372 0 0 0 .535.41 4.5 4.5 0 0 0 .674.346l.112.044.114.043.117.04.12.038.1.03.1.028.1.026.1.025.057.012.058.013.058.012.068.012.036.006.032.008h.032l.036.006.09.015.092.013.09.012.09.01h.068l1.772 3.45a3.4 3.4 0 0 0-.375.21 2.732 2.732 0 0 0-.4.323 2.2 2.2 0 0 0-.305.377 1.888 1.888 0 0 0-.2.43 1.746 1.746 0 0 0-.08.424v-.042l-.018.208a1.774 1.774 0 0 0 0 .363 1.937 1.937 0 0 0 .077.362 2.248 2.248 0 0 0 .147.356c.037.072.085.14.13.21zm-7.127-12.083a5.018 5.018 0 0 0 .92-.26c-.074.03-.146.06-.223.085q-.2.067-.42.118l-.125.028-.13.025zm1.018-.3c.092-.038.18-.08.265-.124-.066.032-.13.067-.2.1-.02.01-.045.017-.067.027zm7.112 1.907c.044.03.09.057.135.084-.022-.014-.052-.024-.074-.038s-.038-.028-.06-.042zm.722.387l.02.01h-.007zm.022.01a5.758 5.758 0 0 0 1.09.32l.143.026-.034-.01h-.037l-.036-.006-.036-.007-.058-.012-.06-.012-.057-.013-.058-.013-.1-.025-.1-.026-.1-.03-.1-.028-.12-.038-.117-.04-.118-.05zm1.39.37l.128.017h-.01l-.09-.012zm.823 6.306c-.024-.058-.054-.116-.072-.175-.01-.04-.014-.078-.024-.117a2.092 2.092 0 0 0 .096.293zm-.128-.44c-.006-.033-.018-.067-.022-.1a1.778 1.778 0 0 1 0-.2 1.81 1.81 0 0 0 .022.3zm1.1-10.054l-.136-.037-.14-.033-.132-.026-.143-.028a6.34 6.34 0 0 0-1.124-.1 5.768 5.768 0 0 0-1.05.094 4.527 4.527 0 0 0-.926.27 3.03 3.03 0 0 0-.737.432l-5.166-.952a1.46 1.46 0 0 0-.257-.606 2.308 2.308 0 0 0-.54-.53 3.623 3.623 0 0 0-.78-.42 5.113 5.113 0 0 0-.984-.278l-.126-.02-.125-.02-.126-.015-.125-.012-1.052-2.583c.055-.02.11-.04.162-.064q.11-.046.215-.1t.2-.11q.095-.056.18-.118l.07-.053.068-.055.063-.056.06-.058.044-.045.042-.046.04-.046.036-.048.025-.035.024-.035.023-.036.02-.038V18.935l.022-.04.02-.043.016-.04.015-.042.024-.044.01-.04.01-.042.008-.04.005-.037v-.291V18.382l-.005.036-.008.04v.016a.944.944 0 0 0 .02-.295 1 1 0 0 0-.07-.288 1.236 1.236 0 0 0-.075-.13l3.318-1.616.058.014.06.013.06.013.06.012.047.01.047.008.046.008.048.008h.12l.075.01.076.01.075.007.076.006.074.006.074.005H71.804l.09-.006.09-.006.087-.01.09-.01.11-.014.112-.017.11-.02.106-.02c.124-.026.245-.055.36-.09s.228-.07.333-.112a3.134 3.134 0 0 0 .3-.134 2.437 2.437 0 0 0 .26-.155l4.596.74a1.238 1.238 0 0 0 .2.365 2.014 2.014 0 0 0 .35.344 3.14 3.14 0 0 0 .482.307 4.422 4.422 0 0 0 .6.257l.1.033.1.03.1.03.1.03.086.02.087.022.09.018.093.046.05.01.05.01.05.008.052.01.03.004h.094l.077.01.078.01.078.01.078.008h.078l1.634 2.482a2.814 2.814 0 0 0-.273.136 2.084 2.084 0 0 0-.318.232 1.52 1.52 0 0 0-.24.27 1.188 1.188 0 0 0-.153.306 1.046 1.046 0 0 0-.046.278v-.066l-.02.192a1.07 1.07 0 0 0 0 .274 1.228 1.228 0 0 0 .073.274 1.544 1.544 0 0 0 .14.27c.03.046.07.09.105.137zm-6.74-8.72a4.568 4.568 0 0 0 .78-.2c-.066.024-.13.048-.2.068-.116.034-.237.064-.36.09l-.108.02-.11.02zm7.008 1.16a4.2 4.2 0 0 0 .7.318 4.423 4.423 0 0 1-.6-.255c-.035-.015-.062-.038-.097-.058zm1.8.578l.1.013h-.038zm.125.02l.113.016h-.016l-.078-.01zm1.252 4.927a2.024 2.024 0 0 1-.2-.26l-.015-.03a1.967 1.967 0 0 0 .217.29zm-.266-.384a1.54 1.54 0 0 1-.075-.144c-.01-.02-.01-.04-.017-.06a1.428 1.428 0 0 0 .093.205zm-.122-.317c-.008-.034-.022-.067-.027-.1s0-.063 0-.095a1.114 1.114 0 0 0 .03.195zm1.67 1.552c-.124-.053-.244-.11-.357-.168.113.06.234.115.36.168zm-.06-3.3h.008zm-1.127-5.575l-.115-.026-.117-.024-.115-.024-.12-.02a6.393 6.393 0 0 0-.968-.076 5.683 5.683 0 0 0-.9.068 4.234 4.234 0 0 0-.782.2 2.572 2.572 0 0 0-.616.315L74.4 14.41a1.14 1.14 0 0 0-.263-.447 2.15 2.15 0 0 0-.5-.393 3.65 3.65 0 0 0-.7-.312 5.26 5.26 0 0 0-.864-.206l-.106-.015-.104-.013-.106-.012-.106-.01-1.067-1.933c.035-.013.07-.025.1-.038q.09-.036.176-.075t.16-.082q.078-.043.148-.09l.058-.04.055-.04.053-.042.05-.043.035-.036.033-.035.032-.037.03-.036.02-.027.018-.027.018-.028.016-.028v-.024l.034-.03.014-.03.012-.033.01-.032.01-.03.007-.032.007-.03V10.053l.007-.173V9.965a.627.627 0 0 0 0-.227.74.74 0 0 0-.083-.222c-.02-.03-.047-.06-.068-.09l2.75-1.216.065.014.066.013.067.013.068.012.042.007.042.006.042.006.044.01h.104l.066.007.065.024h.065l.066.006H75.967l.078-.006h.155l.1-.01.1-.014.096-.015.093-.016q.16-.03.31-.07t.284-.086c.09-.032.175-.066.254-.1a2.046 2.046 0 0 0 .22-.12l4.078.57a1.006 1.006 0 0 0 .194.282 1.838 1.838 0 0 0 .32.264 3.044 3.044 0 0 0 .437.235 4.412 4.412 0 0 0 .536.2l.087.025.09.024.09.023.085.007.076.02.078.016.078.015.08.014.043.006.043.007.045.007.045.007H84.176l.07.008.068.007.068.007.068.02h.08l1.47 1.83c-.07.03-.146.058-.21.093a1.733 1.733 0 0 0-.27.176 1.147 1.147 0 0 0-.2.204.812.812 0 0 0-.124.233.68.68 0 0 0-.027.2.672.672 0 0 1 0-.067l-.022.176a.7.7 0 0 0 .007.216.85.85 0 0 0 .072.215 1.18 1.18 0 0 0 .134.212c.025.03.06.06.088.093zm2.9-1.528a1.692 1.692 0 0 1-.193-.2l-.01-.018a1.64 1.64 0 0 0 .207.216zm-.25-.3a1.16 1.16 0 0 1-.077-.12c-.006-.012-.007-.024-.012-.036a1.085 1.085 0 0 0 .092.16zm-.12-.245a.848.848 0 0 1-.03-.09v-.055a.766.766 0 0 0 .035.148zm11.81-5.67l.077.057c-.013-.01-.03-.018-.043-.028s-.022-.015-.03-.025zm2.44.87l.094.01h-.023l-.07-.008zm2.744 3.836q.146.072.308.138-.157-.062-.304-.134zm-.122-.06a3.657 3.657 0 0 1-.358-.212 3.65 3.65 0 0 0 .363.216zm.18-4.37l-.026.04-.024.04-.032.038-.034.036a.655.655 0 0 0 .134-.175zm-.12.15a.955.955 0 0 1-.1.078 1.256 1.256 0 0 1-.113.073 1.09 1.09 0 0 0 .217-.148zm-.21.152q-.06.035-.13.067t-.146.06a1.81 1.81 0 0 0 .276-.124zm-2.165.32H99.67l.092.008h-.01zm-.1-.007l-.06-.006h-.024zm-.31-.034l.1.013h-.105l-.04-.013-.046-.006-.044-.007-.045-.006-.08-.013-.08-.013-.082-.02-.078-.015-.09-.018-.095-.02-.092-.024-.088-.023a6.848 6.848 0 0 0 .867.167zm-.87-.17a5.61 5.61 0 0 1-.57-.186c-.035-.014-.062-.03-.1-.045a5.36 5.36 0 0 0 .67.232zm-.84-.31c-.07-.032-.15-.063-.215-.1s-.112-.073-.17-.11a3.36 3.36 0 0 0 .386.213zm-8.515-2.97zm.09-1.914l-.03.033-.034.03-.037.032-.035.026a.81.81 0 0 0 .158-.145zm-.138.123q-.048.034-.1.065c-.035.02-.073.04-.112.058a1.38 1.38 0 0 0 .212-.123zm-.22.127q-.063.03-.13.055t-.144.05a2.23 2.23 0 0 0 .273-.105zm-1.54.284c-.16 0-.323 0-.49-.013h-.081.078c.17.012.333.016.493.014zm-.88-.05l.1.01h-.098l-.04-.004-.04-.005-.043-.02h-.04l-.07-.012-.07-.012-.07-.01-.07-.016-.082-.017-.08-.018-.08-.016-.08-.02a5.926 5.926 0 0 0 .76.14zm-5.776-1.37a1.225 1.225 0 0 0 .107-.07 1.21 1.21 0 0 1-.105.07 1.743 1.743 0 0 1-.19.1l-.226.078-.054.015a2.183 2.183 0 0 0 .468-.194zm-.513.206c-.05.015-.1.03-.153.043-.088.02-.18.04-.277.055l-.082.013-.083.012a4.063 4.063 0 0 0 .596-.123zm-.6.122l-.084.01-.084.012h-.068l-.07.005H78.82a5.68 5.68 0 0 0 .726-.03zm-1.5 0a6.292 6.292 0 0 0 .775.048h-.439l-.058-.026h-.06l-.06-.006-.06-.006h-.134l-.035-.024-.038-.005-.038-.006h-.026l.085.013zm-.285-.043h-.027l-.052-.01zm-1.65-.85a.538.538 0 0 0 .06.115c-.01-.015-.024-.03-.032-.046a.48.48 0 0 1-.023-.073zm.087.154a.908.908 0 0 0 .13.138 1.578 1.578 0 0 0 .22.15 1.57 1.57 0 0 1-.217-.15.978.978 0 0 1-.11-.11c-.007-.012-.01-.022-.02-.03zm-5.657 1.55zm-.066.056zm-.062.064zm-3.716-.036c-.07.035-.143.068-.222.1s-.163.06-.25.086L66.16 3a2.943 2.943 0 0 0 .533-.202zm-.583.214c-.055.015-.108.03-.165.043-.1.022-.194.04-.3.057l-.083.012-.09.012h-.005a4.807 4.807 0 0 0 .642-.123zm-2.172.122a5.975 5.975 0 0 0 .775.05h-.503l-.06-.004-.058-.006-.06-.007h-.091l-.037-.005-.04-.038-.038-.006-.037-.006h-.02l.078.012zm-.283-.045h-.02l-.05-.01zm-1.437-.832a.42.42 0 0 1-.01-.077.44.44 0 0 0 .04.164.47.47 0 0 1-.03-.086zm.07.166a.568.568 0 0 1-.04-.078.642.642 0 0 0 .1.16.722.722 0 0 1-.06-.082zM57.65 5.66h-.088zm-.387-.036l.092.012h-.092l-.042-.02-.04-.007-.037-.007-.037-.006-.064-.013-.068-.013-.065-.013-.064-.014-.077-.02-.075-.02-.072-.02-.07-.02a4.31 4.31 0 0 0 .713.16zM55.868 4.1zm-.184.2zM52 4.112c.056-.025.107-.05.157-.078q-.074.04-.155.077c-.08.038-.167.073-.256.1s-.184.064-.282.092l-.068.022A3.894 3.894 0 0 0 52 4.11zm-.66.226c-.06.015-.12.032-.18.045-.1.023-.212.043-.322.06l-.094.014-.095.013h-.006a5.626 5.626 0 0 0 .696-.134zm-.7.133l-.09.012-.1.01-.075.007-.075.005H49.86a6.3 6.3 0 0 0 .783-.036zm-.785.05h-.508l-.06-.007-.058-.006-.06-.007h-.091l-.037-.005-.036-.006h-.013l.088-.026a5.628 5.628 0 0 0 .78.053zm-1.123-.116l.076.016-.028-.006-.048-.01a3.282 3.282 0 0 1-.365-.1 3.284 3.284 0 0 0 .37.1zM47.61 3.76a.478.478 0 0 1-.02-.048.452.452 0 0 1-.013-.05V3.64a.49.49 0 0 0 .06.167q-.014-.025-.025-.05zM44.7 6.677c-.054.025-.11.05-.167.074s-.124.05-.19.074a3.865 3.865 0 0 0 .357-.147zm-.36.147q-.1.034-.195.064t-.21.06c.14-.036.276-.078.405-.124zm-4.222-.485a.568.568 0 0 0 .06.125c-.007-.01-.018-.018-.024-.027a.53.53 0 0 1-.036-.1zm.188.284a.776.776 0 0 1-.064-.076.923.923 0 0 0 .112.11c-.015-.016-.036-.026-.048-.034zm.23.163c-.03-.022-.05-.042-.08-.063a1.59 1.59 0 0 0 .162.1c-.025-.017-.057-.028-.08-.04zm.444.185l-.07-.022-.065-.026c-.033-.012-.057-.027-.088-.04a2.624 2.624 0 0 0 .3.11h-.01zm.6.13h-.048l-.04-.018-.038-.006-.036-.007-.04-.006-.06-.012-.064-.014-.068-.014-.06-.015-.063-.018a3.958 3.958 0 0 0 .47.1l.085.01h-.014zm.048.002l.074.01h-.014zm.12.014h-.026l.06.006zm.135.013h-.01l-.063-.006h-.006l.083.007zm.656 1.7h-.01zm.15 2.617H42.252l-.07-.023h-.064l-.066-.007-.066-.008-.068-.012h-.104l-.04-.007-.042-.006h-.01l.096-.002a5.5 5.5 0 0 0 .873.068zm-1.078-.106H41.6l-.057-.016h-.012zm-.174-.04l.08.024-.032-.008-.052-.013a3.047 3.047 0 0 1-.4-.132 3.05 3.05 0 0 0 .404.133zm-.492-.176a2 2 0 0 1-.22-.117 1.984 1.984 0 0 0 .22.117zm-4.428 3.09c-.06.03-.12.058-.184.086l-.236.1h-.008c.148-.058.29-.12.428-.187zm-.445.19c-.073.028-.148.055-.224.08s-.17.054-.26.078c.167-.046.328-.1.482-.157zm-4.6-.41c0-.006 0-.013-.008-.02a.917.917 0 0 0 .17.228l-.017-.013a.924.924 0 0 1-.145-.195zm.366.37a1.318 1.318 0 0 1-.15-.12 1.46 1.46 0 0 0 .217.157c-.022-.012-.048-.022-.068-.035zm.428.212l-.074-.03-.07-.03c-.04-.017-.072-.038-.11-.057a2.367 2.367 0 0 0 .342.146h-.01zm.658.168h-.055l-.042-.02-.043-.008-.042-.008-.04-.01-.073-.016-.07-.018-.07-.02-.066-.02-.067-.02a3.675 3.675 0 0 0 .513.127l.088.016h-.007zm.054.008h-.018l.085.012zm.082.012l.07.01h-.026zm.107.013h-.02l.082.01a5.7 5.7 0 0 0 .584.026 5.7 5.7 0 0 1-.584-.027zm-2.262 4.71c-.006-.013-.008-.026-.014-.038a1.068 1.068 0 0 0 .183.265l-.01-.008a1.094 1.094 0 0 1-.16-.222zm.392.42a1.473 1.473 0 0 1-.185-.16 1.6 1.6 0 0 0 .254.2c-.023-.013-.052-.023-.07-.04zm.457.245l-.08-.034-.078-.035c-.046-.02-.08-.047-.12-.07a2.46 2.46 0 0 0 .372.175h-.01zm1.53.272h-.235l-.076-.005-.076-.007-.074-.007-.075-.008-.074-.01-.074-.01-.073-.01h-.03l-.03-.006-.028-.005-.024-.017-.047-.01-.052-.006-.046-.01-.045-.01-.08-.02-.076-.02-.073-.023-.072-.022-.072-.025a3.72 3.72 0 0 0 .557.15 5.323 5.323 0 0 0 .984.09h-.106zm1.035-.062l-.13.017-.1.01-.1.01-.1.008-.1.007h-.086l-.088.01H33.4a6.662 6.662 0 0 0 1.024-.08zm.816-.163c-.142.036-.286.07-.43.1l-.13.024-.128.02h-.02a6.84 6.84 0 0 0 .945-.218c-.08.03-.157.055-.238.077zm.81-.274q-.19.08-.394.148l-.1.03a5.61 5.61 0 0 0 .86-.35q-.176.096-.367.176zm4.922 1.34c-.01-.018-.01-.037-.018-.055a1.12 1.12 0 0 0 .055.11c-.01-.015-.028-.032-.038-.05zm.2.285c-.02-.02-.028-.043-.045-.064.027.033.053.066.084.1-.015-.01-.032-.02-.043-.032zm.222.194c.033.026.063.053.1.078l-.027-.015c-.03-.017-.047-.04-.075-.06zm.426.27c.01.005.02.012.032.017h-.005c-.007-.006-.014-.01-.027-.016zm.383.154l-.093-.032-.09-.034-.087-.036-.077-.034a3.367 3.367 0 0 0 .4.15zm.645.156l-.027-.007-.03-.005-.03-.006-.03-.006-.05-.01-.05-.01-.047-.01-.046-.012-.084-.02-.082-.023-.08-.023-.022-.007a4.32 4.32 0 0 0 .463.115l.11.024.106.016h-.024zm.154.023h-.028l.1.013zm.187.022h-.03l-.07-.01.112.013h-.012zm-1.97 5.54a1.352 1.352 0 0 0 .11.316c-.005-.012-.015-.022-.02-.034a1.34 1.34 0 0 1-.09-.282zm.308.62a1.573 1.573 0 0 1-.115-.177 1.656 1.656 0 0 0 .173.232c-.018-.018-.042-.034-.058-.054zm.322.3c-.05-.032-.084-.076-.13-.116a2.26 2.26 0 0 0 .238.19c-.037-.024-.076-.044-.108-.068zm.61.35l-.1-.042-.092-.045c-.048-.024-.084-.054-.128-.08a3.12 3.12 0 0 0 .433.215l-.012-.004zm1.872.356h-.27l-.09-.012h-.086l-.087-.008-.086-.01-.086-.01-.086-.012-.086-.013-.085-.014-.034-.006-.034-.006-.035-.007-.032-.013-.055-.012-.054-.012-.053-.013-.052-.012-.092-.025-.09-.027-.088-.028-.086-.03-.087-.033a4.273 4.273 0 0 0 .658.193 5.575 5.575 0 0 0 1.138.115h-.04zm1.067-.08l-.143.02-.11.014-.112.012-.11.01-.113.01-.1.005h-.333a6.474 6.474 0 0 0 1.157-.1zm.9-.213c-.157.05-.317.092-.48.13l-.14.03-.14.027a6.26 6.26 0 0 0 1.04-.287c-.093.04-.183.076-.277.105zm.883-.36q-.2.106-.426.2c-.032.014-.066.024-.1.036a4.985 4.985 0 0 0 .914-.456c-.12.08-.25.16-.385.225zm5.585 1.048v.058c0-.02-.013-.04-.015-.06zm.1.425c.008.02.01.042.02.062l-.007-.012c-.01-.01-.008-.028-.014-.044zm.286.5c-.01-.012-.012-.025-.02-.037.026.034.058.067.088.1-.02-.02-.05-.038-.068-.06zm.42.4c-.025-.02-.04-.043-.066-.064.04.034.08.067.123.1-.018-.01-.04-.02-.057-.032zm.99.517l-.113-.04-.11-.045-.105-.046-.1-.047a4.19 4.19 0 0 0 .487.2zm.72.192l-.035-.007-.036-.007-.036-.007-.056-.01-.06-.01-.056-.013-.056-.014-.1-.027-.1-.03-.1-.03-.028-.014a4.988 4.988 0 0 0 .552.15l.137.026zm.127.022l-.09-.012h-.006l.126.02zm.31.046h-.04l-.09-.01-.09-.014-.034-.005.124.018.14.018h-.01zm-.48 8.234a2.955 2.955 0 0 1-.28-.3 2.95 2.95 0 0 0 .277.3zm-.727-1.058q-.028-.083-.05-.17c-.01-.044-.02-.09-.027-.135a2.14 2.14 0 0 0 .14.47 2.438 2.438 0 0 0 .273.463 2.444 2.444 0 0 1-.272-.462q-.04-.083-.068-.166zm-4.97 8.907q-.16.1-.33.2t-.352.18a5.948 5.948 0 0 0 .678-.38zm-3.328.992a5.916 5.916 0 0 1-.905-.052h-.044l-.108-.017.157.024a5.92 5.92 0 0 0 .897.044zm-1.39-.14l-.032-.007-.042-.01-.042-.01-.046-.016-.068-.018-.067-.02-.066-.02-.066-.02-.116-.04-.114-.04-.11-.042-.036-.014a4.738 4.738 0 0 0 .64.217zm-2.55-3.88v-.005zm-.105.314v.006zm-4.356-3.99V41.526l-.006.087c0 .03-.006.058-.01.088l-.014.088v.088a2.27 2.27 0 0 0 .027-.47zm-1.775 2.77c.11-.078.216-.16.32-.242-.1.083-.21.163-.32.24q-.24.17-.5.318l-.044.023a6.38 6.38 0 0 0 .54-.342zm-.74.44c-.1.05-.2.107-.3.155-.032.014-.065.025-.1.04.132-.062.264-.13.395-.197zm1.42-10.686l-.1.085-.106.08-.112.08-.1.07a4.706 4.706 0 0 0 .495-.38zm1.034-1.95v.224s0 .047-.007.07-.006.047-.01.07l-.01.066a1.573 1.573 0 0 0 .02-.484l.003.052zm-.032.43v.01q-.006.03-.014.063t-.016.063l-.02.064-.02.064-.022.06-.025.062-.026.06-.03.062v.008a1.985 1.985 0 0 0 .174-.516zm-.522 1.032a2.775 2.775 0 0 0 .344-.52l-.026.05-.033.06-.034.06-.038.06-.04.062-.044.06-.045.062-.05.06-.008.012-.004.012-.01.01-.008.012-.046.054-.047.053-.05.053-.05.052-.07.07-.072.07-.075.067a3.752 3.752 0 0 0 .41-.42zm-.913.806l-.01.006q-.132.088-.273.17t-.278.15a5.675 5.675 0 0 0 .564-.325zm-.565.333q-.148.076-.3.145t-.315.13a6.5 6.5 0 0 0 .615-.275zm-.806.336c-.184.066-.37.13-.56.18.19-.05.374-.114.56-.176zm-2.956.373H31.804l-.06-.008.13.016zm-.415-.07h-.03l-.035-.007-.035-.008-.035-.008-.057-.016-.056-.014-.055-.015-.054-.015-.1-.03-.093-.03-.09-.033-.03-.012a4 4 0 0 0 .53.162zm-.6-4.026l-.01.007-.01.007.01-.006zm-.287.206zm-.256.214h-.006l.006-.005zm-.442.474zm-.157.234zm-.13.237zm-3.326-3.33q0 .03.005.058t0 .078q0 .04 0 .08t-.006.08v.027a1.312 1.312 0 0 0 0-.33v.01zm-.005.332l-.006.043q-.004.032-.01.065t-.016.065q-.01.033-.018.066t-.022.067v.042a1.6 1.6 0 0 0 .073-.346zm-.194.578a2.385 2.385 0 0 1-.135.223 2.4 2.4 0 0 0 .136-.22zm-1.325 1.33q-.143.09-.294.177c-.153.087-.312.168-.476.244s-.333.148-.505.213c-.036.014-.074.024-.11.037a7.142 7.142 0 0 0 1.09-.494c.102-.055.2-.115.295-.177zm-2.654 1.015a7.864 7.864 0 0 0 1.17-.31c-.106.036-.212.075-.32.107-.18.053-.36.1-.542.14l-.154.034-.155.03-.155.025-.155.024-.12.015-.118.012-.072.007c.208-.02.415-.046.622-.085zm-1.244.114h-.324l-.09-.007-.09-.016-.086-.01-.086-.01-.087-.01-.086-.014-.08-.01-.085-.015-.033-.007-.033-.006-.034-.007-.032-.007-.056-.018-.052-.013h-.018l.122.03a5.1 5.1 0 0 0 1.148.12zm-1.524-.234l-.035-.012-.062-.03zm-.635-.326a1.715 1.715 0 0 1-.323-.292 1.713 1.713 0 0 0 .326.29zm-.334-.308a1.306 1.306 0 0 1-.193-.334 1.3 1.3 0 0 0 .194.333zm-6.145 5.062a4.725 4.725 0 0 0 .454-.477l-.028.034-.056.066-.058.065-.062.067-.064.066-.067.067-.07.067-.013.012-.013.01-.013.013-.012.012-.064.058-.066.058-.067.058-.062.056-.1.076-.1.075-.1.074v.004a6.18 6.18 0 0 0 .563-.46zm-1.907 1.237q-.18.084-.364.16t-.373.14c-.28.1-.564.187-.85.258.287-.072.572-.158.852-.258.245-.088.492-.19.733-.3zm-4.14.765h-.045l-.077-.01.138.01zm-1.834-.94a1.3 1.3 0 0 1-.082-.147 1.383 1.383 0 0 0 .27.393c-.03-.03-.06-.06-.086-.093a1.394 1.394 0 0 1-.103-.152zm.65.588l-.09-.05-.085-.055-.08-.057a1.725 1.725 0 0 1-.156-.13l-.027-.026a1.89 1.89 0 0 0 .448.327zm.748.273l-.034-.008-.034-.008-.034-.01-.055-.014-.052-.015-.053-.015-.05-.02-.09-.032-.087-.03-.083-.04-.08-.036-.08-.04a2.93 2.93 0 0 0 .632.24l.13.037zm.12.027l-.085-.02.122.026zm.18.032l-.09-.015-.03-.006.126.022h-.006zM5.43 43.07l.018-.007h.02-.02l-.018.005zM.882 49.38q-.05-.033-.1-.066t-.093-.068q-.045-.035-.087-.072-.068-.06-.13-.123C.45 49.025.43 49 .407 48.973a2.03 2.03 0 0 0 .49.415zm1.9.5H2.67l-.106-.016-.106-.008-.1-.01-.1-.014-.1-.015-.1-.017-.1-.02-.1-.02-.1-.023-.048-.013-.038-.01-.038-.01-.036-.01-.06-.018-.06-.02-.06-.02-.057-.02-.1-.04-.1-.043-.09-.045-.09-.047c-.03-.015-.057-.033-.085-.05a2.957 2.957 0 0 0 .7.3 4.785 4.785 0 0 0 1.35.183H2.9zm.728-.02l-.122.004-.126.007h-.305a6.806 6.806 0 0 0 .74-.04H3.66zm.783-.107l-.194.034-.15.023-.148.02-.1.01c.252-.027.508-.067.766-.12zm.585-.13l-.2.048-.2.044h-.013c.206-.043.414-.1.62-.158-.058.02-.13.045-.203.068zm.684-.2c-.057.02-.114.033-.17.05.152-.047.3-.1.455-.158-.09.028-.185.068-.28.1zm.676-.257c-.036.015-.073.027-.11.042.163-.066.322-.14.482-.214-.12.05-.24.112-.367.165zm.66-.306l-.055.025c.234-.117.463-.242.685-.376q-.303.18-.626.343zm6.49 3.664c-.03-.05-.053-.1-.077-.158a2.142 2.142 0 0 0 .244.4l-.014-.016a2.155 2.155 0 0 1-.152-.226zm.336.444c-.053-.054-.1-.112-.146-.17a2.363 2.363 0 0 0 .363.368 2.468 2.468 0 0 1-.216-.203zm.534.418q-.057-.034-.11-.07t-.107-.074l-.1-.076a2.853 2.853 0 0 0 .494.317l-.06-.03q-.056-.038-.116-.072zm.913.376l-.04-.01-.04-.013-.042-.016-.066-.02-.064-.023-.063-.02-.062-.024-.11-.043-.106-.046-.1-.05-.03-.015a3.637 3.637 0 0 0 .6.24q.078.024.16.044zm.042.01l.145.035-.04-.01zm.21.05l-.03-.008.145.03h-.008zm.135.025l.16.02a5.678 5.678 0 0 0 .94.05 5.678 5.678 0 0 1-.94-.05h-.076zm-.116 5.907l.024-.006-.023.006-.017.007zM10.02 67.81c-.013-.02-.024-.044-.037-.066a2.793 2.793 0 0 0 .206.308c-.01-.015-.024-.028-.035-.043q-.07-.098-.132-.2zm.286.387c-.027-.03-.052-.064-.078-.1a2.858 2.858 0 0 0 .266.29l-.018-.016q-.09-.08-.172-.173zm.4.378q-.06-.048-.12-.1c-.027-.024-.053-.05-.08-.073a3.063 3.063 0 0 0 .34.274l-.015-.01q-.065-.042-.126-.09zm.37.25l-.11-.068c-.037-.023-.072-.047-.107-.07a3.394 3.394 0 0 0 .394.232l-.06-.032zm1.323.47l-.124-.023-.122-.027-.12-.03-.12-.035-.046-.014-.046-.016-.046-.015-.048-.01-.075-.028-.075-.028-.072-.03-.07-.03-.125-.057-.042-.03a3.883 3.883 0 0 0 .458.194 4.587 4.587 0 0 0 .787.2zm.772.084l-.135-.007-.133-.01-.128-.012-.127-.014-.13-.02a5.56 5.56 0 0 0 .84.066h-.053zm.867-.03l-.15.013-.15.01-.148.006H13.364a6.68 6.68 0 0 0 .876-.057h-.03zm.924-.152q-.113.026-.227.048l-.175.032-.174.028-.132.018a7.827 7.827 0 0 0 .892-.17zm.686-.186q-.114.036-.228.07t-.228.06l-.03.008c.242-.06.483-.142.724-.225-.08.026-.16.06-.238.086zm.783-.288c-.07.03-.14.05-.21.076.177-.07.35-.145.524-.225-.105.05-.21.104-.315.15zm.765-.36c-.043.022-.09.04-.132.06.184-.092.364-.2.543-.3-.137.08-.272.165-.412.238zm.738-.43c-.02.013-.043.024-.063.037.26-.164.518-.34.763-.528q.237-.183.462-.38c-.15.13-.3.257-.46.38q-.342.26-.702.49zm8.247 5.09c-.01-.02-.017-.04-.026-.06a3.755 3.755 0 0 0 .34.556c-.025-.033-.054-.064-.078-.1a3.743 3.743 0 0 1-.236-.396zm.522.764c-.045-.05-.082-.106-.123-.16a3.764 3.764 0 0 0 .462.5h-.005a3.8 3.8 0 0 1-.335-.34zm.75.655q-.073-.05-.144-.1t-.14-.107l-.123-.1a4 4 0 0 0 .64.457l-.08-.046-.152-.104zm1.466.632l-.13-.034-.13-.036-.052-.016-.05-.016-.052-.017-.05-.017-.082-.03-.08-.03-.08-.032-.08-.033-.138-.063-.135-.067-.132-.07-.037-.022a4.492 4.492 0 0 0 .764.348 5 5 0 0 0 .55.156zm.534.1l-.135-.02-.134-.023-.134-.027-.032-.007a5.41 5.41 0 0 0 .57.094zm.558.05l-.142-.008-.14-.01-.133-.013q.29.032.585.034h-.028zm.6-.007l-.156.007h-.256q.293 0 .59-.023h-.02zm1.262-.194q-.116.03-.233.053l-.18.036-.18.03-.178.027-.18.02-.127.013a7.114 7.114 0 0 0 1.2-.213zm.693-.206q-.115.04-.23.076t-.23.07l-.087.02a7.957 7.957 0 0 0 1.018-.362c-.158.067-.318.14-.473.195zm1.63-.777a8.493 8.493 0 0 1-.8.436c-.04.018-.08.03-.12.05a8.472 8.472 0 0 0 1-.542c-.03.017-.057.04-.083.056zm.75-.518c-.152.117-.312.22-.47.325a8.494 8.494 0 0 0 .752-.57c-.097.08-.187.168-.285.247zm1.18-1.115q-.077.09-.158.177t-.164.173q-.083.085-.17.168c-.053.052-.114.1-.17.148a8.114 8.114 0 0 0 .8-.83l-.14.163zm1.285-2.093q-.025.064-.05.127t-.056.13q-.03.064-.06.13t-.062.13q-.032.064-.066.13t-.07.13l-.013.022-.013.023-.013.023-.013.023-.066.116-.07.114-.07.112-.073.11q-.05.077-.1.152t-.108.15q-.055.073-.11.146t-.116.144l-.01.013a7.515 7.515 0 0 0 .727-1.056 6.67 6.67 0 0 0 .44-.935zm.21-.64q-.017.064-.036.128t-.04.13q-.02.064-.04.128t-.046.127l-.02.05a5.773 5.773 0 0 0 .26-.913c-.006.03-.01.058-.018.087q-.014.07-.03.136t-.032.127zm.114-.532q-.01.067-.023.134l-.007.038a5.035 5.035 0 0 0 .094-.883v.136s-.005.1-.01.146l-.012.148s-.01.1-.018.15-.02.087-.026.13zm0-1.52l.005.032.004.032v.033q.012.084.02.17t.016.175q.006.088.008.177t0 .18v.002a4.452 4.452 0 0 0-.065-.84zm7.2-4.99l-.088-.04a4.434 4.434 0 0 1-.77-.455 4.44 4.44 0 0 0 .77.456l.146.064zm.18.074l-.096-.037h-.01l.144.054zm.167.062l-.074-.027-.024-.008.146.052zm.917.233l-.124-.02-.124-.026-.126-.03-.122-.03-.048-.013-.048-.012-.048-.014-.048-.014-.078-.024-.077-.025h-.014q.084.03.17.055a5.544 5.544 0 0 0 .8.176zm.884.078h-.128l-.134-.01-.13-.008-.124-.01-.124-.015-.122-.01a5.932 5.932 0 0 0 .82.058h-.06zm.845-.047l-.16.018-.138.012-.14.01-.138.005H47.143a6.32 6.32 0 0 0 .818-.052zm.675-.118q-.1.023-.2.043l-.157.03-.158.024-.107.013a6.64 6.64 0 0 0 .8-.156l-.18.045zm.6-.167q-.1.032-.2.062t-.2.056h-.013c.212-.055.417-.128.622-.2-.073.026-.142.06-.214.083zm.672-.26c-.055.024-.112.04-.167.064.148-.063.293-.133.436-.2-.094.04-.18.093-.272.134zm.636-.33c-.033.02-.07.035-.1.054.15-.086.294-.18.436-.276-.12.074-.226.153-.34.22zm.59-.392c-.015.01-.033.02-.048.032a6.078 6.078 0 0 0 .583-.482 6.05 6.05 0 0 1-.54.45zm8.046 1.894v-.073a4.387 4.387 0 0 0 .066.6 4.38 4.38 0 0 1-.07-.527zm.178 1c-.033-.11-.055-.222-.08-.333a4.494 4.494 0 0 0 .144.506c-.026-.055-.05-.112-.068-.17zm.437 1l-.016-.03a4.874 4.874 0 0 0 .383.564 4.88 4.88 0 0 1-.373-.53zm.676.9c-.07-.073-.128-.15-.19-.227.09.107.19.21.29.31-.036-.028-.076-.05-.105-.08zm.9.756zm.65.374q-.086-.042-.17-.086t-.163-.09q-.08-.047-.16-.1t-.152-.1a5.624 5.624 0 0 0 .73.41zm1.387.48l-.133-.03-.133-.034-.052-.014-.052-.015-.052-.015-.05-.015-.094-.02-.088-.032-.084-.03-.083-.03-.147-.055-.145-.06-.14-.062-.043-.02a5.957 5.957 0 0 0 .817.31q.28.083.56.14zm.53.09l-.13-.02-.14-.013-.133-.024-.033-.007q.282.055.564.084zm.673.045h-.135l-.142-.008-.136-.01-.13-.01q.282.028.563.03h-.026zm.427-.01l-.146.007h-.246q.28 0 .554-.022h-.02zm.935-.124l-.16.032-.16.028-.163.023-.163.02-.12.01a6.113 6.113 0 0 0 1.08-.19l-.11.03q-.108.027-.21.05zm.608-.163q-.1.032-.2.06l-.074.02a5.93 5.93 0 0 0 .867-.322c-.132.06-.26.124-.4.174q-.102.037-.2.07zm.892-.373c-.03.016-.066.027-.1.043a5.636 5.636 0 0 0 .8-.482c-.023.016-.042.036-.065.052a5.63 5.63 0 0 1-.642.388zm.856-.563a5.236 5.236 0 0 0 .562-.51c-.07.074-.13.152-.205.22-.117.106-.242.197-.362.29zm1.184-1.286q-.05.08-.1.16t-.11.154q-.057.076-.116.15c-.037.046-.083.086-.122.13a4.846 4.846 0 0 0 .542-.742q-.054.077-.1.15zm.678-1.93l-.006.055q-.007.056-.016.113t-.02.114q-.01.058-.02.116t-.026.116q-.014.057-.03.116t-.03.117l-.007.02-.005.022-.006.02-.007.022q-.016.052-.033.1t-.036.1q-.018.05-.038.1t-.04.1q-.028.068-.06.136t-.062.134q-.033.066-.067.13t-.07.13l-.007.01a4.64 4.64 0 0 0 .413-.945 4.462 4.462 0 0 0 .167-.826zm5.112-6.908a6.067 6.067 0 0 1-.838-.41 6.053 6.053 0 0 0 .838.41l.15.06-.058-.02zm.2.074l-.014-.005.152.052-.038-.012zm.2.068l-.033-.01.15.046-.046-.014zm1.25.266l-.12-.015-.13-.016-.123-.02-.127-.023-.124-.024-.124-.027-.05-.012-.048-.012-.05-.012-.048-.013-.08-.02-.076-.023-.018-.005.178.05a6.463 6.463 0 0 0 1.057.185zm2.374-.207q-.087.027-.176.05l-.065.016a5.15 5.15 0 0 0 .756-.266c-.113.05-.223.1-.342.143q-.09.034-.178.058zm1.5-.77a3.88 3.88 0 0 0 .46-.42c-.055.06-.1.124-.164.18-.1.087-.206.163-.306.24zm.95-1.06q-.037.065-.078.13t-.085.128q-.045.063-.092.124c-.03.037-.067.07-.1.107a3.42 3.42 0 0 0 .42-.613c-.03.042-.052.083-.075.123zm-1.075 1.16c-.02.013-.034.03-.054.043a4.5 4.5 0 0 1-.543.32c-.027.012-.057.02-.085.034a4.51 4.51 0 0 0 .67-.396zm-1.628.74l-.1.025-.183.04-.142.025-.143.023-.145.02-.146.015-.105.01a5.725 5.725 0 0 0 .953-.156zm-.966.158h-.02l-.13.008-.132.005h-.388l-.124-.005-.124-.008-.12-.01a6.172 6.172 0 0 0 1.027.01zM75.59 43.99q-.132.085-.273.16a3.952 3.952 0 0 0 .532-.34l-.008.006q-.124.09-.252.175zm.484-.365c-.068.06-.14.12-.213.176a3.3 3.3 0 0 0 .436-.4l-.014.017q-.098.107-.208.207zm.57-.69q-.025.042-.05.082t-.07.1q-.037.052-.076.1t-.08.1c-.02.025-.043.05-.065.073a2.784 2.784 0 0 0 .34-.46zm4.142-5.6l.132.046-.05-.014zm.173.052l-.018-.005.134.042-.028-.007zm.176.048l-.038-.01.137.034-.034-.01zm2.524.128l-.114.017-.116.015-.117.013-.118.01-.087.006a5.545 5.545 0 0 0 .777-.1l-.077.016zm1.05-.293c-.022.01-.046.015-.068.024a3.7 3.7 0 0 0 .54-.264l-.04.03a3.687 3.687 0 0 1-.43.214zm1.308-1.01q-.03.044-.06.087t-.065.085q-.034.042-.07.083c-.023.026-.053.047-.077.072a2.157 2.157 0 0 0 .322-.41c-.012.03-.028.056-.05.083zm-.378.428c-.043.04-.08.083-.128.12-.072.057-.155.107-.234.16a2.818 2.818 0 0 0 .366-.28zm-1.142.66c-.09.03-.177.066-.27.093l-.14.038-.14.033-.054.012a4.647 4.647 0 0 0 .607-.175zm-1.4.282h-.01l-.105.005h-.515l-.1-.005-.1-.007a6.2 6.2 0 0 0 .835.007zm-.832-.006l-.1-.008-.1-.01-.1-.01-.1-.014-.1-.015-.1-.016-.1-.017-.048-.01-.04-.007-.04-.008-.04-.008-.066-.014-.065-.015h-.02l.15.035a6.538 6.538 0 0 0 .87.12zm-1.762-9.116q-.11.06-.227.112a3.182 3.182 0 0 0 .438-.238q-.097.067-.21.126zm.4-.26c-.058.046-.12.09-.182.13a2.432 2.432 0 0 0 .356-.28l-.005.004q-.08.077-.17.147zm.41-.424q-.026.037-.054.073t-.058.07q-.03.036-.062.07l-.06.06a1.832 1.832 0 0 0 .27-.326zm3.292-3.977a5.762 5.762 0 0 1-.588-.193 5.756 5.756 0 0 0 .584.192l.117.03-.04-.01zm.158.04h-.017l.116.027h-.02zm.16.037l-.04-.01.117.026h-.022zm2.133.09l-.1.013-.1.01-.1.01-.1.007h-.074a5.4 5.4 0 0 0 .652-.074l-.064.01zm.877-.208c-.018.006-.04.01-.057.017a3.234 3.234 0 0 0 .45-.188c-.013.006-.023.014-.035.02a3.228 3.228 0 0 1-.358.15zm1.117-.782c-.012.02-.025.04-.04.058s-.03.042-.047.062-.034.04-.053.06-.037.04-.057.06-.043.034-.063.052a1.518 1.518 0 0 0 .26-.292zm-.346.364c-.035.028-.066.06-.1.086-.06.04-.127.076-.193.113a2.238 2.238 0 0 0 .294-.2zm-.943.47c-.074.023-.147.048-.226.067l-.115.026-.12.025-.044.008a4.366 4.366 0 0 0 .505-.127zm-1.17.2h-.706l-.084-.006-.082-.01-.085-.01-.09-.008-.085-.01-.087-.012-.086-.013-.034-.006-.032-.006-.034-.006-.034-.006-.056-.01-.056-.01h-.02l.132.024a6.407 6.407 0 0 0 1.44.088zm-2.567-6.584q-.09.043-.186.08a2.72 2.72 0 0 0 .36-.173q-.084.05-.174.094zm.325-.188c-.045.032-.093.062-.143.09a1.9 1.9 0 0 0 .288-.2l-.008.008-.137.1zm.364-.354l-.03.042q-.02.027-.043.054l-.048.052-.05.05-.045.04a1.31 1.31 0 0 0 .215-.24zm2.66-2.92l.1.02-.034-.008zm.132.027h-.012l.1.02h-.023zm.182.033l-.048-.01-.034-.005.107.02zm1.007.1h-.295l-.073-.005-.074-.006-.074-.007-.075-.008-.073-.023-.075-.01h-.12l-.05-.008-.048-.008h-.017l.114.018a6.553 6.553 0 0 0 .97.074h-.107zm.9-.052l-.105.015-.083.01-.084.007-.084.007-.086.005h-.348a5.528 5.528 0 0 0 .882-.067zm.3-.052l-.1.02-.1.018h-.007a3.754 3.754 0 0 0 .707-.185c-.057.022-.112.045-.174.064q-.157.04-.328.08zm.57-.172c.07-.027.13-.057.192-.088-.047.024-.092.05-.144.07zm.3-.143l-.02.01a1.68 1.68 0 0 0 .233-.155 1.24 1.24 0 0 0 .117-.11 1.227 1.227 0 0 1-.117.11 1.64 1.64 0 0 1-.21.142zm5.128.854l.08.073c-.014-.012-.034-.023-.047-.036s-.018-.027-.03-.04zm.458.36zm.548.288c-.04-.018-.072-.04-.11-.06a5.5 5.5 0 0 0 .757.3 5.76 5.76 0 0 1-.646-.243zm2.84.54h-.61l-.076-.006-.078-.007-.078-.007-.076-.023-.08-.01-.08-.01h-.122l-.053-.007-.05-.008-.052-.01-.05-.008-.092-.017-.09-.018-.09-.02-.09-.02-.108-.025-.106-.028-.1-.03-.1-.03a6.906 6.906 0 0 0 .987.224 6.61 6.61 0 0 0 1.295.072h-.017zm.5-.04l-.082.01-.085.01-.087.006-.087.007h-.065a5.08 5.08 0 0 0 .567-.058l-.054.008zm.31-.05l-.1.02h-.04a3.76 3.76 0 0 0 .428-.1c-.063.017-.122.037-.19.052zm.435-.113l-.047.013a2.518 2.518 0 0 0 .37-.148l-.028.016a2.494 2.494 0 0 1-.294.115zm.87-.616c-.01.015-.018.03-.027.046s-.02.033-.033.05l-.037.047-.04.046c-.015.015-.034.027-.05.04a.935.935 0 0 0 .185-.234zm-.252.287c-.027.022-.05.046-.08.067a1.754 1.754 0 0 1-.153.09 1.546 1.546 0 0 0 .232-.16zm2.155-3.078l-.05-.01.092.018zm.1.02l-.05-.01.086.015zm.1.016l-.05-.007.093.015zm.713.08h-.073l-.073-.005-.074-.007-.075-.007-.074-.007-.076-.01h-.12l-.05-.006-.048-.007.1.015c.218.03.43.05.637.062zm.58.01h-.507c.205.01.4.012.592 0h-.014zm.468-.033l-.078.01-.08.007-.08.006-.082.005h-.06a4.924 4.924 0 0 0 .53-.052l-.05.008zm.29-.045l-.094.017-.035.004a3.513 3.513 0 0 0 .4-.088c-.058.016-.114.034-.177.048zm.4-.1l-.044.012a2.248 2.248 0 0 0 .337-.133l-.025.015a2.24 2.24 0 0 1-.265.1zm.352-.155a1.3 1.3 0 0 0 .207-.14c-.024.02-.043.042-.07.06a1.52 1.52 0 0 1-.134.073zm.373-.312l-.032.043-.035.042c-.012.013-.03.024-.042.036a.746.746 0 0 0 .158-.207l-.02.04-.027.038z"/><circle cx="102.297" cy="15.072" r=".001" transform="rotate(-75.964 101.93 15.18)"/><circle cx="56.981" cy="16.615" r=".001" transform="rotate(-2.49 50.435 25.265)"/><path d="M37.668 41l.002.007v-.002L37.667 41z"/></svg>