<?xml version="1.0" encoding="UTF-8" standalone="no"?>
<!DOCTYPE svg PUBLIC "-//W3C//DTD SVG 1.1//EN" "http://www.w3.org/Graphics/SVG/1.1/DTD/svg11.dtd">
<svg version="1.1" xmlns="http://www.w3.org/2000/svg" xmlns:xlink="http://www.w3.org/1999/xlink" preserveAspectRatio="xMidYMid meet" viewBox="-0.999999087886124 242.20901520978978 194.3993499999999 194.39937000000006" width="190.4" height="190.4"><defs><path d="M171.73 424.92L117.68 424.92L63.52 354.81L63.52 424.92L21.81 424.92L21.81 263.26L63.52 263.26L63.52 329.94L77.4 318.2L131.57 292.55L102.18 339.77L171.73 424.92Z" id="a6Y8eACmx"></path><path d="M146.69 311.15L155.33 318.29L147.63 246.56L96.6 268.39C103.98 274.13 108.08 277.32 108.9 277.96C103.91 291.08 86.91 311.87 76.89 318.61C83.9 327.73 87.01 333.14 91.26 339.05C91.26 339.05 91.26 339.05 91.26 339.05C93.61 342.54 99.04 349.76 101.68 353.2C101.68 353.2 101.68 353.2 101.68 353.2C119.62 342.86 132.01 332.93 146.69 311.15" id="bA4xQaXQV"></path><linearGradient id="gradienta2xJG49EkN" gradientUnits="userSpaceOnUse" x1="88.55" y1="325.81" x2="123.68" y2="291.21"><stop style="stop-color: #000000;stop-opacity: 1" offset="0%"></stop><stop style="stop-color: #0047b8;stop-opacity: 1" offset="78.400421%"></stop><stop style="stop-color: #32a1dd;stop-opacity: 1" offset="94.23244%"></stop><stop style="stop-color: #0047b8;stop-opacity: 1" offset="100%"></stop></linearGradient><path d="M146.65 247.82L98.69 268.41L153.04 314.2L148.96 271.44L146.65 247.82Z" id="a16vmm0WnY"></path><radialGradient id="gradientb829zjgIyn" gradientUnits="userSpaceOnUse" cx="127.64" cy="232.07" dx="30759.72" dy="3167.25" r="30772.39"><stop style="stop-color: #b7eff7;stop-opacity: 1" offset="0%"></stop><stop style="stop-color: #698fcf;stop-opacity: 1" offset="58.989000000000004%"></stop><stop style="stop-color: #0047b8;stop-opacity: 1" offset="84.8312%"></stop><stop style="stop-color: #0047b8;stop-opacity: 1" offset="100%"></stop></radialGradient><path d="M152.1 246.47L147.63 246.56L155.46 318.28L161.7 315.05L152.1 246.47Z" id="b34I212bI"></path><linearGradient id="gradientb7gmTi80LW" gradientUnits="userSpaceOnUse" x1="137.67" y1="251.81" x2="168.98" y2="311.21"><stop style="stop-color: #b7eff7;stop-opacity: 1" offset="0%"></stop><stop style="stop-color: #698fcf;stop-opacity: 1" offset="58.989000000000004%"></stop><stop style="stop-color: #0047b8;stop-opacity: 1" offset="84.8312%"></stop><stop style="stop-color: #0047b8;stop-opacity: 1" offset="100%"></stop></linearGradient><path d="M147.63 246.56L146.51 247.04L154.65 317.8L155.46 318.28L156.05 317.83L147.63 246.56Z" id="k2aUvDmHSe"></path><linearGradient id="gradientbw5WPrJMa" gradientUnits="userSpaceOnUse" x1="135.64" y1="252.77" x2="166.97" y2="312.21"><stop style="stop-color: #264ac4;stop-opacity: 1" offset="0%"></stop><stop style="stop-color: #ffffff;stop-opacity: 1" offset="78.65140000000001%"></stop><stop style="stop-color: #264ac4;stop-opacity: 1" offset="100%"></stop></linearGradient><path d="M126.9 337.99C140.08 328.19 145.86 321.06 150.23 314.19C150.23 314.19 150.23 314.19 150.23 314.19C148.08 312.01 146.89 310.8 146.65 310.56C146.65 310.56 144.96 313.37 142.03 317.85C142.03 317.85 142.03 317.85 142.03 317.85C136.41 326.43 125.37 340.66 106.93 349.55C106.93 349.55 106.93 349.55 106.93 349.55C114.8 345.88 121.42 342.06 126.9 337.99" id="bHA6rXj3P"></path><linearGradient id="gradientcUTDfkK4R" gradientUnits="userSpaceOnUse" x1="150.04" y1="312.25" x2="140.7" y2="321.28"><stop style="stop-color: #b7eff7;stop-opacity: 1" offset="0%"></stop><stop style="stop-color: #698fcf;stop-opacity: 1" offset="58.989000000000004%"></stop><stop style="stop-color: #0047b8;stop-opacity: 1" offset="84.8312%"></stop><stop style="stop-color: #0047b8;stop-opacity: 1" offset="100%"></stop></linearGradient><path d="M190.4 243.21C190.4 243.21 190.4 243.21 190.4 243.21C190.4 357.45 190.4 420.92 190.4 433.61C190.4 433.61 190.4 433.61 190.4 433.61C76.16 433.61 12.69 433.61 0 433.61C0 433.61 0 433.61 0 433.61C0 319.37 0 255.9 0 243.21C0 243.21 0 243.21 0 243.21C114.24 243.21 177.71 243.21 190.4 243.21Z" id="a3U3wm2ii3"></path></defs><g><g><use xlink:href="#a6Y8eACmx" opacity="1" fill="#000000" fill-opacity="1"></use><g><use xlink:href="#a6Y8eACmx" opacity="1" fill-opacity="0" stroke="#000000" stroke-width="1" stroke-opacity="0"></use></g></g><g><use xlink:href="#bA4xQaXQV" opacity="1" fill="url(#gradienta2xJG49EkN)"></use><g><use xlink:href="#bA4xQaXQV" opacity="1" fill-opacity="0" stroke="#000000" stroke-width="1" stroke-opacity="0"></use></g></g><g><use xlink:href="#a16vmm0WnY" opacity="1" fill="url(#gradientb829zjgIyn)"></use><g><use xlink:href="#a16vmm0WnY" opacity="1" fill-opacity="0" stroke="#000000" stroke-width="1" stroke-opacity="0"></use></g></g><g><use xlink:href="#b34I212bI" opacity="1" fill="url(#gradientb7gmTi80LW)"></use><g><use xlink:href="#b34I212bI" opacity="1" fill-opacity="0" stroke="#000000" stroke-width="1" stroke-opacity="0"></use></g></g><g><use xlink:href="#k2aUvDmHSe" opacity="1" fill="url(#gradientbw5WPrJMa)"></use><g><use xlink:href="#k2aUvDmHSe" opacity="1" fill-opacity="0" stroke="#000000" stroke-width="1" stroke-opacity="0"></use></g></g><g><use xlink:href="#bHA6rXj3P" opacity="1" fill="url(#gradientcUTDfkK4R)"></use><g><use xlink:href="#bHA6rXj3P" opacity="1" fill-opacity="0" stroke="#000000" stroke-width="1" stroke-opacity="0"></use></g></g><g><use xlink:href="#a3U3wm2ii3" opacity="1" fill="#000000" fill-opacity="0"></use><g><use xlink:href="#a3U3wm2ii3" opacity="1" fill-opacity="0" stroke="#000000" stroke-width="1" stroke-opacity="0"></use></g></g></g></svg>