<!DOCTYPE svg PUBLIC "-//W3C//DTD SVG 20010904//EN" "http://www.w3.org/TR/2001/REC-SVG-20010904/DTD/svg10.dtd">
<svg version="1.0" xmlns="http://www.w3.org/2000/svg" width="250px" height="136px" viewBox="0 0 2500 1360" preserveAspectRatio="xMidYMid meet">
<g id="layer101" fill="#373535" stroke="none">
 <path d="M17 1342 c-15 -17 -17 -77 -17 -664 0 -612 1 -646 18 -661 17 -16 117 -17 1234 -17 1164 0 1216 1 1231 18 15 17 17 77 17 664 0 612 -1 646 -18 661 -17 16 -117 17 -1234 17 -1164 0 -1216 -1 -1231 -18z"/>
 </g>
<g id="layer102" fill="#f59534" stroke="none">
 <path d="M115 1238 c-3 -7 -4 -263 -3 -568 3 -519 4 -555 21 -558 16 -3 17 29 17 567 0 506 -2 571 -15 571 -9 0 -18 -6 -20 -12z"/>
 <path d="M230 1085 c0 -158 1 -165 20 -165 19 0 20 7 20 165 0 158 -1 165 -20 165 -19 0 -20 -7 -20 -165z"/>
 <path d="M345 1238 c-3 -7 -4 -263 -3 -568 3 -519 4 -555 21 -558 16 -3 17 22 17 428 l0 431 25 -20 c59 -45 144 -32 179 29 25 43 28 149 6 194 -35 69 -120 92 -179 48 l-30 -22 -3 22 c-4 25 -26 36 -33 16z m182 -43 c49 -34 51 -179 2 -217 -33 -28 -93 -24 -118 8 -61 78 -20 224 63 224 17 0 41 -7 53 -15z"/>
 <path d="M670 1091 c0 -141 2 -161 16 -161 9 0 18 9 21 20 5 19 6 19 36 -6 35 -29 71 -29 75 2 3 18 -1 21 -21 17 -16 -3 -34 4 -53 20 -28 25 -29 28 -34 144 -4 102 -7 118 -22 121 -17 3 -18 -10 -18 -157z"/>
 <path d="M935 1243 c-60 -16 -95 -72 -95 -152 0 -99 48 -163 123 -165 26 -1 54 6 71 17 33 22 58 77 54 121 l-3 31 -102 3 c-84 2 -103 5 -103 18 0 24 29 73 49 84 25 13 97 13 122 0 16 -9 19 -7 19 9 0 30 -76 49 -135 34z m115 -200 c0 -10 -9 -33 -20 -51 -19 -30 -24 -33 -62 -30 -35 2 -46 9 -65 37 -38 56 -33 61 62 61 74 0 85 -2 85 -17z"/>
 <path d="M1158 1243 c-18 -3 -28 -11 -28 -22 0 -15 7 -17 54 -13 64 5 96 -9 96 -43 0 -30 -21 -52 -87 -87 -34 -18 -53 -35 -57 -52 -16 -65 46 -113 130 -100 28 4 44 11 44 20 0 10 -16 14 -60 14 -55 0 -62 2 -72 25 -14 32 -1 48 66 82 64 33 76 49 73 97 -3 62 -69 95 -159 79z"/>
 <path d="M1391 1097 c-28 -83 -51 -158 -51 -165 0 -17 30 -11 41 8 5 8 26 71 47 140 l38 124 45 -139 c41 -129 47 -140 69 -140 27 0 29 5 81 175 l32 105 44 -138 c39 -124 61 -163 79 -144 3 3 -18 78 -47 167 -51 154 -54 161 -78 158 -22 -3 -28 -15 -65 -135 -22 -73 -43 -133 -46 -133 -3 0 -25 61 -48 135 -39 124 -44 135 -66 135 -22 0 -28 -12 -75 -153z"/>
 <path d="M1883 1236 c-60 -27 -72 -95 -25 -147 26 -29 36 -33 98 -38 77 -7 89 -21 60 -66 -13 -20 -25 -25 -61 -25 -24 0 -55 4 -69 10 -22 8 -26 7 -26 -10 0 -24 34 -35 103 -34 38 0 53 6 75 27 26 27 27 32 31 157 3 117 1 130 -14 130 -9 0 -19 -9 -22 -20 -5 -19 -5 -19 -32 0 -36 27 -80 33 -118 16z m99 -37 c21 -11 48 -66 48 -99 0 -17 -6 -20 -39 -20 -76 0 -121 29 -121 79 0 44 62 66 112 40z"/>
 <path d="M2140 1101 c0 -83 0 -154 -1 -158 0 -5 7 -9 15 -11 9 -2 16 3 16 12 0 13 6 12 40 -5 29 -15 51 -20 76 -16 86 14 106 58 102 219 -3 86 -6 103 -19 106 -15 3 -17 -12 -20 -121 -3 -106 -7 -128 -23 -146 -25 -27 -85 -28 -117 -2 -22 18 -24 28 -29 142 -4 108 -7 124 -22 127 -17 3 -18 -9 -18 -147z"/>
 <path d="M580 860 c-87 -18 -129 -32 -134 -47 -5 -12 -1 -14 19 -9 31 8 95 -2 95 -15 0 -5 -6 -9 -14 -9 -8 0 -13 -8 -11 -17 2 -10 4 -24 4 -31 2 -22 89 -55 129 -48 32 5 50 15 141 81 41 30 76 34 38 5 -32 -25 -41 -53 -27 -79 35 -67 121 -29 101 45 -8 29 -8 29 -20 7 -6 -13 -17 -23 -23 -23 -7 0 7 20 31 44 45 46 49 76 13 92 -26 11 -291 14 -342 4z"/>
 <path d="M224 845 c-8 -19 3 -35 26 -35 22 0 33 23 17 39 -15 15 -37 14 -43 -4z"/>
 <path d="M1129 751 c0 -9 -3 -25 -5 -36 -3 -11 -8 -44 -13 -73 -4 -29 -13 -58 -20 -65 -6 -6 -48 -14 -94 -17 -45 -3 -75 -9 -67 -12 8 -4 71 -25 139 -48 155 -53 217 -59 289 -31 29 12 69 21 90 21 20 0 53 5 72 10 19 6 55 12 79 15 31 3 52 12 68 29 28 31 29 40 4 26 -11 -5 -29 -10 -41 -10 -11 0 -34 -7 -50 -15 -16 -8 -57 -18 -90 -22 -69 -7 -69 -8 -45 84 8 31 15 70 15 86 0 32 -25 65 -33 44 -4 -9 -6 -9 -6 0 -1 17 -31 4 -31 -14 0 -8 -4 -11 -10 -8 -5 3 -7 0 -4 -8 3 -8 -1 -17 -9 -20 -8 -3 -30 -31 -49 -62 -40 -67 -60 -69 -69 -4 -7 49 -41 123 -61 136 -24 14 -58 11 -59 -6z"/>
 <path d="M1688 431 c-56 -6 -92 -21 -50 -21 28 0 132 -42 132 -54 0 -5 -11 -19 -25 -32 -14 -13 -25 -28 -25 -34 0 -5 -3 -10 -8 -10 -4 0 -13 -15 -20 -32 -8 -18 -19 -44 -25 -57 -9 -19 -9 -25 1 -28 6 -3 9 -10 5 -16 -4 -6 0 -8 10 -4 10 3 17 2 17 -3 0 -5 9 -7 20 -5 11 2 20 -1 20 -7 0 -6 10 4 23 23 12 18 48 53 79 76 60 46 64 46 118 7 22 -16 221 -76 228 -70 14 14 -39 64 -103 96 -75 38 -88 54 -53 66 36 11 199 8 256 -5 47 -12 53 -11 72 7 l21 20 -43 6 c-24 3 -108 10 -188 16 -80 7 -149 15 -155 20 -5 4 -38 18 -72 29 -63 21 -121 24 -235 12z"/>
 </g>
<g id="layer103" fill="#f5f5f5" stroke="none">
 <path d="M580 860 c-87 -18 -129 -32 -134 -47 -5 -12 -1 -14 19 -9 31 8 95 -2 95 -15 0 -5 -6 -9 -14 -9 -8 0 -13 -8 -11 -17 2 -10 4 -24 4 -31 2 -22 89 -55 129 -48 32 5 50 15 141 81 41 30 76 34 38 5 -32 -25 -41 -53 -27 -79 35 -67 121 -29 101 45 -8 29 -8 29 -20 7 -6 -13 -17 -23 -23 -23 -7 0 7 20 31 44 45 46 49 76 13 92 -26 11 -291 14 -342 4z"/>
 <path d="M1129 751 c0 -9 -3 -25 -5 -36 -3 -11 -8 -44 -13 -73 -4 -29 -13 -58 -20 -65 -6 -6 -48 -14 -94 -17 -45 -3 -75 -9 -67 -12 8 -4 71 -25 139 -48 155 -53 217 -59 289 -31 29 12 69 21 90 21 20 0 53 5 72 10 19 6 55 12 79 15 31 3 52 12 68 29 28 31 29 40 4 26 -11 -5 -29 -10 -41 -10 -11 0 -34 -7 -50 -15 -16 -8 -57 -18 -90 -22 -69 -7 -69 -8 -45 84 8 31 15 70 15 86 0 32 -25 65 -33 44 -4 -9 -6 -9 -6 0 -1 17 -31 4 -31 -14 0 -8 -4 -11 -10 -8 -5 3 -7 0 -4 -8 3 -8 -1 -17 -9 -20 -8 -3 -30 -31 -49 -62 -40 -67 -60 -69 -69 -4 -7 49 -41 123 -61 136 -24 14 -58 11 -59 -6z"/>
 <path d="M1688 431 c-56 -6 -92 -21 -50 -21 28 0 132 -42 132 -54 0 -5 -11 -19 -25 -32 -14 -13 -25 -28 -25 -34 0 -5 -3 -10 -8 -10 -4 0 -13 -15 -20 -32 -8 -18 -19 -44 -25 -57 -9 -19 -9 -25 1 -28 6 -3 9 -10 5 -16 -4 -6 0 -8 10 -4 10 3 17 2 17 -3 0 -5 9 -7 20 -5 11 2 20 -1 20 -7 0 -6 10 4 23 23 12 18 48 53 79 76 60 46 64 46 118 7 22 -16 221 -76 228 -70 14 14 -39 64 -103 96 -75 38 -88 54 -53 66 36 11 199 8 256 -5 47 -12 53 -11 72 7 l21 20 -43 6 c-24 3 -108 10 -188 16 -80 7 -149 15 -155 20 -5 4 -38 18 -72 29 -63 21 -121 24 -235 12z"/>
 </g>

</svg>