<?xml version="1.0" encoding="UTF-8" standalone="no"?>
<!-- Generator: Adobe Illustrator 16.0.3, SVG Export Plug-In . SVG Version: 6.00 Build 0)  -->

<svg
   xmlns:dc="http://purl.org/dc/elements/1.1/"
   xmlns:cc="http://creativecommons.org/ns#"
   xmlns:rdf="http://www.w3.org/1999/02/22-rdf-syntax-ns#"
   xmlns:svg="http://www.w3.org/2000/svg"
   xmlns="http://www.w3.org/2000/svg"
   xmlns:sodipodi="http://sodipodi.sourceforge.net/DTD/sodipodi-0.dtd"
   xmlns:inkscape="http://www.inkscape.org/namespaces/inkscape"
   version="1.1"
   id="Layer_1"
   x="0px"
   y="0px"
   width="219.85001"
   height="285.08899"
   viewBox="0 0 219.85001 285.08899"
   enable-background="new 0 0 1200 300"
   xml:space="preserve"
   sodipodi:docname="litespeed.svg"
   inkscape:version="0.92.4 (5da689c313, 2019-01-14)"><metadata
   id="metadata31"><rdf:RDF><cc:Work
       rdf:about=""><dc:format>image/svg+xml</dc:format><dc:type
         rdf:resource="http://purl.org/dc/dcmitype/StillImage" /></cc:Work></rdf:RDF></metadata><defs
   id="defs29" /><sodipodi:namedview
   pagecolor="#ffffff"
   bordercolor="#666666"
   borderopacity="1"
   objecttolerance="10"
   gridtolerance="10"
   guidetolerance="10"
   inkscape:pageopacity="0"
   inkscape:pageshadow="2"
   inkscape:window-width="1920"
   inkscape:window-height="986"
   id="namedview27"
   showgrid="false"
   inkscape:zoom="0.32666667"
   inkscape:cx="566.19925"
   inkscape:cy="142.539"
   inkscape:window-x="-11"
   inkscape:window-y="-11"
   inkscape:window-maximized="1"
   inkscape:current-layer="Layer_1" />

<g
   id="g24"
   transform="translate(-33.800749,-7.45)">
	<g
   id="g8">
		<path
   d="m 251.567,145.881 -65.573,-65.562 -27.927,35.451 30.111,30.11 c 2.778,2.781 2.778,7.323 0,10.102 l -8.709,8.706 c 0,0 5.873,8.791 6.143,9.32 1.354,2.718 1.682,9.1 -2.164,12.011 l -68.487,52.58 c -0.016,17.645 -0.04,53.924 -0.012,53.94 0.012,0.004 136.62,-136.558 136.62,-136.558 2.776,-2.781 2.776,-7.319 -0.002,-10.1 z"
   id="path4"
   inkscape:connector-curvature="0"
   style="fill:#3e8ede" />
		<path
   d="m 99.267,154.131 c -2.768,-2.766 -2.768,-7.304 0,-10.086 l 8.721,-8.721 -5.962,-8.567 c -2.843,-4.026 -1.948,-9.75 1.972,-12.747 L 172.498,61.426 172.545,7.52 172.506,7.498 172.471,7.45 35.885,144.045 c -2.78,2.782 -2.78,7.32 0.006,10.099 l 65.559,65.563 27.935,-35.451 z"
   id="path6"
   inkscape:connector-curvature="0"
   style="fill:#002d73" />
	</g>
	<g
   id="g14">
		<g
   id="g12">
			<path
   d="m 207.02,39.383 c 1.291,0 2.547,0.787 3.125,1.956 1.042,2.149 -0.462,4.065 -1.29,5.12 l -60.021,76.183 c -0.609,0.768 -0.66,2.422 -0.1,3.216 0.324,0.47 32.404,47.008 33.507,48.589 1.577,2.271 1.428,8.119 -1.715,10.501 l -96.504,74.086 c -1.355,1.039 -2.36,1.604 -3.766,1.617 -1.211,-0.081 -2.425,-0.879 -2.952,-1.939 -1.057,-2.147 0.527,-4.187 1.287,-5.165 l 60.005,-76.15 c 0.615,-0.824 0.676,-2.395 0.122,-3.234 l -33.495,-48.168 c -2.428,-3.453 -1.674,-8.351 1.681,-10.917 l 96.522,-74.096 c 1.451,-1.136 2.493,-1.599 3.594,-1.599 m 0,-0.25 c -1.158,0 -2.246,0.477 -3.748,1.65 l -96.521,74.095 c -3.467,2.652 -4.242,7.692 -1.733,11.26 l 33.494,48.167 c 0.493,0.748 0.431,2.208 -0.117,2.942 l -60.001,76.146 c -0.792,1.02 -2.438,3.148 -1.314,5.43 0.565,1.139 1.86,1.991 3.159,2.078 1.504,-0.013 2.58,-0.63 3.934,-1.668 l 96.505,-74.086 c 3.337,-2.528 3.349,-8.564 1.769,-10.842 -1.115,-1.6 -33.507,-48.589 -33.507,-48.589 -0.497,-0.705 -0.45,-2.238 0.09,-2.919 l 60.021,-76.184 c 0.786,-1.002 2.438,-3.075 1.319,-5.384 -0.62,-1.251 -1.957,-2.096 -3.35,-2.096 z"
   id="path10"
   inkscape:connector-curvature="0"
   style="fill:#3e8ede" />
		</g>
	</g>
	<g
   id="g18">
		<path
   d="m 178.983,175.192 c 0.778,1.178 1.479,5.638 -0.478,7.112 L 81.987,256.4 c -0.813,0.622 -1.333,0.923 -1.565,0.904 -0.333,0.019 -0.092,-0.572 0.794,-1.715 l 59.996,-76.129 c 1.518,-1.964 1.62,-5.183 0.227,-7.187 l -33.491,-48.198 c 0,10e-4 70.26,49.934 71.035,51.117 z"
   id="path16"
   inkscape:connector-curvature="0"
   style="fill:#ffce00" />
	</g>
	<g
   id="g22">
		<path
   d="M 178.983,175.192 146.001,127.75 c -1.4,-2.011 -1.288,-5.238 0.211,-7.152 l 60.006,-76.176 c 0.892,-1.135 1.123,-1.702 0.802,-1.702 -0.238,0 -0.767,0.278 -1.565,0.912 l -96.521,74.087 c -1.937,1.49 -2.395,4.358 -0.986,6.357 z"
   id="path20"
   inkscape:connector-curvature="0"
   style="fill:#ffde6e" />
	</g>
</g>
</svg>