<svg xmlns="http://www.w3.org/2000/svg" viewBox="0 0 110.78 17.83"><g stroke-width=".26" aria-label="lm-sensors" font-family="Andale Mono" font-size="25.4" font-weight="400" letter-spacing="-3.97" style="line-height:1.25;-inkscape-font-specification:'Andale Mono'" word-spacing="0"><path d="M8.66 17.5H3.37V1.67H0V0h5.3v15.83h3.36zM21.88 17.5h-1.94V9.02q0-3.08-1.14-3.08-.58 0-1.29 1.07-.7 1.05-.7 1.16v9.33H14.9V9.02q0-3.08-1.16-3.08-.57 0-1.28 1.07-.69 1.05-.69 1.16v9.33H9.84V4.58h1.86v1.94q.54-1.03 1.29-1.63.75-.62 1.5-.62.78 0 1.4.62.62.6.85 1.63.55-1.03 1.3-1.63.76-.62 1.5-.62 2.34 0 2.34 4.19zM30.67 11.46H23.3V9.57h7.37zM42.03 6.42q-1.62-.53-3.06-.53-1.58 0-2.5.53-.91.53-.91 1.4 0 .56.42.99.42.4 1.69.76l1.84.54q1.28.36 2.09.87.8.5 1.2 1.21.41.7.41 1.65 0 1.85-1.55 2.93-1.55 1.06-3.94 1.06-2.39 0-3.94-.71l.38-1.68q1.62.77 3.48.77 1.61 0 2.62-.6t1.01-1.6q0-.67-.5-1.19-.5-.53-2.36-1.1l-2.2-.68q-.71-.24-1.32-.68-.61-.45-.93-1.07-.31-.62-.31-1.39 0-1.67 1.46-2.65T39 4.27q1.57 0 3.48.53zM55.03 11.1h-8.87q0 2.2 1.27 3.62 1.27 1.43 3.12 1.43 1.76 0 3.64-.63l.33 1.55q-1.71.76-4 .76-2.87 0-4.63-1.84-1.76-1.85-1.76-4.99 0-3.07 1.57-4.9 1.59-1.83 4.1-1.83 2.23 0 3.73 1.7t1.5 4.52zm-2.1-1.57q0-1.52-.95-2.55-.94-1.04-2.11-1.04-1.5 0-2.5 1-.97.99-1.08 2.59zM65.9 17.5h-1.93V9.21q0-1.72-.56-2.49-.54-.78-1.72-.78-1.77 0-3.8 2.2v9.36h-1.94V4.58h1.93v1.9q2.09-2.21 4.4-2.21 3.63 0 3.63 4.39zM75.82 6.42q-1.63-.53-3.07-.53-1.57 0-2.5.53-.9.53-.9 1.4 0 .56.41.99.42.4 1.69.76l1.85.54q1.28.36 2.08.87.8.5 1.2 1.21.41.7.41 1.65 0 1.85-1.55 2.93-1.55 1.06-3.94 1.06-2.38 0-3.93-.71l.37-1.68q1.62.77 3.49.77 1.6 0 2.61-.6 1.02-.6 1.02-1.6 0-.67-.51-1.19-.5-.53-2.36-1.1l-2.2-.68q-.71-.24-1.32-.68-.6-.45-.93-1.07-.3-.62-.3-1.39 0-1.67 1.46-2.65t3.88-.98q1.56 0 3.47.53zM83.42 4.27q2.66 0 4.24 1.86 1.57 1.86 1.57 4.9 0 3.06-1.57 4.93-1.58 1.87-4.24 1.87-2.68 0-4.26-1.86-1.56-1.87-1.56-4.94 0-3.06 1.58-4.9 1.57-1.86 4.24-1.86zm0 11.88q1.76 0 2.78-1.49 1.01-1.49 1.01-3.61 0-2.23-1-3.67t-2.8-1.44q-1.79 0-2.78 1.43-1 1.41-1 3.68 0 2.16 1.01 3.63 1 1.47 2.78 1.47zM99.89 4.92l-.78 1.86q-1.28-.55-2.21-.55-.86 0-1.67.5-.82.48-1.52 1.4-.68.9-.68 1.01v8.36h-1.92V4.58h1.92v2.61q1.55-2.92 4.02-2.92 1.46 0 2.84.65zM109.6 6.42q-1.63-.53-3.06-.53-1.58 0-2.5.53-.91.53-.91 1.4 0 .56.42.99.42.4 1.68.76l1.85.54q1.28.36 2.09.87.8.5 1.2 1.21.4.7.4 1.65 0 1.85-1.54 2.93-1.55 1.06-3.95 1.06-2.38 0-3.93-.71l.37-1.68q1.63.77 3.49.77 1.61 0 2.62-.6t1.01-1.6q0-.67-.5-1.19-.5-.53-2.36-1.1l-2.21-.68q-.7-.24-1.31-.68-.61-.45-.93-1.07-.31-.62-.31-1.39 0-1.67 1.46-2.65t3.88-.98q1.56 0 3.47.53z"/></g></svg>