<!DOCTYPE svg PUBLIC "-//W3C//DTD SVG 20010904//EN" "http://www.w3.org/TR/2001/REC-SVG-20010904/DTD/svg10.dtd">
<svg version="1.0" xmlns="http://www.w3.org/2000/svg" width="800px" height="800px" viewBox="0 0 8000 8000" preserveAspectRatio="xMidYMid meet">
<g id="layer101" fill="#000000" stroke="none">
 <path d="M1555 7385 c-209 -64 -339 -129 -494 -246 -152 -114 -274 -273 -383 -495 -117 -242 -113 -143 -113 -2644 0 -2171 2 -2299 45 -2463 22 -89 119 -288 197 -405 113 -171 281 -312 498 -418 182 -89 273 -113 465 -124 85 -5 1147 -9 2360 -10 l2205 0 95 29 c344 105 607 286 768 530 82 125 169 302 191 392 44 172 46 288 46 2469 0 2127 -3 2277 -40 2455 -18 86 -111 278 -193 401 -177 263 -423 433 -776 535 l-99 29 -2331 0 -2331 -1 -110 -34z m2655 -374 c416 -144 586 -633 348 -999 -56 -86 -161 -181 -247 -223 l-70 -34 0 -262 -1 -261 82 -28 c182 -60 309 -136 441 -263 207 -199 323 -438 348 -715 6 -66 14 -124 17 -127 8 -7 634 -233 867 -314 123 -42 161 -51 163 -41 2 8 -20 65 -48 128 -124 274 -133 314 -92 399 77 158 262 202 391 93 36 -30 145 -243 351 -689 159 -344 172 -384 151 -473 -23 -93 -77 -129 -481 -319 -452 -213 -624 -283 -697 -283 -104 0 -222 135 -223 254 0 115 63 181 269 278 197 93 196 92 196 108 0 23 -908 350 -971 350 -26 0 -37 -8 -66 -52 -57 -86 -181 -220 -246 -268 -99 -73 -258 -157 -353 -187 l-89 -28 0 -543 0 -543 164 154 c177 166 225 198 303 199 131 1 244 -119 244 -258 0 -43 -5 -62 -32 -101 -17 -26 -201 -217 -408 -424 -394 -393 -422 -417 -514 -426 -86 -8 -172 63 -618 513 -169 170 -314 323 -323 341 -24 48 -22 165 5 220 33 68 120 128 202 139 79 11 182 -53 332 -206 39 -39 87 -85 108 -102 l37 -30 0 534 0 534 -73 23 c-92 28 -228 96 -315 157 -82 58 -210 186 -282 283 -46 61 -57 71 -84 71 -65 0 -971 -327 -971 -350 0 -8 11 -20 25 -27 14 -6 95 -45 181 -87 130 -62 163 -82 197 -121 88 -100 81 -227 -16 -328 -96 -100 -155 -100 -389 0 -377 160 -811 375 -874 431 -69 62 -86 139 -53 239 17 51 300 665 391 848 72 144 94 172 161 203 146 67 302 -6 347 -163 20 -66 7 -116 -73 -291 -74 -164 -85 -191 -81 -203 3 -7 74 13 174 48 232 79 848 303 857 310 4 3 12 56 18 116 28 282 134 509 329 704 133 132 290 227 474 287 l87 28 0 256 -1 255 -79 38 c-142 69 -268 209 -325 361 -136 365 68 766 447 877 92 27 297 22 388 -10z"/>
 <path d="M3850 4784 c-131 -28 -276 -118 -368 -227 -54 -65 -117 -193 -132 -270 -16 -80 -14 -240 5 -312 55 -215 214 -387 427 -462 96 -34 268 -43 372 -19 95 22 213 86 291 158 144 133 215 291 216 481 0 114 -21 212 -66 301 -137 273 -441 416 -745 350z"/>
 </g>

</svg>