<?xml version="1.0" encoding="iso-8859-1"?>
<!-- Generator: Adobe Illustrator 17.1.0, SVG Export Plug-In . SVG Version: 6.00 Build 0)  -->
<!DOCTYPE svg PUBLIC "-//W3C//DTD SVG 1.1//EN" "http://www.w3.org/Graphics/SVG/1.1/DTD/svg11.dtd">
<svg version="1.1" id="Capa_1" xmlns="http://www.w3.org/2000/svg" xmlns:xlink="http://www.w3.org/1999/xlink" x="0px" y="0px"
	 viewBox="0 0 214.579 214.579" style="enable-background:new 0 0 214.579 214.579;" xml:space="preserve">
<path d="M209.579,180.547h-5.651v-37.916c0-2.762-2.239-5-5-5h-35.349c-0.365-0.409-0.786-0.777-1.292-1.058l-49.73-27.572V76.947
	h41.192c2.761,0,5-2.238,5-5v-5.714c0-2.762-2.239-5-5-5h-5.65V23.317c0-2.762-2.239-5-5-5H72.015c-2.761,0-5,2.238-5,5v37.916
	h-5.65c-2.761,0-5,2.238-5,5v5.714c0,2.762,2.239,5,5,5h41.192v32.055l-49.73,27.572c-0.506,0.28-0.927,0.649-1.292,1.058H15.65
	c-2.761,0-5,2.238-5,5v37.916H5c-2.761,0-5,2.238-5,5v5.715c0,2.762,2.239,5,5,5h92.384c2.761,0,5-2.238,5-5v-5.715
	c0-2.762-2.239-5-5-5h-5.65v-37.916c0-2.762-2.239-5-5-5H71.543l36.014-19.967l36.014,19.967h-15.726c-2.761,0-5,2.238-5,5v37.916
	h-5.65c-2.761,0-5,2.238-5,5v5.715c0,2.762,2.239,5,5,5h92.384c2.761,0,5-2.238,5-5v-5.715
	C214.579,182.785,212.34,180.547,209.579,180.547z M77.015,28.317h61.083v32.01H77.015V28.317z M81.734,180.547H20.65v-32.916
	h61.084V180.547z M132.845,147.631h61.083v32.07h-61.083V147.631z"/>
</svg>
