<?xml version="1.0" encoding="utf-8"?>
<!-- Generator: Adobe Illustrator 18.1.0, SVG Export Plug-In . SVG Version: 6.00 Build 0)  -->
<!DOCTYPE svg PUBLIC "-//W3C//DTD SVG 1.1//EN" "http://www.w3.org/Graphics/SVG/1.1/DTD/svg11.dtd">
<svg version="1.1" id="Layer_1" xmlns="http://www.w3.org/2000/svg" xmlns:xlink="http://www.w3.org/1999/xlink" x="0px" y="0px"
	 viewBox="0 0 248.2 248.2" enable-background="new 0 0 248.2 248.2" xml:space="preserve">
<path fill="#47BA04" d="M26,229.6H0V99.1c0-13.4,5.5-21.5,10.1-26c10.2-10,24-10.3,26.3-10.3h40.9c14.6,0,23,5.9,27.6,10.9
	c9.1,9.9,9.2,22.7,9,26.1v49.2c0,14.2-5.8,22.6-10.6,27.1c-9.9,9.3-23,9.5-26.1,9.4H26V229.6z M78.2,159.4c1.4,0,5.3-0.4,7.4-2.4
	c1.6-1.5,2.4-4.2,2.4-8.1l0-50.5c0-1.4-0.3-5.1-2.3-7.2c-1.9-2-5.6-2.4-8.4-2.4H36.2C26,88.8,26,96.5,26,99.1v60.3L78.2,159.4z"/>
<path fill="#47BA04" d="M222.2,18.5h26v130.6c0,13.4-5.5,21.5-10.1,26c-10.2,10-24,10.3-26.3,10.3h-40.9c-14.6,0-23-5.9-27.6-10.9
	c-9.1-9.9-9.2-22.7-9-26.1V99.3c0-14.2,5.8-22.6,10.6-27.1c9.9-9.3,23-9.5,26.1-9.4h51.2V18.5z M170,88.8c-1.4,0-5.3,0.4-7.4,2.4
	c-1.6,1.5-2.4,4.2-2.4,8.1l0,50.5c0,1.4,0.3,5.1,2.3,7.2c1.9,2,5.6,2.4,8.4,2.4H212c10.3-0.1,10.3-7.8,10.3-10.4V88.8L170,88.8z"/>
</svg>
