<svg xmlns="http://www.w3.org/2000/svg" width="64" height="64" fill-rule="evenodd"><path d="M18.97 21.14c0 5.293-4.248 9.585-9.487 9.585S0 26.432 0 21.14s4.245-9.585 9.485-9.585 9.485 4.293 9.485 9.585z" fill="#e38000"/><path d="M18.97 42.865c0 5.29-4.248 9.58-9.487 9.58S0 48.156 0 42.86s4.245-9.585 9.485-9.585 9.485 4.293 9.485 9.585zM41.488 21.14c0 5.293-4.25 9.585-9.49 9.585s-9.485-4.29-9.485-9.585 4.248-9.585 9.485-9.585 9.487 4.293 9.487 9.585zm0 21.726c0 5.29-4.25 9.58-9.49 9.58s-9.485-4.29-9.485-9.585 4.248-9.585 9.485-9.585 9.487 4.293 9.487 9.585zM64 21.14c0 5.293-4.245 9.585-9.485 9.585s-9.485-4.29-9.485-9.585 4.245-9.585 9.485-9.585S64 15.848 64 21.14z" fill="#e17f03"/><path d="M64 42.865c0 5.29-4.245 9.58-9.485 9.58s-9.485-4.29-9.485-9.585 4.245-9.585 9.485-9.585S64 37.57 64 42.86z" fill="#e38000"/></svg>