<!DOCTYPE svg PUBLIC "-//W3C//DTD SVG 20010904//EN" "http://www.w3.org/TR/2001/REC-SVG-20010904/DTD/svg10.dtd">
<svg version="1.0" xmlns="http://www.w3.org/2000/svg" width="690px" height="690px" viewBox="0 0 6900 6900" preserveAspectRatio="xMidYMid meet">
<g id="layer101" fill="#020300" stroke="none">
 <path d="M0 3450 l0 -3450 3450 0 3450 0 0 3450 0 3450 -3450 0 -3450 0 0 -3450z"/>
 </g>
<g id="layer102" fill="#323316" stroke="none">
 <path d="M0 3450 l0 -3450 3450 0 3450 0 0 3450 0 3450 -952 0 c-524 0 -959 -4 -967 -9 -10 -7 -11 -19 -4 -57 6 -27 8 -73 5 -102 -2 -29 0 -58 6 -65 11 -15 13 -485 1 -493 -5 -3 -9 -31 -9 -62 0 -69 -4 -101 -14 -124 -4 -9 -5 -21 -2 -26 3 -6 -1 -26 -9 -46 -9 -21 -15 -42 -14 -49 1 -7 -3 -25 -10 -41 -6 -16 -10 -31 -7 -33 2 -3 -11 -36 -30 -73 -19 -38 -34 -72 -34 -76 0 -4 -29 -51 -65 -105 -36 -55 -65 -103 -65 -107 0 -5 -9 -17 -20 -27 -27 -25 -152 -209 -179 -265 -13 -25 -38 -74 -57 -110 -18 -36 -34 -72 -34 -81 0 -8 -5 -20 -11 -26 -15 -15 -47 -102 -66 -178 -8 -33 -19 -64 -24 -69 -5 -6 -9 -22 -9 -37 0 -15 -5 -31 -10 -34 -6 -4 -10 -14 -9 -23 1 -10 -3 -30 -10 -46 -6 -16 -9 -36 -6 -43 2 -8 -2 -28 -11 -45 -8 -16 -13 -37 -10 -45 4 -9 1 -22 -5 -29 -6 -7 -12 -30 -13 -51 -1 -21 -5 -44 -9 -51 -5 -6 -6 -16 -2 -21 3 -5 0 -13 -5 -16 -7 -4 -8 -19 -5 -36 4 -17 2 -35 -3 -42 -9 -12 -11 -19 -16 -87 -2 -19 -4 -37 -6 -40 -5 -9 -12 -55 -14 -95 -2 -22 -4 -42 -6 -45 -4 -8 -11 -51 -14 -95 -2 -22 -6 -47 -9 -55 -3 -8 -6 -22 -6 -30 -5 -109 -7 -137 -12 -145 -7 -12 -13 -92 -11 -154 1 -25 -3 -50 -8 -56 -5 -6 -9 -25 -9 -41 0 -16 -2 -90 -5 -164 -8 -213 -9 -507 -2 -519 9 -14 142 -15 151 -1 3 5 23 9 43 9 20 0 80 0 132 0 52 1 113 -2 135 -5 22 -3 63 -6 90 -7 28 -2 56 -6 63 -10 6 -5 16 -6 21 -2 5 3 13 0 16 -5 4 -6 17 -10 28 -9 12 2 39 -3 59 -10 21 -7 42 -10 47 -7 5 4 22 1 38 -6 15 -6 33 -13 38 -13 6 -1 23 -7 38 -13 15 -7 31 -11 35 -10 4 1 19 -4 34 -10 15 -6 53 -19 85 -28 32 -9 69 -22 83 -29 14 -7 41 -19 60 -28 64 -27 275 -131 290 -143 8 -6 41 -25 72 -42 55 -29 136 -92 225 -176 l42 -39 -24 -19 c-13 -10 -26 -18 -30 -18 -15 0 -95 -62 -95 -74 0 -11 58 -58 95 -76 23 -12 197 -186 239 -240 64 -82 140 -260 118 -274 -8 -5 -100 16 -150 34 -18 7 -38 10 -46 7 -7 -3 -31 1 -53 8 -47 16 -432 19 -533 4 -36 -5 -85 -12 -110 -14 -41 -3 -98 -10 -156 -17 -11 -2 -49 -29 -83 -61 -60 -55 -155 -125 -213 -157 -40 -22 -158 -80 -198 -97 -19 -8 -43 -19 -52 -24 -10 -5 -23 -9 -28 -9 -6 0 -32 -9 -57 -21 -26 -12 -56 -22 -67 -24 -21 -2 -198 -51 -226 -62 -8 -3 -19 -7 -25 -8 -5 -1 -12 -3 -15 -4 -3 -1 -22 -4 -43 -6 -20 -2 -43 -7 -50 -12 -6 -4 -31 -8 -55 -10 -23 -1 -48 -6 -55 -10 -6 -4 -25 -9 -42 -10 -16 -1 -48 -5 -70 -8 -22 -3 -60 -7 -85 -9 -25 -2 -61 -6 -80 -10 -19 -4 -71 -9 -115 -11 -44 -3 -98 -7 -120 -9 -22 -3 -89 -5 -150 -6 -85 -1 -114 -5 -127 -17 -10 -9 -18 -19 -18 -23 0 -4 -20 -28 -44 -54 -24 -27 -50 -60 -57 -75 -7 -14 -23 -37 -36 -51 -42 -47 -114 -189 -158 -310 -32 -91 -65 -160 -76 -160 -12 0 -69 83 -69 101 0 10 -4 20 -9 24 -5 3 -17 30 -26 61 -9 30 -21 67 -27 82 -6 15 -12 38 -14 51 -2 13 -6 31 -10 40 -25 55 -22 277 5 344 6 16 9 32 6 37 -5 7 -50 20 -92 26 -12 1 -31 8 -43 14 -11 6 -25 8 -30 5 -5 -3 -23 1 -40 10 -17 9 -35 13 -41 10 -5 -4 -21 1 -35 10 -13 9 -29 13 -34 10 -9 -6 -16 27 -10 50 1 6 4 26 6 45 3 19 8 44 13 55 5 11 18 52 30 90 27 85 26 83 96 225 127 259 389 562 665 768 36 27 71 56 79 65 7 10 18 17 23 17 5 0 57 33 116 72 59 40 114 77 124 83 25 15 189 96 218 108 14 5 37 16 51 23 14 7 29 11 32 7 4 -3 13 0 21 6 8 7 29 14 47 16 61 8 66 22 72 207 4 93 2 170 -3 173 -4 3 -9 67 -9 143 -1 134 -5 242 -11 252 -2 4 -6 77 -11 200 0 8 -3 22 -7 30 -4 12 -10 69 -13 150 0 8 -3 22 -7 30 -3 8 -7 33 -8 55 -3 43 -10 87 -14 95 -2 3 -4 21 -6 40 -3 39 -10 85 -14 85 -1 0 -3 21 -5 48 -2 26 -7 53 -12 60 -4 6 -8 29 -9 49 -1 20 -6 43 -10 50 -5 7 -9 25 -10 40 -1 15 -5 35 -9 45 -4 10 -9 30 -10 46 -1 15 -8 34 -15 42 -6 8 -9 18 -6 24 3 5 1 22 -6 38 -6 15 -11 31 -10 35 1 4 -3 20 -10 35 -6 15 -12 33 -13 38 0 6 -7 24 -14 40 -7 17 -15 45 -18 63 -3 18 -10 35 -14 38 -5 3 -9 14 -9 25 0 10 -4 27 -9 37 -5 9 -13 28 -19 42 -55 134 -148 318 -177 350 -8 9 -15 24 -15 33 0 9 -5 19 -10 22 -6 4 -17 21 -25 38 -8 18 -26 50 -39 72 -40 68 -113 217 -137 280 -12 33 -29 69 -36 81 -7 11 -11 23 -8 26 3 3 0 18 -6 34 -7 16 -11 34 -10 40 1 7 -4 25 -10 40 -7 16 -13 46 -14 66 -2 20 -7 43 -12 50 -4 7 -9 29 -10 48 -3 63 -5 75 -10 90 -4 8 -7 38 -9 65 -2 28 -5 68 -8 90 -3 22 -8 81 -11 130 -2 50 -7 117 -9 150 -2 33 -5 99 -6 147 -2 104 -11 117 -61 86 -18 -12 -46 -29 -61 -38 -37 -20 -178 -149 -178 -161 0 -5 -17 -33 -38 -62 -21 -29 -45 -68 -54 -87 -33 -71 -48 -113 -43 -118 2 -2 -1 -14 -7 -25 -6 -12 -13 -39 -15 -62 -2 -22 -6 -58 -9 -80 -7 -53 -7 -154 0 -240 3 -38 8 -95 10 -125 3 -30 8 -73 11 -95 4 -22 7 -51 6 -65 0 -14 3 -32 6 -40 3 -8 7 -31 9 -50 5 -47 43 -201 55 -222 5 -10 9 -27 9 -37 0 -11 5 -33 11 -48 6 -15 15 -37 19 -48 24 -60 85 -206 102 -245 24 -55 165 -339 178 -360 26 -42 108 -219 103 -223 -2 -3 1 -16 8 -29 7 -12 12 -27 11 -31 -1 -4 4 -20 13 -36 8 -16 12 -31 9 -33 -2 -3 1 -18 7 -34 6 -16 11 -41 10 -56 -1 -15 2 -29 7 -32 4 -2 9 -40 10 -83 2 -43 8 -93 14 -110 9 -25 9 -44 0 -80 -6 -27 -12 -82 -13 -123 -2 -41 -7 -81 -12 -87 -5 -7 -7 -19 -4 -27 3 -7 -1 -26 -9 -41 -8 -15 -12 -30 -9 -33 3 -3 -2 -16 -11 -30 -8 -13 -13 -26 -10 -29 11 -11 -68 -144 -119 -200 -44 -49 -163 -143 -181 -143 -2 0 -21 -10 -42 -23 -76 -48 -176 -70 -312 -71 -140 -1 -182 10 -282 70 -100 61 -187 181 -232 319 -25 79 -22 200 8 267 9 21 16 42 16 49 0 6 37 48 83 93 68 67 93 85 138 99 34 11 69 16 90 12 50 -9 113 -27 124 -37 5 -4 16 -8 25 -8 21 0 45 -26 68 -74 18 -37 18 -39 -2 -97 -15 -45 -25 -59 -40 -60 -56 -3 -83 5 -111 31 -42 38 -72 52 -98 44 -29 -8 -64 -41 -81 -75 -14 -28 -19 -136 -7 -154 4 -5 13 -28 20 -50 35 -101 126 -195 219 -226 50 -16 210 -6 259 17 113 54 203 159 262 309 26 66 35 107 45 193 2 18 6 35 10 39 8 8 8 158 0 166 -4 4 -9 30 -11 59 -2 29 -8 57 -13 63 -4 5 -13 36 -20 69 -16 80 -48 153 -225 511 -83 171 -162 337 -175 370 -13 33 -28 66 -33 73 -5 7 -10 20 -11 30 -2 25 -38 135 -48 147 -4 5 -8 21 -8 35 0 14 -4 30 -8 35 -13 15 -32 88 -32 122 0 16 -3 33 -7 36 -3 4 -8 22 -10 39 -8 58 -10 73 -12 73 -3 0 -9 49 -16 110 -2 22 -6 63 -10 90 -11 93 -8 408 4 454 7 23 10 45 7 48 -3 3 1 18 9 34 9 16 14 32 14 36 -2 9 20 64 54 133 12 25 43 75 69 113 27 37 48 69 48 72 0 9 124 130 173 169 26 21 47 42 47 47 0 5 -605 9 -1410 9 l-1410 0 0 -3450z"/>
 <path d="M3805 6808 c5 -88 13 -193 35 -493 5 -71 14 -197 20 -280 29 -414 36 -455 75 -455 35 0 35 36 5 458 -5 78 -14 205 -20 282 -5 77 -14 202 -20 278 -5 75 -12 174 -16 220 l-7 82 -39 0 -40 0 7 -92z"/>
 <path d="M4145 6533 c4 -203 8 -380 9 -395 2 -16 3 -138 4 -272 2 -231 3 -245 23 -270 20 -26 22 -26 40 -10 19 17 19 34 14 503 -3 267 -8 559 -11 649 l-6 162 -41 0 -40 0 8 -367z"/>
 <path d="M3045 6880 c3 -5 12 -10 20 -10 8 0 17 5 20 10 4 6 -5 10 -20 10 -15 0 -24 -4 -20 -10z"/>
 <path d="M3207 6504 c-27 -27 17 -155 70 -206 43 -41 69 -51 130 -50 68 2 131 46 159 111 16 37 19 137 5 145 -5 4 -23 -11 -40 -33 -33 -41 -84 -71 -123 -71 -34 0 -128 47 -164 81 -17 16 -33 26 -37 23z"/>
 <path d="M3295 5960 c-12 -19 5 -189 26 -270 47 -177 129 -371 352 -830 41 -85 88 -195 105 -245 61 -182 116 -445 142 -675 6 -52 15 -99 20 -104 48 -48 5 429 -82 904 -5 30 -13 75 -17 100 -10 52 -37 186 -51 248 -6 23 -14 61 -20 85 -18 83 -53 232 -56 244 -1 6 -31 31 -66 54 -35 23 -102 81 -149 128 -91 92 -120 144 -159 289 -18 67 -33 92 -45 72z"/>
 <path d="M4083 2446 c-29 -8 -67 -22 -85 -33 -31 -18 -91 -87 -100 -115 -4 -11 -13 -11 -51 0 -65 17 -111 15 -190 -7 -77 -21 -132 -56 -187 -119 -50 -56 -69 -108 -47 -129 21 -21 40 -8 80 52 51 77 135 125 221 125 36 0 115 -33 128 -53 3 -5 -3 -27 -14 -49 -22 -41 -37 -93 -45 -148 -6 -42 26 -90 60 -90 63 0 229 73 288 127 72 65 44 108 -105 157 l-94 32 13 29 c19 43 58 93 96 121 26 19 45 24 93 24 34 0 77 -4 96 -9 103 -26 232 -43 242 -33 26 26 -61 75 -185 106 -94 24 -154 27 -214 12z"/>
 <path d="M4883 2187 c-3 -5 -16 -6 -28 -3 -13 3 -27 2 -30 -4 -3 -6 -16 -8 -29 -4 -14 3 -27 -1 -35 -10 -8 -9 -21 -16 -31 -16 -10 0 -35 -8 -56 -17 -22 -9 -43 -16 -47 -15 -5 2 -24 -11 -43 -28 -19 -16 -39 -30 -45 -30 -10 0 -149 -135 -149 -145 0 -4 -13 -23 -29 -43 -38 -49 -55 -100 -40 -119 12 -14 41 -31 96 -57 17 -9 34 -20 38 -26 3 -5 17 -10 29 -10 13 0 29 -7 36 -15 15 -18 73 -36 152 -49 15 -2 44 -10 65 -17 46 -15 97 -19 228 -18 141 0 184 5 230 23 22 9 55 18 72 20 18 2 38 8 45 13 7 6 25 13 39 16 33 8 82 31 144 67 28 16 65 36 82 44 18 9 39 30 48 46 14 26 14 33 1 58 -8 16 -22 34 -30 41 -9 8 -16 19 -16 27 0 7 -8 19 -18 26 -10 7 -21 21 -25 31 -4 9 -18 22 -31 27 -14 5 -32 21 -42 35 -9 14 -22 25 -30 25 -7 0 -28 13 -47 29 -18 16 -46 33 -63 37 -16 4 -38 12 -49 18 -11 6 -24 11 -30 12 -5 0 -22 6 -37 12 -15 6 -35 9 -43 6 -8 -4 -22 -1 -30 6 -8 6 -19 9 -25 5 -5 -3 -16 -3 -22 2 -18 10 -198 11 -205 0z m125 -126 c11 -21 18 -41 15 -44 -3 -3 -1 -12 3 -19 10 -15 12 -36 14 -103 1 -79 -7 -127 -31 -183 -18 -40 -25 -49 -36 -41 -7 7 -13 20 -13 30 0 10 -5 21 -11 24 -6 4 -8 14 -5 22 3 8 0 24 -6 36 -7 12 -13 57 -15 99 -2 68 2 83 28 134 16 32 29 64 29 71 0 21 7 15 28 -26z"/>
 <path d="M3475 1792 c-4 -4 -16 -8 -28 -8 -68 -4 -122 -21 -177 -52 -8 -5 -33 -18 -54 -28 -21 -10 -52 -31 -69 -46 -16 -16 -31 -28 -33 -28 -2 0 -45 -42 -96 -94 -97 -98 -174 -211 -204 -301 -9 -27 -19 -57 -22 -65 -3 -8 -7 -22 -8 -30 -1 -8 -6 -26 -12 -40 -11 -28 -5 -87 10 -96 8 -5 246 -8 258 -3 3 1 16 3 30 4 96 9 129 15 161 29 20 8 39 13 42 10 3 -3 19 2 36 10 16 9 39 16 50 16 21 0 87 28 137 59 16 10 41 22 55 26 60 19 238 174 266 232 8 18 19 33 24 33 12 0 80 104 114 173 26 54 26 59 11 76 -20 22 -130 72 -168 76 -10 1 -24 8 -32 15 -9 6 -21 10 -28 7 -7 -2 -28 2 -47 9 -19 8 -42 12 -52 9 -9 -3 -20 -1 -23 4 -7 11 -130 14 -141 3z m-280 -283 c4 -6 13 -8 20 -5 8 3 25 -4 38 -15 14 -10 30 -19 36 -19 25 0 91 -84 117 -148 14 -37 28 -70 31 -75 2 -4 -3 -10 -12 -13 -10 -4 -34 5 -61 25 -25 17 -48 31 -52 31 -9 0 -43 44 -55 70 -4 8 -16 29 -27 45 -11 17 -25 41 -31 55 -6 14 -15 33 -20 43 -10 19 5 25 16 6z"/>
 <path d="M5515 1626 c-72 -19 -175 -101 -159 -127 3 -5 60 -9 127 -9 128 0 251 -14 524 -58 34 -6 67 -13 72 -16 5 -4 12 -2 15 2 7 11 -51 67 -95 92 -112 64 -192 89 -354 111 -38 5 -74 11 -80 13 -5 1 -28 -2 -50 -8z"/>
 <path d="M2875 853 c-38 -7 -66 -27 -88 -62 -20 -32 -22 -48 -21 -156 2 -216 61 -390 75 -220 3 39 13 86 21 105 122 262 121 260 88 302 -21 27 -43 36 -75 31z"/>
 </g>
<g id="layer103" fill="#68992c" stroke="none">
 <path d="M0 3450 l0 -3450 3450 0 3450 0 0 3450 0 3450 -957 -2 -958 -3 5 -115 c7 -187 6 -599 -3 -680 -29 -276 -84 -423 -241 -645 -191 -269 -333 -530 -371 -685 -2 -8 -12 -42 -23 -75 -25 -76 -36 -118 -34 -128 1 -4 -2 -16 -8 -27 -6 -11 -12 -32 -14 -47 -3 -15 -9 -42 -14 -60 -6 -17 -8 -34 -5 -37 3 -3 0 -18 -6 -33 -6 -16 -13 -44 -16 -63 -4 -37 -20 -140 -35 -230 -33 -205 -64 -455 -79 -651 -4 -64 -11 -121 -14 -125 -3 -5 -8 -151 -12 -324 -6 -264 -5 -318 7 -334 14 -17 20 -18 104 -6 107 14 329 15 401 1 29 -6 59 -8 67 -5 9 3 31 1 49 -6 19 -6 50 -12 68 -14 33 -4 145 -29 204 -47 91 -27 131 -42 240 -85 161 -64 369 -171 469 -240 96 -68 216 -171 216 -188 0 -6 -20 -21 -44 -34 -24 -13 -58 -35 -75 -50 l-32 -27 62 -45 c89 -65 249 -225 299 -298 23 -35 52 -88 66 -117 26 -59 36 -141 18 -138 -28 5 -63 14 -114 28 -30 9 -68 17 -85 20 -16 2 -52 8 -80 14 -68 13 -384 13 -470 -1 -38 -5 -91 -11 -116 -13 -25 -1 -59 -5 -75 -9 -16 -3 -49 -8 -74 -11 -35 -5 -56 -17 -102 -60 -81 -76 -110 -96 -218 -157 -143 -81 -331 -158 -510 -208 -25 -7 -56 -16 -70 -20 -14 -5 -50 -14 -80 -20 -30 -7 -71 -16 -90 -20 -40 -10 -99 -20 -150 -26 -19 -2 -46 -6 -60 -10 -14 -3 -55 -8 -91 -10 -37 -2 -78 -7 -90 -12 -13 -4 -44 -7 -69 -5 -25 1 -79 -2 -120 -8 -41 -6 -126 -11 -189 -10 l-114 0 -34 -37 c-53 -58 -148 -185 -190 -254 -43 -70 -73 -133 -114 -235 -5 -13 -13 -33 -18 -45 -5 -13 -17 -45 -27 -71 -9 -26 -22 -50 -27 -54 -15 -9 -46 33 -84 117 -47 102 -49 109 -63 160 -6 25 -15 59 -20 75 -15 55 -21 199 -10 270 21 137 26 127 -60 148 -41 10 -91 22 -110 27 -19 5 -56 14 -83 21 -26 6 -50 16 -53 21 -6 9 9 96 28 163 55 199 156 396 299 585 84 111 338 367 459 462 108 85 338 241 420 285 73 39 211 98 288 122 116 37 105 -4 97 359 -4 175 -9 328 -11 342 -3 14 -9 86 -15 160 -21 287 -64 595 -118 840 -9 42 -14 62 -40 168 -69 275 -163 511 -299 747 -16 28 -38 66 -49 85 -11 19 -33 58 -50 85 -28 49 -65 123 -118 238 -45 99 -81 219 -91 300 -2 21 -8 46 -13 55 -5 9 -9 34 -9 54 0 20 -5 53 -12 73 -7 20 -9 46 -6 58 3 12 -1 51 -8 87 -8 36 -12 83 -10 105 2 22 -1 74 -6 115 -6 41 -11 130 -11 197 -1 87 -5 125 -14 133 -31 26 -219 -119 -302 -233 -48 -65 -110 -212 -130 -306 -22 -104 -23 -374 -2 -506 5 -27 10 -68 13 -90 8 -74 15 -115 48 -255 25 -107 86 -286 139 -410 23 -52 159 -325 230 -460 151 -287 197 -612 134 -949 -11 -55 -55 -171 -89 -231 -47 -85 -158 -187 -257 -237 -140 -70 -205 -87 -349 -87 -140 -1 -182 10 -282 70 -147 90 -252 284 -250 465 1 79 4 96 34 155 38 77 119 158 194 194 99 48 261 18 327 -59 15 -18 28 -42 28 -54 5 -72 -12 -122 -49 -141 -34 -18 -78 -3 -138 46 -25 21 -52 38 -60 38 -25 0 -83 -61 -100 -107 -15 -40 -16 -53 -5 -106 26 -127 94 -225 191 -275 63 -33 68 -34 155 -30 75 4 102 10 160 37 141 65 243 216 283 421 24 123 34 202 27 228 -4 15 -11 54 -15 87 -14 111 -49 217 -130 400 -27 60 -58 122 -181 365 -113 221 -169 349 -184 423 -2 9 -7 22 -10 27 -3 5 -8 18 -10 27 -3 10 -9 34 -14 53 -35 130 -42 161 -70 305 -6 28 -13 79 -16 114 -3 36 -8 68 -11 73 -3 5 -6 114 -6 242 -1 262 8 322 68 453 57 126 120 212 245 336 l119 117 -1410 0 -1410 0 0 -3450z"/>
 <path d="M4840 2178 c-121 -25 -167 -41 -245 -87 -93 -53 -194 -157 -241 -246 l-39 -76 28 -23 c42 -34 209 -116 267 -131 14 -3 41 -11 60 -16 142 -38 337 -50 454 -28 98 19 233 67 341 121 118 59 165 92 165 117 0 31 -74 133 -141 196 -66 61 -172 124 -244 144 -138 39 -302 51 -405 29z m183 -139 c28 -87 25 -221 -9 -327 l-28 -87 -19 45 c-34 76 -46 138 -44 223 2 67 7 94 31 145 16 34 34 61 40 59 6 -2 19 -28 29 -58z"/>
 <path d="M3455 1783 c-132 -14 -264 -85 -401 -215 -90 -85 -140 -151 -192 -249 -68 -128 -111 -296 -82 -314 25 -15 301 -4 380 15 19 5 58 14 85 21 199 46 362 134 491 264 115 116 242 312 228 350 -7 16 -105 71 -159 87 -118 36 -251 52 -350 41z m-212 -284 c81 -42 127 -81 152 -133 23 -47 57 -156 48 -156 -2 0 -25 10 -51 22 -80 38 -167 146 -211 261 -13 34 2 36 62 6z"/>
 </g>
<g id="layer104" fill="#eaf900" stroke="none">
 <path d="M1573 3557 c-3 -5 -16 -6 -28 -3 -13 3 -27 1 -30 -5 -4 -5 -17 -9 -28 -8 -12 0 -26 0 -32 -1 -5 -2 -14 -4 -20 -5 -5 -1 -17 -4 -25 -7 -27 -10 -144 -41 -162 -43 -9 0 -23 -7 -32 -14 -8 -7 -20 -10 -25 -7 -5 4 -12 2 -16 -3 -3 -6 -43 -29 -88 -52 -148 -75 -163 -84 -192 -111 -17 -16 -35 -28 -42 -28 -7 0 -17 -9 -23 -20 -6 -11 -16 -20 -22 -20 -12 0 -195 -182 -213 -211 -5 -10 -35 -55 -66 -101 -67 -98 -106 -171 -139 -253 -13 -33 -30 -69 -37 -81 -7 -11 -10 -23 -7 -26 3 -4 -2 -17 -10 -31 -9 -13 -14 -32 -10 -41 3 -9 -1 -28 -10 -42 -10 -14 -14 -33 -11 -45 4 -10 0 -32 -8 -48 -9 -18 -13 -48 -10 -79 2 -28 0 -53 -4 -55 -9 -6 -9 -205 1 -227 3 -8 4 -33 2 -55 -1 -22 1 -45 7 -52 5 -7 10 -29 11 -50 2 -21 8 -51 15 -66 6 -16 9 -33 6 -38 -3 -5 0 -19 7 -31 7 -13 13 -27 14 -33 0 -5 11 -32 22 -58 12 -27 22 -51 22 -54 0 -15 88 -176 131 -241 27 -40 49 -75 49 -79 0 -7 6 -13 151 -160 62 -62 116 -113 121 -113 5 0 23 -13 39 -29 16 -16 53 -41 82 -55 55 -28 76 -40 117 -67 14 -9 40 -20 57 -23 17 -4 37 -14 43 -22 7 -7 16 -11 21 -9 4 3 16 1 26 -4 30 -16 88 -36 96 -33 4 1 20 -4 36 -13 16 -8 31 -12 34 -8 4 3 24 -2 46 -11 22 -8 47 -13 55 -10 8 3 21 2 28 -2 6 -4 21 -8 32 -9 12 -1 59 -5 106 -9 50 -4 122 -2 175 4 50 6 108 12 131 14 57 4 70 13 48 37 -9 10 -24 19 -32 19 -28 0 -202 105 -202 122 0 5 -7 11 -16 15 -17 6 -164 151 -164 162 0 3 -20 28 -45 56 -25 27 -45 55 -45 62 0 6 -10 24 -23 40 -29 35 -91 163 -83 171 3 3 -1 13 -10 23 -9 10 -14 25 -11 32 3 8 -1 24 -9 36 -8 12 -12 25 -9 31 3 5 -2 21 -10 34 -11 17 -15 35 -10 55 4 18 2 32 -5 36 -7 4 -9 18 -6 30 3 13 2 26 -3 29 -12 8 -11 208 1 223 5 7 7 17 3 23 -4 6 -1 17 5 25 7 8 9 26 6 39 -3 14 -1 37 6 53 6 15 10 34 9 40 -1 7 4 23 11 35 7 13 11 28 10 34 -1 6 4 17 12 23 8 7 13 18 10 25 -3 7 2 19 11 26 8 7 15 18 15 25 0 23 74 158 102 186 16 15 28 31 28 36 0 14 130 153 143 153 7 0 28 17 48 38 43 43 176 125 190 117 5 -4 12 1 15 9 3 9 13 16 20 16 8 0 25 6 37 14 50 33 240 77 339 80 20 1 40 4 44 9 11 11 92 9 99 -3 3 -5 27 -9 53 -8 26 0 65 -2 87 -5 57 -8 246 -64 258 -76 6 -6 19 -11 28 -11 9 0 20 -7 23 -16 3 -8 10 -13 16 -9 5 3 21 -1 34 -10 14 -9 29 -14 34 -11 12 7 8 40 -7 57 -22 25 -121 180 -121 190 0 5 -7 12 -16 16 -8 3 -20 16 -25 29 -10 27 -46 33 -55 9 -4 -9 -11 -14 -18 -13 -6 1 -22 -4 -34 -11 -13 -7 -26 -10 -29 -7 -3 3 -15 -1 -25 -9 -13 -8 -33 -11 -54 -8 -20 3 -40 1 -49 -7 -8 -7 -21 -10 -30 -7 -8 4 -17 2 -20 -3 -8 -13 -52 -13 -61 1 -3 6 -17 8 -29 5 -13 -3 -27 -1 -30 5 -4 5 -19 7 -35 4 -20 -4 -29 -2 -34 11 -4 10 -12 14 -23 10 -9 -4 -23 0 -32 7 -9 8 -28 17 -43 21 -32 7 -188 162 -188 186 0 9 -9 25 -19 34 -11 10 -23 32 -27 49 -4 18 -13 42 -21 54 -8 12 -12 26 -9 31 3 6 -1 26 -9 46 -8 19 -15 46 -15 59 0 29 -31 60 -53 51 -9 -3 -21 -3 -27 1 -16 10 -311 12 -317 2z"/>
 <path d="M2242 3468 c-16 -16 -15 -35 1 -45 6 -4 23 -30 37 -58 27 -54 100 -135 122 -135 8 0 31 -9 53 -20 55 -28 155 -28 180 0 19 21 18 22 -29 65 -26 25 -52 45 -57 45 -5 0 -28 12 -52 27 -49 32 -188 102 -201 103 -5 0 -17 7 -26 15 -13 11 -19 12 -28 3z"/>
 <path d="M4840 2178 c-121 -25 -167 -41 -245 -87 -93 -53 -194 -157 -241 -246 l-39 -76 28 -23 c42 -34 209 -116 267 -131 14 -3 41 -11 60 -16 142 -38 337 -50 454 -28 98 19 233 67 341 121 118 59 165 92 165 117 0 31 -74 133 -141 196 -66 61 -172 124 -244 144 -138 39 -302 51 -405 29z m183 -139 c28 -87 25 -221 -9 -327 l-28 -87 -19 45 c-34 76 -46 138 -44 223 2 67 7 94 31 145 16 34 34 61 40 59 6 -2 19 -28 29 -58z"/>
 <path d="M3455 1783 c-132 -14 -264 -85 -401 -215 -90 -85 -140 -151 -192 -249 -68 -128 -111 -296 -82 -314 25 -15 301 -4 380 15 19 5 58 14 85 21 199 46 362 134 491 264 115 116 242 312 228 350 -7 16 -105 71 -159 87 -118 36 -251 52 -350 41z m-212 -284 c81 -42 127 -81 152 -133 23 -47 57 -156 48 -156 -2 0 -25 10 -51 22 -80 38 -167 146 -211 261 -13 34 2 36 62 6z"/>
 </g>
<g id="layer105" fill="#faf8f6" stroke="none">
 <path d="M1573 3557 c-3 -5 -16 -6 -28 -3 -13 3 -27 1 -30 -5 -4 -5 -17 -9 -28 -8 -12 0 -26 0 -32 -1 -5 -2 -14 -4 -20 -5 -5 -1 -17 -4 -25 -7 -27 -10 -144 -41 -162 -43 -9 0 -23 -7 -32 -14 -8 -7 -20 -10 -25 -7 -5 4 -12 2 -16 -3 -3 -6 -43 -29 -88 -52 -148 -75 -163 -84 -192 -111 -17 -16 -35 -28 -42 -28 -7 0 -17 -9 -23 -20 -6 -11 -16 -20 -22 -20 -12 0 -195 -182 -213 -211 -5 -10 -35 -55 -66 -101 -67 -98 -106 -171 -139 -253 -13 -33 -30 -69 -37 -81 -7 -11 -10 -23 -7 -26 3 -4 -2 -17 -10 -31 -9 -13 -14 -32 -10 -41 3 -9 -1 -28 -10 -42 -10 -14 -14 -33 -11 -45 4 -10 0 -32 -8 -48 -9 -18 -13 -48 -10 -79 2 -28 0 -53 -4 -55 -9 -6 -9 -205 1 -227 3 -8 4 -33 2 -55 -1 -22 1 -45 7 -52 5 -7 10 -29 11 -50 2 -21 8 -51 15 -66 6 -16 9 -33 6 -38 -3 -5 0 -19 7 -31 7 -13 13 -27 14 -33 0 -5 11 -32 22 -58 12 -27 22 -51 22 -54 0 -15 88 -176 131 -241 27 -40 49 -75 49 -79 0 -7 6 -13 151 -160 62 -62 116 -113 121 -113 5 0 23 -13 39 -29 16 -16 53 -41 82 -55 55 -28 76 -40 117 -67 14 -9 40 -20 57 -23 17 -4 37 -14 43 -22 7 -7 16 -11 21 -9 4 3 16 1 26 -4 30 -16 88 -36 96 -33 4 1 20 -4 36 -13 16 -8 31 -12 34 -8 4 3 24 -2 46 -11 22 -8 47 -13 55 -10 8 3 21 2 28 -2 6 -4 21 -8 32 -9 12 -1 59 -5 106 -9 50 -4 122 -2 175 4 50 6 108 12 131 14 57 4 70 13 48 37 -9 10 -24 19 -32 19 -28 0 -202 105 -202 122 0 5 -7 11 -16 15 -17 6 -164 151 -164 162 0 3 -20 28 -45 56 -25 27 -45 55 -45 62 0 6 -10 24 -23 40 -29 35 -91 163 -83 171 3 3 -1 13 -10 23 -9 10 -14 25 -11 32 3 8 -1 24 -9 36 -8 12 -12 25 -9 31 3 5 -2 21 -10 34 -11 17 -15 35 -10 55 4 18 2 32 -5 36 -7 4 -9 18 -6 30 3 13 2 26 -3 29 -12 8 -11 208 1 223 5 7 7 17 3 23 -4 6 -1 17 5 25 7 8 9 26 6 39 -3 14 -1 37 6 53 6 15 10 34 9 40 -1 7 4 23 11 35 7 13 11 28 10 34 -1 6 4 17 12 23 8 7 13 18 10 25 -3 7 2 19 11 26 8 7 15 18 15 25 0 23 74 158 102 186 16 15 28 31 28 36 0 14 130 153 143 153 7 0 28 17 48 38 43 43 176 125 190 117 5 -4 12 1 15 9 3 9 13 16 20 16 8 0 25 6 37 14 50 33 240 77 339 80 20 1 40 4 44 9 11 11 92 9 99 -3 3 -5 27 -9 53 -8 26 0 65 -2 87 -5 57 -8 246 -64 258 -76 6 -6 19 -11 28 -11 9 0 20 -7 23 -16 3 -8 10 -13 16 -9 5 3 21 -1 34 -10 14 -9 29 -14 34 -11 12 7 8 40 -7 57 -22 25 -121 180 -121 190 0 5 -7 12 -16 16 -8 3 -20 16 -25 29 -10 27 -46 33 -55 9 -4 -9 -11 -14 -18 -13 -6 1 -22 -4 -34 -11 -13 -7 -26 -10 -29 -7 -3 3 -15 -1 -25 -9 -13 -8 -33 -11 -54 -8 -20 3 -40 1 -49 -7 -8 -7 -21 -10 -30 -7 -8 4 -17 2 -20 -3 -8 -13 -52 -13 -61 1 -3 6 -17 8 -29 5 -13 -3 -27 -1 -30 5 -4 5 -19 7 -35 4 -20 -4 -29 -2 -34 11 -4 10 -12 14 -23 10 -9 -4 -23 0 -32 7 -9 8 -28 17 -43 21 -32 7 -188 162 -188 186 0 9 -9 25 -19 34 -11 10 -23 32 -27 49 -4 18 -13 42 -21 54 -8 12 -12 26 -9 31 3 6 -1 26 -9 46 -8 19 -15 46 -15 59 0 29 -31 60 -53 51 -9 -3 -21 -3 -27 1 -16 10 -311 12 -317 2z"/>
 <path d="M2242 3468 c-16 -16 -15 -35 1 -45 6 -4 23 -30 37 -58 27 -54 100 -135 122 -135 8 0 31 -9 53 -20 55 -28 155 -28 180 0 19 21 18 22 -29 65 -26 25 -52 45 -57 45 -5 0 -28 12 -52 27 -49 32 -188 102 -201 103 -5 0 -17 7 -26 15 -13 11 -19 12 -28 3z"/>
 </g>

</svg>