<svg width="2500" height="2500" viewBox="0 0 256 256" xmlns="http://www.w3.org/2000/svg" xmlns:xlink="http://www.w3.org/1999/xlink" preserveAspectRatio="xMidYMid"><defs><path id="a" d="M256 128c0 70.692-57.308 128-128 128C57.308 256 0 198.692 0 128 0 57.308 57.308 0 128 0c70.692 0 128 57.308 128 128"/><linearGradient x1="8.59%" y1="1.954%" x2="77.471%" y2="73.896%" id="c"><stop stop-color="#4CB36B" offset="0%"/><stop stop-color="#3EA16F" offset="100%"/></linearGradient></defs><mask id="b" fill="#fff"><use xlink:href="#a"/></mask><use fill="#67BF79" xlink:href="#a"/><path d="M256 128c0 70.692-57.308 128-128 128C57.308 256 0 198.692 0 128 0 57.308 57.308 0 128 0c70.692 0 128 57.308 128 128" fill="#67BF79" mask="url(#b)"/><path d="M63.111 187.022L96.178 72l64.533 60.978L200 90.133l87.533 86.289-110.844 124.889L63.111 187.022" fill="url(#c)" mask="url(#b)"/><path d="M77 189.6c-16.733 0-16.733 0-16.733-16.733V81c0-16.733 0-16.733 16.733-16.733h3.334c16.733 0 16.733 0 16.733 16.733v91.867c0 16.733 0 16.733-16.733 16.733H77zM121.041 189.6c-5.699 0-8.508-2.809-8.508-8.508V72.774c0-5.698 2.809-8.507 8.508-8.507h37.537c32.178 0 52.628 32.273 52.628 63.025 0 30.752-20.628 62.308-52.628 62.308h-37.537z" fill="#FFF" mask="url(#b)"/></svg>