<?xml version="1.0" encoding="utf-8"?>
<!-- Svg Vector Icons : http://www.onlinewebfonts.com/icon -->
<!DOCTYPE svg PUBLIC "-//W3C//DTD SVG 1.1//EN" "http://www.w3.org/Graphics/SVG/1.1/DTD/svg11.dtd">
<svg version="1.1" xmlns="http://www.w3.org/2000/svg" xmlns:xlink="http://www.w3.org/1999/xlink" x="0px" y="0px" viewBox="0 0 1000 1000" enable-background="new 0 0 1000 1000" xml:space="preserve">
<metadata> Svg Vector Icons : http://www.onlinewebfonts.com/icon </metadata>
<g><path d="M500,990C229.4,990,10,770.6,10,500C10,229.4,229.4,10,500,10c270.6,0,490,219.4,490,490C990,770.6,770.6,990,500,990L500,990z M503.1,32.8c-256.3,0-464.1,207.8-464.1,464.1c0,256.3,207.8,464.1,464.1,464.1c256.3,0,464.1-207.7,464.1-464.1C967.2,240.6,759.5,32.8,503.1,32.8L503.1,32.8z M511,825.7c-167.9,2.6-255-241.9-255-241.9l0.9-248c116.1-2.6,135.5-108.2,135.5-108.2l243.6-0.9c1.8,98.5,110,110.8,110,110.8l0.9,252.4C746.7,590,679,823,511,825.7L511,825.7z M720,374.2c0,0-110.1-39.2-111.6-121l-202.1,0.7c0,0-25.7,116.6-122.1,118.8l-0.8,205.8c0,0,81.9,223.2,221.3,221c139.4-2.2,215.9-215.9,215.9-215.9L720,374.2L720,374.2z M502.7,772.7C432,773.8,374,692.2,340.8,632c56-151.1,350-188.8,350-188.8C449.9,418.5,344,512.5,310.6,552l0.5-148.1c77.3-1.8,108.6-121.5,108.6-121.5l162.3-0.6c1.2,65.6,110.8,123.3,110.8,123.3l0.6,168.2C693.5,573.3,614.7,771,502.7,772.7L502.7,772.7z"/></g>
</svg>