<?xml version="1.0" encoding="UTF-8" standalone="no"?>
<!DOCTYPE svg PUBLIC "-//W3C//DTD SVG 1.1//EN" "http://www.w3.org/Graphics/SVG/1.1/DTD/svg11.dtd">
<svg version="1.1" xmlns="http://www.w3.org/2000/svg" xmlns:xlink="http://www.w3.org/1999/xlink" preserveAspectRatio="xMidYMid meet" viewBox="-0.5625 0.125 149.65625 136.625" width="145.66" height="132.63"><defs><path d="M130 1.13L130 10.69C69.75 10.69 36.27 10.69 29.58 10.69C24.1 10.69 20.07 12.06 17.48 14.78C14.88 17.51 13.59 21.69 13.59 27.36C13.59 32.01 13.59 69.2 13.59 73.84C13.59 75.59 13.98 76.89 14.78 77.75C15.58 78.59 16.82 79 18.5 79C27.44 79 98.99 79 107.94 79C110.6 79 112.47 79.6 113.53 80.81C114.69 82.02 115.25 84.08 115.25 86.97C115.25 87.63 115.25 92.9 115.25 93.56C115.25 96.44 114.68 98.48 113.53 99.69C112.47 100.9 110.59 101.5 107.94 101.5C101.84 101.5 71.38 101.5 16.53 101.5L16.53 91.75L0.44 112.75L16.53 133.75L16.53 124C77.45 124 111.29 124 118.06 124C124.99 124 130.12 122.29 133.41 118.84C136.69 115.4 138.31 110.09 138.31 102.91C138.31 100.17 138.31 78.3 138.31 75.56C138.31 68.95 136.8 64.05 133.78 60.88C130.76 57.61 126.07 56 119.69 56C112.12 56 51.54 56 43.97 56C41.4 56 39.53 55.4 38.38 54.19C37.22 52.98 36.66 50.94 36.66 48.06C36.66 47.41 36.66 42.16 36.66 41.5C36.66 38.62 37.22 36.55 38.38 35.34C39.53 34.14 41.4 33.53 43.97 33.53C49.7 33.53 78.38 33.53 130 33.53L130 43.09L146.09 22.13L130 1.13Z" id="aGi0WXcUJ"></path><linearGradient id="gradientaROv76xoI" gradientUnits="userSpaceOnUse" x1="331.95" y1="12" x2="331.95" y2="123"><stop style="stop-color: #99a29b;stop-opacity: 1" offset="0%"></stop><stop style="stop-color: #738777;stop-opacity: 1" offset="100%"></stop></linearGradient></defs><g><g><use xlink:href="#aGi0WXcUJ" opacity="1" fill="url(#gradientaROv76xoI)"></use><g><use xlink:href="#aGi0WXcUJ" opacity="1" fill-opacity="0" stroke="#000000" stroke-width="1" stroke-opacity="0"></use></g></g></g></svg>