<svg width="2500" height="1270" viewBox="0 0 256 130" xmlns="http://www.w3.org/2000/svg" preserveAspectRatio="xMidYMid"><path d="M51.553 89.66c-2.952-1.571-6.287-2.677-9.912-3.289-3.56-.6-7.183-.902-10.766-.902a52.43 52.43 0 0 1-8.808-.752c-2.84-.483-5.41-1.374-7.647-2.648-2.176-1.238-3.976-2.972-5.352-5.154-1.357-2.147-2.044-4.994-2.044-8.429.066-3.033.77-5.628 2.097-7.714a15.798 15.798 0 0 1 5.22-5.119c2.172-1.31 4.679-2.273 7.452-2.862 4.72-1.002 9.707-1.19 14.787-.48 1.982.279 3.943.773 5.827 1.47 1.85.685 3.59 1.626 5.168 2.79 1.556 1.151 2.93 2.596 4.086 4.293l.647.95 4.767-2.006-1.012-1.429a31.502 31.502 0 0 0-4.273-4.907c-1.569-1.449-3.413-2.68-5.482-3.657-2.043-.963-4.38-1.705-6.95-2.204-2.544-.494-5.51-.743-8.814-.743-3.17 0-6.444.363-9.73 1.08-3.333.73-6.426 1.936-9.188 3.586a20.882 20.882 0 0 0-6.914 6.678c-1.794 2.793-2.705 6.239-2.705 10.244 0 4.204.845 7.782 2.509 10.634 1.653 2.834 3.871 5.131 6.591 6.825 2.663 1.662 5.77 2.856 9.236 3.55a53.827 53.827 0 0 0 10.532 1.02c2.864 0 5.898.217 9.017.649 3.034.419 5.858 1.264 8.393 2.513 2.47 1.22 4.527 2.915 6.113 5.04 1.535 2.059 2.314 4.838 2.314 8.26 0 3.073-.75 5.694-2.227 7.794-1.525 2.17-3.506 3.961-5.889 5.323-2.434 1.39-5.19 2.415-8.193 3.043-3.053.64-6.073.963-8.977.963-4.875 0-9.691-.931-14.315-2.769a34.209 34.209 0 0 1-12.133-8.158l-.925-.963-3.803 3.295 1.068 1.067c3.402 3.405 7.627 6.369 12.554 8.813 4.988 2.476 10.895 3.73 17.554 3.73 3.167 0 6.527-.362 9.991-1.075 3.511-.727 6.807-1.966 9.792-3.69 3.033-1.749 5.557-4.038 7.504-6.803 2-2.841 3.014-6.395 3.014-10.57 0-4.23-.95-7.812-2.825-10.647-1.852-2.794-4.324-5.03-7.35-6.64M96.396 124.621c-3.439 0-6.583-.71-9.346-2.11a24.1 24.1 0 0 1-7.35-5.733c-2.088-2.4-3.746-5.207-4.93-8.344a31.28 31.28 0 0 1-2.005-9.76c0-3.056.567-6.18 1.682-9.285a27.246 27.246 0 0 1 4.824-8.39c2.082-2.463 4.616-4.503 7.532-6.067 2.867-1.535 6.094-2.314 9.593-2.314 3.29 0 6.397.729 9.236 2.163a25.176 25.176 0 0 1 7.524 5.799c2.12 2.401 3.815 5.21 5.037 8.347a26.827 26.827 0 0 1 1.833 9.748c0 3.053-.566 6.178-1.68 9.285a27.236 27.236 0 0 1-4.825 8.392 24.936 24.936 0 0 1-7.52 6.004c-2.869 1.504-6.1 2.265-9.605 2.265m20.864-47.043c-2.495-2.915-5.527-5.326-9.014-7.167-3.536-1.865-7.523-2.809-11.85-2.809-3.942 0-7.708.845-11.193 2.509a29.202 29.202 0 0 0-9.093 6.776c-2.564 2.83-4.62 6.165-6.11 9.91-1.492 3.749-2.25 7.746-2.25 11.878 0 3.905.698 7.728 2.077 11.361a32.466 32.466 0 0 0 5.82 9.797c2.5 2.884 5.537 5.241 9.031 7.006 3.52 1.78 7.455 2.721 11.693 2.798h.053c4.01-.077 7.807-.98 11.286-2.679a29.908 29.908 0 0 0 9.083-6.826c2.564-2.832 4.602-6.13 6.054-9.801 1.456-3.68 2.195-7.602 2.195-11.656 0-3.671-.678-7.413-2.014-11.12-1.338-3.707-3.278-7.063-5.768-9.977M151.011 123.23c-.843.21-1.585.37-2.205.473a92.12 92.12 0 0 1-2.12.326c-.701.1-1.395.151-2.062.151-1.683 0-2.921-.557-3.788-1.705-.958-1.264-1.424-2.519-1.424-3.838V45.214h-5.015v73.423c0 2.756.87 5.193 2.586 7.242 1.778 2.129 4.312 3.206 7.53 3.206 1.01 0 2.012-.059 2.98-.175a89.563 89.563 0 0 0 2.524-.336c.768-.116 1.657-.29 2.643-.516l1.7-.393-2.232-4.714-1.117.28zM172.653 72.655c-2.61 1.834-4.914 4.163-6.886 6.95v-11.12h-5.015v60.05h5.015V91.147c.695-2.449 1.651-4.746 2.846-6.829a21.716 21.716 0 0 1 4.453-5.49c1.75-1.543 3.786-2.795 6.055-3.723 2.263-.926 4.817-1.468 7.59-1.607l1.335-.067v-4.948h-1.405c-5.345 0-10.051 1.404-13.988 4.171" fill="#201F26"/><path d="M244.31 13.793l-41.534 44.903 52.199-24.082a42.138 42.138 0 0 0-10.665-20.821zM213.494.436a42.111 42.111 0 0 0-16.237 3.237l-5.573 46.964L219.534.873a42.486 42.486 0 0 0-6.04-.437zm41.894 36.765l-49.46 27.68 46.405-5.507a42.109 42.109 0 0 0 3.423-16.675c0-1.866-.133-3.697-.368-5.498zm-18.235 40.521a42.475 42.475 0 0 0 13.356-14.624l-43.496 8.638 30.14 5.986zM222.08 1.311l-24.212 52.478 44.914-41.542C237.15 6.828 230.026 2.95 222.08 1.31zm-5.054 83.492a41.999 41.999 0 0 0 13.266-3.32l-24.364-2.891 11.098 6.21zM174.97 25.325a41.993 41.993 0 0 0-3.56 13.583l6.563 11.73-3.003-25.313zM193.595 5.41a42.46 42.46 0 0 0-14.892 13.3l6.126 30.84 8.766-44.14z" fill="#C7402B"/></svg>