<svg xmlns="http://www.w3.org/2000/svg" version="1" viewBox="0 0 8600 6460"><path fill="#040404" d="M6503 6376c-70-32-151-96-181-143-63-100-149-280-187-392-57-169-21-259 189-474 64-65 116-120 116-122 0-3-40-5-88-5-89 0-122-10-198-59-19-12-30-10-95 17-211 87-486 154-799 194-144 18-826 18-970 0-365-46-661-124-884-234l-78-38h-579l-33 25c-18 14-47 28-65 31-21 5-37 16-46 35-8 15-28 37-44 48-27 20-42 21-258 21h-229l-11 29c-14 39-54 63-114 69-46 4-49 6-49 33 0 16-9 38-20 49-18 18-33 20-143 20-116 0-125-1-145-23-18-19-22-35-22-89 0-40-5-70-13-76-7-6-147-11-377-14-409-4-395-1-465-79-83-92-142-275-152-471l-6-116-216-4c-207-3-218-4-254-27-45-27-57-54-57-120 0-69 32-114 100-141 14-5 38-20 53-32 27-22 40-23 214-28l186-5 17-60c10-33 21-68 25-77 7-17-3-18-136-18-165 0-200-11-267-85-70-74-86-117-85-215 1-109 18-202 48-261 29-56 143-163 205-193 25-11 51-26 57-33 7-6 38-21 68-32 53-20 75-21 522-21h466l42 24c56 33 81 87 66 142a439 439 0 0 1-164 173c-18 7-160 11-397 11-203 0-375 3-384 6-27 10-20 66 12 97 27 26 33 27 129 27 67 0 113-5 136-15 30-12 92-15 330-15 283 0 295-1 312-20 10-12 38-29 61-39 32-14 44-26 48-48 4-17 23-45 42-64l35-34 365-3 364-3 48 28c65 38 139 109 172 166l27 48 6-56c3-31 13-67 21-80 11-17 14-37 9-72-3-27 0-90 6-139 10-73 17-94 39-117 14-15 34-27 45-27 10 0 32-11 49-25 27-23 37-25 137-25 71 0 112 4 123 13 28 23 47 60 43 86l-10 93c-5 48-14 78-32 104-24 36-24 38-8 68 16 29 16 40 3 124-8 51-12 92-8 92a740 740 0 0 1 277-229l103-51h290v-719l28-20c62-47 62-46 62-163 0-135 11-158 75-158 42 0 42 0 48-40 6-48 50-110 78-110 18 0 19-8 19-168 0-163 1-169 23-190 15-14 36-22 59-22 34 0 36-2 41-42 4-29 16-51 41-76 29-30 43-36 90-40l56-4v-678h-67c-38 0-342 11-678 24l-610 24-62-20-63-21V824c0-284-5-267 78-280 41-6 52-20 52-70 0-11 10-30 22-41 49-45 135-52 413-34l646 41 487 31 37-25c48-33 96-46 165-46s117 13 164 45l37 25 307-20 422-25 170-10c119-11 409-27 473-26 90 1 150 17 179 48 23 24 23 27 23 258 0 272 4 261-106 297-66 21-69 23-69 54 0 30-3 32-67 53-54 18-81 21-142 16-42-3-276-12-521-20s-473-17-507-20l-63-4v677l110 4 110 3 37 38 38 37 3 225 3 225h68c116 0 151 47 151 204v95l43 40 42 40 3 280 3 281 29-15c66-34 155-2 185 66 14 30 16 53 11 107-10 98-7 102 71 102 55 0 67 3 90 26s25 31 20 77c-3 29-8 59-12 69-5 11 0 18 17 23 13 4 46 22 73 39 69 45 178 96 203 96s145 46 272 105c52 24 127 55 165 70 101 40 164 73 215 114 25 20 72 52 104 71 72 43 209 170 272 253 43 57 124 209 150 283 11 30 14 31 50 25 49-8 215-6 274 3 25 4 79 19 121 33 106 35 178 107 249 250a1380 1380 0 0 1 70 156c11 21 38 82 60 136 59 147 53 207-33 327-40 55-211 217-272 257-22 14-67 47-100 71-113 86-128 96-140 96-14 0-82 35-143 74-23 14-47 26-53 26s-36 13-67 29a778 778 0 0 1-194 81c-12 0-40 8-62 19-43 19-122 41-216 59l-110 23c-31 6-164 13-305 16-204 3-256 1-282-11z"/><path fill="#3a3a3a" d="M6690 6209c-63-26-151-93-179-137-106-169-214-429-205-498 5-40 42-120 75-163 27-34 128-141 134-141 5 0 17-10 68-53 12-11 48-35 79-54 47-29 56-39 48-53-20-38-38-43-153-41-102 1-117-1-165-25-29-14-58-35-65-45-16-26-33-24-118 15-196 90-499 166-829 208-143 18-767 18-910 0-365-46-661-124-884-234l-78-38h-363c-345 0-363 1-387 20-14 11-28 33-32 51-3 17-20 44-37 60l-31 29h-304c-359 0-344-5-344 104 0 90-8 96-124 96-117 0-130-10-120-91 5-46 3-58-15-81l-21-26-367-4c-410-4-399-2-463-75-66-74-126-244-146-407-5-44-3-60 7-67 8-5 86-9 174-9s167-5 175-10c10-6-143-10-440-10H215l-37-25c-97-66-60-219 59-241 21-4 146-4 278-1l241 6 11-72c7-40 17-89 23-109l11-38 62-1h102c68 4 124 59 135 133l7 43 11-28c15-36 15-98-1-117-36-45-36-45-366-50-355-6-355-5-432-84-55-56-91-136-90-205 1-174 43-279 146-366l67-57c11-10 45-27 75-38 51-19 76-20 520-20h466l42 24c56 33 81 87 66 142-13 48-55 91-102 104-20 6-184 10-401 9-236 0-373 3-385 10-32 17-73 78-73 108 0 19 10 39 28 56l28 27 294 6c206 4 310 10 347 20 30 8 98 14 168 14 117 0 117 0 111 23-14 48-26 121-31 185-7 101-54 429-70 492-7 30-21 110-30 178-13 102-14 127-3 149 18 38 69 65 115 61l38-3-40-24c-60-36-77-59-82-105-4-34 48-455 87-701l20-150c28-233 69-287 250-330 41-9 94-26 117-36 37-17 68-19 270-19 228 0 228 0 278 27 70 37 151 117 182 180 23 48 25 62 20 128s-3 76 14 88c24 18 24 34-13 302-16 116-27 226-24 245l6 38c2 14 73 42 105 41 22 0 33-3 25-6-22-9-83-63-97-87-7-12-12-41-13-65 0-49 46-418 60-471 5-19 14-87 20-150 16-159 27-210 50-230 18-16 19-19 5-47-13-26-14-46-4-129 17-155 27-164 179-164 70 0 111 4 122 13 28 23 47 60 43 86l-10 93c-5 48-14 78-32 105-24 36-25 38-8 66 16 27 16 36 0 150-9 67-20 138-26 158-15 58-12 69 17 69 23 0 25 3 20 28-3 15-15 93-26 174-27 190-16 234 77 312 59 49 97 56 328 56 198 0 214 1 238 20 14 11 29 30 32 41 6 19 8 20 26 3 24-22 24-46 1-67-16-15-48-17-243-17-214 0-226-1-274-24a329 329 0 0 1-155-169c-6-25-10-71-8-103 8-117 51-380 70-431 27-72 138-182 232-230l71-36 238 7 237 7v-831l28-17c56-35 62-49 62-168 1-143 3-145 108-145 60 0 85-4 96-16 14-13 16-50 16-248 0-213 2-234 18-249 15-14 42-17 155-17h137v-465c0-365-3-465-12-465l-518 20c-878 34-830 33-890 17l-55-14-2-216c-2-122 1-218 6-222 29-18 178-25 326-15l315 20 400 25 364 24 119 9 36-28c88-68 201-66 293 4 25 18 43 25 60 22 12-3 172-15 353-26 312-18 428-26 810-50 147-10 296-3 325 15 5 3 8 103 7 222l-2 217-50 13c-52 15-111 14-710-7l-435-15-227-10-53-4v929h133c117 0 136 2 150 18 15 16 17 49 17 248 0 126 4 236 10 244 7 11 27 14 88 11 72-2 82 0 101 20s21 35 21 131c0 110 13 158 45 158 6 0 19 8 28 18 15 16 17 55 17 338 1 306 2 318 18 288 31-55 48-73 85-89 49-20 82-19 127 6 55 31 74 80 66 167-10 98-7 102 71 102 55 0 67 3 90 26s25 30 19 81c-7 60-18 86-48 120l-20 21 34 7c18 4 59 24 91 46 32 21 63 39 69 39s35 14 65 30c29 17 68 30 86 30s41 6 52 13 40 19 65 27c25 7 75 28 111 46s108 49 159 69c113 44 189 81 212 104 29 28 62 51 127 89 78 45 184 142 247 225 56 75 120 198 148 288l22 66 54-5c89-6 262-5 310 2 85 14 164 47 204 84 50 48 86 105 86 137 0 14 6 25 13 25 6 0 23 26 36 58l42 94c84 172 106 267 73 330-53 103-258 300-364 349l-60 28c-19 9-58 31-87 49-29 17-57 32-63 32s-37 13-68 29a805 805 0 0 1-248 96c-19 8-36 15-39 15l-45 15c-22 8-59 17-82 20a1700 1700 0 0 1-228 42c-82 10-436 12-460 2zM3675 4859c-126-4-253-12-281-17-70-14-133-48-144-77s-25-32-34-9c-12 31-6 54 20 71 52 34 130 41 404 40l265-1-230-7zm1405-309c14-4-98-8-252-9-157-1-279-5-283-10-3-5-18-12-34-16-43-9-117-71-148-124-24-40-28-57-28-126 0-44 12-162 28-262 31-210 32-230 12-191-8 14-22 84-30 155-9 70-22 169-30 219-26 159-16 215 48 282 53 56 101 75 202 82 131 10 486 9 515 0zm-2848-7c-62-2-161-2-220 0-59 1-8 3 113 3s169-2 107-3zm3428-3c13-8 12-10-3-10-36 0-94-50-104-88-10-40-2-153 21-297 21-125 40-290 40-350 1-48 0-50-29-53-49-6-65-28-65-90 0-45-2-53-14-43-39 32-18 135 31 156 17 7 34 22 38 34 11 36-5 271-30 444-36 244-35 258 30 292 34 17 63 19 85 5zm-3306-317c16-32 55-260 58-346 2-54 0-59-35-95l-37-37h-113c-61 0-129 4-150 8-71 15-26 27 103 27h128l30 35c17 19 34 49 37 67 4 19-5 106-19 198-29 186-27 170-21 170 2 0 11-12 19-27zm1607-177l25-178c15-108-14-128-183-128-80 0-126 4-144 14-46 23-87 67-103 107-21 52-20 66 2 46 9-8 37-23 62-32 44-17 99-68 100-92 0-18 42-26 111-21 51 4 65 9 92 36 41 42 42 73 7 312-5 36-10 74-9 85 0 19 0 19 10 1 6-10 20-78 30-150zm1157 102c6-29 19-110 28-180 20-145 16-165-38-198-28-17-51-20-158-20-69 0-132 5-140 10-10 7 22 10 100 10 126 0 154 10 191 66 23 36 25 117 4 259-17 120-17 117-7 111 5-3 14-29 20-58z"/><g fill="#4c4b4b"><path d="M6488 5938c-19-35-42-83-52-108s-21-49-26-55c-21-28-62-180-57-216 3-22 1-39-5-41-14-5 8-74 34-108 26-33 127-140 133-140 5 0 13-7 73-57 14-12 52-37 83-55 64-36 74-61 40-93-16-14-41-17-138-19-124-2-156-12-223-65l-25-21h1285v-64c0-43-5-67-14-76-8-6-23-35-32-63-19-59-73-171-113-234l-26-43H6170v480h55c42 0 53 3 49 14-6 15-109 65-150 72-14 3-36 11-48 19-13 8-25 12-29 9-3-3-27 1-54 10-54 17-288 71-345 79l-38 6v-209h-480v-380l38-19c47-24 74-52 43-44-12 3-21 9-21 14 0 12-627 12-635 0-3-5-18-12-35-16-41-9-124-78-153-128-40-68-40-103-7-332l36-254a384 384 0 0 1 195-266c32-13 21-14-143-15h-178l36 33c54 49 54 75-2 470-56 400-56 394 28 478 73 73 113 89 226 89h92v370h-480v188l-147-38c-169-43-246-69-353-116l-75-33 288-1h287v-211l-47 36c-78 59-114 65-407 65-275 0-366-12-430-54-52-33-60-97-18-143l27-31 261-4c230-3 263-5 288-21 29-19 47-54 39-75-11-29-48-33-246-32-220 1-273-8-336-54a319 319 0 0 1-115-170c-11-72 48-457 81-524 35-73 131-166 218-209l70-36 252 7 253 8v-552h590v-480h480v480h480l-1-232c0-257-7-325-35-345-11-8-46-13-90-13-103 0-104-2-104-207v-163H4370v-56c0-30-5-64-11-75-22-43 0-49 172-49h159l-7-430-6-430h403v-25c0-16 6-25 15-25 13 0 15 57 15 455v455h133c117 0 136 2 150 18 15 16 17 49 17 250 0 196 2 233 16 246 11 12 36 16 93 16 107 0 111 5 111 144 0 108 14 156 45 156 6 0 19 8 28 18 15 16 17 54 17 326v307l-29 25c-31 26-77 125-68 148 11 29 46 5 63-43 57-162 82-203 138-226 48-20 82-19 126 6 55 31 74 80 66 167-10 98-7 102 71 102 55 0 67 3 90 26s25 30 19 81c-7 60-18 86-48 120l-20 21 34 7c18 4 59 24 91 46 32 21 63 39 69 39s35 14 65 30c29 17 68 30 86 30s41 6 52 13 40 19 65 27c25 7 75 28 111 46s108 49 159 69c113 44 189 81 212 104 29 28 62 51 127 89 78 45 184 142 247 225 56 75 120 198 148 288l22 66 54-5c89-6 262-5 310 2 85 14 164 47 204 84 50 48 86 105 86 137 0 14 6 25 13 25 6 0 23 26 36 58l42 94c60 122 90 212 87 262l-3 51-137 3-138 3v149c0 145-1 150-22 161-13 6-32 20-44 31-11 10-29 20-40 22-21 5-90 41-153 80-23 15-46 24-51 21s-11-1-15 5c-4 7-229 10-665 10h-658l-34-62zm-760-1381l27-27h-53c-72 0-138-43-148-97-8-40 1-182 16-246 14-65 44-325 45-387 0-54-1-55-30-58-56-7-68-27-62-112 3-41 8-83 12-92 7-17-2-18-101-18h-109l40 27c49 33 72 60 107 127 32 58 35 110 14 244l-12 82h33c20 0 33 5 33 13l-34 247c-39 264-39 257 35 308 29 20 44 23 97 20 52-3 67-9 90-31zm-651-319c17-19 35-52 41-78 18-76 45-318 38-342-3-13-18-32-34-43-23-17-46-20-162-23-77-2-147 1-162 7-41 15-74 77-87 159l-11 76c0 3 83 6 185 6s185 2 185 5c0 30-34 233-41 247-16 31 14 21 48-14zm-1467-118v-120h290l-5 28-19 120-13 93 26-3c38-4 57-53 77-193 32-233 32-246 8-274-22-26-24-26-166-26-137 0-146 1-181 25-46 31-78 89-83 148-2 26-9 80-14 120-17 124-14 153 18 179 15 12 35 22 45 23 15 0 17-12 17-120zm3035-140c-69-33-171-70-192-70-26 0-163-64-219-101-95-64-241-92-263-51-9 17-41 193-41 227 0 13 47 15 378 14h377l-40-19zM1965 5300c-3-5-34-10-68-10-42 0-70-5-86-16-21-15-23-22-17-64 5-39 2-53-17-81-22-33-25-34-95-37-40-2-72-7-72-12 0-6-95-10-242-10-134-1-274-5-313-10-67-8-72-11-117-59-32-35-56-75-76-128-30-78-62-210-62-258v-25h330v370h1040v130h-48c-39 0-54 5-80 29-30 28-32 34-32 95 0 45-5 69-16 80-18 19-21 19-29 6zM2706 5041c-4-6-1-21 6-33 10-20 13-20 16-6 5 23-13 54-22 39z"/><path d="M1600 4833c-49-32-68-55-74-87-3-18 5-111 19-206l50-360c72-533 68-520 167-585 21-14 48-25 60-25 32 0 170-40 193-56 15-11 70-14 250-14 230 0 230 0 280 27 69 37 151 117 181 179 24 49 25 58 19 151l-10 168c-2 39-15 150-29 248-13 98-22 185-19 193 3 9-2 14-16 14-19 0-21-6-21-54v-55l-50 53c-28 30-72 64-98 76l-64 32c-10 4-132 8-272 8h-255l-20 26c-11 14-23 46-26 72-15 105-35 152-77 183-35 25-50 29-102 28-39 0-70-6-86-16zm702-558c51-21 74-63 83-155l19-153c9-71 14-137 11-147s-22-31-43-47c-36-27-40-28-157-28-131 0-188 14-206 47-10 19-9 20 7 13 11-4 49-10 87-13l67-4v502h49c27 0 64-7 83-15zM2806 4497c-24-24-48-56-52-72-7-29 1-97 56-485 16-113 32-240 36-283 5-63 11-83 31-108 19-23 23-33 14-42-12-12-14-123-2-206 6-41 15-60 35-78 25-21 36-23 135-23 71 0 112 4 123 13 28 23 47 60 43 86l-10 93c-5 48-14 78-32 105-24 36-25 38-8 66 16 27 16 35 0 145-9 65-23 143-30 175-8 33-9 57-4 57 6 0 5 9-2 21-7 14-11 108-12 270l-2 249h-46c-29 0-51 6-59 15-22 26-72 45-121 45-42 0-52-5-93-43zM170 4493c-40-36-42-41-42-96-1-50 3-62 27-87 48-50 74-53 369-49l271 4 16-76c9-42 19-81 23-88 4-6 35-11 74-11 108 0 150 38 140 125-5 40 13 46 48 17 51-43 58-117 15-164l-29-33-319-5c-311-5-319-6-365-29-92-47-168-159-168-248 0-21 7-80 15-132 23-140 46-175 194-300 13-11 48-30 78-41 51-19 76-20 520-20h466l42 24c56 33 81 87 66 142-11 41-50 85-85 98-11 4-188 7-393 6-405 0-433 3-452 54-6 13-15 27-20 31-22 13-12 70 17 98l28 27 294 6c206 4 310 10 347 20 28 8 94 14 147 14s96 2 96 4l-16 42c-10 24-17 76-19 139-3 89-47 452-61 498-4 14-18 17-81 17-55 0-94 7-145 25l-69 25H213l-43-37zM4170 2365c-11-13-3-15 59-15 39 0 71 4 71 9 0 25-110 30-130 6zM6489 926c-3-3-135-10-294-16l-669-25c-209-8-383-12-388-9-4 3-8-67-8-155V560h-47c-33 0-57-7-82-24-32-23-55-30-156-52l-30-7 32-7c48-11 107 3 165 39l52 32 120-10c110-10 295-22 811-51 99-6 234-15 300-21 150-12 322 8 283 32-10 7-10 9 0 9 16 0 18 375 1 386-8 4-7 9 2 15 14 9 12 10-31 14-14 1-32 5-41 9-8 4-17 4-20 2zM3250 902l-45-18-5-189c-3-105-8-196-10-204-12-34 140-42 410-23l619 41c261 17 476 33 479 36 21 21-162 14-913-36l-267-17-118-7v195c0 107-3 205-6 218-5 19-13 22-53 21-25 0-66-8-91-17z"/></g><g fill="#c38125"><path d="M1604 4800c-55-35-58-52-39-196a32507 32507 0 0 0 110-794c13-102 54-169 120-194l137-42 117-34h213c117 0 229 5 250 10 45 13 157 119 187 177 23 46 26 86 12 177l-32 211c-12 83-29 169-39 192a413 413 0 0 1-165 169c-48 23-58 24-311 24-234 0-263 2-281 18-30 26-49 71-57 132-10 77-38 135-75 154-42 22-109 20-147-4zm711-495c60-30 80-75 103-234 35-230 35-232 9-281-37-71-68-82-227-78-122 3-139 5-179 28-70 39-85 76-106 255-3 28-10 74-16 104-12 72-12 148 2 172 5 11 25 29 42 40 29 18 47 19 182 17 126-3 156-6 190-23zM3396 4809c-54-9-119-54-124-85-2-11 9-31 25-46l28-27 255-3c246-3 256-4 287-25 28-21 51-61 48-88-2-20-26-55-46-65-13-8-97-11-235-10-210 1-215 0-269-25a298 298 0 0 1-146-157c-9-35-6-133 6-178 2-8 7-40 10-70s8-62 10-70 7-42 10-75c8-81 44-151 112-218 75-74 119-105 163-117 20-6 182-10 372-10h337l35 30c43 38 50 70 37 162a3926 3926 0 0 0-25 195c-3 11-7 41-10 65l-35 248c-17 113-35 246-41 295-14 117-45 182-108 228-26 19-65 40-87 46-47 13-533 13-609 0zm528-550c43-34 52-64 82-270l28-197-27-35c-34-45-56-50-228-45-128 3-136 4-176 32-58 39-79 89-103 241-31 202-28 220 41 271 32 23 39 24 195 24 148 0 163-2 188-21zM192 4475c-37-31-47-75-25-114 33-57 24-56 473-61l415-5 39-24c46-29 68-76 68-143-1-52-20-86-64-112-22-14-71-16-330-16H464l-51-25a340 340 0 0 1-148-179c-7-24-12-46-11-48 2-1 6-32 10-68 13-141 39-192 140-280 131-113 108-109 626-110 404 0 448 2 479 18 74 37 87 94 37 157l-24 30-399 5c-394 5-398 5-435 28-47 29-78 79-78 126s12 69 52 98c32 23 38 23 348 28l315 5 45 29c52 33 111 105 131 159 17 49-1 227-31 294a625 625 0 0 1-215 209l-50 24H222l-30-25zM2837 4482c-38-26-56-52-57-82 0-14 20-171 45-350l51-394c9-102 26-116 144-116 77 0 93 3 110 20 25 25 25 36 1 202-11 73-23 158-26 188l-10 75-9 75-17 120-14 95c-11 66-28 115-54 146-23 27-35 33-82 36-41 3-61 0-82-15zM4523 4485c-44-19-118-89-137-130-24-49-22-116 8-320l32-225c3-24 14-61 24-80 31-60 108-137 164-165l53-26 319 3 319 3 45 32c52 38 109 117 119 165 4 18 0 84-10 148l-34 245c-20 153-38 197-113 273-91 91-95 92-450 92-239-1-314-4-339-15zm537-190c40-21 76-72 89-125 6-25 20-114 31-199 19-154 19-154-1-182-46-65-58-69-219-69-81 0-160 5-176 10-16 6-44 30-62 54-29 39-35 57-51 172-11 71-22 159-26 197l-7 67 45 45 44 45h152c116 0 159-4 181-15zM5644 4490c-35-14-64-59-64-99 0-20 7-79 15-131 15-93 37-251 55-399 7-49 6-87 0-113-10-35-14-38-45-38-46 0-58-24-49-98 7-63 26-92 59-92 54 0 83-20 101-68 59-168 78-199 135-222 35-15 75-2 110 37 22 23 24 32 21 118-3 118 8 135 92 135 92 0 98 10 75 108-17 67-29 76-112 82l-72 5-22 45c-19 40-58 271-89 520-15 132-35 180-85 206-31 15-92 18-125 4zM2921 3485a81 81 0 0 1-16-58l11-91c9-91 30-106 142-106 79 0 91 2 109 23 18 20 19 29 12 97l-8 93c-1 10-12 29-26 42-22 23-32 25-114 25-84 0-91-2-110-25z"/></g></svg>