<?xml version="1.0" encoding="UTF-8" standalone="no"?>
<svg
   xmlns:dc="http://purl.org/dc/elements/1.1/"
   xmlns:cc="http://creativecommons.org/ns#"
   xmlns:rdf="http://www.w3.org/1999/02/22-rdf-syntax-ns#"
   xmlns:svg="http://www.w3.org/2000/svg"
   xmlns="http://www.w3.org/2000/svg"
   xmlns:sodipodi="http://sodipodi.sourceforge.net/DTD/sodipodi-0.dtd"
   xmlns:inkscape="http://www.inkscape.org/namespaces/inkscape"
   version="1.0"
   width="442.82501"
   height="419.79761"
   viewBox="0 0 4428.2501 4197.9761"
   preserveAspectRatio="xMidYMid meet"
   id="svg165"
   sodipodi:docname="squid2.svg"
   inkscape:version="0.92.4 (5da689c313, 2019-01-14)">
  <metadata
     id="metadata171">
    <rdf:RDF>
      <cc:Work
         rdf:about="">
        <dc:format>image/svg+xml</dc:format>
        <dc:type
           rdf:resource="http://purl.org/dc/dcmitype/StillImage" />
      </cc:Work>
    </rdf:RDF>
  </metadata>
  <defs
     id="defs169" />
  <sodipodi:namedview
     pagecolor="#ffffff"
     bordercolor="#666666"
     borderopacity="1"
     objecttolerance="10"
     gridtolerance="10"
     guidetolerance="10"
     inkscape:pageopacity="0"
     inkscape:pageshadow="2"
     inkscape:window-width="1920"
     inkscape:window-height="986"
     id="namedview167"
     showgrid="false"
     inkscape:zoom="0.55529412"
     inkscape:cx="220.825"
     inkscape:cy="209.45993"
     inkscape:window-x="-11"
     inkscape:window-y="-11"
     inkscape:window-maximized="1"
     inkscape:current-layer="svg165" />
  <g
     id="layer101"
     style="fill:#241f20;stroke:none"
     transform="translate(-41.75,-21.623243)">
    <path
       d="m 1459,4173 c -14,-50 -52,-128 -75,-154 -8,-8 -14,-20 -14,-26 0,-18 -89,-91 -138,-113 -26,-12 -55,-25 -64,-30 -37,-20 -155,-31 -272,-24 -299,17 -521,-50 -671,-200 -94,-95 -143,-198 -175,-366 -11,-58 -11,-242 0,-300 40,-211 83,-352 141,-457 38,-70 39,-75 39,-171 0,-122 23,-204 80,-290 49,-73 111,-131 185,-173 52,-29 66,-45 151,-176 52,-79 94,-146 94,-148 0,-6 84,-129 100,-147 6,-7 33,-38 61,-68 27,-30 49,-58 49,-61 0,-34 348,-380 477,-476 43,-31 91,-70 107,-85 27,-26 166,-116 360,-233 184,-111 422,-210 676,-281 36,-10 67,-21 70,-25 16,-23 568,-111 840,-134 296,-25 653,-14 820,25 83,20 93,51 25,80 -71,30 -69,44 13,119 100,92 132,157 132,263 0,140 -49,189 -199,202 -41,4 -86,12 -100,19 -25,12 -25,14 -26,127 0,133 -14,185 -75,280 -25,38 -57,71 -87,90 -41,27 -56,30 -123,30 -67,0 -82,-3 -123,-30 l -46,-29 -19,27 c -30,42 -59,103 -72,152 -12,46 -87,200 -114,235 -186,242 -349,380 -591,498 -55,27 -116,59 -135,70 -37,23 -81,42 -255,112 -206,82 -330,123 -410,136 -116,18 -359,16 -483,-6 l -104,-17 -16,23 c -40,56 -77,154 -76,204 0,69 41,153 109,224 77,81 143,116 220,115 72,0 116,-21 213,-99 103,-84 161,-109 261,-113 46,-2 101,1 121,7 59,17 126,83 149,147 26,68 26,84 2,84 -11,0 -51,16 -90,36 -70,36 -160,116 -311,279 l -65,70 55,35 c 93,60 202,176 239,255 18,39 39,82 47,97 20,37 44,151 44,211 0,39 -3,47 -18,47 -10,0 -29,-12 -43,-26 -45,-49 -213,-152 -293,-180 -74,-26 -179,-44 -324,-56 -78,-6 -145,-9 -147,-6 -3,3 0,40 6,83 15,107 -2,196 -57,309 -35,71 -56,74 -75,9 z"
       id="path2"
       inkscape:connector-curvature="0" />
  </g>
  <g
     id="layer102"
     style="fill:#1d87c6;stroke:none"
     transform="translate(-41.75,-21.623243)">
    <path
       d="m 1459,4173 c -14,-50 -52,-128 -75,-154 -8,-8 -14,-20 -14,-26 0,-18 -89,-91 -138,-113 -26,-12 -55,-25 -64,-30 -37,-20 -155,-31 -272,-24 -299,17 -521,-50 -671,-200 -94,-95 -143,-198 -175,-366 -11,-58 -11,-242 0,-300 40,-211 83,-352 141,-457 38,-70 39,-75 39,-171 0,-122 23,-204 80,-290 49,-73 111,-131 185,-173 52,-29 66,-45 151,-176 52,-79 94,-146 94,-148 0,-6 84,-129 100,-147 6,-7 33,-38 61,-68 27,-30 49,-58 49,-61 0,-34 348,-380 477,-476 43,-31 91,-70 107,-85 27,-26 166,-116 360,-233 184,-111 422,-210 676,-281 36,-10 67,-21 70,-25 16,-23 568,-111 840,-134 296,-25 653,-14 820,25 83,20 93,51 25,80 -71,30 -69,44 13,119 100,92 132,157 132,263 0,140 -49,189 -199,202 -41,4 -86,12 -100,19 -25,12 -25,14 -26,127 0,133 -14,185 -75,280 -25,38 -57,71 -87,90 -41,27 -56,30 -123,30 -67,0 -82,-3 -123,-30 l -46,-29 -19,27 c -30,42 -59,103 -72,152 -12,46 -87,200 -114,235 -186,242 -349,380 -591,498 -55,27 -116,59 -135,70 -37,23 -81,42 -255,112 -206,82 -330,123 -410,136 -116,18 -359,16 -483,-6 l -104,-17 -16,23 c -40,56 -77,154 -76,204 0,69 41,153 109,224 77,81 143,116 220,115 72,0 116,-21 213,-99 103,-84 161,-109 261,-113 46,-2 101,1 121,7 59,17 126,83 149,147 26,68 26,84 2,84 -11,0 -51,16 -90,36 -70,36 -160,116 -311,279 l -65,70 55,35 c 93,60 202,176 239,255 18,39 39,82 47,97 20,37 44,151 44,211 0,39 -3,47 -18,47 -10,0 -29,-12 -43,-26 -45,-49 -213,-152 -293,-180 -74,-26 -179,-44 -324,-56 -78,-6 -145,-9 -147,-6 -3,3 0,40 6,83 15,107 -2,196 -57,309 -35,71 -56,74 -75,9 z m 62,-130 c 15,-75 6,-189 -21,-276 -12,-38 -19,-71 -17,-74 3,-2 38,0 79,6 40,6 136,16 213,21 261,19 417,74 539,188 24,23 47,42 50,42 8,0 -29,-101 -59,-160 -92,-183 -210,-295 -372,-356 -37,-14 -69,-27 -71,-29 -2,-2 23,-17 55,-34 39,-21 103,-75 188,-159 145,-143 233,-206 312,-223 29,-7 53,-15 53,-19 0,-4 -13,-26 -30,-48 -43,-59 -99,-86 -180,-86 -88,1 -154,29 -266,112 -112,84 -176,107 -274,99 -86,-7 -147,-36 -220,-104 -150,-139 -187,-299 -108,-465 40,-83 78,-128 107,-128 11,0 53,7 93,15 109,23 172,30 283,30 168,0 249,-17 450,-95 222,-85 333,-134 466,-201 406,-206 639,-441 753,-757 14,-40 33,-86 41,-103 26,-49 85,-109 109,-109 11,0 41,16 65,35 51,41 78,50 126,42 68,-11 134,-84 175,-195 23,-61 28,-127 15,-219 -12,-92 17,-115 161,-128 93,-9 128,-24 154,-68 49,-80 14,-175 -107,-294 -46,-44 -83,-86 -83,-93 0,-23 29,-66 54,-80 14,-7 26,-16 26,-20 0,-23 -428,-42 -669,-30 -285,14 -494,43 -731,101 -132,33 -392,116 -524,169 -520,206 -1011,558 -1349,965 -54,66 -108,131 -119,144 -33,38 -139,198 -213,319 -64,105 -74,116 -125,142 -115,59 -201,163 -241,289 -15,50 -20,89 -18,161 2,94 2,96 -38,170 -67,123 -113,272 -138,450 -7,49 -7,198 0,245 41,268 192,435 460,506 69,19 111,22 310,24 127,1 241,5 254,8 108,27 175,64 243,134 51,52 108,147 108,181 0,6 4,12 9,12 5,0 15,-26 22,-57 z"
       id="path5"
       inkscape:connector-curvature="0" />
    <path
       d="m 1451,3922 c -10,-21 -41,-58 -69,-84 -104,-97 -202,-125 -492,-137 -180,-8 -215,-13 -290,-36 -238,-75 -360,-196 -406,-402 -24,-110 -15,-321 20,-458 23,-89 96,-265 110,-265 3,0 15,19 27,42 30,60 134,159 199,191 l 54,27 19,88 c 23,109 24,123 2,197 -31,107 -4,216 72,291 54,54 163,109 279,140 55,15 125,39 157,55 31,16 97,43 145,59 109,36 152,79 181,179 23,78 33,151 20,151 -5,0 -17,-17 -28,-38 z"
       id="path7"
       inkscape:connector-curvature="0" />
    <path
       d="m 2210,3783 c -52,-37 -152,-81 -223,-98 -60,-14 -166,-27 -327,-40 -234,-20 -456,-93 -620,-205 -56,-38 -179,-160 -217,-216 -57,-81 -131,-266 -146,-365 l -5,-36 86,3 86,4 21,62 c 33,104 120,249 188,317 118,116 192,160 354,212 90,29 105,31 198,26 96,-5 141,1 270,34 72,19 211,107 272,173 118,127 150,193 63,129 z"
       id="path9"
       inkscape:connector-curvature="0" />
    <path
       d="m 845,3403 c -62,-31 -133,-97 -151,-140 -16,-37 -19,-167 -3,-143 5,8 33,55 62,104 28,49 78,115 109,148 63,63 59,71 -17,31 z"
       id="path11"
       inkscape:connector-curvature="0" />
    <path
       d="m 1501,3380 c -256,-53 -463,-221 -554,-450 -47,-119 -48,-111 35,-153 98,-48 176,-129 226,-234 36,-77 37,-80 37,-198 0,-118 -1,-121 -37,-198 -84,-175 -262,-286 -460,-287 h -47 l 41,-67 c 74,-123 156,-239 240,-343 46,-56 98,-121 116,-144 54,-68 310,-311 418,-396 231,-182 572,-381 844,-493 218,-90 568,-190 810,-231 141,-24 166,-27 315,-41 39,-4 84,-9 100,-10 80,-10 429,-17 497,-11 72,7 77,9 68,26 -6,10 -10,38 -10,61 0,40 5,47 86,128 95,94 130,153 119,202 -9,39 -43,55 -134,62 -89,7 -157,38 -189,87 -21,30 -23,42 -16,85 16,108 9,186 -20,247 -31,63 -95,128 -125,128 -11,0 -41,-18 -66,-40 -25,-22 -56,-41 -68,-42 -45,-3 -81,4 -105,20 -34,22 -93,115 -127,199 -90,221 -153,320 -284,445 -199,191 -416,313 -872,494 -211,83 -305,104 -463,104 -115,-1 -215,-12 -314,-36 -64,-15 -71,-15 -105,1 -45,21 -78,64 -125,162 -32,68 -37,89 -40,165 -3,69 1,100 17,150 43,128 147,245 271,304 75,36 203,44 281,19 71,-23 134,-59 187,-108 88,-79 208,-109 295,-72 48,20 53,31 17,44 -49,17 -165,102 -310,227 -139,120 -208,161 -305,182 -74,16 -194,22 -244,12 z"
       id="path13"
       inkscape:connector-curvature="0" />
    <path
       d="m 658,2751 c -119,-39 -218,-126 -271,-239 -29,-61 -31,-75 -31,-167 0,-90 3,-107 31,-165 44,-95 109,-162 201,-207 73,-37 80,-38 181,-38 98,0 111,2 173,32 94,44 161,110 204,200 80,166 45,354 -92,483 -82,78 -147,104 -269,107 -55,1 -112,-2 -127,-6 z m 249,-226 c 59,-18 136,-85 158,-139 69,-163 -22,-341 -191,-376 -70,-15 -149,0 -187,36 -34,32 -34,35 4,24 43,-13 80,10 127,78 62,91 46,156 -51,212 -62,36 -111,47 -148,33 -24,-9 -27,-8 -24,7 6,30 29,60 67,86 77,54 154,66 245,39 z"
       id="path15"
       inkscape:connector-curvature="0" />
  </g>
  <g
     id="layer103"
     style="fill:#26b4c9;stroke:none"
     transform="translate(-41.75,-21.623243)">
    <path
       d="m 1459,4173 c -14,-50 -52,-128 -75,-154 -8,-8 -14,-20 -14,-26 0,-18 -89,-91 -138,-113 -26,-12 -55,-25 -64,-30 -37,-20 -155,-31 -272,-24 -299,17 -521,-50 -671,-200 -94,-95 -143,-198 -175,-366 -11,-58 -11,-242 0,-300 40,-211 83,-352 141,-457 38,-70 39,-75 39,-171 0,-122 23,-204 80,-290 49,-73 111,-131 185,-173 52,-29 66,-45 151,-176 52,-79 94,-146 94,-148 0,-6 84,-129 100,-147 6,-7 33,-38 61,-68 27,-30 49,-58 49,-61 0,-34 348,-380 477,-476 43,-31 91,-70 107,-85 27,-26 166,-116 360,-233 184,-111 422,-210 676,-281 36,-10 67,-21 70,-25 16,-23 568,-111 840,-134 296,-25 653,-14 820,25 83,20 93,51 25,80 -71,30 -69,44 13,119 100,92 132,157 132,263 0,140 -49,189 -199,202 -41,4 -86,12 -100,19 -25,12 -25,14 -26,127 0,133 -14,185 -75,280 -25,38 -57,71 -87,90 -41,27 -56,30 -123,30 -67,0 -82,-3 -123,-30 l -46,-29 -19,27 c -30,42 -59,103 -72,152 -12,46 -87,200 -114,235 -186,242 -349,380 -591,498 -55,27 -116,59 -135,70 -37,23 -81,42 -255,112 -206,82 -330,123 -410,136 -116,18 -359,16 -483,-6 l -104,-17 -16,23 c -40,56 -77,154 -76,204 0,69 41,153 109,224 77,81 143,116 220,115 72,0 116,-21 213,-99 103,-84 161,-109 261,-113 46,-2 101,1 121,7 59,17 126,83 149,147 26,68 26,84 2,84 -11,0 -51,16 -90,36 -70,36 -160,116 -311,279 l -65,70 55,35 c 93,60 202,176 239,255 18,39 39,82 47,97 20,37 44,151 44,211 0,39 -3,47 -18,47 -10,0 -29,-12 -43,-26 -45,-49 -213,-152 -293,-180 -74,-26 -179,-44 -324,-56 -78,-6 -145,-9 -147,-6 -3,3 0,40 6,83 15,107 -2,196 -57,309 -35,71 -56,74 -75,9 z m 62,-130 c 15,-75 6,-189 -21,-276 -12,-38 -19,-71 -17,-74 3,-2 38,0 79,6 40,6 136,16 213,21 261,19 417,74 539,188 24,23 47,42 50,42 8,0 -29,-101 -59,-160 -92,-183 -210,-295 -372,-356 -37,-14 -69,-27 -71,-29 -2,-2 23,-17 55,-34 39,-21 103,-75 188,-159 145,-143 233,-206 312,-223 29,-7 53,-15 53,-19 0,-4 -13,-26 -30,-48 -43,-59 -99,-86 -180,-86 -88,1 -154,29 -266,112 -112,84 -176,107 -274,99 -86,-7 -147,-36 -220,-104 -150,-139 -187,-299 -108,-465 40,-83 78,-128 107,-128 11,0 53,7 93,15 109,23 172,30 283,30 168,0 249,-17 450,-95 222,-85 333,-134 466,-201 406,-206 639,-441 753,-757 14,-40 33,-86 41,-103 26,-49 85,-109 109,-109 11,0 41,16 65,35 51,41 78,50 126,42 68,-11 134,-84 175,-195 23,-61 28,-127 15,-219 -12,-92 17,-115 161,-128 93,-9 128,-24 154,-68 49,-80 14,-175 -107,-294 -46,-44 -83,-86 -83,-93 0,-23 29,-66 54,-80 14,-7 26,-16 26,-20 0,-23 -428,-42 -669,-30 -285,14 -494,43 -731,101 -132,33 -392,116 -524,169 -520,206 -1011,558 -1349,965 -54,66 -108,131 -119,144 -33,38 -139,198 -213,319 -64,105 -74,116 -125,142 -115,59 -201,163 -241,289 -15,50 -20,89 -18,161 2,94 2,96 -38,170 -67,123 -113,272 -138,450 -7,49 -7,198 0,245 41,268 192,435 460,506 69,19 111,22 310,24 127,1 241,5 254,8 108,27 175,64 243,134 51,52 108,147 108,181 0,6 4,12 9,12 5,0 15,-26 22,-57 z"
       id="path18"
       inkscape:connector-curvature="0" />
    <path
       d="m 1443,3908 c -45,-83 -160,-160 -283,-188 -25,-6 -135,-14 -245,-19 -200,-9 -247,-16 -360,-53 -189,-62 -296,-169 -352,-353 -25,-83 -24,-315 1,-435 30,-143 97,-315 120,-307 6,2 19,20 31,41 42,74 101,131 177,170 l 73,37 17,102 c 15,91 15,107 2,151 -21,73 -18,181 7,236 42,94 161,183 289,215 36,9 83,21 105,27 22,5 67,23 100,39 33,15 79,36 102,46 43,18 51,27 33,38 -14,9 -13,48 2,63 18,18 42,15 62,-7 17,-19 17,-20 -3,-31 -30,-15 -26,-27 9,-28 44,-1 105,72 129,157 23,77 33,151 21,151 -5,0 -21,-23 -37,-52 z m -329,-280 c 14,-23 -3,-52 -33,-56 -42,-6 -67,38 -39,66 17,17 58,11 72,-10 z m -234,-28 c 39,-39 14,-100 -41,-100 -34,0 -59,24 -59,56 0,29 33,64 60,64 11,0 29,-9 40,-20 z M 653,3462 c 38,-33 6,-112 -45,-112 -53,0 -89,78 -50,112 32,29 60,29 95,0 z M 465,3218 c -4,-13 -9,-47 -12,-75 -6,-56 -15,-63 -45,-36 -29,26 -24,87 8,112 36,29 58,28 49,-1 z m 29,-332 c 14,-56 15,-71 4,-77 -23,-15 -56,-10 -83,14 -48,41 -30,130 29,139 29,5 31,2 50,-76 z"
       id="path20"
       inkscape:connector-curvature="0" />
    <path
       d="m 2205,3774 c -153,-90 -230,-110 -505,-129 -47,-4 -94,-8 -105,-9 -286,-40 -486,-126 -654,-281 -43,-40 -126,-141 -147,-180 -6,-11 -16,-29 -22,-40 -32,-58 -92,-244 -92,-289 0,-19 5,-21 46,-18 38,4 44,7 38,21 -4,9 -7,32 -6,51 1,50 41,82 95,78 l 40,-2 35,66 34,67 -26,28 c -34,37 -34,82 0,122 21,26 33,31 68,31 30,0 48,-6 61,-19 17,-20 18,-19 71,21 45,34 54,45 54,72 0,69 67,107 121,67 33,-24 45,-25 99,-9 35,11 40,16 40,44 0,39 30,67 72,67 36,0 72,-36 63,-63 -5,-14 4,-18 53,-23 54,-6 64,-4 127,30 64,34 69,35 81,18 13,-17 15,-17 59,-1 31,12 45,23 43,34 -2,12 10,19 50,28 29,7 68,23 86,38 44,33 139,143 154,179 6,15 11,27 9,26 -1,-1 -20,-12 -42,-25 z"
       id="path22"
       inkscape:connector-curvature="0" />
    <path
       d="m 845,3403 c -62,-31 -133,-97 -151,-140 -16,-37 -19,-167 -3,-143 5,8 33,55 62,104 28,49 78,115 109,148 63,63 59,71 -17,31 z"
       id="path24"
       inkscape:connector-curvature="0" />
    <path
       d="m 1453,3365 c -213,-55 -386,-192 -477,-379 -38,-78 -71,-165 -65,-170 2,-1 34,-17 71,-34 71,-32 148,-97 192,-161 36,-51 74,-158 81,-229 14,-128 -44,-290 -140,-387 -83,-85 -229,-144 -357,-145 h -57 l 52,-81 c 71,-111 147,-216 237,-329 69,-87 75,-93 78,-68 4,34 46,68 84,68 41,0 78,-40 78,-84 0,-39 -20,-63 -62,-78 -15,-6 -28,-13 -28,-17 0,-3 38,-44 84,-90 l 83,-83 6,48 c 4,38 12,55 36,76 17,15 37,28 44,28 6,0 34,-35 60,-77 26,-43 53,-86 60,-96 10,-15 8,-21 -12,-38 -13,-10 -33,-19 -45,-19 -54,-1 -46,-17 41,-87 49,-38 105,-82 125,-97 l 37,-27 -6,54 c -3,31 -1,57 4,60 11,7 223,-150 223,-164 0,-5 -21,-15 -47,-22 l -48,-14 75,-48 c 80,-52 174,-105 184,-105 4,0 4,23 0,50 -4,28 -4,50 -2,50 3,0 62,-27 132,-60 138,-66 144,-75 70,-102 -19,-6 -34,-16 -34,-20 0,-4 1,-8 3,-8 4,0 100,-37 204,-79 57,-22 104,-41 107,-41 2,0 -4,20 -13,45 -21,60 -10,69 59,46 30,-10 79,-24 108,-32 44,-11 52,-16 50,-33 -2,-12 -17,-30 -35,-41 -18,-11 -32,-23 -33,-26 0,-6 195,-61 268,-75 l 33,-7 -30,31 c -23,23 -31,40 -31,66 v 36 h 63 c 34,0 79,-3 100,-6 32,-6 37,-10 37,-35 0,-42 -37,-78 -90,-87 -44,-8 -43,-9 70,-30 63,-12 138,-25 165,-29 49,-6 50,-6 33,14 -10,11 -18,35 -18,55 0,46 26,77 71,84 73,12 126,-80 79,-139 -12,-15 -28,-27 -36,-27 -8,0 -12,-5 -9,-10 4,-6 10,-8 15,-5 5,3 49,1 97,-5 171,-21 512,-35 620,-24 l 62,6 -16,34 c -15,30 -15,36 1,79 12,30 33,58 64,83 107,87 154,162 135,219 -11,33 -48,47 -166,61 -124,15 -187,78 -171,171 16,99 9,182 -21,244 -29,60 -96,127 -126,127 -10,0 -39,-18 -64,-40 -25,-22 -56,-41 -68,-42 -12,0 -27,-2 -33,-2 -7,-1 -20,-11 -30,-23 -54,-63 -148,6 -100,72 12,17 12,23 -7,50 -12,16 -30,47 -39,67 l -17,38 -30,-31 c -49,-49 -75,-39 -138,51 -29,41 -52,82 -53,91 0,27 44,59 93,65 26,4 47,10 47,14 0,4 -23,42 -51,85 -65,100 -219,253 -335,334 -94,66 -194,125 -200,118 -2,-2 5,-21 16,-42 21,-41 27,-100 11,-110 -6,-3 -43,16 -83,43 -41,26 -95,56 -121,66 -26,10 -47,23 -47,29 1,26 54,51 106,52 58,0 61,6 12,25 -18,7 -70,30 -115,51 -44,21 -134,59 -200,84 -65,26 -126,51 -135,56 -10,5 -23,9 -29,9 -6,0 -25,6 -42,14 -49,22 -168,46 -266,53 -99,7 -287,-10 -369,-34 -68,-19 -110,-11 -155,30 -108,96 -162,329 -108,462 28,67 31,78 27,82 -3,3 -14,-14 -26,-37 -12,-23 -24,-40 -26,-37 -9,9 46,87 59,84 6,-1 11,6 11,15 -1,10 2,16 6,13 5,-3 11,-1 14,4 3,5 -8,11 -24,15 -17,3 -30,10 -30,15 0,6 24,28 53,50 49,38 52,39 61,20 9,-19 10,-19 30,0 12,10 41,30 66,44 25,14 45,31 45,38 0,6 9,15 20,20 29,11 37,11 29,-2 -5,-8 0,-10 17,-6 13,3 44,9 69,13 25,4 51,13 58,21 7,7 34,13 59,13 42,0 45,-2 41,-23 -4,-19 5,-27 60,-53 l 64,-31 9,24 c 17,46 84,21 77,-29 -2,-19 -9,-23 -32,-21 l -29,2 29,-30 c 47,-49 138,-89 204,-89 56,0 122,20 135,40 9,15 -26,12 -55,-5 -37,-21 -43,-18 -37,14 6,26 0,33 -61,79 -37,28 -128,102 -202,166 -74,64 -159,127 -188,141 -50,24 -209,56 -272,54 -14,0 -67,-11 -117,-24 z m 163,-130 c 17,-13 14,-14 -41,-14 -55,0 -58,1 -41,14 11,8 29,15 41,15 12,0 30,-7 41,-15 z m 614,-240 c 12,-22 12,-28 -3,-42 -35,-35 -98,15 -67,52 20,24 55,18 70,-10 z m -973,-183 c 41,-26 30,-113 -18,-137 -72,-38 -147,43 -109,116 17,32 32,22 24,-16 -8,-46 4,-44 39,5 28,40 41,46 64,32 z m 729,-533 c 30,-28 40,-80 24,-120 -16,-38 -37,-49 -98,-49 -44,0 -53,4 -77,32 -22,26 -26,39 -22,71 12,88 110,125 173,66 z m -333,-21 c 21,-25 22,-47 1,-76 -31,-45 -114,-18 -114,38 0,65 69,88 113,38 z m 699,-58 c 20,-6 48,-24 61,-40 26,-30 44,-97 30,-110 -4,-5 -42,0 -83,10 -41,10 -96,21 -122,25 -42,5 -48,9 -48,30 0,28 31,61 75,81 37,16 41,16 87,4 z m -914,-270 c 28,-26 28,-60 1,-94 -39,-50 -119,-20 -119,45 0,35 35,69 70,69 14,0 36,-9 48,-20 z m 312,-135 c 16,-8 36,-25 44,-37 21,-30 21,-107 1,-115 -9,-3 -57,3 -108,14 -86,18 -92,21 -95,45 -4,35 24,77 63,94 39,17 60,17 95,-1 z m 1442,-59 c 64,-42 77,-162 24,-214 l -27,-27 -32,40 c -18,21 -60,71 -94,110 -35,38 -63,72 -63,75 0,10 45,33 75,40 37,8 83,-2 117,-24 z M 2179,1605 c 56,-28 110,-121 85,-145 -5,-4 -34,4 -64,19 -30,14 -87,39 -127,54 -79,31 -84,44 -30,71 40,20 100,20 136,1 z m -670,-90 c 153,-109 670,-410 919,-534 221,-111 575,-259 852,-356 91,-32 169,-62 174,-67 6,-4 -6,-8 -27,-8 -20,0 -37,-5 -37,-11 0,-6 -6,-9 -14,-6 -8,3 -20,-1 -27,-9 -10,-13 -10,-17 2,-25 8,-5 10,-9 4,-9 -5,0 4,-9 20,-20 52,-35 7,-22 -199,56 -423,161 -688,276 -941,408 -258,136 -704,394 -829,482 -18,12 -17,13 9,11 25,-2 30,2 36,31 4,23 1,42 -12,67 -11,19 -19,37 -19,40 0,8 37,-13 89,-50 z m 1209,-187 c 40,-38 62,-84 62,-129 0,-31 0,-31 -25,-15 -25,16 -60,37 -187,108 -32,18 -58,38 -58,45 0,19 59,33 119,28 44,-3 60,-10 89,-37 z m 421,-248 c 66,-33 100,-116 70,-171 -9,-18 -12,-19 -27,-6 -9,8 -59,42 -109,76 -51,34 -93,66 -93,71 0,13 70,49 98,50 12,0 40,-9 61,-20 z m 353,-240 c 41,-17 59,-37 65,-74 14,-88 -63,-150 -142,-114 -30,13 -33,28 -5,28 28,0 25,14 -10,53 -38,43 -38,59 1,91 33,28 54,32 91,16 z m 278,-202 c 26,-28 26,-62 -2,-88 -42,-39 -108,-14 -108,42 0,63 68,91 110,46 z"
       id="path26"
       inkscape:connector-curvature="0" />
    <path
       d="m 664,2751 c -111,-27 -223,-123 -277,-239 -29,-61 -31,-75 -31,-167 0,-90 3,-107 31,-165 44,-95 109,-162 201,-207 73,-37 80,-38 181,-38 98,0 111,2 173,32 140,66 233,196 245,342 14,163 -78,328 -221,400 -93,46 -214,63 -302,42 z m 243,-226 c 59,-18 136,-85 158,-139 69,-163 -22,-341 -191,-376 -70,-15 -149,0 -187,36 -15,13 -27,26 -27,28 0,1 13,1 29,-2 69,-10 151,82 151,169 0,40 -6,55 -30,83 -47,52 -152,85 -202,62 -14,-6 -16,-4 -13,12 6,32 28,61 67,88 77,54 154,66 245,39 z"
       id="path28"
       inkscape:connector-curvature="0" />
  </g>
  <g
     id="layer104"
     style="fill:#ebab18;stroke:none"
     transform="translate(-41.75,-21.623243)">
    <path
       d="m 1459,4173 c -14,-50 -52,-128 -75,-154 -8,-8 -14,-20 -14,-26 0,-18 -89,-91 -138,-113 -26,-12 -55,-25 -64,-30 -37,-20 -155,-31 -272,-24 -299,17 -521,-50 -671,-200 -94,-95 -143,-198 -175,-366 -11,-58 -11,-242 0,-300 40,-211 83,-352 141,-457 38,-70 39,-75 39,-171 0,-122 23,-204 80,-290 49,-73 111,-131 185,-173 52,-29 66,-45 151,-176 52,-79 94,-146 94,-148 0,-6 84,-129 100,-147 6,-7 33,-38 61,-68 27,-30 49,-58 49,-61 0,-34 348,-380 477,-476 43,-31 91,-70 107,-85 27,-26 166,-116 360,-233 184,-111 422,-210 676,-281 36,-10 67,-21 70,-25 16,-23 568,-111 840,-134 296,-25 653,-14 820,25 83,20 93,51 25,80 -71,30 -69,44 13,119 100,92 132,157 132,263 0,140 -49,189 -199,202 -41,4 -86,12 -100,19 -25,12 -25,14 -26,127 0,133 -14,185 -75,280 -25,38 -57,71 -87,90 -41,27 -56,30 -123,30 -67,0 -82,-3 -123,-30 l -46,-29 -19,27 c -30,42 -59,103 -72,152 -12,46 -87,200 -114,235 -186,242 -349,380 -591,498 -55,27 -116,59 -135,70 -37,23 -81,42 -255,112 -206,82 -330,123 -410,136 -116,18 -359,16 -483,-6 l -104,-17 -16,23 c -40,56 -77,154 -76,204 0,69 41,153 109,224 77,81 143,116 220,115 72,0 116,-21 213,-99 103,-84 161,-109 261,-113 46,-2 101,1 121,7 59,17 126,83 149,147 26,68 26,84 2,84 -11,0 -51,16 -90,36 -70,36 -160,116 -311,279 l -65,70 55,35 c 93,60 202,176 239,255 18,39 39,82 47,97 20,37 44,151 44,211 0,39 -3,47 -18,47 -10,0 -29,-12 -43,-26 -45,-49 -213,-152 -293,-180 -74,-26 -179,-44 -324,-56 -78,-6 -145,-9 -147,-6 -3,3 0,40 6,83 15,107 -2,196 -57,309 -35,71 -56,74 -75,9 z m 62,-130 c 15,-75 6,-189 -21,-276 -12,-38 -19,-71 -17,-74 3,-2 38,0 79,6 40,6 136,16 213,21 261,19 417,74 539,188 24,23 47,42 50,42 8,0 -29,-101 -59,-160 -92,-183 -210,-295 -372,-356 -37,-14 -69,-27 -71,-29 -2,-2 23,-17 55,-34 39,-21 103,-75 188,-159 145,-143 233,-206 312,-223 29,-7 53,-15 53,-19 0,-4 -13,-26 -30,-48 -43,-59 -99,-86 -180,-86 -88,1 -154,29 -266,112 -112,84 -176,107 -274,99 -86,-7 -147,-36 -220,-104 -150,-139 -187,-299 -108,-465 40,-83 78,-128 107,-128 11,0 53,7 93,15 109,23 172,30 283,30 168,0 249,-17 450,-95 222,-85 333,-134 466,-201 406,-206 639,-441 753,-757 14,-40 33,-86 41,-103 26,-49 85,-109 109,-109 11,0 41,16 65,35 51,41 78,50 126,42 68,-11 134,-84 175,-195 23,-61 28,-127 15,-219 -12,-92 17,-115 161,-128 93,-9 128,-24 154,-68 49,-80 14,-175 -107,-294 -46,-44 -83,-86 -83,-93 0,-23 29,-66 54,-80 14,-7 26,-16 26,-20 0,-23 -428,-42 -669,-30 -285,14 -494,43 -731,101 -132,33 -392,116 -524,169 -520,206 -1011,558 -1349,965 -54,66 -108,131 -119,144 -33,38 -139,198 -213,319 -64,105 -74,116 -125,142 -115,59 -201,163 -241,289 -15,50 -20,89 -18,161 2,94 2,96 -38,170 -67,123 -113,272 -138,450 -7,49 -7,198 0,245 41,268 192,435 460,506 69,19 111,22 310,24 127,1 241,5 254,8 108,27 175,64 243,134 51,52 108,147 108,181 0,6 4,12 9,12 5,0 15,-26 22,-57 z"
       id="path31"
       inkscape:connector-curvature="0" />
    <path
       d="m 1437,3898 c -18,-35 -34,-78 -35,-97 0,-19 -14,-55 -31,-83 -52,-83 -36,-94 28,-21 29,32 47,66 60,112 23,77 33,151 21,151 -5,0 -24,-28 -43,-62 z"
       id="path33"
       inkscape:connector-curvature="0" />
    <path
       d="m 2205,3772 c -11,-2 -29,-12 -40,-22 -42,-39 -190,-93 -425,-155 -96,-26 -176,-48 -178,-50 -2,-2 4,-15 13,-29 9,-14 14,-34 11,-44 -6,-17 0,-20 52,-25 54,-6 64,-4 127,30 64,34 69,35 81,18 13,-17 15,-17 59,-1 31,12 45,23 43,34 -2,12 10,19 50,28 63,14 101,42 177,128 57,65 67,95 30,88 z"
       id="path35"
       inkscape:connector-curvature="0" />
    <path
       d="m 1373,3483 c -61,-26 -61,-26 -46,-49 15,-24 37,-26 93,-7 20,6 25,15 26,46 1,20 -1,37 -5,36 -3,0 -34,-12 -68,-26 z"
       id="path37"
       inkscape:connector-curvature="0" />
    <path
       d="m 730,3465 c -42,-10 -45,-13 -48,-48 -5,-63 -80,-90 -134,-47 l -26,20 -46,-50 c -25,-27 -46,-53 -46,-59 0,-5 -3,-16 -6,-25 -5,-12 0,-16 21,-16 24,0 26,-3 20,-22 -4,-13 -9,-47 -12,-77 -5,-42 -10,-55 -25,-59 -17,-4 -19,-10 -13,-41 10,-60 15,-70 37,-73 18,-2 25,-16 40,-73 22,-88 23,-83 -7,-97 -26,-12 -30,-24 -16,-47 7,-10 21,-7 72,18 l 64,31 10,67 c 9,58 8,75 -7,116 -10,26 -18,69 -18,96 0,116 48,269 92,292 10,5 18,16 18,23 0,14 48,60 72,69 31,11 -1,13 -42,2 z"
       id="path39"
       inkscape:connector-curvature="0" />
    <path
       d="m 845,3403 c -62,-31 -133,-97 -151,-140 -16,-37 -19,-167 -3,-143 5,8 33,55 62,104 28,49 78,115 109,148 63,63 59,71 -17,31 z"
       id="path41"
       inkscape:connector-curvature="0" />
    <path
       d="m 1123,3331 c -24,-21 -43,-46 -43,-55 0,-22 4,-21 59,20 35,27 47,41 44,55 -7,26 -11,24 -60,-20 z"
       id="path43"
       inkscape:connector-curvature="0" />
    <path
       d="m 1715,3264 c -66,-7 -85,-14 -85,-29 0,-12 -14,-15 -61,-15 -37,0 -58,4 -54,10 9,15 -31,12 -73,-5 -101,-43 -192,-146 -273,-309 -51,-105 -58,-126 -36,-107 20,16 28,2 21,-36 -8,-45 5,-41 44,13 19,25 39,43 46,41 20,-8 86,76 80,101 -8,27 99,111 119,94 10,-9 23,-5 50,14 20,13 37,22 37,19 0,-3 10,1 23,10 12,8 22,21 22,27 0,16 58,34 63,19 2,-6 8,-9 12,-6 5,3 28,8 52,11 24,4 46,11 50,17 4,6 33,12 65,12 51,0 58,-2 61,-21 3,-18 30,-37 105,-72 4,-2 7,3 7,12 0,21 37,39 66,32 25,-7 41,-44 30,-72 -5,-13 -14,-15 -38,-10 l -32,6 29,-30 c 48,-50 139,-90 205,-90 56,0 122,20 135,40 9,15 -22,12 -56,-5 -35,-18 -51,-12 -47,18 3,24 -8,47 -23,47 -5,0 -9,-8 -9,-17 0,-9 -7,-24 -16,-34 -13,-14 -21,-16 -45,-7 -41,14 -56,44 -33,69 9,10 26,19 36,19 31,0 -199,197 -252,215 -47,17 -156,26 -225,19 z"
       id="path45"
       inkscape:connector-curvature="0" />
    <path
       d="m 883,3051 -52,-59 30,-4 c 28,-4 32,-1 60,53 16,32 29,61 29,64 0,16 -21,-1 -67,-54 z"
       id="path47"
       inkscape:connector-curvature="0" />
    <path
       d="m 664,2750 c -110,-25 -223,-122 -277,-238 -29,-61 -31,-75 -31,-167 0,-90 3,-107 31,-165 44,-95 109,-162 201,-207 73,-37 80,-38 181,-38 98,0 111,2 173,32 224,106 309,357 195,573 -36,69 -68,104 -132,144 -92,58 -247,88 -341,66 z m 243,-225 c 59,-18 136,-85 158,-139 69,-163 -22,-341 -191,-376 -70,-15 -149,0 -187,36 -15,13 -27,26 -27,28 0,1 13,1 29,-2 69,-10 151,82 151,169 0,40 -6,55 -30,83 -47,52 -152,85 -202,62 -14,-6 -16,-4 -13,12 6,32 28,61 67,88 77,54 154,66 245,39 z"
       id="path49"
       inkscape:connector-curvature="0" />
    <path
       d="m 1674,2159 c -76,-9 -124,-23 -124,-37 0,-10 149,-81 390,-188 208,-92 619,-296 757,-377 174,-102 322,-203 583,-397 114,-85 209,-155 297,-217 25,-18 50,-33 55,-33 11,0 -22,60 -59,105 -13,16 -46,63 -73,104 -37,56 -57,77 -82,85 -48,16 -140,148 -134,193 6,43 -46,115 -77,108 -18,-5 -33,7 -79,62 -31,37 -73,87 -93,111 -31,35 -35,45 -25,57 15,18 1,38 -74,97 -45,36 -50,37 -66,23 -16,-15 -23,-12 -92,32 -41,27 -95,57 -121,67 -41,16 -47,21 -45,44 3,24 -3,28 -71,55 -74,28 -75,28 -90,9 -16,-20 -17,-20 -91,-2 -41,10 -96,21 -122,25 -27,3 -49,12 -50,18 0,7 -1,19 -2,27 -1,16 -53,28 -120,29 -27,1 -47,-6 -68,-24 -23,-20 -41,-25 -83,-25 -46,0 -60,5 -88,30 -37,32 -40,32 -153,19 z"
       id="path51"
       inkscape:connector-curvature="0" />
    <path
       d="m 1313,1794 c -17,-44 209,-238 497,-425 421,-275 923,-518 1429,-691 128,-44 381,-118 403,-118 4,0 8,18 8,39 0,34 -6,44 -40,71 l -40,32 -35,-31 c -38,-33 -88,-41 -126,-21 -25,14 -24,30 1,30 28,0 25,14 -11,55 -30,33 -32,47 -18,92 2,6 -30,36 -71,66 l -75,55 -18,-30 c -16,-27 -20,-29 -35,-15 -9,8 -59,42 -109,76 -51,34 -93,68 -93,75 0,8 10,20 22,28 22,15 20,17 -92,90 l -115,75 -10,-39 c -9,-36 -11,-38 -31,-24 -19,14 -50,31 -186,108 -63,36 -71,52 -33,70 14,6 24,16 22,21 -3,10 -228,130 -264,141 -21,7 -23,4 -23,-28 0,-19 -3,-37 -7,-39 -5,-3 -33,7 -63,22 -30,14 -88,39 -127,55 -65,24 -72,30 -63,46 6,11 19,25 30,33 19,13 19,14 -8,26 -48,23 -183,71 -197,71 -7,0 -16,-16 -19,-35 -8,-42 -15,-42 -131,-18 -78,16 -107,33 -100,56 18,62 17,64 -34,77 -75,18 -231,21 -238,4 z"
       id="path53"
       inkscape:connector-curvature="0" />
    <path
       d="m 1180,1492 c 0,-18 11,-38 30,-57 35,-33 41,-85 14,-123 -14,-20 -14,-27 -1,-67 9,-24 13,-45 11,-47 -2,-2 9,-20 25,-38 l 28,-34 12,37 c 13,39 62,87 89,87 10,0 36,-31 65,-77 26,-43 53,-85 59,-94 17,-25 2,-48 -43,-67 l -41,-18 103,-82 c 57,-45 106,-82 109,-82 3,0 5,18 5,40 0,68 12,67 128,-21 59,-45 107,-86 107,-91 0,-5 -13,-15 -30,-21 -16,-6 -30,-14 -30,-18 0,-7 193,-119 204,-119 3,0 6,10 6,23 1,51 11,50 143,-13 70,-33 127,-64 127,-70 0,-5 -11,-17 -25,-26 -14,-9 -25,-20 -25,-24 0,-7 95,-50 202,-91 l 47,-18 3,42 c 2,30 7,41 18,40 45,-5 210,-60 214,-70 3,-7 -6,-26 -20,-42 l -25,-30 73,-15 c 147,-31 133,-32 133,16 v 43 l 98,-1 c 54,0 102,-5 108,-11 7,-7 7,-22 0,-48 -6,-21 -8,-42 -5,-47 7,-11 144,-10 144,2 0,5 14,25 31,45 25,28 38,35 69,35 41,0 85,-28 95,-60 8,-25 21,-25 90,1 48,18 54,23 44,36 -23,27 -164,92 -501,229 -227,92 -412,172 -583,251 -253,118 -776,406 -1073,591 -150,95 -215,132 -227,132 -3,0 -5,-13 -5,-28 z"
       id="path55"
       inkscape:connector-curvature="0" />
  </g>
  <g
     id="layer105"
     style="fill:#ac87b9;stroke:none"
     transform="translate(-41.75,-21.623243)">
    <path
       d="m 1392,4030 c -12,-16 -22,-33 -22,-38 0,-11 -60,-67 -100,-94 -14,-9 -20,-17 -14,-17 22,-2 93,61 129,114 40,57 45,87 7,35 z"
       id="path58"
       inkscape:connector-curvature="0" />
    <path
       d="m 2349,4014 c -29,-31 -117,-93 -177,-123 -24,-12 -42,-25 -39,-27 16,-16 257,144 257,170 0,13 -18,4 -41,-20 z"
       id="path60"
       inkscape:connector-curvature="0" />
    <path
       d="m 1437,3898 c -18,-35 -34,-78 -35,-97 0,-19 -14,-55 -31,-83 -52,-83 -36,-94 28,-21 29,32 47,66 60,112 23,77 33,151 21,151 -5,0 -24,-28 -43,-62 z"
       id="path62"
       inkscape:connector-curvature="0" />
    <path
       d="m 2205,3772 c -11,-2 -29,-12 -40,-22 -42,-39 -190,-93 -425,-155 -96,-26 -176,-48 -178,-50 -2,-2 4,-15 13,-29 9,-14 14,-34 11,-44 -6,-17 0,-20 52,-25 54,-6 64,-4 127,30 64,34 69,35 81,18 13,-17 15,-17 59,-1 31,12 45,23 43,34 -2,12 10,19 50,28 63,14 101,42 177,128 57,65 67,95 30,88 z"
       id="path64"
       inkscape:connector-curvature="0" />
    <path
       d="m 2302,3671 c -13,-22 -51,-70 -86,-108 -35,-37 -62,-70 -59,-73 8,-8 120,115 149,165 14,25 24,48 22,50 -2,3 -14,-13 -26,-34 z"
       id="path66"
       inkscape:connector-curvature="0" />
    <path
       d="m 232,3634 c -38,-38 -75,-80 -82,-94 -7,-14 25,15 73,65 47,49 84,91 82,94 -3,2 -35,-27 -73,-65 z"
       id="path68"
       inkscape:connector-curvature="0" />
    <path
       d="m 1373,3483 c -61,-26 -61,-26 -46,-49 15,-24 37,-26 93,-7 20,6 25,15 26,46 1,20 -1,37 -5,36 -3,0 -34,-12 -68,-26 z"
       id="path70"
       inkscape:connector-curvature="0" />
    <path
       d="m 2120,3476 c -8,-8 -41,-30 -73,-50 -57,-34 -58,-35 -35,-46 13,-7 35,-24 51,-38 15,-14 27,-21 27,-14 0,6 -16,23 -35,37 l -34,27 59,40 c 33,22 60,44 60,49 0,12 -3,11 -20,-5 z"
       id="path72"
       inkscape:connector-curvature="0" />
    <path
       d="m 730,3465 c -42,-10 -45,-13 -48,-48 -5,-63 -80,-90 -134,-47 l -26,20 -46,-50 c -25,-27 -46,-53 -46,-59 0,-5 -3,-16 -6,-25 -5,-12 0,-16 21,-16 24,0 26,-3 20,-22 -4,-13 -9,-47 -12,-77 -5,-42 -10,-55 -25,-59 -17,-4 -19,-10 -13,-41 10,-60 15,-70 37,-73 18,-2 25,-16 40,-73 22,-88 23,-83 -7,-97 -26,-12 -30,-24 -16,-47 7,-10 21,-7 72,18 l 64,31 10,67 c 9,58 8,75 -7,116 -10,26 -18,69 -18,96 0,116 48,269 92,292 10,5 18,16 18,23 0,14 48,60 72,69 31,11 -1,13 -42,2 z"
       id="path74"
       inkscape:connector-curvature="0" />
    <path
       d="m 1123,3331 c -24,-21 -43,-46 -43,-55 0,-22 4,-21 59,20 35,27 47,41 44,55 -7,26 -11,24 -60,-20 z"
       id="path76"
       inkscape:connector-curvature="0" />
    <path
       d="m 1715,3264 c -66,-7 -85,-14 -85,-29 0,-12 -14,-15 -61,-15 -37,0 -58,4 -54,10 9,15 -31,12 -73,-5 -101,-43 -192,-146 -273,-309 -51,-105 -58,-126 -36,-107 20,16 28,2 21,-36 -8,-45 5,-41 44,13 19,25 39,43 46,41 20,-8 86,76 80,101 -8,27 99,111 119,94 10,-9 23,-5 50,14 20,13 37,22 37,19 0,-3 10,1 23,10 12,8 22,21 22,27 0,16 58,34 63,19 2,-6 8,-9 12,-6 5,3 28,8 52,11 24,4 46,11 50,17 4,6 33,12 65,12 51,0 58,-2 61,-21 3,-18 30,-37 105,-72 4,-2 7,3 7,12 0,21 37,39 66,32 25,-7 41,-44 30,-72 -5,-13 -14,-15 -38,-10 l -32,6 29,-30 c 48,-50 139,-90 205,-90 56,0 122,20 135,40 9,15 -22,12 -56,-5 -35,-18 -51,-12 -47,18 3,24 -8,47 -23,47 -5,0 -9,-8 -9,-17 0,-9 -7,-24 -16,-34 -13,-14 -21,-16 -45,-7 -41,14 -56,44 -33,69 9,10 26,19 36,19 31,0 -199,197 -252,215 -47,17 -156,26 -225,19 z"
       id="path78"
       inkscape:connector-curvature="0" />
    <path
       d="m 2234,3155 c 43,-42 81,-74 84,-70 6,6 -134,138 -152,143 -6,2 24,-31 68,-73 z"
       id="path80"
       inkscape:connector-curvature="0" />
    <path
       d="m 883,3051 -52,-59 30,-4 c 28,-4 32,-1 60,53 16,32 29,61 29,64 0,16 -21,-1 -67,-54 z"
       id="path82"
       inkscape:connector-curvature="0" />
    <path
       d="m 1600,2949 c -42,-25 -110,-89 -110,-103 0,-6 21,11 48,36 26,25 63,56 82,67 19,12 31,21 25,21 -5,0 -26,-9 -45,-21 z"
       id="path84"
       inkscape:connector-curvature="0" />
    <path
       d="m 664,2750 c -110,-25 -223,-122 -277,-238 -29,-61 -31,-75 -31,-167 0,-90 3,-107 31,-165 44,-95 109,-162 201,-207 73,-37 80,-38 181,-38 98,0 111,2 173,32 224,106 309,357 195,573 -36,69 -68,104 -132,144 -92,58 -247,88 -341,66 z m 243,-225 c 59,-18 136,-85 158,-139 69,-163 -22,-341 -191,-376 -70,-15 -149,0 -187,36 -15,13 -27,26 -27,28 0,1 13,1 29,-2 69,-10 151,82 151,169 0,40 -6,55 -30,83 -47,52 -152,85 -202,62 -14,-6 -16,-4 -13,12 6,32 28,61 67,88 77,54 154,66 245,39 z"
       id="path86"
       inkscape:connector-curvature="0" />
    <path
       d="m 1674,2159 c -76,-9 -124,-23 -124,-37 0,-10 149,-81 390,-188 208,-92 619,-296 757,-377 174,-102 322,-203 583,-397 114,-85 209,-155 297,-217 25,-18 50,-33 55,-33 11,0 -22,60 -59,105 -13,16 -46,63 -73,104 -37,56 -57,77 -82,85 -48,16 -140,148 -134,193 6,43 -46,115 -77,108 -18,-5 -33,7 -79,62 -31,37 -73,87 -93,111 -31,35 -35,45 -25,57 15,18 1,38 -74,97 -45,36 -50,37 -66,23 -16,-15 -23,-12 -92,32 -41,27 -95,57 -121,67 -41,16 -47,21 -45,44 3,24 -3,28 -71,55 -74,28 -75,28 -90,9 -16,-20 -17,-20 -91,-2 -41,10 -96,21 -122,25 -27,3 -49,12 -50,18 0,7 -1,19 -2,27 -1,16 -53,28 -120,29 -27,1 -47,-6 -68,-24 -23,-20 -41,-25 -83,-25 -46,0 -60,5 -88,30 -37,32 -40,32 -153,19 z"
       id="path88"
       inkscape:connector-curvature="0" />
    <path
       d="m 2920,2101 c 0,-5 12,-14 28,-20 28,-11 63,-31 72,-42 3,-3 12,-8 20,-12 8,-4 25,-14 38,-23 12,-9 22,-12 22,-7 0,10 -160,113 -174,113 -3,0 -6,-4 -6,-9 z"
       id="path90"
       inkscape:connector-curvature="0" />
    <path
       d="m 340,2003 c 0,-17 85,-92 150,-131 42,-25 76,-55 97,-86 40,-58 43,-53 6,11 -21,38 -38,54 -83,75 -31,15 -81,53 -113,84 -31,31 -57,52 -57,47 z"
       id="path92"
       inkscape:connector-curvature="0" />
    <path
       d="m 3110,1986 c 0,-2 30,-28 68,-57 37,-29 109,-95 160,-147 50,-53 92,-90 92,-83 0,16 -230,244 -238,237 -3,-3 -12,3 -19,14 -8,11 -18,18 -23,15 -4,-3 -10,2 -14,10 -5,13 -26,22 -26,11 z"
       id="path94"
       inkscape:connector-curvature="0" />
    <path
       d="m 1313,1794 c -17,-44 209,-238 497,-425 421,-275 923,-518 1429,-691 128,-44 381,-118 403,-118 4,0 8,18 8,39 0,34 -6,44 -40,71 l -40,32 -35,-31 c -38,-33 -88,-41 -126,-21 -25,14 -24,30 1,30 28,0 25,14 -11,55 -30,33 -32,47 -18,92 2,6 -30,36 -71,66 l -75,55 -18,-30 c -16,-27 -20,-29 -35,-15 -9,8 -59,42 -109,76 -51,34 -93,68 -93,75 0,8 10,20 22,28 22,15 20,17 -92,90 l -115,75 -10,-39 c -9,-36 -11,-38 -31,-24 -19,14 -50,31 -186,108 -63,36 -71,52 -33,70 14,6 24,16 22,21 -3,10 -228,130 -264,141 -21,7 -23,4 -23,-28 0,-19 -3,-37 -7,-39 -5,-3 -33,7 -63,22 -30,14 -88,39 -127,55 -65,24 -72,30 -63,46 6,11 19,25 30,33 19,13 19,14 -8,26 -48,23 -183,71 -197,71 -7,0 -16,-16 -19,-35 -8,-42 -15,-42 -131,-18 -78,16 -107,33 -100,56 18,62 17,64 -34,77 -75,18 -231,21 -238,4 z"
       id="path96"
       inkscape:connector-curvature="0" />
    <path
       d="m 1180,1492 c 0,-18 11,-38 30,-57 35,-33 41,-85 14,-123 -14,-20 -14,-27 -1,-67 9,-24 13,-45 11,-47 -2,-2 9,-20 25,-38 l 28,-34 12,37 c 13,39 62,87 89,87 10,0 36,-31 65,-77 26,-43 53,-85 59,-94 17,-25 2,-48 -43,-67 l -41,-18 103,-82 c 57,-45 106,-82 109,-82 3,0 5,18 5,40 0,68 12,67 128,-21 59,-45 107,-86 107,-91 0,-5 -13,-15 -30,-21 -16,-6 -30,-14 -30,-18 0,-7 193,-119 204,-119 3,0 6,10 6,23 1,51 11,50 143,-13 70,-33 127,-64 127,-70 0,-5 -11,-17 -25,-26 -14,-9 -25,-20 -25,-24 0,-7 95,-50 202,-91 l 47,-18 3,42 c 2,30 7,41 18,40 45,-5 210,-60 214,-70 3,-7 -6,-26 -20,-42 l -25,-30 73,-15 c 147,-31 133,-32 133,16 v 43 l 98,-1 c 54,0 102,-5 108,-11 7,-7 7,-22 0,-48 -6,-21 -8,-42 -5,-47 7,-11 144,-10 144,2 0,5 14,25 31,45 25,28 38,35 69,35 41,0 85,-28 95,-60 8,-25 21,-25 90,1 48,18 54,23 44,36 -23,27 -164,92 -501,229 -227,92 -412,172 -583,251 -253,118 -776,406 -1073,591 -150,95 -215,132 -227,132 -3,0 -5,-13 -5,-28 z"
       id="path98"
       inkscape:connector-curvature="0" />
    <path
       d="m 780,1484 c 0,-4 12,-23 27,-43 36,-47 36,-47 95,-111 58,-62 51,-50 -41,71 -59,78 -81,101 -81,83 z"
       id="path100"
       inkscape:connector-curvature="0" />
    <path
       d="m 3640,1275 c 0,-14 49,-85 59,-85 4,0 16,10 27,21 10,12 33,30 49,40 17,11 25,19 19,19 -5,0 -31,-13 -57,-30 l -47,-29 -25,37 c -14,20 -25,32 -25,27 z"
       id="path102"
       inkscape:connector-curvature="0" />
    <path
       d="m 960,1254 c 0,-21 354,-383 365,-372 3,3 -66,77 -153,164 -87,87 -167,171 -177,187 -16,25 -35,36 -35,21 z"
       id="path104"
       inkscape:connector-curvature="0" />
    <path
       d="m 1350,854 c 7,-8 51,-42 97,-75 45,-33 83,-65 83,-70 0,-6 5,-7 10,-4 6,4 -22,31 -60,62 -39,30 -83,66 -97,79 -29,27 -53,33 -33,8 z"
       id="path106"
       inkscape:connector-curvature="0" />
    <path
       d="m 4425,378 c -16,-27 -60,-78 -97,-113 -38,-35 -68,-67 -68,-72 0,-17 151,140 176,183 15,25 25,47 23,49 -2,2 -17,-19 -34,-47 z"
       id="path108"
       inkscape:connector-curvature="0" />
  </g>
  <g
     id="layer106"
     style="fill:#9dd8ea;stroke:none"
     transform="translate(-41.75,-21.623243)">
    <path
       d="m 1406,3842 c -2,-4 -4,-22 -4,-41 0,-19 -14,-55 -31,-83 -35,-56 -36,-58 -17,-58 21,0 106,126 106,157 0,11 -49,33 -54,25 z"
       id="path111"
       inkscape:connector-curvature="0" />
    <path
       d="m 2144,3736 c -105,-55 -189,-84 -404,-141 -96,-26 -177,-48 -178,-50 -2,-2 3,-14 12,-27 9,-12 16,-30 16,-39 0,-21 20,-29 74,-29 41,0 42,1 38,28 -5,39 31,82 69,82 32,0 79,-38 79,-64 0,-13 5,-13 45,1 40,13 45,18 45,46 1,63 55,94 101,59 24,-20 25,-20 50,2 20,17 25,29 22,53 -6,37 18,63 57,63 21,0 35,8 46,25 9,14 15,27 13,29 -2,2 -40,-15 -85,-38 z"
       id="path113"
       inkscape:connector-curvature="0" />
    <path
       d="m 1373,3483 c -61,-26 -61,-26 -46,-49 12,-19 21,-22 42,-17 54,13 71,23 71,42 0,11 3,26 6,35 8,21 1,20 -73,-11 z"
       id="path115"
       inkscape:connector-curvature="0" />
    <path
       d="m 730,3465 c -42,-10 -45,-13 -48,-48 -5,-63 -80,-90 -134,-47 l -26,20 -46,-50 c -25,-27 -46,-53 -46,-59 0,-5 -3,-16 -6,-25 -5,-13 1,-16 31,-16 27,0 44,-8 66,-29 37,-37 37,-65 0,-102 -23,-23 -38,-29 -71,-29 h -42 l 6,-37 c 12,-68 16,-73 47,-73 36,0 89,-47 89,-79 0,-39 -20,-71 -55,-88 -35,-17 -41,-28 -27,-50 6,-9 24,-4 70,20 l 61,32 12,66 c 10,57 9,73 -5,115 -9,26 -16,69 -16,95 0,74 27,197 54,243 28,47 104,131 126,138 34,11 2,14 -40,3 z"
       id="path117"
       inkscape:connector-curvature="0" />
    <path
       d="m 1123,3331 c -24,-21 -43,-46 -43,-55 0,-22 4,-21 59,20 35,27 47,41 44,55 -7,26 -11,24 -60,-20 z"
       id="path119"
       inkscape:connector-curvature="0" />
    <path
       d="m 1698,3262 c -67,-8 -73,-13 -58,-43 7,-12 10,-41 7,-66 l -5,-45 30,6 c 17,3 40,6 52,6 14,0 26,11 36,32 29,61 97,53 114,-13 9,-35 23,-46 109,-87 4,-2 7,3 7,12 0,16 29,36 54,36 41,0 65,-77 26,-87 -27,-7 -25,-18 8,-41 52,-37 114,-63 162,-69 l 49,-6 -3,41 c -2,22 -7,45 -10,51 -11,17 -26,13 -26,-7 0,-27 -34,-54 -62,-50 -13,2 -28,15 -36,31 -12,25 -12,31 4,48 9,10 26,19 36,19 31,0 -199,197 -252,215 -53,19 -161,26 -242,17 z"
       id="path121"
       inkscape:connector-curvature="0" />
    <path
       d="m 1433,3221 c -65,-30 -101,-60 -160,-135 -45,-58 -153,-253 -153,-278 0,-4 12,0 28,8 15,8 46,14 69,12 39,-2 46,2 78,39 l 35,42 -25,37 c -32,46 -32,78 0,109 37,38 83,31 129,-21 l 21,-23 61,37 60,37 -30,20 c -39,26 -54,66 -39,105 10,28 9,30 -10,30 -12,0 -41,-9 -64,-19 z"
       id="path123"
       inkscape:connector-curvature="0" />
    <path
       d="m 883,3051 -52,-59 30,-4 c 28,-4 32,-1 60,53 16,32 29,61 29,64 0,16 -21,-1 -67,-54 z"
       id="path125"
       inkscape:connector-curvature="0" />
    <path
       d="m 690,2750 c -129,-27 -253,-130 -300,-251 -21,-52 -25,-81 -25,-159 0,-85 4,-102 32,-162 61,-131 175,-217 315,-239 173,-27 351,68 431,231 30,60 32,71 32,170 -1,86 -5,116 -24,162 -24,62 -100,154 -156,188 -82,51 -218,77 -305,60 z m 250,-231 c 92,-52 150,-145 150,-240 0,-84 -16,-132 -63,-185 -50,-57 -105,-85 -179,-91 -63,-6 -147,12 -155,34 -3,7 -13,13 -22,13 -21,0 -73,54 -96,99 -25,49 -28,175 -5,227 25,59 78,114 135,141 43,21 61,24 130,20 44,-2 91,-10 105,-18 z"
       id="path127"
       inkscape:connector-curvature="0" />
    <path
       d="m 633,2325 c -43,-30 -21,-152 30,-176 34,-15 79,10 101,56 14,30 15,39 4,62 -27,54 -97,85 -135,58 z"
       id="path129"
       inkscape:connector-curvature="0" />
    <path
       d="m 1674,2159 c -76,-9 -124,-23 -124,-37 0,-10 149,-81 390,-188 208,-92 619,-296 757,-377 174,-102 322,-203 583,-397 114,-85 209,-155 297,-217 25,-18 49,-33 54,-33 13,0 -13,49 -53,98 -18,23 -55,75 -82,117 l -49,75 h -47 c -63,0 -110,32 -129,86 -13,36 -12,47 2,90 16,49 16,49 -10,87 -15,21 -30,40 -34,43 -5,3 -26,-4 -48,-16 -156,-79 -297,110 -178,238 l 22,24 -53,49 c -82,75 -86,76 -114,27 -63,-115 -213,-119 -271,-8 -24,46 -18,120 13,162 12,16 18,34 14,38 -14,14 -145,61 -154,55 -5,-3 -11,-18 -15,-35 -3,-16 -22,-43 -41,-60 -29,-25 -43,-30 -88,-30 -87,0 -140,58 -135,148 l 3,47 -39,7 c -83,14 -115,10 -152,-22 -50,-44 -109,-43 -162,5 -41,37 -42,38 -157,24 z"
       id="path131"
       inkscape:connector-curvature="0" />
    <path
       d="m 1313,1794 c -17,-44 209,-238 497,-425 421,-275 923,-518 1429,-691 128,-44 381,-118 403,-118 4,0 8,18 8,39 0,34 -6,44 -40,71 l -40,32 -35,-31 c -47,-41 -100,-42 -144,-5 -26,22 -31,33 -31,70 0,25 7,58 15,73 l 14,28 -77,56 -77,55 -16,-34 c -56,-121 -209,-140 -265,-33 -33,65 -16,146 44,196 l 25,21 -104,68 c -57,37 -109,71 -116,76 -8,7 -13,-4 -18,-39 -10,-78 -35,-123 -83,-154 -59,-37 -108,-44 -160,-24 -142,57 -152,258 -18,330 20,11 35,24 33,28 -3,10 -229,130 -264,141 -22,7 -23,5 -23,-47 0,-90 -59,-156 -147,-164 -93,-8 -163,56 -163,149 0,58 17,94 64,135 l 34,31 -26,12 c -48,22 -183,70 -197,70 -7,0 -16,-15 -19,-33 -13,-69 -105,-117 -165,-85 -53,28 -77,100 -57,165 6,18 0,22 -43,33 -75,18 -231,21 -238,4 z"
       id="path133"
       inkscape:connector-curvature="0" />
    <path
       d="m 1180,1492 c 0,-18 11,-38 30,-57 35,-33 41,-85 14,-123 -14,-20 -14,-27 -1,-67 9,-24 13,-45 11,-47 -2,-2 9,-20 25,-38 l 28,-34 12,37 c 33,100 159,125 226,46 51,-61 21,-164 -58,-198 l -39,-17 103,-82 c 57,-45 106,-82 109,-82 3,0 5,19 6,43 2,88 62,147 149,147 59,0 107,-28 129,-74 20,-42 21,-98 1,-135 -17,-34 -70,-81 -91,-81 -33,0 -8,-21 87,-75 55,-31 102,-55 103,-53 1,1 8,28 15,59 17,82 61,121 138,126 45,3 65,0 90,-16 36,-23 73,-87 73,-127 0,-38 -37,-112 -66,-131 -13,-8 -24,-19 -24,-23 0,-7 95,-50 203,-91 l 47,-19 v 46 c 0,56 29,107 68,122 57,21 65,22 106,3 83,-36 100,-138 34,-208 l -20,-21 74,-16 c 147,-31 135,-31 130,8 -6,48 22,101 64,121 85,40 171,-40 144,-136 -5,-17 -7,-36 -4,-40 7,-12 144,-11 144,1 0,5 14,25 31,45 25,28 38,35 69,35 41,0 85,-28 95,-60 8,-25 21,-25 90,1 48,18 54,23 44,36 -23,27 -164,92 -501,229 -227,92 -412,172 -583,251 -253,118 -776,406 -1073,591 -150,95 -215,132 -227,132 -3,0 -5,-13 -5,-28 z"
       id="path135"
       inkscape:connector-curvature="0" />
  </g>
  <g
     id="layer107"
     style="fill:#e3f1f5;stroke:none"
     transform="translate(-41.75,-21.623243)">
    <path
       d="m 2050,3665 c -25,-13 -93,-40 -152,-61 l -106,-36 31,-33 c 32,-32 32,-32 75,-17 32,10 42,19 42,35 1,53 59,81 101,49 24,-20 25,-20 50,2 21,18 25,29 21,54 -2,18 -7,32 -11,32 -3,-1 -26,-12 -51,-25 z"
       id="path138"
       inkscape:connector-curvature="0" />
    <path
       d="m 1652,3517 c -43,-16 -52,-24 -50,-41 3,-18 11,-21 53,-24 l 50,-3 v 46 c 0,25 0,44 0,44 0,-1 -24,-10 -53,-22 z"
       id="path140"
       inkscape:connector-curvature="0" />
    <path
       d="m 1745,3234 c -97,-13 -95,-12 -95,-53 0,-21 2,-40 5,-43 12,-11 87,11 110,32 28,27 68,29 94,6 21,-19 82,-19 88,1 10,30 -123,67 -202,57 z"
       id="path142"
       inkscape:connector-curvature="0" />
    <path
       d="m 1433,3185 c -100,-46 -222,-201 -249,-317 -5,-25 -3,-28 17,-28 28,1 98,85 93,110 -17,68 -16,79 9,104 30,30 53,32 102,9 33,-16 36,-16 85,7 27,13 50,25 50,28 0,2 -9,15 -20,29 -11,14 -20,33 -20,42 -1,38 -14,41 -67,16 z"
       id="path144"
       inkscape:connector-curvature="0" />
    <path
       d="m 487,3083 c -26,-13 -28,-18 -22,-51 7,-39 13,-48 58,-93 30,-31 33,-54 13,-103 -19,-46 -7,-63 32,-47 25,10 32,21 37,53 6,33 1,51 -28,111 -19,40 -38,87 -42,104 -8,42 -14,44 -48,26 z"
       id="path146"
       inkscape:connector-curvature="0" />
    <path
       d="m 2060,2990 c 0,-11 99,-70 119,-70 8,0 -3,11 -23,25 -55,37 -96,57 -96,45 z"
       id="path148"
       inkscape:connector-curvature="0" />
    <path
       d="m 549,2690 c -57,-30 -131,-119 -159,-191 -21,-53 -25,-81 -25,-159 0,-85 4,-102 32,-162 102,-217 344,-303 558,-199 180,88 268,297 205,485 -22,68 -41,96 -32,48 l 5,-27 -30,25 c -120,98 -154,123 -203,149 -99,52 -280,69 -351,31 z m 391,-171 c 92,-52 150,-145 150,-240 0,-84 -16,-132 -63,-185 -50,-57 -105,-85 -179,-91 -63,-6 -147,12 -155,34 -3,7 -13,13 -22,13 -21,0 -73,54 -96,99 -25,49 -28,175 -5,227 25,59 78,114 135,141 43,21 61,24 130,20 44,-2 91,-10 105,-18 z"
       id="path150"
       inkscape:connector-curvature="0" />
    <path
       d="m 633,2325 c -43,-30 -21,-152 30,-176 34,-15 79,10 101,56 14,30 15,39 4,62 -27,54 -97,85 -135,58 z"
       id="path152"
       inkscape:connector-curvature="0" />
    <path
       d="m 1950,2071 c -48,-7 -70,-17 -70,-32 0,-5 163,-89 363,-187 465,-230 596,-307 914,-543 166,-123 209,-152 222,-147 15,5 1,20 -47,51 -47,30 -72,75 -72,128 0,22 -13,49 -40,85 l -39,52 -58,-5 c -47,-3 -64,0 -91,16 -62,40 -88,117 -62,187 10,25 7,31 -45,81 -54,53 -57,54 -78,39 -64,-47 -84,-56 -128,-56 -94,0 -154,72 -145,173 l 6,58 -37,15 c -72,31 -99,30 -138,-5 -30,-26 -44,-31 -89,-31 -62,0 -96,21 -126,80 -17,33 -24,38 -66,44 -54,7 -110,6 -174,-3 z"
       id="path154"
       inkscape:connector-curvature="0" />
    <path
       d="m 1761,1589 c -13,-5 -46,-10 -74,-11 l -50,-1 54,-48 c 56,-50 304,-221 444,-304 121,-73 365,-198 365,-187 0,5 -10,17 -21,28 -47,42 -65,149 -34,208 8,15 15,34 15,40 0,7 -41,33 -91,59 l -91,47 -47,-49 c -33,-36 -56,-51 -83,-56 -72,-13 -140,14 -170,68 -7,12 -15,56 -18,97 l -5,74 -70,23 c -78,25 -90,26 -124,12 z"
       id="path156"
       inkscape:connector-curvature="0" />
    <path
       d="m 1460,1292 c 0,-10 13,-28 29,-40 35,-26 71,-97 71,-143 1,-26 12,-46 49,-87 l 47,-54 47,26 c 87,49 185,27 222,-51 16,-34 17,-64 3,-155 -2,-11 16,-29 51,-51 l 53,-34 37,34 c 44,42 70,53 124,53 90,0 150,-74 145,-177 l -3,-57 82,-29 82,-29 31,25 c 48,41 95,50 145,28 34,-15 46,-29 67,-73 24,-50 30,-56 65,-61 61,-11 88,-8 124,10 49,25 123,24 150,-3 20,-21 23,-21 80,-6 32,8 56,19 53,24 -8,12 -106,58 -389,183 -385,170 -552,254 -1155,584 -101,56 -190,101 -197,101 -7,0 -13,-8 -13,-18 z"
       id="path158"
       inkscape:connector-curvature="0" />
    <path
       d="m 2755,1100 c -20,-39 -89,-78 -155,-87 l -55,-8 135,-59 c 169,-74 303,-127 308,-122 2,3 -6,18 -18,34 -27,37 -39,87 -29,130 9,40 -3,55 -86,107 -66,43 -80,43 -100,5 z"
       id="path160"
       inkscape:connector-curvature="0" />
    <path
       d="m 3155,834 c -28,-13 -60,-24 -72,-24 -47,0 -20,-20 60,-44 137,-42 192,-54 196,-44 4,11 -28,47 -89,98 l -46,38 z"
       id="path162"
       inkscape:connector-curvature="0" />
  </g>
</svg>
