<?xml version="1.0" encoding="UTF-8" standalone="no"?>
<!-- Created with Inkscape (http://www.inkscape.org/) -->

<svg
   xmlns:osb="http://www.openswatchbook.org/uri/2009/osb"
   xmlns:dc="http://purl.org/dc/elements/1.1/"
   xmlns:cc="http://creativecommons.org/ns#"
   xmlns:rdf="http://www.w3.org/1999/02/22-rdf-syntax-ns#"
   xmlns:svg="http://www.w3.org/2000/svg"
   xmlns="http://www.w3.org/2000/svg"
   xmlns:sodipodi="http://sodipodi.sourceforge.net/DTD/sodipodi-0.dtd"
   xmlns:inkscape="http://www.inkscape.org/namespaces/inkscape"
   width="23.016104mm"
   height="5.6440277mm"
   viewBox="0 0 23.016104 5.6440277"
   version="1.1"
   id="svg8"
   inkscape:version="0.92.4 (5da689c313, 2019-01-14)"
   sodipodi:docname="systemd.svg">
  <defs
     id="defs2">
    <linearGradient
       id="linearGradient2291"
       osb:paint="solid">
      <stop
         style="stop-color:#000000;stop-opacity:1;"
         offset="0"
         id="stop2289" />
    </linearGradient>
    <inkscape:path-effect
       effect="bspline"
       id="path-effect829"
       is_visible="true"
       weight="33.333333"
       steps="2"
       helper_size="0"
       apply_no_weight="true"
       apply_with_weight="true"
       only_selected="false" />
    <inkscape:path-effect
       effect="bspline"
       id="path-effect825"
       is_visible="true"
       weight="33.333333"
       steps="2"
       helper_size="0"
       apply_no_weight="true"
       apply_with_weight="true"
       only_selected="false" />
  </defs>
  <sodipodi:namedview
     id="base"
     pagecolor="#ffffff"
     bordercolor="#666666"
     borderopacity="1.0"
     inkscape:pageopacity="0.0"
     inkscape:pageshadow="2"
     inkscape:zoom="11.2"
     inkscape:cx="38.796289"
     inkscape:cy="12.488419"
     inkscape:document-units="mm"
     inkscape:current-layer="layer1"
     showgrid="true"
     inkscape:snap-smooth-nodes="true"
     inkscape:snap-object-midpoints="true"
     showguides="false"
     inkscape:window-width="1920"
     inkscape:window-height="986"
     inkscape:window-x="-11"
     inkscape:window-y="-11"
     inkscape:window-maximized="1">
    <inkscape:grid
       type="xygrid"
       id="grid2305"
       originx="-8.1409015"
       originy="-281.24736" />
  </sodipodi:namedview>
  <metadata
     id="metadata5">
    <rdf:RDF>
      <cc:Work
         rdf:about="">
        <dc:format>image/svg+xml</dc:format>
        <dc:type
           rdf:resource="http://purl.org/dc/dcmitype/StillImage" />
        <dc:title></dc:title>
      </cc:Work>
    </rdf:RDF>
  </metadata>
  <g
     inkscape:label="Layer 1"
     inkscape:groupmode="layer"
     id="layer1"
     transform="translate(-8.1409014,-10.108613)">
    <g
       aria-label="systemd"
       style="font-style:normal;font-variant:normal;font-weight:normal;font-stretch:normal;font-size:5.64444447px;line-height:1.25;font-family:FreeMono;-inkscape-font-specification:FreeMono;letter-spacing:0px;word-spacing:0px;fill:#000000;fill-opacity:1;stroke:none;stroke-width:0.26458332"
       id="text817">
      <path
         d="m 10.110812,12.857458 q 0,-0.208845 -0.1919106,-0.321734 -0.1919111,-0.112889 -0.4628445,-0.1524 -0.2709333,-0.03951 -0.5418666,-0.08467 -0.2709334,-0.04516 -0.4628445,-0.186267 -0.1919111,-0.141111 -0.1919111,-0.389467 0,-0.276578 0.2709333,-0.4572 0.2765778,-0.180622 0.6942667,-0.180622 0.4797778,0 0.7732889,0.259644 v -0.02258 q 0,-0.158045 0.1185334,-0.158045 0.112889,0 0.112889,0.158045 v 0.389466 q 0,0.1524 -0.112889,0.1524 -0.1016,0 -0.1185334,-0.129822 -0.022578,-0.191911 -0.2257778,-0.3048 -0.2032,-0.112889 -0.5249333,-0.112889 -0.3160889,0 -0.5249334,0.124178 -0.2088444,0.118533 -0.2088444,0.299156 0,0.169333 0.1919111,0.259644 0.1919111,0.09031 0.4628445,0.129822 0.2709333,0.03387 0.5418666,0.09031 0.2709334,0.0508 0.4628441,0.214489 0.191911,0.158045 0.191911,0.428978 0,0.321733 -0.316088,0.536222 -0.3104449,0.208845 -0.7902226,0.208845 -0.5418667,0 -0.8861778,-0.3048 v 0.06209 q 0,0.1524 -0.1128889,0.1524 -0.1185333,0 -0.1185333,-0.1524 v -0.468489 q 0,-0.1524 0.1185333,-0.1524 0.1128889,0 0.1128889,0.124177 v 0.03951 q 0,0.191911 0.254,0.333022 0.254,0.135466 0.6152444,0.135466 0.3725334,0 0.6208889,-0.146755 0.2483551,-0.146756 0.2483551,-0.372533 z"
         style="stroke-width:0.26458332"
         id="path2307"
         inkscape:connector-curvature="0" />
      <path
         d="m 12.535719,13.517858 -1.061156,-2.122312 h -0.09031 q -0.1524,0 -0.1524,-0.118533 0,-0.112889 0.1524,-0.112889 h 0.649111 q 0.1524,0 0.1524,0.112889 0,0.118533 -0.1524,0.118533 h -0.293511 l 0.925689,1.868312 0.908756,-1.868312 h -0.3048 q -0.1524,0 -0.1524,-0.118533 0,-0.112889 0.1524,-0.112889 h 0.620888 q 0.1524,0 0.1524,0.112889 0,0.118533 -0.1524,0.118533 h -0.07902 l -1.444978,2.940756 h 0.366889 q 0.1524,0 0.1524,0.112889 0,0.118533 -0.1524,0.118533 h -1.315155 q -0.1524,0 -0.1524,-0.118533 0,-0.112889 0.1524,-0.112889 h 0.716844 z"
         style="stroke-width:0.26458332"
         id="path2309"
         inkscape:connector-curvature="0" />
      <path
         d="m 16.879736,12.857458 q 0,-0.208845 -0.191911,-0.321734 -0.191911,-0.112889 -0.462844,-0.1524 -0.270934,-0.03951 -0.541867,-0.08467 -0.270933,-0.04516 -0.462844,-0.186267 -0.191912,-0.141111 -0.191912,-0.389467 0,-0.276578 0.270934,-0.4572 0.276578,-0.180622 0.694266,-0.180622 0.479778,0 0.773289,0.259644 v -0.02258 q 0,-0.158045 0.118534,-0.158045 0.112889,0 0.112889,0.158045 v 0.389466 q 0,0.1524 -0.112889,0.1524 -0.1016,0 -0.118534,-0.129822 -0.02258,-0.191911 -0.225777,-0.3048 -0.2032,-0.112889 -0.524934,-0.112889 -0.316089,0 -0.524933,0.124178 -0.208845,0.118533 -0.208845,0.299156 0,0.169333 0.191912,0.259644 0.191911,0.09031 0.462844,0.129822 0.270933,0.03387 0.541867,0.09031 0.270933,0.0508 0.462844,0.214489 0.191911,0.158045 0.191911,0.428978 0,0.321733 -0.316089,0.536222 -0.310444,0.208845 -0.790222,0.208845 -0.541867,0 -0.886178,-0.3048 v 0.06209 q 0,0.1524 -0.112889,0.1524 -0.118533,0 -0.118533,-0.1524 v -0.468489 q 0,-0.1524 0.118533,-0.1524 0.112889,0 0.112889,0.124177 v 0.03951 q 0,0.191911 0.254,0.333022 0.254,0.135466 0.615245,0.135466 0.372533,0 0.620889,-0.146755 0.248355,-0.146756 0.248355,-0.372533 z"
         style="stroke-width:0.26458332"
         id="path2311"
         inkscape:connector-curvature="0" />
      <path
         d="m 18.762775,11.164124 h 1.241778 q 0.1524,0 0.1524,0.112889 0,0.118533 -0.1524,0.118533 h -1.241778 v 1.507067 q 0,0.214489 0.169334,0.344311 0.169333,0.129822 0.462844,0.129822 0.237067,0 0.502356,-0.06209 0.270933,-0.06773 0.434622,-0.163689 0.05644,-0.03387 0.09031,-0.03387 0.03951,0 0.07338,0.03387 0.03387,0.03387 0.03387,0.07902 0,0.124178 -0.383823,0.254 -0.378177,0.124178 -0.739422,0.124178 -0.400755,0 -0.637822,-0.186267 -0.237067,-0.191911 -0.237067,-0.508 v -1.518356 h -0.417689 q -0.158044,0 -0.158044,-0.118533 0,-0.112889 0.158044,-0.112889 h 0.417689 v -0.671689 q 0,-0.1524 0.118534,-0.1524 0.112888,0 0.112888,0.1524 z"
         style="stroke-width:0.26458332"
         id="path2313"
         inkscape:connector-curvature="0" />
      <path
         d="m 24.032482,12.394613 h -2.348089 q 0.06209,0.445911 0.372534,0.716845 0.310444,0.265288 0.767644,0.265288 0.265289,0 0.541867,-0.08467 0.276578,-0.08467 0.445911,-0.220134 0.05644,-0.03951 0.09031,-0.03951 0.04516,0 0.07338,0.03387 0.03387,0.03387 0.03387,0.07902 0,0.146756 -0.4064,0.3048 -0.400755,0.158045 -0.784577,0.158045 -0.570089,0 -0.970845,-0.383823 -0.395111,-0.383822 -0.395111,-0.931333 0,-0.513644 0.372533,-0.857955 0.372534,-0.349956 0.9144,-0.349956 0.570089,0 0.931334,0.361244 0.361244,0.3556 0.361244,0.948267 z m -2.348089,-0.231422 h 2.111023 q -0.06773,-0.383822 -0.3556,-0.615245 -0.287867,-0.231422 -0.699912,-0.231422 -0.412044,0 -0.694266,0.231422 -0.282222,0.225778 -0.361245,0.615245 z"
         style="stroke-width:0.26458332"
         id="path2315"
         inkscape:connector-curvature="0" />
      <path
         d="m 25.114011,11.164124 v 0.293511 q 0.141111,-0.2032 0.276578,-0.287866 0.135467,-0.08467 0.316089,-0.08467 0.361244,0 0.547511,0.400756 0.310444,-0.400756 0.637822,-0.400756 0.242711,0 0.417689,0.180622 0.174978,0.180622 0.174978,0.428978 v 1.591733 h 0.191911 q 0.1524,0 0.1524,0.112889 0,0.118534 -0.1524,0.118534 H 27.2589 V 11.71728 q 0,-0.158045 -0.112889,-0.276578 -0.112889,-0.124178 -0.259644,-0.124178 -0.282222,0 -0.587022,0.462845 v 1.507066 h 0.191911 q 0.1524,0 0.1524,0.112889 0,0.118534 -0.1524,0.118534 h -0.417689 v -1.783645 q 0,-0.163689 -0.112889,-0.287867 -0.107245,-0.129822 -0.254,-0.129822 -0.282222,0 -0.592667,0.462845 v 1.507066 h 0.191911 q 0.1524,0 0.1524,0.112889 0,0.118534 -0.1524,0.118534 h -0.615244 q -0.146756,0 -0.146756,-0.118534 0,-0.112889 0.1524,-0.112889 h 0.191911 v -1.890889 h -0.191911 q -0.1524,0 -0.1524,-0.118533 0,-0.112889 0.1524,-0.112889 z"
         style="stroke-width:0.26458332"
         id="path2317"
         inkscape:connector-curvature="0" />
      <path
         d="m 30.699805,10.108613 v 3.177822 h 0.3048 q 0.1524,0 0.1524,0.112889 0,0.118534 -0.1524,0.118534 h -0.536222 v -0.502356 q -0.400756,0.592667 -1.027289,0.592667 -0.502356,0 -0.8636,-0.372534 -0.3556,-0.372533 -0.3556,-0.891822 0,-0.519289 0.3556,-0.886178 0.361244,-0.372533 0.8636,-0.372533 0.620889,0 1.027289,0.587022 v -1.332089 h -0.3048 q -0.1524,0 -0.1524,-0.118533 0,-0.112889 0.1524,-0.112889 z m -1.241778,1.207911 q -0.417689,0 -0.7112,0.299156 -0.293511,0.299155 -0.293511,0.728133 0,0.434622 0.293511,0.733778 0.293511,0.299155 0.716845,0.299155 0.417689,0 0.7112,-0.299155 0.293511,-0.299156 0.293511,-0.722489 0,-0.440267 -0.293511,-0.739422 -0.287867,-0.299156 -0.716845,-0.299156 z"
         style="stroke-width:0.26458332"
         id="path2319"
         inkscape:connector-curvature="0" />
    </g>
    <path
       style="fill:none;stroke:#000000;stroke-width:0.26458332px;stroke-linecap:butt;stroke-linejoin:miter;stroke-opacity:1"
       d="m 27.946614,14.699032 c 1.016077,0 2.031886,0 3.047434,0"
       id="path823"
       inkscape:connector-curvature="0"
       inkscape:path-effect="#path-effect825"
       inkscape:original-d="m 27.946614,14.699032 c 1.016077,-2.65e-4 2.031886,-2.65e-4 3.047434,0"
       transform="matrix(1.0472873,0,0,1,-1.3215225,0)" />
    <path
       style="fill:none;stroke:#000000;stroke-width:0.26458332px;stroke-linecap:butt;stroke-linejoin:miter;stroke-opacity:1"
       d="m 27.946614,15.620349 c 0.984578,0 1.968892,0 2.952938,0"
       id="path827"
       inkscape:connector-curvature="0"
       inkscape:path-effect="#path-effect829"
       inkscape:original-d="m 27.946614,15.620349 c 0.984578,-2.65e-4 1.968892,-2.65e-4 2.952938,0"
       transform="matrix(1.0849095,0,0,1,-2.3729352,0)" />
  </g>
</svg>
