<?xml version="1.0" encoding="UTF-8"?>
<svg width="259px" height="296px" viewBox="0 0 259 296" version="1.1" xmlns="http://www.w3.org/2000/svg" xmlns:xlink="http://www.w3.org/1999/xlink">
    <!-- Generator: sketchtool 50.2 (55047) - http://www.bohemiancoding.com/sketch -->
    <title>35600C78-FD43-44A0-A2D3-2D9D8078107C@3x</title>
    <desc>Created with sketchtool.</desc>
    <defs></defs>
    <g id="Page-1" stroke="none" stroke-width="1" fill="none" fill-rule="evenodd">
        <g id="Traefik---Bandeau-top" transform="translate(-271.000000, -208.000000)">
            <g id="Group-5" transform="translate(-6.000000, 60.000000)">
                <g id="Group-4" transform="translate(277.000000, 148.000000)">
                    <g id="traefik.logo.bright">
                        <path d="M39.8037726,116.53974 C39.8037726,116.53974 60.9593043,98.1480553 123.573394,98.1480553 C181.014826,98.1480553 197.157241,111.161081 213.552404,116.53974 L128.016891,158.279645 L39.8037726,116.53974 Z" id="path3156" fill="#C9781F" fill-rule="nonzero"></path>
                        <g id="g3158" transform="translate(28.709554, 26.010842)">
                            <path d="M2.16336011,145.886272 C2.5509667,153.86447 10.5317151,150.173212 14.1468181,147.678793 C17.5782604,145.310847 18.5815419,147.279116 18.8825264,142.60564 C19.0798932,139.534154 19.4346053,136.462668 19.2597164,133.37859 C14.0711608,132.908833 8.42701681,134.142902 4.17321267,137.229171 C1.98244049,138.819664 -2.12607971,143.894459 2.16336011,145.886272" id="path3160" fill="#F6D2A2" fill-rule="nonzero"></path>
                            <path d="M2.16336011,145.886272 C3.3250834,145.45484 4.55588509,145.148239 5.34425606,144.099225" id="path3162" fill="#C6B198" fill-rule="nonzero"></path>
                            <path d="M20.6072935,50.8415775 C-9.97579844,42.2529146 12.7652501,3.39834453 37.3242667,19.3799261 L20.6072935,50.8415775 Z" id="path3164" fill="#37ABC8" fill-rule="nonzero"></path>
                            <path d="M156.4878,16.4639308 C180.695394,-0.516294328 202.570769,37.7940588 174.437219,47.4333779 L156.4878,16.4639308 Z" id="path3166" fill="#37ABC8" fill-rule="nonzero"></path>
                            <path d="M161.694995,244.076364 C167.84407,247.876028 179.083016,259.364261 169.858856,264.935093 C160.995988,273.039217 156.035501,256.039829 148.256505,253.684476 C151.606808,249.141305 155.852936,244.998357 161.694995,244.076364 Z" id="path3168" fill="#F6D2A2" fill-rule="nonzero"></path>
                            <path d="M169.858856,264.934546 C168.491543,262.218936 168.032116,259.049995 165.74924,256.861082" id="path3170"></path>
                            <path d="M51.8422442,257.059825 C44.625196,258.175087 40.562728,264.677767 34.5463282,267.979751 C28.876965,271.355648 26.7081225,266.898983 26.1971616,265.993962 C25.3084625,265.589358 25.3830233,266.370643 24.0113236,264.991486 C18.7553344,256.707781 29.4877058,250.652957 35.0759292,246.537933 C42.859859,244.966055 47.73811,251.705256 51.8422442,257.059825 Z" id="path3172" fill="#F6D2A2" fill-rule="nonzero"></path>
                            <path d="M26.1977098,265.993414 C26.4723787,262.836518 28.9794861,260.722066 30.1730074,258.052446" id="path3174"></path>
                            <path d="M21.8835992,40.109992 C17.8485433,37.978567 14.8885886,35.0839242 17.3567709,30.4230402 C19.6418406,26.1087249 23.8868728,26.5768391 27.9219287,28.7082641 L21.8835992,40.109992 Z" id="path3176" fill="#077E91" fill-rule="nonzero"></path>
                            <path d="M168.062818,36.0579302 C172.097874,33.9265051 175.057829,31.0318624 172.589646,26.3709784 C170.304577,22.0561156 166.060093,22.5247773 162.024488,24.6562023 L168.062818,36.0579302 Z" id="path3178" fill="#077E91" fill-rule="nonzero"></path>
                            <path d="M195.83727,144.872845 C195.449663,152.851044 187.468915,149.159786 183.853812,146.665367 C180.42237,144.297421 179.419088,146.26569 179.118104,141.592761 C178.920737,138.521275 178.566025,135.44979 178.740913,132.365711 C183.929469,131.895955 189.573613,133.130024 193.827417,136.216292 C196.018189,137.806238 200.12671,142.881581 195.83727,144.872845" id="path3180" fill="#F6D2A2" fill-rule="nonzero"></path>
                            <path d="M195.83727,144.872845 C194.675546,144.441414 193.444745,144.134813 192.656374,143.085799" id="path3182" fill="#C6B198" fill-rule="nonzero"></path>
                            <g id="g3184" transform="translate(15.350756, 0.000000)" fill="#37ABC8" fill-rule="nonzero">
                                <path d="M80.5848901,0.325763653 C111.202521,0.325763653 139.904597,4.69866164 154.867198,34.0748782 C168.296917,67.0021922 163.521187,102.508788 165.569417,137.308011 C167.328175,167.189024 171.228363,201.710117 157.347442,229.400575 C142.745035,258.533153 106.256288,265.861466 76.1934774,264.787815 C52.580177,263.944115 24.0551829,256.250617 10.7285337,234.705869 C-4.90675951,209.430442 2.49559433,171.847171 3.63100204,143.722544 C4.97638615,110.407598 -5.40511084,76.9919126 5.55423247,44.3920047 C16.923112,10.5755474 47.5851507,2.93296788 80.5848901,0.325763653" id="path3186"></path>
                            </g>
                            <path d="M101.340757,41.373079 C106.837972,73.285872 159.072757,64.8483196 151.570075,32.6623231 C144.842607,3.80021096 99.514017,11.7893592 101.340757,41.373079" id="path3188" fill="#FFFFFF" fill-rule="nonzero"></path>
                            <path d="M38.9207454,46.5343798 C46.0456891,74.3173656 90.5870042,67.2042205 88.9082893,39.3352768 C86.8967921,5.95736859 32.1088474,12.3981814 38.9207454,46.5343798" id="path3190" fill="#FFFFFF" fill-rule="nonzero"></path>
                            <path d="M111.481028,78.5725507 C111.50515,82.8375908 112.491437,87.0057231 111.63947,91.7936275 C110.578623,93.7952946 108.498595,94.0071779 106.70475,94.8158382 C104.224506,94.4271118 102.138996,92.8010311 101.143938,90.4840029 C100.50743,85.44589 101.381327,80.5681953 101.541962,75.5284399 L111.481028,78.5725507 Z" id="path3192" fill="#FFFFFF" fill-rule="nonzero"></path>
                            <g id="g3194" transform="translate(43.311062, 33.397618)" fill-rule="nonzero">
                                <ellipse id="ellipse3196" fill="#000000" cx="7.89466904" cy="8.60563" rx="7.5213222" ry="8.13587881"></ellipse>
                                <ellipse id="ellipse3198" fill="#FFFFFF" cx="11.3157001" cy="10.4414149" rx="1.77301232" ry="2.06791482"></ellipse>
                            </g>
                            <g id="g3200" transform="translate(106.358809, 31.755112)" fill-rule="nonzero">
                                <ellipse id="ellipse3202" fill="#000000" cx="7.86616049" cy="8.22183661" rx="7.39632319" ry="8.13587881"></ellipse>
                                <ellipse id="ellipse3204" fill="#FFFFFF" cx="11.2307173" cy="10.0581581" rx="1.74395553" ry="2.06791482"></ellipse>
                            </g>
                            <path d="M89.98668,79.215318 C86.7049076,87.1579286 91.8167094,103.039865 100.720696,91.3255134 C100.084188,86.2874005 100.958085,81.4097058 101.118719,76.3699504 L89.98668,79.215318 Z" id="path3206" fill="#FFFFFF" fill-rule="nonzero"></path>
                            <g id="g3208" transform="translate(80.043228, 62.962723)" fill="#F6D2A2" fill-rule="nonzero">
                                <path d="M9.4215265,0.957033389 C3.30534671,1.47770773 -1.69461381,8.74032095 1.48573388,14.4858063 C5.69732344,22.0960832 15.0974685,13.8123789 20.9521372,14.5887367 C27.6905709,14.7267071 33.2113606,21.7040718 38.6235986,15.8501811 C44.6427397,9.33928807 36.032062,2.99812062 29.3024003,0.163155578 L9.4215265,0.957033389 Z" id="path3210"></path>
                            </g>
                        </g>
                        <g id="g3212" transform="translate(36.933174, 116.348662)" fill-rule="nonzero">
                            <path d="M2.87059137,0.191078177 C2.87059137,0.191078177 4.8069796,21.1390498 4.6743052,30.1689993 C4.54163081,39.1984013 13.2049396,33.4972636 13.6544975,47.6978214 C14.1040553,61.8983792 8.40673188,59.2052171 5.40511084,66.1557542 C2.4034898,73.1057438 0.363483973,105.655282 0.363483973,105.655282 C0.363483973,105.655282 3.44350352,111.736933 13.0640416,117.213048 C22.6845797,122.689162 38.1543041,125.765028 51.5494834,125.158943 C64.9446627,124.552859 74.5125697,121.687233 76.9050946,120.102215 C79.2970714,118.517745 83.2674348,113.504817 84.760844,109.627956 C86.2542533,105.751094 89.3742944,73.8202339 89.1566426,55.5484517 C88.9389909,37.2766695 85.9159884,20.4174423 85.9159884,20.4174423 L2.87059137,0.191078177 Z" id="path3214" fill="#EF9325"></path>
                            <path d="M87.7224434,89.1557632 C48.2753864,93.5532987 2.50436619,81.3965657 2.50436619,81.3965657 C2.50436619,81.3965657 3.17651001,69.0662745 6.13701296,64.7267742 C47.1635531,77.4206066 88.5535772,73.3959199 88.5535772,73.3959199 C89.1676075,79.1523553 88.7350451,83.7283765 87.7224434,89.1557632 Z" id="path3216" fill="#E5E5E5"></path>
                            <path d="M82.7570221,113.457732 C43.3099651,117.855267 0.363483973,105.210163 0.363483973,105.210163 C0.363483973,105.210163 0.22587541,93.3671481 1.79274901,88.1664272 C42.8192892,100.86026 86.6402151,97.6967934 86.6402151,97.6967934 C86.2712488,103.945433 85.3913215,110.095522 82.7570221,113.457732 Z" id="path3218" fill="#E5E5E5"></path>
                        </g>
                        <g id="g3220" transform="translate(131.230675, 116.348662)" fill-rule="nonzero">
                            <path d="M82.3217185,0.191078177 C82.3217185,0.191078177 82.0541768,21.1390498 82.1884959,30.1689993 C82.322815,39.1984013 76.9374409,33.4972636 76.4818524,47.6978214 C76.0262638,61.8983792 81.7954069,59.2052171 84.8348566,66.1557542 C87.8743063,73.1057438 89.9400794,105.655282 89.9400794,105.655282 C89.9400794,105.655282 86.8211348,111.736933 77.0799836,117.213048 C67.3388324,122.689162 51.6744824,125.765028 38.110993,125.158943 C24.5475036,124.552859 14.8595318,121.687233 12.4368536,120.102215 C10.0141753,118.517197 5.99447022,113.504817 4.48242075,109.627956 C2.97037129,105.751094 -0.189143244,73.8202339 0.0312497533,55.5484517 C0.25164275,37.2766695 3.31247385,20.4174423 3.31247385,20.4174423 L82.3217185,0.191078177 Z" id="path3222" fill="#EF9325"></path>
                            <path d="M1.48354092,89.1557632 C41.426208,93.5532987 87.7723334,81.3965657 87.7723334,81.3965657 C87.7723334,81.3965657 87.0914177,69.0662745 84.0941826,64.7267742 C42.5517474,77.4206066 0.641990546,73.3959199 0.641990546,73.3959199 C0.0202849276,79.1523553 0.458329715,83.7283765 1.48354092,89.1557632 Z" id="path3224" fill="#E5E5E5"></path>
                            <path d="M6.51091351,113.457732 C46.4535806,117.855267 89.9395312,105.210163 89.9395312,105.210163 C89.9395312,105.210163 90.0787845,93.3671481 88.4921742,88.1664272 C46.949739,100.86026 2.57892701,97.6967934 2.57892701,97.6967934 C2.95282757,103.945433 3.84371966,110.095522 6.51091351,113.457732 Z" id="path3226" fill="#E5E5E5"></path>
                        </g>
                        <g id="g3228" transform="translate(207.984455, 94.996087)" fill-rule="nonzero">
                            <path d="M21.5025715,59.9651498 C20.2613532,62.3040781 17.804684,63.4330271 16.0152244,62.4858487 L14.5815735,61.7275586 C12.7921139,60.7809277 12.346942,58.1167833 13.5881603,55.777855 L41.5402422,3.08955344 C42.7809123,0.750625158 45.2381297,-0.37832384 47.0275893,0.568854514 L48.4612402,1.3271447 C50.2506998,2.27377555 50.6958717,4.93791998 49.4546534,7.27684827 L21.5025715,59.9651498 Z" id="path3230" fill="#D2E261"></path>
                            <path d="M8.30201779,84.8474704 C7.57888754,86.2102027 5.54217116,86.5474639 3.7527116,85.6002856 L2.31906064,84.8419954 C0.529601082,83.8953646 -0.335523667,82.0229079 0.387606589,80.6601756 L13.5015381,55.9410106 C14.2246684,54.5782782 16.2613848,54.2410171 18.0508443,55.1881954 L19.4844953,55.9464856 C21.2739549,56.8931164 22.1390796,58.7655731 21.4159494,60.1283054 L8.30201779,84.8474704 Z" id="path3232" fill="#000000"></path>
                            <path d="M19.9620135,55.0458449 L18.5283625,54.2875547 C16.7389029,53.3409239 14.907777,53.2894587 14.4390307,54.1725793 L13.6007698,55.7526699 C14.0695161,54.8690018 15.9000938,54.920467 17.6901016,55.8676453 L19.1237525,56.6259355 C20.9132121,57.5725663 21.9844756,59.0568441 21.5157293,59.9399647 L22.3539902,58.3598741 C22.8227365,57.4767535 21.751473,55.9930233 19.9620135,55.0458449 Z" id="path3234" fill="#9B9B9B"></path>
                        </g>
                        <ellipse id="ellipse3236" fill="#F6D2A2" fill-rule="nonzero" transform="translate(216.136985, 164.336270) rotate(20.413879) translate(-216.136985, -164.336270) " cx="216.136985" cy="164.33627" rx="6.15347641" ry="4.75397164"></ellipse>
                        <g id="g3238" transform="translate(0.749249, 94.996087)" fill-rule="nonzero">
                            <path d="M26.1944204,60.8154203 C27.3265387,63.2090988 29.728932,64.4491907 31.5600579,63.5852326 L33.0266033,62.8931902 C34.8577292,62.0292321 35.4246107,59.3886303 34.2924924,56.9949518 L8.7894043,3.08188841 C7.65728604,0.688209937 5.25489273,-0.551881954 3.42376683,0.312076105 L1.95722139,1.00411856 C0.126095496,1.86807661 -0.440785994,4.50867846 0.691332262,6.90235694 L26.1944204,60.8154203 Z" id="path3240" fill="#D2E261"></path>
                            <path d="M38.2387332,86.2764505 C38.8982675,87.6709379 40.9174401,88.1007269 42.7491143,87.2373164 L44.2156597,86.5452739 C46.0467856,85.6813159 46.9968878,83.8504694 46.3368052,82.455982 L34.3714392,57.1619399 C33.7119049,55.7674525 31.6927323,55.3376634 29.8610581,56.201074 L28.3945127,56.8931164 C26.5633868,57.7570745 25.6132846,59.587921 26.2733671,60.9824084 L38.2387332,86.2764505 Z" id="path3242" fill="#000000"></path>
                            <path d="M27.9592091,55.9722182 L29.4257545,55.2801757 C31.2568804,54.4162177 33.0880063,54.4485203 33.5156345,55.352446 L34.2804311,56.9697667 C33.8528029,56.065841 32.021677,56.0335384 30.1905511,56.896949 L28.7240057,57.5889914 C26.8928798,58.4529495 25.7547309,59.8863095 26.1823591,60.7902352 L25.4175625,59.1729145 C24.9904825,58.2695363 26.1280832,56.8361762 27.9592091,55.9722182 Z" id="path3244" fill="#9B9B9B"></path>
                        </g>
                        <ellipse id="ellipse3246" fill="#F6D2A2" fill-rule="nonzero" transform="translate(41.089114, 165.024431) rotate(159.586121) translate(-41.089114, -165.024431) " cx="41.0891136" cy="165.024431" rx="6.15347641" ry="4.75397164"></ellipse>
                        <g id="g3248" transform="translate(26.516589, 0.825753)" fill-rule="nonzero">
                            <g id="g3250" transform="translate(2.192965, 25.732591)">
                                <path d="M24.1949844,62.2684905 C22.9789853,64.4765658 20.1105869,65.232666 17.7876885,63.9569865 L15.1161087,62.4902288 C12.7932104,61.2145492 11.8962877,58.3905342 13.1117386,56.1824589 L40.9152472,5.68635513 C42.1312463,3.47827982 44.9996448,2.72217964 47.3225431,3.99785916 L49.9941229,5.46461685 C52.3170212,6.74029637 52.9162489,9.12685732 51.998493,11.7723867 C42.2589866,39.836241 24.1949844,62.2684905 24.1949844,62.2684905 Z" id="path3252" fill="#960000"></path>
                                <path d="M31.5496413,33.4255409 C40.0046184,18.069754 45.5599473,4.86291222 44.2364929,3.36494691 L44.2677426,3.30855421 C44.2315587,3.28884414 44.1931818,3.2757041 44.1569979,3.25599403 C44.152612,3.25325652 44.1515155,3.24449649 44.1465813,3.24175898 L44.1427436,3.24942401 C31.1499734,-3.78104839 13.6698482,3.18153376 5.03449973,18.8652743 C-3.60084877,34.5490148 -0.124450772,53.0189927 12.7800526,60.2093357 L12.7762149,60.2170007 C12.7811491,60.2197382 12.7888245,60.2159057 12.7937586,60.2180957 C12.8299426,60.2383533 12.8611923,60.2635384 12.8973763,60.2832484 L12.928626,60.2268557 C14.9033911,60.5405744 23.0946642,48.7813277 31.5496413,33.4255409 Z" id="path3254" fill="#595959"></path>
                            </g>
                            <g id="g3256" transform="translate(146.380423, 25.732591)">
                                <path d="M26.6955129,62.3741584 C27.8468196,64.6161788 30.6927402,65.4549518 33.0512742,64.246615 L35.763972,62.8570551 C38.1225061,61.6492658 39.1011168,58.8520784 37.9498101,56.6100579 L11.6172328,5.33376389 C10.4659261,3.09174345 7.62000563,2.25297048 5.26147162,3.46130726 L2.54877374,4.85086718 C0.190239726,6.05865645 -0.478066401,8.42769734 0.362935731,11.0978643 C9.28775563,39.4305421 26.6955129,62.3741584 26.6955129,62.3741584 Z" id="path3258" fill="#960000"></path>
                                <path d="M20.1774723,33.3313705 C12.1698601,17.7385153 6.99830002,4.3767305 8.3645173,2.91763783 L8.33491227,2.86015013 C8.37164444,2.84153506 8.41056957,2.82949002 8.44730173,2.81087495 C8.45223591,2.80813744 8.45333239,2.79937741 8.45826656,2.7971874 L8.46210425,2.80485243 C21.6522413,-3.84839113 38.9240348,3.6151553 47.1026983,19.5414392 C55.2813618,35.4677231 51.2726215,53.8298431 38.1658171,60.6451472 L38.1696548,60.6528123 C38.1647206,60.6550023 38.1570453,60.6511698 38.1521111,60.6533598 C38.1153789,60.6725223 38.0835809,60.6971599 38.0468488,60.715775 L38.0172437,60.6582873 C36.0337068,60.9145182 28.1850845,48.9242257 20.1774723,33.3313705 Z" id="path3260" fill="#595959"></path>
                            </g>
                            <path d="M192.630058,52.4884633 C192.630058,52.4884633 182.900968,28.1541922 171.618163,15.2884441 C160.335357,2.42324358 49.9431364,-1.96443696 31.8149901,15.2884441 C13.6868437,32.5413252 6.85191959,52.4884633 6.85191959,52.4884633 L6.85191959,47.0988543 C6.85191959,47.0988543 15.2372701,23.4095404 31.8149901,9.89883505 C48.3927101,-3.61187029 157.33264,-2.90066527 171.387353,9.89883505 C185.441518,22.6983354 192.630058,47.0988543 192.630058,47.0988543 L192.630058,52.4884633 Z" id="path3262" fill="#353535"></path>
                            <ellipse id="ellipse3264" fill="#960000" transform="translate(192.490339, 46.095741) rotate(152.850710) translate(-192.490339, -46.095741) " cx="192.490339" cy="46.0957411" rx="3.8096405" ry="9.29363039"></ellipse>
                            <ellipse id="ellipse3266" fill="#960000" transform="translate(8.209378, 45.461228) rotate(28.802510) translate(-8.209378, -45.461228) " cx="8.20937794" cy="45.4612284" rx="3.80979137" ry="9.29399843"></ellipse>
                        </g>
                        <g id="g3268" transform="translate(59.959308, 47.910920)" fill="#FFFFFF" fill-rule="nonzero">
                            <path d="M117.592273,0.269370954 L97.1949564,0.269370954 L81.0251279,0.269370954 L56.2248851,0.269370954 L42.214579,0.269370954 L14.6270775,0.269370954 C-3.85961865,0.269370954 -3.79602266,49.3288297 13.5607482,52.1566772 L49.4519122,49.851694 C53.791242,49.851694 62.4556473,33.0680221 64.0811827,31.7485424 C65.7067181,30.4290627 71.059746,30.2680972 73.168282,31.7485424 C75.276818,33.2289877 80.0722845,48.1604605 84.4110661,48.1604605 L120.30223,52.1561297 C137.0669,44.4516824 132.840508,0.269370954 117.592273,0.269370954 Z" id="path3270" opacity="0.6"></path>
                            <path d="M41.9651292,10.4129394 C30.6247582,10.1599935 12.880929,10.2629238 3.18857132,10.3417641 C1.56358415,15.6629355 -0.248353303,22.3999468 0.650214165,28.9415 C9.45277625,28.9415 28.5885901,28.9842051 42.1970353,28.9842051 C50.3910496,28.9842051 57.2802496,30.5281606 63.6869972,32.200779 C63.8448907,31.9992983 63.9775651,31.8509253 64.0811827,31.7671575 C65.7067181,30.4476778 71.059746,30.2867122 73.168282,31.7671575 C73.7137821,32.1504088 74.4418465,33.4414184 75.2921688,35.1337469 C78.5635245,35.8225043 81.8398144,36.2982835 85.2443928,36.3409887 C94.5178942,36.4581541 116.251275,36.420924 130.236362,36.3815038 C132.017598,30.4372753 130.704012,24.0654477 130.304892,18.077419 C116.650395,18.077419 94.9504566,17.7697229 84.5470299,17.7697229 C69.8881544,17.7691754 57.0894616,10.7502006 41.9651292,10.4129394 Z" id="path3272" opacity="0.5"></path>
                        </g>
                        <path d="M117.40458,89.6124959 C116.951733,79.0303842 137.154428,77.707617 139.540375,86.5651023 C141.920294,95.4023323 118.399097,97.4549142 117.40458,89.6124959 C116.610728,83.3507162 117.40458,89.6124959 117.40458,89.6124959 Z" id="path3274" fill="#000000" fill-rule="nonzero"></path>
                    </g>
                </g>
            </g>
        </g>
    </g>
</svg>