<?xml version="1.0" encoding="UTF-8" standalone="no"?>
<!-- Created with Inkscape (http://www.inkscape.org/) -->

<svg
   xmlns:dc="http://purl.org/dc/elements/1.1/"
   xmlns:cc="http://creativecommons.org/ns#"
   xmlns:rdf="http://www.w3.org/1999/02/22-rdf-syntax-ns#"
   xmlns:svg="http://www.w3.org/2000/svg"
   xmlns="http://www.w3.org/2000/svg"
   xmlns:sodipodi="http://sodipodi.sourceforge.net/DTD/sodipodi-0.dtd"
   xmlns:inkscape="http://www.inkscape.org/namespaces/inkscape"
   width="713.12726"
   height="200.8"
   id="svg4742"
   version="1.1"
   inkscape:version="0.48.2 r9819"
   sodipodi:docname="New document 29">
  <defs
     id="defs4744" />
  <sodipodi:namedview
     id="base"
     pagecolor="#ffffff"
     bordercolor="#666666"
     borderopacity="1.0"
     inkscape:pageopacity="0.0"
     inkscape:pageshadow="2"
     inkscape:zoom="0.35"
     inkscape:cx="356.56364"
     inkscape:cy="100.4"
     inkscape:document-units="px"
     inkscape:current-layer="layer1"
     showgrid="false"
     fit-margin-top="0"
     fit-margin-left="0"
     fit-margin-right="0"
     fit-margin-bottom="0"
     inkscape:window-width="647"
     inkscape:window-height="441"
     inkscape:window-x="0"
     inkscape:window-y="32"
     inkscape:window-maximized="0" />
  <metadata
     id="metadata4747">
    <rdf:RDF>
      <cc:Work
         rdf:about="">
        <dc:format>image/svg+xml</dc:format>
        <dc:type
           rdf:resource="http://purl.org/dc/dcmitype/StillImage" />
        <dc:title></dc:title>
      </cc:Work>
    </rdf:RDF>
  </metadata>
  <g
     inkscape:label="Layer 1"
     inkscape:groupmode="layer"
     id="layer1"
     transform="translate(-18.43636,-431.96218)">
    <path
       inkscape:connector-curvature="0"
       style="fill:#bad05d;fill-opacity:1"
       d="M 47.56364,630.95736 C 34.21489,627.38227 26.14166,618.08675 21.29886,600.71611 19.26882,593.43455 19.14722,590.49448 18.80066,540.312 l -0.3643,-52.75 16.56364,0 16.56364,0 0,42.92764 c 0,25.15152 0.44592,46.16684 1.07685,50.75 2.24689,16.32155 8.63611,24.32236 19.42315,24.32236 10.3385,0 17.26267,-7.68016 22.14479,-24.56259 1.47472,-5.0996 1.77248,-12.11081 2.11018,-49.68741 l 0.39318,-43.75 16.42592,0 16.42593,0 0.011,67.25 c 0.006,36.9875 0.28993,68.9375 0.63084,71 l 0.61983,6.95018 -31.9831,0 -0.6306,-8.45018 c -0.21643,-2.90019 -0.64764,-9.075 -0.66847,-13.75 l -0.0379,-8.5 -4.40034,8.37969 c -2.42019,4.60883 -5.82218,9.84665 -7.55997,11.6396 -8.61216,8.8855 -24.27716,12.54634 -37.98129,8.87607 z"
       id="path4689" />
    <path
       inkscape:connector-curvature="0"
       style="fill:#000000;fill-opacity:1"
       d="m 425.06364,631.51388 c -26.54748,-4.16174 -42.27865,-17.29458 -49.65311,-41.45188 -1.74405,-5.71317 -2.37737,-10.5 -1.3892,-10.5 0.25172,0 7.11422,-1.14773 15.25,-2.55051 8.13577,-1.40278 15.40785,-2.64028 16.16018,-2.75 0.8715,-0.1271 1.86064,1.70035 2.72579,5.03596 3.03303,11.69397 8.24814,18.4709 17.40634,22.6192 6.15111,2.78621 21.39185,2.95878 28.23165,0.31965 5.99941,-2.31486 12.13878,-9.11697 13.65172,-15.12542 1.80491,-7.16791 1.36582,-17.40233 -0.9674,-22.54888 -4.35984,-9.6168 -9.97401,-13.02299 -35.23483,-21.3774 -22.4317,-7.41875 -28.78329,-10.63243 -36.82052,-18.62989 -10.53772,-10.48557 -15.71289,-25.82269 -14.50694,-42.99271 1.83795,-26.16837 15.40477,-42.45948 39.64632,-47.60751 10.07193,-2.13892 31.24618,-2.13882 40.3118,1.7e-4 15.4223,3.63884 25.22776,10.93961 31.48608,23.44334 4.00862,8.00898 7.99034,20.70912 6.85015,21.8493 -0.48228,0.48228 -28.87885,5.07863 -32.66052,5.28653 -0.28187,0.0155 -1.32357,-2.78433 -2.3149,-6.22183 -2.3505,-8.15055 -6.20045,-13.65394 -11.71762,-16.75 -3.77993,-2.12118 -5.74299,-2.5 -12.95499,-2.5 -14.43048,0 -21.61682,5.27909 -24.11417,17.71429 -2.52968,12.59621 1.63267,23.17038 11.30953,28.73111 2.91755,1.67655 13.62964,5.78959 23.80464,9.14009 21.93181,7.22187 30.47497,11.46596 38.0512,18.90314 6.39433,6.27697 12.36825,17.36742 13.95001,25.89786 1.44296,7.7819 1.19656,22.51105 -0.51213,30.61351 -4.32661,20.51642 -18.87609,34.86137 -40.50425,39.93484 -8.18526,1.92008 -27.61514,2.75074 -35.48483,1.51704 z"
       id="path4687" />
    <path
       inkscape:connector-curvature="0"
       style="fill:#000000;fill-opacity:1"
       d="m 586.94491,631.62951 c -24.1868,-3.86082 -42.55019,-19.78278 -52.48622,-45.50811 -9.6242,-24.91799 -11.60603,-62.65697 -4.91631,-93.6188 6.82173,-31.57283 24.36407,-52.11024 50.01108,-58.54966 8.61971,-2.16423 26.46515,-2.19219 34.73485,-0.0544 17.93971,4.63753 32.04846,16.78702 40.70201,35.04979 5.74955,12.13405 6.69877,10.60135 -10.19947,16.46908 -8.14868,2.82953 -15.32345,5.14461 -15.94394,5.14461 -0.62049,0 -1.67396,-1.6875 -2.34104,-3.75 -3.43898,-10.6327 -10.92281,-19.70479 -19.18825,-23.26049 -6.50972,-2.8004 -17.02436,-2.44875 -23.32219,0.77999 -15.21384,7.79975 -22.78211,29.98013 -22.76942,66.7305 0.009,26.75241 3.6231,44.20804 11.80078,57 7.06967,11.05875 14.7486,15.01369 27.76278,14.29887 10.23658,-0.56226 18.0482,-3.97776 25.00226,-10.93182 l 4.77181,-4.77181 0,-16.04762 0,-16.04762 -16.5,0 -16.5,0 0,-13 0,-13 33,0 33,0 0,34.9102 0,34.9102 -3.86472,4.88924 c -9.63078,12.18385 -25.48343,22.41517 -40.80031,26.33257 -8.78072,2.24573 -24.37912,3.23439 -31.9537,2.0253 z"
       id="path4685" />
    <path
       inkscape:connector-curvature="0"
       style="fill:#000000;fill-opacity:1"
       d="m 169.61338,534.812 c -10.89287,-52.18717 -20.63202,-95.9875 -20.86079,-97.5 l -0.41595,-5.14982 35.227,0 c 0.32812,0 4.92892,29.31202 10.95316,60.7464 6.02423,31.43438 12.42122,67.59393 14.21552,80.35456 1.79431,12.76063 3.52084,23.12742 3.57064,22.89287 l 38.56047,-137.82208 15.6,0.0945 39.85299,137.13356 c 0.11554,0.39757 1.78981,-7.7625 3.0573,-17.25 1.26749,-9.4875 7.58053,-45.6 14.02899,-80.25 l 11.72445,-66.04682 35.69592,0 -0.56599,5.27322 c -0.16615,1.54803 -9.59467,45.00809 -20.62972,96.62803 -11.03505,51.61993 -19.57116,98.84575 -20.06373,98.84575 l -42.5414,0 -28.13627,-105.76109 -26.84279,105.76109 -41.98496,0 z"
       id="path4683" />
    <path
       inkscape:connector-curvature="0"
       style="fill:#000000;fill-opacity:1"
       d="m 696.56364,532.062 0,-100.09982 35,0.2 0,99.89982 0,100.70018 -35,0 z"
       id="path4157" />
    <g
       id="g4701"
       transform="matrix(0.41666667,0,0,0.41666667,587.86386,301.1877)">
      <path
         transform="matrix(0.97674421,0,0,0.97674421,486.97672,-305.49324)"
         d="m -738.57142,715.93359 c 0,16.96303 -13.75125,30.71429 -30.71429,30.71429 -16.96303,0 -30.71428,-13.75126 -30.71428,-30.71429 0,-16.96303 13.75125,-30.71428 30.71428,-30.71428 16.96304,0 30.71429,13.75125 30.71429,30.71428 z"
         sodipodi:ry="30.714285"
         sodipodi:rx="30.714285"
         sodipodi:cy="715.93359"
         sodipodi:cx="-769.28571"
         id="path4691"
         style="fill:#bad05d;fill-opacity:1;stroke-width:1;stroke-miterlimit:4;stroke-dasharray:none"
         sodipodi:type="arc" />
      <path
         transform="matrix(0.92105265,0,0,0.92105265,366.50243,-247.20072)"
         d="m -671.42857,695.93359 c 0,7.4953 -6.07614,13.57143 -13.57143,13.57143 -7.49529,0 -13.57143,-6.07613 -13.57143,-13.57143 0,-7.49529 6.07614,-13.57142 13.57143,-13.57142 7.49529,0 13.57143,6.07613 13.57143,13.57142 z"
         sodipodi:ry="13.571428"
         sodipodi:rx="13.571428"
         sodipodi:cy="695.93359"
         sodipodi:cx="-685"
         id="path4693"
         style="fill:#000000;fill-opacity:1;stroke-width:1;stroke-miterlimit:4;stroke-dasharray:none"
         sodipodi:type="arc" />
    </g>
  </g>
</svg>
